<svg width="539" height="489" viewBox="0 0 539 489" fill="none" xmlns="http://www.w3.org/2000/svg">
<g clip-path="url(#clip0)">
<path d="M5.94698 28.4789C11.9035 22.0568 19.4295 17.3061 27.7798 14.6969C36.1301 12.0878 45.0152 11.7108 53.5555 13.6032C71.5879 17.8231 82.7083 33.5004 97.8255 42.8596C105.717 47.9882 115.147 50.1898 124.486 49.0834C135.066 47.6689 144.682 42.3174 153.263 36.1879C168.944 25.0135 184.555 7.14375 205.291 6.97873C226.028 6.8137 242.908 23.6697 258.942 34.5377C275.893 46.0186 296.018 55.0949 316.848 50.4035C325.976 48.2416 334.238 43.3597 340.546 36.4001C346.283 30.3178 350.985 23.3161 357.004 17.5402C360.102 14.3305 364.033 12.0533 368.354 10.966C372.674 9.87871 377.212 10.0246 381.455 11.3872C391.987 14.6405 400.145 22.6088 408.633 29.2569C416.572 35.846 425.921 40.5091 435.952 42.8832C445.707 44.9813 455.821 44.7227 465.457 42.1288C475.52 39.3705 483.96 33.8304 492.118 27.4652C500.276 21.1 508.81 13.6268 519.366 10.9629C524.107 9.62451 529.15 9.84761 533.755 11.5994C534.554 12.0084 535.476 12.1071 536.344 11.8765C537.212 11.6459 537.964 11.1023 538.457 10.3499C538.922 9.53503 539.049 8.56971 538.812 7.66152C538.575 6.75333 537.991 5.97484 537.187 5.4935C527.407 1.36791 517.156 3.13602 507.846 7.85098C497.948 12.731 490.049 20.6993 481.044 26.9466C472.747 32.8702 462.978 36.3774 452.816 37.0806C442.655 37.7837 432.498 35.6553 423.468 30.9307C405.6 21.2179 390.553 -1.34318 367.419 3.77255C349.88 7.63882 342.733 26.7108 329.614 36.7773C312.264 50.1678 288.941 44.2034 271.661 34.2076C253.558 23.764 238.159 7.26162 217.587 1.55651C208.067 -1.09491 197.938 -0.506279 188.787 3.2303C179.42 7.45473 170.709 13.0128 162.926 19.7327C147.503 31.968 127.801 48.9419 106.853 39.6534C98.6248 35.9993 91.8539 29.7284 85.0594 23.9526C78.3004 17.6668 70.5459 12.552 62.1132 8.81756C51.6239 4.92709 40.2204 4.23908 29.3416 6.84038C18.4628 9.44167 8.59604 15.2157 0.98629 23.4339C-2.09357 26.758 2.86714 31.7794 5.97051 28.4318L5.94698 28.4789Z" fill="#2D2FEE"/>
<path d="M221.867 126.361C211.185 114.286 196.916 105.973 181.165 102.649C165.413 99.3257 149.013 101.167 134.385 107.902C126.556 111.532 117.457 116.766 113.484 124.805C111.462 128.86 117.551 132.443 119.573 128.365C123.499 120.444 133.679 115.469 141.626 112.475C150.533 109.056 160.053 107.53 169.58 107.996C178.639 108.518 187.503 110.854 195.647 114.866C203.792 118.879 211.052 124.486 217 131.359C220.009 134.777 224.97 129.779 221.984 126.361H221.867Z" fill="#2D2FEE"/>
<path d="M216.529 125.394C211.686 131.712 204.045 135.013 196.593 137.181C187.403 139.723 177.913 141.008 168.38 141.001C150.293 140.842 132.718 134.959 118.162 124.192C114.494 121.504 111.109 127.634 114.612 130.298C130.825 142.16 150.452 148.4 170.52 148.073C180.883 147.903 191.171 146.277 201.083 143.24C209.569 140.891 217.114 135.947 222.666 129.095C223.094 128.295 223.2 127.361 222.964 126.485C222.728 125.609 222.167 124.856 221.396 124.38C220.596 123.963 219.668 123.862 218.798 124.097C217.927 124.333 217.176 124.889 216.694 125.653L216.529 125.394Z" fill="#2D2FEE"/>
<path d="M185.753 103.211L186.717 83.5727L187.211 73.412C187.501 71.8345 187.371 70.2082 186.834 68.697C186.405 67.8646 185.704 67.2048 184.849 66.8274C183.993 66.4499 183.034 66.3776 182.132 66.6225C179.602 67.6941 177.278 69.2022 175.267 71.0781C173.034 72.7755 170.824 74.5436 168.708 76.3824C164.548 80.0073 160.673 83.9481 157.117 88.1698C153.047 92.9802 149.382 98.1215 146.161 103.541C145.687 104.35 145.554 105.316 145.79 106.224C146.026 107.133 146.612 107.91 147.419 108.385C148.227 108.86 149.189 108.994 150.095 108.758C151.001 108.521 151.777 107.934 152.251 107.124C156.304 100.32 161.107 93.9937 166.568 88.2641C169.311 85.3968 172.207 82.6817 175.244 80.1308C176.631 78.9521 178.065 77.7733 179.523 76.736C180.392 76.0995 181.239 75.4866 182.132 74.8736C182.773 74.3338 183.466 73.8599 184.201 73.4591H182.32L182.697 73.577L180.581 71.9504L180.792 72.3276L180.298 70.5594C180.298 73.247 180.087 76.0288 179.946 78.7399L179.546 86.8025L178.747 103.305C178.535 107.855 185.588 107.855 185.8 103.305L185.753 103.211Z" fill="#2D2FEE"/>
<path d="M179.664 145.952C177.618 155.258 176.368 164.722 175.926 174.242L181.945 171.743C176.937 166.745 171.929 161.794 166.945 156.796C162.243 152.252 157.926 147.324 154.038 142.062C153.55 141.271 152.778 140.698 151.881 140.462C150.984 140.225 150.031 140.342 149.218 140.789C148.414 141.27 147.831 142.049 147.593 142.957C147.356 143.865 147.483 144.831 147.949 145.645C152.05 151.259 156.602 156.525 161.561 161.393C166.663 166.533 171.812 171.625 176.96 176.741C177.462 177.213 178.088 177.53 178.765 177.654C179.441 177.778 180.139 177.704 180.774 177.44C181.41 177.176 181.956 176.734 182.347 176.167C182.738 175.599 182.957 174.931 182.979 174.242C183.386 165.351 184.543 156.51 186.435 147.814C186.667 146.927 186.552 145.985 186.116 145.179C185.679 144.373 184.952 143.764 184.084 143.477C183.183 143.231 182.222 143.353 181.411 143.817C180.6 144.282 180.005 145.049 179.758 145.952H179.664Z" fill="#2D2FEE"/>
<path d="M222.594 129.826L264.654 90.9987L258.776 87.5568C257.399 91.9774 256.67 96.5756 256.613 101.207C256.402 105.922 255.932 110.519 255.32 115.163C254.13 125.338 252.324 135.431 249.913 145.386L254.262 143.028C242.52 138.612 231.683 132.076 222.288 123.744C221.787 123.272 221.16 122.955 220.484 122.831C219.807 122.707 219.11 122.781 218.474 123.045C217.839 123.309 217.293 123.751 216.902 124.318C216.511 124.885 216.291 125.554 216.27 126.243V128.082C216.27 129.02 216.641 129.919 217.302 130.582C217.964 131.246 218.861 131.618 219.796 131.618C220.731 131.618 221.628 131.246 222.29 130.582C222.951 129.919 223.323 129.02 223.323 128.082V126.243L217.304 128.742C227.606 137.874 239.497 145.026 252.381 149.841C253.27 150.093 254.221 149.987 255.033 149.547C255.845 149.107 256.454 148.367 256.731 147.484C259.151 137.621 260.942 127.612 262.091 117.52C262.655 112.805 263.337 108.09 263.549 103.376C263.552 98.6984 264.225 94.0459 265.547 89.5607C266.746 86.048 262.091 83.8791 259.646 86.1187L217.586 124.97C214.248 128.058 219.232 133.056 222.57 129.968L222.594 129.826Z" fill="#2D2FEE"/>
<path d="M340.313 401.502C342.921 398.305 345.932 395.46 349.27 393.039C352.511 390.45 355.885 388.034 359.38 385.801C365.989 381.325 373.504 378.371 381.385 377.15C389.941 376.506 398.519 378.064 406.306 381.676C414.406 384.642 421.978 388.893 428.735 394.265C432.144 397.235 437.152 392.261 433.719 389.267C426.331 383.315 418.036 378.594 409.151 375.287C400.052 371.492 390.343 368.945 380.445 370.218C371.481 371.586 362.93 374.927 355.406 380.002C347.812 384.858 339.607 390.634 334.247 397.966C331.567 401.644 337.679 405.18 340.336 401.55L340.313 401.502Z" fill="#2D2FEE"/>
<path d="M335.469 403.341C341.418 409.565 350.351 412.63 358.345 415.246C367.271 418.302 376.763 419.333 386.134 418.264C404.143 416.072 420.06 406.877 433.343 394.831C436.729 391.766 431.721 386.792 428.359 389.833C416.604 400.559 402.215 409.093 386.181 411.192C377.98 412.184 369.662 411.38 361.801 408.834C354.513 406.477 345.861 403.883 340.454 398.225C337.303 394.925 332.319 399.946 335.469 403.223V403.341Z" fill="#2D2FEE"/>
<path d="M364.174 418.641L363.469 439.646C363.471 440.19 363.598 440.726 363.84 441.213C364.082 441.699 364.433 442.123 364.865 442.451C365.297 442.78 365.799 443.004 366.332 443.106C366.864 443.208 367.413 443.186 367.936 443.041C375.248 440.424 379.691 434.177 385.451 429.391C391.211 424.606 398.053 421.14 402.849 415.247C403.494 414.571 403.854 413.671 403.854 412.736C403.854 411.8 403.494 410.901 402.849 410.225C402.182 409.574 401.287 409.21 400.357 409.21C399.426 409.21 398.532 409.574 397.864 410.225C393.303 415.836 386.862 419.278 381.29 423.71C378.688 425.898 376.2 428.22 373.837 430.664C371.677 433.064 369.021 434.962 366.055 436.228L370.522 439.646L371.227 418.641C371.368 414.091 364.315 414.115 364.174 418.641V418.641Z" fill="#2D2FEE"/>
<path d="M375.811 373.778L376.258 351.005L369.675 352.773C372.597 357.074 376.067 360.973 379.996 364.372C381.783 365.881 383.64 367.319 385.427 368.851C386.32 369.629 387.213 370.454 388.036 371.209C388.483 371.657 388.906 372.128 389.306 372.6L389.776 373.189C389.494 372.835 390.129 373.708 390.129 373.684C390.613 374.479 391.385 375.056 392.283 375.293C393.182 375.531 394.137 375.41 394.948 374.957C395.72 374.482 396.281 373.729 396.517 372.852C396.753 371.976 396.646 371.042 396.218 370.242C393.147 366.322 389.565 362.833 385.568 359.869C383.693 358.327 381.925 356.657 380.278 354.871C379.432 353.952 378.609 353.009 377.809 352.019C377.01 351.029 376.493 350.274 375.764 349.237C375.37 348.572 374.77 348.054 374.054 347.764C373.339 347.473 372.549 347.426 371.804 347.63C371.06 347.833 370.402 348.276 369.933 348.89C369.463 349.504 369.207 350.255 369.205 351.029L368.758 373.802C368.77 374.736 369.145 375.629 369.804 376.289C370.463 376.95 371.353 377.326 372.284 377.338C373.212 377.314 374.095 376.934 374.752 376.276C375.408 375.618 375.787 374.732 375.811 373.802V373.778Z" fill="#2D2FEE"/>
<path d="M339.441 396.905C327.968 387.004 315.931 377.574 306.174 365.928C303.705 363.005 299.662 366.234 300.273 369.37C303.392 385.521 304.089 402.048 302.342 418.405C302.355 419.177 302.613 419.924 303.078 420.539C303.543 421.153 304.191 421.603 304.928 421.824C307.843 422.979 310.265 420.952 312.404 419.254L320.586 412.771L337.043 399.828C337.698 399.162 338.065 398.265 338.065 397.33C338.065 396.394 337.698 395.497 337.043 394.831C336.373 394.185 335.48 393.825 334.551 393.825C333.622 393.825 332.729 394.185 332.059 394.831L318.799 405.321L312.569 410.249L309.042 413.03L307.491 414.256C306.95 414.657 306.339 414.775 306.879 415.011L309.466 418.405C311.214 401.417 310.421 384.261 307.114 367.507L301.237 370.926C311.064 382.572 323.031 392.002 334.504 401.927C337.937 404.873 342.944 399.899 339.488 396.905H339.441Z" fill="#2D2FEE"/>
<path d="M461.202 304.563C473.569 293.231 485.724 281.679 497.667 269.908C503.623 264.093 509.524 258.23 515.37 252.321C520.443 247.798 525.101 242.827 529.288 237.469C529.677 236.791 529.833 236.003 529.731 235.228C529.629 234.452 529.275 233.732 528.724 233.178C512.345 217.1 495.762 201.211 478.976 185.51C470.763 177.825 462.503 170.186 454.196 162.595L441.571 151.326C438.781 148.272 435.509 145.7 431.885 143.712C431.209 143.343 430.434 143.197 429.67 143.294C428.906 143.391 428.192 143.727 427.629 144.254C422.148 149.533 417.049 155.198 412.371 161.204C407.152 167.499 401.368 173.251 395.702 179.121C384.386 190.861 373.07 202.594 361.753 214.318C358.603 217.595 363.564 222.593 366.738 219.316C378.07 207.592 389.386 195.859 400.687 184.119C406.235 178.39 411.901 172.756 417.026 166.603C421.807 160.457 427.016 154.659 432.614 149.252L428.335 149.818C431.733 151.738 434.804 154.189 437.433 157.079C441.642 160.898 445.85 164.693 450.035 168.536C458.326 176.111 466.586 183.742 474.815 191.427C491.319 206.861 507.627 222.499 523.74 238.341L523.199 234.05C519.461 239.473 513.795 243.999 509.234 248.643C503.466 254.396 497.698 260.116 491.93 265.806C480.191 277.31 468.287 288.618 456.218 299.73C452.856 302.795 457.864 307.793 461.202 304.728V304.563Z" fill="#2D2FEE"/>
<path d="M361.752 219.246C394.267 246.64 425.535 275.495 457.133 303.95C460.519 306.968 465.503 301.993 462.118 298.928C430.52 270.497 399.251 241.642 366.736 214.248C363.28 211.324 358.272 216.322 361.752 219.246Z" fill="#2D2FEE"/>
<path d="M454.456 302.488C454.456 311.777 454.573 321.073 454.808 330.377C454.949 334.621 455.137 338.888 455.349 343.131C455.466 345.489 455.584 347.846 455.725 350.204C455.602 352.531 455.752 354.866 456.172 357.158V358.313C456.198 358.217 456.244 358.128 456.307 358.05C456.369 357.972 456.447 357.908 456.535 357.862C456.623 357.816 456.72 357.788 456.819 357.78C456.918 357.773 457.018 357.786 457.112 357.818C456.562 357.275 455.955 356.793 455.302 356.38L451.352 353.15L442.841 346.078C437.246 341.363 431.486 337.072 425.726 332.617C411.761 321.843 397.89 310.904 384.536 299.353C371.817 288.343 358.557 277.805 346.284 266.348C339.231 259.771 332.507 252.981 325.431 246.474C318.354 239.968 310.76 233.013 303.848 225.847C300.674 222.593 295.69 227.591 298.84 230.844C311.842 244.258 325.971 256.588 339.396 269.554C352.42 282.096 366.715 293.388 380.398 305.199C394.669 317.482 409.504 329.057 424.386 340.562C430.522 345.276 436.517 349.991 442.465 355.036C445.38 357.394 448.272 359.869 451.235 362.109C453.797 364.16 456.595 365.857 459.863 364.136C464.283 361.779 463.107 356.592 462.849 352.514C462.496 347.115 462.237 341.693 462.002 336.271C461.563 325.049 461.375 313.82 461.438 302.583C461.438 301.645 461.067 300.745 460.405 300.082C459.744 299.419 458.847 299.046 457.912 299.046C456.976 299.046 456.079 299.419 455.418 300.082C454.757 300.745 454.385 301.645 454.385 302.583L454.456 302.488Z" fill="#2D2FEE"/>
<path d="M302.225 230.255C322.891 225.776 344.121 224.903 364.834 220.66C369.277 219.74 367.396 212.927 362.953 213.823C342.24 218.09 321.034 218.962 300.345 223.442C295.925 224.408 297.805 231.221 302.225 230.255Z" fill="#2D2FEE"/>
<path d="M339.558 224.408C370.451 251.378 399.933 279.95 430.943 306.779C438.78 313.552 446.758 320.161 454.876 326.605C458.403 329.41 463.434 324.436 459.861 321.607C430.026 298.032 402.566 271.534 374.377 245.979C364.518 237.021 354.573 228.165 344.542 219.41C341.133 216.44 336.126 221.414 339.558 224.408V224.408Z" fill="#2D2FEE"/>
<path d="M420.388 329.976C424.338 322.691 428.287 315.383 432.825 308.429C437.057 301.922 442.347 295.981 444.58 288.437C445.944 284.076 439.126 282.213 437.786 286.551C435.599 293.624 430.168 299.376 426.218 305.411C421.869 312.177 418.037 319.25 414.205 326.298C412.018 330.306 418.107 333.89 420.294 329.882L420.388 329.976Z" fill="#2D2FEE"/>
<path d="M387.072 303.243C398.935 291.894 409.996 279.731 420.175 266.843C420.813 266.169 421.169 265.274 421.169 264.344C421.169 263.414 420.813 262.52 420.175 261.845C419.513 261.183 418.617 260.811 417.682 260.811C416.748 260.811 415.852 261.183 415.19 261.845C404.998 274.729 393.929 286.891 382.064 298.245C378.773 301.404 383.78 306.402 387.072 303.243V303.243Z" fill="#2D2FEE"/>
<path d="M356.251 277.57C364.292 273.421 372.309 269.248 380.349 265.122C387.736 261.026 395.57 257.799 403.695 255.504C408.115 254.419 406.258 247.606 401.838 248.691C393.391 251.037 385.248 254.368 377.575 258.616C369.276 262.859 360.977 267.173 352.701 271.464C348.657 273.539 352.207 279.644 356.251 277.57Z" fill="#2D2FEE"/>
<path d="M331.308 257.649C349.74 252.746 367.796 246.404 385.64 239.756C389.872 238.2 387.991 231.363 383.759 232.943C365.915 239.591 347.859 245.932 329.45 250.836C328.592 251.12 327.875 251.723 327.447 252.521C327.019 253.32 326.914 254.253 327.152 255.127C327.39 256.001 327.955 256.751 328.728 257.22C329.501 257.689 330.425 257.843 331.308 257.649V257.649Z" fill="#2D2FEE"/>
<path d="M497.077 156.419C496.114 157.367 495.55 158.649 495.502 160.002C495.475 161.052 495.718 162.091 496.207 163.02C496.549 163.722 497.038 164.341 497.641 164.835C498.023 165.195 498.45 165.505 498.911 165.754C499.643 166.128 500.443 166.353 501.262 166.414C502.394 166.465 503.519 166.221 504.53 165.707C505.316 165.33 506.025 164.811 506.622 164.175C507.261 163.477 507.785 162.681 508.174 161.817C508.422 161.309 508.627 160.781 508.785 160.238C508.933 159.649 509.035 159.05 509.091 158.446C509.183 157.397 509.005 156.342 508.574 155.381C508.32 154.722 507.936 154.121 507.445 153.613C507.171 153.332 506.863 153.087 506.528 152.882C506.396 152.782 506.254 152.695 506.105 152.623C505.365 152.276 504.569 152.069 503.754 152.01C503.183 151.998 502.612 152.069 502.061 152.222C501.545 152.355 501.047 152.553 500.58 152.812C500.079 153.099 499.626 153.465 499.24 153.896C498.273 155.004 497.709 156.409 497.641 157.88C497.626 158.466 497.681 159.052 497.806 159.625C497.942 160.224 498.156 160.802 498.441 161.346C498.715 161.874 499.055 162.365 499.452 162.807C499.747 163.114 500.079 163.383 500.439 163.609C500.959 163.912 501.535 164.105 502.132 164.175C503.073 164.253 504.014 164.033 504.824 163.547C505.633 163.061 506.271 162.332 506.646 161.464C507.406 160.068 507.647 158.448 507.328 156.89C507.143 156.069 506.743 155.312 506.168 154.699C505.593 154.085 504.865 153.637 504.06 153.401C503.402 153.205 502.713 153.142 502.031 153.215C501.349 153.288 500.688 153.495 500.087 153.825C499.407 154.216 498.84 154.777 498.441 155.452C498.012 156.16 497.807 156.982 497.853 157.81C497.902 158.737 498.268 159.619 498.887 160.308C499.557 160.959 500.448 161.33 501.38 161.346C502.313 161.335 503.205 160.963 503.872 160.308C504.206 159.985 504.47 159.597 504.648 159.167C504.826 158.737 504.914 158.275 504.906 157.81V157.55L504.789 158.493C504.778 158.431 504.778 158.367 504.789 158.305L504.412 159.153C504.446 159.087 504.486 159.024 504.53 158.965L503.989 159.672C504.038 159.611 504.093 159.556 504.154 159.507L503.448 160.073L503.731 159.908L502.884 160.261H503.26H502.32H502.79H501.873H502.179L501.356 159.908L501.638 160.073L500.909 159.507C500.978 159.564 501.041 159.627 501.097 159.696L500.557 158.988C500.633 159.09 500.696 159.201 500.745 159.318L500.392 158.47C500.445 158.623 500.484 158.781 500.51 158.941L500.392 157.998C500.416 158.202 500.416 158.407 500.392 158.611L500.51 157.668C500.467 157.945 500.388 158.214 500.275 158.47L500.651 157.621C500.492 157.972 500.295 158.304 500.063 158.611L500.604 157.904C500.554 157.978 500.49 158.042 500.416 158.092L501.121 157.55H500.956L501.803 157.197L502.743 157.055L503.66 157.197H503.472L504.318 157.55L504.06 157.385L504.765 157.951L504.483 157.645L505.047 158.352C504.879 158.133 504.737 157.896 504.624 157.645L504.977 158.493C504.863 158.205 504.784 157.904 504.742 157.597L504.859 158.54C504.812 158.236 504.812 157.926 504.859 157.621L504.718 158.564C504.718 158.328 504.718 158.116 504.906 157.88L504.553 158.729C504.639 158.559 504.733 158.394 504.836 158.234L504.295 158.941C504.417 158.782 504.56 158.64 504.718 158.517L503.989 159.083C504.145 158.955 504.32 158.852 504.506 158.776L503.684 159.13C503.891 159.031 504.114 158.968 504.342 158.941L503.401 159.059C503.597 159.034 503.794 159.034 503.989 159.059L503.049 158.918C503.212 158.939 503.371 158.987 503.519 159.059L502.673 158.682C502.829 158.754 502.979 158.841 503.119 158.941L502.414 158.399C502.527 158.489 502.63 158.592 502.72 158.705L502.179 157.998C502.295 158.141 502.39 158.3 502.461 158.47L502.108 157.621C502.196 157.857 502.259 158.102 502.297 158.352L502.179 157.409C502.214 157.769 502.214 158.133 502.179 158.493L502.32 157.55C502.242 158.036 502.108 158.51 501.92 158.965L502.297 158.116C502.091 158.566 501.839 158.992 501.544 159.389L502.108 158.682C501.852 159.013 501.552 159.306 501.215 159.554L501.944 159.012C501.691 159.191 501.424 159.349 501.144 159.483L501.967 159.13C501.708 159.225 501.44 159.296 501.168 159.342H502.108H501.427H502.367C502.155 159.323 501.948 159.267 501.756 159.177L502.602 159.531C502.409 159.453 502.227 159.35 502.061 159.224L502.767 159.766C502.569 159.604 502.388 159.422 502.226 159.224L502.767 159.931C502.611 159.725 502.478 159.504 502.367 159.271L502.72 160.096C502.632 159.892 502.569 159.679 502.532 159.46L502.673 160.403C502.65 160.207 502.65 160.009 502.673 159.813V160.756C502.649 160.624 502.649 160.488 502.673 160.356L502.297 161.181C502.366 161.05 502.445 160.924 502.532 160.804L501.967 161.534L502.179 161.299C502.839 160.636 503.21 159.737 503.21 158.8C503.21 157.863 502.839 156.964 502.179 156.301C501.515 155.642 500.621 155.269 499.687 155.263C498.755 155.279 497.864 155.65 497.195 156.301L497.077 156.419Z" fill="#2D2FEE"/>
<path d="M499.806 123.037C499.443 123.17 499.09 123.327 498.748 123.508C498.416 123.709 498.102 123.938 497.808 124.192C497.422 124.543 497.09 124.948 496.82 125.394C496.286 126.285 495.994 127.302 495.974 128.341C495.932 129.388 496.185 130.426 496.703 131.335C496.961 131.776 497.278 132.181 497.643 132.538C497.925 132.797 498.255 133.033 498.56 133.268L498.936 133.481C499.89 133.986 500.957 134.238 502.035 134.213C503.113 134.188 504.167 133.887 505.096 133.339C506.013 132.742 506.77 131.929 507.302 130.972C507.835 130.015 508.127 128.942 508.153 127.846C508.186 126.903 508.012 125.964 507.642 125.096C507.273 124.228 506.716 123.452 506.013 122.825C505.221 122.093 504.272 121.552 503.239 121.245C502.192 120.962 501.089 120.962 500.041 121.245C499.055 121.504 498.165 122.045 497.479 122.801C497.15 123.15 496.866 123.538 496.632 123.956C496.4 124.409 496.211 124.882 496.068 125.371C495.804 126.338 495.8 127.357 496.056 128.326C496.312 129.295 496.819 130.178 497.526 130.887C498.106 131.436 498.807 131.84 499.571 132.066C499.957 132.163 500.35 132.226 500.747 132.255H501.099C501.918 132.202 502.717 131.986 503.45 131.618C503.909 131.366 504.329 131.048 504.696 130.675C505.433 129.98 505.955 129.089 506.201 128.105C506.4 127.332 506.4 126.521 506.201 125.748C505.978 124.985 505.584 124.284 505.049 123.697C504.621 123.26 504.086 122.943 503.497 122.778C502.881 122.613 502.233 122.613 501.617 122.778H501.405C501.063 122.876 500.732 123.011 500.418 123.178L499.947 123.532L499.43 123.933C498.831 124.535 498.415 125.295 498.231 126.125C498.014 127.049 498.139 128.021 498.584 128.86C499.05 129.649 499.798 130.231 500.676 130.487C501.131 130.612 501.607 130.646 502.075 130.585C502.544 130.525 502.995 130.371 503.403 130.133L504.109 129.567C504.549 129.141 504.866 128.603 505.026 128.011V127.728L504.673 128.577C504.714 128.482 504.769 128.395 504.838 128.318L504.273 129.025L504.485 128.813L503.78 129.379L503.968 129.261L503.121 129.614H503.427L499.994 128.718L499.454 128.011L499.595 128.247L499.242 127.398C499.252 127.5 499.252 127.603 499.242 127.705L499.101 126.785C499.124 126.886 499.124 126.991 499.101 127.092L499.242 126.149C499.22 126.294 499.181 126.437 499.125 126.573L499.477 125.748L499.219 126.196L499.759 125.465C499.646 125.602 499.52 125.729 499.383 125.842L500.088 125.3C499.936 125.421 499.771 125.524 499.595 125.607L500.441 125.229H500.041H500.982H500.582H501.523C501.413 125.24 501.303 125.24 501.193 125.229L502.04 125.583L501.687 125.371L502.393 125.913L502.11 125.63L502.651 126.337C502.567 126.212 502.496 126.077 502.44 125.937L502.792 126.785C502.731 126.617 502.684 126.443 502.651 126.267L502.792 127.21C502.769 126.99 502.769 126.769 502.792 126.55L502.675 127.493C502.707 127.275 502.762 127.062 502.839 126.856L502.487 127.705C502.56 127.517 502.663 127.341 502.792 127.186L502.228 127.893C502.335 127.751 502.462 127.624 502.604 127.516L501.899 128.058C502.023 127.952 502.167 127.872 502.322 127.823L501.476 128.176C501.647 128.097 501.829 128.041 502.016 128.011L501.076 128.153C501.317 128.106 501.564 128.106 501.805 128.153L500.864 128.011L501.546 128.2L500.7 127.846C500.974 127.967 501.234 128.117 501.476 128.294L500.747 127.752C500.965 127.916 501.162 128.106 501.335 128.318L500.77 127.61C500.939 127.829 501.081 128.066 501.193 128.318L500.817 127.469C500.913 127.705 500.983 127.95 501.029 128.2L500.888 127.257C500.923 127.562 500.923 127.871 500.888 128.176L501.005 127.233C500.963 127.533 500.884 127.826 500.77 128.105L501.123 127.257C501.012 127.485 500.886 127.705 500.747 127.917L501.288 127.186C501.149 127.368 500.991 127.534 500.817 127.681L501.523 127.115C501.358 127.261 501.166 127.373 500.958 127.445L501.805 127.092C501.588 127.189 501.358 127.252 501.123 127.28H502.063H501.476H502.416C502.181 127.252 501.951 127.189 501.734 127.092L502.581 127.445C502.381 127.367 502.191 127.264 502.016 127.139L502.745 127.681C502.59 127.572 502.454 127.436 502.345 127.28L502.886 128.011C502.807 127.883 502.736 127.749 502.675 127.61L503.027 128.459C502.951 128.277 502.896 128.088 502.863 127.893L503.004 128.836C502.957 128.619 502.957 128.394 503.004 128.176L502.863 129.119C502.9 128.9 502.963 128.687 503.051 128.483L502.698 129.331C502.761 129.17 502.848 129.019 502.957 128.883L502.393 129.591C502.498 129.461 502.616 129.343 502.745 129.237L502.04 129.779L502.416 129.544L501.593 129.897C502.046 129.808 502.464 129.586 502.792 129.261C503.178 129.015 503.493 128.674 503.709 128.271C503.946 127.865 504.099 127.416 504.159 126.951C504.22 126.485 504.187 126.012 504.062 125.559C503.808 124.672 503.228 123.914 502.44 123.438L501.593 123.084C500.977 122.919 500.328 122.919 499.712 123.084L499.806 123.037Z" fill="#2D2FEE"/>
<path d="M495.387 73.1524C494.776 74.1037 494.495 75.2307 494.588 76.3586C494.638 77.0498 494.805 77.7274 495.081 78.3624C495.349 79.0234 495.723 79.6365 496.186 80.1777C496.717 80.8415 497.393 81.3739 498.161 81.7336C498.647 81.9943 499.171 82.1773 499.713 82.2759C500.154 82.3671 500.603 82.4223 501.053 82.4409C501.502 82.4091 501.95 82.3541 502.393 82.2759C502.726 82.2288 503.051 82.1335 503.357 81.993C503.938 81.7986 504.491 81.5291 505.003 81.1914C506.018 80.4877 506.901 79.6099 507.612 78.5982C508.363 77.5629 508.811 76.3383 508.905 75.0619C508.938 74.6184 508.898 74.1726 508.788 73.7418C508.689 73.2909 508.515 72.8603 508.271 72.4687C507.819 71.7126 507.179 71.0872 506.413 70.6535C505.24 70.0626 503.962 69.7101 502.652 69.6162C501.595 69.5156 500.528 69.6443 499.525 69.9934C498.961 70.1722 498.423 70.4259 497.926 70.7478C497.397 71.083 496.915 71.4873 496.492 71.9501C495.685 72.8334 495.125 73.9152 494.87 75.0855C494.682 75.9635 494.682 76.8715 494.87 77.7495C494.976 78.32 495.191 78.8645 495.505 79.3526C496.034 80.3574 496.854 81.1789 497.856 81.7101C498.589 82.0823 499.387 82.3065 500.207 82.3702H500.653C501.082 82.3536 501.508 82.2903 501.923 82.1816C503.346 81.7522 504.55 80.7898 505.285 79.494C506.075 78.1552 506.333 76.5666 506.006 75.0456C505.679 73.5246 504.792 72.1834 503.522 71.29C502.82 70.8636 502.025 70.615 501.205 70.5657C500.386 70.5164 499.567 70.6679 498.82 71.0071C498.038 71.3235 497.356 71.8446 496.845 72.5159C496.232 73.3068 495.886 74.2729 495.857 75.2742C495.852 75.7392 495.942 76.2003 496.119 76.6298C496.297 77.0593 496.56 77.4482 496.892 77.7731C497.552 78.4364 498.449 78.8095 499.384 78.8104C499.847 78.8153 500.307 78.7258 500.736 78.5476C501.164 78.3693 501.552 78.1058 501.876 77.7731C502.51 77.0922 502.877 76.2049 502.91 75.2742V75.2742V76.2171C502.886 76.1164 502.886 76.0114 502.91 75.9106L502.558 76.7593L502.699 76.5L502.158 77.2309C502.216 77.1487 502.288 77.077 502.37 77.0187L501.664 77.5609L501.993 77.3723L501.171 77.7259C501.312 77.6619 501.463 77.622 501.617 77.608L500.677 77.7259H501.1L500.16 77.608C500.284 77.5865 500.411 77.5865 500.536 77.608L499.689 77.2544L499.995 77.4194L499.266 76.8772C499.4 76.9681 499.519 77.0795 499.619 77.2073L499.055 76.4765C499.171 76.6277 499.266 76.7943 499.337 76.9715L498.984 76.1228C499.064 76.336 499.119 76.5574 499.149 76.7829V75.8399C499.184 76.098 499.184 76.3598 499.149 76.6179L499.29 75.6749C499.247 75.9438 499.168 76.2056 499.055 76.4529L499.407 75.6042C499.313 75.8285 499.195 76.0419 499.055 76.2407L499.595 75.5099C499.473 75.676 499.331 75.8264 499.172 75.9578L499.878 75.392C499.75 75.493 499.607 75.5726 499.454 75.6278L500.301 75.2742L499.878 75.392L500.818 75.2742H500.301L501.241 75.392C501.037 75.3732 500.838 75.3173 500.653 75.227L501.5 75.5806C501.284 75.4859 501.078 75.3673 500.888 75.227L501.594 75.7692C501.43 75.6523 501.287 75.5089 501.171 75.3449L501.711 76.0521C501.586 75.8857 501.483 75.7034 501.406 75.5099L501.758 76.3586C501.69 76.1841 501.643 76.0021 501.617 75.8164L501.758 76.7593C501.735 76.5242 501.735 76.2873 501.758 76.0521L501.641 76.9951C501.664 76.7326 501.736 76.4768 501.852 76.2407L501.5 77.0894C501.601 76.8366 501.735 76.5988 501.899 76.3822L501.359 77.113C501.546 76.8705 501.759 76.6491 501.993 76.4529L501.265 77.0187C501.52 76.8302 501.796 76.672 502.088 76.5472L501.241 76.9008C501.567 76.7709 501.906 76.6761 502.252 76.6179L501.312 76.7593C501.779 76.6882 502.255 76.6882 502.722 76.7593L501.782 76.6179C502.324 76.6867 502.854 76.8295 503.357 77.0423L502.511 76.6886C502.715 76.7576 502.906 76.8613 503.075 76.9951L502.346 76.4293C502.452 76.5114 502.546 76.6065 502.628 76.7122L502.088 76.005C502.095 76.0597 502.095 76.1152 502.088 76.17L501.735 75.3449C501.788 75.441 501.828 75.5442 501.852 75.6513L501.711 74.7083C501.735 74.8646 501.735 75.0236 501.711 75.1798V74.2369C501.681 74.4243 501.626 74.6067 501.547 74.7791L501.899 73.9539C501.704 74.416 501.451 74.8517 501.147 75.2506L501.688 74.5197C501.392 74.9111 501.044 75.2601 500.653 75.557L501.359 75.0148C501.062 75.2429 500.738 75.433 500.395 75.5806L501.218 75.227C500.912 75.3675 500.587 75.4628 500.254 75.5099L501.194 75.3684C500.929 75.4038 500.66 75.4038 500.395 75.3684H501.335C501.103 75.3385 500.874 75.2832 500.653 75.2034L501.5 75.557C501.26 75.4465 501.031 75.3122 500.818 75.1563L501.523 75.722C501.302 75.5274 501.098 75.3145 500.912 75.0855L501.476 75.7928C501.321 75.587 501.187 75.3658 501.077 75.1327L501.429 75.9814C501.35 75.7683 501.294 75.5468 501.265 75.3213L501.382 76.2643C501.359 76.0764 501.359 75.8864 501.382 75.6985L501.241 76.6415C501.285 76.4499 501.34 76.261 501.406 76.0757L501.053 76.9244C501.099 76.8252 501.154 76.7305 501.218 76.6415C501.684 75.8103 501.811 74.8297 501.57 73.9068C501.323 73.0162 500.742 72.256 499.948 71.7851C499.119 71.317 498.141 71.1902 497.221 71.4314C496.355 71.7108 495.614 72.2866 495.128 73.0581L495.387 73.1524Z" fill="#2D2FEE"/>
<path d="M189.491 414.209C191.842 414.681 191.161 419.16 190.737 421.117C190.548 422.42 190.201 423.694 189.703 424.912C189.139 426.02 188.645 425.879 187.493 425.997C185.855 426.183 184.287 426.765 182.924 427.693C181.56 428.621 180.441 429.867 179.664 431.325C178.951 432.413 178.001 433.325 176.885 433.991C175.769 434.657 174.516 435.059 173.222 435.167C170.234 435.59 167.189 435.08 164.5 433.706C161.822 432.024 159.729 429.554 158.505 426.633C155.731 420.975 156.154 414.846 161.373 410.932C163.724 409.07 166.639 407.915 169.155 406.218C170.66 405.227 172.094 404.167 173.598 403.153C174.28 402.681 175.009 402.233 175.714 401.809L176.514 401.361L177.29 400.984C178.253 400.607 177.642 400.229 175.456 399.876V397.99C175.456 398.509 174.515 399.239 174.186 399.758C173.682 400.577 173.264 401.446 172.94 402.351C172.274 404.224 172.08 406.232 172.376 408.198C172.647 409.984 173.295 411.693 174.276 413.209C175.257 414.725 176.549 416.014 178.065 416.991C179.636 418.047 181.505 418.567 183.394 418.473C185.283 418.38 187.091 417.678 188.551 416.473L192.195 413.927C195.91 411.357 192.383 405.204 188.645 407.821L185.753 409.824C184.343 410.815 183.285 412.182 181.615 410.885C180.813 410.329 180.172 409.569 179.759 408.682C179.345 407.796 179.175 406.815 179.264 405.84C179.664 402.823 182.885 401.314 182.25 397.99C182.113 397.292 181.835 396.63 181.432 396.045C181.03 395.46 180.511 394.964 179.909 394.588C179.307 394.212 178.635 393.964 177.933 393.86C177.232 393.756 176.517 393.798 175.832 393.982C173.266 394.886 170.879 396.234 168.779 397.966C164.618 400.866 159.868 403.011 155.989 406.288C146.585 414.374 148.936 428.637 157.071 436.936C159.194 438.963 161.733 440.503 164.51 441.447C167.287 442.392 170.236 442.719 173.152 442.405C175.875 442.217 178.52 441.411 180.887 440.047C183.104 438.422 184.995 436.39 186.459 434.059C187.234 433.116 187.705 433.187 188.927 433.069C190.639 432.979 192.281 432.362 193.629 431.301C195.622 429.424 196.937 426.936 197.367 424.229C198.435 420.868 198.54 417.274 197.673 413.856C197.265 412.347 196.475 410.97 195.379 409.859C194.283 408.748 192.919 407.94 191.419 407.514C186.929 406.5 185.024 413.314 189.491 414.209Z" fill="#2D2FEE"/>
<path d="M165.654 395.962L165.443 395.491L165.795 396.34C165.613 395.902 165.486 395.442 165.419 394.972L165.56 395.915C165.501 395.39 165.501 394.861 165.56 394.336L165.443 395.255C165.535 394.599 165.708 393.958 165.96 393.346L165.607 394.194C165.924 393.465 166.326 392.776 166.806 392.143L166.265 392.851C167.388 391.497 168.649 390.264 170.027 389.173C170.52 388.678 170.855 388.049 170.991 387.363C171.127 386.677 171.057 385.967 170.79 385.321C170.524 384.675 170.072 384.123 169.493 383.735C168.913 383.346 168.232 383.138 167.535 383.138C166.61 383.183 165.729 383.55 165.043 384.175C162.914 385.76 161.124 387.756 159.777 390.045C158.982 391.482 158.547 393.091 158.51 394.734C158.474 396.377 158.835 398.004 159.565 399.475C159.789 399.894 160.094 400.263 160.463 400.561C160.833 400.859 161.258 401.079 161.714 401.208C162.17 401.338 162.647 401.374 163.117 401.314C163.587 401.254 164.041 401.1 164.45 400.861C164.859 400.621 165.217 400.302 165.5 399.921C165.783 399.54 165.987 399.106 166.1 398.644C166.212 398.183 166.231 397.703 166.154 397.234C166.078 396.765 165.908 396.317 165.654 395.915V395.962Z" fill="#2D2FEE"/>
<path d="M163.277 401.054C164.809 400.968 166.289 400.462 167.555 399.593C168.817 398.731 169.849 397.574 170.565 396.222C171.287 394.757 171.65 393.14 171.623 391.507C171.623 390.234 171.388 388.961 171.294 387.711C171.271 386.778 170.902 385.887 170.259 385.212C169.596 384.553 168.701 384.181 167.767 384.175C166.832 384.175 165.935 384.547 165.273 385.211C164.612 385.874 164.24 386.773 164.24 387.711C164.502 389.395 164.589 391.101 164.499 392.803L164.617 391.86C164.549 392.345 164.423 392.82 164.24 393.275L164.593 392.426C164.401 392.863 164.156 393.275 163.864 393.652L164.405 392.945C164.104 393.324 163.766 393.672 163.394 393.982L164.099 393.416C163.721 393.712 163.311 393.965 162.877 394.171L163.7 393.793C163.354 393.942 162.99 394.045 162.618 394.1L163.559 393.982H163.277C162.35 394.024 161.468 394.391 160.784 395.019C160.135 395.69 159.766 396.584 159.75 397.518C159.761 398.454 160.131 399.349 160.784 400.017C161.107 400.352 161.494 400.617 161.923 400.796C162.352 400.974 162.812 401.062 163.277 401.054V401.054Z" fill="#2D2FEE"/>
<path d="M194.078 343.414L192.62 344.309C190.41 345.7 193.796 343.791 191.938 344.757C189.587 345.936 187.495 347.563 185.308 348.93L170.661 358.242C161.257 364.262 151.853 370.312 142.449 376.395C123.359 388.779 104.354 401.29 85.4364 413.926C84.6371 414.411 84.0577 415.19 83.8207 416.096C83.5837 417.003 83.7079 417.966 84.1668 418.782L129.73 478.214L136.172 486.631C136.657 487.391 137.41 487.942 138.28 488.173C139.151 488.404 140.076 488.3 140.874 487.88L249.915 424.016C250.713 423.535 251.291 422.759 251.524 421.855C251.757 420.951 251.627 419.991 251.161 419.183L205.41 353.904L198.897 344.639C196.311 340.938 190.175 344.474 192.808 348.199L238.559 413.478L245.025 422.696L246.294 417.863L137.441 481.727L142.261 483L96.7213 423.615L90.256 415.199L89.0099 420.032C107.912 407.459 126.909 394.948 145.999 382.501C155.403 376.418 164.807 370.367 174.212 364.348L188.858 355.06C191.068 353.645 193.325 352.325 195.488 350.863L196.899 349.873C195.089 351.075 197.44 349.614 197.628 349.519C201.46 347.115 197.933 340.985 194.078 343.414Z" fill="#2D2FEE"/>
<path d="M52.1919 323.776C104.949 322.739 142.213 320.9 194.759 316.703H195.276C196.166 316.701 197.046 316.52 197.866 316.172C198.685 315.824 199.428 315.316 200.049 314.677C200.671 314.039 201.159 313.282 201.486 312.452C201.813 311.622 201.972 310.735 201.953 309.843C201.718 298.904 200.942 288.343 200.072 277.616C199.155 266.277 197.721 254.513 197.533 243.032C197.518 242.263 197.349 241.505 197.036 240.803C196.723 240.101 196.273 239.47 195.711 238.946C195.149 238.423 194.488 238.018 193.767 237.756C193.046 237.494 192.28 237.38 191.514 237.421L189.163 237.539L55.6714 242.254H55.1072L50.7577 242.867C49.3168 243.089 48.0192 243.866 47.141 245.033C46.2628 246.2 45.8734 247.664 46.0556 249.115C47.1136 257.13 47.6544 265.216 48.1951 273.279L51.463 322.786L52.1919 323.776Z" fill="#2D2FEE"/>
<path d="M52.1909 327.312C98.8355 326.401 145.394 324.122 191.866 320.476C196.38 320.122 200.729 319.957 203.621 315.879C206.819 311.329 205.384 304.563 205.126 299.376C204.491 286.717 203.292 274.104 202.187 261.468C201.67 255.315 201.529 249.162 201.082 243.009C201.017 240.664 200.083 238.427 198.461 236.735C196.839 235.044 194.647 234.019 192.313 233.862C190.596 233.862 188.786 234.003 187.046 234.05L129.375 236.125L63.0762 238.482C58.0685 238.671 50.9919 238.082 46.6189 240.722C41.4467 243.858 42.3871 249.256 42.9278 254.348C43.6096 260.666 44.0328 267.008 44.456 273.35L46.9951 311.942L47.6064 321.159C47.548 322.109 47.7037 323.061 48.0618 323.942C48.42 324.824 48.9714 325.613 49.6753 326.252C52.9903 329.34 57.998 324.342 54.6595 321.23L53.7426 320.381L54.777 322.88L52.426 286.599C51.6267 274.693 51.0859 262.741 49.6283 250.906C49.3461 248.549 49.0405 246.946 51.6267 246.356C52.6913 246.148 53.7665 245.998 54.8476 245.909H55.6469H56.0936L61.4305 245.696L120.865 243.575L181.992 241.382L188.128 241.146H189.021C189.844 241.146 190.667 240.981 191.372 241.029C193.958 241.146 193.864 243.221 193.935 245.319C194.311 256.918 195.675 268.446 196.592 279.974C197.085 286.08 197.532 292.186 197.838 298.315C197.979 301.003 198.096 303.714 198.19 306.402C198.19 308.57 198.943 311.541 196.662 312.838C194.889 313.418 193.023 313.658 191.161 313.545L182.156 314.228C176.584 314.653 170.989 315.077 165.417 315.454C154.712 316.209 144.022 316.877 133.349 317.458C112.189 318.637 90.7949 319.415 69.5181 319.933L52.0498 320.334C47.7239 320.311 47.7239 327.383 52.1909 327.312Z" fill="#2D2FEE"/>
<path d="M72.1777 259.629C72.6529 258.999 73.2932 258.514 74.0274 258.227C74.7615 257.94 75.5606 257.863 76.3357 258.005C77.1108 258.147 77.8314 258.502 78.4173 259.03C79.0032 259.558 79.4314 260.239 79.6541 260.997C80.8531 265.052 77.4676 269.177 75.1636 272.101C74.6059 272.72 74.2832 273.517 74.252 274.351C74.2208 275.186 74.483 276.005 74.9928 276.665C75.5026 277.325 76.2276 277.784 77.041 277.962C77.8544 278.141 78.7044 278.027 79.4425 277.641C81.9816 276.25 84.7088 278.277 85.9548 280.47C87.5338 283.53 88.1409 287.002 87.6946 290.418C86.7777 297.019 80.1007 299.848 74.3172 300.862C69.8737 301.687 71.7546 308.524 76.198 307.675C86.425 305.765 95.2414 298.952 94.8182 287.707C94.9052 282.608 93.1139 277.656 89.787 273.798C88.0394 271.963 85.7478 270.742 83.253 270.317C80.7581 269.893 78.1932 270.286 75.9394 271.44L80.2183 277.004C84.9204 271.063 90.0692 262.859 84.9204 255.457C83.8289 253.986 82.4005 252.799 80.7558 251.998C79.1111 251.197 77.2983 250.804 75.4704 250.852C73.6424 250.901 71.8529 251.389 70.2528 252.277C68.6528 253.164 67.289 254.425 66.2766 255.952C63.573 259.629 69.6856 263.166 72.3658 259.535L72.1777 259.629Z" fill="white"/>
<path d="M114.495 250.034C109.473 254.994 106.245 261.494 105.325 268.502C104.405 275.511 105.846 282.626 109.417 288.72C111.024 291.786 113.605 294.225 116.752 295.651C118.55 296.197 120.442 296.363 122.307 296.14C124.172 295.917 125.971 295.309 127.591 294.355C130.567 292.917 132.945 290.478 134.311 287.462C135.677 284.447 135.945 281.046 135.067 277.853C133.936 274.428 131.507 271.586 128.305 269.941C125.103 268.296 121.384 267.979 117.951 269.059C113.649 270.45 115.6 277.287 119.832 275.872C120.844 275.493 121.935 275.374 123.005 275.525C124.074 275.676 125.089 276.092 125.958 276.736C126.827 277.38 127.521 278.231 127.979 279.212C128.436 280.194 128.642 281.274 128.578 282.355C128.178 287.188 121.125 291.667 117.317 287.707C115.374 285.375 113.911 282.681 113.011 279.78C112.111 276.879 111.793 273.829 112.074 270.804C112.548 264.832 115.182 259.24 119.48 255.079C122.724 251.873 117.74 246.875 114.495 250.081V250.034Z" fill="white"/>
<path d="M146.916 249.751C145.349 255.818 144.048 261.924 143.014 268.069C142.836 268.82 142.897 269.608 143.188 270.322C143.479 271.036 143.985 271.642 144.636 272.053C145.295 272.43 146.056 272.585 146.809 272.496C147.562 272.407 148.267 272.078 148.821 271.558C150.443 269.484 152.747 271.04 154.04 272.713C155.632 274.818 156.461 277.404 156.391 280.045C156.226 286.151 149.926 287.919 145.059 289.239C144.227 289.55 143.542 290.163 143.139 290.955C142.735 291.748 142.642 292.663 142.878 293.521C143.114 294.379 143.662 295.117 144.414 295.59C145.166 296.063 146.067 296.236 146.94 296.076C151.439 295.185 155.643 293.175 159.165 290.229C160.782 288.583 161.995 286.582 162.708 284.385C163.422 282.188 163.618 279.855 163.28 277.57C162.747 272.938 160.415 268.703 156.791 265.782C152.982 262.883 146.94 262.576 143.766 266.655L149.644 270.073C150.701 263.92 151.995 257.838 153.57 251.779C153.73 250.903 153.557 250 153.085 249.246C152.614 248.492 151.877 247.942 151.022 247.706C150.166 247.469 149.253 247.562 148.463 247.967C147.673 248.372 147.062 249.059 146.752 249.893L146.916 249.751Z" fill="white"/>
<path d="M150.253 253.925C156.175 254.38 162.119 254.459 168.051 254.16C168.986 254.16 169.883 253.788 170.544 253.125C171.206 252.461 171.577 251.562 171.577 250.624C171.577 249.686 171.206 248.787 170.544 248.124C169.883 247.46 168.986 247.088 168.051 247.088C162.119 247.387 156.175 247.308 150.253 246.852C149.789 246.849 149.329 246.938 148.9 247.115C148.471 247.292 148.081 247.552 147.753 247.881C147.424 248.21 147.165 248.601 146.989 249.031C146.813 249.462 146.724 249.923 146.727 250.388C146.75 251.319 147.13 252.204 147.786 252.862C148.442 253.521 149.325 253.901 150.253 253.925Z" fill="white"/>
<g clip-path="url(#clip1)">
<path d="M368.801 416.005V437.139L392.174 414.665L368.801 416.005Z" fill="white"/>
<path d="M335.41 398.867C335.41 398.867 360.923 372.608 382.745 372.678C404.566 372.749 429.327 390.31 429.327 390.31C429.327 390.31 405.131 414.829 388.294 415.346C371.458 415.863 335.41 398.867 335.41 398.867Z" fill="white"/>
<path d="M244.269 418.779L136.596 482.957L87.1445 413.842L192.231 345.997L244.269 418.779Z" fill="white"/>
<path d="M5.92459 28.4689C11.885 22.0688 19.4124 17.3341 27.7634 14.7325C36.1143 12.131 44.9996 11.7528 53.5415 13.6351C71.5772 17.8431 82.6995 33.4762 97.8194 42.809C105.743 47.954 115.223 50.1508 124.602 49.0153C135.184 47.6047 144.801 42.2683 153.384 36.1562C168.951 25.0132 184.564 7.12329 205.304 7.12329C226.044 7.12329 242.927 23.7672 258.964 34.6046C275.918 46.0532 296.047 55.1039 316.881 50.4258C326.009 48.2658 334.271 43.3983 340.583 36.4618C346.321 30.3966 351.024 23.4146 357.044 17.655C360.14 14.452 364.073 12.1797 368.395 11.0953C372.717 10.0109 377.256 10.1578 381.499 11.5194C392.033 14.7635 400.193 22.7094 408.681 29.3387C416.621 35.9114 425.972 40.5616 436.005 42.9266C445.785 44.9957 455.918 44.7056 465.563 42.0803C475.627 39.3298 484.069 33.8053 492.229 27.458C500.388 21.1108 508.924 13.6586 519.482 11.0022C524.223 9.66757 529.268 9.89007 533.873 11.6369C534.673 12.0448 535.595 12.1432 536.463 11.9132C537.33 11.6833 538.083 11.1413 538.576 10.391C539.041 9.57837 539.168 8.61574 538.931 7.71011C538.693 6.80448 538.11 6.0282 537.306 5.54822C527.524 1.43425 517.271 3.19738 507.96 7.89906C498.06 12.7653 490.159 20.7111 481.153 26.9409C472.854 32.8478 463.083 36.3452 452.92 37.0463C442.757 37.7475 432.598 35.6251 423.566 30.9138C405.648 21.2283 390.599 -1.26921 367.46 3.83211C349.919 7.68749 342.77 26.7058 329.649 36.7439C312.295 50.0966 288.969 44.149 271.686 34.1815C253.58 23.7672 238.178 7.31135 217.602 1.62232C208.079 -1.01094 197.952 -0.42415 188.797 3.29142C179.428 7.50452 170.717 13.0469 162.931 19.7473C147.506 31.9482 127.8 48.8742 106.849 39.6119C98.6189 35.9681 91.8467 29.7149 85.051 23.9553C78.2987 17.6771 70.5411 12.5755 62.1008 8.86291C51.6092 4.98654 40.2046 4.30213 29.3245 6.89593C18.4444 9.48973 8.57592 15.2457 0.963028 23.4381C-2.11738 26.7528 2.84419 31.7601 5.94811 28.4219L5.92459 28.4689Z" fill="#2D2FEE"/>
<path d="M221.882 126.076C211.201 114.032 196.929 105.74 181.174 102.426C165.419 99.1111 149.015 100.949 134.384 107.669C126.554 111.289 117.454 116.508 113.48 124.524C111.458 128.568 117.548 132.141 119.57 128.074C123.497 120.175 133.679 115.215 141.627 112.229C150.536 108.818 160.057 107.297 169.586 107.763C178.646 108.285 187.511 110.616 195.656 114.617C203.802 118.618 211.064 124.209 217.014 131.06C220.024 134.468 224.986 129.485 222 126.076H221.882Z" fill="#2D2FEE"/>
<path d="M216.544 125.112C211.7 131.412 204.058 134.703 196.604 136.866C187.412 139.398 177.92 140.679 168.386 140.674C150.296 140.516 132.717 134.65 118.159 123.913C114.491 121.233 111.105 127.345 114.608 130.002C130.824 141.831 150.455 148.053 170.526 147.727C180.891 147.562 191.182 145.939 201.095 142.908C209.583 140.565 217.128 135.635 222.681 128.803C223.109 128.005 223.216 127.074 222.98 126.2C222.744 125.326 222.183 124.575 221.411 124.101C220.611 123.684 219.683 123.584 218.812 123.819C217.941 124.054 217.19 124.608 216.708 125.37L216.544 125.112Z" fill="#2D2FEE"/>
<path d="M185.744 102.99L186.708 83.4079L187.202 73.2758C187.49 71.7026 187.36 70.0815 186.826 68.5741C186.396 67.744 185.695 67.0861 184.84 66.7097C183.984 66.3333 183.025 66.2612 182.123 66.5053C179.588 67.5666 177.263 69.0711 175.257 70.9484C172.905 72.641 170.813 74.4042 168.696 76.2378C164.536 79.8525 160.66 83.7822 157.104 87.992C153.033 92.7888 149.367 97.9156 146.146 103.319C145.911 103.719 145.758 104.161 145.694 104.621C145.63 105.08 145.657 105.547 145.774 105.995C145.891 106.444 146.095 106.865 146.375 107.235C146.654 107.605 147.004 107.916 147.404 108.15C147.804 108.385 148.246 108.539 148.705 108.602C149.164 108.666 149.632 108.639 150.081 108.522C150.529 108.405 150.951 108.201 151.32 107.922C151.69 107.642 152.001 107.293 152.236 106.893C156.287 100.106 161.091 93.7967 166.556 88.086C169.307 85.2338 172.211 82.5342 175.257 79.9992C176.644 78.8237 178.079 77.6483 179.536 76.614C180.406 75.9792 181.253 75.368 182.147 74.7568C182.787 74.2178 183.48 73.7453 184.216 73.3463H182.335L182.711 73.4638L180.595 71.8418L180.806 72.2179L180.312 70.4548C180.312 73.1347 180.101 75.9087 179.96 78.6122L179.56 86.652L178.76 103.108C178.549 107.645 185.603 107.645 185.815 103.108L185.744 102.99Z" fill="#2D2FEE"/>
<path d="M179.673 145.611C177.63 154.891 176.379 164.329 175.934 173.821L181.954 171.329C176.946 166.345 171.937 161.409 166.952 156.425C162.249 151.893 157.931 146.979 154.042 141.732C153.557 140.974 152.806 140.423 151.936 140.189C151.067 139.954 150.141 140.052 149.339 140.463C148.535 140.943 147.952 141.719 147.714 142.625C147.477 143.53 147.605 144.493 148.07 145.305C152.166 150.908 156.719 156.16 161.685 161.009C166.787 166.134 171.937 171.212 177.087 176.313C177.588 176.784 178.215 177.1 178.891 177.224C179.568 177.347 180.266 177.273 180.901 177.01C181.537 176.747 182.083 176.306 182.474 175.741C182.865 175.175 183.085 174.508 183.106 173.821C183.477 164.959 184.594 156.143 186.445 147.468C186.677 146.583 186.563 145.644 186.126 144.84C185.689 144.037 184.963 143.43 184.094 143.143C183.208 142.887 182.258 142.99 181.448 143.43C180.638 143.87 180.034 144.611 179.767 145.493L179.673 145.611Z" fill="#2D2FEE"/>
<path d="M222.61 129.531L264.678 90.8129L258.799 87.3807C257.413 91.7869 256.684 96.3733 256.636 100.992C256.424 105.694 255.954 110.395 255.343 114.909C254.154 125.055 252.348 135.12 249.934 145.047L254.285 142.696C242.542 138.286 231.705 131.769 222.305 123.466C221.803 123.003 221.178 122.693 220.505 122.573C219.832 122.454 219.139 122.53 218.508 122.792C217.877 123.054 217.335 123.492 216.945 124.053C216.555 124.614 216.334 125.275 216.309 125.958V127.792C216.309 128.727 216.68 129.624 217.342 130.285C218.003 130.946 218.9 131.318 219.836 131.318C220.771 131.318 221.668 130.946 222.33 130.285C222.991 129.624 223.363 128.727 223.363 127.792V125.958L217.343 128.45C227.638 137.598 239.531 144.77 252.427 149.607C253.315 149.858 254.267 149.752 255.079 149.314C255.891 148.875 256.5 148.137 256.777 147.257C259.198 137.421 260.989 127.441 262.138 117.377C262.703 112.676 263.385 107.974 263.596 103.272C263.623 98.5724 264.327 93.9009 265.689 89.4024C266.888 85.8996 262.232 83.7369 259.787 85.9702L217.602 124.665C214.263 127.745 219.248 132.728 222.587 129.649L222.61 129.531Z" fill="#2D2FEE"/>
<path d="M340.349 400.443C342.958 397.254 345.969 394.417 349.308 392.003C352.549 389.421 355.924 387.012 359.42 384.786C366.03 380.323 373.546 377.376 381.429 376.158C389.986 375.522 398.564 377.075 406.355 380.672C414.457 383.626 422.032 387.865 428.787 393.225C432.197 396.188 437.206 391.227 433.772 388.242C426.362 382.3 418.04 377.592 409.129 374.301C400.029 370.516 390.318 367.977 380.418 369.247C371.453 370.614 362.902 373.946 355.375 379.003C347.78 383.846 339.573 389.605 334.212 396.916C331.531 400.584 337.645 404.11 340.302 400.49L340.349 400.443Z" fill="#2D2FEE"/>
<path d="M335.509 402.276C341.458 408.482 350.393 411.538 358.388 414.03C367.316 417.078 376.809 418.105 386.183 417.039C404.195 414.853 420.114 405.685 433.4 393.672C436.786 390.616 431.777 385.655 428.415 388.688C416.657 399.384 402.266 407.894 386.23 409.987C378.027 410.976 369.707 410.174 361.845 407.636C354.555 405.285 345.902 402.699 340.494 397.057C337.343 393.766 332.358 398.773 335.509 402.041V402.276Z" fill="#2D2FEE"/>
<path d="M364.217 417.533L363.512 438.479C363.512 438.943 363.604 439.402 363.783 439.83C363.962 440.258 364.224 440.646 364.554 440.972C364.885 441.298 365.277 441.555 365.707 441.728C366.138 441.902 366.598 441.988 367.062 441.981C367.366 442.027 367.675 442.027 367.979 441.981C375.292 439.372 379.737 433.142 385.498 428.37C391.259 423.598 398.102 420.142 402.899 414.265C403.227 413.938 403.489 413.549 403.667 413.121C403.846 412.693 403.938 412.234 403.939 411.77C403.94 411.306 403.85 410.846 403.674 410.417C403.497 409.988 403.238 409.598 402.91 409.27C402.583 408.941 402.194 408.68 401.766 408.501C401.338 408.323 400.878 408.23 400.414 408.229C399.95 408.228 399.491 408.318 399.062 408.495C398.632 408.671 398.242 408.931 397.913 409.258C393.352 414.853 386.909 418.285 381.453 422.705C378.848 424.925 376.36 427.279 373.999 429.757C371.77 432.042 369.075 433.822 366.098 434.976L370.566 438.385L371.271 417.439C371.507 412.996 364.452 413.019 364.217 417.533Z" fill="#2D2FEE"/>
<path d="M375.855 372.796L376.302 350.087L369.718 351.85C372.641 356.139 376.111 360.027 380.041 363.417C381.828 364.921 383.685 366.355 385.473 367.883C386.366 368.659 387.26 369.482 388.083 370.234C388.529 370.681 388.953 371.151 389.352 371.621L389.823 372.209C389.541 371.856 390.175 372.726 390.175 372.702C390.66 373.495 391.432 374.07 392.33 374.307C393.229 374.544 394.184 374.424 394.996 373.972C395.767 373.498 396.329 372.747 396.565 371.873C396.801 370.999 396.694 370.068 396.266 369.27C393.188 365.366 389.606 361.888 385.614 358.926C383.733 357.395 381.964 355.729 380.323 353.943C379.476 353.026 378.653 352.086 377.854 351.098C377.054 350.111 376.537 349.359 375.808 348.324C375.571 347.925 375.257 347.577 374.885 347.3C374.513 347.023 374.09 346.821 373.64 346.708C373.19 346.594 372.722 346.571 372.263 346.638C371.804 346.706 371.362 346.863 370.964 347.102C370.44 347.41 370.006 347.85 369.705 348.378C369.403 348.905 369.246 349.503 369.248 350.111L368.801 372.82C368.801 373.755 369.172 374.652 369.834 375.313C370.495 375.975 371.392 376.346 372.328 376.346C373.263 376.346 374.161 375.975 374.822 375.313C375.484 374.652 375.855 373.755 375.855 372.82V372.796Z" fill="#2D2FEE"/>
<path d="M339.478 395.858C328.003 385.985 315.963 376.581 306.205 364.968C303.853 362.053 299.691 365.274 300.303 368.4C303.422 384.506 304.12 400.987 302.372 417.298C302.385 418.067 302.643 418.812 303.108 419.425C303.573 420.038 304.221 420.487 304.959 420.706C307.874 421.858 310.296 419.837 312.436 418.144L320.619 411.679L337.079 398.773C337.734 398.109 338.101 397.214 338.101 396.281C338.101 395.349 337.734 394.454 337.079 393.789C336.409 393.146 335.516 392.786 334.587 392.786C333.658 392.786 332.765 393.146 332.094 393.789L318.832 404.251L312.718 409.117L309.191 411.891L307.639 413.113C307.098 413.513 306.487 413.63 307.028 413.866L309.615 417.251C311.363 400.31 310.57 383.203 307.263 366.496L301.384 369.905C311.213 381.518 323.182 390.921 334.658 400.818C338.091 403.757 343.099 398.797 339.643 395.811L339.478 395.858Z" fill="#2D2FEE"/>
<path d="M461.259 303.775C473.628 292.46 485.785 280.941 497.73 269.218C503.687 263.419 509.589 257.574 515.437 251.681C520.51 247.17 525.169 242.213 529.357 236.871C529.747 236.195 529.902 235.409 529.8 234.636C529.698 233.862 529.344 233.144 528.793 232.592C512.411 216.559 495.826 200.715 479.036 185.058C470.837 177.394 462.576 169.801 454.252 162.278L441.625 151.041C438.835 148.002 435.561 145.444 431.937 143.472C431.26 143.104 430.485 142.958 429.721 143.055C428.957 143.152 428.243 143.487 427.68 144.012C422.198 149.277 417.098 154.926 412.42 160.915C407.199 167.192 401.415 172.928 395.748 178.781L361.793 213.785C358.642 217.053 363.603 222.037 366.778 218.769C378.112 207.093 389.43 195.394 400.733 183.671C406.282 177.959 411.949 172.34 417.075 166.204C421.844 160.072 427.046 154.29 432.642 148.902L428.362 149.466C431.767 151.373 434.84 153.818 437.463 156.707C441.672 160.515 445.881 164.3 450.066 168.132C458.359 175.686 466.621 183.295 474.851 190.959C491.358 206.365 507.669 221.958 523.784 237.74L523.244 233.462C519.505 238.869 513.838 243.382 509.276 248.014C503.523 253.75 497.754 259.454 491.969 265.128C480.228 276.6 468.321 287.876 456.251 298.956C452.888 302.012 457.897 306.996 461.236 303.94L461.259 303.775Z" fill="#2D2FEE"/>
<path d="M361.795 218.699C394.315 246.016 425.59 274.79 457.193 303.164C460.579 306.174 465.564 301.213 462.178 298.157C430.575 269.806 399.301 241.032 366.78 213.715C363.323 210.8 358.315 215.784 361.795 218.699Z" fill="#2D2FEE"/>
<path d="M454.51 301.707C454.51 310.969 454.628 320.239 454.863 329.517C455.004 333.749 455.192 338.004 455.404 342.235C455.404 344.586 455.639 346.937 455.78 349.288C455.658 351.609 455.808 353.937 456.227 356.223V357.398C456.282 357.214 456.405 357.058 456.571 356.962C456.737 356.866 456.934 356.837 457.12 356.881V356.881C456.57 356.34 455.963 355.859 455.31 355.447L451.453 352.226L442.941 345.174C437.345 340.472 431.584 336.194 425.823 331.751C411.855 321.007 397.981 310.099 384.625 298.58C371.904 287.602 358.642 277.094 346.367 265.668C339.313 259.11 332.587 252.339 325.51 245.851C318.432 239.363 310.837 232.428 303.923 225.281C300.749 222.037 295.764 227.021 298.915 230.265C311.918 243.641 326.05 255.936 339.477 268.866C352.504 281.372 366.801 292.633 380.487 304.41C394.76 316.658 409.598 328.201 424.482 339.673C430.62 344.375 436.616 349.076 442.565 354.107C445.481 356.458 448.373 358.926 451.336 361.16C453.899 363.205 456.697 364.897 459.966 363.181C464.386 360.83 463.211 355.659 462.952 351.592C462.599 346.208 462.341 340.801 462.105 335.394C461.667 324.204 461.478 313.007 461.541 301.801C461.541 300.866 461.17 299.969 460.508 299.307C459.847 298.646 458.949 298.275 458.014 298.275C457.078 298.275 456.181 298.646 455.52 299.307C454.858 299.969 454.487 300.866 454.487 301.801L454.51 301.707Z" fill="#2D2FEE"/>
<path d="M302.257 229.677C322.927 225.21 344.16 224.341 364.877 220.109C369.321 219.192 367.44 212.398 362.995 213.292C342.279 217.547 321.069 218.417 300.376 222.883C295.956 223.847 297.837 230.641 302.257 229.677Z" fill="#2D2FEE"/>
<path d="M339.597 223.847C370.496 250.741 399.983 279.233 430.998 305.986C438.837 312.74 446.816 319.33 454.936 325.756C458.463 328.554 463.495 323.593 459.921 320.772C430.081 297.264 402.616 270.84 374.422 245.357C364.578 236.424 354.631 227.593 344.583 218.863C341.173 215.901 336.164 220.862 339.597 223.847Z" fill="#2D2FEE"/>
<path d="M420.44 329.188C424.39 321.924 428.341 314.636 432.879 307.701C437.112 301.213 442.403 295.289 444.636 287.766C446 283.417 439.181 281.56 437.841 285.886C435.654 292.938 430.222 298.674 426.272 304.692C421.921 311.439 418.088 318.492 414.256 325.521C412.069 329.517 418.159 333.091 420.346 329.094L420.44 329.188Z" fill="#2D2FEE"/>
<path d="M387.12 302.459C398.991 291.149 410.054 279.02 420.228 266.162C420.861 265.487 421.214 264.596 421.214 263.67C421.214 262.745 420.861 261.854 420.228 261.178C419.564 260.524 418.669 260.157 417.736 260.157C416.803 260.157 415.908 260.524 415.243 261.178C405.048 274.026 393.978 286.153 382.111 297.475C378.819 300.625 383.828 305.609 387.12 302.459Z" fill="#2D2FEE"/>
<path d="M356.291 276.859C364.333 272.721 372.351 268.56 380.393 264.446C387.778 260.354 395.614 257.135 403.743 254.855C408.164 253.774 406.306 246.98 401.886 248.061C393.44 250.407 385.296 253.728 377.619 257.958C369.318 262.19 361.017 266.492 352.74 270.77C348.696 272.768 352.247 278.927 356.291 276.859Z" fill="#2D2FEE"/>
<path d="M331.344 256.994C349.779 252.104 367.838 245.78 385.686 239.151C389.918 237.599 388.037 230.782 383.804 232.357C365.957 238.986 347.898 245.31 329.486 250.2C328.627 250.483 327.91 251.084 327.482 251.881C327.055 252.677 326.949 253.607 327.187 254.479C327.426 255.351 327.99 256.098 328.763 256.566C329.537 257.034 330.46 257.187 331.344 256.994V256.994Z" fill="#2D2FEE"/>
<path d="M497.144 156.049C496.18 156.994 495.617 158.273 495.569 159.622C495.539 160.669 495.782 161.706 496.274 162.631C496.616 163.331 497.105 163.949 497.709 164.441C498.69 165.38 499.974 165.938 501.33 166.016C502.462 166.066 503.588 165.823 504.598 165.311C505.384 164.935 506.094 164.417 506.691 163.783C507.325 163.083 507.849 162.29 508.243 161.432C508.491 160.925 508.696 160.399 508.855 159.857C509.004 159.271 509.106 158.673 509.16 158.07C509.248 157.024 509.07 155.973 508.643 155.014C508.256 153.98 507.536 153.104 506.597 152.522L506.174 152.264C505.438 151.907 504.639 151.7 503.822 151.653C503.251 151.641 502.68 151.712 502.129 151.864C501.614 152.001 501.117 152.198 500.648 152.452C500.146 152.739 499.694 153.104 499.308 153.533C498.343 154.641 497.78 156.04 497.709 157.506C497.691 158.091 497.747 158.675 497.873 159.246C498.015 159.842 498.228 160.418 498.508 160.962C498.788 161.485 499.127 161.974 499.519 162.42C499.821 162.718 500.152 162.986 500.507 163.219C501.026 163.521 501.603 163.713 502.2 163.783C503.141 163.864 504.084 163.647 504.895 163.162C505.705 162.676 506.342 161.948 506.715 161.08C507.477 159.689 507.718 158.072 507.397 156.519C507.212 155.7 506.812 154.946 506.237 154.334C505.662 153.722 504.934 153.275 504.128 153.04C503.47 152.846 502.781 152.783 502.099 152.856C501.417 152.929 500.756 153.135 500.154 153.463C499.475 153.852 498.908 154.411 498.508 155.085C498.082 155.792 497.877 156.611 497.92 157.436C497.973 158.359 498.338 159.238 498.955 159.928C499.621 160.581 500.514 160.951 501.447 160.962C502.383 160.961 503.279 160.589 503.94 159.928C504.276 159.607 504.542 159.22 504.72 158.791C504.899 158.362 504.985 157.9 504.975 157.436V157.177V158.118V157.929L504.598 158.776C504.591 158.713 504.591 158.65 504.598 158.588L504.058 159.293C504.1 159.227 504.156 159.171 504.222 159.128L503.517 159.693L503.799 159.528L502.952 159.881H502.247L501.424 159.528L501.706 159.693L500.977 159.128C501.051 159.179 501.115 159.242 501.165 159.316L500.624 158.611C500.701 158.713 500.764 158.823 500.813 158.94L500.46 158.094C500.471 158.251 500.471 158.408 500.46 158.564V157.624C500.483 157.827 500.483 158.032 500.46 158.235V157.295C500.418 157.57 500.338 157.839 500.225 158.094L500.601 157.248C500.442 157.597 500.245 157.929 500.013 158.235L500.554 157.53C500.504 157.604 500.44 157.668 500.366 157.718L501.071 157.177H500.907L501.753 156.825L502.694 156.683L503.611 156.825H503.423L504.269 157.177L504.011 157.013L504.716 157.577L504.434 157.271L504.998 157.976C504.83 157.759 504.688 157.522 504.575 157.271L504.928 158.118C504.814 157.83 504.735 157.53 504.692 157.224L504.81 158.165C504.763 157.861 504.763 157.551 504.81 157.248L504.669 158.188C504.641 157.945 504.708 157.7 504.857 157.506L504.504 158.353L504.787 157.859L504.246 158.564C504.362 158.401 504.505 158.258 504.669 158.141L503.94 158.705C504.099 158.582 504.273 158.479 504.457 158.4L503.634 158.752C503.842 158.654 504.065 158.591 504.293 158.564H503.352C503.547 158.54 503.745 158.54 503.94 158.564L502.999 158.423C503.163 158.445 503.321 158.492 503.47 158.564L502.623 158.188C502.78 158.26 502.929 158.347 503.07 158.447L502.365 157.906L502.67 158.212L502.129 157.506C502.245 157.649 502.34 157.807 502.412 157.976L502.059 157.13C502.146 157.366 502.209 157.61 502.247 157.859L502.129 156.919C502.153 157.279 502.153 157.64 502.129 158L502.271 157.06C502.198 157.545 502.064 158.019 501.871 158.47L502.247 157.624C502.041 158.072 501.789 158.498 501.495 158.893L502.059 158.188C501.797 158.513 501.497 158.805 501.165 159.058L501.894 158.517C501.642 158.696 501.374 158.853 501.095 158.987L501.918 158.635C501.658 158.73 501.391 158.801 501.118 158.846H502.318C502.106 158.828 501.899 158.772 501.706 158.682L502.553 159.034C502.36 158.957 502.178 158.854 502.012 158.729L502.717 159.269C502.525 159.101 502.345 158.92 502.176 158.729L502.717 159.434C502.562 159.229 502.428 159.008 502.318 158.776L502.67 159.599C502.586 159.394 502.523 159.181 502.482 158.964L502.623 159.904C502.599 159.709 502.599 159.512 502.623 159.316V160.257C502.6 160.125 502.6 159.989 502.623 159.857L502.247 160.68C502.311 160.546 502.39 160.42 502.482 160.304L501.918 161.033L502.129 160.797C502.622 160.304 502.958 159.676 503.093 158.993C503.229 158.309 503.159 157.601 502.893 156.957C502.626 156.313 502.174 155.762 501.595 155.375C501.015 154.987 500.334 154.78 499.637 154.779C498.704 154.79 497.811 155.161 497.144 155.814V156.049Z" fill="#2D2FEE"/>
<path d="M499.873 122.761C499.512 122.898 499.159 123.055 498.815 123.231C498.483 123.431 498.168 123.659 497.875 123.913C497.489 124.262 497.156 124.666 496.887 125.112C496.353 126 496.061 127.013 496.041 128.05C495.999 129.094 496.251 130.128 496.77 131.036C497.022 131.48 497.339 131.884 497.71 132.235C497.992 132.493 498.321 132.728 498.627 132.963L499.003 133.175C499.957 133.679 501.024 133.93 502.102 133.905C503.18 133.881 504.235 133.581 505.164 133.034C506.081 132.438 506.838 131.628 507.371 130.673C507.903 129.719 508.195 128.649 508.221 127.556C508.258 126.615 508.086 125.678 507.716 124.812C507.345 123.946 506.787 123.173 506.081 122.549C505.289 121.819 504.34 121.28 503.307 120.974C502.259 120.692 501.156 120.692 500.109 120.974C499.122 121.232 498.232 121.771 497.546 122.526C497.217 122.873 496.933 123.26 496.699 123.678C496.463 124.127 496.274 124.6 496.135 125.088C495.871 126.052 495.867 127.069 496.123 128.035C496.379 129.001 496.886 129.882 497.593 130.589C498.176 131.131 498.876 131.533 499.638 131.764C500.024 131.863 500.417 131.926 500.814 131.953H501.167C501.987 131.909 502.788 131.692 503.518 131.318C503.977 131.066 504.397 130.749 504.764 130.377C505.506 129.689 506.029 128.798 506.269 127.815C506.458 127.043 506.458 126.236 506.269 125.464C506.05 124.702 505.656 124.001 505.117 123.419C504.692 122.979 504.156 122.662 503.565 122.502C502.949 122.338 502.3 122.338 501.684 122.502H501.472C501.129 122.596 500.797 122.73 500.485 122.902L500.015 123.254L499.497 123.654C498.908 124.262 498.494 125.017 498.298 125.84C498.083 126.762 498.208 127.731 498.651 128.567C499.124 129.348 499.869 129.926 500.744 130.189C501.199 130.314 501.674 130.346 502.143 130.286C502.611 130.225 503.062 130.073 503.471 129.837L504.177 129.273C504.617 128.848 504.934 128.312 505.094 127.721V127.439L504.741 128.285C504.782 128.191 504.837 128.103 504.906 128.027L504.341 128.732L504.553 128.52L503.847 129.084L504.036 128.967L503.189 129.367H503.495L500.062 128.473L499.521 127.768L499.662 128.003L499.309 127.157V127.462L499.168 126.546C499.191 126.646 499.191 126.751 499.168 126.851L499.309 125.911C499.32 126.052 499.32 126.193 499.309 126.334L499.662 125.511L499.403 125.958L499.944 125.229C499.831 125.366 499.705 125.492 499.568 125.605L500.273 125.065C500.117 125.18 499.952 125.282 499.779 125.37L500.626 124.994H501.378L502.225 125.347L501.872 125.135L502.578 125.676L502.295 125.394L502.836 126.099C502.743 125.979 502.672 125.844 502.625 125.699L502.977 126.546C502.909 126.38 502.861 126.206 502.836 126.028L502.977 126.969C502.954 126.75 502.954 126.529 502.977 126.311L502.86 127.251C502.892 127.034 502.948 126.821 503.024 126.616L502.672 127.462C502.751 127.278 502.854 127.104 502.977 126.945L502.413 127.65C502.526 127.514 502.652 127.388 502.789 127.274L502.084 127.815C502.208 127.709 502.352 127.629 502.507 127.58L501.661 127.933C501.832 127.853 502.014 127.798 502.201 127.768L501.261 127.909C501.502 127.862 501.749 127.862 501.99 127.909L501.049 127.768L501.731 127.956L500.885 127.603C501.163 127.715 501.424 127.865 501.661 128.05L500.932 127.509C501.15 127.673 501.347 127.862 501.519 128.074L500.955 127.368C501.123 127.586 501.265 127.823 501.378 128.074L501.002 127.227C501.097 127.462 501.168 127.707 501.214 127.956L501.073 127.016C501.12 127.32 501.12 127.629 501.073 127.933V126.992C501.03 127.291 500.951 127.583 500.838 127.862L501.19 127.016C501.079 127.243 500.953 127.463 500.814 127.674L501.355 126.945C501.216 127.126 501.059 127.292 500.885 127.439L501.59 126.875C501.425 127.02 501.233 127.132 501.026 127.204L501.872 126.851C501.656 126.948 501.426 127.011 501.19 127.039H502.484C502.248 127.011 502.018 126.948 501.802 126.851L502.648 127.204C502.446 127.131 502.256 127.028 502.084 126.898L502.813 127.439C502.657 127.33 502.522 127.195 502.413 127.039L502.954 127.768L502.742 127.368L503.095 128.215C503.019 128.034 502.963 127.844 502.93 127.65L503.071 128.591C503.024 128.374 503.024 128.149 503.071 127.933L502.93 128.873C502.971 128.655 503.034 128.443 503.118 128.238L502.766 129.084C502.829 128.923 502.916 128.773 503.024 128.638L502.46 129.343C502.566 129.214 502.684 129.096 502.813 128.99L502.107 129.531L502.484 129.296L501.661 129.649C502.114 129.56 502.531 129.339 502.86 129.014C503.245 128.769 503.561 128.429 503.777 128.027C504.013 127.622 504.167 127.175 504.227 126.711C504.288 126.246 504.255 125.774 504.13 125.323C503.882 124.435 503.301 123.677 502.507 123.207L501.661 122.855C501.044 122.69 500.396 122.69 499.779 122.855L499.873 122.761Z" fill="#2D2FEE"/>
<path d="M495.45 72.9463C494.837 73.8942 494.556 75.0186 494.651 76.1434C494.698 76.8331 494.865 77.5093 495.145 78.1416C495.407 78.8035 495.781 79.4157 496.25 79.9518C496.78 80.6137 497.456 81.1446 498.225 81.5033C498.711 81.7633 499.235 81.9457 499.777 82.044C500.219 82.1335 500.667 82.1885 501.117 82.2086C501.567 82.1769 502.014 82.122 502.458 82.044C502.791 81.9971 503.116 81.9021 503.422 81.7619C504.003 81.5681 504.556 81.2994 505.068 80.9626C506.083 80.261 506.967 79.3855 507.678 78.3767C508.428 77.3444 508.876 76.1232 508.971 74.8505C509.003 74.4082 508.963 73.9636 508.854 73.534C508.751 73.0857 508.576 72.657 508.336 72.2645C507.89 71.5057 507.249 70.8806 506.479 70.4544C505.305 69.8652 504.026 69.5137 502.716 69.42C501.659 69.3212 500.593 69.4495 499.589 69.7962C499.025 69.9745 498.487 70.2275 497.99 70.5484C497.455 70.8754 496.972 71.2794 496.555 71.7473C495.748 72.6282 495.188 73.7069 494.933 74.874C494.745 75.7495 494.745 76.6549 494.933 77.5304C495.049 78.0963 495.264 78.6374 495.568 79.129C496.099 80.1301 496.918 80.9489 497.919 81.4798C498.652 81.851 499.451 82.0746 500.271 82.1381H500.835C501.264 82.1215 501.69 82.0585 502.105 81.95C503.532 81.5285 504.738 80.567 505.467 79.27C506.258 77.935 506.516 76.3508 506.189 74.8341C505.862 73.3174 504.974 71.98 503.704 71.0891C503.002 70.6639 502.207 70.416 501.387 70.3669C500.568 70.3177 499.749 70.4688 499.001 70.807C498.22 71.1226 497.537 71.6422 497.026 72.3115C496.413 73.1002 496.067 74.0636 496.038 75.062C496.033 75.5257 496.122 75.9856 496.3 76.4139C496.478 76.8422 496.741 77.23 497.073 77.5539C497.734 78.2154 498.63 78.5875 499.565 78.5883C500.029 78.5932 500.489 78.504 500.918 78.3262C501.346 78.1485 501.734 77.8857 502.058 77.5539C502.694 76.8762 503.061 75.9906 503.093 75.062V75.062V76.0024C503.069 75.9018 503.069 75.7973 503.093 75.6968L502.74 76.5431L502.881 76.2845L502.34 77.0132C502.398 76.9313 502.47 76.8598 502.552 76.8017L501.846 77.3423L502.175 77.1543L501.352 77.5069C501.5 77.4828 501.651 77.4828 501.799 77.5069H500.859H501.282H500.341C500.466 77.4834 500.593 77.4834 500.718 77.5069L499.871 77.1543L500.177 77.3188L499.448 76.7781C499.582 76.8691 499.7 76.9801 499.8 77.1073L499.236 76.3785C499.357 76.526 499.453 76.6929 499.518 76.8722L499.166 76.0259C499.245 76.2384 499.3 76.4592 499.33 76.6841V75.7438C499.377 76.0002 499.377 76.2631 499.33 76.5196L499.471 75.5792C499.429 75.8474 499.35 76.1084 499.236 76.355L499.589 75.5087C499.5 75.7349 499.381 75.9484 499.236 76.1434L499.777 75.4147C499.655 75.5803 499.513 75.7303 499.354 75.8613L500.059 75.2971C499.935 75.4029 499.791 75.4828 499.636 75.5322L500.482 75.1796L500.059 75.2971L501 75.1796H500.482L501.423 75.2971C501.219 75.2783 501.019 75.2226 500.835 75.1326L501.682 75.4852C501.465 75.3907 501.26 75.2725 501.07 75.1326L501.776 75.6733C501.612 75.5567 501.469 75.4136 501.352 75.2501L501.893 75.9553C501.768 75.7894 501.665 75.6076 501.588 75.4147L501.94 76.261C501.868 76.0881 501.821 75.9062 501.799 75.7203L501.94 76.6606C501.917 76.4261 501.917 76.1898 501.94 75.9553V76.8957C501.964 76.634 502.035 76.3789 502.152 76.1434L501.799 76.9897C501.895 76.7353 502.03 76.4973 502.199 76.2845L501.658 77.0132C501.845 76.7714 502.058 76.5507 502.293 76.355L501.564 76.9192C501.819 76.7313 502.096 76.5735 502.387 76.449L501.541 76.8017C501.863 76.6614 502.203 76.5665 502.552 76.5196L501.611 76.6606C502.079 76.5897 502.554 76.5897 503.022 76.6606L502.081 76.5196C502.623 76.5882 503.153 76.7306 503.657 76.9427L502.81 76.5901C503.017 76.6539 503.208 76.7578 503.375 76.8957L502.646 76.3315C502.751 76.4134 502.846 76.5081 502.928 76.6136L502.387 75.9083V76.0729L502.034 75.2501C502.088 75.346 502.127 75.4489 502.152 75.5557L502.011 74.6154C502.034 74.7712 502.034 74.9297 502.011 75.0855V74.1452C501.981 74.3321 501.926 74.514 501.846 74.6859L502.199 73.8631C502.008 74.3265 501.755 74.7615 501.446 75.1561L501.987 74.4273C501.691 74.8176 501.343 75.1656 500.953 75.4617L501.658 74.921C501.365 75.1535 501.04 75.3434 500.694 75.4852L501.517 75.1326C501.211 75.2727 500.886 75.3677 500.553 75.4147L501.494 75.2736C501.229 75.3192 500.959 75.3192 500.694 75.2736H501.635C501.402 75.2437 501.173 75.1886 500.953 75.109L501.799 75.4617C501.559 75.3514 501.331 75.2176 501.117 75.062L501.823 75.6262C501.601 75.4322 501.397 75.2199 501.211 74.9915L501.776 75.6968C501.62 75.4915 501.486 75.271 501.376 75.0385L501.729 75.8848C501.649 75.6723 501.594 75.4515 501.564 75.2266V76.1669C501.541 75.9795 501.541 75.7901 501.564 75.6027L501.423 76.5431C501.467 76.352 501.522 76.1636 501.588 75.9789L501.235 76.8252C501.281 76.7262 501.336 76.6318 501.399 76.5431C501.866 75.7142 501.993 74.7364 501.752 73.8161C501.505 72.928 500.923 72.1699 500.13 71.7003C499.301 71.2336 498.323 71.1071 497.402 71.3477C496.536 71.6263 495.795 72.2005 495.309 72.9698L495.45 72.9463Z" fill="#2D2FEE"/>
<path d="M189.502 413.113C191.854 413.583 191.172 418.05 190.749 420.001C190.556 421.3 190.209 422.57 189.714 423.786C189.15 424.891 188.656 424.75 187.504 424.867C185.857 425.065 184.284 425.66 182.92 426.603C181.555 427.545 180.441 428.805 179.673 430.274C178.966 431.365 178.017 432.278 176.899 432.942C175.782 433.607 174.527 434.005 173.23 434.106C170.262 434.504 167.244 433.987 164.577 432.625C161.896 430.952 159.801 428.488 158.581 425.573C155.806 419.931 156.229 413.819 161.45 409.916C163.801 408.059 166.717 406.907 169.233 405.214C170.738 404.227 172.172 403.169 173.677 402.158C174.359 401.688 175.088 401.242 175.793 400.818L176.593 400.372L177.369 399.996C178.333 399.619 177.722 399.243 175.535 398.891V397.01C175.535 397.527 174.594 398.256 174.265 398.773C173.77 399.594 173.353 400.46 173.019 401.359C172.351 403.226 172.157 405.229 172.454 407.189C172.727 408.97 173.376 410.673 174.357 412.185C175.338 413.697 176.629 414.983 178.145 415.958C179.716 417.011 181.585 417.529 183.474 417.436C185.364 417.343 187.172 416.643 188.632 415.441L192.277 412.902C195.992 410.339 192.465 404.204 188.726 406.813L185.834 408.811C184.423 409.799 183.365 411.162 181.696 409.869C180.891 409.316 180.248 408.558 179.835 407.674C179.421 406.789 179.252 405.81 179.344 404.838C179.744 401.829 182.965 400.325 182.33 397.01C182.201 396.344 181.941 395.71 181.566 395.144C181.19 394.579 180.707 394.093 180.143 393.715C179.579 393.337 178.946 393.074 178.281 392.942C177.615 392.809 176.929 392.81 176.264 392.943H175.911C173.345 393.844 170.957 395.189 168.857 396.916C164.577 399.713 159.874 402.064 155.994 405.214C146.588 413.278 148.94 427.5 157.076 435.775C159.2 437.797 161.739 439.333 164.517 440.275C167.294 441.216 170.244 441.542 173.16 441.229C175.884 441.043 178.529 440.239 180.896 438.878C183.114 437.258 185.005 435.232 186.469 432.907C187.245 431.967 187.715 432.038 188.82 431.92C190.532 431.83 192.175 431.215 193.523 430.157C195.584 428.352 196.982 425.911 197.497 423.222C198.565 419.87 198.671 416.287 197.803 412.878C197.395 411.374 196.605 410.001 195.509 408.893C194.412 407.785 193.048 406.979 191.548 406.554C186.939 405.426 185.035 412.22 189.502 413.113Z" fill="#2D2FEE"/>
<path d="M165.658 395.011L165.447 394.541L165.799 395.387C165.617 394.951 165.49 394.492 165.423 394.024L165.564 394.964C165.494 394.442 165.494 393.912 165.564 393.389V394.306C165.653 393.651 165.827 393.011 166.081 392.402L165.729 393.248C166.045 392.521 166.448 391.834 166.928 391.203L166.387 391.908C167.51 390.558 168.771 389.329 170.149 388.241C170.642 387.748 170.978 387.12 171.113 386.436C171.249 385.752 171.179 385.044 170.913 384.4C170.646 383.756 170.194 383.205 169.615 382.818C169.035 382.43 168.354 382.223 167.657 382.223C166.73 382.264 165.848 382.63 165.164 383.257C163.031 384.802 161.232 386.761 159.874 389.017C159.077 390.449 158.641 392.054 158.604 393.692C158.567 395.331 158.93 396.953 159.662 398.42C160.17 399.113 160.915 399.597 161.755 399.78C162.595 399.963 163.473 399.833 164.224 399.415C164.976 398.996 165.548 398.317 165.833 397.506C166.119 396.695 166.099 395.808 165.776 395.011C165.746 394.936 165.706 394.865 165.658 394.8V395.011Z" fill="#2D2FEE"/>
<path d="M163.285 399.995C164.817 399.905 166.296 399.402 167.565 398.538C168.826 397.678 169.859 396.524 170.575 395.176C171.298 393.716 171.661 392.104 171.633 390.475C171.633 389.205 171.398 387.936 171.304 386.69C171.277 385.76 170.909 384.873 170.269 384.198C169.776 383.705 169.148 383.37 168.464 383.234C167.78 383.098 167.071 383.168 166.427 383.435C165.783 383.701 165.233 384.153 164.845 384.732C164.457 385.312 164.25 385.993 164.249 386.69C164.512 388.369 164.599 390.07 164.508 391.767V390.827C164.444 391.312 164.318 391.786 164.132 392.238L164.485 391.391C164.293 391.827 164.048 392.238 163.756 392.614L164.296 391.909C163.996 392.287 163.657 392.634 163.285 392.943L163.991 392.379C163.612 392.673 163.202 392.926 162.768 393.131L163.591 392.755C163.245 392.903 162.882 393.006 162.509 393.06H163.45H163.168C162.241 393.102 161.359 393.468 160.675 394.095C160.022 394.761 159.651 395.654 159.641 396.587C159.641 397.522 160.014 398.418 160.675 399.079C160.996 399.415 161.383 399.681 161.812 399.859C162.242 400.037 162.703 400.123 163.168 400.113L163.285 399.995Z" fill="#2D2FEE"/>
<path d="M194.09 342.517L192.632 343.411C190.422 344.798 193.808 342.894 191.95 343.857C189.599 345.033 187.506 346.655 185.319 348.018L170.669 357.422C161.264 363.409 151.858 369.442 142.452 375.523C123.358 387.873 104.351 400.348 85.4293 412.949C84.6253 413.429 84.0418 414.205 83.8043 415.111C83.5669 416.016 83.6944 416.979 84.1595 417.791L129.731 477.056L136.174 485.449C136.659 486.207 137.412 486.756 138.283 486.987C139.153 487.217 140.079 487.113 140.877 486.694L249.937 423.01C250.735 422.531 251.313 421.757 251.547 420.856C251.78 419.954 251.649 418.997 251.183 418.191L205.424 352.979L198.91 343.74C196.324 340.049 190.187 343.575 192.82 347.29L238.579 412.384L245.046 421.576L246.316 416.757L137.443 480.441L142.146 481.711L96.7163 422.493L90.2498 414.101L89.0035 418.802C107.909 406.264 126.909 393.789 146.003 381.377C155.409 375.312 164.814 369.278 174.22 363.275L188.87 354.013C191.08 352.603 193.338 351.286 195.501 349.829L196.912 348.841C195.101 350.04 197.453 348.583 197.641 348.489C201.474 346.208 197.946 340.096 194.09 342.517Z" fill="#2D2FEE"/>
<path d="M52.1786 322.935C104.945 321.9 142.216 320.067 194.771 315.882H195.288C197.063 315.87 198.762 315.156 200.013 313.897C201.264 312.637 201.966 310.934 201.966 309.159V309.159C201.731 298.251 200.955 287.719 200.085 277.023C199.168 265.715 197.734 253.985 197.545 242.536C197.53 241.786 197.367 241.046 197.066 240.359C196.764 239.672 196.331 239.05 195.789 238.531C195.248 238.011 194.609 237.603 193.91 237.331C193.21 237.058 192.464 236.926 191.714 236.941H191.526L189.174 237.059L55.6588 241.76H55.0944L50.7442 242.372C49.3057 242.598 48.0115 243.375 47.1342 244.537C46.2569 245.699 45.8651 247.156 46.0413 248.601C47.0995 256.594 47.6403 264.658 48.1811 272.697L51.4497 322.065L52.1786 322.935Z" fill="#2D2FEE"/>
<path d="M52.1811 326.461C98.834 325.537 145.401 323.264 191.881 319.644C196.396 319.291 200.746 319.127 203.638 315.06C206.836 310.523 205.402 303.776 205.143 298.604C204.508 285.98 203.309 273.403 202.204 260.802C201.687 254.667 201.545 248.531 201.099 242.395C201.034 240.056 200.099 237.826 198.477 236.139C196.855 234.453 194.663 233.431 192.328 233.274C190.611 233.274 188.801 233.415 187.06 233.462L129.309 235.531L62.9978 237.882C57.9892 238.07 50.9114 237.482 46.5377 240.232C41.3645 243.359 42.305 248.742 42.8459 253.82C43.5278 260.121 43.9511 266.444 44.3743 272.768L47.0079 311.134L47.6193 320.325C47.5592 321.273 47.7141 322.222 48.0725 323.101C48.4308 323.981 48.9833 324.768 49.6886 325.403C53.0042 328.483 58.0127 323.499 54.6737 320.396L53.7566 319.55L54.7677 322.136L52.4163 285.956C51.6168 274.202 51.076 262.166 49.6181 250.365C49.3359 248.014 49.0302 246.415 51.6168 245.827C52.6816 245.619 53.7571 245.47 54.8383 245.381H56.0846L61.4224 245.169L120.867 243.053L182.005 240.867L188.142 240.632H189.036C189.859 240.632 190.682 240.467 191.387 240.515C193.974 240.632 193.88 242.701 193.95 244.793C194.326 256.359 195.69 267.855 196.607 279.35C197.101 285.439 197.548 291.528 197.854 297.64C197.995 300.32 198.112 303.023 198.206 305.703C198.206 307.866 198.959 310.828 196.678 312.121C194.906 312.707 193.038 312.946 191.176 312.826L182.169 313.508C176.597 313.931 171 314.354 165.427 314.731C154.736 315.483 144.045 316.149 133.353 316.729C112.19 317.904 90.792 318.68 69.5114 319.197L52.0401 319.597C47.7134 319.479 47.7134 326.532 52.1811 326.461Z" fill="#2D2FEE"/>
<path d="M72.1672 258.969C72.5047 258.522 72.9272 258.146 73.4103 257.862C73.8935 257.579 74.4278 257.394 74.9827 257.318C75.5376 257.241 76.1021 257.275 76.6439 257.417C77.1856 257.559 77.694 257.807 78.1399 258.146C78.8571 258.7 79.3833 259.464 79.6448 260.332C80.8441 264.375 77.458 268.489 75.1535 271.404C74.5958 272.023 74.2731 272.817 74.2418 273.649C74.2106 274.481 74.4729 275.297 74.9828 275.956C75.4927 276.614 76.2178 277.072 77.0313 277.25C77.8448 277.428 78.695 277.314 79.4332 276.929C81.9728 275.542 84.7004 277.564 85.9467 279.75C87.5245 282.802 88.1317 286.264 87.6868 289.67C86.7697 296.253 80.0916 299.074 74.307 300.085C69.8628 300.907 71.7439 307.725 76.1882 306.879C86.417 304.974 95.235 298.181 94.8117 286.967C94.9054 281.881 93.1129 276.94 89.7796 273.097C88.0316 271.267 85.7397 270.05 83.2444 269.626C80.7491 269.203 78.1837 269.595 75.9295 270.746L80.2092 276.294C84.9121 270.37 90.0617 262.189 84.9121 254.808C83.1039 252.383 80.4079 250.774 77.4149 250.333C74.4219 249.892 71.3763 250.656 68.9457 252.457C67.9064 253.256 67.0015 254.216 66.265 255.301C63.5609 258.969 69.6747 262.495 72.3553 258.874L72.1672 258.969Z" fill="white"/>
<path d="M114.491 249.401C109.464 254.344 106.234 260.826 105.313 267.816C104.393 274.805 105.836 281.902 109.412 287.978C111.013 291.039 113.597 293.474 116.749 294.889C118.547 295.436 120.439 295.604 122.305 295.381C124.171 295.158 125.97 294.551 127.589 293.596C130.565 292.163 132.944 289.73 134.311 286.723C135.677 283.716 135.945 280.325 135.067 277.141C133.935 273.725 131.506 270.892 128.304 269.251C125.101 267.611 121.382 267.295 117.948 268.372C113.645 269.759 115.597 276.576 119.829 275.166C120.841 274.788 121.932 274.669 123.002 274.82C124.072 274.97 125.087 275.385 125.956 276.027C126.825 276.669 127.52 277.518 127.977 278.497C128.435 279.475 128.641 280.552 128.577 281.631C128.177 286.332 121.123 291.034 117.313 286.967C115.372 284.641 113.909 281.955 113.009 279.062C112.109 276.17 111.79 273.128 112.069 270.112C112.539 264.156 115.174 258.578 119.477 254.431C122.722 251.234 117.736 246.25 114.491 249.448V249.401Z" fill="white"/>
<path d="M146.917 249.118C145.349 255.168 144.048 261.257 143.014 267.384C142.84 268.133 142.902 268.917 143.193 269.629C143.484 270.34 143.988 270.944 144.636 271.357C145.295 271.733 146.057 271.887 146.81 271.799C147.563 271.71 148.268 271.382 148.822 270.864C150.444 268.795 152.749 270.347 154.042 272.016C155.637 274.113 156.467 276.693 156.393 279.327C156.229 285.415 149.927 287.179 145.059 288.495C144.228 288.805 143.542 289.416 143.139 290.206C142.735 290.996 142.642 291.909 142.878 292.765C143.114 293.62 143.662 294.356 144.414 294.828C145.166 295.3 146.067 295.472 146.941 295.312C151.439 294.42 155.643 292.416 159.168 289.482C160.782 287.838 161.993 285.843 162.707 283.653C163.421 281.463 163.618 279.137 163.283 276.858C162.743 272.242 160.413 268.021 156.793 265.104C152.984 262.213 146.941 261.907 143.766 265.974L149.645 269.383C150.703 263.247 151.996 257.182 153.572 251.14C153.732 250.267 153.559 249.366 153.087 248.614C152.615 247.862 151.879 247.315 151.023 247.079C150.168 246.843 149.254 246.936 148.464 247.339C147.673 247.743 147.063 248.428 146.752 249.259L146.917 249.118Z" fill="white"/>
<path d="M150.258 253.279C156.18 253.733 162.126 253.812 168.058 253.514C168.994 253.514 169.891 253.143 170.552 252.481C171.214 251.82 171.585 250.923 171.585 249.988C171.585 249.053 171.214 248.156 170.552 247.495C169.891 246.833 168.994 246.462 168.058 246.462C162.126 246.759 156.18 246.681 150.258 246.227C149.798 246.224 149.341 246.311 148.915 246.484C148.489 246.657 148.101 246.913 147.773 247.236C147.446 247.559 147.185 247.943 147.006 248.367C146.827 248.791 146.734 249.246 146.73 249.706V249.706C146.742 250.642 147.116 251.537 147.774 252.203C148.432 252.869 149.322 253.255 150.258 253.279V253.279Z" fill="white"/>
</g>
</g>
<defs>
<clipPath id="clip0">
<rect width="539.022" height="488.376" fill="white"/>
</clipPath>
<clipPath id="clip1">
<rect width="539" height="487" fill="white"/>
</clipPath>
</defs>
</svg>
