<svg width="819" height="210" viewBox="0 0 819 210" fill="none" xmlns="http://www.w3.org/2000/svg">
<path d="M807.132 120.792C813.157 128.362 819.181 139.794 814.084 161.577C804.272 189.385 794.874 206.626 786.279 206.996C777.684 207.367 785.942 179.807 789.523 166.212C786.279 171.31 780.255 178.262 771.914 178.262C767.517 178.262 765.426 169.919 765.889 168.065C766.353 166.212 759.033 175.017 750.597 173.627C742.16 172.237 742.719 161.114 743.646 153.698C744.387 147.766 749.979 132.36 753.841 123.081M753.841 123.081C767.007 126.032 790.718 126.303 804.272 123.301C821.886 119.4 808.888 80.5679 778.779 61.2124C745.404 39.7577 736.135 37.8073 700.445 35.2067C653.88 31.8139 548.875 57.9617 497.425 50.16C471.637 46.2496 396.379 14.7273 315.263 14.7273C277.719 14.7273 186.867 32.9313 153.958 32.9313C124.919 32.9313 59.4007 18.9532 34.3709 11.1515C14.347 4.9102 -17.388 5.84206 -37.4736 4C-46.5894 25.7797 -57.0325 63.8129 -18.468 63.8129C29.7376 63.8129 102.708 87.8681 136.344 87.8681C212.826 87.8681 251.772 71.7661 293.013 69.3391C359.297 65.4383 392.544 76.5299 428.361 85.9177C474.249 97.9453 502.987 100.871 545.631 95.3447C588.274 89.8186 639.724 72.2648 686.539 75.1904C733.354 78.116 738.915 113.874 745.404 119.725C746.9 121.074 749.897 122.198 753.841 123.081Z" stroke="#2D2FEE" stroke-width="6"/>
</svg>
