<svg width="313" height="269" viewBox="0 0 313 269" fill="none" xmlns="http://www.w3.org/2000/svg">
<g clip-path="url(#clip0)">
<path d="M215.166 202.426V218.185C215.166 218.71 215.374 219.214 215.745 219.585C216.115 219.956 216.618 220.165 217.142 220.165C217.666 220.165 218.169 219.956 218.54 219.585C218.91 219.214 219.118 218.71 219.118 218.185V202.426C219.118 201.901 218.91 201.397 218.54 201.026C218.169 200.655 217.666 200.446 217.142 200.446C216.618 200.446 216.115 200.655 215.745 201.026C215.374 201.397 215.166 201.901 215.166 202.426Z" fill="#2D2FEE"/>
<path d="M139.702 205.554C147.778 206.109 155.933 206.109 164.023 206.294C175.247 206.558 186.476 206.773 197.71 206.94C201.109 206.94 204.521 207.085 207.907 206.94C210.45 206.94 210.463 202.981 207.907 202.981C199.818 203.152 191.702 202.836 183.613 202.677C172.38 202.466 161.146 202.211 149.913 201.912C146.514 201.806 143.101 201.766 139.702 201.529C137.16 201.357 137.173 205.317 139.702 205.488V205.554Z" fill="#2D2FEE"/>
<path d="M154.774 212.286C161.098 212.708 167.461 212.669 173.798 212.761C182.326 212.893 190.855 212.981 199.383 213.025C202.229 213.025 205.074 213.025 207.907 213.025C210.45 213.025 210.463 209.065 207.907 209.065C193.072 209.408 178.159 208.973 163.311 208.643C160.466 208.643 157.62 208.537 154.774 208.353C152.231 208.181 152.245 212.141 154.774 212.312V212.286Z" fill="#2D2FEE"/>
<path d="M217.142 216.205C204.376 216.496 191.544 215.955 178.778 215.757C159.701 215.458 140.633 215.119 121.574 214.74L111.14 214.503C108.675 214.628 106.204 214.433 103.789 213.922L105.106 215.242C104.671 213.352 104.511 211.41 104.632 209.474C104.601 206.83 104.715 204.186 104.974 201.555C104.936 200.499 105.102 199.446 105.462 198.453C105.975 197.622 107.095 197.793 107.952 197.793C110.507 197.793 113.05 197.899 115.606 197.939L147.133 198.585C168.212 199.034 189.291 199.474 210.37 199.905C212.9 199.905 215.495 200.169 218.038 200.064C219.033 200.06 220.006 199.774 220.845 199.239C221.684 198.704 222.355 197.942 222.781 197.041C223.584 195.339 223.136 193.689 222.781 191.947C222.227 189.307 221.656 186.698 221.068 184.12C218.921 174.551 216.523 165.021 213.717 155.624C210.936 146.262 207.673 137.05 203.941 128.026C202.321 124.066 201.069 119.354 197.354 116.979C195.447 115.933 193.31 115.379 191.136 115.368C188.501 115.144 185.8 114.933 183.139 114.761C164.4 113.597 145.595 114.118 126.949 116.319C125.123 116.325 123.332 116.817 121.758 117.744C120.393 118.923 119.38 120.458 118.834 122.179C117.385 125.452 116.001 128.778 114.671 132.091C111.728 139.649 108.94 147.256 106.305 154.911C103.67 162.646 101.114 170.459 98.9139 178.339C97.9654 181.731 97.0695 185.149 96.279 188.594C96.1233 189.631 95.8898 190.654 95.5808 191.656C95.1196 192.712 94.5268 193.715 93.9998 194.745C93.6573 195.431 93.2357 196.064 92.9459 196.83C92.0763 198.942 92.2081 201.898 92.2608 204.155C92.3355 208.571 93.229 212.935 94.8957 217.024C95.6821 219.033 96.6943 220.946 97.9127 222.726C98.9111 223.994 100.301 224.894 101.865 225.286C103.704 225.74 105.598 225.931 107.491 225.854L115.29 226.197C136.545 227.077 157.813 227.424 179.094 227.239C189.695 227.151 200.305 226.927 210.924 226.566L218.697 226.276L222.649 226.118C224.052 226.182 225.459 226.08 226.838 225.814C227.587 225.572 228.243 225.102 228.715 224.471C229.186 223.84 229.452 223.078 229.473 222.29C229.473 220.429 227.985 218.66 226.931 217.248C224.744 214.349 222.409 211.565 219.935 208.907C218.222 207.019 215.429 209.831 217.142 211.705C218.855 213.579 220.475 215.427 222.056 217.367C222.886 218.396 223.69 219.426 224.427 220.521C224.695 220.979 224.99 221.419 225.31 221.841C225.389 221.934 225.481 222.435 225.561 222.132C225.64 221.828 224.467 222.026 224.243 222.039C216.9 222.374 209.558 222.638 202.215 222.831C187.372 223.227 172.52 223.359 157.659 223.227C142.798 223.095 128.043 222.721 113.393 222.105C111.548 222.105 109.704 221.96 107.873 221.868C106.355 221.927 104.836 221.825 103.341 221.564C102.7 221.426 102.089 221.176 101.536 220.825C100.499 219.7 99.7011 218.375 99.1906 216.931C97.8035 214.015 96.8874 210.897 96.4766 207.692C96.2857 206.2 96.1933 204.696 96.2 203.192C96.1102 201.685 96.1676 200.173 96.3713 198.678C96.8893 197.29 97.5562 195.962 98.3606 194.718C99.0577 193.373 99.5675 191.939 99.8757 190.455C100.982 185.44 102.326 180.477 103.828 175.554C107.056 164.52 110.784 153.618 114.842 142.861C116.695 137.916 118.641 133.002 120.678 128.118C121.487 125.95 122.42 123.831 123.471 121.77C123.73 121.301 124.113 120.913 124.578 120.65C125.043 120.387 125.572 120.258 126.106 120.278C127.99 120.041 129.887 119.856 131.784 119.658C144.664 118.27 157.62 117.719 170.57 118.008C177.263 118.193 183.955 118.615 190.622 119.17C193.994 119.46 196.339 120.014 197.828 123.288C199.317 126.561 200.595 129.662 201.886 132.896C206.845 145.589 210.977 158.59 214.257 171.819C215.956 178.497 217.484 185.228 218.934 191.986C219.171 193.082 219.988 194.718 219.171 195.603C218.354 196.487 215.522 195.946 214.375 195.919L203.48 195.708L159.543 194.784C144.831 194.467 130.12 194.164 115.408 193.873L110.257 193.939C108.6 193.787 106.93 193.854 105.29 194.137C102.102 194.943 101.509 197.833 101.206 200.737C100.8 204.28 100.664 207.85 100.798 211.414C100.779 212.889 100.907 214.361 101.18 215.81C101.318 216.42 101.649 216.969 102.123 217.376C102.598 217.783 103.191 218.025 103.815 218.066C107.306 218.832 111.258 218.515 114.816 218.608L132.97 218.977C148.595 219.285 164.224 219.554 179.858 219.782C191.359 219.954 202.874 220.165 214.375 220.218C215.324 220.218 216.272 220.218 217.208 220.218C219.751 220.218 219.764 216.258 217.208 216.258L217.142 216.205Z" fill="#2D2FEE"/>
<path d="M182.296 125.769L174.391 125.69C162.099 125.584 149.781 125.465 137.502 126.336C136.95 126.376 136.43 126.615 136.04 127.009C135.721 127.339 135.51 127.758 135.434 128.21C133.958 136.798 132.426 145.391 130.836 153.987C130.71 154.684 130.837 155.402 131.195 156.013C131.553 156.623 132.117 157.085 132.786 157.313C132.991 157.383 133.203 157.432 133.418 157.458C150.216 159.412 167.15 159.924 184.035 158.99C185.629 158.95 187.214 158.742 188.764 158.369C189.306 158.219 189.792 157.915 190.164 157.493C190.536 157.071 190.777 156.55 190.859 155.993C190.904 155.714 190.904 155.428 190.859 155.149C189.506 145.33 187.008 135.704 183.416 126.468L182.296 125.769Z" fill="#2D2FEE"/>
<path d="M182.295 123.789C169.608 123.67 156.921 123.419 144.247 123.974C142.732 124.04 141.23 124.119 139.729 124.211C138.282 124.117 136.833 124.366 135.5 124.937C133.207 126.257 133.22 129.214 132.865 131.537C131.749 137.986 130.599 144.432 129.413 150.873C128.952 153.393 128.227 156.02 130.309 158.053C132.101 159.795 134.986 159.61 137.291 159.848C143.659 160.507 150.04 160.947 156.434 161.167C162.828 161.387 169.222 161.423 175.616 161.273C178.817 161.194 182.045 161.101 185.26 160.851C187.71 160.666 190.714 160.455 192.15 158.119C193.586 155.782 192.532 152.536 192.15 149.988C191.57 146.636 190.85 143.314 189.989 140.023C189.129 136.732 188.105 133.38 186.92 129.966C186.517 128.396 185.948 126.874 185.22 125.426C184.725 124.827 184.105 124.344 183.402 124.013C181.242 122.694 179.252 126.072 181.4 127.432L182.519 128.145L181.61 126.957C183.479 131.762 185.054 136.676 186.327 141.673C186.959 144.168 187.526 146.689 188 149.223C188.237 150.437 188.448 151.651 188.646 152.879C188.79 153.75 189.252 155.281 188.962 155.835C188.54 156.653 187.328 156.68 186.511 156.785C185.194 156.957 183.876 156.983 182.559 157.049C179.845 157.195 177.144 157.287 174.43 157.353C169.011 157.467 163.592 157.441 158.173 157.274C152.754 157.107 147.343 156.781 141.942 156.297C140.532 156.178 139.136 156.046 137.739 155.901C136.413 155.849 135.092 155.699 133.787 155.452C133.544 155.4 133.327 155.265 133.173 155.07C133.019 154.875 132.938 154.632 132.944 154.383C133.028 152.995 133.276 151.622 133.682 150.292C134.674 144.924 135.636 139.553 136.567 134.176L137.239 130.309C137.423 129.227 137.239 128.395 138.319 128.237C141.001 127.951 143.697 127.81 146.395 127.815C158.423 127.366 170.478 127.59 182.506 127.709C182.978 127.621 183.401 127.364 183.697 126.986C183.993 126.609 184.142 126.136 184.116 125.656C184.091 125.177 183.892 124.723 183.557 124.379C183.222 124.036 182.773 123.826 182.295 123.789Z" fill="#2D2FEE"/>
<path d="M142.192 130.164C140.282 132.197 137.318 137.252 140.124 139.68C142.93 142.109 147.818 139.297 150.663 138.136C151.114 138.024 151.555 137.874 151.981 137.687C152.468 137.344 151.533 135.998 151.217 136.737C150.901 137.476 151.559 138.585 152.047 139.06C153.364 140.38 155.314 140.169 156.987 139.957C161.019 139.429 165.208 137.819 169.253 139.1C171.677 139.878 172.718 136.051 170.293 135.285C166.987 134.229 163.614 134.731 160.281 135.378C159.424 135.549 158.581 135.721 157.725 135.866C156.869 136.011 155.973 135.971 155.195 136.183C154.695 136.315 154.55 135.747 154.906 136.645C155.261 137.542 155.261 136.645 155.248 136.262C155.231 135.907 155.143 135.56 154.99 135.24C154.836 134.92 154.619 134.635 154.352 134.401C152.034 132.395 148.397 134.902 146.131 135.839C145.433 136.133 144.71 136.363 143.971 136.526C143.617 136.515 143.263 136.547 142.917 136.618C142.587 136.539 142.548 136.618 142.798 136.843C143.049 137.067 142.97 137.133 142.97 136.922C143.22 136.684 143.378 135.312 143.562 134.929C143.895 134.208 144.34 133.544 144.88 132.962C146.619 131.101 143.826 128.303 142.087 130.164H142.192Z" fill="white"/>
<path d="M153.984 149.738C155.262 149.223 156.585 148.83 157.936 148.563C158.98 148.343 160.067 148.453 161.045 148.88C161.57 149.22 162.067 149.599 162.534 150.015C163.296 150.603 164.21 150.961 165.169 151.044C166.874 151.085 168.555 150.626 170.004 149.725C170.434 149.456 170.746 149.035 170.878 148.545C171.01 148.055 170.952 147.533 170.715 147.085C170.442 146.639 170.007 146.316 169.501 146.183C168.996 146.05 168.458 146.118 168.001 146.372C167.106 146.834 165.88 147.547 164.971 146.953C164.431 146.596 163.944 146.082 163.39 145.712C162.746 145.313 162.044 145.015 161.309 144.828C158.503 144.142 155.604 144.999 152.969 145.989C152.485 146.153 152.079 146.494 151.835 146.945C151.591 147.395 151.525 147.921 151.652 148.418C151.79 148.923 152.124 149.353 152.578 149.613C153.032 149.873 153.571 149.941 154.076 149.804L153.984 149.738Z" fill="white"/>
<path d="M96.6611 76.1553C103.046 68.4825 109.568 60.9285 116.225 53.4933C117.912 51.5928 115.119 48.7815 113.419 50.6821C106.779 58.126 100.262 65.6844 93.8681 73.3572C93.5104 73.7348 93.311 74.2356 93.311 74.7562C93.311 75.2768 93.5104 75.7776 93.8681 76.1553C94.242 76.5197 94.743 76.7236 95.2646 76.7236C95.7862 76.7236 96.2873 76.5197 96.6611 76.1553Z" fill="#2D2FEE"/>
<path d="M93.2885 74.7564C92.1555 87.1103 87.0043 98.5138 81.2207 109.363C78.3091 114.814 75.2131 120.186 72.2883 125.637C69.3636 131.088 66.1095 136.71 64.3836 142.637C62.4206 149.355 61.9332 156.852 57.4934 162.58L60.8002 163.451C56.9796 150.252 62.1176 136.724 62.2757 123.406C62.2644 122.978 62.1157 122.565 61.8517 122.228C61.5877 121.892 61.2224 121.649 60.8099 121.536C60.3975 121.424 59.9598 121.447 59.5618 121.604C59.1638 121.76 58.8265 122.04 58.6 122.403C57.1383 124.493 55.9184 126.742 54.9639 129.108C54.7804 129.549 54.7533 130.039 54.8871 130.497C55.021 130.955 55.3077 131.353 55.6993 131.625C56.091 131.897 56.5639 132.026 57.0391 131.991C57.5143 131.956 57.9629 131.758 58.3102 131.431C60.3377 129.378 61.7129 126.769 62.2626 123.934C62.3687 123.477 62.3103 122.997 62.0977 122.579C61.8851 122.16 61.5319 121.831 61.1005 121.648C60.669 121.465 60.1868 121.44 59.739 121.578C59.2912 121.717 58.9066 122.009 58.6528 122.403C49.3516 137.912 41.5259 154.793 27.2447 166.539L30.5515 167.938C30.4858 167.018 30.1253 166.143 29.5239 165.444C29.0759 164.876 29.3262 165.444 29.5239 164.982C29.7215 164.52 29.9586 163.86 30.1826 163.292C31.118 160.969 32.1192 158.673 33.1468 156.376C35.0835 152.034 37.0992 147.731 39.1017 143.389C43.0541 134.704 46.6507 125.835 48.5742 116.451C48.6967 115.989 48.6482 115.498 48.4377 115.069C48.2272 114.64 47.8689 114.302 47.429 114.117C46.9891 113.932 46.4972 113.913 46.0443 114.063C45.5913 114.213 45.2077 114.522 44.9644 114.933C43.3203 117.085 42.0305 119.487 41.1438 122.047C40.709 123.776 41.6839 125.861 43.7787 125.307C45.0961 124.951 46.0711 123.459 46.7035 122.324C47.7676 120.339 48.4344 118.164 48.6665 115.923C48.66 115.534 48.5404 115.156 48.3222 114.835C48.104 114.513 47.7968 114.263 47.4384 114.114C47.08 113.966 46.6861 113.925 46.305 113.998C45.924 114.071 45.5725 114.253 45.2938 114.524C40.024 120.951 34.6751 127.3 28.7993 133.173C25.9799 135.998 23.0289 138.703 19.9329 141.251C18.3256 142.571 16.6919 143.891 15.0056 145.092C14.5697 145.471 14.0975 145.807 13.5959 146.095C13.8726 146.161 13.8989 146.174 13.5959 146.161H13.0689C12.7502 146.115 12.4291 146.089 12.1072 146.081C11.4353 146.081 11.9096 145.62 12.015 146.306L11.8174 147.837C21.9881 133.833 32.778 120.265 42.2241 105.747C43.5415 103.806 40.7222 101.787 39.1281 103.344C37.8107 104.559 33.3314 108.307 36.3483 110.129C38.7724 111.607 41.236 107.225 42.2241 105.747C43.5415 103.754 40.7486 102.011 39.1281 103.344C33.8057 107.857 27.4808 111.025 20.6838 112.583C17.4391 113.3 14.092 113.425 10.8029 112.953C9.22199 112.702 7.72007 112.188 6.16547 111.871C5.92269 111.848 5.68374 111.795 5.45408 111.712C5.14823 111.618 4.8592 111.475 4.5977 111.29C4.27663 111.078 4.04638 110.753 3.95217 110.379C3.89843 110.245 3.87992 110.1 3.89837 109.956C3.91682 109.813 3.97164 109.677 4.05759 109.561C5.10962 108.67 6.38561 108.086 7.74643 107.872C11.0788 107.185 14.3586 106.263 17.5615 105.113C23.5851 103.074 29.3369 100.304 34.6883 96.864C40.8245 92.8916 46.2529 87.9173 50.7481 82.1476C51.0415 81.8343 51.2259 81.4345 51.2741 81.0076C51.3222 80.5808 51.2315 80.1497 51.0153 79.7788C50.799 79.4078 50.4689 79.1168 50.0741 78.9491C49.6794 78.7813 49.2411 78.7459 48.8245 78.848C46.5849 79.1515 40.9199 80.9729 43.0937 84.4046C45.2675 87.8362 49.6809 83.6258 50.9984 81.7648C51.1704 81.4638 51.2609 81.1229 51.2612 80.776C51.2614 80.4291 51.1712 80.0881 50.9996 79.7868C50.8279 79.4855 50.5807 79.2343 50.2824 79.0581C49.9841 78.8819 49.6451 78.7867 49.2988 78.782C45.2451 79.27 41.151 79.3231 37.0861 78.9404C33.1337 78.5576 28.6807 77.6865 25.532 75.1524C24.0914 74.0055 23.0606 72.4217 22.5941 70.6384C22.4286 70.0916 22.366 69.5188 22.4097 68.949C22.4286 68.7727 22.4885 68.6032 22.5846 68.4542C22.6807 68.3052 22.8102 68.1809 22.963 68.0911C23.2746 67.8843 23.617 67.7284 23.9774 67.6292C24.5768 67.4407 25.1955 67.3212 25.8218 67.2728C27.4724 67.1517 29.1305 67.1826 30.7754 67.3652C34.0427 67.6424 37.2574 68.2231 40.5378 68.3683C47.2413 68.7269 53.9607 68.6563 60.6552 68.1571C63.2989 68.0521 65.8749 67.2901 68.1515 65.9398C70.7206 64.2767 72.6704 61.6502 74.6334 59.3405C79.0601 54.061 83.1573 48.5573 87.2677 43.0402C96.9115 30.132 106.806 17.435 116.37 4.46083C117.885 2.40185 114.447 0.501265 112.958 2.45465C103.999 14.6237 94.7377 26.5288 85.6737 38.6187C81.392 44.3337 77.1761 50.1147 72.6177 55.6053C70.5625 58.0734 68.4019 61.3071 65.5562 62.9041C63.1814 63.9672 60.5929 64.4641 57.994 64.3559C51.266 64.758 44.5184 64.7051 37.7975 64.1975C34.5566 63.8808 31.3683 63.2736 28.1011 63.2077C25.1236 63.2077 21.2503 63.432 19.3927 66.1509C17.2321 69.3186 19.116 73.8721 21.3162 76.4854C24.5307 80.2998 29.8137 81.8572 34.5697 82.5436C39.4562 83.2363 44.4118 83.2896 49.312 82.7019L47.5993 79.7323C47.0228 80.4271 46.3585 81.0438 45.6231 81.5669C45.6231 81.5669 45.2806 81.7384 45.2674 81.6724C45.3996 81.6262 45.5436 81.6262 45.6758 81.6724C45.893 81.7503 46.088 81.8799 46.2441 82.05C46.4001 82.2202 46.5125 82.4258 46.5717 82.6491C46.6611 82.9606 46.6329 83.2942 46.4926 83.5862C46.3345 83.771 46.3345 83.7578 46.4926 83.5862C46.3214 83.5862 46.8352 83.3751 46.8879 83.3487C47.8165 82.932 48.8109 82.6818 49.8258 82.6096L47.9023 79.2967C38.9436 90.8323 26.4279 98.4214 12.5288 102.5C9.22198 103.476 5.4936 103.82 2.56886 105.707C1.85763 106.052 1.24384 106.569 0.783578 107.212C0.323313 107.856 0.0312321 108.604 -0.0660427 109.389C-0.148067 110.094 -0.0876819 110.807 0.111504 111.487C0.310691 112.168 0.644604 112.801 1.09332 113.349C2.71379 115.302 5.2828 115.698 7.58834 116.253C11.1686 117.106 14.8741 117.298 18.5232 116.82C27.192 115.738 35.1494 111.541 41.8421 106.077L38.7329 103.674C38.2332 104.468 37.6738 105.223 37.0597 105.931C36.8575 106.116 36.6682 106.315 36.4932 106.525C36.177 107.053 36.4932 105.984 37.8107 106.433L39.1281 107.819C39.3257 108.426 38.9042 109.02 39.1281 108.888C39.3066 108.72 39.4617 108.529 39.5892 108.32C40.2844 107.527 41.028 106.778 41.8157 106.077L38.7065 103.674C30.209 116.728 20.6179 129.003 11.3826 141.541L9.64356 143.904C8.99717 144.584 8.47143 145.369 8.08898 146.227C7.97636 146.879 8.08677 147.551 8.40234 148.133C8.71792 148.715 9.22023 149.173 9.82803 149.434C10.8741 149.871 12.0019 150.079 13.1348 150.041C14.8739 150.041 15.941 149.091 17.2848 148.101C22.7236 144.065 27.8338 139.603 32.5672 134.757C38.0083 129.214 43.0014 123.261 47.9155 117.256L44.5428 115.857C44.3797 117.135 44.0244 118.381 43.4889 119.552C43.0961 120.255 42.6559 120.929 42.1714 121.572C41.9343 121.954 42.1714 121.427 42.1714 121.572C42.1056 122.509 45.1357 122.456 44.7009 123.208C44.8328 122.876 44.9472 122.537 45.0435 122.192C45.9269 120.346 46.9671 118.58 48.1526 116.913L44.5428 115.395C42.5535 125.017 38.8251 134.058 34.741 142.953C32.7121 147.388 30.6306 151.796 28.6676 156.258C27.6795 158.515 26.7178 160.785 25.8087 163.068C25.2594 164.017 25.0458 165.124 25.2027 166.209C25.3076 166.585 25.4722 166.942 25.6901 167.265C25.7692 167.371 26.4542 168.413 26.4015 167.925C26.4136 168.311 26.5366 168.685 26.7558 169.003C26.9749 169.32 27.2809 169.568 27.637 169.716C27.9931 169.863 28.3841 169.905 28.7632 169.835C29.1423 169.766 29.4933 169.589 29.7742 169.324C44.3847 157.379 52.5266 140.221 61.9991 124.383L58.3892 122.865C58.1361 124.134 57.6539 125.346 56.9664 126.442C56.6651 126.991 56.3353 127.524 55.9783 128.039C55.8465 128.25 55.6621 128.725 55.7938 128.316L55.6489 128.488L55.5567 128.58C55.2054 128.915 55.6138 128.756 56.7819 128.105L58.1784 128.686C58.3497 130.468 58.521 131.035 58.6791 130.402V130.27C58.903 130.124 58.5605 130.454 58.6791 130.27C58.7976 130.085 59.1007 129.412 59.3115 128.95C60.1415 127.379 61.0505 125.861 61.9464 124.33L58.2575 123.34C58.0863 137.08 52.9877 150.793 56.9401 164.441C57.3221 165.761 59.2983 166.539 60.2468 165.312C64.3704 160.032 65.6747 153.789 67.1766 147.388C68.6785 140.987 71.6164 135.232 74.6597 129.464C80.6146 118.193 87.3995 107.33 92.1028 95.4386C94.7922 88.8043 96.5137 81.8165 97.2145 74.6904C97.4385 72.1563 93.4861 72.1695 93.2621 74.6904L93.2885 74.7564Z" fill="#2D2FEE"/>
<path d="M219.461 68.1969C213.822 61.4393 208.083 54.7652 202.242 48.1747C200.542 46.2609 197.763 49.0722 199.449 50.9728C205.281 57.5633 211.02 64.2417 216.668 71.0082C217.042 71.3726 217.543 71.5765 218.064 71.5765C218.586 71.5765 219.087 71.3726 219.461 71.0082C219.82 70.6284 220.019 70.1254 220.019 69.6026C220.019 69.0798 219.82 68.5768 219.461 68.1969Z" fill="#2D2FEE"/>
<path d="M216.088 69.609C217.313 83.0583 222.675 95.5046 229.434 107.053C232.965 113.098 237.26 118.694 239.973 125.149C242.523 131.432 244.576 137.906 246.113 144.511C246.799 147.985 247.723 151.407 248.879 154.753C249.322 156.109 250.073 157.343 251.071 158.36C252.07 159.377 253.291 160.148 254.637 160.613C254.93 160.692 255.238 160.702 255.537 160.643C255.835 160.584 256.116 160.457 256.357 160.272C256.599 160.087 256.795 159.849 256.931 159.577C257.067 159.304 257.138 159.004 257.14 158.699C257.14 145.052 258.457 131.088 254.926 117.784L251.317 119.302C252.226 120.819 253.135 122.35 253.952 123.921C254.149 124.304 254.36 124.687 254.531 125.083C254.703 125.479 254.413 125.083 254.531 125.188V125.281C254.689 125.954 254.861 125.399 255.045 123.591L256.442 123.024C256.442 123.024 257.957 123.38 257.601 123.433C257.55 123.386 257.506 123.333 257.469 123.274C257.469 123.156 257.68 123.565 257.469 123.274L257.272 123.01C256.916 122.456 256.56 121.902 256.244 121.334C255.553 120.24 255.071 119.027 254.821 117.757L251.211 119.275C261.751 134.176 268.233 152.14 282.646 164.084C283.021 164.446 283.521 164.648 284.042 164.648C284.563 164.648 285.063 164.446 285.439 164.084C286.89 162.698 287.761 160.811 287.876 158.805C287.876 156.838 286.255 154.911 285.373 153.235C282.993 148.695 280.766 144.067 278.693 139.35C274.544 129.948 271.121 120.241 268.457 110.313L264.847 111.844C266.034 113.51 267.075 115.277 267.956 117.124C268.041 117.474 268.16 117.814 268.312 118.14C267.837 117.612 270.657 117.045 270.947 116.53C270.947 116.411 271.092 116.873 270.947 116.53C270.67 115.923 270.077 115.382 269.629 114.511C269.083 113.343 268.728 112.095 268.575 110.815L264.886 111.818C270.638 120.036 277.313 127.564 284.78 134.256C286.598 135.927 288.429 137.582 290.274 139.218C291.893 140.888 293.657 142.412 295.544 143.772C297.17 144.605 298.99 144.983 300.813 144.867C302.223 144.867 302.908 143.891 303.83 142.967C304.135 142.654 304.331 142.251 304.388 141.818C304.445 141.385 304.36 140.945 304.146 140.565C294.924 126.046 283.344 113.23 274.306 98.6195L271.21 101.008C272.055 101.716 272.86 102.469 273.621 103.265C273.734 103.439 273.866 103.598 274.016 103.741L274.161 103.965C273.981 103.591 273.944 103.164 274.056 102.764L275.373 101.444C275.629 101.351 275.906 101.33 276.173 101.383C276.44 101.437 276.688 101.563 276.888 101.748L276.743 101.616C276.553 101.369 276.336 101.143 276.098 100.942C275.492 100.227 274.933 99.4732 274.425 98.6855L271.329 101.074C277.178 106.354 285.122 109.205 292.619 111.237C298.626 112.874 307.045 113.877 311.669 108.598C312.467 107.805 312.927 106.734 312.951 105.608C312.976 104.483 312.563 103.392 311.801 102.566C310.165 101.042 308.192 99.9296 306.044 99.319C303.949 98.5535 301.801 97.9991 299.693 97.3524C295.823 96.0055 292.05 94.3914 288.403 92.5217C279.695 88.219 271.487 82.5436 265.624 74.6773L263.925 77.6469C268.111 78.144 272.339 78.1794 276.533 77.7525C280.893 77.2906 285.531 76.4327 289.207 73.793C292.329 71.6284 295.161 67.6952 294.832 63.7093C294.542 60.238 291.433 58.773 288.35 58.4298C285.152 58.1985 281.937 58.3447 278.772 58.8654C272.895 59.4745 266.983 59.6685 261.079 59.4461C255.809 59.3405 249.525 60.2908 245.415 56.2125C243.217 53.9166 241.216 51.4398 239.433 48.8081C237.497 46.1684 235.481 43.5286 233.373 40.8889C223.027 27.6904 212.874 14.3774 202.914 0.950069C201.412 -1.06931 197.986 0.950065 199.501 2.95625C207.924 14.3246 216.479 25.5918 225.165 36.7578C229.263 42.0372 233.399 47.3166 237.352 52.5961C240.685 57.1364 244.176 61.8351 250.052 62.8777C252.578 63.2359 255.13 63.3772 257.68 63.3001C260.987 63.3001 264.267 63.4453 267.6 63.3925C272.067 63.3925 276.48 63.0229 280.907 62.5478C283.686 62.231 287.059 61.6899 289.734 62.7194C290.484 63.0097 290.84 63.3793 290.893 63.9468C290.87 65.5807 290.294 67.1584 289.259 68.4211C286.624 71.9188 281.618 73.0934 277.534 73.7006C273.015 74.2681 268.443 74.2681 263.925 73.7006C263.577 73.703 263.237 73.7965 262.937 73.9718C262.636 74.1471 262.387 74.3981 262.214 74.6998C262.041 75.0014 261.95 75.3433 261.949 75.6913C261.949 76.0393 262.039 76.3814 262.212 76.6834C266.82 82.7675 272.532 87.926 279.049 91.8882C282.644 94.0878 286.38 96.0456 290.234 97.7484C293.133 99.1338 296.116 100.333 299.167 101.338C301.103 101.932 303.119 102.447 304.99 103.147C305.9 103.461 306.782 103.854 307.625 104.321C307.938 104.49 308.238 104.684 308.52 104.902C308.641 105.001 308.755 105.106 308.863 105.219C308.93 105.284 308.991 105.355 309.047 105.43C309.047 105.43 309.047 105.575 309.047 105.43C308.963 105.649 308.833 105.847 308.665 106.011C307.587 107.1 306.212 107.849 304.713 108.162C301.681 108.781 298.548 108.691 295.557 107.898C291.965 107.033 288.442 105.904 285.017 104.519C281.034 103.134 277.343 101.017 274.135 98.2763C272.541 96.8509 269.722 98.7119 271.026 100.678C272.027 102.183 274.464 106.512 276.902 105.06C279.958 103.252 275.4 99.4642 274.135 98.2763C272.541 96.7849 269.814 98.6987 271.026 100.678C280.063 115.302 291.617 128.145 300.853 142.637L301.169 140.235L299.852 141.554L301.248 140.974C299.961 141.117 298.659 140.892 297.493 140.327C295.949 139.143 294.484 137.86 293.106 136.486C290.129 133.846 287.164 131.207 284.292 128.395C278.351 122.805 273.004 116.613 268.338 109.917C267.363 108.466 264.386 108.782 264.662 110.907C264.898 113.146 265.56 115.319 266.612 117.309C267.245 118.431 268.193 119.948 269.537 120.292C271.619 120.819 272.607 118.76 272.172 117.031C271.291 114.469 270 112.066 268.351 109.917C268.108 109.506 267.724 109.197 267.271 109.047C266.818 108.897 266.327 108.917 265.887 109.102C265.447 109.287 265.089 109.625 264.878 110.054C264.668 110.483 264.619 110.973 264.742 111.435C267.197 120.542 270.279 129.468 273.964 138.149C275.72 142.426 277.648 146.636 279.747 150.78C280.757 152.848 281.811 154.898 282.909 156.931C283.278 157.63 284.016 158.515 284.003 159.201C283.823 160.044 283.386 160.81 282.751 161.392H285.544C271.395 149.672 265.124 132.012 254.729 117.388C254.479 116.986 254.095 116.687 253.645 116.543C253.195 116.4 252.709 116.421 252.273 116.603C251.838 116.786 251.481 117.118 251.267 117.54C251.053 117.961 250.996 118.446 251.106 118.906C251.661 121.743 253.035 124.354 255.058 126.416C255.397 126.754 255.842 126.964 256.317 127.01C256.793 127.057 257.27 126.937 257.667 126.671C258.065 126.405 258.358 126.01 258.497 125.552C258.636 125.094 258.613 124.601 258.431 124.159C257.483 121.766 256.258 119.494 254.782 117.388C254.532 116.986 254.148 116.687 253.698 116.543C253.248 116.4 252.762 116.421 252.326 116.603C251.89 116.786 251.534 117.118 251.32 117.54C251.106 117.961 251.049 118.446 251.159 118.906C254.624 131.906 253.253 145.554 253.24 158.831L255.743 156.918C253.438 156.086 252.792 154.093 251.989 151.955C251.071 148.92 250.327 145.836 249.762 142.716C248.281 136.51 246.343 130.422 243.965 124.502C242.747 121.434 241.239 118.491 239.46 115.712C237.668 112.979 235.916 110.221 234.19 107.436C230.801 101.95 227.832 96.2143 225.31 90.278C222.538 83.7305 220.761 76.8034 220.04 69.7278C219.803 67.2069 215.851 67.1805 216.088 69.7278V69.609Z" fill="#2D2FEE"/>
<path d="M54.3315 206.056L22.5151 227.332C20.4072 228.731 22.3833 232.163 24.5044 230.75L56.3209 209.527C58.4288 208.128 56.4526 204.696 54.3315 206.109V206.056Z" fill="#2D2FEE"/>
<path d="M101.918 235.977L82.9862 266.07C81.6687 268.234 85.0414 270.227 86.3984 268.076L105.33 237.983C106.648 235.819 103.275 233.826 101.918 235.977Z" fill="#2D2FEE"/>
<path d="M210.858 240.451C213.704 248.988 217.315 257.249 221.648 265.133C222.886 267.363 226.299 265.37 225.06 263.127C220.88 255.541 217.401 247.589 214.665 239.369C213.875 236.967 210.054 238.049 210.858 240.425V240.451Z" fill="#2D2FEE"/>
<path d="M255.177 212.919L286.624 227.253C288.917 228.309 290.932 224.89 288.614 223.834L257.166 209.487C254.874 208.445 252.858 211.863 255.177 212.919Z" fill="#2D2FEE"/>
<path d="M246.666 234.182L257.206 244.477C257.58 244.841 258.081 245.045 258.602 245.045C259.124 245.045 259.625 244.841 259.999 244.477C260.36 244.099 260.562 243.595 260.562 243.071C260.562 242.548 260.36 242.044 259.999 241.666L249.459 231.384C249.278 231.19 249.06 231.034 248.818 230.925C248.575 230.817 248.314 230.759 248.048 230.754C247.783 230.75 247.519 230.798 247.273 230.898C247.027 230.998 246.804 231.146 246.616 231.334C246.428 231.522 246.28 231.746 246.181 231.992C246.082 232.239 246.033 232.503 246.037 232.769C246.042 233.034 246.1 233.297 246.208 233.539C246.316 233.782 246.472 234.001 246.666 234.182Z" fill="#2D2FEE"/>
<path d="M62.0781 239.078C66.0305 236.135 69.7852 233.033 73.4213 229.734C73.7882 229.361 73.9939 228.858 73.9939 228.335C73.9939 227.811 73.7882 227.309 73.4213 226.936C73.0459 226.574 72.5455 226.373 72.0248 226.373C71.5042 226.373 71.0038 226.574 70.6283 226.936C68.8717 228.502 67.1151 230.029 65.3585 231.516C63.5009 233.047 61.9068 234.301 60.0887 235.66C59.6466 235.934 59.3271 236.368 59.197 236.872C59.0669 237.376 59.1362 237.912 59.3905 238.366C59.6584 238.796 60.0791 239.109 60.568 239.241C61.0569 239.374 61.5777 239.315 62.0254 239.078H62.0781Z" fill="#2D2FEE"/>
<path d="M153.549 240.425C152.702 245.667 152.662 251.009 153.43 256.263C153.578 256.766 153.914 257.191 154.369 257.45C154.824 257.708 155.361 257.78 155.868 257.649C156.351 257.48 156.755 257.136 156.999 256.684C157.242 256.232 157.309 255.706 157.185 255.207C156.528 250.666 156.564 246.051 157.29 241.52C157.417 241.024 157.351 240.498 157.107 240.047C156.863 239.597 156.458 239.256 155.973 239.092C155.477 238.952 154.946 239.011 154.493 239.258C154.04 239.504 153.701 239.919 153.549 240.412V240.425Z" fill="#2D2FEE"/>
</g>
<defs>
<clipPath id="clip0">
<rect width="313" height="269" fill="white"/>
</clipPath>
</defs>
</svg>
