<svg width="212" height="204" viewBox="0 0 212 204" fill="none" xmlns="http://www.w3.org/2000/svg">
<path d="M86.2157 124.492C86.4607 132.467 87.3719 140.538 90.134 148.068C91.4503 151.721 93.2772 155.17 95.5602 158.311C97.7482 161.283 100.462 163.918 103.936 165.317C107.301 166.554 110.851 167.216 114.436 167.276C118.057 167.481 121.688 167.157 125.216 166.315C128.659 165.51 131.883 163.96 134.662 161.774C137.371 159.487 139.485 156.577 140.823 153.293C142.44 149.545 143.321 145.513 144.303 141.563L147.865 127.237C148.22 125.795 145.929 125.503 145.574 126.929L142.584 138.854C141.722 142.353 140.943 145.892 139.826 149.322C138.895 152.506 137.329 155.47 135.223 158.034C132.996 160.484 130.176 162.321 127.035 163.367C120.85 165.574 113.468 165.562 107.131 163.961C99.9635 162.149 95.6435 155.423 92.9616 148.961C89.6904 141.153 88.767 132.594 88.5123 124.198C88.4668 122.715 86.1762 123.024 86.2157 124.492Z" fill="#2D2FEE"/>
<path d="M98.6606 149.478C104.722 146.938 107.577 139.967 105.038 133.905C102.499 127.844 95.5268 124.989 89.4656 127.529C83.4043 130.068 80.5491 137.04 83.0882 143.101C85.6274 149.162 92.5994 152.017 98.6606 149.478Z" fill="white" stroke="#2D2FEE" stroke-width="3" stroke-linecap="round" stroke-linejoin="round"/>
<path d="M137.01 144.71C143.072 142.171 145.927 135.199 143.388 129.138C140.848 123.077 133.876 120.222 127.815 122.761C121.754 125.3 118.899 132.272 121.438 138.333C123.977 144.394 130.949 147.249 137.01 144.71Z" fill="white" stroke="#2D2FEE" stroke-width="3" stroke-linecap="round" stroke-linejoin="round"/>
<path d="M106.247 136.494C108.283 135.267 110.55 134.474 112.906 134.164C114.055 134.007 115.217 133.97 116.374 134.055C117.527 134.044 118.662 134.337 119.667 134.903C120.858 135.756 122.279 133.909 121.056 133.061C118.794 131.505 115.46 131.534 112.83 131.851C109.979 132.213 107.238 133.182 104.792 134.693C104.553 134.883 104.398 135.159 104.361 135.461C104.324 135.764 104.408 136.069 104.594 136.311C104.787 136.547 105.064 136.698 105.367 136.735C105.67 136.771 105.975 136.689 106.219 136.506L106.247 136.494Z" fill="#2D2FEE"/>
<path d="M110.309 136.67C110.779 139.652 110.634 142.698 109.883 145.622C109.131 148.546 107.79 151.285 105.94 153.671C105.811 153.853 105.737 154.069 105.726 154.293C105.716 154.516 105.77 154.738 105.882 154.932C105.994 155.126 106.159 155.283 106.358 155.386C106.557 155.489 106.781 155.532 107.004 155.512C110.749 155.316 114.497 155.237 118.245 155.275C118.42 155.295 118.597 155.275 118.763 155.217C118.929 155.159 119.079 155.064 119.204 154.94C119.328 154.816 119.423 154.665 119.481 154.499C119.539 154.333 119.559 154.156 119.539 153.982C118.788 148.703 118.659 143.355 119.155 138.046C119.289 136.572 117.005 136.26 116.868 137.744C116.346 143.25 116.474 148.798 117.25 154.273L118.544 152.98C114.603 152.962 110.658 153.04 106.709 153.215L107.78 155.053C109.808 152.424 111.281 149.41 112.108 146.194C112.936 142.979 113.101 139.629 112.594 136.347C112.357 134.886 110.068 135.177 110.3 136.649L110.309 136.67Z" fill="#2D2FEE"/>
<path d="M83.3126 137.641C83.8626 136.672 84.6932 135.892 85.6951 135.403C86.6971 134.915 87.8235 134.742 88.9259 134.906C90.7263 135.22 92.4162 136.206 94.0759 136.921C95.7297 137.763 97.5809 138.141 99.4324 138.014C102.045 137.696 104.109 135.872 105.788 133.983C106.773 132.87 104.924 131.483 103.946 132.594C102.357 134.378 100.319 136.066 97.7839 135.693C95.9953 135.407 94.3014 134.431 92.6339 133.678C90.9364 132.794 89.0341 132.378 87.1226 132.474C85.9615 132.637 84.8506 133.053 83.8686 133.694C82.8866 134.335 82.0577 135.184 81.4407 136.181C80.6402 137.417 82.4783 138.817 83.29 137.567L83.3126 137.641Z" fill="#2D2FEE"/>
<path d="M83.8069 141.272C84.6718 140.654 85.6564 140.224 86.6974 140.009C87.7385 139.794 88.8129 139.8 89.8517 140.025C91.9903 140.389 93.7976 141.476 95.8337 142.134C99.9884 143.506 103.908 140.67 106.647 137.787C107.667 136.717 105.811 135.334 104.798 136.401C103.386 137.993 101.607 139.216 99.6151 139.965C97.5022 140.659 95.8088 139.624 93.8938 138.857C90.1445 137.357 85.7321 136.844 82.3441 139.474C82.1137 139.666 81.9675 139.941 81.9364 140.24C81.9053 140.538 81.9917 140.837 82.1774 141.073C82.3631 141.309 82.6334 141.464 82.931 141.503C83.2286 141.543 83.5301 141.466 83.7714 141.287L83.8069 141.272Z" fill="#2D2FEE"/>
<path d="M121.708 132.346C122.614 131.474 123.792 130.939 125.045 130.831C125.82 130.869 126.58 131.055 127.285 131.378C128.956 132.079 130.452 133.122 132.083 133.907C133.58 134.734 135.308 135.043 136.999 134.785C138.279 134.448 139.463 133.82 140.461 132.951C141.711 131.951 142.944 130.909 144.218 129.867C145.36 128.929 143.905 127.127 142.79 128.053C141.676 128.979 140.387 130.044 139.176 131.019C138.313 131.866 137.203 132.418 136.007 132.597C134.37 132.673 132.775 131.715 131.392 130.942C129.903 129.986 128.288 129.242 126.593 128.73C124.217 128.157 122.132 129.056 120.29 130.536C120.067 130.73 119.926 131.003 119.898 131.297C119.87 131.592 119.955 131.886 120.138 132.119C120.32 132.352 120.585 132.506 120.877 132.55C121.17 132.593 121.468 132.523 121.711 132.353L121.708 132.346Z" fill="#2D2FEE"/>
<path d="M122.24 136.721C123.495 135.136 125.881 136.172 127.242 137.029C128.993 138.122 130.594 139.254 132.654 139.768C136.99 140.797 141.371 139.045 144.79 136.428C145.967 135.534 144.544 133.711 143.362 134.615C139.861 137.291 135.07 138.923 130.94 136.673C129.13 135.679 127.573 134.253 125.503 133.794C124.593 133.544 123.63 133.558 122.728 133.836C121.826 134.113 121.022 134.642 120.409 135.36C119.486 136.523 121.331 137.919 122.251 136.749L122.24 136.721Z" fill="#2D2FEE"/>
<path d="M100.08 96.0958C94.9676 99.0718 91.2268 103.927 87.671 108.545C84.6738 112.446 81.8713 116.891 82.2458 122.008C82.2755 122.208 82.3566 122.397 82.4812 122.557C82.6058 122.716 82.7696 122.841 82.9566 122.918C83.1437 122.995 83.3475 123.022 83.5483 122.997C83.7491 122.972 83.9399 122.895 84.1021 122.774C88.0135 120.159 93.0345 121.627 97.1886 122.699C101.492 123.985 106.041 124.223 110.455 123.392C112.656 123.029 114.827 122.495 116.986 121.932C118.993 121.514 120.935 120.832 122.763 119.904C124.446 118.963 125.762 117.483 126.501 115.701C126.729 114.93 127.118 114.215 127.642 113.605C128.371 112.974 129.455 113.73 130.152 114.097C131.23 114.676 132.24 115.372 133.165 116.172C133.909 116.947 134.78 117.59 135.739 118.073C137.796 118.88 139.727 117.354 141.755 117.831C143.201 118.176 143.493 115.885 142.056 115.543C141.182 115.374 140.279 115.409 139.421 115.646C138.545 115.846 137.502 116.266 136.614 115.938C135.725 115.609 135.023 114.71 134.304 114.11C133.461 113.411 132.555 112.79 131.6 112.255C129.898 111.3 127.781 110.292 126.093 111.859C124.703 113.142 124.535 115.19 123.303 116.574C121.946 118.094 119.8 118.768 117.901 119.296C115.726 119.899 113.516 120.44 111.3 120.868C109.062 121.331 106.782 121.557 104.497 121.54C102.18 121.427 99.8838 121.051 97.6519 120.419C92.6929 119.159 87.2572 117.856 82.6599 120.925L84.5233 121.688C84.1805 117.025 87.1347 112.942 89.8497 109.444C93.2202 105.119 96.6876 100.688 101.491 97.8911C101.722 97.6961 101.867 97.4189 101.897 97.1182C101.927 96.8175 101.839 96.517 101.651 96.2805C101.454 96.0546 101.179 95.912 100.881 95.8818C100.583 95.8516 100.285 95.936 100.047 96.1178L100.08 96.0958Z" fill="#2D2FEE"/>
<path d="M89.3873 160.03C86.0462 160.938 82.6038 161.421 79.1417 161.468C77.6691 161.52 76.1947 161.485 74.7261 161.365C73.7253 161.267 71.2516 161.219 70.8576 160.099C70.7002 159.387 70.5849 158.666 70.5124 157.94C70.33 157.007 70.1477 156.074 69.9795 155.134C69.6516 153.336 69.3593 151.522 69.1296 149.699C68.6782 146.154 68.5532 142.576 68.7563 139.008C68.9346 135.597 69.3351 132.201 69.9553 128.843C70.6216 125.504 71.7733 122.28 73.3738 119.275C76.4472 113.281 80.3448 107.747 84.953 102.833C90.305 97.2035 97.08 92.6796 104.711 90.8763C106.148 90.5414 105.863 88.249 104.419 88.5869C89.68 92.0664 79.2503 104.021 72.1363 116.739C70.3016 119.9 68.9181 123.303 68.0261 126.847C67.2178 130.512 66.7131 134.237 66.517 137.985C66.2453 141.804 66.3299 145.641 66.7698 149.445C66.9985 151.385 67.3041 153.31 67.6482 155.226C67.9701 157.011 68.1709 158.904 68.6367 160.654C69.1536 162.565 70.8413 163.068 72.5921 163.402C74.4048 163.714 76.2445 163.84 78.0828 163.781C82.1876 163.799 86.2756 163.257 90.2339 162.17C91.6653 161.762 90.759 159.639 89.3418 160.04L89.3873 160.03Z" fill="#2D2FEE"/>
<path d="M125.446 91.8694C138.993 92.4944 148.426 104.655 154.348 115.643C157.702 121.848 160.219 128.471 161.831 135.338C163.317 142.059 164.043 148.926 163.998 155.809C163.996 156.302 164.064 156.783 163.584 156.992C162.93 157.186 162.243 157.247 161.564 157.171C159.783 157.141 158.003 157.136 156.222 157.106C152.206 157.085 148.196 156.785 144.222 156.209C142.753 155.989 142.448 158.27 143.92 158.496C147.707 159.049 151.528 159.344 155.355 159.38C157.164 159.415 158.976 159.398 160.788 159.44C162.093 159.469 163.552 159.584 164.769 158.983C165.985 158.381 166.301 156.964 166.274 155.624C166.247 153.966 166.241 152.299 166.186 150.654C166.06 146.882 165.666 143.124 165.005 139.408C163.692 131.908 161.343 124.627 158.027 117.773C154.823 111.18 150.771 104.733 145.61 99.4854C140.317 94.101 133.464 89.954 125.757 89.603C124.285 89.5354 123.966 91.8219 125.455 91.8907L125.446 91.8694Z" fill="#2D2FEE"/>
<path d="M107.78 99.896C110.337 97.1559 112.453 93.8997 113.104 90.1556C113.473 88.305 113.396 86.3932 112.881 84.5779C112.366 82.7626 111.427 81.0958 110.141 79.7149C108.866 78.4048 107.219 77.3423 106.223 75.7819C105.757 75.1058 105.557 74.2809 105.662 73.4663C105.768 72.6517 106.171 71.905 106.795 71.3701C108.145 70.2705 109.879 70.6454 111.097 71.6791C112.224 72.6171 113.662 73.6587 115.12 72.6974C115.932 72.1653 116.389 71.2059 117.096 70.5427C117.806 69.7992 118.735 69.3018 119.748 69.1232C121.059 68.9661 122.874 70.1916 122.22 71.6588C122.138 71.8699 122.119 72.1005 122.165 72.3222C122.212 72.5439 122.323 72.747 122.484 72.9066C122.645 73.0662 122.849 73.1753 123.071 73.2205C123.293 73.2657 123.523 73.2449 123.734 73.1608C124.641 72.7884 125.651 72.749 126.585 73.0496C127.519 73.3502 128.316 73.9714 128.836 74.8033C129.966 76.5832 129.055 78.5919 127.882 80.0761C126.536 81.7831 124.822 83.1688 123.483 84.8729C122.009 86.7684 121.108 89.0454 120.884 91.4359C120.631 94.1985 121.265 96.9698 122.696 99.3468C122.891 99.5775 123.168 99.7233 123.469 99.7531C123.769 99.7829 124.07 99.6944 124.306 99.5065C124.532 99.3099 124.675 99.0348 124.705 98.7369C124.735 98.439 124.651 98.1408 124.469 97.9029C123.2 95.6526 122.799 93.0157 123.341 90.4899C123.848 87.9745 125.334 86.0836 127.082 84.3C128.657 82.6807 130.447 81.0379 131.228 78.8583C131.645 77.7942 131.746 76.6322 131.518 75.5121C131.29 74.3921 130.743 73.3618 129.943 72.5455C129.053 71.5974 127.893 70.9441 126.621 70.6732C125.349 70.4024 124.024 70.5269 122.824 71.0301L124.338 72.5321C124.646 71.7754 124.708 70.9413 124.516 70.1474C124.324 69.3535 123.888 68.6398 123.269 68.1069C122.631 67.5033 121.84 67.0869 120.981 66.9034C120.123 66.7199 119.231 66.7764 118.402 67.0667C117.477 67.3793 116.622 67.8706 115.887 68.5125C115.495 68.8575 115.126 69.2268 114.781 69.6182C114.635 69.7878 114.056 70.7564 113.831 70.7757C113.382 70.8388 112.588 69.9197 112.276 69.6746C111.494 69.0313 110.554 68.6097 109.554 68.4537C108.625 68.3317 107.681 68.4477 106.81 68.791C105.939 69.1343 105.17 69.6936 104.575 70.4162C103.979 71.1388 103.578 72.001 103.407 72.9216C103.237 73.8422 103.304 74.7909 103.601 75.6786C104.246 77.6364 105.918 78.9972 107.399 80.3211C109.029 81.6376 110.195 83.4423 110.724 85.4701C111.852 90.4132 109.207 95.0344 105.917 98.5154C104.899 99.5925 106.746 100.972 107.766 99.902L107.78 99.896Z" fill="#2D2FEE"/>
<path d="M106.144 81.272C104.58 79.0834 102.495 77.3184 100.079 76.136C97.4805 74.9744 94.6583 74.399 91.8125 74.4505C89.0025 74.376 86.0465 74.4711 83.4068 73.349C81.2334 72.4237 79.1166 70.1396 79.6618 67.6165C80.2568 64.8138 83.7532 63.758 86.0856 63.0312C86.7341 62.8262 86.8606 62.0723 86.7044 61.5203C85.6128 57.58 87.0168 52.7445 90.9654 51.0152C91.8452 50.6073 92.8009 50.3886 93.7705 50.3734C94.7402 50.3582 95.7023 50.5467 96.5945 50.9268C98.7674 51.9107 100.07 54.2023 101.188 56.1953C101.284 56.3975 101.435 56.5683 101.625 56.6875C101.814 56.8068 102.033 56.8696 102.257 56.8687C102.481 56.8678 102.7 56.8031 102.888 56.6823C103.077 56.5614 103.227 56.3894 103.321 56.1864C103.917 54.811 104.9 53.6376 106.149 52.8081C107.397 51.9785 108.86 51.5283 110.359 51.5117C111.858 51.495 113.33 51.9128 114.598 52.7144C115.865 53.5161 116.872 54.6674 117.499 56.0293C118.134 57.3655 120.267 56.4804 119.629 55.1372C118.817 53.3633 117.508 51.8631 115.86 50.8184C114.213 49.7738 112.297 49.2296 110.346 49.2519C108.396 49.2742 106.493 49.8619 104.87 50.9439C103.246 52.0258 101.972 53.5555 101.2 55.3475L103.333 55.3386C101.887 52.7649 100.297 50.0849 97.4809 48.8198C96.3081 48.3266 95.046 48.081 93.7739 48.0985C92.5018 48.1159 91.2469 48.396 90.0881 48.9211C84.8848 51.2011 83.1624 57.2882 84.5896 62.4479L85.2084 60.9371C82.725 61.702 79.8171 62.7283 78.2911 65.0615C77.5796 66.2193 77.245 67.5692 77.3332 68.9252C77.4215 70.2812 77.9284 71.5764 78.7839 72.6321C82.8322 78.1124 90.4176 75.9611 96.1207 77.185C99.4451 77.9385 102.37 79.9015 104.328 82.6923C105.185 83.9019 107.001 82.4817 106.141 81.2649L106.144 81.272Z" fill="#2D2FEE"/>
<path d="M125.674 53.8898C129.353 53.7672 132.853 51.3248 136.579 52.0334C140.128 52.7162 140.472 56.903 138.891 59.543C138.762 59.7262 138.688 59.9425 138.678 60.1662C138.669 60.39 138.724 60.6119 138.836 60.8055C138.949 60.999 139.115 61.1561 139.314 61.2582C139.514 61.3602 139.738 61.4028 139.961 61.381C141.379 61.2933 142.792 61.6128 144.035 62.3017C145.277 62.9907 146.296 64.0204 146.973 65.2695C147.672 66.7204 145.973 68.2417 145.054 69.2358C143.879 70.49 142.546 71.5868 141.089 72.499C139.838 73.2983 141.273 75.1089 142.516 74.3126C144.365 73.1313 146.027 71.6813 147.448 70.0102C148.827 68.3812 150.129 66.5505 149.102 64.3774C148.22 62.67 146.856 61.2591 145.179 60.3195C143.502 59.3799 141.587 58.953 139.67 59.0916L140.74 60.9296C142.832 57.458 142.757 52.2991 138.7 50.3023C134.305 48.1381 129.823 51.4426 125.415 51.5784C123.932 51.6239 124.241 53.9145 125.71 53.8749L125.674 53.8898Z" fill="#2D2FEE"/>
<path d="M130.834 85.0895C140.759 82.4672 152.135 80.5802 159.566 72.8611C162.796 69.6635 164.719 65.3771 164.96 60.8383C165.064 58.621 164.68 56.408 163.834 54.3555C162.989 52.3031 161.703 50.4615 160.068 48.9609C158.334 47.4408 156.237 46.3932 153.981 45.9193C151.724 45.4454 149.384 45.5611 147.185 46.2553C145.777 46.7198 146.676 48.8465 148.077 48.3849C149.794 47.8686 151.611 47.7779 153.372 48.1206C155.132 48.4634 156.782 49.2293 158.18 50.3522C159.68 51.6067 160.869 53.1919 161.653 54.9833C162.436 56.7746 162.794 58.7234 162.697 60.6763C162.402 69.5532 154.427 75.2558 146.86 78.1086C141.579 80.1039 136.018 81.3491 130.571 82.7882C130.272 82.8391 130.003 83.0006 129.817 83.2406C129.632 83.4806 129.544 83.7816 129.57 84.0837C129.608 84.3818 129.761 84.6534 129.995 84.8415C130.229 85.0295 130.527 85.1195 130.827 85.0925L130.834 85.0895Z" fill="#2D2FEE"/>
<path d="M76.5276 61.8869C75.7483 60.1578 75.4308 58.2561 75.606 56.3675C75.7812 54.479 76.4432 52.6682 77.5273 51.1118C78.6114 49.5555 80.0806 48.307 81.7913 47.488C83.5021 46.6691 85.396 46.3078 87.2881 46.4394C87.4625 46.4577 87.6388 46.4368 87.804 46.3783C87.9693 46.3198 88.1193 46.2252 88.2434 46.1012C88.3674 45.9773 88.4621 45.8273 88.5208 45.6621C88.5794 45.4969 88.6004 45.3206 88.5823 45.1463C88.1157 40.1682 93.0978 37.1214 96.7643 34.9178C98.9317 33.6177 101.132 32.437 103.737 32.5392C105.798 32.6187 107.816 33.1334 109.842 33.1691C110.857 33.2231 111.872 33.0694 112.825 32.7175C113.778 32.3655 114.649 31.8228 115.385 31.1224C116.106 30.2663 116.883 29.4587 117.71 28.7048C118.157 28.3869 118.663 28.1622 119.199 28.044C119.734 27.9258 120.288 27.9165 120.827 28.0167C125.645 28.7018 127.69 34.5205 132.669 34.6127C134.044 34.629 135.38 34.3115 136.755 34.2863C137.975 34.2462 139.193 34.413 140.358 34.7796C141.577 35.1243 142.678 35.7967 143.542 36.7238C144.405 37.6508 144.998 38.797 145.256 40.0375C145.502 41.5029 147.792 41.2113 147.552 39.7429C146.667 34.4229 141.438 31.8405 136.46 31.9898C135.195 32.0361 133.928 32.3582 132.658 32.3145C131.401 32.2043 130.217 31.6741 129.298 30.8095C127.27 29.1557 125.481 27.1351 122.96 26.1968C121.843 25.7211 120.62 25.5528 119.416 25.7093C118.212 25.8658 117.073 26.3414 116.115 27.0868C115.174 27.8897 114.489 28.9443 113.553 29.737C112.746 30.4152 111.74 30.8106 110.687 30.8627C108.373 31.056 106.054 30.3004 103.765 30.2746C100.996 30.1994 98.6352 31.1968 96.2761 32.5773C91.5262 35.4016 85.6703 39.1315 86.2976 45.4692L87.5947 44.1832C85.3027 43.9998 83.0024 44.4147 80.919 45.3874C78.8356 46.3601 77.0405 47.8572 75.7095 49.7321C74.3785 51.6069 73.5572 53.7953 73.326 56.0829C73.0949 58.3705 73.4618 60.6789 74.3909 62.7821C74.5092 63.0645 74.7349 63.2883 75.0182 63.4043C75.3016 63.5203 75.6194 63.5191 75.9018 63.4008C76.1842 63.2825 76.408 63.0568 76.5241 62.7735C76.6401 62.4901 76.6388 62.1723 76.5205 61.8899L76.5276 61.8869Z" fill="#2D2FEE"/>
<path d="M155.345 40.8757C157.983 40.6544 160.518 39.7534 162.703 38.2607C164.489 37.0453 167.185 34.7975 166.265 32.321C165.274 29.657 162.002 29.9345 159.859 30.774C157.671 31.6369 155.822 33.1874 154.591 35.1919C153.902 36.3151 153.196 37.7374 153.377 39.1052C153.412 39.4743 153.532 39.8303 153.727 40.1456C153.922 40.4608 154.187 40.7268 154.502 40.9228C154.816 41.1188 155.172 41.2396 155.541 41.2756C155.91 41.3117 156.282 41.2621 156.629 41.1308C157.999 40.5568 157.114 38.4242 155.737 39.0012C155.737 39.0012 155.888 39.1045 155.823 39.0484C155.786 39.0262 155.753 38.9967 155.727 38.9619C155.701 38.927 155.682 38.8872 155.671 38.845C155.552 38.5611 155.748 38.1119 155.845 37.8459C156.123 37.0748 156.514 36.3489 157.004 35.6916C157.945 34.4501 159.206 33.4867 160.651 32.9038C161.336 32.5901 162.079 32.4237 162.833 32.4153C163.325 32.4344 164.086 32.6579 164.122 33.2606C164.157 33.8632 163.488 34.5358 163.085 34.9297C162.423 35.5852 161.695 36.17 160.912 36.6745C159.139 37.7816 157.122 38.4376 155.037 38.5852C153.549 38.6993 153.851 40.9929 155.328 40.8746L155.345 40.8757Z" fill="#2D2FEE"/>
<path d="M81.7236 39.3913C80.4304 39.0473 79.2039 38.4894 78.0948 37.7406C77.5198 37.3452 76.9761 36.9063 76.4683 36.4277C76.4951 36.4916 76.3099 36.2687 76.2749 36.225L75.9593 35.8899L75.5826 35.4886C75.5826 35.4886 75.389 35.1859 75.4277 35.2782C75.4663 35.3704 75.3486 35.4281 75.4277 35.2782C75.5067 35.1282 75.5438 35.0376 75.4884 35.1443C75.4329 35.2509 75.5415 35.0719 75.5415 35.0719L75.6845 34.8952C75.5651 35.0287 75.6845 34.8952 75.6845 34.8952L75.8523 34.7581C75.8878 34.7433 76.0653 34.6689 75.8523 34.7581L76.115 34.6481L76.477 34.4964C76.2925 34.5738 76.477 34.4964 76.477 34.4964L76.6966 34.4629C76.7676 34.4331 76.8493 34.4489 76.9292 34.4405C77.0091 34.4321 77.1435 34.4342 76.9718 34.4227C77.1268 34.4302 77.2812 34.4463 77.4343 34.4709C77.4343 34.4709 77.8721 34.5796 77.7068 34.5237C77.854 34.5702 77.9977 34.6271 78.1369 34.6939C78.2485 34.7358 78.3538 34.7927 78.4498 34.8632C78.5915 34.9624 78.7332 35.0616 78.8708 35.1709C79.3579 35.5955 79.7675 36.1015 80.0814 36.6664C80.0576 36.6096 80.0249 36.5315 80.1141 36.7445C80.2034 36.9574 80.2004 36.9503 80.242 37.0497C80.2836 37.1491 80.3788 37.3762 80.4472 37.5395C80.5156 37.7028 80.5543 37.7951 80.6078 37.9228C80.5245 37.7241 80.6078 37.9228 80.6078 37.9228C80.6078 37.9228 80.6851 38.1074 80.6628 38.2336C80.6406 38.3597 80.6885 38.6734 80.6905 38.4389C80.69 38.5056 80.6844 38.5721 80.6737 38.6379C80.6737 38.6379 80.6268 38.9245 80.6645 38.7753C80.7021 38.626 80.6645 38.7753 80.6315 38.8558C80.5985 38.9364 80.5399 38.9359 80.6315 38.8558C80.4682 38.9242 80.6315 38.8558 80.6315 38.8558C80.5604 38.9234 80.4811 38.9818 80.3956 39.0298C80.1648 39.2248 80.0191 39.502 79.9892 39.8027C79.9594 40.1034 80.0479 40.4039 80.2359 40.6404C80.429 40.8742 80.7045 41.0251 81.0056 41.062C81.3067 41.0989 81.6104 41.0189 81.8543 40.8386C83.3823 39.8647 83.1301 37.709 82.4584 36.3048C81.6855 34.6592 80.4427 33.027 78.6701 32.4011C77.8102 32.068 76.8692 32.0046 75.9723 32.2193C75.0755 32.4341 74.2653 32.9167 73.6495 33.6032C73.2824 34.0285 73.0697 34.5653 73.0459 35.1266C73.022 35.6878 73.1884 36.2407 73.5181 36.6956C74.0694 37.4379 74.7117 38.108 75.43 38.6901C76.9662 39.9926 78.7665 40.9465 80.7069 41.4861C80.991 41.5918 81.3045 41.5855 81.5841 41.4684C81.8636 41.3513 82.088 41.1322 82.2119 40.8557C82.3255 40.5709 82.3228 40.2529 82.2043 39.9701C82.0859 39.6874 81.8611 39.4624 81.5785 39.3436L81.7236 39.3913Z" fill="#2D2FEE"/>
<path d="M57.458 51.4844C57.9888 53.8071 59.9173 55.1438 61.8744 56.3098C62.7948 56.9348 63.8407 57.351 64.9389 57.5294C65.4675 57.5905 66.0031 57.5443 66.5135 57.3936C67.0239 57.2428 67.4986 56.9907 67.9093 56.6522C69.6669 55.0314 68.9022 52.3894 67.7024 50.6807C67.1151 49.8189 66.3425 49.0992 65.4412 48.5744C64.5399 48.0497 63.5326 47.733 62.4931 47.6478C61.8718 47.5999 61.2471 47.6783 60.6569 47.8783C60.0666 48.0782 59.5229 48.3956 59.0585 48.8112C58.6096 49.2238 58.2651 49.7371 58.0534 50.3089C57.8417 50.8807 57.769 51.4945 57.8411 52.1C57.8801 52.4045 58.0386 52.6811 58.2815 52.8688C58.5245 53.0565 58.8321 53.14 59.1366 53.101C59.4411 53.0619 59.7177 52.9035 59.9054 52.6605C60.0932 52.4176 60.1767 52.11 60.1377 51.8054C60.1232 51.7295 60.1133 51.6529 60.1082 51.5758C60.1198 51.7628 60.0903 51.5332 60.1252 51.4769C60.16 51.4206 60.1596 51.2205 60.1344 51.3395C60.1092 51.4585 60.1727 51.2317 60.1809 51.2115C60.2679 50.9657 60.4078 50.7419 60.5905 50.5559C60.7681 50.3837 60.9776 50.2477 61.2073 50.1557C61.5292 50.0322 61.8716 49.9708 62.2164 49.975C62.8543 50.006 63.4789 50.1691 64.0506 50.4538C64.6224 50.7385 65.1288 51.1388 65.538 51.6292C65.992 52.1445 66.3312 52.7505 66.533 53.4069C66.533 53.4069 66.6222 53.6199 66.5598 53.4708L66.6124 53.7158C66.6433 53.8788 66.6622 54.0438 66.669 54.2095C66.6681 54.068 66.6868 54.2521 66.6928 54.2663C66.6869 54.3467 66.6758 54.4266 66.6594 54.5055C66.6929 54.3663 66.624 54.5204 66.6377 54.5731C66.5712 54.7928 66.6377 54.5731 66.5575 54.7402C66.4773 54.9073 66.4736 54.8587 66.5149 54.758C66.4595 54.814 66.4007 54.8665 66.3388 54.9152C66.1922 55.0434 66.2323 54.9598 66.2962 54.9331C66.2087 54.9824 66.1158 55.0213 66.0193 55.0491C66.0193 55.0491 65.7709 55.1531 65.8844 55.1056C65.998 55.058 65.7709 55.1532 65.7496 55.1621L65.5057 55.1975L65.3257 55.2061C65.3896 55.1794 65.3896 55.1794 65.3257 55.2061C64.6452 55.1131 63.9928 54.874 63.4133 54.5053C62.6089 54.0717 61.8416 53.5726 61.1192 53.0131C60.4909 52.5652 60.0224 51.9282 59.7819 51.1951C59.7363 50.8992 59.5819 50.6309 59.3488 50.443C59.1156 50.255 58.8207 50.161 58.5218 50.1793C58.2227 50.2179 57.9501 50.3705 57.7608 50.6053C57.5715 50.84 57.4802 51.1388 57.5059 51.4393L57.458 51.4844Z" fill="#2D2FEE"/>
<path d="M54.8034 68.3928C55.416 69.5478 56.4017 70.4613 57.5999 70.9846C58.1547 71.2342 58.7505 71.3805 59.3579 71.4164C59.8896 71.465 60.4227 71.3384 60.8758 71.0558C61.1877 70.8476 61.4235 70.5439 61.5479 70.1902C61.9896 68.9537 61.2038 67.6557 60.3508 66.7948C59.9006 66.3006 59.3472 65.9114 58.73 65.6547C58.0677 65.3966 57.3366 65.3757 56.6606 65.5954C55.3282 66.0201 54.3213 67.6602 54.9834 69.0016C55.1017 69.284 55.3273 69.5079 55.6107 69.6239C55.894 69.7399 56.2119 69.7386 56.4943 69.6203C56.7767 69.502 57.0005 69.2764 57.1166 68.993C57.2326 68.7097 57.2314 68.3918 57.1131 68.1094L57.0566 67.9746C57.0149 67.8752 57.08 67.8312 57.119 68.1236C57.1188 68.078 57.1137 68.0326 57.1039 67.9881C57.0682 67.9029 57.1605 67.8643 57.1066 68.1539L57.1176 68.0408C57.1246 67.9377 57.205 67.8707 57.0782 68.1657L57.1165 68.0579C57.1577 67.9572 57.2659 67.8368 57.0455 68.0877L57.1896 67.8938L57.2499 67.8185C57.078 68.0657 57.0838 67.9798 57.1612 67.9057L57.3646 67.7537C57.4569 67.7151 57.5633 67.6705 57.2368 67.8073L57.3788 67.7478C57.4569 67.7151 57.5349 67.6824 57.613 67.6496C57.251 67.8013 57.4781 67.7062 57.613 67.6496C57.7479 67.5931 57.8344 67.6403 57.613 67.6496C57.3916 67.659 57.613 67.6496 57.613 67.6496L57.7291 67.6678C58.0258 67.7187 57.5549 67.5906 57.7291 67.6678C57.8139 67.6947 57.897 67.7267 57.9779 67.7638L58.1119 67.8245C58.279 67.9047 58.0224 67.7702 58.0153 67.7732C58.2192 67.8714 58.4031 68.0065 58.5577 68.1718C58.5577 68.1718 58.7392 68.3461 58.5577 68.1718C58.3762 67.9975 58.5577 68.1718 58.5577 68.1718C58.5577 68.1718 58.699 68.3296 58.766 68.41C58.9045 68.5709 59.0338 68.7397 59.153 68.9154L59.2036 69.0361C59.0058 68.7434 59.1143 68.8231 59.1471 68.9012C59.1798 68.9793 59.2184 69.0716 59.2541 69.1568C59.2898 69.2419 59.2957 69.2561 59.3166 69.3058C59.3374 69.3555 59.3003 69.4462 59.2571 69.1639C59.2779 69.2135 59.2987 69.2632 59.3166 69.3058C59.3344 69.3484 59.2714 69.5167 59.3235 69.2028C59.3241 69.2338 59.3232 69.2648 59.3207 69.2957C59.2961 69.4562 59.2213 69.3374 59.3519 69.1909C59.337 69.22 59.3246 69.2503 59.3148 69.2816L59.4132 69.0984L59.3601 69.1708C59.3601 69.1708 59.5882 68.9584 59.454 69.0563L59.6102 68.9909C59.4895 69.0414 59.525 69.0266 59.6954 68.9552L59.5676 69.0087C59.3338 69.0482 59.7938 69.0308 59.5676 69.0087C59.3554 68.9891 59.1444 68.9577 58.9357 68.9146C58.9357 68.9146 58.6946 68.8571 58.9357 68.9146C59.1768 68.9722 58.9357 68.9146 58.9357 68.9146L58.582 68.7874L58.2709 68.6424C58.2167 68.6506 58.1629 68.662 58.1099 68.6765C58.3789 68.7807 58.2427 68.7543 58.1099 68.6765C57.8939 68.5456 57.6893 68.3969 57.4981 68.2318L57.4139 68.1503C57.2413 67.9973 57.5841 68.3376 57.4139 68.1503C57.2436 67.963 57.2466 67.97 57.1635 67.8713L56.9356 67.5663C56.9225 67.5273 56.9066 67.4894 56.888 67.4527C56.8107 67.2681 57.0454 67.7289 56.888 67.4527C56.7623 67.1772 56.5422 66.9557 56.2675 66.8281C56.0529 66.7488 55.8196 66.7345 55.5969 66.7871C55.3742 66.8398 55.172 66.957 55.0157 67.1241C54.8593 67.2912 54.7557 67.5007 54.718 67.7264C54.6802 67.9521 54.7099 68.1839 54.8034 68.3928Z" fill="#2D2FEE"/>
<path d="M82.4463 81.9122C81.1451 82.4361 79.9621 83.2155 78.9671 84.2042C78.4018 84.6949 77.9405 85.2939 77.6106 85.9658C77.5107 86.1779 77.4547 86.4081 77.4461 86.6424C77.4374 86.8767 77.4762 87.1103 77.5601 87.3293C77.644 87.5482 77.7713 87.7479 77.9344 87.9164C78.0975 88.0849 78.293 88.2187 78.5091 88.3097C79.271 88.4901 80.0717 88.4076 80.7808 88.0756C81.447 87.8633 82.0932 87.5926 82.7117 87.2667C83.3921 86.9239 84.043 86.5257 84.6579 86.0759C85.2887 85.67 85.7463 85.0441 85.9416 84.3198C86.0151 83.9144 85.9645 83.4962 85.7964 83.1199C85.6284 82.7437 85.3507 82.4269 84.9998 82.211C84.6319 81.9612 84.1954 81.8323 83.7508 81.842C83.3062 81.8518 82.8757 81.9998 82.5192 82.2656C82.395 82.3575 82.2906 82.4733 82.212 82.6064C82.1334 82.7394 82.0823 82.8868 82.0618 83.0399C82.0412 83.193 82.0516 83.3487 82.0923 83.4977C82.133 83.6468 82.2032 83.7861 82.2988 83.9075C82.3943 84.0289 82.5132 84.1299 82.6485 84.2045C82.7838 84.2791 82.9327 84.3258 83.0863 84.3418C83.24 84.3578 83.3953 84.3428 83.5431 84.2977C83.6908 84.2526 83.828 84.1783 83.9465 84.0792C83.7833 84.1476 83.762 84.1565 83.8827 84.1059C83.7194 84.1743 83.691 84.1862 83.8046 84.1386C83.6329 84.1271 83.6187 84.1331 83.7478 84.1624L83.6903 84.1448C83.8104 84.2057 83.8045 84.1915 83.6725 84.1022C83.7182 84.1331 83.7609 84.1683 83.8 84.2073C83.6837 84.0891 83.6606 84.0738 83.7791 84.1576L83.7197 84.0157C83.7702 84.1363 83.7613 84.115 83.6899 83.9447C83.702 84.0731 83.7286 84.037 83.6691 83.895C83.6096 83.753 83.7056 83.7629 83.6691 83.895C83.7387 83.7824 83.7387 83.7824 83.6691 83.895C83.5995 84.0076 83.5864 83.9964 83.6691 83.895L83.5184 84.0332L83.2784 84.2172C83.0129 84.4202 82.7244 84.6078 82.44 84.7854C82.2383 84.911 82.0302 85.026 81.8166 85.13C81.2327 85.433 80.6249 85.6876 79.9993 85.8913L79.5947 86.0608L79.5237 86.0906L79.3604 86.159C79.2983 86.1722 79.2355 86.1818 79.1722 86.1877C79.3167 86.194 79.3309 86.188 79.1722 86.1877C79.2855 86.1981 79.3938 86.2393 79.4853 86.3069C79.5769 86.3745 79.6482 86.4658 79.6916 86.571C79.713 86.9208 79.7273 87.0149 79.7448 86.8574C79.7623 86.6999 79.724 86.8077 79.7626 86.9C79.8192 86.7762 79.8192 86.7762 79.7626 86.9C79.8453 86.7767 79.935 86.6583 80.0313 86.5454L80.3385 86.1831L80.4986 86.0076C80.4496 86.0698 80.4496 86.0698 80.4986 86.0076C80.9256 85.5862 81.3935 85.2084 81.8955 84.88C82.0161 84.8294 82.1231 84.7262 82.2449 84.6585L82.5076 84.5485C82.8058 84.4236 83.0968 84.3016 83.3878 84.1797C83.6703 84.0614 83.8941 83.8357 84.0101 83.5524C84.1262 83.269 84.1249 82.9512 84.0066 82.6688C83.8836 82.3904 83.6575 82.1705 83.3758 82.0551C83.0941 81.9398 82.7787 81.938 82.4957 82.0501L82.4463 81.9122Z" fill="#2D2FEE"/>
<path d="M151.676 87.7318C152.446 88.6252 153.435 89.3036 154.545 89.7007C155.09 89.9004 155.66 90.0268 156.238 90.0763C156.616 90.1486 157.004 90.1432 157.38 90.0605C157.756 89.9777 158.111 89.8193 158.423 89.5949C159.583 88.5584 158.87 86.6788 157.954 85.7274C157.053 84.8382 155.898 84.2519 154.648 84.0501C153.798 83.8321 152.897 83.9443 152.126 84.364C151.911 84.5045 151.728 84.6878 151.587 84.9025C151.447 85.1172 151.352 85.3586 151.309 85.6116C151.266 85.8646 151.276 86.1238 151.338 86.3728C151.4 86.6218 151.513 86.8553 151.669 87.0587C151.862 87.289 152.137 87.4353 152.435 87.4664C152.734 87.4975 153.033 87.411 153.269 87.2253C153.505 87.0396 153.659 86.7693 153.699 86.4717C153.739 86.1741 153.662 85.8727 153.483 85.6313C153.362 85.4818 153.519 85.7165 153.528 85.7378C153.575 85.8436 153.593 85.9607 153.577 86.0758C153.586 85.997 153.63 85.9034 153.547 86.1634C153.566 86.0888 153.645 85.9975 153.494 86.2358C153.54 86.1664 153.638 86.1005 153.416 86.2685C153.416 86.2685 153.536 86.1765 153.416 86.2685C153.296 86.3605 153.579 86.2001 153.416 86.2685C153.253 86.3369 153.466 86.2476 153.516 86.2268C153.574 86.2143 153.633 86.2091 153.692 86.2111C153.692 86.2111 153.445 86.198 153.692 86.2111L154.015 86.243C154.217 86.2643 154.417 86.2973 154.615 86.3419C154.615 86.3419 154.748 86.3612 154.764 86.3795C154.78 86.3979 154.497 86.2995 154.707 86.3619L154.997 86.4572C155.19 86.5265 155.38 86.606 155.564 86.6953C155.564 86.6953 155.66 86.7638 155.694 86.7661C155.728 86.7684 155.469 86.6268 155.673 86.7164C155.878 86.806 155.822 86.8126 155.891 86.8587C155.976 86.915 156.057 86.9757 156.134 87.0406L156.249 87.1345L156.273 87.1912C156.302 87.2622 156.291 87.2338 156.189 87.1097C156.243 87.1891 156.309 87.2598 156.385 87.3195C156.418 87.3976 156.49 87.4507 156.537 87.5229C156.584 87.595 156.573 87.6081 156.59 87.6506C156.608 87.6932 156.495 87.4235 156.555 87.5655C156.614 87.7074 156.638 87.7642 156.68 87.8636C156.721 87.963 156.715 87.9488 156.736 87.9985C156.757 88.0482 156.715 88.1075 156.7 87.9133C156.73 87.9843 156.73 88.0843 156.739 88.1643C156.747 88.2442 156.807 88.3275 156.739 88.1643L156.709 88.0933C156.692 88.1922 156.699 88.1892 156.709 88.0933C156.731 88.0197 156.763 87.9498 156.806 87.8859C156.927 87.7767 156.949 87.7506 156.88 87.8046C156.811 87.8586 156.838 87.8225 156.994 87.757C156.809 87.8344 157.069 87.6586 157.058 87.7303C157.046 87.8019 156.884 87.7531 156.909 87.7927L156.791 87.7918L156.855 87.765L156.745 87.7611L156.598 87.7477L156.261 87.7217L155.716 87.6162C155.438 87.5493 155.872 87.668 155.716 87.6162L155.366 87.4961C155.157 87.4215 154.953 87.3341 154.755 87.2344L154.659 87.1831C154.532 87.1194 154.868 87.3041 154.659 87.1831C154.45 87.0622 154.47 87.0704 154.377 87.009C154.193 86.8853 154.016 86.7502 153.849 86.6045L153.739 86.5005C153.56 86.3333 153.739 86.5005 153.754 86.536C153.768 86.5715 153.518 86.2926 153.499 86.2671C153.407 86.143 153.291 86.0385 153.158 85.9599C153.025 85.8813 152.878 85.8303 152.725 85.8097C152.572 85.7892 152.416 85.7996 152.267 85.8403C152.118 85.881 151.978 85.9512 151.857 86.0467C151.736 86.1423 151.635 86.2612 151.56 86.3965C151.485 86.5318 151.439 86.6806 151.423 86.8343C151.407 86.988 151.422 87.1433 151.467 87.291C151.512 87.4388 151.586 87.576 151.685 87.6945L151.676 87.7318Z" fill="#2D2FEE"/>
<path d="M41.2439 131.5C38.9305 122.372 31.3832 115.929 25.5938 108.942C22.5614 105.289 19.6843 101.516 16.9625 97.6213C16.7108 97.2595 16.4277 96.9025 16.2056 96.5116C16.1431 96.3625 15.9082 95.8017 15.9082 95.8017C16.2106 95.408 18.0863 97.0171 18.311 97.215C19.7719 98.6303 21.0677 100.207 22.1737 101.914C24.5477 105.25 27.3179 108.695 31.5869 109.444C31.8808 109.467 32.1727 109.379 32.4055 109.198C32.6383 109.017 32.7954 108.756 32.8461 108.466C33.4064 105.819 31.623 103.554 30.1089 101.593C28.1414 98.9685 26.2231 96.3147 24.3538 93.6321L23.0713 91.7661C22.6711 91.2589 22.3012 90.7284 21.9636 90.1775C22.203 89.6933 24.6588 91.5517 24.9257 91.7904C26.7326 93.4583 28.2627 95.403 29.4588 97.5516C30.7135 99.7475 32.084 101.875 33.5644 103.926C34.2573 104.982 35.1954 105.854 36.2986 106.469C37.6419 107.066 38.8604 106.488 39.9964 105.754C40.9774 105.051 42.0945 104.56 43.2761 104.313C44.4577 104.066 45.6779 104.068 46.8585 104.319C48.0392 104.571 49.1543 105.066 50.1326 105.773C51.1109 106.481 51.9308 107.384 52.5399 108.426C55.6913 113.957 51.6527 119.396 47.8942 123.332C46.8738 124.402 48.72 125.781 49.7363 124.721C53.4907 120.795 57.1535 115.714 55.6298 109.986C55.2026 108.343 54.3986 106.822 53.2816 105.544C52.1646 104.266 50.7652 103.266 49.1944 102.623C47.6237 101.98 45.9246 101.711 44.232 101.839C42.5394 101.966 40.8997 102.486 39.4429 103.357C38.9107 103.68 38.2165 104.413 37.5623 104.446C36.9082 104.478 36.3489 103.66 35.9786 103.215C34.2887 101.016 32.7597 98.6972 31.4036 96.2779C30.0421 93.8756 28.2914 91.7159 26.2228 89.8868C25.2115 88.9395 23.9711 88.2714 22.6236 87.9484C22.3153 87.8757 21.9956 87.8656 21.6834 87.9186C21.3712 87.9715 21.0727 88.0865 20.8056 88.2567C20.5386 88.4269 20.3083 88.6489 20.1285 88.9096C19.9487 89.1703 19.8229 89.4643 19.7586 89.7744C19.545 91.4159 21.1444 93.0824 22.0277 94.3145C23.1724 95.9712 24.3312 97.6219 25.5155 99.2536C26.6997 100.885 27.8144 102.371 28.9731 103.922C29.9157 105.196 30.9171 106.57 30.5774 108.189L31.8721 107.196C27.8211 106.49 25.446 102.554 23.2264 99.4866C21.99 97.6326 20.4578 95.994 18.6909 94.6359C17.2882 93.6381 14.7384 92.7704 13.7922 94.8941C12.9776 96.754 14.9056 98.7668 15.8827 100.143C17.3455 102.201 18.8539 104.228 20.4081 106.225C23.5116 110.207 26.8331 113.972 30.1777 117.753C33.8397 121.893 37.5498 126.347 38.9379 131.832C39.3012 133.256 41.5966 132.979 41.2345 131.537L41.2439 131.5Z" fill="#2D2FEE"/>
<path d="M38.2338 117.482C37.7589 115.611 37.248 112.838 38.376 111.089C39.5962 109.201 41.4491 110.636 41.7507 112.312C41.8752 113.404 41.858 114.508 41.6995 115.596C41.5967 116.799 41.6009 118.01 41.7124 119.212C41.9468 121.525 42.6064 123.775 43.6581 125.849C44.3184 127.166 46.454 126.288 45.7877 124.957C44.4351 122.354 43.7905 119.441 43.9185 116.511C44.0634 113.988 44.562 111.234 42.6576 109.178C42.2593 108.73 41.7616 108.38 41.2043 108.158C40.6469 107.936 40.0454 107.848 39.4477 107.899C38.85 107.951 38.2727 108.142 37.7618 108.457C37.251 108.771 36.8207 109.201 36.5055 109.711C34.9439 111.959 35.2753 115.3 35.9189 117.792C35.9643 118.087 36.1186 118.355 36.3513 118.541C36.584 118.728 36.8782 118.821 37.1759 118.801C37.4791 118.759 37.7537 118.6 37.9408 118.358C38.128 118.116 38.2127 117.81 38.1769 117.506L38.2338 117.482Z" fill="#2D2FEE"/>
<path d="M44.1405 107.28C43.8907 108.04 43.9466 108.868 44.2964 109.587C44.6461 110.307 45.2621 110.862 46.014 111.135C47.7511 111.776 49.5681 110.814 50.6365 109.441L48.562 108.891C48.5582 108.743 48.5858 108.948 48.554 109.011L48.5177 109.243L48.4824 109.358L48.3947 109.587C48.2585 109.919 48.078 110.245 47.9146 110.573C47.4745 111.329 47.2586 112.195 47.2918 113.07C47.4862 115.008 49.9713 116.119 51.3454 114.559C51.5293 114.314 51.6083 114.006 51.5649 113.702C51.5215 113.399 51.3594 113.125 51.1141 112.941C50.8689 112.757 50.5607 112.679 50.2573 112.722C49.9539 112.765 49.6801 112.927 49.4962 113.173C49.5426 113.11 49.6072 113.062 49.6813 113.037C49.5606 113.087 49.5748 113.081 49.7167 113.022C49.8587 112.962 49.6018 112.987 49.8257 113.043C49.7602 113.027 49.697 113.003 49.6373 112.972C49.7369 113.03 49.747 113.034 49.6373 112.972C49.5971 112.943 49.5588 112.912 49.5229 112.878C49.6101 112.966 49.6172 112.963 49.5229 112.878C49.5764 113.006 49.5794 113.013 49.5229 112.878L49.5497 112.942C49.5325 112.866 49.5226 112.789 49.5202 112.712L49.5023 112.669C49.5202 112.466 49.572 112.266 49.6558 112.079C49.8561 111.562 50.1429 111.091 50.3663 110.589C50.6425 109.968 50.7705 109.291 50.7403 108.613C50.6862 107.567 49.247 107.319 48.6688 108.07L48.5218 108.257C48.429 108.354 48.4137 108.377 48.4615 108.332C48.5094 108.287 48.4615 108.332 48.3763 108.368C48.3185 108.425 48.2573 108.479 48.1931 108.528L47.8993 108.743C47.6279 108.932 48.0483 108.681 47.7431 108.809L47.4095 108.948C47.2817 109.002 47.2675 109.008 47.3669 108.966L47.2107 109.032L47.0337 109.047L46.9911 109.065C46.9414 109.086 46.6339 108.99 46.8739 109.064C46.7823 109.035 46.6925 109 46.6049 108.96C46.8265 109.051 46.6049 108.96 46.5296 108.9C46.4742 108.867 46.4236 108.826 46.379 108.779C46.4236 108.886 46.4721 108.882 46.3998 108.829C46.3274 108.776 46.2496 108.65 46.1897 108.567C46.3066 108.726 46.2075 108.609 46.1629 108.503C46.1183 108.396 46.1388 108.246 46.1362 108.439C46.0975 108.346 46.1292 108.183 46.1094 108.375L46.1321 108.19C46.0886 108.325 46.0915 108.332 46.1321 108.19C46.2398 107.906 46.2344 107.592 46.1171 107.312C45.9998 107.032 45.7795 106.808 45.5017 106.685C45.2181 106.574 44.9022 106.577 44.6211 106.695C44.3401 106.812 44.1161 107.035 43.9967 107.316L44.1405 107.28Z" fill="#2D2FEE"/>
<path d="M176.458 96.6509C177.24 95.7786 178.335 95.2494 179.504 95.178C180.674 95.1066 181.824 95.4987 182.707 96.2694C184.466 97.8189 184.498 100.367 183.692 102.407C182.77 104.746 180.822 106.471 178.89 107.974C176.582 109.775 174.21 111.503 171.874 113.257C170.686 114.147 172.107 115.964 173.294 115.074C175.561 113.373 177.843 111.708 180.08 109.978C182.106 108.554 183.832 106.745 185.16 104.654C186.376 102.642 186.779 100.24 186.286 97.9409C186.008 96.8424 185.459 95.8314 184.688 95.001C183.917 94.1705 182.95 93.5471 181.875 93.1883C180.594 92.7845 179.222 92.766 177.93 93.1351C176.638 93.5042 175.483 94.2446 174.609 95.2644C173.62 96.371 175.47 97.7575 176.458 96.6509Z" fill="#2D2FEE"/>
<path d="M176.046 95.5883C175.65 94.1926 174.807 92.9654 173.647 92.0949C172.486 91.2245 171.072 90.759 169.621 90.7698C166.769 90.8132 163.724 92.848 163.555 95.8896C163.37 99.1544 164.567 102.767 165.98 105.663C167.548 108.886 170.284 111.654 171.173 115.17C171.533 116.588 173.829 116.31 173.459 114.871C172.739 112.036 171.103 109.725 169.542 107.292C167.939 104.818 166.81 102.069 166.211 99.1827C165.976 98.0044 165.567 96.4487 166.011 95.278C166.26 94.7489 166.629 94.2847 167.088 93.9217C167.547 93.5587 168.083 93.3067 168.655 93.1854C169.216 93.0538 169.796 93.0341 170.364 93.1274C170.932 93.2206 171.475 93.4251 171.964 93.729C172.453 94.0329 172.876 94.4302 173.211 94.8982C173.546 95.3662 173.785 95.8957 173.914 96.4562C174.305 97.8864 176.439 96.9842 176.044 95.564L176.046 95.5883Z" fill="#2D2FEE"/>
</svg>
