<svg width="196" height="157" viewBox="0 0 196 157" fill="none" xmlns="http://www.w3.org/2000/svg">
<path d="M82.3209 109.525C82.5986 118.362 83.6316 127.305 86.7628 135.649C88.255 139.697 90.3261 143.519 92.9142 147C95.3946 150.293 98.471 153.213 102.409 154.763C106.224 156.134 110.248 156.867 114.313 156.934C118.417 157.161 122.534 156.802 126.533 155.869C130.436 154.977 134.091 153.259 137.241 150.837C140.313 148.303 142.709 145.078 144.226 141.439C146.059 137.286 147.058 132.818 148.171 128.441L152.209 112.566C152.611 110.969 150.014 110.645 149.612 112.225L146.222 125.439C145.245 129.317 144.362 133.238 143.096 137.039C142.04 140.567 140.265 143.852 137.877 146.693C135.353 149.408 132.156 151.443 128.595 152.602C121.584 155.048 113.215 155.035 106.031 153.261C97.9059 151.253 93.0086 143.8 89.9683 136.639C86.2599 127.987 85.2131 118.503 84.9244 109.199C84.8728 107.556 82.2761 107.898 82.3209 109.525Z" fill="#2D2FEE"/>
<path d="M96.4311 137.212C103.303 134.397 106.539 126.673 103.661 119.955C100.782 113.239 92.8785 110.075 86.0073 112.89C79.136 115.703 75.8992 123.429 78.7776 130.145C81.6562 136.862 89.5599 140.025 96.4311 137.212Z" fill="white" stroke="#2D2FEE" stroke-width="3" stroke-linecap="round" stroke-linejoin="round"/>
<path d="M139.903 131.928C146.775 129.115 150.012 121.389 147.134 114.673C144.254 107.957 136.35 104.793 129.479 107.607C122.608 110.42 119.372 118.146 122.25 124.862C125.129 131.578 133.032 134.742 139.903 131.928Z" fill="white" stroke="#2D2FEE" stroke-width="3" stroke-linecap="round" stroke-linejoin="round"/>
<path d="M105.034 122.824C107.343 121.465 109.913 120.586 112.583 120.242C113.886 120.068 115.203 120.027 116.515 120.121C117.822 120.109 119.109 120.434 120.248 121.061C121.598 122.006 123.209 119.96 121.823 119.02C119.258 117.296 115.479 117.328 112.497 117.679C109.265 118.08 106.158 119.154 103.385 120.828C103.114 121.039 102.938 121.345 102.896 121.679C102.854 122.015 102.95 122.353 103.161 122.621C103.379 122.883 103.693 123.05 104.037 123.091C104.38 123.131 104.726 123.04 105.003 122.837L105.034 122.824Z" fill="#2D2FEE"/>
<path d="M109.638 123.019C110.171 126.324 110.007 129.699 109.155 132.939C108.303 136.179 106.783 139.214 104.685 141.858C104.539 142.06 104.455 142.299 104.443 142.547C104.431 142.794 104.493 143.04 104.62 143.255C104.747 143.47 104.934 143.644 105.159 143.758C105.385 143.873 105.639 143.92 105.892 143.898C110.137 143.681 114.386 143.593 118.635 143.635C118.833 143.658 119.034 143.635 119.222 143.571C119.41 143.507 119.58 143.402 119.722 143.264C119.863 143.127 119.97 142.96 120.036 142.776C120.102 142.592 120.124 142.396 120.102 142.203C119.25 136.353 119.104 130.427 119.666 124.544C119.818 122.911 117.229 122.565 117.074 124.209C116.482 130.311 116.627 136.458 117.507 142.525L118.974 141.092C114.506 141.072 110.034 141.159 105.557 141.353L106.771 143.389C109.07 140.476 110.74 137.136 111.678 133.573C112.616 130.01 112.803 126.298 112.229 122.661C111.96 121.042 109.365 121.365 109.628 122.996L109.638 123.019Z" fill="#2D2FEE"/>
<path d="M79.0335 124.095C79.657 123.021 80.5986 122.157 81.7344 121.615C82.8703 121.074 84.1472 120.883 85.3969 121.065C87.438 121.412 89.3537 122.505 91.2352 123.297C93.11 124.23 95.2086 124.649 97.3075 124.509C100.269 124.156 102.609 122.135 104.512 120.042C105.629 118.808 103.533 117.271 102.424 118.503C100.623 120.479 98.3126 122.35 95.4387 121.937C93.4111 121.62 91.4908 120.538 89.6005 119.704C87.6761 118.724 85.5196 118.263 83.3526 118.37C82.0364 118.55 80.777 119.011 79.6638 119.721C78.5506 120.432 77.6109 121.373 76.9114 122.477C76.0039 123.847 78.0877 125.398 79.0079 124.013L79.0335 124.095Z" fill="#2D2FEE"/>
<path d="M79.5924 128.119C80.5728 127.434 81.689 126.957 82.8691 126.719C84.0494 126.481 85.2674 126.488 86.445 126.737C88.8694 127.14 90.9182 128.345 93.2264 129.074C97.9363 130.594 102.38 127.452 105.485 124.257C106.641 123.071 104.537 121.539 103.389 122.721C101.788 124.485 99.7712 125.84 97.5131 126.67C95.1179 127.439 93.1982 126.292 91.0273 125.443C86.7769 123.78 81.7748 123.212 77.9341 126.126C77.6729 126.339 77.5071 126.644 77.4719 126.975C77.4366 127.305 77.5346 127.637 77.7451 127.898C77.9556 128.16 78.262 128.331 78.5994 128.375C78.9368 128.419 79.2786 128.334 79.5521 128.135L79.5924 128.119Z" fill="#2D2FEE"/>
<path d="M122.558 118.228C123.585 117.261 124.92 116.669 126.341 116.549C127.219 116.591 128.081 116.797 128.88 117.155C130.774 117.932 132.47 119.088 134.319 119.957C136.016 120.874 137.975 121.216 139.892 120.93C141.343 120.557 142.686 119.861 143.817 118.898C145.234 117.79 146.632 116.635 148.076 115.481C149.371 114.441 147.721 112.445 146.457 113.471C145.194 114.497 143.733 115.677 142.36 116.757C141.382 117.696 140.124 118.308 138.768 118.506C136.912 118.59 135.104 117.529 133.536 116.672C131.848 115.613 130.017 114.788 128.096 114.221C125.402 113.586 123.038 114.582 120.95 116.222C120.698 116.437 120.538 116.74 120.506 117.065C120.474 117.392 120.571 117.718 120.778 117.976C120.984 118.234 121.285 118.405 121.616 118.454C121.948 118.501 122.286 118.424 122.561 118.235L122.558 118.228Z" fill="#2D2FEE"/>
<path d="M123.166 123.076C124.588 121.319 127.293 122.467 128.836 123.417C130.821 124.628 132.636 125.883 134.971 126.452C139.887 127.592 144.853 125.651 148.729 122.751C150.064 121.76 148.45 119.74 147.11 120.742C143.142 123.707 137.71 125.516 133.028 123.023C130.976 121.921 129.211 120.341 126.865 119.832C125.833 119.555 124.741 119.571 123.719 119.879C122.696 120.186 121.785 120.772 121.09 121.568C120.044 122.856 122.135 124.403 123.178 123.107L123.166 123.076Z" fill="#2D2FEE"/>
<path d="M98.041 78.0587C92.2453 81.3564 88.0046 86.7365 83.9736 91.8537C80.5759 96.1764 77.3989 101.102 77.8234 106.772C77.8571 106.994 77.949 107.203 78.0903 107.38C78.2315 107.557 78.4172 107.695 78.6292 107.781C78.8413 107.866 79.0723 107.896 79.3 107.868C79.5276 107.84 79.7439 107.755 79.9278 107.621C84.3619 104.723 90.0539 106.35 94.7632 107.538C99.6417 108.963 104.799 109.227 109.802 108.306C112.298 107.904 114.759 107.312 117.206 106.688C119.481 106.225 121.683 105.469 123.755 104.441C125.663 103.398 127.155 101.758 127.993 99.7833C128.251 98.929 128.692 98.1367 129.286 97.4607C130.113 96.7615 131.342 97.5992 132.132 98.0059C133.354 98.6475 134.499 99.4187 135.547 100.305C136.391 101.164 137.378 101.877 138.465 102.412C140.797 103.306 142.986 101.615 145.285 102.144C146.925 102.526 147.256 99.9872 145.627 99.6082C144.636 99.421 143.612 99.4598 142.639 99.7224C141.646 99.944 140.464 100.409 139.457 100.046C138.45 99.6814 137.654 98.6852 136.839 98.0203C135.883 97.2458 134.856 96.5576 133.773 95.9648C131.844 94.9065 129.444 93.7896 127.53 95.526C125.955 96.9477 125.764 99.2171 124.367 100.751C122.829 102.435 120.396 103.182 118.244 103.767C115.778 104.435 113.273 105.035 110.76 105.509C108.223 106.022 105.639 106.272 103.048 106.254C100.422 106.128 97.8185 105.712 95.2884 105.011C89.6667 103.615 83.5045 102.171 78.2929 105.572L80.4053 106.418C80.0167 101.25 83.3657 96.7261 86.4435 92.8499C90.2644 88.0573 94.1952 83.1473 99.6405 80.0481C99.9024 79.832 100.067 79.5248 100.101 79.1916C100.135 78.8584 100.035 78.5254 99.8219 78.2633C99.5986 78.013 99.2868 77.855 98.949 77.8215C98.6112 77.7881 98.2734 77.8816 98.0036 78.0831L98.041 78.0587Z" fill="#2D2FEE"/>
<path d="M85.9193 148.905C82.1317 149.911 78.2292 150.446 74.3045 150.498C72.6351 150.556 70.9636 150.517 69.2988 150.384C68.1642 150.275 65.3599 150.222 64.9133 148.981C64.7349 148.192 64.6042 147.393 64.522 146.589C64.3152 145.555 64.1085 144.521 63.9179 143.479C63.5461 141.487 63.2148 139.477 62.9544 137.457C62.4426 133.528 62.3009 129.564 62.5312 125.61C62.7333 121.83 63.1873 118.067 63.8904 114.346C64.6458 110.646 65.9514 107.074 67.7658 103.744C71.2499 97.1017 75.6684 90.9694 80.8924 85.5242C86.9596 79.2861 94.64 74.2731 103.291 72.2749C104.92 71.9038 104.597 69.3636 102.96 69.738C86.2511 73.5936 74.4276 86.8406 66.3629 100.934C64.283 104.436 62.7146 108.207 61.7034 112.134C60.7871 116.195 60.2149 120.323 59.9926 124.476C59.6846 128.708 59.7805 132.96 60.2792 137.175C60.5385 139.325 60.8849 141.458 61.275 143.581C61.6399 145.559 61.8676 147.657 62.3956 149.596C62.9816 151.714 64.8948 152.271 66.8796 152.641C68.9345 152.987 71.0201 153.126 73.1041 153.061C77.7574 153.081 82.3917 152.48 86.879 151.276C88.5017 150.824 87.4743 148.471 85.8677 148.916L85.9193 148.905Z" fill="#2D2FEE"/>
<path d="M126.798 73.3753C142.156 74.0679 152.849 87.5432 159.563 99.719C163.365 106.595 166.218 113.934 168.046 121.543C169.73 128.991 170.553 136.6 170.502 144.227C170.5 144.774 170.577 145.307 170.033 145.538C169.291 145.753 168.513 145.821 167.743 145.736C165.724 145.703 163.706 145.698 161.687 145.664C157.134 145.641 152.588 145.309 148.083 144.67C146.418 144.427 146.072 146.954 147.741 147.205C152.034 147.817 156.366 148.144 160.704 148.184C162.755 148.223 164.809 148.204 166.863 148.251C168.343 148.283 169.997 148.41 171.376 147.744C172.755 147.077 173.113 145.507 173.082 144.022C173.052 142.185 173.045 140.338 172.983 138.515C172.84 134.335 172.393 130.171 171.644 126.053C170.155 117.742 167.492 109.674 163.733 102.079C160.101 94.7735 155.508 87.6296 149.657 81.8147C143.656 75.8482 135.888 71.2529 127.151 70.8639C125.482 70.789 125.12 73.3227 126.808 73.399L126.798 73.3753Z" fill="#2D2FEE"/>
<path d="M106.768 82.2697C109.667 79.2334 112.066 75.6251 112.804 71.4763C113.222 69.4256 113.135 67.3071 112.551 65.2956C111.967 63.2841 110.903 61.4371 109.445 59.9069C108 58.4551 106.133 57.2778 105.003 55.5487C104.475 54.7995 104.248 53.8854 104.367 52.9828C104.488 52.0801 104.944 51.2527 105.652 50.66C107.182 49.4415 109.148 49.8569 110.529 51.0024C111.806 52.0418 113.437 53.196 115.089 52.1307C116.01 51.5411 116.528 50.478 117.329 49.7431C118.134 48.9192 119.187 48.3681 120.336 48.1701C121.822 47.9961 123.88 49.354 123.138 50.9799C123.045 51.2138 123.024 51.4693 123.076 51.715C123.129 51.9606 123.255 52.1857 123.438 52.3626C123.62 52.5394 123.851 52.6603 124.103 52.7104C124.355 52.7605 124.615 52.7374 124.855 52.6442C125.883 52.2316 127.028 52.1879 128.087 52.521C129.145 52.8541 130.049 53.5425 130.638 54.4643C131.919 56.4366 130.887 58.6625 129.557 60.3071C128.031 62.1987 126.088 63.7342 124.57 65.6225C122.899 67.7229 121.878 70.2461 121.624 72.895C121.337 75.9562 122.056 79.0271 123.678 81.6611C123.899 81.9167 124.213 82.0783 124.554 82.1113C124.894 82.1443 125.235 82.0463 125.503 81.8381C125.759 81.6202 125.921 81.3154 125.955 80.9853C125.989 80.6552 125.894 80.3247 125.688 80.0611C124.249 77.5675 123.795 74.6456 124.409 71.8467C124.984 69.0594 126.668 66.9641 128.65 64.9877C130.435 63.1933 132.465 61.3729 133.35 58.9577C133.823 57.7785 133.937 56.4909 133.679 55.2497C133.42 54.0086 132.8 52.867 131.893 51.9624C130.884 50.9118 129.569 50.1879 128.127 49.8877C126.685 49.5876 125.183 49.7256 123.823 50.2832L125.539 51.9476C125.888 51.1091 125.959 50.1848 125.741 49.3051C125.523 48.4253 125.029 47.6345 124.327 47.044C123.604 46.3751 122.707 45.9137 121.734 45.7104C120.761 45.507 119.75 45.5696 118.81 45.8913C117.761 46.2377 116.792 46.7821 115.959 47.4934C115.515 47.8757 115.096 48.2849 114.705 48.7187C114.54 48.9066 113.883 49.9799 113.628 50.0013C113.119 50.0712 112.219 49.0528 111.865 48.7812C110.979 48.0683 109.913 47.6011 108.78 47.4283C107.726 47.2931 106.656 47.4216 105.669 47.802C104.681 48.1824 103.81 48.8022 103.135 49.6029C102.46 50.4036 102.005 51.3591 101.811 52.3792C101.618 53.3993 101.694 54.4506 102.031 55.4342C102.762 57.6037 104.658 59.1116 106.337 60.5786C108.184 62.0374 109.506 64.0372 110.106 66.2842C111.385 71.7617 108.386 76.8825 104.657 80.7398C103.502 81.9334 105.596 83.462 106.753 82.2763L106.768 82.2697Z" fill="#2D2FEE"/>
<path d="M104.915 61.6323C103.142 59.2071 100.778 57.2513 98.0395 55.9411C95.0937 54.6539 91.8944 54.0163 88.6683 54.0734C85.4828 53.9908 82.1317 54.0962 79.1393 52.8528C76.6754 51.8275 74.2757 49.2964 74.8938 46.5006C75.5683 43.3949 79.5319 42.2249 82.176 41.4196C82.9112 41.1924 83.0546 40.357 82.8775 39.7453C81.6401 35.3791 83.2317 30.0208 87.708 28.1046C88.7054 27.6526 89.7888 27.4102 90.8879 27.3934C91.9872 27.3765 93.0779 27.5854 94.0893 28.0066C96.5526 29.0969 98.0293 31.6362 99.2967 33.8447C99.4055 34.0687 99.5767 34.258 99.7921 34.3901C100.006 34.5223 100.255 34.5919 100.509 34.5909C100.763 34.5899 101.011 34.5182 101.224 34.3843C101.438 34.2503 101.608 34.0598 101.715 33.8348C102.39 32.3107 103.505 31.0105 104.921 30.0913C106.335 29.172 107.994 28.6731 109.693 28.6547C111.393 28.6362 113.061 29.0992 114.499 29.9875C115.935 30.8758 117.077 32.1516 117.787 33.6607C118.507 35.1414 120.925 34.1606 120.202 32.6722C119.282 30.7065 117.798 29.0441 115.929 27.8865C114.062 26.729 111.89 26.1259 109.679 26.1506C107.468 26.1754 105.311 26.8266 103.471 28.0256C101.63 29.2244 100.185 30.9195 99.3103 32.9052L101.728 32.8954C100.089 30.0434 98.2866 27.0737 95.0942 25.6718C93.7647 25.1253 92.3339 24.8532 90.8918 24.8726C89.4497 24.8918 88.0271 25.2022 86.7134 25.7841C80.8148 28.3106 78.8622 35.0557 80.4801 40.7732L81.1816 39.0991C78.3663 39.9467 75.0698 41.0839 73.3399 43.6694C72.5333 44.9523 72.154 46.4482 72.254 47.9507C72.3541 49.4533 72.9287 50.8886 73.8986 52.0584C78.4879 58.1311 87.087 55.7473 93.5522 57.1035C97.3209 57.9384 100.637 60.1137 102.856 63.2062C103.828 64.5465 105.887 62.9728 104.912 61.6244L104.915 61.6323Z" fill="#2D2FEE"/>
<path d="M127.055 31.2899C131.225 31.1541 135.193 28.4477 139.417 29.2329C143.44 29.9895 143.83 34.6289 142.038 37.5543C141.892 37.7573 141.808 37.997 141.796 38.2449C141.786 38.4929 141.849 38.7387 141.975 38.9533C142.104 39.1677 142.292 39.3418 142.517 39.4549C142.744 39.5679 142.998 39.6151 143.251 39.591C144.858 39.4938 146.46 39.8478 147.869 40.6112C149.277 41.3747 150.432 42.5157 151.2 43.8999C151.992 45.5076 150.066 47.1934 149.024 48.2949C147.692 49.6847 146.181 50.9001 144.53 51.9109C143.111 52.7966 144.738 54.803 146.147 53.9206C148.243 52.6116 150.127 51.0048 151.738 49.1531C153.302 47.348 154.778 45.3193 153.613 42.9113C152.614 41.0193 151.067 39.4559 149.166 38.4147C147.265 37.3736 145.094 36.9005 142.921 37.0541L144.134 39.0908C146.506 35.2439 146.42 29.5273 141.821 27.3146C136.839 24.9164 131.758 28.5782 126.761 28.7287C125.08 28.7791 125.43 31.3173 127.095 31.2734L127.055 31.2899Z" fill="#2D2FEE"/>
<path d="M132.903 65.8625C144.154 62.9567 157.05 60.8657 165.475 52.3122C169.136 48.7689 171.316 44.0191 171.589 38.9896C171.707 36.5326 171.272 34.0804 170.313 31.806C169.355 29.5317 167.897 27.491 166.044 25.8282C164.078 24.1438 161.701 22.9829 159.143 22.4578C156.585 21.9326 153.932 22.0609 151.439 22.8301C149.843 23.3448 150.862 25.7014 152.45 25.1899C154.397 24.6178 156.456 24.5173 158.453 24.8971C160.448 25.2769 162.318 26.1256 163.903 27.3699C165.604 28.76 166.952 30.5166 167.84 32.5017C168.728 34.4866 169.134 36.6461 169.024 38.8101C168.69 48.6467 159.649 54.9657 151.071 58.1269C145.084 60.3379 138.78 61.7178 132.605 63.3124C132.266 63.3688 131.961 63.5478 131.75 63.8137C131.54 64.0797 131.44 64.4132 131.47 64.748C131.513 65.0783 131.686 65.3793 131.952 65.5877C132.217 65.796 132.555 65.8958 132.895 65.8658L132.903 65.8625Z" fill="#2D2FEE"/>
<path d="M71.3424 40.1516C70.459 38.2356 70.099 36.1283 70.2977 34.0355C70.4963 31.9428 71.2467 29.9363 72.4757 28.2116C73.7047 26.4871 75.3702 25.1036 77.3095 24.1961C79.249 23.2886 81.396 22.8883 83.5409 23.0341C83.7386 23.0544 83.9385 23.0312 84.1258 22.9664C84.3132 22.9016 84.4832 22.7967 84.6239 22.6593C84.7645 22.522 84.8718 22.3558 84.9384 22.1728C85.0048 21.9897 85.0286 21.7944 85.0081 21.6012C84.4791 16.0849 90.127 12.7088 94.2835 10.2669C96.7406 8.82629 99.2349 7.51795 102.188 7.6312C104.524 7.71929 106.812 8.28964 109.109 8.3292C110.26 8.38903 111.41 8.21872 112.491 7.82877C113.571 7.43872 114.558 6.83735 115.393 6.06123C116.21 5.11258 117.091 4.21768 118.028 3.38228C118.535 3.03001 119.109 2.78102 119.716 2.65004C120.323 2.51906 120.951 2.50876 121.562 2.61979C127.024 3.37895 129.342 9.82669 134.986 9.92886C136.545 9.94692 138.06 9.5951 139.619 9.56717C141.002 9.52274 142.382 9.70757 143.703 10.1138C145.085 10.4958 146.333 11.2409 147.313 12.2682C148.291 13.2954 148.963 14.5655 149.256 15.9401C149.534 17.5639 152.13 17.2408 151.858 15.6137C150.855 9.71854 144.927 6.85696 139.284 7.0224C137.85 7.07371 136.414 7.43063 134.974 7.38221C133.549 7.26009 132.207 6.67258 131.165 5.71451C128.866 3.88192 126.838 1.64288 123.98 0.603145C122.714 0.0760184 121.327 -0.110477 119.962 0.0629414C118.597 0.23636 117.306 0.763376 116.22 1.58936C115.153 2.47906 114.377 3.64767 113.316 4.52606C112.401 5.27758 111.261 5.71573 110.067 5.77346C107.444 5.98765 104.815 5.15037 102.22 5.12178C99.0807 5.03845 96.4044 6.14368 93.7301 7.67342C88.3454 10.803 81.7069 14.9362 82.4181 21.959L83.8885 20.534C81.2902 20.3308 78.6825 20.7905 76.3207 21.8684C73.9588 22.9462 71.9239 24.6052 70.415 26.6828C68.9061 28.7602 67.975 31.1852 67.7129 33.7201C67.451 36.255 67.8669 38.813 68.9202 41.1436C69.0543 41.4565 69.3101 41.7045 69.6313 41.833C69.9526 41.9616 70.3128 41.9602 70.633 41.8291C70.9531 41.6981 71.2068 41.448 71.3384 41.134C71.4699 40.82 71.4685 40.4678 71.3344 40.1549L71.3424 40.1516Z" fill="#2D2FEE"/>
<path d="M160.693 16.8689C163.684 16.6237 166.558 15.6253 169.035 13.9712C171.059 12.6244 174.116 10.1336 173.073 7.38938C171.949 4.43738 168.24 4.74488 165.811 5.67514C163.33 6.63132 161.234 8.34944 159.839 10.5706C159.057 11.8153 158.257 13.3913 158.462 14.907C158.502 15.316 158.638 15.7105 158.859 16.0599C159.08 16.4091 159.381 16.7039 159.738 16.9211C160.094 17.1383 160.497 17.2721 160.915 17.312C161.334 17.352 161.755 17.2971 162.149 17.1516C163.702 16.5155 162.699 14.1524 161.138 14.7918C161.138 14.7918 161.309 14.9062 161.235 14.8441C161.193 14.8195 161.156 14.7868 161.126 14.7482C161.097 14.7095 161.075 14.6654 161.063 14.6187C160.928 14.3041 161.15 13.8063 161.26 13.5116C161.575 12.6571 162.019 11.8527 162.574 11.1244C163.641 9.74865 165.07 8.6811 166.708 8.03518C167.485 7.68757 168.327 7.50318 169.182 7.49387C169.74 7.51504 170.602 7.7627 170.643 8.43056C170.683 9.0983 169.925 9.84361 169.468 10.2801C168.717 11.0065 167.892 11.6545 167.004 12.2135C164.994 13.4403 162.708 14.1672 160.344 14.3308C158.657 14.4572 159 16.9988 160.674 16.8677L160.693 16.8689Z" fill="#2D2FEE"/>
<path d="M77.2306 15.2241C75.7645 14.8429 74.3741 14.2247 73.1168 13.3949C72.465 12.9568 71.8486 12.4704 71.273 11.9401C71.3033 12.0109 71.0934 11.7639 71.0537 11.7155L70.6959 11.3441L70.2689 10.8995C70.2689 10.8995 70.0494 10.564 70.0933 10.6663C70.137 10.7685 70.0036 10.8324 70.0933 10.6663C70.1828 10.5001 70.2249 10.3997 70.1621 10.5179C70.0992 10.6361 70.2223 10.4377 70.2223 10.4377L70.3844 10.2419C70.2491 10.3898 70.3844 10.2419 70.3844 10.2419L70.5746 10.09C70.6149 10.0736 70.8161 9.99114 70.5746 10.09L70.8724 9.96809L71.2828 9.79999C71.0737 9.88576 71.2828 9.79999 71.2828 9.79999L71.5318 9.76287C71.6123 9.72985 71.7049 9.74735 71.7954 9.73805C71.886 9.72874 72.0384 9.73107 71.8437 9.71832C72.0195 9.72663 72.1945 9.74448 72.368 9.77174C72.368 9.77174 72.8644 9.89219 72.677 9.83024C72.8438 9.88177 73.0067 9.94482 73.1645 10.0188C73.2911 10.0653 73.4104 10.1283 73.5193 10.2064C73.6799 10.3164 73.8405 10.4263 73.9965 10.5474C74.5487 11.0179 75.013 11.5786 75.3689 12.2046C75.3419 12.1416 75.3048 12.0551 75.406 12.2911C75.5072 12.527 75.5038 12.5192 75.551 12.6293C75.5981 12.7395 75.706 12.9911 75.7836 13.1721C75.8611 13.353 75.905 13.4553 75.9657 13.5968C75.8712 13.3766 75.9657 13.5968 75.9657 13.5968C75.9657 13.5968 76.0533 13.8014 76.028 13.9412C76.0028 14.0809 76.0571 14.4286 76.0594 14.1687C76.0588 14.2426 76.0525 14.3163 76.0404 14.3892C76.0404 14.3892 75.9872 14.7068 76.0299 14.5415C76.0725 14.376 76.0299 14.5415 75.9925 14.6307C75.9551 14.72 75.8887 14.7194 75.9925 14.6307C75.8074 14.7065 75.9925 14.6307 75.9925 14.6307C75.9119 14.7056 75.822 14.7703 75.7251 14.8235C75.4634 15.0396 75.2983 15.3467 75.2644 15.6799C75.2306 16.0131 75.3309 16.3461 75.544 16.6082C75.763 16.8673 76.0753 17.0345 76.4166 17.0754C76.7579 17.1163 77.1022 17.0276 77.3787 16.8278C79.1109 15.7486 78.825 13.3599 78.0636 11.8039C77.1874 9.98039 75.7785 8.17174 73.769 7.47818C72.7942 7.10907 71.7274 7.03881 70.7107 7.27672C69.694 7.51474 68.7755 8.04951 68.0774 8.81023C67.6613 9.28151 67.4202 9.87634 67.3932 10.4983C67.3661 11.1202 67.5547 11.7329 67.9285 12.2369C68.5535 13.0595 69.2816 13.802 70.0959 14.4471C71.8374 15.8904 73.8783 16.9474 76.078 17.5453C76.4001 17.6624 76.7555 17.6555 77.0724 17.5257C77.3893 17.3959 77.6437 17.1532 77.7841 16.8468C77.9129 16.5312 77.9098 16.1788 77.7755 15.8654C77.6413 15.5522 77.3864 15.3028 77.0661 15.1712L77.2306 15.2241Z" fill="#2D2FEE"/>
<path d="M49.7227 28.6245C50.3244 31.1983 52.5106 32.6795 54.7293 33.9715C55.7727 34.6641 56.9583 35.1253 58.2033 35.323C58.8025 35.3907 59.4097 35.3395 59.9883 35.1725C60.5669 35.0054 61.1051 34.726 61.5707 34.3509C63.5632 32.5549 62.6963 29.6273 61.3361 27.7339C60.6703 26.7789 59.7945 25.9814 58.7727 25.3999C57.751 24.8185 56.6091 24.4675 55.4306 24.3731C54.7263 24.32 54.0181 24.4069 53.3491 24.6285C52.6799 24.85 52.0635 25.2017 51.537 25.6623C51.0282 26.1195 50.6376 26.6883 50.3976 27.3219C50.1576 27.9555 50.0752 28.6357 50.157 29.3066C50.2012 29.644 50.3808 29.9505 50.6562 30.1585C50.9317 30.3665 51.2804 30.459 51.6256 30.4158C51.9708 30.3725 52.2843 30.197 52.4971 29.9277C52.71 29.6586 52.8047 29.3177 52.7605 28.9802C52.744 28.8961 52.7328 28.8112 52.727 28.7257C52.7402 28.933 52.7067 28.6785 52.7463 28.6162C52.7857 28.5538 52.7853 28.332 52.7567 28.4639C52.7282 28.5958 52.8001 28.3444 52.8094 28.3221C52.9081 28.0497 53.0667 27.8017 53.2738 27.5956C53.4751 27.4048 53.7126 27.2541 53.973 27.1521C54.3379 27.0153 54.7261 26.9472 55.117 26.9519C55.8401 26.9862 56.5482 27.167 57.1963 27.4825C57.8445 27.7979 58.4186 28.2415 58.8825 28.7849C59.3971 29.3559 59.7817 30.0274 60.0104 30.7548C60.0104 30.7548 60.1116 30.9908 60.0408 30.8256L60.1004 31.0971C60.1355 31.2777 60.1569 31.4606 60.1646 31.6442C60.1636 31.4874 60.1848 31.6914 60.1916 31.7071C60.1849 31.7962 60.1723 31.8847 60.1537 31.9722C60.1917 31.8179 60.1136 31.9887 60.1291 32.0471C60.0537 32.2905 60.1291 32.0471 60.0382 32.2322C59.9473 32.4174 59.9431 32.3635 59.9899 32.252C59.9271 32.314 59.8605 32.3722 59.7903 32.4262C59.6241 32.5682 59.6696 32.4756 59.742 32.446C59.6428 32.5006 59.5375 32.5437 59.4281 32.5745C59.4281 32.5745 59.1465 32.6898 59.2752 32.6371C59.4039 32.5844 59.1465 32.6899 59.1223 32.6998L58.8458 32.739L58.6418 32.7485C58.7142 32.7189 58.7142 32.7189 58.6418 32.7485C57.8703 32.6455 57.1308 32.3805 56.4738 31.9719C55.5619 31.4915 54.6921 30.9384 53.8731 30.3184C53.1609 29.8221 52.6298 29.1162 52.3571 28.3039C52.3054 27.976 52.1304 27.6787 51.8661 27.4705C51.6018 27.2622 51.2675 27.158 50.9286 27.1783C50.5896 27.221 50.2805 27.3901 50.0659 27.6503C49.8513 27.9104 49.7478 28.2415 49.777 28.5745L49.7227 28.6245Z" fill="#2D2FEE"/>
<path d="M46.7165 47.3608C47.4109 48.6406 48.5284 49.6529 49.8867 50.2328C50.5156 50.5094 51.1911 50.6715 51.8796 50.7113C52.4824 50.7651 53.0867 50.6248 53.6004 50.3117C53.954 50.081 54.2213 49.7444 54.3623 49.3525C54.863 47.9823 53.9722 46.544 53.0052 45.59C52.4949 45.0424 51.8675 44.6111 51.1678 44.3267C50.417 44.0407 49.5882 44.0175 48.8219 44.261C47.3114 44.7316 46.1699 46.549 46.9205 48.0354C47.0546 48.3483 47.3104 48.5964 47.6317 48.725C47.9528 48.8535 48.3132 48.8521 48.6333 48.721C48.9535 48.5899 49.2072 48.3399 49.3388 48.0259C49.4703 47.7119 49.4689 47.3597 49.3348 47.0467L49.2708 46.8974C49.2235 46.7872 49.2973 46.7385 49.3415 47.0625C49.3413 47.0119 49.3355 46.9616 49.3244 46.9123C49.2839 46.8179 49.3886 46.7751 49.3275 47.0961L49.3399 46.9707C49.3479 46.8565 49.439 46.7822 49.2953 47.1091L49.3387 46.9897C49.3854 46.8781 49.5081 46.7447 49.2582 47.0227L49.4216 46.8078L49.4899 46.7244C49.295 46.9983 49.3016 46.9031 49.3894 46.821L49.6199 46.6526C49.7246 46.6098 49.8452 46.5604 49.4751 46.712L49.636 46.6461C49.7246 46.6098 49.813 46.5736 49.9015 46.5372C49.4912 46.7053 49.7486 46.6 49.9015 46.5372C50.0545 46.4746 50.1525 46.5269 49.9015 46.5372C49.6506 46.5476 49.9015 46.5372 49.9015 46.5372L50.0332 46.5574C50.3695 46.6138 49.8357 46.4719 50.0332 46.5574C50.1293 46.5872 50.2235 46.6227 50.3152 46.6638L50.4671 46.731C50.6565 46.8199 50.3657 46.6709 50.3576 46.6742C50.5888 46.783 50.7972 46.9327 50.9725 47.1159C50.9725 47.1159 51.1782 47.309 50.9725 47.1159C50.7667 46.9227 50.9725 47.1159 50.9725 47.1159C50.9725 47.1159 51.1327 47.2908 51.2086 47.3798C51.3656 47.5581 51.5122 47.7452 51.6473 47.9399L51.7047 48.0736C51.4805 47.7493 51.6035 47.8376 51.6407 47.9241C51.6777 48.0107 51.7215 48.113 51.762 48.2074C51.8024 48.3017 51.8091 48.3174 51.8328 48.3725C51.8564 48.4276 51.8143 48.5281 51.7654 48.2152C51.7889 48.2702 51.8125 48.3253 51.8328 48.3725C51.853 48.4197 51.7816 48.6062 51.8406 48.2583C51.8413 48.2927 51.8403 48.3271 51.8375 48.3613C51.8096 48.5391 51.7248 48.4075 51.8728 48.2452C51.8559 48.2774 51.8419 48.311 51.8308 48.3457L51.9423 48.1427L51.8821 48.2229C51.8821 48.2229 52.1407 47.9875 51.9886 48.096L52.1656 48.0235C52.0288 48.0795 52.0691 48.0631 52.2622 47.984L52.1174 48.0433C51.8523 48.087 52.3738 48.0678 52.1174 48.0433C51.8768 48.0215 51.6376 47.9867 51.401 47.939C51.401 47.939 51.1277 47.8753 51.401 47.939C51.6743 48.0028 51.401 47.939 51.401 47.939L51 47.798L50.6474 47.6374C50.5859 47.6465 50.5249 47.6591 50.4648 47.6752C50.7698 47.7906 50.6154 47.7614 50.4648 47.6752C50.22 47.5301 49.988 47.3653 49.7713 47.1824L49.6758 47.0921C49.4802 46.9225 49.8688 47.2996 49.6758 47.0921C49.4828 46.8845 49.4862 46.8923 49.392 46.7829L49.1336 46.4449C49.1188 46.4017 49.1007 46.3597 49.0797 46.319C48.992 46.1145 49.2581 46.6251 49.0797 46.319C48.9372 46.0138 48.6876 45.7683 48.3762 45.6269C48.133 45.5391 47.8685 45.5232 47.616 45.5815C47.3636 45.6399 47.1343 45.7698 46.9571 45.9549C46.7798 46.1401 46.6624 46.3722 46.6197 46.6223C46.5768 46.8724 46.6105 47.1293 46.7165 47.3608Z" fill="#2D2FEE"/>
<path d="M78.0526 62.3417C76.5775 62.9223 75.2364 63.7859 74.1084 64.8815C73.4676 65.4253 72.9446 66.089 72.5707 66.8336C72.4574 67.0686 72.3939 67.3237 72.3842 67.5833C72.3743 67.8429 72.4183 68.1018 72.5134 68.3445C72.6085 68.587 72.7528 68.8083 72.9377 68.995C73.1226 69.1818 73.3443 69.33 73.5892 69.4309C74.453 69.6308 75.3607 69.5393 76.1645 69.1714C76.9197 68.9362 77.6523 68.6362 78.3535 68.2751C79.1248 67.8952 79.8627 67.454 80.5598 66.9556C81.2749 66.5058 81.7936 65.8122 82.015 65.0096C82.0983 64.5604 82.041 64.097 81.8504 63.68C81.66 63.2631 81.3451 62.9121 80.9473 62.6728C80.5303 62.396 80.0354 62.2532 79.5314 62.264C79.0274 62.2748 78.5394 62.4388 78.1352 62.7334C77.9944 62.8352 77.8761 62.9635 77.787 63.111C77.6979 63.2584 77.6399 63.4217 77.6167 63.5914C77.5934 63.761 77.6051 63.9335 77.6513 64.0987C77.6974 64.2639 77.777 64.4182 77.8854 64.5528C77.9936 64.6873 78.1284 64.7992 78.2818 64.8819C78.4352 64.9645 78.604 65.0163 78.7781 65.034C78.9524 65.0517 79.1284 65.0351 79.296 64.9851C79.4634 64.9352 79.6189 64.8528 79.7533 64.743C79.5683 64.8188 79.5441 64.8287 79.681 64.7726C79.4958 64.8484 79.4636 64.8616 79.5924 64.8088C79.3978 64.7961 79.3817 64.8027 79.528 64.8352L79.4628 64.8157C79.599 64.8832 79.5923 64.8675 79.4427 64.7685C79.4945 64.8027 79.5429 64.8417 79.5872 64.885C79.4554 64.754 79.4292 64.737 79.5635 64.8299L79.4962 64.6727C79.5534 64.8063 79.5433 64.7827 79.4624 64.594C79.4761 64.7363 79.5063 64.6962 79.4388 64.5389C79.3714 64.3815 79.4802 64.3925 79.4388 64.5389C79.5177 64.4141 79.5177 64.4141 79.4388 64.5389C79.3599 64.6637 79.3451 64.6513 79.4388 64.5389L79.268 64.692L78.9959 64.8959C78.6949 65.1209 78.3679 65.3288 78.0455 65.5256C77.8168 65.6647 77.5809 65.7922 77.3387 65.9074C76.6768 66.2432 75.9878 66.5253 75.2786 66.751L74.8199 66.9388L74.7394 66.9719L74.5543 67.0476C74.4839 67.0623 74.4127 67.0729 74.341 67.0795C74.5048 67.0864 74.5209 67.0798 74.341 67.0795C74.4694 67.091 74.5922 67.1366 74.6959 67.2115C74.7997 67.2864 74.8806 67.3876 74.9298 67.5042C74.954 67.8918 74.9702 67.9961 74.9901 67.8216C75.0099 67.647 74.9665 67.7665 75.0103 67.8688C75.0744 67.7316 75.0744 67.7316 75.0103 67.8688C75.104 67.7321 75.2057 67.6009 75.3149 67.4758L75.6631 67.0744L75.8446 66.8799C75.7891 66.9488 75.7891 66.9488 75.8446 66.8799C76.3287 66.4129 76.8591 65.9943 77.4282 65.6304C77.5649 65.5743 77.6862 65.46 77.8243 65.3849L78.1221 65.263C78.4601 65.1246 78.79 64.9895 79.1199 64.8544C79.4402 64.7233 79.6939 64.4732 79.8254 64.1593C79.957 63.8452 79.9555 63.4931 79.8214 63.1801C79.682 62.8716 79.4257 62.628 79.1063 62.5001C78.787 62.3723 78.4294 62.3703 78.1086 62.4946L78.0526 62.3417Z" fill="#2D2FEE"/>
<path d="M156.532 68.7905C157.405 69.7804 158.526 70.5322 159.784 70.9722C160.402 71.1935 161.048 71.3336 161.703 71.3884C162.132 71.4685 162.572 71.4625 162.998 71.3709C163.424 71.2792 163.827 71.1036 164.18 70.855C165.495 69.7064 164.687 67.6236 163.649 66.5694C162.627 65.584 161.318 64.9344 159.901 64.7107C158.937 64.4692 157.916 64.5935 157.042 65.0586C156.798 65.2143 156.591 65.4174 156.431 65.6553C156.272 65.8932 156.164 66.1607 156.116 66.4411C156.067 66.7214 156.078 67.0086 156.149 67.2845C156.219 67.5605 156.347 67.8192 156.524 68.0446C156.743 68.2998 157.054 68.4619 157.392 68.4964C157.731 68.5308 158.07 68.435 158.338 68.2292C158.605 68.0234 158.78 67.7239 158.825 67.3941C158.87 67.0644 158.783 66.7304 158.58 66.4629C158.443 66.2972 158.621 66.5573 158.631 66.5809C158.684 66.6981 158.705 66.8279 158.687 66.9554C158.697 66.8681 158.747 66.7644 158.653 67.0525C158.674 66.9698 158.764 66.8687 158.593 67.1327C158.645 67.0558 158.756 66.9828 158.504 67.169C158.504 67.169 158.64 67.067 158.504 67.169C158.368 67.2709 158.689 67.0932 158.504 67.169C158.319 67.2448 158.561 67.1458 158.618 67.1228C158.683 67.1089 158.75 67.1031 158.817 67.1054C158.817 67.1054 158.537 67.0908 158.817 67.1054L159.183 67.1407C159.412 67.1643 159.639 67.2009 159.863 67.2503C159.863 67.2503 160.014 67.2717 160.032 67.292C160.051 67.3124 159.73 67.2033 159.968 67.2725L160.297 67.3781C160.515 67.4549 160.731 67.5429 160.939 67.6419C160.939 67.6419 161.048 67.7178 161.087 67.7204C161.125 67.7229 160.832 67.566 161.063 67.6653C161.295 67.7646 161.232 67.7719 161.31 67.823C161.406 67.8854 161.498 67.9526 161.585 68.0245L161.716 68.1286L161.743 68.1914C161.776 68.2701 161.763 68.2386 161.648 68.1011C161.709 68.1891 161.784 68.2674 161.87 68.3336C161.907 68.4201 161.989 68.479 162.042 68.559C162.096 68.6389 162.083 68.6534 162.102 68.7005C162.123 68.7477 161.995 68.4488 162.063 68.6062C162.13 68.7634 162.157 68.8264 162.204 68.9365C162.251 69.0467 162.244 69.0309 162.268 69.086C162.292 69.1411 162.244 69.2068 162.227 68.9916C162.261 69.0703 162.261 69.1811 162.271 69.2697C162.28 69.3583 162.348 69.4506 162.271 69.2697L162.237 69.191C162.218 69.3006 162.226 69.2973 162.237 69.191C162.262 69.1095 162.299 69.032 162.347 68.9612C162.484 68.8402 162.509 68.8113 162.431 68.8711C162.353 68.931 162.384 68.891 162.56 68.8184C162.351 68.9042 162.645 68.7093 162.633 68.7888C162.619 68.8681 162.436 68.8141 162.464 68.8579L162.33 68.8569L162.403 68.8272L162.278 68.8229L162.111 68.8081L161.729 68.7793L161.112 68.6624C160.796 68.5882 161.288 68.7198 161.112 68.6624L160.715 68.5293C160.478 68.4466 160.247 68.3498 160.022 68.2393L159.913 68.1824C159.769 68.1119 160.15 68.3165 159.913 68.1824C159.676 68.0485 159.699 68.0576 159.594 67.9895C159.385 67.8524 159.184 67.7027 158.995 67.5413L158.87 67.4261C158.667 67.2408 158.87 67.4261 158.887 67.4654C158.903 67.5047 158.62 67.1957 158.598 67.1674C158.494 67.0299 158.363 66.9141 158.212 66.827C158.061 66.7399 157.894 66.6834 157.721 66.6606C157.547 66.6379 157.371 66.6494 157.202 66.6945C157.033 66.7396 156.874 66.8174 156.737 66.9232C156.6 67.0291 156.485 67.1609 156.4 67.3108C156.315 67.4607 156.263 67.6256 156.245 67.7959C156.227 67.9662 156.244 68.1383 156.295 68.302C156.346 68.4658 156.43 68.6178 156.542 68.7491L156.532 68.7905Z" fill="#2D2FEE"/>
<path d="M31.3423 117.29C28.7198 107.175 20.1639 100.036 13.6008 92.2936C10.1631 88.2457 6.90154 84.0648 3.816 79.749C3.53066 79.3481 3.20973 78.9525 2.95795 78.5194C2.8871 78.3542 2.62081 77.7327 2.62081 77.7327C2.96362 77.2965 5.08999 79.0795 5.34471 79.2988C7.00085 80.8671 8.46981 82.6143 9.72362 84.5058C12.4149 88.2025 15.5553 92.0199 20.3948 92.8499C20.728 92.8753 21.0589 92.7778 21.3228 92.5773C21.5867 92.3767 21.7648 92.0875 21.8223 91.7661C22.4574 88.833 20.4357 86.3231 18.7193 84.1501C16.4888 81.2419 14.3142 78.3012 12.1951 75.3286L10.7412 73.2609C10.2875 72.6988 9.86816 72.111 9.48544 71.5005C9.75683 70.964 12.5408 73.0233 12.8434 73.2878C14.8918 75.136 16.6263 77.2909 17.9823 79.6718C19.4047 82.1051 20.9583 84.4626 22.6366 86.7353C23.4221 87.9055 24.4855 88.8718 25.7362 89.5532C27.259 90.2148 28.6403 89.5743 29.9281 88.7609C31.0402 87.9819 32.3066 87.4379 33.6461 87.1642C34.9856 86.8905 36.3689 86.8927 37.7073 87.1708C39.0458 87.4501 40.3099 87.9986 41.4189 88.782C42.5279 89.5665 43.4574 90.5672 44.1479 91.7218C47.7205 97.8507 43.1422 103.878 38.8814 108.239C37.7246 109.425 39.8175 110.953 40.9697 109.778C45.2258 105.428 49.3781 99.7977 47.6507 93.4504C47.1665 91.6298 46.255 89.9444 44.9887 88.5282C43.7225 87.1121 42.1361 86.004 40.3553 85.2915C38.5747 84.5789 36.6486 84.2809 34.7298 84.4227C32.811 84.5634 30.9521 85.1397 29.3007 86.1048C28.6973 86.4627 27.9104 87.275 27.1687 87.3115C26.4272 87.347 25.7932 86.4406 25.3734 85.9475C23.4577 83.5107 21.7243 80.9413 20.187 78.2604C18.6435 75.5984 16.6589 73.2052 14.3138 71.1784C13.1674 70.1287 11.7612 69.3884 10.2336 69.0304C9.88414 68.9499 9.52172 68.9387 9.16779 68.9974C8.81387 69.056 8.47548 69.1835 8.17269 69.3721C7.87001 69.5607 7.60893 69.8067 7.4051 70.0956C7.20127 70.3844 7.05866 70.7102 6.98577 71.0538C6.74362 72.8728 8.55676 74.7195 9.55811 76.0848C10.8558 77.9206 12.1694 79.7497 13.512 81.5578C14.8545 83.3656 16.1181 85.0122 17.4317 86.7309C18.5003 88.1426 19.6355 89.6652 19.2504 91.4592L20.7181 90.3588C16.1257 89.5765 13.4332 85.215 10.917 81.816C9.51537 79.7616 7.77841 77.9458 5.77538 76.4409C4.18523 75.3352 1.29468 74.3737 0.222026 76.727C-0.701436 78.788 1.48422 81.0184 2.5919 82.5434C4.25018 84.8238 5.96017 87.07 7.72207 89.2829C11.2403 93.6953 15.0057 97.8674 18.7973 102.057C22.9486 106.645 27.1546 111.58 28.7282 117.658C29.14 119.236 31.7422 118.929 31.3317 117.331L31.3423 117.29Z" fill="#2D2FEE"/>
<path d="M27.9277 101.757C27.3894 99.6836 26.8102 96.6108 28.0889 94.6727C29.4722 92.5806 31.5727 94.1708 31.9146 96.0279C32.0558 97.238 32.0363 98.4613 31.8566 99.667C31.74 101 31.7448 102.342 31.8712 103.674C32.1369 106.237 32.8847 108.73 34.0769 111.028C34.8255 112.488 37.2465 111.515 36.4911 110.04C34.9578 107.156 34.227 103.928 34.3721 100.681C34.5364 97.8851 35.1016 94.8334 32.9427 92.5551C32.4912 92.0587 31.927 91.6709 31.2952 91.4249C30.6633 91.1789 29.9814 91.0814 29.3038 91.1379C28.6263 91.1955 27.9718 91.4071 27.3926 91.7562C26.8136 92.1041 26.3258 92.5806 25.9685 93.1458C24.1982 95.6368 24.5739 99.339 25.3035 102.1C25.3549 102.427 25.5298 102.724 25.7936 102.93C26.0574 103.138 26.391 103.241 26.7284 103.218C27.0722 103.172 27.3835 102.996 27.5956 102.728C27.8078 102.459 27.9038 102.12 27.8632 101.783L27.9277 101.757Z" fill="#2D2FEE"/>
<path d="M34.6276 90.4519C34.3444 91.2941 34.4078 92.2116 34.8043 93.0083C35.2008 93.8062 35.8991 94.4212 36.7515 94.7237C38.7207 95.434 40.7805 94.368 41.9917 92.8465L39.64 92.2371C39.6357 92.0731 39.667 92.3003 39.6309 92.3701L39.5898 92.6271L39.5497 92.7546L39.4503 93.0083C39.2959 93.3762 39.0913 93.7375 38.9061 94.1009C38.4072 94.9386 38.1624 95.8983 38.2 96.8679C38.4204 99.0154 41.2376 100.246 42.7954 98.5178C43.0038 98.2463 43.0934 97.905 43.0442 97.5682C42.995 97.2324 42.8112 96.9288 42.5331 96.7249C42.2552 96.521 41.9058 96.4346 41.5618 96.4822C41.2179 96.5299 40.9075 96.7094 40.699 96.982C40.7516 96.9122 40.8249 96.859 40.9089 96.8313C40.772 96.8867 40.7881 96.8801 40.949 96.8147C41.11 96.7482 40.8187 96.7759 41.0726 96.8379C40.9983 96.8202 40.9267 96.7936 40.859 96.7593C40.9719 96.8235 40.9833 96.828 40.859 96.7593C40.8134 96.7271 40.77 96.6928 40.7293 96.6551C40.8281 96.7526 40.8362 96.7493 40.7293 96.6551C40.7899 96.7969 40.7933 96.8047 40.7293 96.6551L40.7597 96.726C40.7402 96.6418 40.729 96.5565 40.7262 96.4712L40.7059 96.4235C40.7262 96.1986 40.785 95.9769 40.88 95.7697C41.107 95.1968 41.4322 94.6749 41.6854 94.1186C41.9985 93.4305 42.1436 92.6803 42.1094 91.929C42.0481 90.77 40.4165 90.4951 39.7611 91.3273L39.5944 91.5346C39.4892 91.642 39.4719 91.6675 39.5261 91.6177C39.5804 91.5678 39.5261 91.6177 39.4295 91.6575C39.3639 91.7207 39.2946 91.7805 39.2218 91.8348L38.8887 92.0731C38.5811 92.2825 39.0576 92.0044 38.7116 92.1462L38.3335 92.3002C38.1886 92.3601 38.1725 92.3667 38.2852 92.3202L38.1081 92.3933L37.9074 92.4099L37.8592 92.4299C37.8028 92.4532 37.4542 92.3468 37.7263 92.4288C37.6224 92.3967 37.5206 92.3579 37.4213 92.3135C37.6726 92.4144 37.4213 92.3135 37.336 92.2471C37.2732 92.2105 37.2158 92.1651 37.1653 92.113C37.2158 92.2315 37.2708 92.2271 37.1888 92.1684C37.1068 92.1097 37.0186 91.97 36.9507 91.8781C37.0832 92.0543 36.9708 91.9246 36.9203 91.8071C36.8697 91.6886 36.8929 91.5224 36.89 91.7362C36.8461 91.6332 36.8821 91.4525 36.8596 91.6653L36.8854 91.4603C36.836 91.6099 36.8393 91.6177 36.8854 91.4603C37.0074 91.1456 37.0013 90.7977 36.8683 90.4874C36.7354 90.1771 36.4856 89.9289 36.1707 89.7926C35.8492 89.6696 35.4911 89.6729 35.1724 89.8037C34.8539 89.9333 34.5999 90.1804 34.4646 90.4918L34.6276 90.4519Z" fill="#2D2FEE"/>
<path d="M184.626 78.6738C185.513 77.7072 186.754 77.1208 188.079 77.0416C189.405 76.9625 190.709 77.397 191.71 78.251C193.704 79.968 193.741 82.7916 192.827 85.0521C191.782 87.644 189.573 89.5555 187.383 91.221C184.767 93.2167 182.078 95.1315 179.429 97.0751C178.083 98.0613 179.694 100.075 181.039 99.0885C183.609 97.2036 186.196 95.3586 188.732 93.4416C191.029 91.8637 192.986 89.8591 194.491 87.5421C195.869 85.3125 196.326 82.6509 195.767 80.1032C195.452 78.886 194.83 77.7657 193.956 76.8455C193.082 75.9252 191.986 75.2344 190.767 74.8368C189.315 74.3894 187.759 74.3689 186.295 74.7779C184.83 75.1869 183.521 76.0073 182.53 77.1374C181.409 78.3636 183.506 79.9 184.626 78.6738Z" fill="#2D2FEE"/>
<path d="M184.158 77.4963C183.709 75.9497 182.754 74.5898 181.439 73.6252C180.123 72.6607 178.52 72.1449 176.875 72.1569C173.642 72.205 170.19 74.4598 169.998 77.8302C169.788 81.4479 171.145 85.4511 172.747 88.6601C174.525 92.2316 177.626 95.2988 178.634 99.1949C179.042 100.766 181.645 100.458 181.226 98.8636C180.409 95.7221 178.555 93.1613 176.785 90.4652C174.968 87.7238 173.688 84.6776 173.009 81.4793C172.743 80.1736 172.279 78.4497 172.782 77.1524C173.065 76.5661 173.483 76.0518 174.003 75.6495C174.524 75.2473 175.131 74.968 175.78 74.8336C176.416 74.6878 177.073 74.666 177.717 74.7694C178.361 74.8726 178.976 75.0992 179.531 75.436C180.085 75.7727 180.565 76.213 180.944 76.7316C181.324 77.2502 181.595 77.8369 181.741 78.458C182.185 80.0428 184.604 79.0431 184.156 77.4694L184.158 77.4963Z" fill="#2D2FEE"/>
</svg>
