<svg width="361" height="172" viewBox="0 0 361 172" fill="none" xmlns="http://www.w3.org/2000/svg">
<g clip-path="url(#clip0)">
<path d="M124.434 31.4844C123.148 34.2733 124.49 37.3913 126.911 39.0038C129.811 40.9371 133.67 40.46 136.937 40.3695C140.995 40.2625 145.054 40.098 149.112 40.0322C149.607 40.0322 150.494 39.8923 150.502 40.5834C150.502 40.7479 150.015 41.6117 150.039 41.6529C150.063 41.694 150.518 41.513 150.358 41.5706C150.079 41.6775 149.767 41.7351 149.479 41.8174L139.541 44.5734C136.977 45.2892 134.357 45.8815 131.864 46.8194C125.098 49.3697 117.828 49.8798 110.686 49.3615C107.021 49.0789 103.375 48.5818 99.7649 47.8724C98.0073 47.5351 96.2498 47.1402 94.4922 46.77C92.7776 46.3115 90.9955 46.1832 89.2356 46.3916C85.8803 46.951 83.6035 49.962 81.5024 52.4548C79.3053 55.0774 77.2516 57.824 75.351 60.6817C71.6758 66.3203 68.4178 72.2357 65.6046 78.3778C59.6928 90.9732 54.8596 104.079 48.3407 116.361C47.4939 117.952 46.6231 119.523 45.7283 121.075C45.5819 121.357 45.5472 121.686 45.6317 121.994C45.7161 122.301 45.9131 122.563 46.1812 122.724C46.4493 122.885 46.7675 122.933 47.069 122.857C47.3704 122.781 47.6316 122.588 47.7975 122.318C54.7957 110.158 59.8526 97.0282 65.5726 84.2189C68.2492 78.0669 71.2825 72.0861 74.6559 66.3089C76.4009 63.366 78.2969 60.5209 80.336 57.7858C81.3586 56.4202 82.4291 55.0874 83.5315 53.7875C84.5802 52.457 85.7345 51.2187 86.9827 50.0854C89.9865 47.5762 93.9889 49.1887 97.3682 49.8798C100.883 50.5955 104.43 51.1879 108.001 51.5663C115.095 52.3232 122.381 52.1751 129.3 50.2253C130.993 49.7481 132.599 49.0324 134.285 48.5799L138.455 47.4281L149.016 44.4912C149.853 44.3753 150.664 44.1108 151.413 43.7096C151.972 43.2095 152.392 42.5644 152.628 41.8411C152.864 41.1178 152.908 40.3427 152.755 39.5961C152.308 37.9507 150.686 37.5065 149.224 37.523C145.189 37.523 141.147 37.7451 137.105 37.8603C134.101 37.9425 129.707 38.683 127.374 36.2149C126.528 35.3182 125.912 33.9031 126.472 32.6855C127.127 31.2623 125.066 30.0036 124.402 31.4433L124.434 31.4844Z" fill="#2D2FEE"/>
<path d="M1.74105 103.807C18.23 91.9439 30.9722 76.0495 44.0819 60.55C50.2174 53.2939 56.5205 46.1365 63.5827 39.8182C67.0371 36.7117 70.7027 33.8634 74.5514 31.2951C75.3051 30.7207 76.1071 30.2169 76.948 29.7896L78.9293 28.9669L94.4836 22.2455L101.186 19.3661L102.848 18.6421L103.048 18.5599L103.511 18.3542C103.343 18.4283 103.351 18.4118 103.607 18.3131C107.769 16.7582 112.075 15.5735 116.333 14.3477C122.676 12.5131 129.035 10.7525 135.426 9.14829C137.999 8.49837 140.571 7.87312 143.168 7.33014C144.094 7.1327 145.021 6.95994 145.956 6.81186H146.187C146.379 6.81186 145.892 6.81186 146.187 6.81186C146.339 6.81186 146.499 6.77071 146.659 6.76248C146.818 6.75426 147.138 6.76248 147.37 6.76248C147.601 6.76248 147.37 6.76248 147.33 6.76248C147.821 6.87758 148.302 7.03443 148.768 7.23142C149.661 7.65433 150.473 8.23958 151.164 8.95908C152.615 10.5482 153.824 12.3538 154.751 14.3148C155.79 16.2893 156.765 18.2884 157.899 20.197C159.289 22.517 160.871 24.8041 161.845 27.3544C162.708 29.6004 162.9 31.8463 161.542 33.936C160.679 35.2605 162.756 36.4945 163.611 35.1782C166.759 30.3655 163.611 24.9604 161.039 20.7236C159.768 18.6339 158.594 16.5278 157.476 14.3477C156.512 12.3212 155.364 10.393 154.048 8.58886C152.355 6.38405 149.615 4.09697 146.707 4.33555C144.823 4.54425 142.955 4.87953 141.114 5.33923C134.939 6.7049 128.812 8.37497 122.74 10.0615C117.148 11.6164 111.556 13.2042 105.964 14.9976C105.165 15.2609 104.326 15.5241 103.519 15.8203L102.832 16.0836C102.648 16.1576 101.865 16.5278 102.424 16.2728C101.194 16.8322 99.9399 17.3423 98.7017 17.8688L82.2686 24.8123L76.5166 27.2804C73.8004 28.4486 71.3239 30.4395 68.9672 32.2165C61.3458 37.9754 54.5873 44.7955 48.2521 51.9611C34.759 67.2056 22.6239 83.7746 6.90184 96.7402C4.82474 98.4514 2.69438 100.097 0.510763 101.676C-0.751474 102.581 0.44686 104.72 1.71709 103.807H1.74105Z" fill="#2D2FEE"/>
<path d="M132.639 34.7011C133.581 32.7377 134.907 30.9965 136.535 29.5876C138.163 28.1787 140.057 27.1326 142.098 26.5154C143.939 25.8756 145.92 25.7897 147.808 26.2676C149.695 26.7455 151.411 27.7675 152.755 29.2138C154.696 31.2787 155.199 33.8373 155.95 36.6756C156.67 39.1662 157.231 41.7028 157.628 44.269C158.427 50.0278 158.427 55.8937 158.619 61.6689C158.81 67.4442 158.81 73.3511 158.699 79.184C158.512 90.6456 157.655 102.085 156.134 113.441C154.322 126.542 151.578 139.487 147.922 152.173C147.043 155.225 151.668 156.533 152.539 153.489C159.231 129.951 162.899 105.612 163.452 81.0927C163.606 74.8786 163.606 68.67 163.452 62.467C163.429 56.1742 163.069 49.8874 162.373 43.6355C161.971 40.8537 161.378 38.1045 160.6 35.4086C159.673 32.0274 158.866 28.9094 156.526 26.1945C154.657 24.0565 152.247 22.4974 149.566 21.6923C146.884 20.8872 144.038 20.868 141.347 21.6368C136.026 23.1094 130.809 27.009 128.477 32.2495C128.176 32.819 128.097 33.4854 128.258 34.1124C128.418 34.7395 128.805 35.2797 129.339 35.6225C129.611 35.7871 129.912 35.8949 130.224 35.9397C130.536 35.9845 130.854 35.9655 131.158 35.8837C131.463 35.8019 131.75 35.659 132.001 35.4632C132.252 35.2673 132.464 35.0223 132.623 34.7423L132.639 34.7011Z" fill="#2D2FEE"/>
<path d="M116.877 54.2401C107.786 75.0405 96.6559 94.8302 83.6593 113.301C80.0324 118.413 76.2643 123.437 72.3551 128.373C71.9208 128.845 71.6787 129.471 71.6787 130.121C71.6787 130.771 71.9208 131.397 72.3551 131.869C72.8045 132.331 73.4136 132.591 74.0487 132.591C74.6839 132.591 75.293 132.331 75.7424 131.869C89.9176 114.065 102.292 94.8189 112.675 74.4289C115.615 68.6152 118.395 62.7138 121.015 56.7246C121.319 56.1552 121.4 55.4876 121.241 54.8587C121.082 54.2299 120.695 53.6876 120.16 53.3433C119.888 53.1791 119.587 53.0718 119.275 53.0276C118.962 52.9834 118.645 53.0031 118.34 53.0857C118.035 53.1682 117.748 53.3119 117.497 53.5086C117.246 53.7053 117.036 53.9511 116.877 54.2318V54.2401Z" fill="#2D2FEE"/>
<path d="M140.588 64.3674C138.46 78.4941 135.526 92.4794 131.8 106.251C128.099 119.947 123.62 133.407 118.387 146.562C115.463 153.906 112.297 161.143 108.888 168.273C108.585 168.844 108.505 169.512 108.666 170.141C108.826 170.77 109.214 171.311 109.751 171.654C110.3 171.983 110.953 172.075 111.567 171.908C112.181 171.742 112.706 171.331 113.026 170.766C119.205 157.803 124.639 144.477 129.3 130.857C133.927 117.319 137.766 103.509 140.796 89.5006C142.505 81.6027 143.957 73.65 145.15 65.6425C145.3 65.0127 145.211 64.3475 144.9 63.7831C144.59 63.2188 144.082 62.798 143.48 62.6068C142.337 62.2859 140.724 63.0017 140.532 64.3262L140.588 64.3674Z" fill="#2D2FEE"/>
<path d="M127.111 65.8482C123.868 79.1106 119.558 92.0716 114.225 104.597C108.833 117.273 102.433 129.468 95.0915 141.059C91.0172 147.492 86.6632 153.745 82.0137 159.75C81.5812 160.223 81.3403 160.849 81.3403 161.498C81.3403 162.148 81.5812 162.774 82.0137 163.247C82.8126 164.069 84.5941 164.291 85.401 163.247C102.496 141.206 115.895 116.378 125.042 89.7885C127.614 82.3514 129.838 74.7991 131.712 67.1316C132.463 64.0548 127.846 62.7385 127.087 65.8236L127.111 65.8482Z" fill="#2D2FEE"/>
<path d="M333.447 139.068C323.588 132.919 314.034 126.291 304.783 119.183C300.349 115.769 295.995 112.231 291.713 108.62C287.774 105.329 283.828 101.956 279.682 98.9039C275.625 95.8453 271.246 93.2677 266.628 91.2199C264.374 90.245 262.043 89.4689 259.662 88.8999C257.068 88.3982 254.432 88.1667 251.793 88.2089C250.486 88.2062 249.181 88.0879 247.894 87.8551C246.483 87.5102 245.102 87.048 243.764 86.473C241.367 85.5434 239.01 84.4903 236.646 83.462C232.532 81.6767 228.21 80.237 224.431 77.7442C222.737 76.7165 221.184 75.4604 219.813 74.0092C218.407 72.4297 216.338 71.7715 214.373 71.2121C211.848 70.4881 209.284 69.9781 206.799 69.1142C201.847 67.368 197.227 64.7485 193.147 61.3727C192.348 60.7146 191.125 59.9412 190.862 58.8635C190.654 57.975 191.253 57.6295 192.004 57.4156C193.115 57.2649 194.244 57.3404 195.327 57.6377C197.023 58.0209 198.695 58.5044 200.336 59.0856C204.043 60.3361 207.662 61.8252 211.345 63.1333C212.815 63.6516 214.541 64.4496 216.138 64.4002C217.21 64.3429 218.221 63.8729 218.971 63.0834C219.722 62.294 220.156 61.2428 220.189 60.1387C220.189 57.9503 218.719 56.6751 217.177 55.4822C215.635 54.2893 213.941 53.1787 212.28 52.1174C209.084 50.0854 205.945 48.078 202.821 45.9555C199.522 43.7095 196.43 41.2661 193.29 38.7569C191.748 37.5064 190.159 36.2888 188.721 34.915C187.283 33.5411 185.909 31.978 187.291 30.094C187.431 29.9069 187.598 29.7432 187.786 29.6086C188.066 29.4112 187.442 29.7155 187.898 29.5675C188.145 29.4852 188.393 29.4112 188.641 29.3536C189.669 29.1287 190.736 29.1912 191.733 29.5345C193.746 30.2009 195.439 31.7311 197.109 33.0063C199.322 34.6517 201.703 36.075 204.051 37.5229L211.88 42.3439L219.366 46.9509C219.594 47.0643 219.85 47.1011 220.099 47.056C220.349 47.011 220.578 46.8864 220.754 46.7C220.931 46.5135 221.046 46.2746 221.084 46.017C221.121 45.7593 221.079 45.4961 220.964 45.2644C220.396 44.0041 219.766 42.7739 219.078 41.5788C217.443 38.9642 215.608 36.4882 213.59 34.1745C209.54 29.4934 204.946 25.3553 200.6 21.0115C198.419 18.8231 196.302 16.5772 194.337 14.1749C193.434 13.0725 192.364 11.8796 192.739 10.3165C192.893 9.77121 193.187 9.27903 193.591 8.89226C193.995 8.50549 194.493 8.23859 195.032 8.11992C196.286 7.80729 197.572 8.42432 198.643 9.04956C199.991 9.86003 201.229 10.8503 202.326 11.9948C204.722 14.4629 207.119 17.0214 209.396 19.5965C211.673 22.1715 213.965 24.5984 216.346 27.0007C218.471 29.1479 220.404 31.5008 222.649 33.5246C223.736 34.529 224.919 35.4167 226.18 36.1737C226.724 36.5943 227.356 36.8763 228.026 36.9964C228.805 36.8407 229.509 36.4172 230.023 35.7952C230.412 35.4203 230.701 34.9487 230.861 34.4257C231.022 33.9028 231.05 33.346 230.942 32.8089C230.632 31.8357 230.1 30.9529 229.392 30.2338C224.846 24.475 220.045 18.9383 215.507 13.1712C213.606 10.7608 211.209 8.76984 209.588 6.13723C209.204 5.51198 208.789 4.89497 208.445 4.2615C207.878 3.2249 209.691 2.52562 210.474 2.45158C211.959 2.48238 213.407 2.93198 214.66 3.75143C215.921 4.48209 217.095 5.35994 218.16 6.36758C220.644 8.64644 222.953 11.1639 225.222 13.6649C229.986 18.8723 234.474 24.3401 238.667 30.0446C239.644 31.4861 240.711 32.8602 241.863 34.1581L245.497 37.9836C246.224 38.7487 246.935 39.5632 247.694 40.2954C248.733 41.2908 250.091 42.0888 251.561 41.5294C253.031 40.97 253.542 39.5632 253.662 38.107C254.173 31.5995 251.553 24.7876 253.942 18.4694C254.423 17.168 255.175 15.9912 256.147 15.0223C256.945 14.1996 258.727 13.5332 259.078 15.1292C259.821 18.5352 259.829 22.1468 259.933 25.6186C260.006 29.1225 260.772 32.5743 262.186 35.7623C263.632 39.0531 265.478 42.1135 267.187 45.2397L272.644 55.219C274.241 58.1971 275.839 61.2246 278.491 63.3718C281.144 65.5191 284.371 67.0822 287.279 68.8592C290.475 70.7678 293.606 72.7176 296.754 74.6592C302.916 78.46 309.073 82.2608 315.224 86.0617C327.311 93.5728 339.318 101.257 350.798 109.722C353.616 111.795 356.399 113.921 359.147 116.098C359.421 116.264 359.748 116.311 360.056 116.228C360.364 116.146 360.627 115.941 360.788 115.658C360.949 115.375 360.995 115.039 360.915 114.722C360.835 114.404 360.635 114.133 360.361 113.967C343.656 100.73 325.57 89.5499 307.515 78.4189L293.415 69.723C291.098 68.2998 288.781 66.8847 286.44 65.5026C284.282 64.3431 282.193 63.0519 280.185 61.636C278.279 60.0134 276.728 57.9949 275.631 55.7126L271.557 48.2672L267.467 40.789C266.166 38.5437 264.987 36.2256 263.936 33.8455C262.961 31.4234 262.419 28.8397 262.338 26.2191C262.234 23.5207 262.194 20.8469 261.875 18.165C261.651 16.281 261.763 13.5744 260.069 12.3568C258.12 10.95 255.739 11.9043 254.229 13.4921C251.313 16.5525 250.474 21.0362 250.538 25.1825C250.578 27.8151 250.962 30.4231 251.177 33.0392C251.291 34.3356 251.336 35.6373 251.313 36.9388C251.313 37.9095 251.313 39.9005 249.867 38.9461C249.28 38.4819 248.744 37.9522 248.27 37.3666L245.545 34.5118L243.093 31.9286C242.283 30.9982 241.533 30.0144 240.848 28.9834C234.776 20.5548 228.022 12.67 220.66 5.41326C219.121 3.83542 217.37 2.49434 215.459 1.43144C213.598 0.460661 211.289 -0.394936 209.204 0.238536C207.455 0.756832 205.385 2.52562 205.945 4.63994C206.35 5.64858 206.887 6.59525 207.542 7.45354C208.876 9.40414 210.391 11.2171 212.064 12.8668C213.862 14.8413 215.451 17.0297 217.137 19.0946C220.572 23.3068 224.079 27.4449 227.459 31.7065C227.85 32.2001 228.489 32.7101 228.593 33.3518C228.697 33.9935 227.93 34.4378 227.419 34.7422H228.633C225.613 33.3272 223.28 30.9167 221.02 28.4733C218.575 25.8325 216.019 23.3068 213.59 20.6495C211.026 17.8688 208.533 15.0141 205.929 12.2745C203.532 9.71594 200.912 6.95992 197.484 5.90688C196.213 5.48934 194.838 5.55046 193.607 6.07933C192.375 6.6082 191.365 7.57044 190.758 8.79452C189.16 12.1922 191.78 14.9894 193.834 17.367C198.347 22.6075 203.54 27.1652 208.341 32.126C211.016 34.8001 213.472 37.6977 215.683 40.789C216.907 42.6197 217.991 44.5451 218.927 46.5478L220.572 44.8531L204.595 34.9808C202.189 33.5523 199.856 31.9981 197.604 30.3244C195.984 28.9144 194.13 27.8164 192.132 27.0829C190.398 26.5729 187.994 26.54 186.428 27.593C185.646 28.1724 185.04 28.9688 184.68 29.8894C184.321 30.81 184.223 31.8168 184.399 32.7924C184.838 34.6353 186.388 36.1408 187.754 37.3172C189.472 38.7981 191.237 40.2131 192.995 41.6281C196.19 44.2278 199.522 46.6383 202.925 48.983C206.057 51.1384 209.316 53.0964 212.512 55.1614C214.149 56.1514 215.695 57.2943 217.129 58.5756C217.458 58.8521 217.687 59.2349 217.778 59.6619C217.869 60.0889 217.818 60.5352 217.632 60.9284C217.097 61.9486 216.114 62.0308 215.14 61.7511C211.585 60.7721 208.158 59.2831 204.698 58.0079C201.239 56.7327 197.74 55.3588 194.089 54.931C192.832 54.7265 191.544 54.9038 190.382 55.4411C188.209 56.5517 187.986 59.1843 189.368 61.0848C190.154 62.0189 191.05 62.848 192.036 63.5528C193.101 64.4084 194.188 65.2311 195.296 66.0209C197.572 67.5689 199.978 68.9043 202.485 70.011C204.862 71.0752 207.317 71.9418 209.827 72.6024C212.328 73.2524 215.068 73.6555 217.345 74.98C217.868 75.3723 218.334 75.8406 218.727 76.3704C219.512 77.1311 220.356 77.8244 221.251 78.4435C223.002 79.7767 224.875 80.9312 226.843 81.8906C228.913 82.8943 231.062 83.717 233.171 84.6055C235.567 85.6174 237.964 86.7034 240.417 87.7317C242.869 88.7601 245.426 89.953 248.07 90.3808C250.882 90.8333 253.726 90.6111 256.554 90.8662C261.627 91.3269 266.692 93.6304 271.094 96.1478C280.297 101.388 288.086 108.834 296.298 115.498C305.534 122.984 315.12 129.993 325.058 136.526C327.487 138.122 329.932 139.687 332.392 141.223C332.667 141.389 332.994 141.436 333.301 141.353C333.609 141.271 333.873 141.066 334.034 140.783C334.195 140.5 334.24 140.164 334.16 139.846C334.08 139.529 333.881 139.258 333.606 139.092L333.447 139.068Z" fill="#2D2FEE"/>
<path d="M204.163 83.8487C203.676 83.9389 203.211 84.1292 202.797 84.4081L187.155 94.6424C183.592 96.9706 179.813 99.5785 178.367 103.692C177.68 105.609 177.568 106.744 178.711 108.39C179.589 109.495 180.639 110.443 181.818 111.195C184.926 113.128 187.698 115.605 190.806 117.53C192.619 118.657 194.481 119.8 196.574 120.129C201.048 120.845 205.17 117.744 208.693 114.815C214.74 109.796 221.044 104.416 223.76 96.9212C224.271 95.5227 224.615 93.8691 223.856 92.5939C223.348 91.8754 222.679 91.294 221.906 90.8992L214.836 86.5142C212.82 85.1102 210.601 84.0439 208.261 83.3551C207.772 83.248 207.265 83.248 206.775 83.3551L204.163 83.8487Z" fill="#2D2FEE"/>
<path d="M203.844 82.6558C202.014 83.0918 200.288 84.5809 198.739 85.601L190.957 90.7099C185.685 94.1652 178.974 97.4724 176.977 103.996C175.267 109.558 181.579 112.347 185.102 114.971C189.432 118.204 194.377 122.375 200.081 121.199C202.665 120.528 205.077 119.287 207.151 117.563C209.252 115.975 211.265 114.272 213.246 112.511C217.113 109.13 220.844 105.387 223.32 100.78C224.567 98.4514 226.212 95.2018 225.142 92.5527C224.583 91.1542 223.368 90.3808 222.162 89.6322L217.449 86.7116C214.748 85.0662 212 83.0424 208.892 82.2527C207.207 81.8249 205.513 82.3514 203.844 82.6804C202.334 82.9766 202.973 85.3542 204.483 85.058C205.553 84.8524 206.831 84.3752 207.926 84.548C210.418 84.9511 212.775 86.6952 214.892 88.0033C217.201 89.4347 219.606 90.7757 221.834 92.3224C222.337 92.6134 222.724 93.0762 222.93 93.6307C223.136 94.1852 223.147 94.7963 222.961 95.3581C222.673 96.5213 222.246 97.6432 221.691 98.6982C219.598 102.968 216.346 106.456 212.903 109.599C211.177 111.17 209.38 112.676 207.582 114.165C205.698 115.844 203.586 117.23 201.311 118.278C200.204 118.754 199.014 118.988 197.815 118.965C196.615 118.942 195.434 118.664 194.345 118.147C192.033 116.978 189.839 115.578 187.794 113.967C186.707 113.145 185.637 112.322 184.542 111.565C183.448 110.808 182.497 110.282 181.547 109.533C180.776 108.968 180.101 108.276 179.549 107.485C178.854 106.423 179.006 105.51 179.398 104.358C180.748 100.352 184.487 97.9085 187.786 95.7366L191.724 93.1615L199.601 87.9951L202.453 86.1193C203.067 85.6452 203.756 85.286 204.491 85.058C205.985 84.6796 205.353 82.302 203.844 82.6558Z" fill="#2D2FEE"/>
<path d="M176.873 106.662C177.344 108.941 178.982 110.965 180.428 112.676C181.955 114.534 183.681 116.209 185.573 117.67C187.258 118.936 188.96 120.261 190.718 121.421C192.972 122.845 195.653 123.374 198.259 122.91C200.541 122.406 202.709 121.463 204.65 120.129C206.456 118.969 208.261 117.744 209.963 116.411C213.246 113.727 216.245 110.694 218.91 107.361C220.675 105.301 222.26 103.085 223.648 100.739C224.558 99.1425 225.605 97.1187 225.381 95.1936C225.197 93.6387 222.801 93.6141 222.985 95.1936C223.136 96.5099 222.449 97.9003 221.778 99.1343C220.727 101.008 219.519 102.784 218.167 104.441C215.574 107.734 212.706 110.787 209.595 113.564C208.321 114.637 206.988 115.631 205.601 116.542C203.902 117.788 202.081 118.847 200.168 119.702C197.946 120.729 195.423 120.829 193.13 119.981C191.213 119.2 189.567 117.513 187.89 116.296C186.153 115.04 184.547 113.604 183.096 112.009C181.578 110.364 179.669 108.291 179.19 105.979C178.87 104.424 176.561 105.082 176.881 106.637L176.873 106.662Z" fill="#2D2FEE"/>
<path d="M209.987 99.2412C214.319 99.2412 217.832 96.7034 217.832 93.5729C217.832 90.4423 214.319 87.9045 209.987 87.9045C205.654 87.9045 202.142 90.4423 202.142 93.5729C202.142 96.7034 205.654 99.2412 209.987 99.2412Z" stroke="white" stroke-miterlimit="10" stroke-linecap="round"/>
<path d="M209.987 100.179C214.055 100.179 217.353 97.6082 217.353 94.4367C217.353 91.2653 214.055 88.6943 209.987 88.6943C205.919 88.6943 202.621 91.2653 202.621 94.4367C202.621 97.6082 205.919 100.179 209.987 100.179Z" fill="white" stroke="#2D2FEE" stroke-miterlimit="10" stroke-linecap="round"/>
<path d="M199.442 99.4963C198.771 99.1779 198.152 98.7563 197.604 98.2458C197.307 97.9063 196.932 97.6492 196.513 97.4982C196.094 97.3473 195.645 97.3073 195.208 97.3819C194.407 97.5726 193.634 97.8685 192.907 98.2622C192.146 98.6264 191.412 99.0471 190.71 99.5209C190.471 99.6794 190.294 99.9197 190.211 100.199C190.127 100.479 190.142 100.78 190.253 101.049C190.363 101.319 190.563 101.539 190.816 101.672C191.069 101.805 191.36 101.841 191.637 101.775C191.825 101.774 192.008 101.831 192.164 101.94C192.336 102.055 192.476 102.213 192.571 102.4C192.652 102.642 192.662 102.903 192.599 103.15C192.537 103.397 192.405 103.62 192.22 103.791C191.983 103.99 191.706 104.132 191.409 104.207C191.113 104.282 190.803 104.288 190.504 104.224C190.204 104.16 189.923 104.028 189.679 103.838C189.436 103.648 189.237 103.404 189.096 103.124C189.005 102.812 188.801 102.548 188.525 102.387C188.25 102.227 187.925 102.181 187.618 102.261C187.314 102.349 187.055 102.557 186.898 102.84C186.741 103.124 186.698 103.459 186.779 103.774C187.882 106.719 192.036 107.888 194.121 105.296C194.593 104.741 194.895 104.054 194.989 103.322C195.083 102.59 194.964 101.846 194.648 101.183C194.301 100.527 193.76 100.001 193.104 99.6817C192.448 99.3624 191.71 99.2658 190.998 99.4058L191.924 101.66C193.025 100.875 194.234 100.265 195.511 99.85C195.598 99.8146 195.69 99.7952 195.783 99.7924C195.647 99.7924 195.663 99.6937 195.743 99.7924C195.956 100.043 196.201 100.265 196.47 100.451C197.016 100.904 197.611 101.29 198.243 101.602C198.52 101.758 198.844 101.799 199.148 101.717C199.453 101.634 199.715 101.434 199.881 101.158C200.039 100.876 200.084 100.541 200.005 100.226C199.925 99.9101 199.729 99.6393 199.458 99.4716L199.442 99.4963Z" fill="white"/>
<path d="M200.88 103.149C201.727 104.794 203.452 105.527 205.066 106.111L204.539 104.046C203.975 104.53 203.331 104.906 202.637 105.156C201.828 105.549 201.042 105.989 200.281 106.473C198.739 107.457 197.302 108.604 195.991 109.895C195.779 110.129 195.664 110.438 195.669 110.758C195.675 111.078 195.8 111.383 196.02 111.609C196.24 111.835 196.536 111.964 196.846 111.97C197.157 111.976 197.457 111.857 197.684 111.639C198.917 110.422 200.278 109.351 201.743 108.447C202.493 107.986 203.26 107.567 204.043 107.188C204.859 106.883 205.604 106.407 206.232 105.79C206.377 105.635 206.48 105.445 206.532 105.238C206.585 105.03 206.584 104.812 206.532 104.605C206.479 104.398 206.375 104.208 206.23 104.054C206.085 103.899 205.905 103.786 205.705 103.725C205.393 103.618 205.082 103.503 204.77 103.371C204.922 103.429 204.523 103.256 204.483 103.239C204.443 103.223 204.187 103.083 204.043 103.001C203.9 102.918 203.762 102.828 203.628 102.729C203.516 102.647 203.5 102.631 203.628 102.729L203.444 102.565C203.246 102.397 203.09 102.183 202.989 101.94C202.913 101.793 202.809 101.665 202.684 101.561C202.558 101.457 202.414 101.38 202.259 101.335C202.104 101.29 201.941 101.277 201.782 101.298C201.622 101.319 201.468 101.373 201.329 101.456C201.19 101.54 201.068 101.651 200.972 101.784C200.876 101.917 200.806 102.068 200.768 102.229C200.73 102.391 200.724 102.558 200.75 102.722C200.776 102.885 200.834 103.042 200.92 103.182L200.88 103.149Z" fill="white"/>
<path d="M197.404 106.612C198.773 107.583 200.105 108.579 201.399 109.599C201.537 109.683 201.69 109.738 201.849 109.761C202.008 109.784 202.17 109.773 202.325 109.73C202.622 109.638 202.876 109.436 203.036 109.163C203.119 109.021 203.172 108.863 203.192 108.698C203.213 108.534 203.201 108.368 203.156 108.208C203.06 107.904 202.865 107.643 202.605 107.468C201.287 106.448 199.937 105.452 198.611 104.482C198.34 104.332 198.023 104.295 197.726 104.377C197.429 104.46 197.174 104.656 197.013 104.926C196.861 105.21 196.822 105.544 196.902 105.858C196.982 106.172 197.176 106.442 197.444 106.612H197.404Z" fill="white"/>
<path d="M203.812 71.7715C201.857 70.1049 200.552 67.768 200.137 65.19C200.042 64.581 200.007 63.9635 200.033 63.3472C200.033 63.306 200.033 63.0346 200.081 63.0263C200.129 63.0181 199.889 63.2155 199.849 63.2402C199.969 63.158 199.985 63.2402 199.849 63.2402C199.985 63.2402 199.953 63.2402 200.033 63.3061C200.349 63.7451 200.568 64.2508 200.672 64.7869C201.445 67.2934 201.804 69.9159 201.735 72.5449L204.131 72.2158L201.471 62.3435C201.393 62.0896 201.239 61.8679 201.031 61.7105C200.823 61.553 200.571 61.4681 200.313 61.4681C200.054 61.4681 199.802 61.553 199.594 61.7105C199.386 61.8679 199.232 62.0896 199.154 62.3435L198.954 63.3307C198.878 63.6403 198.917 63.9683 199.066 64.249C199.214 64.5297 199.459 64.7424 199.753 64.8445C200.061 64.9304 200.388 64.8879 200.665 64.7261C200.942 64.5642 201.145 64.2963 201.231 63.9807L201.431 63.0017H199.114L201.782 72.8739C201.863 73.1578 202.039 73.4026 202.28 73.5637C202.521 73.7247 202.81 73.7914 203.095 73.7515C203.379 73.7117 203.64 73.5679 203.831 73.3465C204.021 73.125 204.127 72.8406 204.131 72.5449C204.178 70.4778 203.988 68.4122 203.564 66.3911C203.358 65.4093 203.091 64.4421 202.765 63.4953C202.527 62.5683 201.989 61.7528 201.239 61.1835C200.85 60.9359 200.402 60.8047 199.945 60.8047C199.488 60.8047 199.04 60.9359 198.651 61.1835C198.274 61.4889 197.981 61.8898 197.801 62.3471C197.62 62.8043 197.558 63.302 197.62 63.7914C197.649 65.5792 198.029 67.3425 198.739 68.9744C199.501 70.7602 200.655 72.3399 202.11 73.5897C202.339 73.813 202.642 73.9376 202.957 73.9376C203.272 73.9376 203.575 73.813 203.804 73.5897C204.026 73.3573 204.151 73.044 204.151 72.7176C204.151 72.3913 204.026 72.078 203.804 71.8456L203.812 71.7715Z" fill="#2D2FEE"/>
<path d="M211.489 76.7242C211.109 75.0464 211.109 73.3013 211.489 71.6235C211.67 70.8086 211.938 70.0168 212.288 69.2624C212.439 68.9415 212.975 67.7158 213.246 67.7075C213.095 67.7075 213.302 67.7898 213.358 67.9132C213.439 68.2211 213.408 68.5488 213.27 68.8346C212.917 69.689 212.5 70.5141 212.024 71.3027L209.068 76.9299L211.265 77.876C212.181 74.6043 213.362 71.4175 214.796 68.3492C214.948 68.0635 214.988 67.7286 214.908 67.4135C214.828 67.0983 214.633 66.8267 214.365 66.6545C214.093 66.5068 213.777 66.4704 213.481 66.5529C213.185 66.6353 212.929 66.8303 212.767 67.0987C211.238 70.3613 209.974 73.7486 208.988 77.226C208.922 77.5128 208.956 77.8147 209.086 78.0776C209.216 78.3405 209.432 78.5473 209.696 78.6611C209.96 78.7748 210.255 78.7881 210.528 78.6985C210.801 78.609 211.034 78.4224 211.185 78.1722L214.029 72.7424C214.868 71.1464 216.362 69.0896 215.683 67.181C215.545 66.733 215.301 66.3273 214.973 66C214.646 65.6726 214.245 65.434 213.806 65.3053C213.358 65.2063 212.893 65.237 212.461 65.3938C212.03 65.5506 211.649 65.8276 211.361 66.1938C210.263 67.6334 209.525 69.3283 209.212 71.1299C208.787 73.1887 208.814 75.3194 209.292 77.3659C209.643 78.9126 211.96 78.2544 211.601 76.7078L211.489 76.7242Z" fill="#2D2FEE"/>
<path d="M227.594 107.74C229.987 109.454 232.626 110.773 235.415 111.647C237.716 112.371 240.752 113.178 242.413 110.825C242.549 110.591 242.604 110.317 242.571 110.048C242.538 109.778 242.417 109.527 242.23 109.336C238.363 105.847 233.114 105.436 228.201 105.222C227.943 105.231 227.694 105.325 227.491 105.491C227.289 105.656 227.143 105.884 227.076 106.141C227.009 106.398 227.024 106.671 227.119 106.919C227.213 107.167 227.383 107.376 227.602 107.517C231.458 109.668 235.721 110.931 240.097 111.22C240.358 111.214 240.609 111.121 240.815 110.955C241.02 110.789 241.167 110.559 241.235 110.299C241.302 110.04 241.286 109.764 241.189 109.515C241.092 109.266 240.919 109.056 240.696 108.916C238.907 107.933 237.007 107.182 235.04 106.678C233.546 106.292 232.907 108.669 234.401 109.056C236.17 109.501 237.879 110.17 239.49 111.047L240.097 108.752C236.142 108.482 232.291 107.334 228.808 105.387L228.201 107.69C232.403 107.863 237.205 108.06 240.536 111.063L240.344 109.566C239.977 110.084 238.97 109.969 238.459 109.895C237.336 109.695 236.234 109.387 235.168 108.974C232.895 108.161 230.744 107.026 228.777 105.601C228.505 105.451 228.189 105.414 227.892 105.496C227.595 105.579 227.34 105.775 227.179 106.045C227.025 106.33 226.984 106.666 227.064 106.981C227.145 107.297 227.34 107.569 227.61 107.74H227.594Z" fill="#2D2FEE"/>
<path d="M231.66 100.475C235.525 100.376 239.375 99.9496 243.172 99.2001C243.348 99.1486 243.511 99.0567 243.647 98.9311C243.783 98.8055 243.89 98.6497 243.96 98.4753C244.029 98.3009 244.059 98.1126 244.047 97.9246C244.035 97.7366 243.982 97.5538 243.891 97.3901C242.589 95.5062 240.408 95.0043 238.299 95.3005C236.006 95.6296 234.017 97.1269 231.708 97.3325C231.394 97.3428 231.095 97.4761 230.872 97.7054C230.649 97.9346 230.52 98.2425 230.51 98.5666C230.512 98.8932 230.639 99.2058 230.863 99.4368C231.088 99.6677 231.391 99.7984 231.708 99.8006L233.514 99.669C233.829 99.6606 234.129 99.528 234.352 99.2983C234.575 99.0687 234.704 98.7596 234.712 98.4349C234.71 98.1083 234.583 97.7957 234.359 97.5647C234.135 97.3338 233.831 97.203 233.514 97.2009L231.708 97.3325V99.8006C233.937 99.6032 235.823 98.4432 237.948 97.8755C239.226 97.5382 241.047 97.4888 241.838 98.6406L242.549 96.8225C238.958 97.5261 235.315 97.9224 231.66 98.0071C230.119 98.0071 230.111 100.475 231.66 100.475Z" fill="#2D2FEE"/>
<path d="M178.734 105.033C179.523 106.737 180.627 108.266 181.986 109.533C183.24 110.858 184.382 112.281 185.661 113.605C186.755 114.698 187.924 115.707 189.16 116.625C190.214 117.612 191.384 118.461 192.643 119.15C194.466 119.965 196.5 120.136 198.427 119.636C200.323 118.92 202.099 117.904 203.692 116.625C205.657 115.177 207.542 113.63 209.515 112.199C211.273 110.932 213.015 109.64 214.66 108.217C216.589 106.612 218.322 104.772 219.821 102.738C221.179 100.829 223.017 98.8217 223.688 96.5264C223.799 96.1397 223.216 95.9834 223.104 96.3618C222.497 98.3692 220.939 100.039 219.781 101.726C218.542 103.529 217.111 105.185 215.515 106.662C212.319 109.624 208.693 112.034 205.265 114.683C203.668 116.005 201.962 117.183 200.168 118.204C199.416 118.642 198.61 118.974 197.772 119.191C196.496 119.401 195.191 119.311 193.953 118.928C192.612 118.492 191.38 117.759 190.342 116.781C189.12 115.835 187.946 114.872 186.771 113.828C185.597 112.783 184.566 111.359 183.416 110.142C181.914 108.579 180.148 106.975 179.342 104.885C179.198 104.523 178.615 104.679 178.758 105.049L178.734 105.033Z" fill="white"/>
</g>
<defs>
<clipPath id="clip0">
<rect width="361" height="172" fill="white"/>
</clipPath>
</defs>
</svg>
