<svg width="655" height="670" viewBox="0 0 655 670" fill="none" xmlns="http://www.w3.org/2000/svg">
<g clip-path="url(#clip0)">
<path d="M169.187 652.796C196.284 644.643 222.522 633.868 247.53 620.625C273.801 606.709 296.339 593.356 313.553 579.807C300.244 564.314 288.344 547.663 277.995 530.052C263.067 505.326 260.501 491.409 261.914 489.422C266.894 482.423 250.909 486.604 261.068 493.359C273.274 501.469 304.64 510.772 335.839 519.227C338.992 520.084 394.324 528.236 400.407 511.233C402.719 504.786 399.174 483.8 399.25 473.019C399.438 441.997 399.013 443.182 390.147 445.561C378.741 448.593 372.291 451.516 360.252 449.539C294.864 438.839 306.306 388.761 306.306 388.761L256.441 352.191L107.641 426.845L150.485 553.217L169.187 652.796Z" fill="white"/>
<path d="M278.617 130.811C292.253 136.249 307.719 142.919 316.554 155.318C322.411 163.589 323.761 173.749 325.262 183.508C326.39 190.426 327.934 197.195 329.534 204.023C332.111 214.971 334.316 226.012 336.943 236.954C341.588 256.408 347.082 276.827 360.24 292.345C372.744 306.989 391.581 317.441 411.116 313.536L408.533 312.011C411.552 317.602 405.543 323.241 401.989 326.968C397.405 331.443 393.276 336.361 389.661 341.65C384.187 350.21 382.164 360.53 383.999 370.525C385.287 377.373 387.091 384.114 389.396 390.69L390.675 387.452C379.318 391.162 367.98 395.17 356.297 397.836C345.822 400.14 334.845 401.32 324.313 398.696C318.237 397.117 312.559 394.28 307.648 390.368C307.122 389.96 306.456 389.775 305.795 389.854C305.133 389.933 304.53 390.27 304.115 390.791C303.876 391.113 303.715 391.486 303.645 391.881C302.939 399.903 303.158 408.148 306.182 415.723C309.179 422.634 313.747 428.751 319.521 433.586C326.273 439.582 333.943 445.45 342.46 448.65C350.662 451.571 359.428 452.554 368.073 451.521C378.509 450.555 388.675 447.754 398.871 445.484L396.288 443.958C397.102 447.693 397.557 451.497 397.648 455.318C397.923 460.404 397.966 465.502 397.977 470.603C397.973 481.159 397.654 491.719 398.182 502.261C398.297 506.848 398.894 511.41 399.961 515.872L401.953 512.465C379.671 517.783 356.521 521.571 333.728 517.195C322.043 514.959 311.436 510.042 300.316 505.987C289.197 501.931 277.602 498.367 266.422 494.085C253.985 489.559 242.296 483.196 231.742 475.208C231.222 474.828 230.576 474.665 229.939 474.752C229.302 474.84 228.723 475.172 228.326 475.678C227.928 476.184 227.742 476.824 227.808 477.464C227.873 478.104 228.184 478.694 228.675 479.11C247.916 494.199 271.288 500.906 293.915 508.904C305.453 512.976 316.555 518.267 328.51 521.088C339.447 523.585 350.681 524.52 361.88 523.865C375.592 522.936 389.19 520.75 402.503 517.335C402.834 517.285 403.152 517.17 403.439 516.996C403.725 516.823 403.975 516.594 404.173 516.325C404.372 516.055 404.515 515.748 404.595 515.423C404.674 515.097 404.689 514.759 404.639 514.428C404.634 514.257 404.614 514.086 404.578 513.919C403.763 510.178 403.307 506.369 403.216 502.542C402.924 497.458 402.881 492.361 402.889 487.274C402.892 476.718 403.212 466.158 402.684 455.616C402.552 451.031 401.956 446.47 400.905 442.005C400.701 441.5 400.335 441.076 399.865 440.8C399.394 440.525 398.846 440.413 398.306 440.482C382.266 444.069 365.108 449.591 348.661 445.306C340.05 443.002 332.759 437.788 325.911 432.238C320.571 427.875 315.409 422.906 312.264 416.679C308.468 409.196 307.967 400.835 308.749 392.604L304.771 394.181C313.929 401.259 325.185 405.082 336.758 405.043C348.774 405.173 360.619 402.188 372.032 398.671C378.982 396.572 385.851 394.215 392.748 391.956C393.336 391.689 393.799 391.204 394.038 390.603C394.276 390.003 394.273 389.333 394.029 388.734C390.748 378.588 386.883 367.462 388.809 356.676C390.89 344.955 399.76 336.756 407.442 328.383C411.862 323.535 416.818 316.755 413.182 310.054C412.967 309.556 412.599 309.141 412.132 308.867C411.664 308.593 411.122 308.475 410.583 308.531C393.391 311.955 376.951 303.418 365.614 290.868C351.996 275.823 346.394 255.616 341.815 236.304C339.189 225.363 336.984 214.321 334.407 203.374C332.822 196.676 331.294 190.039 330.196 183.234C328.572 173.14 327.174 162.852 321.699 154.019C312.763 139.797 295.61 132.129 280.647 126.182C277.672 125.004 275.684 129.561 278.659 130.739L278.617 130.811Z" fill="#2D2FEE"/>
<path d="M87.0002 395.615C102.27 425.963 115.674 457.214 127.137 489.194C138.59 521.108 148.058 553.701 155.485 586.785C159.646 605.397 163.15 624.132 165.996 642.99C166.472 646.134 171.404 645.561 170.926 642.4C165.824 608.729 158.646 575.405 149.433 542.621C140.194 509.818 128.936 477.618 115.724 446.205C108.234 428.47 100.168 410.981 91.5262 393.74C90.1039 390.908 85.4957 392.794 86.9344 395.623L87.0002 395.615Z" fill="#2D2FEE"/>
<path d="M256.476 495.242C265.84 519.742 279.041 542.596 295.582 562.948C300.315 568.785 305.309 574.396 310.565 579.781C312.77 582.051 316.744 579.041 314.524 576.789C296.356 558.171 281.251 536.791 269.772 513.444C266.576 506.89 263.675 500.195 261.067 493.359C259.927 490.377 255.333 492.244 256.476 495.242Z" fill="#2D2FEE"/>
<path d="M156.208 304.391C166.52 310.193 162.996 308.464 170.206 312.72C177.416 316.977 177.509 315.798 186.512 318.739C195.515 321.681 205.185 330.195 213.475 322.583C215.004 321.152 216.196 319.398 216.963 317.448C217.73 315.499 218.054 313.403 217.91 311.313C214.685 260.273 162.974 218.588 172.235 167.972C172.473 166.674 172.883 165.414 173.453 164.224C178.215 154.016 191.31 156.884 201.756 156.701C218.09 156.414 268.227 139.958 279.692 128.514C294.575 113.593 297.446 78.949 306.64 57.7219C307.206 56.3993 307.352 54.9347 307.058 53.5263C306.764 52.1179 306.045 50.8338 304.997 49.8478V49.8478C304.352 49.2153 303.596 48.7066 302.768 48.3471C291.568 43.4844 277.04 42.2884 264.811 41.3674C251.352 40.3269 236.236 45.5043 230.402 57.4749C229.89 58.6529 229.271 59.7817 228.555 60.8475C216.257 77.7271 195.308 46.7008 180.381 55.9578C170.948 61.8224 175.666 77.5659 167.021 84.4369C163.048 87.597 157.424 87.8199 152.263 87.8706L51.6239 89.3101C48.1297 89.3615 44.2982 89.5199 41.6427 91.7053C39.6335 93.7946 38.3006 96.4413 37.8178 99.3C31.6099 121.709 25.4033 144.13 19.198 166.561C17.6308 172.268 15.7223 178.466 10.6095 181.846C5.49672 185.226 -1.36612 184.847 -7.10697 187.018C-23.2803 193.106 -23.8437 215.418 -16.1683 230.107C8.31898 277.051 48.8977 311.931 72.0359 360.137C81.7435 380.386 89.0247 401.809 101.297 420.784C102.895 423.278 104.789 425.869 107.689 426.839C110.173 427.676 112.912 427.165 115.53 427.452C130.286 429.021 130.508 451.489 143.567 458.097C154.726 463.731 172.257 456.18 179.344 466.087C167.947 433.445 156.563 400.813 145.191 368.19C142.617 360.611 140.947 350.273 148.356 346.301" fill="#2D2FEE"/>
<path d="M155.229 306.659C161.236 310.059 167.022 314.252 173.26 317.208C176.597 318.511 180.022 319.578 183.51 320.4C188.699 321.98 193.314 324.746 198.387 326.607C203.094 328.328 208.135 328.942 212.634 326.286C214.929 324.879 216.84 322.925 218.193 320.597C219.547 318.27 220.301 315.642 220.389 312.951C220.371 307.643 219.688 302.358 218.356 297.22C217.195 292.154 215.708 287.169 213.903 282.295C206.494 262.171 194.856 244.038 185.71 224.722C181.158 215.64 177.689 206.053 175.374 196.161C174.298 191.21 173.695 186.167 173.572 181.102C173.545 178.656 173.653 176.211 173.896 173.776C174.024 171.074 174.517 168.401 175.361 165.83C179.086 156.564 192.228 159.126 200.037 159.192C206.59 159.034 213.097 158.053 219.406 156.274C236.209 152.339 252.517 146.528 268.022 138.949C273.839 136.019 279.55 132.767 283.722 127.649C289.541 120.566 292.858 111.648 295.574 103.002C298.604 93.3681 300.858 83.5102 303.631 73.807C304.914 69.2516 306.436 64.767 308.19 60.3716C309.332 58.1888 309.779 55.7091 309.473 53.2645C308.962 50.7556 307.503 48.5408 305.399 47.0821C302.995 45.5907 300.377 44.4757 297.636 43.7757C294.801 42.9311 291.95 42.2219 289.048 41.6521C283.246 40.5625 277.389 39.7938 271.503 39.3496C261.028 38.4522 250.703 38.3874 241.157 43.4484C236.843 45.6385 233.11 48.8228 230.268 52.739C227.935 56.0865 226.788 60.5758 222.892 62.5596C217.363 65.389 210.248 60.9546 205.446 58.4278C199.347 55.2392 192.687 51.2671 185.539 51.7058C181.931 51.9414 178.548 53.5383 176.072 56.1737C173.3 59.1903 172.143 63.314 171.308 67.1992C170.473 71.0844 170.037 75.1052 168.3 78.6981C165.995 83.3928 161.244 84.7786 156.352 85.1306C149.544 85.6285 142.652 85.4196 135.829 85.5191L114.846 85.8127L72.3807 86.4261C65.3757 86.5308 58.3668 86.6026 51.3638 86.7237C45.5742 86.8163 40.0033 87.8999 37.1642 93.4257C36.0209 96.017 35.149 98.7198 34.5624 101.491L31.7332 111.835L26.1782 131.992L20.506 152.565C18.8322 158.635 17.4673 164.918 15.2933 170.847C13.3087 176.271 10.1993 180.095 4.4514 181.65C-0.829784 183.066 -6.33873 183.275 -11.1937 186.023C-18.7046 190.257 -22.5816 198.392 -23.3311 206.752C-23.9867 215.794 -21.9781 224.829 -17.5538 232.741C-11.9271 243.141 -5.65425 253.178 1.22797 262.793C15.0085 282.254 30.4707 300.447 44.4656 319.749C51.5763 329.404 58.093 339.483 63.9795 349.93C70.1257 361.033 75.0412 372.718 80.0987 384.335C85.1126 396.457 90.9751 408.209 97.6427 419.504C100.534 424.161 103.674 429.088 109.715 429.565C112.241 429.78 114.827 429.387 117.285 430.143C118.899 430.667 120.38 431.537 121.624 432.692C127.232 437.774 129.549 445.984 133.805 452.162C135.964 455.46 138.893 458.182 142.339 460.095C146.287 461.908 150.594 462.806 154.938 462.722C159.238 462.858 163.571 462.573 167.874 463.008C171.52 463.389 175.035 464.352 177.335 467.412C177.713 467.846 178.23 468.136 178.797 468.234C179.365 468.331 179.948 468.229 180.449 467.946C180.95 467.662 181.338 467.214 181.547 466.678C181.756 466.141 181.774 465.549 181.597 465.001L163.839 414.117L155.032 388.857C152.24 380.854 149.038 372.9 146.669 364.662C145.229 359.732 143.783 351.551 149.229 348.448C149.809 348.172 150.263 347.686 150.501 347.089C150.739 346.491 150.742 345.826 150.51 345.226C150.25 344.632 149.766 344.164 149.163 343.924C148.56 343.684 147.887 343.691 147.29 343.944C133.756 351.617 143.419 370.938 147.119 381.517L166.084 435.942L176.922 467.028L181.213 464.58C175.874 457.432 166.343 458.022 158.376 458.025C154.196 458.26 150.008 457.744 146.009 456.504C142.63 455.069 139.769 452.636 137.807 449.532C133.471 443.381 131.144 435.638 125.798 430.108C123.264 427.397 119.893 425.616 116.225 425.051C113.495 424.661 110.292 425.478 107.79 424.21C105.288 422.942 104.117 420.681 102.804 418.62C89.0557 396.92 81.6768 372.174 69.5581 349.746C58.417 329.218 44.1781 310.662 29.8458 292.301C15.5135 273.939 0.990658 255.517 -10.4595 235.194C-14.9914 227.132 -18.6833 218.986 -18.406 209.465C-18.1857 201.834 -15.294 193.684 -8.11461 190.024C-3.05332 187.467 2.81312 187.599 8.03921 185.723C10.4626 184.821 12.6759 183.433 14.5429 181.644C16.4099 179.855 17.8912 177.702 18.8955 175.319C21.2934 170.146 22.4465 164.322 23.9572 158.838L29.5267 138.662C33.1362 125.507 36.6248 112.316 40.39 99.2093C41.0841 96.7918 41.9361 94.0218 44.3257 92.8187C46.9356 91.8268 49.7294 91.4128 52.5148 91.6051C59.5178 91.484 66.5247 91.3958 73.5296 91.2911L114.748 90.7101C128.393 90.5112 142.125 90.7686 155.745 90.089C161.066 89.8358 166.495 88.6857 170.283 84.6806C172.874 81.5511 174.576 77.7824 175.211 73.7689C176.584 67.5516 177.076 58.1547 184.832 56.6595C191.171 55.4506 197.863 59.8356 203.2 62.6485C208.538 65.4615 215.364 69.2968 221.858 67.986C225.26 67.2637 228.27 65.2981 230.299 62.4735C231.914 60.3626 232.777 57.8248 234.284 55.66C235.6 53.7733 237.184 52.0894 238.987 50.6617C246.855 44.4006 257.061 43.0458 266.802 43.7976C278.059 44.6847 289.772 45.6174 300.356 49.7868C302.63 50.6818 304.856 52.0162 304.824 54.8048C304.78 56.9445 303.248 59.3289 302.536 61.3151C300.93 65.7261 299.603 70.2371 298.344 74.7566C295.697 84.2613 293.484 93.8976 290.387 103.256C287.663 111.419 284.332 119.939 278.287 126.248C274.464 130.241 268.129 133.3 262.857 135.766C255.145 139.328 247.238 142.451 239.174 145.12C231.335 147.827 223.357 150.112 215.274 151.966C208.794 153.459 202.147 154.103 195.501 153.882C186.695 153.568 176.183 153.476 171.528 162.487C169.253 166.878 169.028 172.658 168.877 177.529C168.724 182.512 169.053 187.498 169.859 192.419C173.177 212.615 183.324 230.827 192.83 248.699C202.337 266.571 212.523 285.528 215.142 306.159C215.776 311.452 216.15 316.944 211.636 320.735C207.595 324.154 202.671 322.709 198.311 320.813C193.633 318.557 188.812 316.61 183.878 314.986C180.627 314.245 177.457 313.183 174.415 311.817C168.571 308.814 163.114 304.999 157.395 301.781C154.607 300.214 152.654 304.783 155.423 306.336L155.229 306.659Z" fill="#2D2FEE"/>
<path d="M172.084 356.684C163.223 359.112 148.735 356.577 139.158 343.683C130.697 332.323 129.59 320.566 128.716 318.42C125.845 311.276 137.601 300.181 145.654 299.217C153.706 298.254 160.745 305.398 165.346 311.668" fill="white"/>
<path d="M171.156 354.394C165.085 355.726 158.74 354.944 153.172 352.178C145.067 348.379 139.396 341.104 135.882 333.053C134.351 329.654 133.136 326.121 132.252 322.499C131.786 320.554 131.076 318.521 130.792 316.57C130.458 313.776 132.466 310.917 134.145 308.932C136.361 306.298 139.13 304.185 142.255 302.742C151.002 298.811 158.557 306.644 163.367 313.122C163.772 313.621 164.356 313.943 164.994 314.02C165.632 314.097 166.275 313.924 166.788 313.536C167.301 313.149 167.644 312.577 167.744 311.942C167.844 311.307 167.694 310.657 167.326 310.13C162.158 303.162 154.085 295.04 144.532 296.834C140.565 297.734 136.869 299.566 133.75 302.177C130.631 304.789 128.178 308.106 126.594 311.854C125.977 313.432 125.707 315.125 125.804 316.817C125.907 317.686 126.11 318.54 126.409 319.363L126.565 319.828C126.375 319.217 126.616 320.255 126.628 320.354C127.404 323.869 128.376 327.338 129.538 330.744C133.004 340.484 139.031 349.618 148.03 355.028C155.512 359.611 164.508 361.036 173.04 358.988C173.628 358.721 174.09 358.236 174.329 357.635C174.568 357.035 174.565 356.365 174.321 355.766C174.056 355.171 173.575 354.699 172.975 354.446C172.375 354.193 171.702 354.177 171.091 354.402L171.156 354.394Z" fill="#2D2FEE"/>
<path d="M264.61 283.546C272.803 282.748 280.738 280.24 287.901 276.183C295.064 272.126 301.297 266.61 306.196 259.993C308.09 257.432 304.187 254.347 302.295 256.925C297.791 263.018 292.054 268.093 285.458 271.819C278.861 275.545 271.554 277.838 264.012 278.549C260.828 278.83 261.419 283.762 264.602 283.481L264.61 283.546Z" fill="#2D2FEE"/>
<path d="M245.215 252.951C253.43 248.799 260.436 242.597 265.556 234.944C270.675 227.292 273.735 218.448 274.441 209.267C274.66 206.089 269.752 205.326 269.534 208.52C268.952 216.848 266.236 224.885 261.65 231.859C257.064 238.833 250.76 244.508 243.346 248.339C240.5 249.764 242.401 254.372 245.213 252.935L245.215 252.951Z" fill="#2D2FEE"/>
<path d="M244.217 253.971C253.091 251.242 263.269 249.24 270.291 242.73C273.35 239.79 275.979 236.433 278.099 232.757C280.525 228.903 282.644 224.864 284.437 220.677C285.324 218.802 285.814 216.763 285.876 214.69C285.938 212.616 285.57 210.552 284.795 208.628C283.989 206.841 282.662 205.341 280.987 204.324C279.312 203.307 277.368 202.821 275.412 202.931C273.419 202.854 271.459 203.453 269.848 204.63C268.196 206.145 268.599 208.115 268.699 210.204C268.75 214.807 267.756 219.362 265.792 223.525C263.668 227.927 261.159 232.134 258.296 236.095C255.572 240.186 252.549 244.07 249.252 247.716C247.381 249.774 250.044 252.106 252.145 251.555C256.573 250.391 260.149 247.262 263.239 243.974C266.449 240.641 269.444 237.108 272.208 233.396C278.184 225.394 281.752 214.678 275.897 205.59L274.22 209.543C274.952 209.61 275.643 209.911 276.191 210.401C276.738 210.891 277.114 211.544 277.263 212.264C277.57 214.01 277.188 215.808 276.196 217.277C274.075 220.866 270.4 223.307 267.829 226.616L271.73 229.684C274.813 225.074 276.823 219.831 277.611 214.34C277.682 213.681 277.489 213.021 277.074 212.505C276.659 211.989 276.056 211.659 275.398 211.587C274.887 211.528 274.37 211.629 273.918 211.878C273.467 212.126 273.105 212.508 272.88 212.972C270.873 218.064 269.103 223.195 267.325 228.394C267.091 228.993 267.099 229.659 267.346 230.253C267.593 230.847 268.061 231.321 268.651 231.577C269.241 231.832 269.907 231.849 270.509 231.624C271.111 231.398 271.602 230.947 271.879 230.367L275.842 221.705C277.157 218.763 272.737 216.924 271.289 219.732C268.802 224.511 266.014 229.128 262.942 233.554L267.162 236.084C268.688 232.762 270.771 229.727 273.322 227.109L269.323 223.919C267.59 226.592 265.539 229.044 263.213 231.221L266.668 234.742C268.066 232.757 269.732 230.975 271.618 229.448L267.669 227.086L266.715 230.535C265.991 233.123 269.644 234.119 271.11 232.443L280.391 221.828L276.47 221.797C276.637 222.077 273.955 225.016 273.577 225.478C272.399 226.92 271.22 228.345 270.022 229.755C267.628 232.599 265.185 235.392 262.691 238.137L266.592 241.205C271.676 234.362 275.896 226.918 279.157 219.041C279.366 218.447 279.341 217.796 279.088 217.22C278.835 216.643 278.373 216.185 277.795 215.936C277.217 215.688 276.566 215.668 275.974 215.881C275.382 216.094 274.893 216.524 274.606 217.084C270.972 225.156 267.12 233.504 260.654 239.781C257.769 242.671 254.326 244.944 250.535 246.461C246.422 248.021 242.04 248.179 238.203 250.522C237.683 250.93 237.345 251.528 237.264 252.185C237.183 252.841 237.366 253.503 237.772 254.025C238.16 254.518 238.716 254.85 239.334 254.956C244.819 255.317 250.259 253.764 254.727 250.562C257.323 248.717 254.332 244.756 251.719 246.603C248.342 249.039 244.238 250.253 240.08 250.047L241.211 254.481C243.316 253.424 245.578 252.714 247.91 252.379C250.076 251.9 252.187 251.2 254.211 250.29C258.068 248.427 261.574 245.909 264.571 242.847C271.208 236.183 275.307 227.539 279.126 219.061L274.573 217.088C271.487 224.576 267.486 231.653 262.66 238.157C262.28 238.677 262.117 239.323 262.205 239.961C262.293 240.598 262.624 241.177 263.13 241.575C263.636 241.972 264.276 242.158 264.916 242.093C265.556 242.028 266.145 241.717 266.561 241.225C269.914 237.489 273.218 233.758 276.396 229.81C278.916 226.773 283.011 222.965 280.365 218.829C279.953 218.304 279.351 217.963 278.688 217.879C278.026 217.796 277.358 217.978 276.829 218.385C276.682 218.505 276.547 218.638 276.426 218.784L267.146 229.399L271.558 231.306L272.512 227.857C273.108 225.734 270.126 224.223 268.564 225.511C266.317 227.298 264.324 229.383 262.638 231.706C261.079 233.861 263.915 237.223 266.075 235.214C268.74 232.774 271.103 230.023 273.111 227.018C273.518 226.498 273.701 225.838 273.621 225.183C273.541 224.528 273.204 223.932 272.685 223.525C272.165 223.119 271.506 222.935 270.851 223.015C270.196 223.095 269.6 223.432 269.194 223.952C266.38 226.897 264.082 230.295 262.396 234.003C261.248 236.525 264.996 238.878 266.632 236.531C269.957 231.758 272.969 226.775 275.648 221.612L271.095 219.639L267.131 228.301L271.684 230.274C273.394 225.066 275.232 219.944 277.239 214.851L272.664 213.531C272.019 218.179 270.354 222.626 267.788 226.554C266.054 229.196 269.677 232.165 271.689 229.623C275.415 224.958 281.119 221.507 282.195 215.175C283.118 209.795 279.314 204.331 273.62 204.529C273.293 204.575 272.978 204.684 272.693 204.852C272.408 205.019 272.159 205.241 271.96 205.505C271.761 205.769 271.616 206.07 271.533 206.39C271.45 206.71 271.431 207.043 271.476 207.37C271.53 207.779 271.685 208.167 271.928 208.5C276.922 216.24 272.09 225.589 267.011 231.9C264.633 234.869 262.187 237.83 259.549 240.58C257.107 243.492 253.906 245.67 250.301 246.873L253.192 250.696C258.13 245.134 262.539 239.124 266.362 232.745C270.484 226.098 273.646 218.95 273.677 210.992C273.68 210.325 273.922 208.445 273.547 207.956C273.172 207.467 272.905 208.166 273.317 208.267C273.729 208.368 274.142 208.052 274.452 207.998C275.279 207.791 276.143 207.782 276.974 207.972C277.805 208.163 278.579 208.547 279.234 209.093C281.834 211.6 281.1 215.773 279.92 218.732C278.342 222.414 276.501 225.978 274.413 229.397C272.615 232.673 270.4 235.701 267.823 238.406C261.208 244.967 250.99 246.774 242.393 249.454C239.356 250.401 241.241 255.011 244.278 254.064L244.217 253.971Z" fill="#2D2FEE"/>
<path d="M141.83 314.916C140.842 318.405 141.218 322.139 142.88 325.362C144.279 328.464 146.243 331.277 148.673 333.657C149.966 334.826 151.556 335.615 153.268 335.937C154.98 336.258 156.748 336.1 158.376 335.48C159.824 335.04 160.776 334.359 162.136 335.28C163.386 336.151 164.311 337.413 164.766 338.868C165.795 341.896 170.387 340.012 169.359 337C168.85 335.445 168.004 334.021 166.882 332.829C165.76 331.638 164.389 330.708 162.867 330.107C161.107 329.618 159.231 329.76 157.564 330.508C156.316 331.141 154.884 331.312 153.522 330.992C151.151 330.125 149.467 327.058 148.265 324.951C147.063 322.844 145.556 319.589 146.377 316.84C146.617 316.233 146.617 315.559 146.377 314.952C146.137 314.346 145.676 313.854 145.087 313.576C144.493 313.343 143.833 313.346 143.242 313.585C142.651 313.823 142.173 314.278 141.906 314.857L141.83 314.916Z" fill="#2D2FEE"/>
<path d="M513.345 375.271C515.727 368.849 513.365 362.212 510.108 356.582C509.796 355.999 509.266 355.563 508.634 355.37C508.001 355.177 507.318 355.242 506.734 355.552C506.358 355.745 506.042 356.036 505.818 356.395C495.478 373.04 481.402 387.045 464.709 397.3C454.667 403.504 444.004 408.699 433.575 414.183L427.301 417.468L425.825 418.228C425.429 418.438 425.057 418.689 424.715 418.978C425.284 418.443 425.602 418.872 425.061 418.804C424.68 418.816 424.3 418.861 423.927 418.939C421.002 419.289 421.647 423.564 424.304 423.897C453.586 427.062 485.393 414.418 503.748 391.327C508.85 385.017 512.714 377.799 515.137 370.054C515.312 369.433 515.239 368.769 514.933 368.202C514.627 367.634 514.113 367.208 513.499 367.013C512.884 366.818 512.218 366.869 511.641 367.157C511.064 367.444 510.622 367.944 510.407 368.552C502.102 395.676 474.805 413.134 447.983 417.994C440.266 419.42 432.385 419.74 424.578 418.945L424.987 423.898C426.112 423.765 427.182 423.338 428.089 422.66L429.046 422.162L434.225 419.474L447.772 412.333C462.419 404.628 476.658 396.587 488.817 385.093C496.993 377.338 504.139 368.564 510.079 358.987L505.775 358.818C508.383 363.342 510.621 368.527 508.693 373.727C507.585 376.727 512.33 378.211 513.421 375.212L513.345 375.271Z" fill="#2D2FEE"/>
<path d="M426.739 417.619C423.504 415.238 423.698 409.479 424.107 405.928C424.715 400.986 427.614 395.403 432.294 393.276C440.523 389.473 448.079 399.824 451.894 405.654C453.27 407.824 457.471 406.854 456.513 404.001C454.08 396.622 450.585 385.384 458.557 379.994C466.837 374.384 478.244 379.306 485.694 383.9C486.157 384.176 486.696 384.296 487.231 384.242C487.767 384.187 488.27 383.961 488.667 383.596C489.064 383.232 489.332 382.75 489.432 382.22C489.533 381.691 489.46 381.144 489.224 380.66C487.733 377.769 487.043 374.531 487.226 371.284C487.409 368.036 488.458 364.897 490.264 362.192C491.768 359.466 494.288 357.444 497.275 356.568C498.858 356.298 500.482 356.388 502.026 356.829C503.57 357.271 504.996 358.053 506.198 359.118C508.746 361.048 511.391 356.829 508.845 354.916C507.2 353.583 505.301 352.598 503.263 352.022C501.226 351.446 499.092 351.291 496.993 351.566C494.904 351.989 492.921 352.825 491.158 354.023C489.396 355.222 487.889 356.76 486.727 358.547C484.18 362.042 482.652 366.176 482.315 370.488C481.977 374.801 482.843 379.122 484.816 382.971L488.362 379.729C479.056 373.972 465.688 369.102 455.677 375.987C445.667 382.871 448.436 395.429 451.622 405.053L456.258 403.398C451.853 396.538 445.367 388.026 436.474 387.54C425.669 386.949 419.139 398.819 418.95 408.246C418.824 413.181 419.869 418.708 424.102 421.77C426.681 423.679 429.312 419.479 426.75 417.568L426.739 417.619Z" fill="#2D2FEE"/>
<path d="M438.365 388.864C436.658 381.981 440.619 376.221 446.171 372.472C452.712 368.071 460.488 372.042 466.005 376.218C468.553 378.147 471.198 373.929 468.671 372.03C461.449 366.558 451.526 362.76 443.316 368.395C436.239 373.327 431.188 380.985 433.484 389.865C434.271 392.956 439.148 391.922 438.359 388.815L438.365 388.864Z" fill="#2D2FEE"/>
<path d="M469.804 354.053C474.969 351.383 480.304 348.611 486.075 348.22C489.48 347.979 493.831 347.292 496.697 349.65C497.382 350.214 497.942 350.913 498.343 351.704C499.038 353.055 498.54 353.348 497.255 354.036C495.017 355.387 492.354 356.123 490.501 358.045C489.089 359.771 488.078 361.789 487.541 363.953L486.456 367.284C486.024 368.536 485.659 369.809 485.363 371.1C484.791 373.931 484.946 376.862 485.815 379.617C481.552 378.128 477.192 376.928 472.767 376.026C471.256 375.823 469.791 375.361 468.437 374.66C467.453 374.022 466.524 373.302 465.662 372.507C464.729 371.719 463.709 371.041 462.62 370.487C461.727 369.993 459.859 369.7 459.216 368.927C458.049 367.532 459.423 364.25 460.157 362.861C462.412 359.019 465.774 355.949 469.804 354.053Z" fill="#2D2FEE"/>
<path d="M470.951 356.25C476.099 353.583 481.147 351.061 486.945 350.617C489.029 350.308 491.15 350.341 493.224 350.716C493.721 350.83 494.196 351.027 494.627 351.298C495.131 351.605 495.484 352.33 495.873 352.517C496.239 353.207 496.432 352.867 496.546 351.452L496.217 351.625C495.584 351.889 494.975 352.207 494.397 352.577C491.891 353.563 489.646 355.116 487.839 357.113C486.357 359.336 485.264 361.796 484.609 364.387C482.882 369.596 481.639 374.53 483.261 380.006L486.434 377.125C482.529 375.774 478.549 374.652 474.514 373.766C472.711 373.558 470.957 373.04 469.33 372.235C467.537 371.182 466.233 369.621 464.461 368.599C463.763 368.2 463.031 367.864 462.274 367.594C461.892 367.501 461.519 367.372 461.161 367.21C460.932 366.137 461.939 364.382 462.381 363.479C464.42 360.281 467.331 357.734 470.77 356.138C471.06 355.987 471.317 355.781 471.527 355.531C471.737 355.281 471.895 354.992 471.993 354.681C472.091 354.369 472.127 354.042 472.099 353.716C472.071 353.391 471.978 353.075 471.828 352.785C471.677 352.495 471.471 352.238 471.221 352.028C470.971 351.818 470.682 351.66 470.371 351.562C470.059 351.463 469.732 351.427 469.407 351.456C469.082 351.484 468.765 351.576 468.476 351.727C464.292 353.728 460.752 356.86 458.257 360.771C456.605 363.686 454.647 368.773 458.149 371.155C459.005 371.62 459.905 371.998 460.835 372.285C461.852 372.703 462.806 373.263 463.667 373.947C465.41 375.584 467.46 376.858 469.7 377.694C474.775 379.154 479.987 380.081 484.898 381.844C485.312 381.968 485.751 381.982 486.172 381.887C486.593 381.791 486.982 381.589 487.303 381.299C487.623 381.01 487.863 380.643 488.001 380.233C488.138 379.824 488.168 379.386 488.087 378.961C487.163 375.973 487.146 372.777 488.038 369.779C488.757 366.911 489.715 364.107 490.902 361.399C492.439 358.364 495.718 357.621 498.438 355.978C500.58 354.655 501.595 352.832 500.374 350.427C497.702 345.094 491.644 345.169 486.54 345.563C479.931 346.054 474.28 348.698 468.49 351.709C468.159 351.834 467.858 352.027 467.605 352.275C467.353 352.523 467.154 352.821 467.023 353.15C466.892 353.479 466.831 353.832 466.844 354.185C466.857 354.539 466.943 354.887 467.098 355.205C467.252 355.524 467.471 355.807 467.741 356.037C468.01 356.266 468.325 356.437 468.664 356.538C469.004 356.639 469.36 356.668 469.711 356.623C470.063 356.579 470.401 356.462 470.704 356.279L470.951 356.25Z" fill="#2D2FEE"/>
<path d="M510.008 359.079C533.908 316.432 557.363 273.555 581.209 230.881C582.594 228.531 583.828 226.165 585.166 223.837C586.505 221.509 588.145 218.778 590.82 217.591C594.935 215.765 599.953 217.865 602.683 221.174C605.919 225.089 606.049 230.776 604.808 235.443C603.087 240.854 600.163 245.805 596.256 249.924C588.625 258.724 580.6 267.155 573.128 276.037C565.402 285.299 557.972 294.798 550.836 304.534C534.937 326.201 520.937 349.2 508.99 373.274C507.662 376.101 511.768 378.795 513.191 375.923C524.368 353.454 537.351 331.93 552.011 311.564C559.35 301.303 567.044 291.306 575.091 281.571C583.011 271.986 591.545 262.927 599.731 253.61C606.846 245.371 613.369 234.419 609.428 223.218C606.127 213.741 593.298 207.94 585.186 215.647C583.245 217.678 581.617 219.986 580.355 222.495C578.756 225.288 577.21 228.108 575.645 230.913C572.552 236.402 569.495 241.921 566.422 247.441C560.161 258.729 553.908 270.038 547.663 281.369C533.797 306.451 519.878 331.518 505.908 356.568C504.356 359.339 508.527 362.024 510.092 359.219L510.008 359.079Z" fill="#2D2FEE"/>
<path d="M433.124 402.881C433.551 405.201 434.225 407.468 435.133 409.644C436.205 412.334 440.26 410.698 439.753 407.991C439.377 405.905 438.787 403.863 437.99 401.899C437.077 399.557 433.364 400.568 433.311 402.909C433.257 405.101 433.7 407.277 434.606 409.274C435.426 411.11 438.78 411.009 439.177 408.893C439.445 407.73 439.475 406.524 439.265 405.349C439.056 404.173 438.611 403.052 437.959 402.052C437.699 401.582 437.295 401.207 436.805 400.984C436.316 400.762 435.768 400.703 435.243 400.816C434.718 400.929 434.243 401.209 433.889 401.614C433.535 402.019 433.321 402.527 433.279 403.063C432.808 406.083 433.36 409.175 434.847 411.846C435.101 412.33 435.503 412.72 435.993 412.961C436.483 413.202 437.036 413.281 437.574 413.187C440.68 412.816 440.253 409.248 440.07 407.019C439.886 404.79 439.639 402.302 437.23 401.539C434.425 400.658 432.756 403.426 432.267 405.752C431.778 408.082 431.987 410.505 432.868 412.717C433.102 413.141 433.455 413.488 433.882 413.716C434.309 413.945 434.794 414.045 435.276 414.005C435.759 413.964 436.22 413.786 436.604 413.49C436.988 413.194 437.278 412.793 437.439 412.336C438.25 408.937 438.175 405.386 437.222 402.024C437.065 401.377 436.659 400.818 436.093 400.467C435.527 400.117 434.846 400.003 434.197 400.151C433.789 400.243 433.411 400.438 433.098 400.717C431.516 402.178 430.386 404.061 429.841 406.145C429.295 408.228 429.358 410.425 430.021 412.474C430.16 412.996 430.454 413.464 430.865 413.814C431.277 414.164 431.785 414.38 432.323 414.433C432.871 414.448 433.41 414.288 433.861 413.976C434.312 413.664 434.652 413.217 434.832 412.698C435.838 409.772 435.948 406.612 435.146 403.623C434.981 402.976 434.568 402.421 433.997 402.077C433.425 401.734 432.741 401.629 432.093 401.787C431.463 401.926 430.911 402.302 430.552 402.839C429.302 404.467 428.527 406.409 428.312 408.451C428.098 410.493 428.452 412.554 429.336 414.407C429.493 414.704 429.707 414.966 429.967 415.179C430.227 415.391 430.528 415.549 430.85 415.642C431.172 415.736 431.51 415.764 431.843 415.724C432.177 415.684 432.499 415.578 432.79 415.411C433.348 415.115 433.772 414.617 433.973 414.018C434.744 411.839 435.096 409.534 435.01 407.224C434.869 404.507 432.429 402.231 429.738 403.837C427.718 405.062 427.015 407.965 426.81 410.157C426.619 412.437 427.054 414.726 428.069 416.776C428.229 417.07 428.446 417.329 428.706 417.539C428.967 417.749 429.266 417.905 429.587 417.998C429.908 418.091 430.245 418.12 430.577 418.083C430.909 418.045 431.231 417.943 431.523 417.78C431.885 417.58 432.194 417.298 432.425 416.955C433.627 415.351 434.304 413.414 434.362 411.41C434.421 409.406 433.858 407.432 432.752 405.761C432.592 405.467 432.376 405.208 432.115 404.998C431.854 404.789 431.554 404.634 431.233 404.542C430.911 404.45 430.575 404.423 430.243 404.463C429.911 404.503 429.591 404.608 429.3 404.773C428.945 404.974 428.642 405.256 428.415 405.596C426.769 408.279 426.117 411.455 426.572 414.571C426.684 415.106 426.971 415.59 427.388 415.944C427.804 416.299 428.327 416.505 428.873 416.53C429.416 416.538 429.947 416.377 430.394 416.07C430.841 415.762 431.182 415.323 431.368 414.814C431.802 413.752 431.999 412.609 431.945 411.463C431.892 410.318 431.589 409.197 431.058 408.181C430.897 407.889 430.679 407.632 430.418 407.424C430.157 407.217 429.857 407.064 429.536 406.973C429.215 406.883 428.879 406.857 428.548 406.898C428.217 406.938 427.898 407.045 427.608 407.21C427.078 407.521 426.671 408.006 426.455 408.582C425.24 411.379 423.427 418.516 427.912 419.496L428.138 414.7C429.108 415.151 429.342 415.156 428.889 414.71C428.831 414.629 428.787 414.538 428.757 414.443C428.525 414.058 428.316 413.66 428.131 413.25C427.856 412.638 427.651 411.997 427.519 411.339C427.209 409.836 427.216 408.285 427.54 406.784C428.377 403.577 430.245 400.734 432.856 398.694C433.205 398.403 436.945 395.954 436.935 396.005C436.239 395.905 436.163 395.964 436.684 396.135L437.062 396.373C437.494 396.639 437.944 396.918 438.38 397.216C439.178 397.754 439.922 398.266 440.718 398.921C443.65 401.269 446.186 404.074 448.229 407.226C448.484 407.705 448.883 408.092 449.369 408.333C449.855 408.574 450.405 408.657 450.94 408.57C451.492 408.456 451.989 408.157 452.349 407.723C452.709 407.289 452.911 406.745 452.921 406.181C452.943 405.357 452.684 404.549 452.188 403.891C451.691 403.232 450.986 402.762 450.187 402.557C449.826 402.46 449.448 402.444 449.08 402.508C448.711 402.572 448.361 402.716 448.054 402.929C447.747 403.141 447.489 403.418 447.299 403.741C447.109 404.063 446.992 404.422 446.954 404.794L446.79 406.482L451.743 406.089L451.507 403.282L447.169 405.469C447.108 404.959 447.092 404.828 446.953 405.061L450.659 403.717L449.625 402.874C449.158 402.582 448.609 402.452 448.061 402.502C447.513 402.553 446.997 402.782 446.591 403.154C445.828 403.857 445.194 404.689 444.719 405.612L448.625 405.245L448.639 405.36C448.471 404.715 448.053 404.163 447.478 403.825C446.904 403.487 446.218 403.392 445.573 403.559C445.177 403.658 444.812 403.853 444.511 404.128C444.209 404.403 443.98 404.748 443.845 405.133L442.951 407.691L447.805 408.561C447.86 407.002 447.674 405.444 447.252 403.942C447.129 403.414 446.837 402.94 446.421 402.593C446.005 402.245 445.487 402.043 444.945 402.015C444.404 401.988 443.869 402.137 443.42 402.441C442.971 402.745 442.632 403.186 442.456 403.699L441.245 406.528L446.085 407.416L445.741 402.455C445.762 401.867 445.577 401.289 445.216 400.824C444.856 400.358 444.344 400.033 443.769 399.906C443.167 399.788 442.542 399.895 442.014 400.207C441.486 400.519 441.091 401.015 440.905 401.6L439.558 407.897L444.415 408.783C444.72 406.495 444.767 404.179 444.555 401.88C444.378 399.7 441.011 399.286 440.041 401.07C438.805 403.364 437.975 405.855 437.589 408.433C437.154 411.203 441.807 412.064 442.429 409.321C443.167 406.071 443.329 402.716 442.91 399.409C442.662 397.338 440.15 397.104 438.786 398.102C437.842 398.852 437.057 399.783 436.477 400.84C435.897 401.897 435.533 403.06 435.406 404.259C435.103 406.463 438.07 407.575 439.571 406.195C440.671 405.199 441.384 403.848 441.586 402.378C441.788 400.908 441.466 399.414 440.676 398.159C440.516 397.865 440.3 397.606 440.04 397.396C439.779 397.186 439.48 397.03 439.158 396.937C438.837 396.843 438.501 396.815 438.169 396.852C437.836 396.889 437.515 396.992 437.222 397.155C437.059 397.252 436.905 397.366 436.763 397.493C435.62 398.432 434.782 399.69 434.358 401.107C433.934 402.524 433.942 404.036 434.381 405.449C434.484 405.869 434.693 406.256 434.989 406.572C435.285 406.888 435.657 407.122 436.07 407.252C436.483 407.382 436.922 407.403 437.345 407.314C437.768 407.225 438.162 407.027 438.486 406.742C440.818 404.495 441.889 399.381 438 397.945C437.261 397.713 436.474 397.676 435.716 397.84C434.958 398.004 434.256 398.362 433.678 398.88C432.516 400.175 431.858 401.846 431.825 403.587C431.818 403.918 431.876 404.247 431.997 404.555C432.117 404.863 432.298 405.144 432.528 405.381C432.758 405.619 433.033 405.809 433.336 405.939C433.64 406.07 433.967 406.139 434.298 406.142C434.919 406.151 435.521 405.93 435.99 405.523C437.12 404.369 437.79 402.842 437.873 401.229C437.956 399.616 437.448 398.029 436.442 396.765C436.071 396.363 435.578 396.096 435.04 396.004C434.501 395.911 433.948 395.999 433.464 396.254C432.344 396.891 431.455 397.868 430.924 399.043C430.394 400.218 430.25 401.531 430.513 402.793C430.674 403.443 431.086 404.003 431.659 404.35C432.231 404.697 432.918 404.804 433.568 404.646C434.195 404.499 434.745 404.124 435.109 403.594C436.072 402.214 436.618 400.586 436.682 398.904C436.692 398.573 436.636 398.243 436.519 397.934C436.402 397.624 436.224 397.341 435.997 397.1C435.77 396.86 435.498 396.666 435.196 396.531C434.894 396.395 434.569 396.321 434.238 396.311C434.049 396.308 433.861 396.331 433.679 396.378C432.236 396.809 431.012 397.777 430.26 399.083C429.508 400.389 429.284 401.933 429.635 403.399C429.791 404.037 430.185 404.593 430.736 404.951C431.286 405.31 431.953 405.445 432.6 405.328C433.026 405.24 433.431 405.068 433.791 404.822C434.15 404.577 434.458 404.263 434.696 403.898C434.934 403.533 435.098 403.125 435.179 402.697C435.259 402.269 435.254 401.829 435.164 401.403C435.109 401.137 435.022 400.879 434.905 400.634C434.591 400.061 434.068 399.632 433.445 399.437C432.822 399.241 432.147 399.293 431.562 399.583C430.438 400.07 429.434 400.797 428.619 401.712C427.805 402.628 427.2 403.71 426.846 404.883C426.724 405.347 426.736 405.837 426.883 406.294C427.029 406.752 427.304 407.157 427.673 407.464C428.043 407.77 428.493 407.964 428.969 408.024C429.445 408.083 429.929 408.004 430.362 407.797C431.124 407.433 431.768 406.86 432.219 406.145C432.671 405.43 432.911 404.602 432.912 403.757C432.928 403.09 432.68 402.444 432.223 401.958C431.765 401.473 431.135 401.188 430.468 401.165C430.059 401.161 429.653 401.25 429.282 401.423C428.441 401.852 427.724 402.49 427.202 403.277C426.68 404.065 426.37 404.973 426.303 405.915C426.271 406.508 426.453 407.093 426.815 407.564C427.177 408.034 427.695 408.36 428.277 408.481C428.877 408.586 429.496 408.472 430.018 408.158C430.541 407.844 430.933 407.352 431.123 406.773C431.877 404.884 432.887 403.108 434.125 401.494C434.684 400.729 435.313 400.017 436.004 399.368C436.373 399.01 436.768 398.678 437.185 398.376L437.688 398.116L436.474 397.728C436.107 397.305 436.094 397.34 436.359 397.742L437.642 400.239C437.792 400.529 437.998 400.786 438.248 400.996C438.498 401.206 438.787 401.365 439.099 401.463C439.41 401.561 439.737 401.597 440.063 401.569C440.388 401.54 440.704 401.448 440.994 401.297C441.283 401.147 441.54 400.94 441.75 400.69C441.96 400.44 442.118 400.151 442.216 399.84C442.315 399.529 442.35 399.201 442.322 398.876C442.294 398.55 442.201 398.234 442.051 397.944C441.23 396.375 440.482 393.747 438.543 393.145C436.604 392.543 434.346 394.147 432.922 395.485C430.017 398.215 427.769 401.569 426.345 405.293L431.185 406.181C431.158 405.951 431.168 406.033 431.511 405.842L427.898 403.507C427.928 403.753 428.182 403.373 428.062 403.487L431.562 406.403C431.725 405.863 432.009 405.367 432.393 404.954C432.777 404.541 433.25 404.222 433.777 404.02L430.434 402.97L430.562 403.204L430.275 401.921L430.414 401.405L431.36 400.541L431.508 400.523L434.391 402.463C434.24 402.181 434.271 401.46 434.587 401.322L431.599 398.778C431.569 399.604 431.286 400.4 430.789 401.06L435.318 401.852C435.253 401.656 435.255 401.445 435.322 401.25C435.389 401.055 435.518 400.888 435.689 400.773L432.743 400.259C432.892 400.526 432.953 400.833 432.917 401.136C432.882 401.44 432.752 401.724 432.546 401.95L436.713 403.902C436.697 403.771 436.978 402.77 436.974 402.737C436.97 402.704 437.38 402.789 436.547 402.788C435.847 401.822 435.537 401.592 435.583 402.12C435.607 402.188 435.613 402.261 435.601 402.333C435.59 402.404 435.56 402.471 435.515 402.528C435.435 402.784 435.283 403.01 435.077 403.181L439.2 404.488C438.948 403.929 438.894 403.3 439.047 402.706C439.2 402.112 439.551 401.587 440.042 401.219L436.144 400.535C436.4 400.824 436.533 401.202 436.514 401.588C436.495 401.974 436.325 402.337 436.04 402.599L440.206 404.535C440.293 403.973 440.497 403.435 440.805 402.956C441.112 402.477 441.515 402.067 441.99 401.753L437.866 400.446C438.163 402.918 438.028 405.422 437.469 407.847L442.323 408.717C442.611 406.965 443.198 405.276 444.059 403.724L439.545 402.913C439.67 404.782 439.593 406.658 439.315 408.51C438.898 411.295 443.584 412.151 444.153 409.382L445.516 403.082L440.788 402.297L441.106 407.179C441.098 407.771 441.3 408.347 441.677 408.804C442.054 409.262 442.581 409.57 443.164 409.674C443.747 409.779 444.349 409.673 444.861 409.375C445.373 409.077 445.763 408.607 445.96 408.048L447.188 405.217L442.378 404.992C442.692 406.058 442.825 407.17 442.771 408.28C442.768 408.87 442.974 409.442 443.352 409.895C443.731 410.348 444.257 410.652 444.838 410.754C445.419 410.857 446.017 410.75 446.527 410.453C447.037 410.156 447.425 409.689 447.624 409.133L448.52 406.591L443.707 406.35C443.951 407.166 444.348 407.927 444.876 408.595C445.096 408.835 445.362 409.028 445.657 409.165C445.953 409.301 446.273 409.378 446.598 409.39C446.923 409.402 447.248 409.35 447.553 409.236C447.858 409.122 448.137 408.949 448.375 408.726C448.534 408.575 448.676 408.407 448.799 408.226C449.074 407.673 449.442 407.172 449.888 406.744L446.881 407.104L447.915 407.948C448.197 408.122 448.511 408.238 448.838 408.29C449.165 408.343 449.5 408.33 449.822 408.253C450.144 408.175 450.448 408.035 450.716 407.84C450.984 407.645 451.21 407.399 451.383 407.116C451.482 406.95 451.562 406.772 451.62 406.587C451.879 405.831 451.932 405.019 451.774 404.235C451.616 403.45 451.252 402.723 450.719 402.126C450.346 401.733 449.857 401.471 449.323 401.379C448.789 401.286 448.24 401.369 447.757 401.613C447.279 401.874 446.894 402.276 446.654 402.764C446.413 403.253 446.331 403.804 446.417 404.342L446.751 407.137C446.875 407.727 447.212 408.25 447.698 408.608C448.183 408.965 448.783 409.13 449.383 409.073C449.977 409.02 450.532 408.757 450.948 408.331C451.365 407.905 451.616 407.344 451.656 406.75L451.82 405.062L448.604 407.298C448.066 406.562 447.917 406.43 448.126 406.922L447.841 405.655L447.874 405.935L452.554 404.925C449.235 399.767 444.82 395.404 439.624 392.148C438.764 391.514 437.731 391.16 436.663 391.132C435.595 391.105 434.545 391.406 433.655 391.996C427.245 395.681 421.765 402.123 422.265 409.917C422.364 412.03 422.918 414.097 423.89 415.976C424.89 417.924 426.67 420.128 429.139 419.449C431.353 418.868 431.968 415.226 429.382 414.651C430.05 414.805 429.99 415.829 430.035 414.957C430.081 414.084 430.087 413.717 430.138 413.027C430.34 411.95 430.674 410.902 431.131 409.906L426.628 410.445C426.839 410.882 426.944 411.362 426.936 411.847C426.927 412.331 426.805 412.807 426.579 413.236L431.373 413.463C431.175 411.615 431.604 409.755 432.591 408.181L428.283 407.979C428.979 408.881 429.343 409.995 429.316 411.134C429.288 412.272 428.87 413.367 428.132 414.234L432.421 414.421C431.625 412.811 431.44 410.967 431.9 409.231C432.028 408.925 432.136 408.612 432.221 408.292C432.347 407.393 433.032 408.378 431.597 408.233L430.384 407.845C429.944 407.23 429.822 407.045 430.041 407.202L430.042 408.052C430.019 408.555 429.978 409.044 429.92 409.534C429.791 410.524 429.555 411.497 429.217 412.437L433.787 412.04C433.308 410.95 433.15 409.746 433.331 408.57C433.512 407.393 434.024 406.293 434.809 405.398L430.278 404.589C430.887 406.737 430.823 409.021 430.094 411.131L434.888 411.358C434.411 410.158 434.307 408.842 434.591 407.582C434.874 406.322 435.532 405.177 436.477 404.297L432.354 402.99C433.119 405.515 433.227 408.194 432.668 410.773L437.238 410.376C436.978 409.593 436.879 408.765 436.947 407.943C436.956 407.562 437 407.183 437.078 406.81L437.304 406.049C437.511 405.558 437.495 405.56 437.304 406.049L436.021 406.336C435.057 405.385 434.756 405.237 435.114 405.861C435.111 406.255 435.158 406.647 435.254 407.029L435.433 408.525L435.521 409.264C435.504 409.817 435.573 409.692 435.86 408.89L437.037 408.282L436.758 408.316L439.485 409.657C438.436 407.759 438.084 405.554 438.489 403.423L433.793 404.435C434.136 404.862 434.391 405.352 434.543 405.878C434.694 406.403 434.74 406.954 434.677 407.498L439.246 407.101C438.714 405.896 438.466 404.585 438.521 403.269L433.825 404.281C434.432 405.846 434.877 407.469 435.155 409.125L439.735 407.426C439.032 405.65 438.51 403.807 438.177 401.926C437.631 398.757 432.772 399.805 433.298 402.944L433.124 402.881Z" fill="#2D2FEE"/>
</g>
<defs>
<clipPath id="clip0">
<rect width="627.594" height="598.978" fill="white" transform="translate(-40 74.5798) rotate(-6.82485)"/>
</clipPath>
</defs>
</svg>
