<svg width="222" height="269" viewBox="0 0 222 269" fill="none" xmlns="http://www.w3.org/2000/svg">
<g clip-path="url(#clip0)">
<path d="M140.401 42.424L55.1525 58.1445C44.4217 60.1234 37.3286 70.4168 39.3097 81.1354L63.5465 212.268C65.5276 222.987 75.8326 230.072 86.5634 228.093L171.812 212.373C182.543 210.394 189.636 200.1 187.655 189.382L163.418 58.2488C161.437 47.5301 151.132 40.4451 140.401 42.424Z" stroke="#2D2FEE" stroke-width="3" stroke-miterlimit="10" stroke-linecap="round"/>
<path d="M43.3525 37.4814C56.1953 31.9389 70.7012 31.0344 84.4167 29.2581C99.3506 27.3503 114.301 25.5248 129.218 23.5183C135.969 22.6137 143.378 22.1861 149.718 19.5546C155.612 17.137 159.037 11.8412 164.256 8.50255C171.781 3.68371 184.739 2.82849 190.173 11.3314C194.453 18.0087 189.761 31.8402 180.409 30.393C179.987 30.2795 179.543 30.279 179.121 30.3916C178.699 30.5042 178.314 30.7259 178.005 31.0344C171.106 39.7346 185.315 45.3922 187.275 52.7603C188.048 55.6713 187.275 58.7962 186.764 61.6908C186.18 64.6888 186.18 67.7712 186.764 70.7692C187.983 76.1473 191.506 80.6372 193.054 85.8179C194.898 91.9689 191.095 97.3304 190.337 103.251C189.497 109.83 193.054 115.537 196.018 121.096C202.307 132.888 207.247 145.766 208.383 159.186C209.519 172.87 205.337 186.586 207.856 200.187C209.042 206.651 212.368 212.193 214.903 218.163C216.912 222.916 218.114 228.327 215.875 233.228C211.215 243.442 200.233 234.774 193.976 231.452C190.189 229.446 185.908 227.85 181.578 228.969C176.457 230.301 173.345 236.567 167.846 236.189C164.948 235.975 162.198 234.692 159.366 234.116C156.564 233.463 153.631 233.652 150.936 234.659C145.898 236.666 142.703 241.123 138.39 244.28C128.362 251.78 114.054 248.277 102.528 247.981C95.9045 247.728 89.2738 248.247 82.7701 249.527C76.5632 250.924 70.6281 253.33 65.2018 256.648C60.2622 259.609 54.8781 263.309 48.9177 263.967C44.6203 264.428 39.2691 263.457 36.5359 259.773C33.8027 256.089 35.0541 251.994 37.0299 248.507C39.3515 244.379 42.5457 240.794 44.9826 236.732C47.8672 232.311 48.9946 226.973 48.1439 221.765C47.0736 215.713 43.9782 209.907 41.0309 204.595C35.4821 194.563 28.3692 184.859 26.4263 173.346C25.2737 166.587 26.7227 159.877 28.0728 153.282C29.5337 146.793 30.4207 140.189 30.7237 133.546C31.1749 120.267 28.9057 107.037 24.0553 94.6661C21.7337 88.8276 17.1564 82.5285 18.1937 75.9664C18.6877 72.9073 19.8402 69.9798 20.0543 66.855C20.2463 64.3186 19.7635 61.7767 18.6547 59.4869C16.646 55.2108 12.8755 52.0695 9.71414 48.6815C6.55282 45.2935 3.88547 41.4779 5.26855 36.8729C6.65162 32.2678 11.0478 29.3733 15.2958 28.1562C20.7129 26.6102 26.2122 28.37 30.8884 31.1824C35.796 34.393 40.2582 38.2362 44.1593 42.6127C46.3656 44.9153 49.8563 41.4121 47.6499 39.1261C39.7796 30.9028 29.3571 21.15 16.9753 22.7946C7.32669 24.0775 -2.78291 33.0737 0.625379 43.5995C2.2719 48.3526 5.91068 51.8228 9.30251 55.3424C12.6943 58.8619 15.8886 62.6117 14.983 67.8911C14.1788 71.0109 13.5522 74.1737 13.106 77.3643C13.0787 80.671 13.811 83.94 15.2464 86.9198C18.2448 93.2055 20.7763 99.703 22.8204 106.36C26.3921 119.626 26.9546 133.521 24.4669 147.032C23.1333 154.12 21.0422 161.192 21.1739 168.412C21.3741 174.333 22.7392 180.156 25.1914 185.55C29.9828 196.733 37.8202 206.42 42.0353 217.851C43.4263 221 43.9275 224.47 43.4842 227.883C42.9681 230.129 42.0716 232.271 40.8333 234.215C38.3471 238.343 35.087 241.978 32.7489 246.205C30.4109 250.431 29.2912 254.954 30.9707 259.362C31.9058 261.612 33.3797 263.599 35.263 265.147C37.1462 266.696 39.3813 267.759 41.7718 268.243C54.3512 271.302 63.901 261.961 74.554 257.191C87.1499 251.566 101.178 252.668 114.564 253.491C120.854 253.869 127.391 254 133.483 252.125C139.575 250.251 143.362 246.468 147.775 242.521C149.62 240.643 151.942 239.301 154.492 238.639C157.44 238.097 160.436 239.363 163.219 240.136C166.046 241.099 169.09 241.242 171.995 240.547C174.571 239.518 176.912 237.979 178.877 236.024C180.553 234.358 182.819 233.419 185.184 233.409C187.205 233.625 189.16 234.252 190.93 235.251C195.129 237.406 198.965 240.185 203.41 241.83C205.535 242.729 207.856 243.062 210.147 242.796C212.438 242.531 214.622 241.677 216.484 240.317C220.468 237.176 222.148 231.847 222.131 226.929C222.131 220.745 219.151 215.137 216.55 209.693C213.494 203.458 211.965 196.586 212.088 189.645C212.17 182.376 213.339 175.172 213.602 167.903C213.834 161.049 213.175 154.194 211.643 147.509C210.072 140.834 207.867 134.325 205.057 128.069C203.625 124.78 202.044 121.589 200.364 118.431C198.646 115.588 197.181 112.6 195.985 109.501C195.012 106.438 195.064 103.141 196.133 100.11C197.241 97.1516 198.068 94.0955 198.603 90.9821C199.212 85.1271 196.149 79.9629 193.663 74.8809C192.317 72.4194 191.509 69.7007 191.292 66.9043C191.477 63.6212 191.867 60.3529 192.461 57.1186C193.07 51.2143 190.518 47.0204 186.632 42.8759C185.184 41.2312 179.552 36.9058 181.594 34.3401L179.19 34.9651C189.382 36.6097 196.775 26.9063 196.874 17.4001C197.006 5.88756 185.793 -0.789736 175.222 -0.164766C169.524 0.1432 164.057 2.19283 159.564 5.70664C156.781 7.91048 154.443 10.6406 151.562 12.7951C148.549 14.7924 145.119 16.075 141.534 16.5449C125.382 19.5053 108.917 21.0348 92.6328 23.1235C83.5934 24.2748 74.5211 25.3274 65.5146 26.6267C57.0643 27.7285 48.798 29.9463 40.9321 33.2217C38.0343 34.4717 40.537 38.7314 43.4348 37.4814H43.3525Z" fill="#2D2FEE"/>
<path d="M66.0417 46.2149C68.8114 44.2953 71.969 43.0059 75.2918 42.4376C78.6146 41.8692 82.0217 42.0358 85.273 42.9256C85.8914 43.0607 86.5382 42.9535 87.0798 42.6261C87.6213 42.2986 88.0163 41.776 88.1833 41.1661C88.3502 40.5561 88.2763 39.9054 87.9768 39.3484C87.6772 38.7913 87.175 38.3704 86.5738 38.1725C82.682 37.1146 78.6073 36.9094 74.6287 37.5708C70.6501 38.2322 66.8615 39.7446 63.5225 42.0045C62.9691 42.3489 62.5686 42.8918 62.4032 43.5219C62.2379 44.1519 62.3203 44.8212 62.6334 45.3925C62.9693 45.9554 63.5143 46.3629 64.1496 46.5262C64.7849 46.6894 65.4591 46.5953 66.0252 46.2642L66.0417 46.2149Z" fill="#2D2FEE"/>
<path d="M104.867 41.8726C109.881 38.3567 116.029 36.8376 122.106 37.613C122.761 37.613 123.389 37.3531 123.852 36.8904C124.315 36.4278 124.576 35.8003 124.576 35.146C124.576 34.4917 124.315 33.8642 123.852 33.4016C123.389 32.9389 122.761 32.679 122.106 32.679C115.138 31.8679 108.113 33.6221 102.348 37.613C101.792 37.9515 101.389 38.4916 101.224 39.12C101.058 39.7485 101.142 40.4166 101.458 40.9845C101.792 41.5457 102.332 41.9535 102.964 42.1197C103.596 42.2859 104.267 42.1971 104.834 41.8726H104.867Z" fill="#2D2FEE"/>
<path d="M171.649 51.856C172.637 55.5894 175.206 58.4346 177.182 61.5924C178.045 62.8581 178.608 64.3036 178.828 65.8192C178.867 66.3667 178.867 66.9163 178.828 67.4638C178.718 68.0145 178.462 68.5256 178.087 68.944C177.651 69.4117 177.414 70.0302 177.425 70.6693C177.436 71.3085 177.695 71.9182 178.148 72.3702C178.6 72.8222 179.211 73.0811 179.851 73.0924C180.49 73.1037 181.11 72.8665 181.578 72.4307C184.657 69.1414 184.179 64.4212 182.385 60.5563C180.738 57.0203 177.445 54.2572 176.54 50.491C176.367 49.8585 175.95 49.3204 175.38 48.995C174.811 48.6696 174.135 48.5836 173.502 48.7559C172.869 48.9281 172.33 49.3447 172.004 49.9137C171.678 50.4828 171.592 51.1578 171.765 51.7902L171.649 51.856Z" fill="#2D2FEE"/>
<path d="M179.668 91.0318L182.303 107.741C182.5 108.351 182.925 108.862 183.489 109.168C184.052 109.474 184.712 109.552 185.332 109.386C185.959 109.202 186.49 108.782 186.813 108.214C187.135 107.646 187.224 106.976 187.061 106.343L184.427 89.6502C184.24 89.0332 183.817 88.5145 183.25 88.2066C182.683 87.8988 182.017 87.8265 181.397 88.0056C180.771 88.1861 180.241 88.6032 179.918 89.1683C179.595 89.7333 179.506 90.4018 179.668 91.0318Z" fill="#2D2FEE"/>
<path d="M53.6929 243.573C54.7249 244.641 55.9617 245.491 57.3294 246.071C58.6972 246.651 60.1679 246.95 61.6538 246.95C63.1398 246.95 64.6105 246.651 65.9782 246.071C67.346 245.491 68.5828 244.641 69.6147 243.573C69.8957 243.359 70.1271 243.086 70.2934 242.774C70.4597 242.462 70.557 242.118 70.5786 241.765C70.6003 241.413 70.5458 241.06 70.419 240.73C70.2921 240.4 70.0957 240.101 69.8432 239.854C69.5907 239.606 69.2878 239.416 68.9552 239.295C68.6226 239.175 68.268 239.127 67.9154 239.155C67.5627 239.184 67.2203 239.287 66.9113 239.46C66.6022 239.632 66.3338 239.868 66.1241 240.153C65.943 240.35 65.7619 240.547 65.5643 240.728C65.3667 240.909 65.2186 241.041 65.2021 241.024C65.1856 241.008 65.6631 240.712 65.3338 240.925L64.5929 241.386L64.2471 241.55C63.8519 241.764 64.6093 241.435 64.3294 241.55C63.829 241.731 63.3175 241.879 62.7982 241.995C62.7158 241.995 62.4853 241.995 62.4195 241.995H62.6829H62.4359H61.6456H60.8388C60.3942 241.995 61.2504 242.077 60.9541 241.995H60.5589C60.3942 241.995 59.0935 241.501 59.0441 241.55C59.3569 241.698 59.4393 241.715 59.2582 241.649L59.0441 241.55L58.7642 241.402C58.5172 241.254 58.2702 241.106 58.0397 240.942C57.8092 240.777 58.1221 240.942 58.0397 240.942L57.7434 240.695C57.5293 240.498 57.3317 240.284 57.1341 240.07C56.6711 239.608 56.0433 239.349 55.3888 239.349C54.7343 239.349 54.1066 239.608 53.6435 240.07C53.1965 240.541 52.9473 241.165 52.9473 241.814C52.9473 242.462 53.1965 243.086 53.6435 243.557L53.6929 243.573Z" fill="#2D2FEE"/>
<path d="M21.882 42.7941C21.1443 43.6288 20.6425 44.6447 20.4284 45.7374C20.2142 46.8301 20.2954 47.96 20.6636 49.0109C21.4616 51.0696 22.7704 52.8919 24.467 54.3067C26.0787 55.4906 27.6131 56.776 29.0608 58.1552C29.327 58.4278 29.5592 58.7315 29.7524 59.0598C29.8945 59.2753 30.021 59.5006 30.1311 59.7341L30.2463 59.9479C30.164 59.7834 30.164 59.7834 30.2463 59.9479C30.3286 60.1123 30.3616 60.3262 30.411 60.5235C30.3122 60.0466 30.411 60.7044 30.411 60.7867C30.411 60.3426 30.411 60.9183 30.411 61.0498C30.5098 60.6716 30.2793 61.2801 30.2299 61.3623C30.0524 61.6424 29.9334 61.9554 29.8797 62.2826C29.8261 62.6097 29.839 62.9443 29.9177 63.2663C29.9965 63.5883 30.1393 63.8912 30.3378 64.1568C30.5364 64.4225 30.7864 64.6455 31.0731 64.8124C31.3598 64.9794 31.6773 65.0869 32.0065 65.1286C32.3357 65.1703 32.67 65.1452 32.9893 65.055C33.3086 64.9648 33.6065 64.8112 33.8651 64.6034C34.1237 64.3957 34.3377 64.138 34.4943 63.8457C37.03 59.5696 33.7205 55.1948 30.3945 52.5963C29.5877 51.9713 28.748 51.3957 28.1717 50.9516C27.7897 50.6334 27.4269 50.2929 27.085 49.9319L26.624 49.4385C26.624 49.4385 26.1794 48.8465 26.3605 49.0932C26.0971 48.7478 25.8995 48.3695 25.669 48.0077C25.4385 47.6459 25.669 48.1557 25.5208 47.7117C25.3726 47.2676 25.3891 47.2676 25.3397 47.0373C25.2903 46.8071 25.3397 47.1854 25.3397 46.9222C25.3397 46.6591 25.3397 46.4617 25.3397 46.8235C25.3397 46.7249 25.5702 46.1328 25.3397 46.5768C25.3397 46.4946 25.7513 45.9848 25.4879 46.2973C25.9323 45.8221 26.1796 45.196 26.1796 44.5457C26.1796 43.8954 25.9323 43.2693 25.4879 42.7941C25.0207 42.34 24.3945 42.0859 23.7426 42.0859C23.0907 42.0859 22.4645 42.34 21.9973 42.7941H21.882Z" fill="#2D2FEE"/>
<path d="M199.278 226.058C201.315 225.586 203.088 224.339 204.219 222.583C205.35 220.826 205.752 218.698 205.337 216.651C205.166 216.029 204.758 215.498 204.201 215.171C203.624 214.853 202.948 214.765 202.308 214.924C201.688 215.102 201.159 215.507 200.826 216.059C200.522 216.646 200.434 217.321 200.579 217.967C200.585 218.076 200.585 218.186 200.579 218.295L200.48 217.654C200.538 218.08 200.538 218.511 200.48 218.937L200.579 218.279C200.505 218.759 200.373 219.229 200.184 219.677L200.431 219.101C200.232 219.581 199.966 220.029 199.641 220.434L200.036 219.94C199.728 220.316 199.38 220.658 198.998 220.96L199.492 220.582C199.15 220.846 198.774 221.061 198.373 221.223L198.965 220.976C198.622 221.122 198.263 221.227 197.895 221.289C197.278 221.472 196.751 221.876 196.413 222.424C196.094 223.006 196.006 223.687 196.166 224.331C196.35 224.947 196.754 225.474 197.302 225.812C197.893 226.106 198.566 226.193 199.212 226.058H199.278Z" fill="#2D2FEE"/>
<path d="M48.7699 194.76C44.0773 192.836 44.2584 185.764 44.1102 181.702C43.8962 175.534 42.4637 169.679 37.376 165.716C36.903 165.273 36.279 165.026 35.6307 165.026C34.9824 165.026 34.3584 165.273 33.8854 165.716C33.4229 166.178 33.1631 166.805 33.1631 167.459C33.1631 168.113 33.4229 168.74 33.8854 169.202C36.0838 170.846 37.6944 173.152 38.4791 175.781C39.3847 179.07 39.0884 182.623 39.3683 186.011C39.8128 191.603 41.9533 197.178 47.4527 199.431C48.0748 199.606 48.7408 199.533 49.3094 199.226C49.8781 198.919 50.3047 198.402 50.4987 197.787C50.6571 197.157 50.5657 196.49 50.2435 195.926C49.9213 195.362 49.3933 194.944 48.7699 194.76Z" fill="#2D2FEE"/>
<path d="M194.849 154.005V166.949C194.849 167.603 195.109 168.23 195.572 168.693C196.035 169.156 196.663 169.416 197.318 169.416C197.973 169.416 198.602 169.156 199.065 168.693C199.528 168.23 199.788 167.603 199.788 166.949V154.005C199.788 153.351 199.528 152.723 199.065 152.261C198.602 151.798 197.973 151.538 197.318 151.538C196.663 151.538 196.035 151.798 195.572 152.261C195.109 152.723 194.849 153.351 194.849 154.005Z" fill="#2D2FEE"/>
<path d="M50.96 85.555L54.7799 103.038C54.8664 103.351 55.0138 103.644 55.2136 103.9C55.4135 104.156 55.662 104.371 55.9448 104.531C56.2277 104.692 56.5394 104.795 56.8622 104.835C57.1849 104.875 57.5124 104.851 57.8259 104.765C58.1394 104.678 58.4329 104.531 58.6894 104.331C58.946 104.132 59.1607 103.883 59.3212 103.601C59.4818 103.318 59.585 103.007 59.6251 102.685C59.6651 102.362 59.6413 102.035 59.5548 101.722L55.7513 84.2721C55.6726 83.9515 55.5303 83.6499 55.3328 83.3852C55.1353 83.1206 54.8866 82.8982 54.6015 82.7312C54.3163 82.5643 54.0006 82.4562 53.6729 82.4134C53.3452 82.3706 53.0122 82.3939 52.6937 82.482C52.3752 82.57 52.0776 82.7211 51.8186 82.9261C51.5596 83.1312 51.3444 83.386 51.1858 83.6757C51.0272 83.9653 50.9284 84.2838 50.8953 84.6122C50.8621 84.9407 50.8953 85.2725 50.9929 85.5879L50.96 85.555Z" fill="#2D2FEE"/>
<path d="M49.5601 86.969C52.669 85.8502 55.8624 84.9813 59.1098 84.3704C59.738 84.1936 60.2713 83.7771 60.5947 83.211C60.9182 82.6448 61.0058 81.9744 60.8387 81.3443C60.6508 80.7203 60.2294 80.1927 59.6621 79.8711C59.0948 79.5495 58.4253 79.4586 57.7926 79.6174C54.5474 80.2303 51.3545 81.0936 48.2428 82.1995C47.6096 82.374 47.0718 82.7925 46.7475 83.3631C46.4233 83.9338 46.3393 84.6096 46.514 85.2421C46.6887 85.8746 47.1077 86.4119 47.679 86.7357C48.2502 87.0596 48.9269 87.1435 49.5601 86.969Z" fill="#2D2FEE"/>
<path d="M64.4941 81.7892L64.3789 99.2884C64.3789 99.9427 64.6391 100.57 65.1023 101.033C65.5654 101.495 66.1937 101.755 66.8487 101.755C67.5037 101.755 68.1319 101.495 68.5951 101.033C69.0582 100.57 69.3185 99.9427 69.3185 99.2884L69.4337 81.7892C69.4337 81.135 69.1735 80.5075 68.7103 80.0448C68.2472 79.5822 67.619 79.3223 66.9639 79.3223C66.3089 79.3223 65.6807 79.5822 65.2175 80.0448C64.7544 80.5075 64.4941 81.135 64.4941 81.7892Z" fill="#2D2FEE"/>
<path d="M64.9384 84.0418L76.8428 97.7746C77.3058 98.2366 77.9336 98.4961 78.5881 98.4961C79.2426 98.4961 79.8703 98.2366 80.3334 97.7746C80.7804 97.304 81.0296 96.68 81.0296 96.0313C81.0296 95.3826 80.7804 94.7586 80.3334 94.288L68.4291 80.6209C67.966 80.1589 67.3382 79.8994 66.6837 79.8994C66.0293 79.8994 65.4015 80.1589 64.9384 80.6209C64.4914 81.0915 64.2422 81.7155 64.2422 82.3642C64.2422 83.0129 64.4914 83.6369 64.9384 84.1075V84.0418Z" fill="#2D2FEE"/>
<path d="M68.4457 95.9988L73.3853 94.2061C74.0021 94.0226 74.5296 93.6186 74.8671 93.0713C75.0324 92.7853 75.1393 92.4695 75.1817 92.142C75.224 91.8146 75.2011 91.482 75.1141 91.1635C74.9401 90.5467 74.5326 90.0217 73.978 89.6997C73.696 89.5316 73.3825 89.423 73.0568 89.3805C72.7311 89.3381 72.4002 89.3628 72.0845 89.453L67.0461 91.2457C66.4321 91.4346 65.9063 91.8373 65.5643 92.3805C65.2606 92.9378 65.1835 93.5905 65.3491 94.2031C65.5146 94.8157 65.9102 95.341 66.4534 95.6698C66.7379 95.8393 67.0542 95.9486 67.3828 95.9911C67.7113 96.0335 68.0451 96.0081 68.3634 95.9165L68.4457 95.9988Z" fill="#2D2FEE"/>
<path d="M84.0054 79.2893L84.8286 94.9135C84.8286 95.5678 85.0888 96.1953 85.552 96.6579C86.0152 97.1206 86.6434 97.3805 87.2984 97.3805C87.9534 97.3805 88.5816 97.1206 89.0448 96.6579C89.508 96.1953 89.7682 95.5678 89.7682 94.9135L88.9449 79.2893C88.9449 78.635 88.6847 78.0075 88.2215 77.5448C87.7584 77.0822 87.1302 76.8223 86.4752 76.8223C85.8201 76.8223 85.1919 77.0822 84.7287 77.5448C84.2656 78.0075 84.0054 78.635 84.0054 79.2893Z" fill="#2D2FEE"/>
<path d="M86.0469 81.6902C86.936 82.6769 87.8086 83.6802 88.6484 84.6999L89.2411 85.44L89.521 85.8018C89.982 86.3939 89.3893 85.6045 89.6363 85.9498C89.8833 86.2952 90.4431 87.0189 90.8218 87.5945C92.375 89.754 93.8042 91.9999 95.1027 94.3211C95.267 94.6008 95.4849 94.8455 95.7439 95.041C96.0029 95.2366 96.2979 95.3793 96.6121 95.461C96.9263 95.5427 97.2535 95.5618 97.5751 95.5172C97.8967 95.4726 98.2063 95.3652 98.4863 95.201C98.7663 95.0369 99.0112 94.8193 99.207 94.5606C99.4029 94.3019 99.5457 94.0072 99.6275 93.6934C99.7093 93.3795 99.7284 93.0527 99.6838 92.7315C99.6391 92.4102 99.5315 92.1009 99.3672 91.8212C96.6021 86.9375 93.2876 82.3852 89.4881 78.2528C89.0229 77.7948 88.3959 77.5381 87.7428 77.5381C87.0896 77.5381 86.4626 77.7948 85.9975 78.2528C85.5467 78.7215 85.2949 79.3462 85.2949 79.9962C85.2949 80.6461 85.5467 81.2708 85.9975 81.7395L86.0469 81.6902Z" fill="#2D2FEE"/>
<path d="M98.2642 76.8059L99.8119 93.0386C99.8119 93.6929 100.072 94.3204 100.535 94.783C100.998 95.2457 101.627 95.5056 102.282 95.5056C102.937 95.5056 103.565 95.2457 104.028 94.783C104.491 94.3204 104.751 93.6929 104.751 93.0386L103.204 76.8059C103.204 76.1516 102.944 75.5241 102.48 75.0614C102.017 74.5988 101.389 74.3389 100.734 74.3389C100.079 74.3389 99.4507 74.5988 98.9875 75.0614C98.5244 75.5241 98.2642 76.1516 98.2642 76.8059Z" fill="#2D2FEE"/>
<path d="M100.537 79.0917C102.42 81.1502 104.143 83.3495 105.69 85.6703C107.313 88.0597 108.766 90.5603 110.037 93.1535C110.373 93.7119 110.915 94.1162 111.546 94.2793C112.177 94.4423 112.848 94.3511 113.412 94.0251C113.946 93.6881 114.334 93.1629 114.499 92.5537C114.664 91.9444 114.593 91.2956 114.301 90.7358C111.598 85.2895 108.139 80.2511 104.027 75.7695C103.562 75.3115 102.935 75.0547 102.282 75.0547C101.629 75.0547 101.002 75.3115 100.537 75.7695C100.086 76.2381 99.834 76.8629 99.834 77.5128C99.834 78.1627 100.086 78.7874 100.537 79.2561V79.0917Z" fill="#2D2FEE"/>
<path d="M102.842 90.4887H108.44C109.093 90.4811 109.718 90.2218 110.185 89.765C110.53 89.42 110.765 88.9806 110.86 88.5024C110.955 88.0241 110.906 87.5284 110.72 87.0779C110.533 86.6274 110.217 86.2423 109.811 85.9711C109.405 85.7 108.928 85.5551 108.44 85.5547H102.842C102.189 85.5656 101.565 85.8244 101.096 86.2783C100.751 86.6233 100.516 87.0627 100.421 87.541C100.326 88.0193 100.375 88.515 100.562 88.9655C100.749 89.416 101.065 89.8011 101.471 90.0722C101.876 90.3433 102.353 90.4882 102.842 90.4887Z" fill="#2D2FEE"/>
<path d="M110.366 76.8711L116.59 92.4953C116.778 93.1193 117.199 93.6469 117.767 93.9685C118.334 94.2901 119.004 94.381 119.636 94.2222C120.252 94.0319 120.768 93.609 121.076 93.0436C121.383 92.4783 121.458 91.8153 121.283 91.196L115.059 75.5553C114.98 75.2347 114.838 74.9331 114.64 74.6684C114.443 74.4038 114.194 74.1814 113.909 74.0144C113.624 73.8475 113.308 73.7394 112.981 73.6966C112.653 73.6538 112.32 73.6771 112.001 73.7652C111.683 73.8533 111.385 74.0043 111.126 74.2093C110.867 74.4144 110.652 74.6693 110.493 74.9589C110.335 75.2485 110.236 75.567 110.203 75.8954C110.17 76.2239 110.203 76.5557 110.301 76.8711H110.366Z" fill="#2D2FEE"/>
<path d="M117.907 86.114C121.649 85.0758 125.217 83.4907 128.494 81.4102C129.051 81.0689 129.454 80.5247 129.616 79.8925C129.779 79.2604 129.69 78.5897 129.367 78.0223C129.031 77.4638 128.489 77.0595 127.858 76.8964C127.226 76.7334 126.556 76.8247 125.992 77.1506C124.476 78.1212 122.891 78.9788 121.25 79.7162L120.591 79.9958C121.2 79.7656 120.591 79.9958 120.591 79.9958L119.241 80.5057C118.385 80.8182 117.594 81.0813 116.672 81.3116C116.039 81.4839 115.5 81.9004 115.175 82.4694C114.849 83.0385 114.763 83.7135 114.935 84.346C115.108 84.9784 115.525 85.5166 116.094 85.842C116.664 86.1674 117.34 86.2534 117.973 86.0811L117.907 86.114Z" fill="#2D2FEE"/>
<path d="M124.411 74.9471C126.971 80.4391 129.214 86.0731 131.129 91.8213C131.208 92.1419 131.35 92.4435 131.547 92.7082C131.745 92.9728 131.994 93.1952 132.279 93.3622C132.564 93.5291 132.88 93.6372 133.207 93.68C133.535 93.7228 133.868 93.6995 134.187 93.6114C134.505 93.5234 134.803 93.3723 135.062 93.1673C135.321 92.9622 135.536 92.7074 135.695 92.4177C135.853 92.1281 135.952 91.8096 135.985 91.4812C136.018 91.1527 135.985 90.8209 135.887 90.5055C133.83 84.3429 131.422 78.3027 128.676 72.4143C128.344 71.8745 127.817 71.4829 127.204 71.3206C126.591 71.1583 125.939 71.2378 125.383 71.5426C124.83 71.884 124.43 72.424 124.265 73.0513C124.099 73.6786 124.181 74.3454 124.493 74.9142L124.411 74.9471Z" fill="#2D2FEE"/>
<path d="M135.722 74.3057C136.233 75.2103 136.694 76.1477 137.138 77.0852C137.254 77.3483 137.254 77.3648 137.138 77.0852L137.303 77.4964L137.55 78.1213C137.748 78.6476 137.929 79.1958 138.093 79.766C138.39 80.7692 138.653 81.7725 138.851 82.7921C138.95 83.302 139.032 83.8283 139.114 84.3381C139.114 84.519 139.114 84.4861 139.114 84.2394C139.122 84.3873 139.122 84.5356 139.114 84.6835C139.114 84.9795 139.114 85.2756 139.197 85.5716C139.197 86.2259 139.457 86.8534 139.92 87.316C140.383 87.7787 141.011 88.0386 141.666 88.0386C142.321 88.0386 142.95 87.7787 143.413 87.316C143.876 86.8534 144.136 86.2259 144.136 85.5716C143.759 80.7453 142.319 76.0618 139.921 71.8552C139.764 71.5629 139.55 71.3052 139.292 71.0975C139.033 70.8897 138.735 70.7361 138.416 70.6459C138.097 70.5556 137.762 70.5306 137.433 70.5723C137.104 70.614 136.786 70.7215 136.5 70.8885C136.213 71.0555 135.963 71.2784 135.764 71.5441C135.566 71.8097 135.423 72.1126 135.344 72.4346C135.266 72.7567 135.253 73.0912 135.306 73.4183C135.36 73.7455 135.479 74.0585 135.657 74.3386L135.722 74.3057Z" fill="#2D2FEE"/>
<path d="M131.03 70.7525L144.202 69.223C144.857 69.223 145.485 68.9631 145.948 68.5005C146.412 68.0378 146.672 67.4103 146.672 66.756C146.672 66.1018 146.412 65.4743 145.948 65.0116C145.485 64.549 144.857 64.2891 144.202 64.2891L131.03 65.8186C130.379 65.8312 129.758 66.0952 129.297 66.5551C128.837 67.0151 128.573 67.6352 128.56 68.2856C128.56 69.4862 129.663 70.917 131.03 70.7525Z" fill="#2D2FEE"/>
<path d="M90.3279 119.353C91.9217 124.659 93.0727 130.089 93.7691 135.585C93.7817 136.236 94.046 136.856 94.5065 137.316C94.9669 137.776 95.5878 138.04 96.2389 138.052C96.8926 138.048 97.5183 137.787 97.9805 137.325C98.4428 136.863 98.7043 136.238 98.7087 135.585C97.9847 129.648 96.7788 123.779 95.1028 118.037C94.8983 117.428 94.4701 116.92 93.9046 116.614C93.3391 116.309 92.6786 116.23 92.0567 116.392C91.431 116.573 90.9004 116.99 90.5776 117.555C90.2548 118.12 90.1652 118.788 90.3279 119.418V119.353Z" fill="#2D2FEE"/>
<path d="M97.8358 131.425L104.801 127.839C105.362 127.507 105.771 126.966 105.937 126.335C106.103 125.705 106.015 125.034 105.69 124.468C105.348 123.916 104.807 123.516 104.179 123.351C103.551 123.186 102.884 123.268 102.314 123.58L95.2673 127.165C94.7271 127.497 94.3342 128.022 94.169 128.633C94.0037 129.245 94.0785 129.896 94.3782 130.454C94.7229 131.007 95.2665 131.407 95.8972 131.572C96.528 131.737 97.1981 131.655 97.77 131.342L97.8358 131.425Z" fill="#2D2FEE"/>
<path d="M100.652 116.162L105.048 134.911C105.223 135.544 105.642 136.081 106.213 136.405C106.784 136.728 107.461 136.812 108.094 136.638C108.727 136.463 109.265 136.045 109.589 135.474C109.913 134.904 109.997 134.228 109.823 133.595L105.427 114.846C105.34 114.533 105.193 114.24 104.993 113.984C104.793 113.727 104.544 113.513 104.262 113.353C103.69 113.029 103.014 112.945 102.381 113.119C101.747 113.294 101.209 113.712 100.885 114.283C100.561 114.854 100.477 115.529 100.652 116.162Z" fill="#2D2FEE"/>
<path d="M110.893 118.152L113.741 125.388C114.454 127.718 115.568 129.905 117.034 131.852C117.841 132.801 118.89 133.513 120.071 133.913C121.251 134.313 122.518 134.385 123.736 134.122C124.836 133.783 125.856 133.223 126.732 132.477L127.045 132.23C126.815 132.411 126.798 132.411 127.045 132.23L127.523 131.901C127.654 131.901 128.165 131.622 127.523 131.803L127.885 131.688C127.539 131.688 127.506 131.688 127.786 131.688C128.441 131.688 129.069 131.428 129.532 130.965C129.996 130.502 130.256 129.875 130.256 129.221C130.256 128.566 129.996 127.939 129.532 127.476C129.069 127.013 128.441 126.754 127.786 126.754C126.719 126.807 125.685 127.141 124.789 127.724C124.328 128.02 123.917 128.365 123.489 128.694C123.061 129.023 123.9 128.415 123.357 128.809L122.863 129.138C122.696 129.247 122.52 129.341 122.336 129.418C122.863 129.171 122.336 129.418 122.155 129.418C122.665 129.303 122.155 129.418 121.957 129.418C122.435 129.418 121.957 129.418 121.76 129.418C121.167 129.27 122.056 129.632 121.529 129.418L120.953 129.073C121.348 129.319 120.838 128.957 120.772 128.892C120.605 128.734 120.451 128.563 120.311 128.382C120.558 128.694 120.163 128.152 120.13 128.102L119.768 127.477C119.652 127.263 119.553 127.033 119.455 126.819C119.356 126.606 119.142 126.112 119.307 126.523C118.895 125.52 118.5 124.484 118.105 123.481L115.651 116.803C115.573 116.483 115.43 116.181 115.233 115.916C115.035 115.652 114.787 115.429 114.501 115.262C114.216 115.096 113.901 114.987 113.573 114.945C113.245 114.902 112.912 114.925 112.594 115.013C112.275 115.101 111.977 115.252 111.718 115.457C111.459 115.662 111.244 115.917 111.086 116.207C110.927 116.497 110.828 116.815 110.795 117.143C110.762 117.472 110.795 117.804 110.893 118.119V118.152Z" fill="#2D2FEE"/>
<path d="M116.672 126.063C120.18 125.218 123.562 123.919 126.732 122.198C127.294 121.866 127.702 121.325 127.869 120.695C128.035 120.064 127.946 119.393 127.621 118.827C127.284 118.293 126.758 117.906 126.148 117.741C125.538 117.577 124.889 117.647 124.328 117.939C123.571 118.35 122.797 118.744 122.007 119.09L121.546 119.304L121.348 119.402C120.986 119.583 120.591 119.698 120.229 119.846C118.671 120.438 117.076 120.927 115.454 121.31C115.126 121.382 114.817 121.519 114.545 121.714C114.272 121.908 114.042 122.156 113.869 122.443C113.695 122.729 113.582 123.048 113.535 123.379C113.489 123.71 113.511 124.048 113.599 124.371C113.687 124.693 113.841 124.995 114.049 125.257C114.258 125.519 114.518 125.735 114.813 125.894C115.108 126.052 115.432 126.149 115.766 126.178C116.1 126.207 116.436 126.168 116.754 126.063H116.672Z" fill="#2D2FEE"/>
<path d="M112.852 118.284C113.588 117.878 114.345 117.484 115.124 117.1L116.228 116.574L116.689 116.376L116.886 116.278C117.619 115.944 118.372 115.659 119.142 115.422C119.949 115.126 120.789 114.863 121.595 114.617C122.206 114.419 122.717 113.995 123.024 113.432C123.33 112.869 123.408 112.209 123.242 111.59C123.054 110.966 122.633 110.439 122.065 110.117C121.498 109.796 120.828 109.705 120.196 109.863C116.759 110.882 113.446 112.278 110.317 114.024C109.751 114.356 109.341 114.898 109.175 115.532C109.01 116.166 109.104 116.839 109.436 117.404C109.768 117.969 110.311 118.379 110.945 118.544C111.58 118.709 112.254 118.616 112.819 118.284H112.852Z" fill="#2D2FEE"/>
<path d="M60.9871 168.101L65.054 181.751C65.2584 182.36 65.6867 182.868 66.2522 183.174C66.8177 183.479 67.4782 183.558 68.1 183.396C68.7258 183.215 69.2564 182.798 69.5792 182.233C69.902 181.668 69.9916 181 69.8289 180.37L65.7455 166.703C65.5559 166.09 65.1346 165.574 64.571 165.267C64.0075 164.959 63.346 164.882 62.7269 165.053C62.1078 165.224 61.5799 165.63 61.2551 166.183C60.9303 166.737 60.8341 167.395 60.9871 168.018V168.101Z" fill="#2D2FEE"/>
<path d="M66.3545 169.745C66.6637 169.422 66.9937 169.12 67.3424 168.84C67.9023 168.379 66.9638 169.087 67.5565 168.692C67.7365 168.556 67.9233 168.43 68.1163 168.314C68.4621 168.1 68.8243 167.886 69.1866 167.705L69.5982 167.508L69.9275 167.376C70.7669 167.059 71.6396 166.838 72.529 166.718C72.068 166.718 72.6113 166.718 72.7595 166.718C72.9077 166.718 72.9571 166.718 72.7595 166.636C72.6512 166.586 72.5512 166.519 72.4631 166.439C72.282 166.192 72.2326 166.159 72.3314 166.307C72.4302 166.455 72.3314 166.422 72.3314 166.159L72.4302 166.422C73.7639 170.485 74.9823 174.646 76.2666 178.675C76.3453 178.996 76.4876 179.297 76.6851 179.562C76.8826 179.827 77.1313 180.049 77.4164 180.216C77.7016 180.383 78.0173 180.491 78.345 180.534C78.6727 180.577 79.0057 180.553 79.3242 180.465C79.6427 180.377 79.9403 180.226 80.1993 180.021C80.4584 179.816 80.6735 179.561 80.8321 179.272C80.9907 178.982 81.0895 178.663 81.1227 178.335C81.1558 178.006 81.1226 177.675 81.025 177.359L78.7858 170.222L77.6332 166.521C77.3525 165.245 76.7899 164.049 75.9867 163.018C74.1755 161.077 71.0471 161.801 68.7749 162.59C66.5746 163.375 64.5736 164.632 62.9133 166.274C62.4548 166.739 62.1978 167.365 62.1978 168.018C62.1978 168.67 62.4548 169.296 62.9133 169.761C63.3825 170.211 64.008 170.463 64.6586 170.463C65.3093 170.463 65.9347 170.211 66.4039 169.761L66.3545 169.745Z" fill="#2D2FEE"/>
<path d="M79.9056 163.051L85.9813 178.741C86.0529 179.068 86.1903 179.377 86.3852 179.649C86.5802 179.921 86.8285 180.151 87.1151 180.324C87.4017 180.497 87.7206 180.611 88.0525 180.657C88.3843 180.703 88.722 180.681 89.0452 180.593C89.3684 180.505 89.6702 180.352 89.9323 180.144C90.1944 179.935 90.4113 179.676 90.5698 179.381C90.7284 179.086 90.8251 178.762 90.8543 178.429C90.8835 178.095 90.8445 177.759 90.7397 177.441L84.6641 161.735C84.4597 161.13 84.034 160.624 83.4722 160.319C82.9104 160.014 82.254 159.932 81.6345 160.09C81.0051 160.271 80.4716 160.69 80.1484 161.259C79.8252 161.828 79.738 162.501 79.9056 163.133V163.051Z" fill="#2D2FEE"/>
<path d="M85.8165 164.499C86.047 164.186 85.6354 164.729 85.6354 164.729C85.6354 164.729 85.7671 164.565 85.8165 164.515C85.8659 164.466 86.0305 164.301 86.1293 164.203L86.294 164.055C86.5245 163.841 85.7506 164.433 86.1129 164.203L86.5245 163.923L86.9691 163.693C87.3148 163.528 86.3434 163.94 86.8867 163.693C87.2007 163.572 87.5262 163.484 87.8582 163.43C88.4509 163.315 87.3642 163.43 87.7594 163.43H88.9449C89.4553 163.43 88.4674 163.348 88.7308 163.43C88.9943 163.512 89.3565 163.545 89.6694 163.644L90.081 163.792C89.3071 163.545 89.8669 163.709 90.081 163.792L90.4597 164.022L90.6408 164.153C90.9536 164.351 90.3938 163.972 90.4103 163.972C90.4268 163.972 91.003 164.565 91.1018 164.68C90.5585 164.121 90.9536 164.482 91.1018 164.68L91.3159 165.058C91.5464 165.518 91.1018 164.466 91.3159 165.058L91.4641 165.584C91.4641 165.831 91.4641 166.291 91.4641 165.486C91.4641 165.634 91.4641 165.765 91.4641 165.913V166.374C91.4641 166.374 91.4641 166.522 91.4641 166.588C91.4641 167.13 91.4641 166.407 91.4641 166.374C91.4641 166.341 91.2994 167.196 91.2665 167.311L91.1183 167.739C91.1183 167.936 90.8713 168.117 91.2171 167.509C91.1718 167.593 91.1333 167.681 91.1018 167.772C90.9372 168.084 90.7231 168.364 90.542 168.676C90.9372 168.002 90.6902 168.495 90.542 168.676L90.1468 169.071L89.9822 169.203C89.6529 169.499 90.4926 168.857 90.1304 169.087L89.6694 169.383L89.4718 169.482C89.126 169.663 89.9657 169.301 89.7023 169.383L89.1095 169.581C88.7842 169.666 88.4796 169.816 88.2139 170.021C87.9483 170.227 87.7272 170.485 87.5641 170.778C87.4009 171.072 87.2991 171.396 87.2648 171.73C87.2304 172.064 87.2642 172.401 87.3642 172.722C87.5485 173.348 87.9693 173.879 88.5377 174.201C89.106 174.523 89.7775 174.612 90.4103 174.449C92.3945 173.829 94.0851 172.509 95.1667 170.736C96.2483 168.963 96.647 166.857 96.2883 164.811C95.8861 162.885 94.7749 161.179 93.1744 160.031C91.5739 158.883 89.6005 158.376 87.6441 158.611C86.4369 158.704 85.265 159.061 84.212 159.658C83.159 160.255 82.2507 161.077 81.552 162.065C81.2271 162.631 81.1383 163.302 81.3047 163.933C81.471 164.563 81.8793 165.104 82.4412 165.436C83.0015 165.728 83.6511 165.798 84.261 165.634C84.871 165.469 85.3968 165.082 85.7342 164.548L85.8165 164.499Z" fill="#2D2FEE"/>
<path d="M99.812 159.301C99.5633 161.219 99.7018 163.168 100.219 165.033C100.737 166.897 101.623 168.639 102.825 170.156C103.427 170.871 104.185 171.439 105.042 171.815C105.898 172.192 106.83 172.367 107.765 172.327C109.716 172.047 111.485 171.028 112.704 169.481C113.802 168.182 114.608 166.663 115.069 165.026C115.529 163.389 115.632 161.672 115.372 159.992C115.146 158.24 114.421 156.591 113.282 155.241C112.143 153.891 110.639 152.896 108.95 152.377C107.916 152.134 106.837 152.158 105.815 152.446C104.793 152.733 103.86 153.276 103.105 154.022C102.316 154.728 101.75 155.648 101.475 156.67C101.201 157.692 101.229 158.772 101.557 159.778C101.629 160.105 101.766 160.414 101.961 160.686C102.156 160.958 102.405 161.188 102.691 161.361C102.978 161.534 103.297 161.648 103.628 161.694C103.96 161.74 104.298 161.718 104.621 161.63C104.944 161.542 105.246 161.389 105.508 161.181C105.77 160.972 105.987 160.713 106.146 160.418C106.304 160.123 106.401 159.799 106.43 159.466C106.46 159.132 106.421 158.796 106.316 158.479C106.316 158.347 106.233 158.215 106.184 158.1C106.135 157.985 106.266 158.676 106.184 158.183C106.184 158.183 106.184 157.788 106.184 158.183C106.184 158.577 106.184 158.1 106.184 158.035C106.184 157.969 106.184 158.035 106.184 158.183L106.382 157.837C106.382 157.706 106.661 157.541 106.382 157.837L106.661 157.541C106.958 157.229 106.661 157.541 106.661 157.541L107.007 157.327C107.139 157.229 107.386 157.229 107.007 157.327C107.007 157.327 107.221 157.229 107.304 157.327C107.386 157.426 106.876 157.327 107.304 157.327H107.633C108.077 157.327 107.748 157.327 107.633 157.327L108.16 157.459L108.473 157.574C108.045 157.41 108.473 157.574 108.473 157.574C108.473 157.574 109.247 158.1 108.901 157.804C109.105 157.972 109.297 158.153 109.477 158.347L109.691 158.594C110.152 159.12 109.576 158.396 109.79 158.725C109.943 158.94 110.08 159.166 110.201 159.4L110.399 159.794C110.185 159.383 110.399 159.679 110.399 159.794C110.583 160.331 110.726 160.881 110.827 161.439C110.827 160.946 110.827 161.538 110.827 161.735V162.475C110.827 162.59 110.712 163.429 110.827 162.87C110.827 163.133 110.728 163.413 110.663 163.692C110.597 163.972 110.531 164.169 110.448 164.399C110.366 164.63 110.152 165.107 110.35 164.695C110.108 165.201 109.833 165.69 109.526 166.159C109.263 166.537 109.526 166.159 109.526 166.159L109.247 166.472L108.72 166.998C108.637 166.998 108.127 167.458 108.456 167.245L108.012 167.524L107.781 167.639C107.946 167.639 107.946 167.639 107.781 167.639C107.616 167.639 107.567 167.722 107.781 167.639C107.644 167.657 107.506 167.657 107.369 167.639C107.452 167.639 107.896 167.722 107.369 167.639C107.369 167.639 106.991 167.541 107.287 167.639C107.584 167.738 106.958 167.442 106.859 167.376C107.205 167.574 106.958 167.475 106.859 167.376L106.464 166.981C106.464 166.981 106.118 166.587 106.299 166.817C106.48 167.047 106.102 166.504 106.102 166.504C105.943 166.256 105.8 165.998 105.674 165.731C105.674 165.649 105.476 165.287 105.674 165.731C105.594 165.567 105.528 165.397 105.476 165.222C105.33 164.824 105.209 164.417 105.114 164.005C105.001 163.605 104.913 163.198 104.85 162.788C104.85 162.788 104.85 162.36 104.85 162.557C104.85 162.755 104.85 162.13 104.85 162.047C104.776 161.216 104.776 160.379 104.85 159.548C104.842 158.896 104.579 158.273 104.118 157.813C103.656 157.352 103.033 157.089 102.381 157.081C101.731 157.097 101.112 157.363 100.653 157.822C100.193 158.281 99.9274 158.899 99.9108 159.548L99.812 159.301Z" fill="#2D2FEE"/>
<path d="M117.347 154.959L119.867 168.117C120.064 168.73 120.491 169.244 121.059 169.55C121.626 169.856 122.291 169.932 122.913 169.761C123.522 169.557 124.031 169.129 124.337 168.564C124.642 168 124.722 167.34 124.559 166.719L122.04 153.561C121.853 152.944 121.43 152.426 120.863 152.118C120.296 151.81 119.63 151.738 119.01 151.917C118.385 152.097 117.854 152.514 117.531 153.079C117.208 153.644 117.119 154.313 117.281 154.943L117.347 154.959Z" fill="#2D2FEE"/>
<path d="M121.497 157.296C122.947 156 124.557 154.894 126.288 154.006C126.495 153.884 126.71 153.774 126.93 153.677C126.749 153.677 127.391 153.513 127.095 153.677H126.947C127.177 153.76 127.194 153.76 126.947 153.677C126.7 153.595 126.798 153.677 126.947 153.677L126.765 153.546C126.914 153.727 126.947 153.743 126.765 153.546C126.584 153.348 126.683 153.431 126.765 153.628L127.029 154.089C127.111 154.269 127.21 154.549 127.029 154.22C127.111 154.417 127.177 154.615 127.243 154.829C128.659 159.187 129.894 163.611 131.228 167.986C131.417 168.599 131.838 169.114 132.402 169.422C132.966 169.73 133.627 169.806 134.246 169.635C134.865 169.464 135.393 169.059 135.718 168.505C136.043 167.951 136.139 167.293 135.986 166.67L133.615 158.792L132.446 154.944C132.145 153.754 131.726 152.597 131.195 151.49C130.636 150.406 129.733 149.538 128.626 149.023C127.899 148.748 127.121 148.637 126.346 148.7C125.571 148.762 124.82 148.996 124.148 149.385C121.792 150.545 119.618 152.041 117.693 153.825C117.23 154.29 116.971 154.919 116.973 155.575C116.974 156.23 117.236 156.858 117.701 157.32C118.166 157.783 118.796 158.042 119.453 158.04C120.109 158.038 120.737 157.777 121.2 157.312L121.497 157.296Z" fill="#2D2FEE"/>
<path d="M132.94 150.388C133.947 152.435 134.848 154.532 135.64 156.67C136.48 158.94 137.287 161.226 137.846 163.545C138 164.126 138.362 164.632 138.863 164.966C139.363 165.3 139.969 165.439 140.566 165.359C141.163 165.278 141.709 164.982 142.103 164.527C142.497 164.072 142.71 163.489 142.704 162.887C142.638 161.989 142.638 161.088 142.704 160.19C142.704 159.91 142.704 159.96 142.704 160.322C142.694 160.201 142.694 160.08 142.704 159.96C142.737 159.726 142.787 159.496 142.852 159.269C142.852 159.104 142.967 158.956 143.016 158.792V158.924C143.053 158.819 143.102 158.719 143.165 158.627L143.329 158.348L143.231 158.479C143.332 158.357 143.442 158.241 143.56 158.134C143.263 158.348 143.214 158.381 143.445 158.233L143.724 158.068C143.379 158.2 143.329 158.233 143.593 158.068L143.922 157.97C143.549 157.97 143.499 157.97 143.774 157.97H143.939C143.543 157.97 143.494 157.97 143.757 157.97H144.07C143.741 157.822 143.708 157.805 143.939 157.97L144.235 158.134C144.614 158.348 143.955 157.789 144.334 158.233L144.515 158.414C144.67 158.585 144.788 158.786 144.861 159.006C144.729 158.677 144.729 158.644 144.861 158.907C144.861 158.989 144.861 159.072 144.943 159.154V159.4C144.943 159.022 144.943 158.973 144.943 159.252C144.959 159.367 144.959 159.483 144.943 159.598C144.943 159.22 144.943 159.17 144.943 159.45L144.844 159.779C144.992 159.466 145.009 159.417 144.844 159.664C144.679 159.91 144.663 160.075 144.581 160.091C144.795 159.812 144.811 159.779 144.581 159.976L144.35 160.206C144.136 160.371 144.186 160.354 144.449 160.206L144.169 160.387C144.03 160.485 143.881 160.568 143.724 160.634H143.856L143.527 160.733C143.395 160.733 142.984 160.93 142.852 160.881C143.231 160.881 143.28 160.881 143 160.881H142.819C142.72 160.881 142.21 160.881 142.127 160.881C142.501 160.881 142.55 160.881 142.276 160.881L141.946 160.798L141.617 160.7H141.732C141.452 160.523 141.138 160.404 140.811 160.35C140.483 160.296 140.148 160.309 139.826 160.388C139.504 160.467 139.2 160.609 138.934 160.808C138.669 161.006 138.445 161.256 138.278 161.542C138.111 161.828 138.003 162.146 137.962 162.474C137.92 162.803 137.945 163.137 138.035 163.456C138.126 163.775 138.279 164.073 138.487 164.331C138.695 164.589 138.953 164.803 139.246 164.959C140.332 165.495 141.526 165.773 142.737 165.773C143.947 165.773 145.142 165.495 146.227 164.959C147.304 164.442 148.209 163.625 148.834 162.607C149.459 161.589 149.777 160.413 149.751 159.22C149.662 157.936 149.198 156.706 148.417 155.683C147.635 154.66 146.571 153.888 145.355 153.463C144.15 153.115 142.863 153.181 141.701 153.653C140.539 154.124 139.57 154.973 138.95 156.062C137.854 158.183 137.424 160.584 137.715 162.953L142.572 162.312C141.214 157.374 139.4 152.573 137.155 147.97C136.825 147.406 136.284 146.995 135.651 146.828C135.018 146.662 134.345 146.753 133.78 147.082C133.248 147.422 132.863 147.947 132.698 148.555C132.534 149.163 132.603 149.811 132.89 150.371L132.94 150.388Z" fill="#2D2FEE"/>
<path d="M109.247 193.707L110.333 201.585C110.696 204.151 110.959 206.848 113.314 208.411C114.412 208.995 115.641 209.291 116.885 209.271C118.129 209.251 119.348 208.915 120.427 208.296C121.414 207.852 122.32 207.243 123.308 206.75C123.308 206.75 123.999 206.421 123.604 206.585C123.867 206.475 124.136 206.381 124.411 206.306L124.757 206.223C124.477 206.223 124.493 206.223 124.757 206.223H125.218C124.954 206.223 124.971 206.223 125.218 206.223C125.851 206.398 126.528 206.314 127.099 205.99C127.67 205.666 128.089 205.129 128.264 204.496C128.439 203.864 128.355 203.188 128.03 202.618C127.706 202.047 127.168 201.628 126.535 201.454C124.041 201.075 121.496 201.663 119.422 203.098C118.994 203.345 118.566 203.592 118.138 203.806L117.841 203.937L117.232 204.135L116.623 204.266C117.216 204.151 116.541 204.266 116.376 204.266C115.75 204.266 116.607 204.414 116.162 204.266C115.981 204.266 115.619 203.954 116.047 204.266C115.948 204.266 115.52 203.855 115.915 204.266C115.717 204.052 115.701 204.052 115.915 204.266L115.8 204.085C115.668 203.822 115.668 203.822 115.8 204.085C115.8 203.987 115.8 203.888 115.685 203.773C115.569 203.658 115.553 203.279 115.503 203.033C115.273 201.931 115.158 200.796 115.009 199.743L113.989 192.425C113.802 191.808 113.379 191.289 112.812 190.981C112.245 190.673 111.579 190.601 110.959 190.78C110.351 190.981 109.842 191.405 109.536 191.968C109.23 192.53 109.15 193.187 109.313 193.806L109.247 193.707Z" fill="#2D2FEE"/>
<path d="M113.379 200.221L124.049 196.554C124.662 196.364 125.178 195.943 125.486 195.38C125.794 194.817 125.871 194.157 125.7 193.538C125.528 192.92 125.122 192.393 124.568 192.068C124.014 191.744 123.355 191.648 122.731 191.8L112.062 195.468C111.741 195.547 111.439 195.689 111.174 195.886C110.909 196.083 110.686 196.332 110.519 196.617C110.352 196.901 110.244 197.217 110.201 197.544C110.158 197.871 110.182 198.204 110.27 198.522C110.358 198.84 110.509 199.138 110.714 199.396C110.92 199.655 111.175 199.87 111.465 200.028C111.755 200.187 112.074 200.285 112.402 200.319C112.731 200.352 113.063 200.319 113.379 200.221Z" fill="#2D2FEE"/>
<path d="M112.292 194.102L113.149 193.724C112.704 193.921 113.396 193.625 113.412 193.625C113.928 193.417 114.438 193.219 114.943 193.033C115.915 192.655 116.919 192.326 117.923 192.013C119.973 191.388 122.057 190.877 124.164 190.484C124.779 190.294 125.296 189.871 125.603 189.305C125.911 188.74 125.985 188.077 125.81 187.458C125.622 186.837 125.204 186.312 124.64 185.991C124.076 185.67 123.411 185.577 122.781 185.731C118.283 186.588 113.901 187.968 109.724 189.842C109.162 190.175 108.754 190.715 108.587 191.346C108.421 191.977 108.51 192.648 108.835 193.214C109.177 193.77 109.72 194.173 110.352 194.338C110.984 194.503 111.656 194.419 112.227 194.102H112.292Z" fill="#2D2FEE"/>
<path d="M131.491 184.826C132.853 186.866 133.731 189.189 134.06 191.619C134.06 191.224 134.06 191.997 134.06 192.013C134.06 192.375 134.06 192.721 134.06 193.082C134.093 193.701 134.093 194.322 134.06 194.941C133.961 196.04 134.016 197.147 134.224 198.23C134.367 198.879 134.644 199.491 135.039 200.027C135.433 200.562 135.935 201.009 136.513 201.339C137.261 201.676 138.072 201.85 138.892 201.85C139.713 201.85 140.524 201.676 141.271 201.339C144.071 200.352 146.87 199.316 149.669 198.296C150.282 198.107 150.798 197.686 151.106 197.123C151.415 196.56 151.491 195.899 151.32 195.281C151.148 194.662 150.743 194.135 150.188 193.811C149.634 193.486 148.975 193.39 148.351 193.543L140.827 196.273C140.251 196.487 139.658 196.717 139.049 196.882L138.653 196.964C138.692 196.937 138.738 196.923 138.785 196.923C138.832 196.923 138.878 196.937 138.917 196.964H138.653C138.729 196.968 138.802 196.99 138.868 197.027C138.933 197.064 138.99 197.115 139.032 197.178C138.588 196.865 139.378 197.391 139.032 197.079C139.147 197.391 139.164 197.408 139.032 197.079V196.799C139.032 196.618 139.032 196.668 139.032 196.947C139.024 196.81 139.024 196.673 139.032 196.536C139.032 196.322 139.032 196.109 139.032 195.895C139.173 193.566 139.023 191.23 138.588 188.938C138.041 186.567 137.088 184.308 135.772 182.261C135.608 181.981 135.39 181.736 135.131 181.541C134.872 181.345 134.577 181.202 134.263 181.121C133.948 181.039 133.621 181.02 133.3 181.064C132.978 181.109 132.668 181.217 132.388 181.381C132.108 181.545 131.864 181.762 131.668 182.021C131.472 182.28 131.329 182.575 131.247 182.888C131.165 183.202 131.146 183.529 131.191 183.85C131.236 184.171 131.343 184.481 131.508 184.76L131.491 184.826Z" fill="#2D2FEE"/>
<path d="M140.629 185.551L143.922 195.517C144.001 195.838 144.143 196.139 144.341 196.404C144.538 196.669 144.787 196.891 145.072 197.058C145.357 197.225 145.673 197.333 146.001 197.376C146.328 197.419 146.661 197.395 146.98 197.307C147.298 197.219 147.596 197.068 147.855 196.863C148.114 196.658 148.329 196.403 148.488 196.114C148.646 195.824 148.745 195.506 148.778 195.177C148.811 194.849 148.778 194.517 148.681 194.201L145.388 184.235C145.198 183.622 144.777 183.107 144.213 182.799C143.65 182.491 142.988 182.414 142.369 182.586C141.75 182.757 141.222 183.162 140.897 183.716C140.572 184.269 140.476 184.927 140.629 185.551Z" fill="#2D2FEE"/>
<path d="M147.462 181.817C148.911 186.817 150.525 191.751 152.303 196.619L155.925 193.823C154.863 193.286 153.685 193.016 152.494 193.036C151.304 193.056 150.136 193.366 149.092 193.938C148.8 194.095 148.542 194.308 148.334 194.567C148.126 194.825 147.972 195.123 147.882 195.441C147.791 195.76 147.766 196.094 147.808 196.423C147.85 196.752 147.957 197.069 148.124 197.356C148.292 197.642 148.515 197.892 148.781 198.09C149.047 198.288 149.35 198.431 149.672 198.51C149.995 198.588 150.33 198.601 150.657 198.548C150.985 198.494 151.298 198.375 151.578 198.198C151.842 198.083 151.858 198.05 151.578 198.198L152.023 198.05C152.319 198.05 152.336 198.05 152.023 198.05H152.385C152.517 198.05 153.258 198.165 152.797 198.05C152.896 198.05 153.702 198.379 153.324 198.181C153.75 198.421 154.237 198.532 154.726 198.5C155.214 198.468 155.682 198.294 156.073 198C156.463 197.705 156.755 197.299 156.911 196.836C157.066 196.372 157.079 195.872 156.946 195.402C155.184 190.468 153.554 185.534 152.105 180.6C151.916 179.987 151.494 179.472 150.931 179.164C150.367 178.856 149.706 178.78 149.087 178.951C148.468 179.122 147.94 179.527 147.615 180.081C147.29 180.634 147.194 181.293 147.347 181.916L147.462 181.817Z" fill="#2D2FEE"/>
<path d="M156.617 179.382L161.655 195.007C161.83 195.639 162.249 196.176 162.82 196.5C163.392 196.824 164.068 196.908 164.701 196.734C165.335 196.559 165.873 196.141 166.197 195.57C166.521 194.999 166.605 194.323 166.43 193.691L161.392 178.083C161.191 177.472 160.763 176.961 160.197 176.655C159.63 176.349 158.968 176.272 158.346 176.439C157.718 176.615 157.184 177.032 156.861 177.598C156.538 178.164 156.45 178.835 156.617 179.465V179.382Z" fill="#2D2FEE"/>
<path d="M164.504 186.142L164.339 186.356C164.391 186.268 164.458 186.19 164.536 186.125L164.866 185.797C164.866 185.797 165.179 185.55 164.866 185.797C164.553 186.043 164.866 185.797 164.866 185.797C165.013 185.694 165.167 185.6 165.327 185.517C165.327 185.517 165.524 185.385 165.59 185.385C165.656 185.385 164.965 185.632 165.327 185.5L165.788 185.352L166.249 185.237H166.479C165.738 185.402 166.084 185.237 166.298 185.237H166.776C166.907 185.237 167.55 185.237 167.039 185.237C166.529 185.237 167.138 185.237 167.237 185.237L167.797 185.402C168.077 185.484 167.286 185.155 167.533 185.303L167.747 185.402C167.907 185.485 168.061 185.579 168.208 185.681C168.389 185.797 168.34 185.928 167.994 185.517L168.159 185.681L168.57 186.093C168.702 186.241 168.702 186.405 168.406 185.879C168.406 185.879 168.505 186.01 168.538 186.076C168.632 186.2 168.714 186.332 168.784 186.471L168.9 186.685C169.114 187.079 168.719 186.191 168.9 186.471C169.081 186.75 169.015 186.816 169.064 186.981C169.114 187.145 169.163 187.326 169.196 187.507C169.311 188.05 169.196 186.898 169.196 187.507C169.196 187.688 169.196 187.869 169.196 188.033C169.196 188.198 169.031 188.921 169.196 188.033C169.196 188.346 169.064 188.642 168.966 188.954C168.931 189.023 168.903 189.094 168.883 189.168C169.064 188.527 169.081 188.74 168.982 188.905C168.893 189.08 168.794 189.251 168.686 189.415L168.538 189.612C168.867 189.086 168.834 189.267 168.702 189.398L168.323 189.793L168.142 189.941C167.928 190.155 168.603 189.612 168.356 189.777L167.862 190.106L167.648 190.221C167.55 190.221 167.122 190.451 167.648 190.221C168.175 189.99 167.484 190.221 167.368 190.303L166.776 190.451H166.545C167.253 190.286 166.957 190.451 166.71 190.451H165.87C165.409 190.451 166.512 190.582 166.051 190.451L165.524 190.319H165.244C164.833 190.188 165.804 190.566 165.376 190.319C164.796 190.009 164.123 189.922 163.483 190.073C162.864 190.252 162.335 190.657 162.001 191.207C161.676 191.773 161.587 192.444 161.753 193.075C161.92 193.706 162.328 194.246 162.89 194.579C163.975 195.095 165.162 195.363 166.364 195.363C167.566 195.363 168.753 195.095 169.838 194.579C170.842 194.129 171.731 193.459 172.441 192.619C173.151 191.779 173.662 190.791 173.938 189.727C174.207 188.654 174.25 187.537 174.063 186.447C173.876 185.357 173.463 184.317 172.851 183.395C172.194 182.411 171.309 181.599 170.272 181.026C169.235 180.454 168.075 180.138 166.891 180.106C165.607 180.068 164.333 180.348 163.183 180.922C162.034 181.496 161.045 182.346 160.305 183.395C160.005 183.953 159.93 184.605 160.096 185.216C160.261 185.828 160.654 186.353 161.194 186.685C161.763 186.997 162.431 187.078 163.059 186.913C163.687 186.748 164.228 186.348 164.569 185.797L164.504 186.142Z" fill="#2D2FEE"/>
<path d="M155.382 152.015C155.909 151.719 156.435 151.439 157.028 151.193C157.621 150.946 156.798 151.291 157.028 151.193L157.39 151.045L158.28 150.716C159.416 150.341 160.584 150.071 161.77 149.91L161.112 149.992C161.737 149.91 162.363 149.86 162.989 149.828C163.644 149.828 164.272 149.568 164.735 149.105C165.198 148.642 165.458 148.015 165.458 147.361C165.458 146.706 165.198 146.079 164.735 145.616C164.272 145.153 163.644 144.894 162.989 144.894C159.468 145.038 156.032 146.013 152.961 147.739C152.396 148.068 151.985 148.609 151.818 149.241C151.652 149.873 151.743 150.545 152.072 151.11C152.41 151.644 152.935 152.031 153.545 152.196C154.155 152.36 154.805 152.29 155.365 151.998L155.382 152.015Z" fill="#2D2FEE"/>
</g>
<defs>
<clipPath id="clip0">
<rect width="222" height="269" fill="white"/>
</clipPath>
</defs>
</svg>
