<svg width="120" height="146" viewBox="0 0 120 146" fill="none" xmlns="http://www.w3.org/2000/svg">
<g clip-path="url(#clip0)">
<path d="M75.8915 22.9318L29.8112 31.4294C24.0108 32.4991 20.1767 38.0631 21.2476 43.857L34.3485 114.74C35.4194 120.533 40.9897 124.363 46.7901 123.294L92.8704 114.796C98.6708 113.726 102.505 108.162 101.434 102.368L88.3331 31.4858C87.2623 25.6919 81.692 21.8622 75.8915 22.9318Z" stroke="#2D2FEE" stroke-width="3" stroke-miterlimit="10" stroke-linecap="round"/>
<path d="M23.4336 20.2611C30.3757 17.2651 38.2167 16.7762 45.6305 15.8161C53.7029 14.7848 61.7841 13.798 69.8476 12.7134C73.4967 12.2245 77.5017 11.9934 80.9283 10.5709C84.1145 9.26411 85.9657 6.40152 88.787 4.59684C92.8544 1.99206 99.8588 1.52978 102.796 6.12593C105.11 9.73528 102.573 17.2118 97.518 16.4295C97.29 16.3682 97.0499 16.3679 96.8218 16.4288C96.5937 16.4896 96.3856 16.6095 96.2186 16.7762C92.4895 21.479 100.17 24.5372 101.229 28.5199C101.648 30.0935 101.229 31.7826 100.953 33.3472C100.638 34.9678 100.638 36.634 100.953 38.2545C101.612 41.1615 103.517 43.5885 104.353 46.3889C105.35 49.7138 103.294 52.6119 102.885 55.8123C102.431 59.3683 104.353 62.4532 105.955 65.458C109.355 71.8322 112.025 78.7931 112.639 86.0473C113.253 93.4438 110.993 100.858 112.354 108.21C112.995 111.704 114.793 114.7 116.164 117.927C117.25 120.496 117.899 123.421 116.689 126.07C114.17 131.591 108.234 126.906 104.852 125.11C102.805 124.026 100.491 123.163 98.1499 123.768C95.382 124.488 93.6999 127.875 90.7273 127.67C89.1608 127.555 87.6745 126.861 86.1437 126.55C84.629 126.197 83.0436 126.299 81.5869 126.844C78.8634 127.928 77.1368 130.337 74.805 132.044C69.3848 136.098 61.6506 134.205 55.4206 134.045C51.8401 133.908 48.2559 134.188 44.7405 134.88C41.3854 135.635 38.1772 136.936 35.2441 138.73C32.574 140.33 29.6637 142.33 26.4419 142.686C24.1189 142.935 21.2264 142.41 19.749 140.419C18.2716 138.427 18.948 136.214 20.016 134.329C21.2709 132.098 22.9975 130.16 24.3147 127.964C25.874 125.574 26.4834 122.689 26.0236 119.874C25.4451 116.602 23.7718 113.464 22.1787 110.593C19.1794 105.17 15.3345 99.9247 14.2843 93.7017C13.6613 90.0479 14.4445 86.4207 15.1743 82.8558C15.964 79.3486 16.4435 75.7789 16.6073 72.1878C16.8511 65.0103 15.6245 57.8588 13.0027 51.1717C11.7478 48.0158 9.27358 44.6109 9.83429 41.0638C10.1013 39.4102 10.7243 37.8278 10.84 36.1387C10.9438 34.7677 10.6828 33.3937 10.0835 32.1559C8.99768 29.8445 6.95955 28.1465 5.25073 26.3152C3.54191 24.4839 2.1001 22.4214 2.8477 19.9322C3.59531 17.4429 5.97164 15.8783 8.26786 15.2204C11.196 14.3848 14.1686 15.336 16.6963 16.8562C19.349 18.5917 21.761 20.6691 23.8697 23.0348C25.0624 24.2794 26.9492 22.3858 25.7566 21.1501C21.5023 16.7051 15.8685 11.4333 9.17567 12.3223C3.96022 13.0157 -1.50444 17.8786 0.337884 23.5682C1.22789 26.1374 3.19481 28.0132 5.02823 29.9157C6.86165 31.8181 8.58827 33.8451 8.09877 36.6988C7.66408 38.3851 7.32533 40.0948 7.08416 41.8194C7.06944 43.6068 7.46524 45.3738 8.24116 46.9845C9.86188 50.3822 11.2303 53.8944 12.3352 57.4925C14.2659 64.6635 14.5699 72.1744 13.2252 79.4776C12.5043 83.3092 11.374 87.1319 11.4452 91.0346C11.5534 94.2349 12.2913 97.3825 13.6168 100.298C16.2068 106.343 20.4432 111.58 22.7216 117.758C23.4735 119.46 23.7444 121.336 23.5048 123.181C23.2259 124.395 22.7412 125.553 22.0719 126.604C20.728 128.835 18.9658 130.8 17.702 133.084C16.4382 135.369 15.8329 137.814 16.7408 140.197C17.2462 141.413 18.0429 142.487 19.0609 143.324C20.0789 144.161 21.287 144.735 22.5792 144.997C29.3789 146.651 34.5409 141.601 40.2993 139.023C47.1079 135.983 54.6908 136.578 61.9265 137.023C65.3264 137.227 68.8597 137.298 72.1528 136.285C75.4458 135.271 77.4928 133.227 79.878 131.093C80.8758 130.078 82.1309 129.353 83.5093 128.995C85.1024 128.702 86.7222 129.386 88.2263 129.804C89.7547 130.325 91.3996 130.402 92.9701 130.026C94.3623 129.47 95.6277 128.638 96.6903 127.582C97.5962 126.681 98.8209 126.173 100.099 126.168C101.192 126.285 102.249 126.624 103.205 127.164C105.475 128.328 107.548 129.831 109.951 130.72C111.1 131.205 112.354 131.385 113.593 131.242C114.831 131.099 116.012 130.637 117.018 129.902C119.172 128.204 120.08 125.323 120.071 122.665C120.071 119.323 118.46 116.291 117.054 113.349C115.402 109.978 114.576 106.264 114.642 102.512C114.686 98.5823 115.318 94.6885 115.461 90.7591C115.586 87.0542 115.23 83.3489 114.402 79.7354C113.552 76.1276 112.36 72.6089 110.841 69.2274C110.067 67.4494 109.213 65.7247 108.305 64.0178C107.376 62.4809 106.584 60.8657 105.938 59.1905C105.412 57.5347 105.44 55.7529 106.018 54.1143C106.617 52.5152 107.064 50.8633 107.353 49.1804C107.682 46.0155 106.027 43.224 104.683 40.477C103.955 39.1465 103.518 37.6769 103.401 36.1654C103.501 34.3907 103.712 32.624 104.033 30.8758C104.362 27.6843 102.983 25.4173 100.882 23.177C100.099 22.288 97.0552 19.9499 98.1588 18.5631L96.8594 18.9009C102.369 19.7899 106.365 14.5448 106.418 9.40635C106.489 3.18333 100.428 -0.426016 94.7145 -0.0881952C91.6342 0.0782731 88.6795 1.18618 86.2505 3.08554C84.7464 4.2768 83.4826 5.75255 81.9251 6.91714C80.2967 7.99676 78.4427 8.69008 76.5049 8.94407C67.7739 10.5443 58.8738 11.371 50.0716 12.5001C45.1855 13.1224 40.2815 13.6914 35.4132 14.3937C30.8454 14.9893 26.3771 16.188 22.1253 17.9586C20.5589 18.6342 21.9117 20.9367 23.4781 20.2611H23.4336Z" fill="#2D2FEE"/>
<path d="M35.6993 24.9809C37.1965 23.9433 38.9033 23.2464 40.6994 22.9392C42.4955 22.632 44.3372 22.722 46.0946 23.2029C46.4289 23.276 46.7785 23.218 47.0712 23.041C47.364 22.8641 47.5775 22.5816 47.6677 22.2519C47.758 21.9222 47.718 21.5704 47.5561 21.2693C47.3942 20.9682 47.1227 20.7407 46.7977 20.6337C44.6941 20.0619 42.4915 19.9509 40.3409 20.3084C38.1903 20.666 36.1425 21.4835 34.3376 22.7051C34.0385 22.8912 33.822 23.1847 33.7326 23.5253C33.6432 23.8658 33.6877 24.2276 33.857 24.5364C34.0386 24.8407 34.3331 25.061 34.6766 25.1492C35.02 25.2375 35.3844 25.1866 35.6904 25.0076L35.6993 24.9809Z" fill="#2D2FEE"/>
<path d="M56.686 22.6339C59.3964 20.7334 62.7196 19.9122 66.0044 20.3314C66.3585 20.3314 66.698 20.1909 66.9484 19.9408C67.1988 19.6907 67.3394 19.3515 67.3394 18.9979C67.3394 18.6442 67.1988 18.305 66.9484 18.0549C66.698 17.8049 66.3585 17.6644 66.0044 17.6644C62.2381 17.2259 58.441 18.1742 55.3243 20.3314C55.0241 20.5144 54.8064 20.8063 54.7168 21.146C54.6272 21.4857 54.6727 21.8469 54.8437 22.1538C55.0237 22.4572 55.316 22.6776 55.6574 22.7675C55.9988 22.8573 56.3619 22.8093 56.6682 22.6339H56.686Z" fill="#2D2FEE"/>
<path d="M92.7812 28.0302C93.3153 30.0483 94.7037 31.5863 95.7717 33.2931C96.2382 33.9773 96.5426 34.7587 96.6617 35.5779C96.6827 35.8739 96.6827 36.1709 96.6617 36.4669C96.6022 36.7646 96.4639 37.0408 96.2612 37.267C96.0254 37.5198 95.897 37.8541 95.9031 38.1996C95.9092 38.5451 96.0493 38.8747 96.2939 39.119C96.5385 39.3633 96.8685 39.5033 97.2144 39.5094C97.5602 39.5155 97.8949 39.3872 98.148 39.1517C99.8123 37.3737 99.5542 34.8222 98.5841 32.7331C97.6941 30.8217 95.9141 29.3282 95.4246 27.2924C95.3313 26.9505 95.106 26.6596 94.798 26.4837C94.4901 26.3078 94.1248 26.2613 93.7825 26.3545C93.4402 26.4476 93.149 26.6727 92.973 26.9803C92.7969 27.2879 92.7503 27.6528 92.8436 27.9947L92.7812 28.0302Z" fill="#2D2FEE"/>
<path d="M97.1171 49.2063L98.5411 58.2386C98.648 58.5682 98.8774 58.8443 99.1822 59.0097C99.487 59.1752 99.8437 59.2174 100.179 59.1276C100.518 59.0281 100.805 58.8009 100.979 58.494C101.153 58.1871 101.201 57.8246 101.113 57.4829L99.6892 48.4596C99.5882 48.126 99.3597 47.8456 99.0532 47.6792C98.7466 47.5128 98.3868 47.4738 98.0516 47.5705C97.7134 47.6681 97.4266 47.8936 97.2521 48.199C97.0776 48.5045 97.0292 48.8658 97.1171 49.2063V49.2063Z" fill="#2D2FEE"/>
<path d="M29.0241 131.661C29.582 132.239 30.2505 132.698 30.9898 133.011C31.7292 133.325 32.5241 133.486 33.3274 133.486C34.1306 133.486 34.9255 133.325 35.6649 133.011C36.4042 132.698 37.0727 132.239 37.6305 131.661C37.7824 131.545 37.9075 131.398 37.9974 131.229C38.0873 131.061 38.1399 130.875 38.1516 130.684C38.1633 130.493 38.1338 130.302 38.0652 130.124C37.9967 129.946 37.8905 129.784 37.754 129.651C37.6175 129.517 37.4538 129.414 37.2741 129.349C37.0943 129.284 36.9026 129.258 36.712 129.273C36.5213 129.289 36.3362 129.345 36.1692 129.438C36.0022 129.531 35.8571 129.658 35.7437 129.812C35.6458 129.919 35.5479 130.026 35.4411 130.123C35.3343 130.221 35.2542 130.292 35.2453 130.283C35.2364 130.274 35.4945 130.114 35.3165 130.23L34.916 130.479L34.7291 130.568C34.5155 130.683 34.9249 130.506 34.7736 130.568C34.5031 130.665 34.2266 130.746 33.9459 130.808C33.9014 130.808 33.7768 130.808 33.7412 130.808H33.8836H33.7501H33.3229H32.8868C32.6465 130.808 33.1093 130.852 32.9491 130.808H32.7355C32.6465 130.808 31.9434 130.541 31.9167 130.568C32.0858 130.648 32.1303 130.657 32.0324 130.621L31.9167 130.568L31.7654 130.488C31.6319 130.408 31.4984 130.328 31.3738 130.239C31.2492 130.15 31.4183 130.239 31.3738 130.239L31.2136 130.106C31.0979 129.999 30.9911 129.883 30.8843 129.768C30.6339 129.518 30.2946 129.378 29.9409 129.378C29.5871 129.378 29.2478 129.518 28.9974 129.768C28.7558 130.022 28.6211 130.359 28.6211 130.71C28.6211 131.061 28.7558 131.398 28.9974 131.652L29.0241 131.661Z" fill="#2D2FEE"/>
<path d="M11.8294 23.1321C11.4306 23.5832 11.1594 24.1324 11.0436 24.723C10.9279 25.3137 10.9718 25.9244 11.1708 26.4925C11.6022 27.6053 12.3096 28.5903 13.2267 29.3551C14.0979 29.995 14.9273 30.6899 15.7098 31.4354C15.8537 31.5827 15.9792 31.7469 16.0836 31.9243C16.1605 32.0408 16.2289 32.1626 16.2883 32.2888L16.3506 32.4044C16.3061 32.3155 16.3061 32.3155 16.3506 32.4044C16.3951 32.4933 16.4129 32.6088 16.4396 32.7155C16.3862 32.4577 16.4396 32.8133 16.4396 32.8578C16.4396 32.6177 16.4396 32.9289 16.4396 33C16.493 32.7955 16.3684 33.1245 16.3417 33.1689C16.2458 33.3203 16.1815 33.4895 16.1525 33.6664C16.1235 33.8432 16.1305 34.024 16.173 34.1981C16.2156 34.3722 16.2928 34.5359 16.4001 34.6795C16.5074 34.8231 16.6426 34.9436 16.7975 35.0338C16.9525 35.1241 17.1241 35.1822 17.3021 35.2048C17.48 35.2273 17.6607 35.2138 17.8333 35.165C18.0059 35.1162 18.1669 35.0332 18.3067 34.9209C18.4465 34.8086 18.5622 34.6693 18.6469 34.5113C20.0175 32.1999 18.2286 29.8352 16.4307 28.4305C15.9946 28.0927 15.5407 27.7816 15.2292 27.5415C15.0227 27.3695 14.8266 27.1854 14.6418 26.9903L14.3926 26.7236C14.3926 26.7236 14.1523 26.4036 14.2502 26.537C14.1078 26.3503 14.001 26.1458 13.8764 25.9502C13.7518 25.7546 13.8764 26.0302 13.7963 25.7902C13.7162 25.5502 13.7251 25.5502 13.6984 25.4257C13.6717 25.3012 13.6984 25.5057 13.6984 25.3635C13.6984 25.2212 13.6984 25.1145 13.6984 25.3101C13.6984 25.2568 13.823 24.9368 13.6984 25.1768C13.6984 25.1323 13.9209 24.8567 13.7785 25.0257C14.0188 24.7688 14.1524 24.4304 14.1524 24.0789C14.1524 23.7273 14.0188 23.3889 13.7785 23.1321C13.5259 22.8866 13.1875 22.7493 12.8351 22.7493C12.4827 22.7493 12.1442 22.8866 11.8917 23.1321H11.8294Z" fill="#2D2FEE"/>
<path d="M107.72 122.194C108.821 121.938 109.779 121.264 110.391 120.315C111.003 119.365 111.219 118.215 110.996 117.108C110.903 116.772 110.683 116.485 110.382 116.308C110.069 116.137 109.704 116.089 109.358 116.175C109.023 116.271 108.737 116.49 108.557 116.788C108.392 117.106 108.345 117.471 108.423 117.82C108.427 117.879 108.427 117.938 108.423 117.997L108.37 117.651C108.401 117.881 108.401 118.114 108.37 118.344L108.423 117.989C108.384 118.248 108.312 118.502 108.21 118.744L108.343 118.433C108.236 118.692 108.092 118.935 107.916 119.153L108.13 118.886C107.963 119.09 107.775 119.275 107.569 119.438L107.836 119.233C107.651 119.376 107.448 119.493 107.231 119.58L107.551 119.447C107.366 119.526 107.172 119.582 106.973 119.615C106.639 119.715 106.354 119.933 106.172 120.229C105.999 120.544 105.952 120.912 106.038 121.26C106.138 121.593 106.356 121.878 106.652 122.06C106.972 122.22 107.335 122.267 107.685 122.194H107.72Z" fill="#2D2FEE"/>
<path d="M26.3619 105.276C23.8254 104.236 23.9233 100.413 23.8432 98.2172C23.7275 94.8835 22.9532 91.7186 20.203 89.5761C19.9473 89.3367 19.61 89.2035 19.2596 89.2035C18.9092 89.2035 18.5719 89.3367 18.3162 89.5761C18.0662 89.8261 17.9258 90.1651 17.9258 90.5184C17.9258 90.8718 18.0662 91.2107 18.3162 91.4608C19.5045 92.3492 20.3751 93.596 20.7993 95.0168C21.2888 96.7948 21.1286 98.7151 21.2799 100.546C21.5202 103.569 22.6773 106.583 25.6499 107.801C25.9862 107.895 26.3462 107.855 26.6535 107.69C26.9609 107.524 27.1915 107.245 27.2964 106.912C27.382 106.571 27.3326 106.211 27.1584 105.906C26.9843 105.601 26.6989 105.375 26.3619 105.276V105.276Z" fill="#2D2FEE"/>
<path d="M105.324 83.246V90.2425C105.324 90.5961 105.465 90.9353 105.715 91.1854C105.966 91.4355 106.305 91.576 106.659 91.576C107.013 91.576 107.353 91.4355 107.603 91.1854C107.854 90.9353 107.994 90.5961 107.994 90.2425V83.246C107.994 82.8923 107.854 82.5531 107.603 82.3031C107.353 82.053 107.013 81.9125 106.659 81.9125C106.305 81.9125 105.966 82.053 105.715 82.3031C105.465 82.5531 105.324 82.8923 105.324 83.246Z" fill="#2D2FEE"/>
<path d="M27.5456 46.2461L29.6104 55.6963C29.6572 55.8655 29.7369 56.024 29.8449 56.1625C29.9529 56.301 30.0873 56.4169 30.2401 56.5036C30.393 56.5903 30.5615 56.646 30.736 56.6677C30.9105 56.6893 31.0875 56.6764 31.2569 56.6297C31.4264 56.583 31.585 56.5034 31.7237 56.3955C31.8624 56.2876 31.9784 56.1534 32.0652 56.0007C32.152 55.848 32.2078 55.6797 32.2295 55.5054C32.2511 55.3312 32.2382 55.1543 32.1915 54.9851L30.1355 45.5527C30.093 45.3794 30.0161 45.2164 29.9093 45.0733C29.8025 44.9302 29.6681 44.81 29.514 44.7198C29.3599 44.6296 29.1892 44.5711 29.012 44.548C28.8349 44.5249 28.6549 44.5375 28.4828 44.5851C28.3106 44.6327 28.1497 44.7143 28.0097 44.8251C27.8697 44.936 27.7534 45.0738 27.6677 45.2303C27.5819 45.3869 27.5285 45.559 27.5106 45.7366C27.4927 45.9141 27.5107 46.0934 27.5634 46.2639L27.5456 46.2461Z" fill="#2D2FEE"/>
<path d="M26.7885 47.0105C28.469 46.4057 30.1951 45.936 31.9505 45.6059C32.29 45.5103 32.5783 45.2852 32.7532 44.9791C32.928 44.6731 32.9754 44.3107 32.885 43.9701C32.7835 43.6328 32.5557 43.3476 32.2491 43.1738C31.9424 42.9999 31.5805 42.9508 31.2385 43.0366C29.4843 43.368 27.7585 43.8346 26.0765 44.4324C25.7342 44.5267 25.4435 44.7529 25.2682 45.0614C25.0929 45.3698 25.0475 45.7351 25.142 46.077C25.2364 46.4189 25.4629 46.7093 25.7717 46.8844C26.0805 47.0594 26.4462 47.1048 26.7885 47.0105V47.0105Z" fill="#2D2FEE"/>
<path d="M34.8631 44.2103L34.8008 53.6693C34.8008 54.023 34.9414 54.3622 35.1918 54.6123C35.4422 54.8623 35.7817 55.0028 36.1358 55.0028C36.4899 55.0028 36.8294 54.8623 37.0798 54.6123C37.3302 54.3622 37.4708 54.023 37.4708 53.6693L37.5331 44.2103C37.5331 43.8567 37.3925 43.5175 37.1421 43.2674C36.8917 43.0173 36.5522 42.8768 36.1981 42.8768C35.844 42.8768 35.5045 43.0173 35.2541 43.2674C35.0037 43.5175 34.8631 43.8567 34.8631 44.2103V44.2103Z" fill="#2D2FEE"/>
<path d="M35.1029 45.428L41.5377 52.8511C41.788 53.1008 42.1273 53.2411 42.4811 53.2411C42.8349 53.2411 43.1742 53.1008 43.4245 52.8511C43.6661 52.5967 43.8009 52.2594 43.8009 51.9088C43.8009 51.5581 43.6661 51.2208 43.4245 50.9664L36.9897 43.5788C36.7394 43.3291 36.4001 43.1888 36.0463 43.1888C35.6925 43.1888 35.3532 43.3291 35.1029 43.5788C34.8613 43.8332 34.7266 44.1705 34.7266 44.5212C34.7266 44.8718 34.8613 45.2091 35.1029 45.4635V45.428Z" fill="#2D2FEE"/>
<path d="M36.9974 51.8912L39.6674 50.9222C40.0008 50.823 40.2859 50.6046 40.4684 50.3088C40.5577 50.1542 40.6155 49.9835 40.6384 49.8065C40.6613 49.6295 40.6489 49.4497 40.6019 49.2775C40.5078 48.9441 40.2876 48.6604 39.9878 48.4863C39.8354 48.3954 39.6659 48.3367 39.4898 48.3138C39.3138 48.2908 39.1349 48.3042 38.9643 48.3529L36.2408 49.322C35.9089 49.4241 35.6247 49.6417 35.4398 49.9354C35.2757 50.2366 35.234 50.5894 35.3235 50.9206C35.413 51.2517 35.6268 51.5356 35.9204 51.7134C36.0742 51.805 36.2452 51.8641 36.4228 51.887C36.6004 51.91 36.7808 51.8963 36.9529 51.8467L36.9974 51.8912Z" fill="#2D2FEE"/>
<path d="M45.4062 42.859L45.8513 51.3046C45.8513 51.6582 45.9919 51.9974 46.2423 52.2475C46.4926 52.4976 46.8322 52.6381 47.1863 52.6381C47.5403 52.6381 47.8799 52.4976 48.1303 52.2475C48.3806 51.9974 48.5213 51.6582 48.5213 51.3046L48.0763 42.859C48.0763 42.5054 47.9356 42.1662 47.6853 41.9161C47.4349 41.666 47.0953 41.5255 46.7413 41.5255C46.3872 41.5255 46.0476 41.666 45.7973 41.9161C45.5469 42.1662 45.4062 42.5054 45.4062 42.859V42.859Z" fill="#2D2FEE"/>
<path d="M46.5119 44.1568C46.9925 44.6902 47.4642 45.2325 47.9181 45.7837L48.2385 46.1838L48.3898 46.3793C48.639 46.6994 48.3186 46.2727 48.4521 46.4594C48.5856 46.6461 48.8883 47.0372 49.093 47.3484C49.9325 48.5157 50.7051 49.7297 51.407 50.9844C51.4958 51.1356 51.6136 51.2678 51.7536 51.3735C51.8935 51.4793 52.053 51.5564 52.2228 51.6006C52.3927 51.6447 52.5696 51.655 52.7434 51.6309C52.9172 51.6068 53.0846 51.5487 53.236 51.46C53.3873 51.3713 53.5197 51.2536 53.6255 51.1138C53.7314 50.974 53.8086 50.8147 53.8528 50.6451C53.897 50.4754 53.9074 50.2987 53.8832 50.1251C53.8591 49.9515 53.8009 49.7843 53.7121 49.6331C52.2175 46.9932 50.4258 44.5325 48.3721 42.2988C48.1206 42.0513 47.7817 41.9125 47.4286 41.9125C47.0756 41.9125 46.7367 42.0513 46.4852 42.2988C46.2415 42.5522 46.1055 42.8899 46.1055 43.2412C46.1055 43.5925 46.2415 43.9302 46.4852 44.1835L46.5119 44.1568Z" fill="#2D2FEE"/>
<path d="M53.1172 41.5167L53.9538 50.2912C53.9538 50.6449 54.0944 50.9841 54.3448 51.2341C54.5952 51.4842 54.9347 51.6247 55.2888 51.6247C55.6429 51.6247 55.9824 51.4842 56.2328 51.2341C56.4832 50.9841 56.6238 50.6449 56.6238 50.2912L55.7872 41.5167C55.7872 41.1631 55.6466 40.8239 55.3962 40.5738C55.1458 40.3237 54.8063 40.1832 54.4522 40.1832C54.0981 40.1832 53.7586 40.3237 53.5082 40.5738C53.2578 40.8239 53.1172 41.1631 53.1172 41.5167Z" fill="#2D2FEE"/>
<path d="M54.3446 42.7522C55.3625 43.8649 56.2938 45.0537 57.1303 46.3082C58.0076 47.5998 58.7927 48.9515 59.4799 50.3532C59.6614 50.655 59.9544 50.8736 60.2957 50.9617C60.637 51.0499 60.9993 51.0005 61.3045 50.8244C61.5932 50.6422 61.8028 50.3583 61.8919 50.029C61.9809 49.6996 61.9428 49.3489 61.7851 49.0464C60.3237 46.1024 58.4541 43.3789 56.2314 40.9564C55.98 40.7089 55.6411 40.5701 55.288 40.5701C54.9349 40.5701 54.596 40.7089 54.3446 40.9564C54.1009 41.2098 53.9648 41.5475 53.9648 41.8988C53.9648 42.2501 54.1009 42.5878 54.3446 42.8411V42.7522Z" fill="#2D2FEE"/>
<path d="M55.5917 48.9127H58.6177C58.9709 48.9086 59.3088 48.7685 59.5611 48.5216C59.7476 48.3351 59.8745 48.0976 59.9259 47.8391C59.9774 47.5805 59.9509 47.3126 59.85 47.0691C59.749 46.8256 59.5781 46.6174 59.3588 46.4708C59.1395 46.3243 58.8816 46.246 58.6177 46.2457H55.5917C55.2389 46.2516 54.9015 46.3915 54.6482 46.6369C54.4618 46.8234 54.3348 47.0609 54.2834 47.3194C54.232 47.5779 54.2584 47.8459 54.3594 48.0894C54.4603 48.3329 54.6312 48.5411 54.8506 48.6876C55.0699 48.8342 55.3278 48.9125 55.5917 48.9127V48.9127Z" fill="#2D2FEE"/>
<path d="M59.6576 41.5519L63.0219 49.9974C63.1234 50.3347 63.3512 50.6199 63.6578 50.7937C63.9645 50.9676 64.3264 51.0167 64.6684 50.9309C65.001 50.828 65.2802 50.5994 65.4465 50.2938C65.6127 49.9882 65.6529 49.6298 65.5584 49.2951L62.1941 40.8407C62.1516 40.6674 62.0747 40.5044 61.9679 40.3613C61.8611 40.2182 61.7267 40.098 61.5726 40.0078C61.4185 39.9175 61.2478 39.8591 61.0707 39.836C60.8935 39.8128 60.7135 39.8254 60.5414 39.873C60.3692 39.9206 60.2083 40.0023 60.0683 40.1131C59.9283 40.224 59.812 40.3617 59.7263 40.5183C59.6405 40.6748 59.5871 40.847 59.5692 41.0245C59.5513 41.2021 59.5693 41.3814 59.622 41.5519H59.6576Z" fill="#2D2FEE"/>
<path d="M63.7355 46.5481C65.7581 45.9869 67.6866 45.1302 69.4583 44.0056C69.7593 43.821 69.9769 43.5269 70.0649 43.1852C70.1529 42.8435 70.1045 42.481 69.93 42.1742C69.7485 41.8724 69.4555 41.6538 69.1143 41.5657C68.773 41.4775 68.4107 41.5269 68.1055 41.7031C67.2864 42.2277 66.4297 42.6913 65.5422 43.0899L65.1862 43.241C65.5155 43.1166 65.1862 43.241 65.1862 43.241L64.4564 43.5166C63.9936 43.6855 63.5664 43.8278 63.068 43.9522C62.7258 44.0454 62.4345 44.2705 62.2585 44.5781C62.0824 44.8857 62.0358 45.2506 62.1291 45.5925C62.2223 45.9343 62.4477 46.2252 62.7556 46.4011C63.0636 46.577 63.4289 46.6235 63.7711 46.5304L63.7355 46.5481Z" fill="#2D2FEE"/>
<path d="M67.2493 40.512C68.633 43.4806 69.8454 46.526 70.8806 49.6331C70.9231 49.8064 71 49.9695 71.1068 50.1125C71.2135 50.2556 71.348 50.3758 71.5021 50.4661C71.6562 50.5563 71.8269 50.6147 72.004 50.6379C72.1812 50.661 72.3612 50.6484 72.5333 50.6008C72.7055 50.5532 72.8664 50.4715 73.0064 50.3607C73.1464 50.2499 73.2627 50.1121 73.3484 49.9556C73.4342 49.799 73.4876 49.6268 73.5055 49.4493C73.5234 49.2718 73.5054 49.0924 73.4527 48.9219C72.3407 45.5908 71.0392 42.3258 69.5544 39.1429C69.3751 38.8511 69.0902 38.6394 68.7588 38.5517C68.4274 38.464 68.0749 38.507 67.7744 38.6717C67.4759 38.8562 67.2596 39.1481 67.1702 39.4872C67.0808 39.8263 67.125 40.1867 67.2938 40.4942L67.2493 40.512Z" fill="#2D2FEE"/>
<path d="M73.3635 40.1652C73.6394 40.6542 73.8886 41.1609 74.1289 41.6677C74.1912 41.8099 74.1912 41.8188 74.1289 41.6677L74.2179 41.8899L74.3514 42.2277C74.4582 42.5122 74.5561 42.8085 74.6451 43.1167C74.8053 43.659 74.9477 44.2013 75.0545 44.7525C75.1079 45.0281 75.1524 45.3126 75.1969 45.5881C75.1969 45.6859 75.1969 45.6682 75.1969 45.5348C75.2012 45.6148 75.2012 45.6949 75.1969 45.7748C75.1969 45.9349 75.1969 46.0949 75.2414 46.2549C75.2414 46.6086 75.3821 46.9478 75.6324 47.1978C75.8828 47.4479 76.2224 47.5884 76.5764 47.5884C76.9305 47.5884 77.2701 47.4479 77.5204 47.1978C77.7708 46.9478 77.9114 46.6086 77.9114 46.2549C77.7074 43.6461 76.9294 41.1145 75.633 38.8406C75.5483 38.6827 75.4327 38.5434 75.2929 38.431C75.1531 38.3187 74.9921 38.2357 74.8195 38.1869C74.6469 38.1382 74.4662 38.1247 74.2882 38.1472C74.1103 38.1697 73.9387 38.2278 73.7837 38.3181C73.6287 38.4083 73.4936 38.5289 73.3863 38.6725C73.279 38.816 73.2017 38.9798 73.1592 39.1538C73.1166 39.3279 73.1097 39.5087 73.1386 39.6856C73.1676 39.8624 73.232 40.0316 73.3279 40.183L73.3635 40.1652Z" fill="#2D2FEE"/>
<path d="M70.8272 38.2446L77.9473 37.4179C78.3013 37.4179 78.6409 37.2774 78.8913 37.0273C79.1416 36.7772 79.2823 36.438 79.2823 36.0844C79.2823 35.7307 79.1416 35.3915 78.8913 35.1414C78.6409 34.8913 78.3013 34.7509 77.9473 34.7509L70.8272 35.5776C70.4753 35.5845 70.1397 35.7271 69.8908 35.9758C69.6419 36.2244 69.499 36.5596 69.4922 36.9111C69.4922 37.5601 70.0885 38.3335 70.8272 38.2446Z" fill="#2D2FEE"/>
<path d="M48.828 64.5148C49.6896 67.3833 50.3117 70.3182 50.6882 73.2893C50.695 73.6408 50.8379 73.976 51.0868 74.2247C51.3356 74.4733 51.6713 74.616 52.0232 74.6228C52.3765 74.6205 52.7147 74.4792 52.9646 74.2296C53.2145 73.9801 53.3559 73.6422 53.3582 73.2893C52.9669 70.0799 52.315 66.9075 51.4091 63.8036C51.2986 63.4746 51.0671 63.1997 50.7614 63.0347C50.4557 62.8696 50.0987 62.8267 49.7626 62.9146C49.4243 63.0122 49.1375 63.2377 48.963 63.5431C48.7885 63.8485 48.7401 64.2099 48.828 64.5504V64.5148Z" fill="#2D2FEE"/>
<path d="M52.884 71.0403L56.6488 69.1023C56.9525 68.9224 57.1732 68.6305 57.2631 68.2894C57.353 67.9484 57.305 67.5857 57.1294 67.2798C56.9447 66.9816 56.6524 66.7656 56.313 66.6763C55.9735 66.5869 55.6127 66.6311 55.3049 66.7997L51.4956 68.7378C51.2036 68.917 50.9913 69.201 50.9019 69.5315C50.8126 69.862 50.853 70.2141 51.015 70.5158C51.2014 70.8146 51.4952 71.0308 51.8361 71.1201C52.1771 71.2094 52.5393 71.1649 52.8484 70.9958L52.884 71.0403Z" fill="#2D2FEE"/>
<path d="M54.4076 62.7902L56.7839 72.9249C56.8783 73.2667 57.1048 73.5572 57.4136 73.7322C57.7224 73.9073 58.0881 73.9526 58.4304 73.8583C58.7727 73.764 59.0634 73.5377 59.2387 73.2293C59.4139 72.9209 59.4593 72.5555 59.3649 72.2137L56.9886 62.079C56.9418 61.9097 56.8622 61.7513 56.7541 61.6128C56.6461 61.4743 56.5118 61.3584 56.3589 61.2717C56.0501 61.0966 55.6844 61.0513 55.3421 61.1456C54.9998 61.2399 54.7091 61.4661 54.5338 61.7746C54.3586 62.083 54.3132 62.4483 54.4076 62.7902V62.7902Z" fill="#2D2FEE"/>
<path d="M59.9423 63.8659L61.482 67.7775C61.8672 69.0368 62.4696 70.2191 63.2621 71.2713C63.6981 71.7842 64.2653 72.1693 64.9033 72.3853C65.5413 72.6014 66.226 72.6404 66.8844 72.4982C67.4793 72.315 68.0305 72.0125 68.5042 71.6091L68.6733 71.4758C68.5487 71.5736 68.5398 71.5736 68.6733 71.4758L68.9314 71.298C69.0026 71.298 69.2785 71.1469 68.9314 71.2447L69.1272 71.1824C68.9403 71.1824 68.9225 71.1824 69.0738 71.1824C69.4279 71.1824 69.7674 71.0419 70.0178 70.7919C70.2682 70.5418 70.4088 70.2026 70.4088 69.8489C70.4088 69.4953 70.2682 69.1561 70.0178 68.906C69.7674 68.6559 69.4279 68.5154 69.0738 68.5154C68.4969 68.5441 67.938 68.7251 67.454 69.0399C67.2048 69.1999 66.9823 69.3866 66.7509 69.5644C66.5195 69.7422 66.9734 69.4133 66.6797 69.6267L66.4127 69.8045C66.3225 69.8634 66.2272 69.9139 66.1279 69.9556C66.4127 69.8223 66.1279 69.9556 66.03 69.9556C66.3059 69.8934 66.03 69.9556 65.9232 69.9556C66.1813 69.9556 65.9232 69.9556 65.8164 69.9556C65.496 69.8756 65.9766 70.0712 65.6918 69.9556L65.3803 69.7689C65.5939 69.9023 65.318 69.7067 65.2824 69.6711C65.1923 69.5858 65.109 69.4937 65.0332 69.3955C65.1667 69.5644 64.9531 69.2711 64.9353 69.2444L64.7395 68.9066C64.6772 68.791 64.6238 68.6665 64.5704 68.551C64.517 68.4354 64.4013 68.1687 64.4903 68.391C64.2678 67.8487 64.0542 67.2886 63.8406 66.7463L62.5145 63.1369C62.4719 62.9636 62.395 62.8006 62.2882 62.6575C62.1815 62.5145 62.047 62.3943 61.8929 62.304C61.7388 62.2138 61.5681 62.1554 61.391 62.1322C61.2138 62.1091 61.0338 62.1217 60.8617 62.1693C60.6895 62.2169 60.5286 62.2986 60.3886 62.4094C60.2486 62.5202 60.1323 62.658 60.0466 62.8145C59.9609 62.9711 59.9074 63.1432 59.8895 63.3208C59.8716 63.4983 59.8896 63.6777 59.9423 63.8482V63.8659Z" fill="#2D2FEE"/>
<path d="M63.0677 68.1422C64.9636 67.6852 66.7917 66.9829 68.5056 66.053C68.8093 65.8732 69.03 65.5812 69.1199 65.2402C69.2099 64.8992 69.1618 64.5365 68.9862 64.2305C68.8038 63.9422 68.5196 63.7327 68.1899 63.6438C67.8602 63.5549 67.5091 63.593 67.2062 63.7505C66.7968 63.9727 66.3785 64.1861 65.9513 64.3728L65.7021 64.4884L65.5953 64.5417C65.3995 64.6395 65.1859 64.7017 64.9901 64.7817C64.1481 65.1018 63.2858 65.3661 62.4091 65.573C62.2321 65.6116 62.065 65.6858 61.9177 65.7911C61.7704 65.8963 61.6461 66.0304 61.5523 66.1851C61.4585 66.3399 61.3972 66.5121 61.3722 66.6912C61.3472 66.8704 61.3589 67.0528 61.4066 67.2273C61.4544 67.4018 61.5372 67.5647 61.65 67.7062C61.7628 67.8477 61.9032 67.9649 62.0628 68.0504C62.2223 68.136 62.3976 68.1883 62.578 68.2041C62.7584 68.2198 62.9402 68.1988 63.1122 68.1422H63.0677Z" fill="#2D2FEE"/>
<path d="M60.9993 63.9373C61.3969 63.718 61.8063 63.5047 62.2276 63.2972L62.8239 63.0128L63.0731 62.9061L63.1799 62.8527C63.5759 62.6726 63.9832 62.5181 64.3992 62.3905C64.8353 62.2304 65.2892 62.0882 65.7253 61.9549C66.0553 61.8482 66.3317 61.6189 66.4973 61.3145C66.6629 61.0101 66.7052 60.6537 66.6153 60.3191C66.5137 59.9818 66.286 59.6966 65.9793 59.5228C65.6727 59.3489 65.3107 59.2998 64.9688 59.3856C63.1111 59.9362 61.3202 60.6905 59.6287 61.6348C59.3231 61.814 59.1012 62.1072 59.0119 62.4498C58.9226 62.7924 58.9732 63.1564 59.1526 63.4617C59.332 63.7671 59.6254 63.9887 59.9684 64.0779C60.3114 64.1671 60.6759 64.1165 60.9815 63.9373H60.9993Z" fill="#2D2FEE"/>
<path d="M32.9681 90.8652L35.1664 98.2439C35.2769 98.5729 35.5084 98.8478 35.8141 99.0128C36.1198 99.1779 36.4768 99.2208 36.8129 99.1329C37.1512 99.0353 37.438 98.8099 37.6125 98.5044C37.787 98.199 37.8354 97.8376 37.7474 97.4971L35.5402 90.1095C35.4377 89.7781 35.21 89.4997 34.9054 89.3333C34.6007 89.1668 34.2432 89.1255 33.9085 89.218C33.5739 89.3105 33.2885 89.5297 33.113 89.8289C32.9374 90.1281 32.8854 90.4839 32.9681 90.8207V90.8652Z" fill="#2D2FEE"/>
<path d="M35.868 91.7539C36.0351 91.5794 36.2135 91.416 36.402 91.2649C36.7046 91.016 36.1973 91.3983 36.5177 91.1849C36.615 91.1116 36.716 91.0434 36.8203 90.9804C37.0072 90.8649 37.203 90.7493 37.3988 90.6515L37.6213 90.5448L37.7993 90.4737C38.253 90.3022 38.7248 90.1829 39.2055 90.1181C38.9563 90.1181 39.25 90.1181 39.3302 90.1181C39.4103 90.1181 39.437 90.1181 39.3302 90.0737C39.2716 90.0465 39.2176 90.0105 39.1699 89.967C39.072 89.8336 39.0454 89.8158 39.0988 89.8959C39.1522 89.9759 39.0988 89.9581 39.0988 89.8158L39.1522 89.9581C39.8731 92.1539 40.5317 94.4031 41.2259 96.5812C41.2684 96.7545 41.3453 96.9175 41.4521 97.0606C41.5589 97.2036 41.6933 97.3239 41.8474 97.4141C42.0015 97.5043 42.1722 97.5628 42.3493 97.5859C42.5265 97.609 42.7065 97.5964 42.8786 97.5488C43.0508 97.5012 43.2117 97.4196 43.3517 97.3087C43.4917 97.1979 43.608 97.0601 43.6937 96.9036C43.7795 96.747 43.8329 96.5749 43.8508 96.3973C43.8687 96.2198 43.8507 96.0405 43.798 95.87L42.5876 92.0117L41.9646 90.0114C41.8128 89.3219 41.5088 88.6749 41.0746 88.1178C40.0956 87.0688 38.4045 87.46 37.1763 87.8867C35.987 88.3108 34.9053 88.9906 34.0079 89.8781C33.76 90.1292 33.6211 90.4677 33.6211 90.8204C33.6211 91.1731 33.76 91.5116 34.0079 91.7628C34.2615 92.0062 34.5996 92.1421 34.9513 92.1421C35.303 92.1421 35.6411 92.0062 35.8947 91.7628L35.868 91.7539Z" fill="#2D2FEE"/>
<path d="M43.1896 88.1355L46.4737 96.6166C46.5124 96.7933 46.5867 96.9603 46.6921 97.1075C46.7974 97.2546 46.9317 97.3787 47.0866 97.4724C47.2415 97.5661 47.4139 97.6273 47.5933 97.6523C47.7726 97.6773 47.9552 97.6656 48.1299 97.6179C48.3046 97.5702 48.4677 97.4875 48.6094 97.3749C48.7511 97.2622 48.8684 97.1219 48.954 96.9625C49.0397 96.8032 49.092 96.628 49.1078 96.4478C49.1236 96.2676 49.1025 96.0861 49.0459 95.9143L45.7617 87.4243C45.6513 87.0972 45.4211 86.8238 45.1175 86.659C44.8138 86.4941 44.459 86.4499 44.1241 86.5353C43.7839 86.6329 43.4955 86.8597 43.3208 87.1671C43.1461 87.4746 43.099 87.8382 43.1896 88.18V88.1355Z" fill="#2D2FEE"/>
<path d="M46.3855 88.9182C46.5101 88.7493 46.2876 89.0427 46.2876 89.0427C46.2876 89.0427 46.3588 88.9538 46.3855 88.9271C46.4122 88.9004 46.5012 88.8116 46.5546 88.7582L46.6436 88.6782C46.7682 88.5626 46.3499 88.8827 46.5457 88.7582L46.7682 88.6071L47.0085 88.4826C47.1954 88.3937 46.6703 88.616 46.964 88.4826C47.1337 88.4175 47.3097 88.3698 47.4891 88.3404C47.8095 88.2782 47.2221 88.3404 47.4357 88.3404H48.0765C48.3524 88.3404 47.8184 88.2959 47.9608 88.3404C48.1032 88.3848 48.299 88.4026 48.4681 88.4559L48.6906 88.536C48.2723 88.4026 48.5749 88.4915 48.6906 88.536L48.8953 88.6604L48.9932 88.7315C49.1623 88.8382 48.8597 88.6337 48.8686 88.6337C48.8775 88.6337 49.189 88.9538 49.2424 89.016C48.9487 88.7138 49.1623 88.9093 49.2424 89.016L49.3581 89.2205C49.4827 89.4694 49.2424 88.9004 49.3581 89.2205L49.4382 89.505C49.4382 89.6383 49.4382 89.8872 49.4382 89.4516C49.4382 89.5316 49.4382 89.6028 49.4382 89.6828V89.9317C49.4382 89.9317 49.4382 90.0117 49.4382 90.0473C49.4382 90.3406 49.4382 89.9495 49.4382 89.9317C49.4382 89.9139 49.3492 90.3762 49.3314 90.4384L49.2513 90.6696C49.2513 90.7762 49.1178 90.874 49.3047 90.5451C49.2803 90.5908 49.2594 90.6384 49.2424 90.6873C49.1534 90.8563 49.0377 91.0074 48.9398 91.1763C49.1534 90.8118 49.0199 91.0785 48.9398 91.1763L48.7262 91.3897L48.6372 91.4608C48.4592 91.6208 48.9131 91.2741 48.7173 91.3985L48.4681 91.5586L48.3613 91.6119C48.1744 91.7097 48.6283 91.5141 48.4859 91.5586L48.1655 91.6652C47.9897 91.7111 47.825 91.7922 47.6814 91.9034C47.5378 92.0147 47.4183 92.1539 47.3301 92.3126C47.242 92.4714 47.1869 92.6463 47.1683 92.8269C47.1498 93.0075 47.1681 93.1899 47.2221 93.3632C47.3217 93.7018 47.5492 93.9884 47.8564 94.1625C48.1636 94.3367 48.5266 94.3848 48.8686 94.2967C49.9412 93.9617 50.855 93.2483 51.4397 92.2897C52.0243 91.3311 52.2398 90.1928 52.046 89.0871C51.8285 88.0457 51.2279 87.1235 50.3628 86.503C49.4976 85.8824 48.4309 85.6086 47.3734 85.7356C46.7208 85.7858 46.0874 85.9791 45.5182 86.3018C44.949 86.6245 44.4581 87.0686 44.0804 87.6025C43.9048 87.9084 43.8567 88.2711 43.9467 88.6121C44.0366 88.9532 44.2573 89.2451 44.561 89.425C44.8639 89.5825 45.215 89.6205 45.5447 89.5316C45.8744 89.4427 46.1586 89.2333 46.341 88.9449L46.3855 88.9182Z" fill="#2D2FEE"/>
<path d="M53.9516 86.1088C53.8172 87.1459 53.8921 88.1993 54.1718 89.2071C54.4515 90.2148 54.9305 91.1563 55.5803 91.9762C55.9057 92.363 56.3156 92.67 56.7786 92.8734C57.2415 93.0769 57.7451 93.1714 58.2504 93.1497C59.3051 92.9986 60.2612 92.4479 60.9204 91.6117C61.5139 90.9094 61.9497 90.0881 62.1985 89.2032C62.4472 88.3183 62.503 87.3904 62.3622 86.4821C62.2404 85.5356 61.8483 84.6441 61.2328 83.9142C60.6173 83.1843 59.8043 82.6468 58.8912 82.3661C58.3323 82.235 57.7492 82.2478 57.1965 82.4032C56.6439 82.5587 56.1399 82.8518 55.7316 83.2551C55.3053 83.637 54.9993 84.1344 54.8508 84.6868C54.7023 85.2391 54.7177 85.8228 54.895 86.3666C54.9337 86.5433 55.008 86.7103 55.1134 86.8574C55.2188 87.0045 55.353 87.1287 55.5079 87.2224C55.6629 87.3161 55.8352 87.3773 56.0146 87.4023C56.194 87.4273 56.3765 87.4156 56.5512 87.3679C56.7259 87.3202 56.8891 87.2375 57.0307 87.1248C57.1724 87.0121 57.2897 86.8719 57.3753 86.7125C57.461 86.5531 57.5133 86.378 57.5291 86.1978C57.5449 86.0176 57.5238 85.8361 57.4672 85.6643C57.4672 85.5931 57.4227 85.522 57.396 85.4598C57.3693 85.3976 57.4405 85.771 57.396 85.5043C57.396 85.5043 57.396 85.2909 57.396 85.5043C57.396 85.7176 57.396 85.4598 57.396 85.4242C57.396 85.3887 57.396 85.4242 57.396 85.5043L57.5028 85.3176C57.5028 85.2464 57.6541 85.1575 57.5028 85.3176L57.6541 85.1575C57.8143 84.9886 57.6541 85.1575 57.6541 85.1575L57.841 85.042C57.9122 84.9886 58.0457 84.9886 57.841 85.042C57.841 85.042 57.9567 84.9886 58.0012 85.042C58.0457 85.0953 57.7698 85.042 58.0012 85.042H58.1792C58.4195 85.042 58.2415 85.042 58.1792 85.042L58.464 85.1131L58.6331 85.1753C58.4017 85.0864 58.6331 85.1753 58.6331 85.1753C58.6331 85.1753 59.0514 85.4598 58.8645 85.2998C58.9747 85.3905 59.0788 85.4885 59.176 85.5931L59.2917 85.7265C59.5409 86.011 59.2294 85.6198 59.3451 85.7976C59.4276 85.9138 59.502 86.0356 59.5676 86.1621L59.6744 86.3755C59.5587 86.1532 59.6744 86.3132 59.6744 86.3755C59.7738 86.6656 59.8511 86.9628 59.9058 87.2645C59.9058 86.9978 59.9058 87.3178 59.9058 87.4245V87.8246C59.9058 87.8868 59.8435 88.3402 59.9058 88.0379C59.9058 88.1801 59.8524 88.3313 59.8168 88.4824C59.7812 88.6335 59.7456 88.7402 59.7011 88.8647C59.6566 88.9891 59.5409 89.247 59.6477 89.0247C59.5169 89.2979 59.3682 89.5622 59.2027 89.8159C59.0603 90.0204 59.2027 89.8159 59.2027 89.8159L59.0514 89.9848L58.7666 90.2693C58.7221 90.2693 58.4462 90.5182 58.6242 90.4027L58.3839 90.5538L58.2593 90.616C58.3483 90.616 58.3483 90.616 58.2593 90.616C58.1703 90.616 58.1436 90.6605 58.2593 90.616C58.1854 90.6253 58.1106 90.6253 58.0368 90.616C58.0813 90.616 58.3216 90.6605 58.0368 90.616C58.0368 90.616 57.8321 90.5627 57.9923 90.616C58.1525 90.6694 57.8143 90.5093 57.7609 90.4738C57.9478 90.5805 57.8143 90.5271 57.7609 90.4738L57.5473 90.2604C57.5473 90.2604 57.3604 90.0471 57.4583 90.1715C57.5562 90.296 57.3515 90.0026 57.3515 90.0026C57.2657 89.8683 57.1884 89.7287 57.1201 89.5848C57.1201 89.5403 57.0133 89.3447 57.1201 89.5848C57.0769 89.496 57.0411 89.4039 57.0133 89.3092C56.9346 89.0941 56.8692 88.8744 56.8174 88.6513C56.7563 88.4352 56.7088 88.2155 56.6751 87.9935C56.6751 87.9935 56.6751 87.7623 56.6751 87.869C56.6751 87.9757 56.6751 87.6379 56.6751 87.5934C56.6351 87.1439 56.6351 86.6917 56.6751 86.2421C56.6704 85.8899 56.5283 85.5534 56.2789 85.3043C56.0296 85.0552 55.6927 84.9132 55.34 84.9086C54.9888 84.9176 54.6545 85.061 54.406 85.3092C54.1576 85.5573 54.014 85.8913 54.005 86.2421L53.9516 86.1088Z" fill="#2D2FEE"/>
<path d="M63.4301 83.7618L64.7918 90.8739C64.8986 91.2055 65.1295 91.483 65.4363 91.6487C65.7431 91.8143 66.102 91.8552 66.4383 91.7629C66.7677 91.6525 67.0429 91.4212 67.2081 91.1159C67.3733 90.8106 67.4163 90.454 67.3283 90.1182L65.9666 83.0062C65.8656 82.6726 65.637 82.3922 65.3305 82.2258C65.024 82.0594 64.6641 82.0204 64.329 82.1172C63.9907 82.2148 63.7039 82.4402 63.5294 82.7457C63.3549 83.0511 63.3065 83.4124 63.3945 83.7529L63.4301 83.7618Z" fill="#2D2FEE"/>
<path d="M65.6719 85.0244C66.4559 84.324 67.3263 83.7265 68.2619 83.2464C68.3739 83.1802 68.4898 83.1208 68.609 83.0686C68.5111 83.0686 68.8582 82.9797 68.698 83.0686H68.6179C68.7425 83.1131 68.7514 83.1131 68.6179 83.0686C68.4844 83.0242 68.5378 83.0686 68.6179 83.0686L68.52 82.9975C68.6001 83.0953 68.6179 83.1042 68.52 82.9975C68.4221 82.8908 68.4755 82.9353 68.52 83.042L68.6624 83.2909C68.7069 83.3887 68.7603 83.5398 68.6624 83.362C68.7069 83.4687 68.7425 83.5754 68.7781 83.6909C69.5435 86.0468 70.211 88.4382 70.9319 90.8029C71.0344 91.1343 71.2621 91.4128 71.5668 91.5792C71.8714 91.7456 72.229 91.787 72.5636 91.6944C72.8982 91.6019 73.1836 91.3828 73.3592 91.0836C73.5347 90.7844 73.5867 90.4286 73.504 90.0918L72.2224 85.8334L71.5905 83.7532C71.4278 83.1099 71.2012 82.4845 70.9141 81.8863C70.6123 81.3002 70.1238 80.831 69.5257 80.5527C69.1329 80.4038 68.7119 80.3441 68.2932 80.378C67.8745 80.4118 67.4686 80.5383 67.1049 80.7483C65.8318 81.3757 64.6566 82.1842 63.616 83.1486C63.3658 83.3997 63.2257 83.7398 63.2266 84.0941C63.2274 84.4484 63.3691 84.7878 63.6205 85.0378C63.8719 85.2877 64.2124 85.4276 64.567 85.4268C64.9217 85.426 65.2615 85.2844 65.5118 85.0333L65.6719 85.0244Z" fill="#2D2FEE"/>
<path d="M71.8575 81.2907C72.4017 82.3971 72.8889 83.5306 73.3171 84.6867C73.771 85.9135 74.2071 87.1492 74.5097 88.4027C74.593 88.717 74.7884 88.9901 75.0591 89.1706C75.3298 89.3512 75.6572 89.4267 75.9797 89.383C76.3022 89.3393 76.5977 89.1794 76.8105 88.9334C77.0233 88.6874 77.1388 88.3722 77.1353 88.0471C77.0997 87.5618 77.0997 87.0745 77.1353 86.5892C77.1353 86.438 77.1353 86.4647 77.1353 86.6603C77.1302 86.5952 77.1302 86.5298 77.1353 86.4647C77.1534 86.3386 77.1802 86.2138 77.2154 86.0913C77.2154 86.0024 77.2777 85.9224 77.3044 85.8335V85.9046C77.3239 85.848 77.3508 85.7941 77.3845 85.7446L77.4735 85.5935L77.4201 85.6646C77.4748 85.5981 77.5343 85.5357 77.5981 85.4779C77.4379 85.5935 77.4112 85.6112 77.5358 85.5312L77.6871 85.4423C77.5002 85.5135 77.4735 85.5312 77.6159 85.4423L77.7939 85.389C77.5921 85.389 77.5654 85.389 77.7138 85.389H77.8028C77.5892 85.389 77.5625 85.389 77.7049 85.389H77.874C77.696 85.309 77.6782 85.3001 77.8028 85.389L77.963 85.4779C78.1677 85.5935 77.8117 85.2912 78.0164 85.5312L78.1143 85.629C78.1984 85.7214 78.2621 85.8305 78.3012 85.9491C78.23 85.7713 78.23 85.7535 78.3012 85.8957C78.3012 85.9402 78.3012 85.9846 78.3457 86.0291V86.1624C78.3457 85.958 78.3457 85.9313 78.3457 86.0824C78.3546 86.1443 78.3546 86.2072 78.3457 86.2691C78.3457 86.0646 78.3457 86.038 78.3457 86.1891L78.2923 86.3669C78.3724 86.198 78.3813 86.1713 78.2923 86.3047C78.2033 86.438 78.1944 86.5269 78.1499 86.5358C78.2656 86.3847 78.2745 86.3669 78.1499 86.4736L78.0253 86.598C77.9096 86.6869 77.9363 86.678 78.0787 86.598L77.9274 86.6958C77.8523 86.7488 77.7718 86.7935 77.6871 86.8292H77.7583L77.5803 86.8825C77.5091 86.8825 77.2866 86.9892 77.2154 86.9625C77.4201 86.9625 77.4468 86.9625 77.2955 86.9625H77.1976C77.1442 86.9625 76.8683 86.9625 76.8238 86.9625C77.0255 86.9625 77.0522 86.9625 76.9039 86.9625L76.7259 86.9181L76.5479 86.8647H76.6102C76.4586 86.7689 76.2892 86.7047 76.1122 86.6757C75.9351 86.6467 75.7541 86.6537 75.5798 86.6962C75.4055 86.7387 75.2416 86.8159 75.0979 86.923C74.9541 87.0302 74.8335 87.1652 74.7431 87.32C74.6528 87.4748 74.5946 87.6462 74.572 87.824C74.5495 88.0018 74.563 88.1822 74.6118 88.3546C74.6607 88.5271 74.7438 88.6879 74.8562 88.8275C74.9687 88.9671 75.1081 89.0827 75.2663 89.1673C75.8531 89.4566 76.4987 89.607 77.1531 89.607C77.8075 89.607 78.4531 89.4566 79.0399 89.1673C79.6221 88.8874 80.1114 88.446 80.4491 87.8958C80.7869 87.3456 80.9588 86.7099 80.9445 86.0646C80.8965 85.3707 80.6458 84.706 80.2234 84.153C79.801 83.5999 79.2255 83.1828 78.5682 82.9531C77.917 82.7647 77.2213 82.8008 76.5932 83.0556C75.9651 83.3104 75.4412 83.7691 75.106 84.3577C74.5138 85.5042 74.2812 86.8022 74.4385 88.0827L77.0641 87.736C76.3299 85.0671 75.3496 82.472 74.1359 79.9839C73.9576 79.6787 73.6652 79.4568 73.3231 79.3667C72.981 79.2767 72.6171 79.326 72.3114 79.5038C72.0243 79.6874 71.8159 79.9713 71.7271 80.3C71.6382 80.6288 71.6752 80.9788 71.8308 81.2818L71.8575 81.2907Z" fill="#2D2FEE"/>
<path d="M59.0517 104.707L59.6391 108.965C59.8349 110.352 59.9773 111.81 61.2501 112.655C61.8437 112.97 62.508 113.13 63.1805 113.119C63.8531 113.109 64.5118 112.927 65.0949 112.592C65.6289 112.352 66.1184 112.023 66.6524 111.757C66.6524 111.757 67.0262 111.579 66.8126 111.668C66.9546 111.608 67.1002 111.557 67.2487 111.517L67.4356 111.472C67.2843 111.472 67.2932 111.472 67.4356 111.472H67.6848C67.5424 111.472 67.5513 111.472 67.6848 111.472C68.0271 111.566 68.3928 111.521 68.7016 111.346C69.0104 111.171 69.2369 110.881 69.3313 110.539C69.4257 110.197 69.3803 109.831 69.2051 109.523C69.0298 109.215 68.7391 108.988 68.3968 108.894C67.0486 108.689 65.6729 109.007 64.552 109.783C64.3206 109.916 64.0892 110.05 63.8578 110.165L63.6976 110.236L63.3683 110.343L63.039 110.414C63.3594 110.352 62.9945 110.414 62.9055 110.414C62.5673 110.414 63.0301 110.494 62.7898 110.414C62.6919 110.414 62.4961 110.245 62.7275 110.414C62.6741 110.414 62.4427 110.192 62.6563 110.414C62.5495 110.299 62.5406 110.299 62.6563 110.414L62.594 110.316C62.5228 110.174 62.5228 110.174 62.594 110.316C62.594 110.263 62.594 110.21 62.5317 110.148C62.4694 110.085 62.4605 109.881 62.4338 109.747C62.3092 109.152 62.2469 108.538 62.1668 107.969L61.6149 104.013C61.5139 103.68 61.2854 103.399 60.9789 103.233C60.6723 103.067 60.3125 103.028 59.9773 103.124C59.6486 103.233 59.3736 103.462 59.2083 103.766C59.0429 104.07 58.9997 104.426 59.0873 104.76L59.0517 104.707Z" fill="#2D2FEE"/>
<path d="M61.2877 108.227L67.055 106.245C67.3867 106.143 67.6655 105.915 67.8321 105.611C67.9987 105.306 68.0401 104.949 67.9475 104.615C67.8549 104.281 67.6355 103.996 67.3359 103.82C67.0364 103.645 66.6802 103.593 66.343 103.676L60.5757 105.658C60.4022 105.701 60.239 105.777 60.0958 105.884C59.9525 105.991 59.8322 106.125 59.7418 106.279C59.6515 106.433 59.593 106.603 59.5699 106.78C59.5467 106.957 59.5593 107.137 59.607 107.309C59.6546 107.481 59.7364 107.642 59.8473 107.782C59.9583 107.921 60.0962 108.038 60.253 108.123C60.4097 108.209 60.582 108.262 60.7598 108.28C60.9375 108.298 61.117 108.28 61.2877 108.227V108.227Z" fill="#2D2FEE"/>
<path d="M60.6994 104.92L61.1622 104.716C60.9219 104.822 61.2957 104.662 61.3046 104.662C61.5835 104.55 61.8594 104.443 62.1323 104.342C62.6574 104.138 63.2003 103.96 63.7432 103.791C64.8513 103.453 65.9774 103.177 67.1164 102.964C67.449 102.861 67.7282 102.633 67.8944 102.327C68.0607 102.022 68.1009 101.663 68.0064 101.329C67.9048 100.993 67.6784 100.709 67.3738 100.536C67.0691 100.362 66.7095 100.312 66.3688 100.395C63.9375 100.858 61.5688 101.604 59.311 102.618C59.0073 102.797 58.7866 103.089 58.6967 103.43C58.6067 103.771 58.6548 104.134 58.8304 104.44C59.0152 104.741 59.3091 104.958 59.6506 105.048C59.9922 105.137 60.3551 105.091 60.6638 104.92H60.6994Z" fill="#2D2FEE"/>
<path d="M71.0773 99.9062C71.8133 101.009 72.2882 102.264 72.4657 103.578C72.4657 103.364 72.4657 103.782 72.4657 103.791C72.4657 103.987 72.4657 104.173 72.4657 104.369C72.4835 104.704 72.4835 105.039 72.4657 105.374C72.4123 105.967 72.4423 106.566 72.5547 107.152C72.6318 107.502 72.7818 107.833 72.9949 108.123C73.208 108.412 73.4795 108.654 73.7918 108.832C74.196 109.014 74.6344 109.108 75.0779 109.108C75.5214 109.108 75.9598 109.014 76.3639 108.832C77.877 108.298 79.39 107.738 80.903 107.187C81.2347 107.085 81.5135 106.857 81.6801 106.553C81.8467 106.249 81.8881 105.892 81.7955 105.557C81.7029 105.223 81.4835 104.938 81.1839 104.763C80.8844 104.587 80.5282 104.535 80.191 104.618L76.1236 106.094C75.8121 106.209 75.4917 106.334 75.1624 106.423L74.9488 106.467C74.9697 106.452 74.9946 106.445 75.02 106.445C75.0455 106.445 75.0703 106.452 75.0912 106.467H74.9488C74.9895 106.469 75.0291 106.481 75.0646 106.501C75.1001 106.521 75.1305 106.549 75.1535 106.583C74.9132 106.414 75.3404 106.698 75.1535 106.529C75.2158 106.698 75.2247 106.707 75.1535 106.529V106.378C75.1535 106.28 75.1535 106.307 75.1535 106.458C75.1491 106.384 75.1491 106.31 75.1535 106.236C75.1535 106.12 75.1535 106.005 75.1535 105.889C75.2294 104.631 75.1487 103.367 74.9132 102.129C74.6175 100.847 74.1027 99.6261 73.3913 98.5193C73.3025 98.3682 73.1847 98.2359 73.0447 98.1302C72.9047 98.0245 72.7453 97.9473 72.5754 97.9032C72.4056 97.859 72.2287 97.8487 72.0549 97.8728C71.881 97.8969 71.7137 97.955 71.5623 98.0437C71.411 98.1324 71.2786 98.2501 71.1727 98.3899C71.0669 98.5297 70.9897 98.689 70.9455 98.8587C70.9012 99.0283 70.8909 99.205 70.915 99.3786C70.9392 99.5523 70.9973 99.7194 71.0862 99.8706L71.0773 99.9062Z" fill="#2D2FEE"/>
<path d="M76.015 100.297L77.795 105.685C77.8375 105.858 77.9144 106.021 78.0212 106.164C78.128 106.307 78.2624 106.427 78.4165 106.518C78.5706 106.608 78.7413 106.666 78.9185 106.69C79.0956 106.713 79.2756 106.7 79.4478 106.652C79.6199 106.605 79.7808 106.523 79.9208 106.412C80.0608 106.302 80.1771 106.164 80.2628 106.007C80.3486 105.851 80.402 105.678 80.4199 105.501C80.4378 105.323 80.4199 105.144 80.3671 104.974L78.5871 99.5862C78.4846 99.2548 78.2569 98.9764 77.9522 98.8099C77.6476 98.6435 77.29 98.6022 76.9554 98.6947C76.6208 98.7872 76.3354 99.0063 76.1598 99.3056C75.9842 99.6048 75.9323 99.9606 76.015 100.297V100.297Z" fill="#2D2FEE"/>
<path d="M79.7101 98.2795C80.4933 100.982 81.3655 103.649 82.3267 106.28L84.2847 104.769C83.7103 104.479 83.0738 104.333 82.4302 104.344C81.7867 104.355 81.1554 104.522 80.5912 104.831C80.433 104.916 80.2936 105.032 80.1811 105.171C80.0687 105.311 79.9856 105.472 79.9368 105.644C79.8879 105.816 79.8744 105.997 79.897 106.175C79.9195 106.352 79.9777 106.524 80.0681 106.679C80.1584 106.833 80.2791 106.968 80.4228 107.076C80.5666 107.183 80.7305 107.26 80.9047 107.302C81.079 107.345 81.2601 107.352 81.4371 107.323C81.6141 107.294 81.7835 107.23 81.9351 107.134C82.0775 107.072 82.0864 107.054 81.9351 107.134L82.1754 107.054C82.3356 107.054 82.3445 107.054 82.1754 107.054H82.3712C82.4424 107.054 82.8429 107.116 82.5937 107.054C82.6471 107.054 83.0832 107.232 82.8785 107.125C83.109 107.255 83.3723 107.314 83.6362 107.297C83.9002 107.28 84.1533 107.186 84.3648 107.027C84.5756 106.868 84.7333 106.648 84.8174 106.398C84.9015 106.147 84.9082 105.877 84.8365 105.623C83.8842 102.956 83.0031 100.289 82.2199 97.6216C82.1174 97.2902 81.8897 97.0118 81.585 96.8453C81.2804 96.6789 80.9229 96.6376 80.5882 96.7301C80.2536 96.8226 79.9682 97.0417 79.7926 97.3409C79.6171 97.6402 79.5651 97.9959 79.6478 98.3328L79.7101 98.2795Z" fill="#2D2FEE"/>
<path d="M84.6581 96.9635L87.3815 105.409C87.476 105.751 87.7025 106.041 88.0112 106.216C88.32 106.391 88.6858 106.437 89.028 106.342C89.3703 106.248 89.661 106.022 89.8363 105.713C90.0116 105.405 90.057 105.04 89.9626 104.698L87.2391 96.2612C87.1304 95.9308 86.8992 95.6546 86.593 95.4893C86.2868 95.324 85.9288 95.282 85.5926 95.3722C85.2531 95.4677 84.9648 95.6928 84.79 95.9989C84.6151 96.3049 84.5678 96.6673 84.6581 97.0079V96.9635Z" fill="#2D2FEE"/>
<path d="M88.9213 100.617L88.8323 100.733C88.8603 100.685 88.8965 100.643 88.9391 100.608L89.1171 100.431C89.1171 100.431 89.2862 100.297 89.1171 100.431C88.948 100.564 89.1171 100.431 89.1171 100.431C89.1969 100.375 89.2801 100.325 89.3663 100.279C89.3663 100.279 89.4731 100.208 89.5087 100.208C89.5443 100.208 89.1705 100.342 89.3663 100.271L89.6155 100.191L89.8647 100.128H89.9893C89.5888 100.217 89.7757 100.128 89.8914 100.128H90.1495C90.2207 100.128 90.5678 100.128 90.2919 100.128C90.016 100.128 90.3453 100.128 90.3987 100.128L90.7013 100.217C90.8526 100.262 90.4254 100.084 90.5589 100.164L90.6746 100.217C90.7607 100.262 90.844 100.313 90.9238 100.368C91.0217 100.431 90.995 100.502 90.8081 100.279L90.8971 100.368L91.1196 100.591C91.1908 100.671 91.1908 100.76 91.0306 100.475C91.0306 100.475 91.084 100.546 91.1018 100.582C91.1526 100.649 91.1973 100.72 91.2353 100.795L91.2976 100.911C91.4133 101.124 91.1997 100.644 91.2976 100.795C91.3955 100.946 91.3599 100.982 91.3866 101.071C91.4133 101.16 91.44 101.257 91.4578 101.355C91.5201 101.649 91.4578 101.026 91.4578 101.355C91.4578 101.453 91.4578 101.551 91.4578 101.64C91.4578 101.729 91.3688 102.12 91.4578 101.64C91.4578 101.809 91.3866 101.969 91.3332 102.137C91.3145 102.174 91.2996 102.213 91.2887 102.253C91.3866 101.906 91.3955 102.022 91.3421 102.111C91.294 102.206 91.2405 102.298 91.1819 102.386L91.1018 102.493C91.2798 102.209 91.262 102.306 91.1908 102.378L90.9861 102.591L90.8882 102.671C90.7725 102.786 91.1374 102.493 91.0039 102.582L90.7369 102.76L90.6212 102.822C90.5678 102.822 90.3364 102.946 90.6212 102.822C90.906 102.698 90.5322 102.822 90.4699 102.866L90.1495 102.946H90.0249C90.4076 102.858 90.2474 102.946 90.1139 102.946H89.66C89.4108 102.946 90.0071 103.018 89.7579 102.946L89.4731 102.875H89.3218C89.0993 102.804 89.6244 103.009 89.393 102.875C89.0794 102.708 88.7155 102.66 88.3694 102.742C88.0349 102.839 87.749 103.058 87.5684 103.355C87.3928 103.661 87.3448 104.024 87.4347 104.365C87.5247 104.706 87.7453 104.998 88.0491 105.178C88.6357 105.457 89.2772 105.601 89.927 105.601C90.5767 105.601 91.2182 105.457 91.8049 105.178C92.3474 104.934 92.8282 104.572 93.2117 104.119C93.5953 103.665 93.8719 103.13 94.021 102.555C94.1665 101.975 94.1895 101.371 94.0883 100.782C93.9872 100.193 93.7642 99.6311 93.4336 99.1327C93.078 98.6006 92.5999 98.1614 92.0393 97.8521C91.4787 97.5427 90.852 97.3721 90.2118 97.3547C89.5175 97.3339 88.8288 97.4855 88.2076 97.7958C87.5863 98.1061 87.0517 98.5654 86.6517 99.1327C86.4898 99.4344 86.4493 99.7865 86.5386 100.117C86.628 100.447 86.8404 100.731 87.1323 100.911C87.4401 101.079 87.801 101.123 88.1405 101.034C88.4799 100.945 88.7721 100.729 88.9569 100.431L88.9213 100.617Z" fill="#2D2FEE"/>
<path d="M83.9897 82.1702C84.2745 82.0102 84.5593 81.859 84.8797 81.7257C85.2001 81.5923 84.7551 81.779 84.8797 81.7257L85.0755 81.6457L85.5561 81.4679C86.1704 81.2652 86.802 81.1194 87.4429 81.0323L87.087 81.0767C87.4252 81.0322 87.7634 81.0056 88.1016 80.9878C88.4556 80.9878 88.7952 80.8473 89.0456 80.5972C89.2959 80.3471 89.4366 80.008 89.4366 79.6543C89.4366 79.3006 89.2959 78.9614 89.0456 78.7114C88.7952 78.4613 88.4556 78.3208 88.1016 78.3208C86.1986 78.3988 84.3412 78.9258 82.6814 79.8588C82.3759 80.0369 82.1537 80.329 82.0636 80.6707C81.9735 81.0124 82.0228 81.3758 82.2008 81.6812C82.3832 81.9696 82.6674 82.179 82.9971 82.2679C83.3268 82.3569 83.6779 82.3188 83.9808 82.1613L83.9897 82.1702Z" fill="#2D2FEE"/>
</g>
<defs>
<clipPath id="clip0">
<rect width="120" height="145.405" fill="white"/>
</clipPath>
</defs>
</svg>
