<svg width="200" height="344" viewBox="0 0 200 344" fill="none" xmlns="http://www.w3.org/2000/svg">
<path d="M87.6266 174.588L108.726 166.705C109.194 166.594 109.635 166.394 110.022 166.117C110.408 165.84 110.733 165.49 110.977 165.09C111.221 164.69 111.379 164.246 111.442 163.786C111.504 163.326 111.47 162.859 111.341 162.411C111.213 161.964 110.992 161.546 110.692 161.183C110.393 160.819 110.02 160.517 109.597 160.294C109.174 160.071 108.709 159.933 108.229 159.886C107.749 159.84 107.264 159.886 106.803 160.023L85.7042 167.884C84.7959 168.152 84.0286 168.745 83.5596 169.54C83.0905 170.335 82.9551 171.273 83.181 172.161C83.4745 173.02 84.0987 173.738 84.9255 174.168C85.7523 174.598 86.7189 174.707 87.6266 174.473V174.588Z" fill="#2D2FEE"/>
<path d="M81.8875 188.307L81.1485 188.858C81.6469 188.494 82.1917 188.192 82.7696 187.962L81.9114 188.307C82.5258 188.047 83.1764 187.877 83.8424 187.801H82.8889C83.1511 187.801 83.4371 187.801 83.6994 187.801C84.6444 187.786 85.5479 187.424 86.2263 186.789C86.5787 186.499 86.8355 186.115 86.9653 185.686C87.1984 185.279 87.3059 184.816 87.2753 184.352C87.2744 183.438 86.8971 182.562 86.2263 181.916C85.5479 181.281 84.6444 180.919 83.6994 180.904C82.9955 180.935 82.2946 181.012 81.6015 181.134C81.1904 181.22 80.7845 181.327 80.3857 181.456C79.7295 181.677 79.092 181.946 78.4785 182.26C77.873 182.604 77.2988 182.996 76.7622 183.433C76.4227 183.734 76.1684 184.114 76.0232 184.536C75.8025 184.948 75.6958 185.407 75.7132 185.87C75.6936 186.333 75.8005 186.793 76.0232 187.203C76.153 187.632 76.4098 188.016 76.7622 188.307C77.0915 188.63 77.4849 188.886 77.9191 189.06C78.3532 189.234 78.8191 189.322 79.2891 189.318H80.2426C80.8392 189.157 81.3817 188.848 81.8161 188.421L81.8875 188.307Z" fill="#2D2FEE"/>
<path d="M166.163 204.124C163.544 200.629 161.672 196.624 160.664 192.362C159.657 188.101 159.535 183.674 160.308 179.363C161.21 174.902 162.675 170.576 164.669 166.492C166.789 162.888 168.318 158.962 169.197 154.865C169.504 153.031 169.232 151.145 168.419 149.475C167.607 147.805 166.295 146.435 164.669 145.559C163.105 144.837 161.429 144.392 159.715 144.243C157.464 143.884 156.373 143.86 155.733 141.516C154.84 137.775 152.82 134.406 149.95 131.874C147.08 129.341 143.502 127.77 139.71 127.377C130.536 126.348 122.169 132.496 117.926 140.319L121.932 138.669C121.008 138.358 120.012 138.095 119.111 137.688C118.59 137.52 118.708 137.688 119.514 137.831L118.779 137.209C117.84 136.314 116.816 135.512 115.722 134.817C112.544 132.294 108.722 130.734 104.7 130.319C102.852 130.19 100.998 130.442 99.2497 131.059C97.5015 131.676 95.8961 132.645 94.5309 133.908C93.2174 135.263 92.2212 136.898 91.6152 138.693C91.2268 140.891 90.499 143.014 89.4583 144.985C87.0879 148.214 82.3472 149.052 78.7443 149.937C74.3372 150.856 70.1453 152.618 66.3949 155.128C60.066 159.626 56.4394 166.253 58.3356 174.124C59.4023 178.621 66.2763 176.707 65.186 172.21C63.5978 165.631 69.2393 160.894 74.6674 158.573C81.2332 155.798 88.8893 156.061 94.1278 150.367C96.6404 147.616 97.1381 144.482 98.2759 141.061C98.8006 139.674 99.8237 138.537 101.141 137.876C102.459 137.216 103.975 137.08 105.387 137.496C108.832 138.455 111.975 140.292 114.513 142.831C116.189 144.06 118.078 144.961 120.083 145.487C120.838 145.699 121.641 145.652 122.366 145.353C123.091 145.054 123.697 144.521 124.089 143.836C128.166 136.348 137.837 130.774 145.422 137.09C149.144 140.2 148.29 145.439 151.751 148.621C153.161 149.824 154.878 150.603 156.705 150.87C158.151 151.157 161.209 150.87 162.086 152.377C162.963 153.884 161.422 156.922 160.782 158.286C159.786 160.439 158.649 162.521 157.677 164.722C155.496 169.468 153.957 174.489 153.102 179.65C151.729 189.562 154.228 199.625 160.071 207.712C162.654 211.468 168.817 207.88 166.21 204.076L166.163 204.124Z" fill="#2D2FEE"/>
<path d="M116.748 122.725C112.026 110.358 120.833 97.6597 132.283 93.0573C144.631 88.0772 160.615 89.6113 172.42 95.205C178.551 97.8966 183.709 102.403 187.2 108.115C190.539 114.24 192.391 121.064 192.606 128.036C193.055 135.991 192.186 143.966 190.033 151.638C187.908 159.238 184.083 165.941 180.943 173.116C173.6 189.968 177.354 207.575 181.864 224.687C182.136 225.566 182.74 226.306 183.548 226.748C184.356 227.189 185.304 227.299 186.192 227.054C187.08 226.808 187.837 226.226 188.303 225.432C188.768 224.637 188.906 223.693 188.687 222.798C186.018 213.99 184.355 204.909 183.729 195.727C183.609 187.153 185.673 178.69 189.726 171.133C197.257 155.839 201.531 139.554 199.17 122.442C198.305 114.91 195.588 107.709 191.26 101.483C186.781 95.5663 180.773 90.9807 173.884 88.2189C160.355 82.4835 143.191 80.9965 129.521 86.661C115.119 92.5616 104.046 108.965 109.925 124.684C111.507 128.909 118.354 127.044 116.748 122.796V122.725Z" fill="#2D2FEE"/>
<path d="M168.565 170.625C169.855 183.819 162.14 195.165 159.054 207.482C156.521 217.549 157.258 229.251 165.042 236.712C168.289 239.839 173.194 234.817 169.924 231.691C162.439 224.584 164.213 213.215 167.229 204.308C170.937 193.294 176.648 182.682 175.474 170.625C175.036 166.124 168.128 166.077 168.565 170.625Z" fill="#2D2FEE"/>
<path d="M100.738 90.4833C88.6157 93.9432 78.5176 102.972 70.1582 112.025C53.3748 130.139 42.3969 152.82 38.6258 177.171C36.5538 191.223 37.9113 205.395 36.6014 219.495C35.3868 232.434 30.6237 246.487 18.5728 253.17C14.5479 255.398 18.144 261.535 22.1689 259.308C46.7232 245.705 43.6033 214.495 44.4845 190.892C45.5144 166.338 54.3262 142.738 69.658 123.471C78.0889 112.925 89.2587 101.171 102.643 97.403C103.531 97.1301 104.277 96.5237 104.723 95.7126C105.169 94.9015 105.279 93.9495 105.032 93.0585C104.784 92.1674 104.197 91.4075 103.395 90.94C102.593 90.4725 101.64 90.3343 100.738 90.5544V90.4833Z" fill="#2D2FEE"/>
<path d="M66.8452 181.654C67.0874 180.23 66.9707 178.768 66.5057 177.4C66.0407 176.031 65.2419 174.797 64.1801 173.809C63.1184 172.821 61.8268 172.108 60.4204 171.735C59.0141 171.362 57.5365 171.34 56.1195 171.671C50.2346 173.037 47.1972 179.017 47.3158 184.645C47.5887 190.497 49.6773 196.122 53.2957 200.75C54.9192 202.723 56.7846 204.487 58.8484 206.001C60.4128 206.948 61.6405 208.355 62.3603 210.027C63.7366 214.36 70.5944 212.382 69.2181 208.144C67.9045 204.74 65.5259 201.843 62.4314 199.879C59.462 197.583 57.1878 194.52 55.8585 191.026C54.672 187.894 53.3194 183.114 55.55 180.124C55.8507 179.669 56.2491 179.285 56.7168 179C57.1844 178.715 57.7098 178.536 58.2552 178.476C58.8721 178.476 60.0823 179.182 59.9636 179.771C59.7415 180.657 59.862 181.593 60.3012 182.395C60.7405 183.197 61.4667 183.806 62.3366 184.103C63.2331 184.348 64.1902 184.239 65.0081 183.801C65.8261 183.362 66.4416 182.627 66.7264 181.749L66.8452 181.654Z" fill="#2D2FEE"/>
<path d="M61.906 189.398C59.9169 198.534 61.1838 208.078 65.487 216.378C69.7903 224.678 76.8591 231.211 85.4699 234.847C90.4365 236.872 95.1434 239.483 99.4904 242.626C103.543 245.761 107.809 247.883 113.063 246.94C117.978 245.63 122.463 243.053 126.071 239.467C130.642 235.554 135.143 231.57 139.667 227.681C148.008 220.42 156.845 213.773 163.631 204.956C164.066 204.158 164.176 203.222 163.939 202.344C163.702 201.466 163.136 200.713 162.359 200.242C161.544 199.795 160.589 199.678 159.69 199.914C158.791 200.151 158.017 200.724 157.528 201.515C152.603 207.903 146.265 212.688 140.233 218.016L128.262 228.435C124.772 231.807 121.073 234.956 117.187 237.864C113.158 240.528 109.458 241.4 105.405 238.548C101.781 235.748 97.9081 233.286 93.8352 231.193C85.8942 227.539 78.6364 224.121 73.6879 216.625C71.275 212.984 69.6042 208.903 68.7712 204.615C67.9382 200.328 67.9595 195.917 68.8338 191.638C69.7999 187.206 62.9901 185.297 62.0239 189.752L61.906 189.398Z" fill="#2D2FEE"/>
<path d="M118.999 186.937C118.717 188.683 118.793 190.469 119.224 192.183C119.655 193.898 120.43 195.503 121.503 196.901C121.67 197.19 121.813 197.504 121.98 197.769C122.147 198.035 121.765 197.118 121.98 197.528L122.123 197.938C122.131 198.075 122.131 198.212 122.123 198.348C122.266 198.758 122.123 197.6 122.123 198.035C122.099 198.348 122.099 198.662 122.123 198.975C122.123 198.975 122.266 198.155 122.123 198.638C121.98 199.12 122.123 198.927 122.123 199.048C122.068 199.182 122.02 199.319 121.98 199.458C121.98 199.289 122.337 198.758 121.98 199.192L121.717 199.651C121.717 199.651 121.36 200.182 121.717 199.651C122.075 199.12 121.717 199.651 121.717 199.651L121.312 200.061C120.68 200.747 120.336 201.654 120.353 202.592C120.369 203.529 120.744 204.424 121.4 205.087C122.055 205.75 122.939 206.13 123.866 206.146C124.792 206.163 125.689 205.815 126.367 205.176C127.659 203.982 128.586 202.438 129.039 200.728C129.491 199.018 129.449 197.213 128.919 195.526C128.224 193.978 127.427 192.478 126.534 191.038L126.32 190.556C126.01 189.953 126.463 191.014 126.32 190.556C126.195 190.25 126.091 189.935 126.01 189.615C126.01 189.615 125.867 189.012 125.89 189.012C125.914 189.012 125.89 189.856 125.89 189.229C125.89 189.229 125.89 188.409 125.89 188.988C125.89 189.567 125.89 188.795 125.89 188.747C126.032 188.284 126.08 187.797 126.032 187.315C125.984 186.834 125.841 186.366 125.611 185.942C125.381 185.517 125.07 185.143 124.695 184.842C124.319 184.541 123.889 184.32 123.427 184.191C122.966 184.062 122.484 184.027 122.009 184.09C121.534 184.153 121.077 184.311 120.664 184.556C120.251 184.801 119.891 185.127 119.605 185.516C119.319 185.904 119.113 186.346 118.999 186.817V186.937Z" fill="#2D2FEE"/>
<path d="M85.432 194.774C89.1092 199.908 93.1473 204.75 97.513 209.261C99.6231 211.434 101.803 213.535 104.075 215.539C104.678 216.07 104.469 216.288 104.214 215.201V214.742C104.214 215.08 104.214 215.394 104.214 215.732L104.423 217.664L106.139 214.525C104.686 215.373 103.021 215.743 101.362 215.587C99.5565 215.516 97.7694 215.183 96.0521 214.598C92.7299 213.676 89.7695 211.691 87.5885 208.923C87.1189 208.238 86.7078 207.511 86.3596 206.75C86.6378 207.33 86.1508 206.098 86.1276 205.978C86.1044 205.857 85.9189 205.181 85.8262 204.795C85.7334 204.408 85.8262 204.432 85.8262 204.263C85.8262 204.65 85.8262 204.65 85.8262 204.263C85.8034 203.797 85.8034 203.33 85.8262 202.863C85.803 202.397 85.803 201.929 85.8262 201.463C85.8262 202.211 85.9421 201.052 85.9653 200.907C85.9885 200.762 86.1972 200.134 86.2899 199.748C86.3827 199.362 86.4523 199.314 86.2899 199.748L86.5682 199.121C86.7781 198.728 87.0104 198.349 87.2638 197.986C86.8696 198.541 87.5422 197.672 87.6581 197.551C87.774 197.43 88.5856 196.778 88.0755 197.116L88.8175 196.706L90.1855 196.102C90.9738 195.605 91.5454 194.808 91.7791 193.879C92.0128 192.951 91.8904 191.964 91.4377 191.128C90.9485 190.321 90.1814 189.739 89.2934 189.501C88.4055 189.263 87.4638 189.387 86.661 189.849C83.9985 190.978 81.8166 193.07 80.5162 195.74C78.8481 199.293 78.4296 203.343 79.3336 207.185C81.1422 215.177 88.6087 220.296 95.8201 222.131C100.438 223.587 105.417 223.147 109.733 220.899C110.262 220.587 110.702 220.134 111.007 219.587C111.313 219.04 111.473 218.418 111.472 217.785C111.422 216.203 111.204 214.632 110.823 213.101C109.97 211.388 108.709 209.933 107.159 208.875C106 207.789 104.84 206.678 103.727 205.543C99.2575 201.086 95.1615 196.239 91.484 191.056C90.991 190.253 90.224 189.674 89.3376 189.437C88.4512 189.199 87.5113 189.321 86.7073 189.776C86.3074 190.016 85.957 190.336 85.6763 190.718C85.3955 191.099 85.1899 191.535 85.0714 191.999C84.9529 192.464 84.9237 192.948 84.9856 193.424C85.0475 193.9 85.1992 194.359 85.432 194.774Z" fill="#2D2FEE"/>
<path d="M83.5788 231.945C82.8412 236.782 81.6339 241.536 79.9743 246.138C79.6813 247.086 79.1357 247.935 78.3966 248.594C77.6574 249.253 76.753 249.696 75.7811 249.876L67.1588 252.644C61.6462 254.465 56.1338 256.547 50.4799 257.943C45.5563 259.173 40.5149 259.93 35.6148 261.255C15.0723 266.814 3.52887 285.597 -4.29237 304.119C-9.19242 315.758 -13.2444 327.776 -19.5815 338.705C-20.0134 339.515 -20.1157 340.461 -19.8666 341.346C-19.6175 342.23 -19.0366 342.982 -18.2461 343.445C-17.4556 343.908 -16.5171 344.045 -15.6282 343.827C-14.7393 343.609 -13.9692 343.053 -13.48 342.277C-2.61981 323.47 1.43221 300.807 15.1429 283.633C18.2746 279.585 21.9906 276.029 26.168 273.083C30.4878 270.321 35.2806 268.387 40.3028 267.381C45.4385 266.199 50.6683 265.394 55.7333 263.857C61.2694 262.201 66.7584 260.237 72.2238 258.416C77.6893 256.594 83.4374 255.577 85.9581 250.018C88.1536 244.836 89.628 239.375 90.3399 233.79C90.5498 232.882 90.4119 231.928 89.9537 231.117C89.4954 230.306 88.7504 229.698 87.8663 229.413C86.9794 229.168 86.0325 229.278 85.2243 229.719C84.4161 230.16 83.8093 230.898 83.5316 231.779L83.5788 231.945Z" fill="#2D2FEE"/>
<path d="M130.89 229.817C130.021 235.586 130.044 240.805 133.238 245.88C136.761 251.482 142.75 255.696 147.941 259.598C158.639 267.588 170.419 273.951 182.912 278.486C187.187 280.066 189.042 273.124 184.791 271.568C173.964 267.577 163.698 262.152 154.259 255.432C149.547 252.223 145.144 248.568 141.106 244.516C139.517 242.858 138.369 240.813 137.773 238.575C137.177 236.338 137.152 233.982 137.701 231.732C137.914 230.806 137.772 229.833 137.305 229.01C136.838 228.187 136.081 227.577 135.188 227.303C134.285 227.059 133.324 227.186 132.512 227.656C131.7 228.126 131.1 228.902 130.843 229.817H130.89Z" fill="#2D2FEE"/>
<path d="M133.816 248.421C132.931 256.34 132.623 264.313 132.895 272.277C132.895 275.315 134.075 279.672 132.659 282.498C131.243 285.324 127.491 287.608 125.037 289.563C114.112 298.253 102.313 306.731 97.9716 320.649C96.6266 325.006 103.446 326.866 104.815 322.533C109.298 308.167 123.551 300.325 134.287 291.07C136.839 289.163 138.762 286.539 139.809 283.534C140.413 280.008 140.477 276.411 139.998 272.866C139.706 264.714 140.006 256.553 140.895 248.444C141.39 243.923 134.287 243.946 133.816 248.444V248.421Z" fill="#2D2FEE"/>
<path d="M64.703 259.727L75.7117 276.223C79.3233 281.221 82.4417 286.572 85.0215 292.197C87.3489 297.973 88.373 304.224 90.5375 310.071C92.648 315.816 95.3391 321.321 98.5672 326.496C100.895 330.347 107.039 326.781 104.595 322.907C101.375 317.82 98.7359 312.373 96.7285 306.672C94.6339 300.682 93.5399 294.383 91.0263 288.536C88.5248 283.106 85.5326 277.925 82.0889 273.062L70.7775 256.138C68.2639 252.359 62.2126 255.924 64.7496 259.727H64.703Z" fill="#2D2FEE"/>
<path d="M136.175 174.497C139.435 174.105 142.611 173.169 145.576 171.726L147.527 170.859L148.021 170.642C148.491 170.425 147.457 170.883 148.021 170.642L149.008 170.232C150.352 169.673 151.745 169.245 153.168 168.955C154.045 168.666 154.779 168.041 155.217 167.21C155.655 166.38 155.763 165.408 155.519 164.498C155.222 163.609 154.61 162.868 153.804 162.421C152.998 161.975 152.058 161.856 151.17 162.088C148.26 162.833 145.433 163.882 142.732 165.221L141.886 165.606C141.51 165.775 141.557 165.751 141.886 165.606L141.416 165.823C140.758 166.088 140.1 166.353 139.442 166.57C138.781 166.807 138.106 167 137.42 167.148C137.091 167.148 136.739 167.293 136.386 167.365H136.551H136.034C135.106 167.389 134.223 167.778 133.567 168.45C132.911 169.123 132.532 170.028 132.508 170.979C132.514 171.936 132.887 172.851 133.547 173.528C134.207 174.204 135.1 174.587 136.034 174.593L136.175 174.497Z" fill="#2D2FEE"/>
<path d="M104.323 162.698C103.148 165.345 101.733 167.855 100.099 170.19L100.602 169.445L99.8145 170.55C99.2194 171.24 98.8767 172.146 98.8516 173.095C98.8523 174.05 99.1987 174.966 99.8145 175.64C100.432 176.312 101.265 176.691 102.134 176.697C102.565 176.699 102.993 176.607 103.391 176.425C103.79 176.244 104.151 175.977 104.454 175.64C106.626 172.792 108.484 169.673 109.99 166.348C110.412 165.497 110.529 164.503 110.319 163.562C110.088 162.655 109.547 161.881 108.809 161.401C108.045 160.926 107.142 160.797 106.292 161.041C105.462 161.287 104.754 161.883 104.323 162.698Z" fill="#2D2FEE"/>
<path d="M150.504 164.103C149.052 165.692 147.455 167.157 145.955 168.697C144.214 170.354 142.685 172.231 141.406 174.283C140.928 175.138 140.798 176.151 141.042 177.103C141.287 178.055 141.887 178.871 142.713 179.373C143.548 179.85 144.531 179.977 145.456 179.727C146.38 179.477 147.175 178.87 147.673 178.032C147.924 177.581 148.207 177.15 148.52 176.741L147.963 177.511C150.214 174.507 153.117 172.123 155.634 169.367C156.298 168.658 156.678 167.718 156.698 166.735C156.687 165.75 156.306 164.807 155.634 164.103C154.95 163.412 154.029 163.024 153.069 163.024C152.109 163.024 151.188 163.412 150.504 164.103Z" fill="#2D2FEE"/>
<path d="M119.637 57.6619C116.801 49.3371 114.202 40.9422 111.937 32.4537C110.03 25.2046 108.743 17.1604 114.512 11.2208C117.873 7.7366 125.335 4.5797 129.388 8.99932C131.772 11.5248 130.508 16.0146 130.032 18.9376C129.396 23.0376 128.562 27.0987 127.528 31.1208C125.234 40.3258 121.999 49.2805 117.873 57.8489L121.926 56.2355L117.158 55.2066C112.676 54.2244 110.769 60.9824 115.275 61.9646L120.043 62.9935C120.802 63.1849 121.604 63.1313 122.329 62.8406C123.055 62.55 123.666 62.0378 124.072 61.38C128.558 52.1354 132.072 42.4668 134.561 32.5238C135.777 27.543 136.731 22.492 137.446 17.4177C138.042 12.998 138.09 8.43812 135.062 4.79018C130.294 -1.07926 120.758 -1.12607 114.583 2.3348C110.712 4.58161 107.58 7.87186 105.56 11.8142C103.54 15.7566 102.716 20.1852 103.188 24.5732C103.908 30.2943 105.193 35.933 107.026 41.4098C108.79 47.4897 110.697 53.5462 112.748 59.5326C114.202 63.7885 121.092 61.9412 119.637 57.6619Z" fill="#2D2FEE"/>
<path d="M112.577 76.8346L112.363 76.5933L112.909 77.3169C112.696 77.0147 112.513 76.6915 112.363 76.3521L112.719 77.2205C112.519 76.7344 112.383 76.2233 112.315 75.7007L112.458 76.6415C112.375 76.001 112.375 75.3522 112.458 74.7117L112.315 75.6766C112.427 74.9993 112.611 74.3362 112.862 73.6985L112.505 74.5669C112.749 73.9771 113.06 73.4185 113.432 72.9025L112.886 73.6503C113.191 73.248 113.542 72.8836 113.931 72.5647L113.218 73.1436C113.535 72.884 113.887 72.6728 114.264 72.5165L113.408 72.8783C113.866 72.6909 114.345 72.5613 114.835 72.4923H113.884C114.413 72.432 114.947 72.432 115.476 72.4923L114.549 72.3476C115.119 72.4491 115.677 72.6108 116.213 72.83L115.357 72.4682C115.858 72.688 116.33 72.9717 116.76 73.3125L116.023 72.7336C116.383 73.0261 116.709 73.3578 116.998 73.7226L116.427 72.9748C116.702 73.3485 116.933 73.7532 117.116 74.181L116.76 73.3125C116.921 73.732 117.032 74.1692 117.093 74.6152L116.95 73.6503C116.998 74.0993 116.998 74.5522 116.95 75.0012L117.093 74.0362C117.007 74.6254 116.847 75.2011 116.617 75.749L116.974 74.8805C116.756 75.3834 116.485 75.8607 116.166 76.3038L116.712 75.5801C116.356 76.0583 115.941 76.4881 115.476 76.8587L116.189 76.2796C115.802 76.5873 115.379 76.8465 114.93 77.0516L115.785 76.6898C115.324 76.8741 114.847 77.0114 114.359 77.0999L115.31 76.9552H115.025L115.975 77.0999L110.984 75.7248C110.532 75.5981 110.059 75.5631 109.593 75.6218C109.127 75.6805 108.677 75.8318 108.269 76.067C107.86 76.3022 107.502 76.6168 107.213 76.9927C106.925 77.3686 106.712 77.7984 106.587 78.2578C106.462 78.7171 106.428 79.1969 106.485 79.6698C106.543 80.1427 106.692 80.5993 106.924 81.0138C107.156 81.4282 107.466 81.7922 107.836 82.0851C108.206 82.3779 108.63 82.594 109.083 82.7207C110.699 83.1549 112.315 83.6373 113.955 84.0474C114.968 84.2099 116.002 84.161 116.995 83.9039C117.988 83.6467 118.919 83.1867 119.731 82.5518C121.63 81.2015 123.034 79.2503 123.724 77.0035C124.33 74.9295 124.184 72.7037 123.312 70.7298C122.44 68.7559 120.899 67.1646 118.97 66.2444C116.98 65.2878 114.745 64.9843 112.577 65.3759C110.515 65.8084 108.685 67.0036 107.443 68.7291C105.966 70.5737 105.16 72.8778 105.16 75.2544C105.16 77.631 105.966 79.9352 107.443 81.7798C108.114 82.4516 109.019 82.8282 109.962 82.8282C110.905 82.8282 111.81 82.4516 112.482 81.7798C113.098 81.1137 113.448 80.2392 113.466 79.3257C113.484 78.4122 113.167 77.5246 112.577 76.8346Z" fill="#2D2FEE"/>
</svg>
