<svg width="201" height="327" viewBox="0 0 201 327" fill="none" xmlns="http://www.w3.org/2000/svg">
<path d="M94.3284 165.995L114.389 158.5C114.834 158.394 115.253 158.204 115.621 157.941C115.989 157.677 116.298 157.345 116.53 156.964C116.761 156.584 116.912 156.162 116.971 155.725C117.031 155.287 116.998 154.843 116.876 154.418C116.753 153.992 116.544 153.595 116.259 153.249C115.974 152.903 115.62 152.616 115.217 152.404C114.815 152.193 114.373 152.061 113.916 152.017C113.46 151.972 112.999 152.017 112.561 152.147L92.5005 159.62C91.6369 159.876 90.9074 160.439 90.4615 161.195C90.0155 161.951 89.8868 162.843 90.1015 163.687C90.3806 164.504 90.9741 165.187 91.7602 165.595C92.5463 166.004 93.4653 166.108 94.3284 165.885V165.995Z" fill="#2D2FEE"/>
<path d="M88.8726 179.038L88.17 179.563C88.6438 179.216 89.1618 178.93 89.7112 178.71L88.8953 179.038C89.4794 178.792 90.098 178.63 90.7312 178.557H89.8247C90.074 178.557 90.3459 178.557 90.5952 178.557C91.4937 178.543 92.3528 178.199 92.9978 177.596C93.3329 177.319 93.577 176.955 93.7005 176.546C93.922 176.159 94.0243 175.72 93.9951 175.279C93.9943 174.409 93.6356 173.576 92.9978 172.962C92.3528 172.358 91.4937 172.015 90.5952 172C89.926 172.03 89.2596 172.103 88.6006 172.219C88.2098 172.3 87.8239 172.402 87.4446 172.525C86.8208 172.734 86.2146 172.99 85.6314 173.29C85.0556 173.616 84.5097 173.989 83.9995 174.404C83.6767 174.691 83.4349 175.052 83.2968 175.453C83.0871 175.845 82.9856 176.281 83.0022 176.721C82.9835 177.161 83.0851 177.599 83.2968 177.989C83.4203 178.397 83.6644 178.762 83.9995 179.038C84.3126 179.346 84.6867 179.589 85.0994 179.754C85.5122 179.92 85.9552 180.003 86.4021 180H87.3086C87.8759 179.846 88.3917 179.553 88.8047 179.147L88.8726 179.038Z" fill="#2D2FEE"/>
<path d="M168.999 194.076C166.509 190.754 164.729 186.946 163.771 182.894C162.813 178.842 162.697 174.634 163.432 170.534C164.289 166.293 165.683 162.18 167.579 158.297C169.594 154.87 171.048 151.137 171.883 147.242C172.175 145.498 171.916 143.706 171.144 142.118C170.372 140.53 169.124 139.228 167.579 138.394C166.091 137.708 164.498 137.285 162.869 137.143C160.728 136.802 159.691 136.779 159.082 134.55C158.234 130.993 156.312 127.79 153.584 125.383C150.855 122.975 147.453 121.481 143.848 121.107C135.126 120.129 127.17 125.975 123.136 133.413L126.945 131.843C126.066 131.548 125.12 131.297 124.263 130.911C123.767 130.751 123.88 130.911 124.646 131.047L123.948 130.456C123.054 129.604 122.08 128.842 121.04 128.181C118.019 125.782 114.385 124.299 110.561 123.905C108.804 123.782 107.041 124.021 105.379 124.608C103.717 125.194 102.191 126.116 100.892 127.317C99.6437 128.605 98.6965 130.16 98.1204 131.866C97.7511 133.956 97.0591 135.975 96.0696 137.848C93.8159 140.919 89.3085 141.715 85.8829 142.557C81.6927 143.43 77.7072 145.106 74.1414 147.493C68.1241 151.769 64.6759 158.069 66.4788 165.553C67.493 169.829 74.0287 168.01 72.992 163.733C71.482 157.478 76.8458 152.974 82.0067 150.768C88.2494 148.129 95.5286 148.38 100.509 142.966C102.898 140.35 103.371 137.371 104.453 134.118C104.952 132.799 105.925 131.718 107.178 131.09C108.43 130.462 109.872 130.333 111.214 130.729C114.49 131.64 117.478 133.386 119.891 135.801C121.485 136.969 123.281 137.825 125.187 138.326C125.904 138.528 126.668 138.483 127.357 138.199C128.047 137.915 128.623 137.407 128.996 136.756C132.872 129.637 142.067 124.337 149.279 130.342C152.817 133.299 152.006 138.28 155.296 141.306C156.637 142.449 158.269 143.19 160.006 143.444C161.381 143.717 164.288 143.444 165.122 144.877C165.956 146.31 164.491 149.199 163.883 150.495C162.936 152.542 161.854 154.521 160.93 156.614C158.857 161.127 157.394 165.901 156.581 170.807C155.275 180.232 157.651 189.799 163.207 197.488C165.663 201.059 171.523 197.648 169.044 194.031L168.999 194.076Z" fill="#2D2FEE"/>
<path d="M122.017 116.685C117.527 104.926 125.9 92.853 136.787 88.4771C148.527 83.7421 163.724 85.2007 174.948 90.5191C180.778 93.0782 185.682 97.3624 189 102.794C192.175 108.617 193.936 115.105 194.141 121.734C194.568 129.298 193.741 136.88 191.694 144.174C189.674 151.4 186.037 157.773 183.052 164.595C176.071 180.618 179.64 197.358 183.927 213.628C184.186 214.464 184.76 215.167 185.529 215.587C186.297 216.007 187.199 216.112 188.043 215.878C188.887 215.644 189.606 215.091 190.049 214.336C190.492 213.581 190.623 212.683 190.415 211.832C187.877 203.458 186.296 194.823 185.701 186.093C185.587 177.942 187.549 169.895 191.402 162.71C198.563 148.169 202.626 132.685 200.381 116.415C199.559 109.254 196.976 102.408 192.861 96.4883C188.602 90.8626 182.891 86.5027 176.34 83.8768C163.478 78.4238 147.158 77.0099 134.161 82.3956C120.468 88.0058 109.94 103.602 115.53 118.547C117.034 122.564 123.543 120.791 122.017 116.752V116.685Z" fill="#2D2FEE"/>
<path d="M171.283 162.226C172.509 174.771 165.174 185.558 162.24 197.27C159.831 206.841 160.532 217.967 167.933 225.061C171.02 228.034 175.684 223.259 172.575 220.287C165.458 213.53 167.144 202.72 170.013 194.252C173.538 183.779 178.968 173.69 177.851 162.226C177.435 157.947 170.867 157.902 171.283 162.226V162.226Z" fill="#2D2FEE"/>
<path d="M106.795 86.0296C95.269 89.3192 85.668 97.9038 77.72 106.511C61.7627 123.734 51.3251 145.298 47.7397 168.45C45.7697 181.811 47.0603 195.285 45.8149 208.691C44.66 220.994 40.1314 234.355 28.6737 240.709C24.8469 242.827 28.266 248.662 32.0928 246.544C55.4385 233.611 52.4721 203.937 53.31 181.496C54.2892 158.15 62.6673 135.712 77.2444 117.393C85.2603 107.367 95.8803 96.1913 108.606 92.6088C109.45 92.3493 110.159 91.7727 110.583 91.0015C111.007 90.2304 111.113 89.3252 110.877 88.478C110.641 87.6309 110.083 86.9084 109.321 86.4639C108.559 86.0194 107.653 85.8879 106.795 86.0972V86.0296Z" fill="#2D2FEE"/>
<path d="M74.5713 172.713C74.8015 171.359 74.6906 169.969 74.2485 168.668C73.8064 167.366 73.0469 166.194 72.0374 165.254C71.0279 164.314 69.7999 163.637 68.4627 163.282C67.1256 162.928 65.7208 162.907 64.3735 163.221C58.7783 164.52 55.8904 170.206 56.0032 175.557C56.2626 181.12 58.2484 186.468 61.6887 190.869C63.2323 192.745 65.0059 194.422 66.9681 195.862C68.4555 196.762 69.6228 198.1 70.3072 199.69C71.6157 203.809 78.136 201.928 76.8274 197.899C75.5785 194.662 73.3169 191.908 70.3748 190.041C67.5515 187.858 65.3893 184.946 64.1254 181.623C62.9973 178.646 61.7113 174.101 63.8321 171.258C64.118 170.825 64.4968 170.46 64.9414 170.189C65.386 169.918 65.8855 169.748 66.4041 169.691C66.9907 169.691 68.1412 170.363 68.0284 170.922C67.8172 171.765 67.9318 172.655 68.3494 173.417C68.7671 174.18 69.4575 174.759 70.2846 175.042C71.137 175.274 72.047 175.171 72.8247 174.754C73.6023 174.337 74.1876 173.638 74.4584 172.803L74.5713 172.713Z" fill="#2D2FEE"/>
<path d="M69.8725 180.076C67.9814 188.762 69.1859 197.836 73.2773 205.728C77.3688 213.619 84.0897 219.831 92.2766 223.288C96.9987 225.213 101.474 227.696 105.607 230.684C109.461 233.665 113.516 235.682 118.512 234.785C123.184 233.54 127.449 231.09 130.879 227.681C135.225 223.96 139.504 220.172 143.806 216.474C151.737 209.571 160.139 203.251 166.591 194.869C167.004 194.109 167.109 193.22 166.884 192.385C166.658 191.55 166.12 190.834 165.381 190.386C164.606 189.961 163.698 189.85 162.843 190.075C161.989 190.3 161.253 190.845 160.788 191.596C156.106 197.67 150.079 202.22 144.344 207.285L132.962 217.192C129.644 220.398 126.127 223.392 122.433 226.157C118.601 228.689 115.084 229.518 111.231 226.807C107.785 224.145 104.103 221.804 100.23 219.814C92.68 216.34 85.7794 213.09 81.0746 205.963C78.7804 202.501 77.1918 198.621 76.3999 194.544C75.6079 190.468 75.6281 186.274 76.4593 182.205C77.3779 177.992 70.9032 176.176 69.9847 180.412L69.8725 180.076Z" fill="#2D2FEE"/>
<path d="M124.159 177.736C123.89 179.396 123.963 181.094 124.373 182.724C124.782 184.354 125.52 185.881 126.539 187.209C126.698 187.484 126.834 187.783 126.993 188.035C127.151 188.287 126.789 187.415 126.993 187.805L127.129 188.195C127.137 188.325 127.137 188.455 127.129 188.585C127.265 188.975 127.129 187.874 127.129 188.287C127.106 188.585 127.106 188.884 127.129 189.182C127.129 189.182 127.265 188.402 127.129 188.861C126.993 189.319 127.129 189.136 127.129 189.25C127.077 189.378 127.031 189.508 126.993 189.64C126.993 189.48 127.333 188.975 126.993 189.388L126.743 189.824C126.743 189.824 126.403 190.329 126.743 189.824C127.083 189.319 126.743 189.824 126.743 189.824L126.358 190.214C125.757 190.866 125.43 191.729 125.446 192.62C125.461 193.511 125.818 194.362 126.441 194.992C127.064 195.623 127.905 195.984 128.786 195.999C129.667 196.015 130.52 195.684 131.164 195.077C132.393 193.942 133.274 192.474 133.704 190.848C134.134 189.222 134.095 187.506 133.59 185.902C132.93 184.43 132.172 183.004 131.323 181.635L131.119 181.177C130.824 180.603 131.255 181.612 131.119 181.177C131.001 180.886 130.902 180.587 130.824 180.282C130.824 180.282 130.688 179.709 130.711 179.709C130.734 179.709 130.711 180.511 130.711 179.915C130.711 179.915 130.711 179.135 130.711 179.686C130.711 180.236 130.711 179.502 130.711 179.456C130.845 179.016 130.891 178.554 130.845 178.096C130.8 177.637 130.664 177.193 130.445 176.789C130.227 176.385 129.931 176.03 129.574 175.744C129.217 175.458 128.808 175.248 128.369 175.125C127.93 175.002 127.472 174.969 127.021 175.029C126.569 175.089 126.135 175.239 125.742 175.472C125.349 175.705 125.007 176.015 124.735 176.384C124.463 176.754 124.267 177.174 124.159 177.621V177.736Z" fill="#2D2FEE"/>
<path d="M92.2417 185.188C95.7379 190.069 99.5772 194.673 103.728 198.962C105.734 201.028 107.807 203.025 109.967 204.931C110.54 205.436 110.342 205.642 110.099 204.609V204.173C110.099 204.494 110.099 204.793 110.099 205.114L110.298 206.951L111.929 203.966C110.548 204.772 108.965 205.124 107.388 204.976C105.671 204.908 103.972 204.592 102.339 204.035C99.1804 203.159 96.3657 201.272 94.292 198.64C93.8456 197.988 93.4547 197.297 93.1236 196.574C93.3882 197.125 92.9251 195.954 92.9031 195.84C92.881 195.725 92.7046 195.082 92.6164 194.715C92.5283 194.347 92.6164 194.37 92.6164 194.21C92.6164 194.577 92.6164 194.577 92.6164 194.21C92.5948 193.766 92.5948 193.322 92.6164 192.878C92.5945 192.435 92.5945 191.99 92.6164 191.547C92.6164 192.258 92.7267 191.156 92.7487 191.019C92.7708 190.881 92.9692 190.284 93.0574 189.917C93.1456 189.549 93.2117 189.503 93.0574 189.917L93.322 189.32C93.5215 188.947 93.7424 188.586 93.9833 188.241C93.6085 188.769 94.248 187.942 94.3582 187.828C94.4684 187.713 95.2401 187.093 94.755 187.414L95.4605 187.024L96.7612 186.45C97.5107 185.977 98.0542 185.219 98.2764 184.337C98.4986 183.454 98.3822 182.516 97.9518 181.721C97.4867 180.953 96.7573 180.4 95.9131 180.174C95.0688 179.947 94.1734 180.066 93.4102 180.504C90.8787 181.578 88.8042 183.567 87.5678 186.106C85.9819 189.484 85.584 193.335 86.4434 196.987C88.1631 204.586 95.262 209.453 102.119 211.198C106.509 212.582 111.243 212.164 115.346 210.027C115.849 209.73 116.267 209.299 116.558 208.779C116.848 208.259 117.001 207.667 117 207.066C116.952 205.562 116.745 204.068 116.383 202.612C115.572 200.983 114.373 199.6 112.899 198.594C111.797 197.561 110.695 196.505 109.637 195.426C105.387 191.189 101.492 186.58 97.9958 181.652C97.5271 180.889 96.7978 180.339 95.9551 180.113C95.1123 179.887 94.2186 180.003 93.4542 180.436C93.074 180.664 92.7409 180.968 92.4739 181.331C92.207 181.693 92.0115 182.107 91.8988 182.549C91.7861 182.991 91.7584 183.451 91.8173 183.904C91.8761 184.357 92.0203 184.793 92.2417 185.188V185.188Z" fill="#2D2FEE"/>
<path d="M90.4806 220.528C89.7793 225.128 88.6314 229.648 87.0536 234.023C86.775 234.924 86.2562 235.732 85.5535 236.358C84.8507 236.985 83.9908 237.406 83.0667 237.577L74.8688 240.209C69.6276 241.94 64.3865 243.92 59.0108 245.247C54.3296 246.416 49.5363 247.136 44.8774 248.396C25.346 253.681 14.3708 271.54 6.9345 289.151C2.27562 300.217 -1.57688 311.642 -7.60206 322.034C-8.01275 322.804 -8.10996 323.704 -7.87315 324.545C-7.63635 325.385 -7.08404 326.101 -6.33244 326.541C-5.58085 326.981 -4.68856 327.111 -3.84338 326.904C-2.9982 326.697 -2.26606 326.168 -1.80094 325.43C8.52473 307.549 12.3773 286.002 25.4132 269.673C28.3907 265.824 31.9238 262.443 35.8956 259.641C40.0028 257.015 44.5596 255.177 49.3347 254.221C54.2176 253.096 59.19 252.332 64.0056 250.87C69.2693 249.295 74.4881 247.428 79.6845 245.697C84.881 243.965 90.3462 242.998 92.7429 237.712C94.8303 232.785 96.2321 227.593 96.9089 222.283C97.1085 221.419 96.9774 220.512 96.5417 219.741C96.106 218.97 95.3976 218.392 94.5571 218.122C93.7139 217.889 92.8135 217.993 92.0451 218.412C91.2767 218.832 90.6998 219.534 90.4358 220.371L90.4806 220.528Z" fill="#2D2FEE"/>
<path d="M135.463 218.505C134.637 223.991 134.659 228.953 137.696 233.778C141.046 239.104 146.74 243.11 151.675 246.82C161.846 254.417 173.047 260.467 184.926 264.779C188.99 266.281 190.754 259.681 186.712 258.201C176.418 254.406 166.657 249.249 157.682 242.86C153.203 239.809 149.016 236.334 145.177 232.481C143.666 230.904 142.575 228.96 142.008 226.832C141.441 224.705 141.418 222.465 141.939 220.326C142.142 219.446 142.007 218.521 141.563 217.738C141.119 216.956 140.399 216.375 139.55 216.115C138.691 215.884 137.778 216.004 137.006 216.451C136.233 216.898 135.664 217.635 135.419 218.505H135.463Z" fill="#2D2FEE"/>
<path d="M138.246 236.193C137.405 243.723 137.112 251.304 137.371 258.875C137.371 261.764 138.492 265.906 137.146 268.593C135.8 271.28 132.233 273.452 129.9 275.31C119.512 283.573 108.294 291.633 104.166 304.866C102.887 309.009 109.371 310.778 110.672 306.658C114.935 292.999 128.486 285.543 138.694 276.743C141.121 274.93 142.949 272.435 143.944 269.578C144.518 266.226 144.579 262.806 144.124 259.435C143.847 251.685 144.132 243.925 144.976 236.216C145.448 231.917 138.694 231.939 138.246 236.216V236.193Z" fill="#2D2FEE"/>
<path d="M72.5347 246.944L83.0015 262.628C86.4354 267.38 89.4003 272.467 91.8531 277.815C94.066 283.306 95.0396 289.25 97.0976 294.81C99.1042 300.272 101.663 305.506 104.732 310.426C106.945 314.087 112.787 310.697 110.463 307.014C107.402 302.176 104.893 296.998 102.984 291.578C100.992 285.883 99.9523 279.894 97.5623 274.334C95.184 269.171 92.3391 264.246 89.0648 259.622L78.3102 243.531C75.9203 239.938 70.1669 243.328 72.579 246.944H72.5347Z" fill="#2D2FEE"/>
<path d="M140.486 165.908C143.586 165.536 146.606 164.646 149.425 163.274L151.28 162.449L151.749 162.243C152.196 162.037 151.213 162.472 151.749 162.243L152.688 161.854C153.966 161.322 155.291 160.915 156.644 160.639C157.477 160.364 158.175 159.77 158.591 158.98C159.008 158.191 159.111 157.267 158.878 156.401C158.596 155.557 158.014 154.852 157.248 154.427C156.482 154.003 155.588 153.89 154.744 154.11C151.977 154.818 149.289 155.816 146.721 157.089L145.917 157.455C145.559 157.615 145.604 157.592 145.917 157.455L145.47 157.661C144.844 157.913 144.218 158.165 143.593 158.371C142.964 158.597 142.322 158.781 141.671 158.921C141.358 158.921 141.023 159.059 140.687 159.127H140.844H140.352C139.47 159.151 138.631 159.52 138.007 160.159C137.383 160.799 137.023 161.66 137 162.564C137.006 163.473 137.361 164.344 137.988 164.987C138.616 165.63 139.465 165.994 140.352 166L140.486 165.908Z" fill="#2D2FEE"/>
<path d="M110.202 154.69C109.085 157.207 107.74 159.593 106.186 161.813L106.665 161.105L105.916 162.156C105.35 162.811 105.024 163.673 105 164.575C105.001 165.483 105.33 166.354 105.916 166.995C106.503 167.634 107.294 167.994 108.121 168C108.531 168.002 108.937 167.914 109.316 167.742C109.695 167.569 110.038 167.316 110.327 166.995C112.392 164.288 114.158 161.322 115.591 158.16C115.992 157.351 116.103 156.407 115.903 155.512C115.684 154.65 115.169 153.913 114.467 153.457C113.741 153.005 112.882 152.883 112.074 153.115C111.285 153.349 110.612 153.915 110.202 154.69V154.69Z" fill="#2D2FEE"/>
<path d="M154.11 156.026C152.73 157.537 151.212 158.93 149.785 160.393C148.13 161.969 146.677 163.753 145.46 165.705C145.006 166.517 144.882 167.48 145.115 168.386C145.347 169.291 145.918 170.067 146.703 170.544C147.497 170.998 148.432 171.118 149.311 170.881C150.19 170.643 150.945 170.066 151.419 169.27C151.658 168.841 151.927 168.43 152.224 168.042L151.695 168.774C153.834 165.917 156.595 163.651 158.988 161.031C159.619 160.356 159.98 159.463 160 158.528C159.989 157.591 159.627 156.695 158.988 156.026C158.338 155.368 157.462 155 156.549 155C155.636 155 154.76 155.368 154.11 156.026V156.026Z" fill="#2D2FEE"/>
<path d="M124.763 54.8238C122.066 46.9087 119.595 38.927 117.442 30.8563C115.628 23.964 114.404 16.3158 119.89 10.6686C123.086 7.3558 130.18 4.35428 134.034 8.55637C136.3 10.9576 135.099 15.2263 134.645 18.0055C134.041 21.9037 133.248 25.7649 132.265 29.589C130.084 38.341 127.008 46.8549 123.086 55.0016L126.939 53.4676L122.406 52.4893C118.144 51.5555 116.331 57.9809 120.615 58.9147L125.148 59.8929C125.87 60.0749 126.632 60.0239 127.322 59.7476C128.012 59.4713 128.593 58.9843 128.979 58.3588C133.244 49.5693 136.586 40.3766 138.952 30.923C140.108 26.1873 141.015 21.385 141.695 16.5604C142.261 12.3583 142.307 8.0228 139.428 4.55441C134.895 -1.02614 125.828 -1.07064 119.958 2.21988C116.277 4.3561 113.299 7.48441 111.378 11.2327C109.457 14.9811 108.675 19.1917 109.123 23.3637C109.807 28.8032 111.029 34.1644 112.772 39.3716C114.45 45.1523 116.263 50.9107 118.212 56.6024C119.595 60.6488 126.146 58.8924 124.763 54.8238Z" fill="#2D2FEE"/>
<path d="M118.051 73.0529L117.848 72.8235L118.368 73.5115C118.165 73.2242 117.991 72.9169 117.848 72.5942L118.187 73.4198C117.996 72.9576 117.867 72.4717 117.803 71.9748L117.938 72.8694C117.859 72.2604 117.859 71.6435 117.938 71.0345L117.803 71.9519C117.91 71.308 118.084 70.6775 118.323 70.0712L117.984 70.8969C118.215 70.3361 118.511 69.805 118.865 69.3143L118.345 70.0253C118.636 69.6429 118.969 69.2964 119.34 68.9932L118.662 69.5436C118.963 69.2968 119.298 69.096 119.656 68.9473L118.842 69.2914C119.278 69.1132 119.733 68.99 120.198 68.9244H119.294C119.797 68.867 120.305 68.867 120.809 68.9244L119.927 68.7868C120.469 68.8833 120.999 69.037 121.509 69.2455L120.695 68.9014C121.172 69.1104 121.62 69.3802 122.029 69.7042L121.328 69.1538C121.67 69.4319 121.981 69.7472 122.255 70.0941L121.712 69.3831C121.974 69.7384 122.194 70.1232 122.368 70.5299L122.029 69.7042C122.182 70.103 122.288 70.5188 122.345 70.9428L122.21 70.0253C122.255 70.4523 122.255 70.8828 122.21 71.3098L122.345 70.3923C122.264 70.9525 122.112 71.4999 121.893 72.0208L122.232 71.195C122.025 71.6732 121.768 72.127 121.464 72.5482L121.984 71.8602C121.645 72.3148 121.25 72.7234 120.809 73.0759L121.486 72.5253C121.118 72.8178 120.715 73.0643 120.289 73.2593L121.102 72.9153C120.664 73.0905 120.21 73.221 119.746 73.3052L120.65 73.1676H120.379L121.283 73.3052L116.537 71.9978C116.107 71.8773 115.658 71.844 115.215 71.8998C114.772 71.9556 114.344 72.0995 113.955 72.3231C113.567 72.5468 113.226 72.8459 112.952 73.2033C112.678 73.5607 112.475 73.9693 112.356 74.4061C112.238 74.8428 112.205 75.299 112.26 75.7486C112.315 76.1982 112.457 76.6324 112.677 77.0264C112.897 77.4204 113.192 77.7665 113.544 78.045C113.896 78.3234 114.299 78.5288 114.729 78.6493C116.266 79.0621 117.803 79.5208 119.362 79.9108C120.325 80.0653 121.308 80.0188 122.252 79.7743C123.197 79.5298 124.082 79.0924 124.854 78.4887C126.659 77.2049 127.994 75.3497 128.65 73.2135C129.226 71.2416 129.087 69.1254 128.258 67.2486C127.429 65.3719 125.965 63.8589 124.13 62.984C122.238 62.0745 120.113 61.7859 118.051 62.1582C116.091 62.5695 114.351 63.7058 113.17 65.3464C111.766 67.1002 111 69.2909 111 71.5505C111 73.8101 111.766 76.0009 113.17 77.7548C113.809 78.3935 114.669 78.7515 115.566 78.7515C116.462 78.7515 117.323 78.3935 117.961 77.7548C118.547 77.1214 118.88 76.2899 118.897 75.4214C118.914 74.5529 118.612 73.709 118.051 73.0529Z" fill="#2D2FEE"/>
</svg>
