<svg width="141" height="140" viewBox="0 0 141 140" fill="none" xmlns="http://www.w3.org/2000/svg">
<g clip-path="url(#clip0)">
<path d="M124.675 62.4609C122.725 67.0875 120.677 71.6881 118.846 76.365C115.595 84.6386 107.783 88.7986 100.041 88.855C96.9321 88.8757 93.9147 88.3086 91.0564 87.104C82.1035 83.3467 73.0924 79.6902 64.218 75.7467C57.5336 72.7732 53.1775 67.6184 51.5443 60.3861C50.6897 56.5816 51.0932 52.8378 52.6116 49.2349C56.6287 39.7027 60.6402 30.1837 64.6573 20.6514C67.9349 12.8741 74.0153 9.03333 82.2327 8.3319C85.8019 8.03561 89.2538 8.72321 92.5698 10.105C101.251 13.7635 109.968 17.3745 118.616 21.1128C125.334 24.0065 129.871 28.9556 131.733 36.1279C132.769 40.1339 132.418 44.0877 130.804 47.9166C128.765 52.7558 126.72 57.6084 124.675 62.4609ZM63.6522 36.7447C61.596 41.6238 59.5455 46.4897 57.4893 51.3688C56.5704 53.5491 56.2128 55.8094 56.5641 58.1336C57.4838 64.2355 60.9669 68.4901 66.4848 70.925C75.3495 74.8174 84.3171 78.5026 93.2623 82.241C95.4559 83.1655 97.7735 83.6099 100.152 83.5007C106.637 83.1963 111.386 80.36 113.959 74.1801C117.884 64.7185 121.901 55.2961 125.879 45.8569C127.005 43.1847 127.279 40.4191 126.604 37.5987C125.289 32.1754 121.918 28.3597 116.889 26.1775C108.026 22.3173 99.0907 18.63 90.1777 14.8895C88.2766 14.0883 86.2795 13.7007 84.2178 13.6147C78.5578 13.3743 72.067 16.0714 69.4167 22.9546C67.6377 27.6218 65.5851 32.158 63.6522 36.7447Z" fill="#2D2FEE"/>
<path d="M85.8498 62.6933C77.2748 59.0796 73.2413 49.3328 76.8137 40.8186C80.3301 32.4373 90.1875 28.5131 98.7094 32.1044C107.263 35.6936 111.318 45.465 107.773 53.9127C104.221 62.3415 94.4039 66.2825 85.8498 62.6933ZM87.9228 57.7743C93.7591 60.2339 100.459 57.562 102.866 51.8131C105.25 46.1174 102.478 39.4697 96.6686 37.0214C90.8322 34.5618 84.1174 37.1959 81.7026 42.9258C79.2956 48.6747 82.0808 55.328 87.9228 57.7743Z" fill="#2D2FEE"/>
<path d="M117.963 34.7385C119.758 35.4949 120.576 37.6401 119.786 39.5146C118.982 41.3836 116.868 42.2773 115.079 41.5076C113.316 40.7492 112.506 38.6229 113.279 36.7882C114.056 34.9081 116.168 33.9822 117.963 34.7385Z" fill="#2D2FEE"/>
</g>
<rect x="2" y="26.079" width="57.8433" height="114.411" transform="rotate(-12.6311 2 26.079)" fill="white" stroke="#2D2FEE" stroke-width="3" stroke-linecap="round" stroke-linejoin="round"/>
<circle cx="23.212" cy="39.438" r="9.11335" transform="rotate(-19.3515 23.212 39.438)" fill="#2D2FEE"/>
<line x1="34.3249" y1="29.2877" x2="49.7571" y2="25.3721" stroke="#2D2FEE" stroke-width="2" stroke-linecap="round" stroke-linejoin="round"/>
<line x1="18.0745" y1="55.8491" x2="26.7048" y2="53.922" stroke="#2D2FEE" stroke-width="2" stroke-linecap="round" stroke-linejoin="round"/>
<line x1="33.4534" y1="52.0119" x2="42.0837" y2="50.0849" stroke="#2D2FEE" stroke-width="2" stroke-linecap="round" stroke-linejoin="round"/>
<line x1="48.8049" y1="48.1748" x2="57.4353" y2="46.2477" stroke="#2D2FEE" stroke-width="2" stroke-linecap="round" stroke-linejoin="round"/>
<rect x="18.3047" y="66.912" width="17.2674" height="14.3895" transform="rotate(-12.0275 18.3047 66.912)" fill="white" stroke="#2D2FEE" stroke-width="2" stroke-linejoin="round"/>
<rect x="42.2891" y="61.1561" width="17.2674" height="14.3895" transform="rotate(-12.0275 42.2891 61.1561)" fill="white" stroke="#2D2FEE" stroke-width="2" stroke-linejoin="round"/>
<rect x="48.0469" y="82.2607" width="17.2674" height="14.3895" transform="rotate(-12.0275 48.0469 82.2607)" fill="white" stroke="#2D2FEE" stroke-width="2" stroke-linejoin="round"/>
<rect x="23.1016" y="88.0166" width="17.2674" height="14.3895" transform="rotate(-12.0275 23.1016 88.0166)" fill="white" stroke="#2D2FEE" stroke-width="2" stroke-linejoin="round"/>
<line x1="23.7344" y1="125.164" x2="79.3738" y2="112.693" stroke="#2D2FEE" stroke-width="3"/>
<defs>
<clipPath id="clip0">
<rect width="73.8661" height="73.8661" fill="white" transform="translate(71.9336) rotate(22.8517)"/>
</clipPath>
</defs>
</svg>
