<svg width="38" height="38" viewBox="0 0 38 38" fill="none" xmlns="http://www.w3.org/2000/svg">
<path d="M37.4809 19.0741C37.4809 21.657 37.4289 24.2472 37.4957 26.83C37.607 31.4019 34.7348 34.9347 31.0758 36.5081C29.6063 37.139 28.0625 37.473 26.4668 37.473C21.4719 37.4804 16.4695 37.5472 11.4746 37.4507C7.71172 37.3765 4.6168 35.8031 2.39766 32.7007C1.23242 31.0679 0.675781 29.2124 0.675781 27.2011C0.675781 21.8796 0.675781 16.5656 0.675781 11.2441C0.675781 6.90227 2.79102 3.86673 6.54648 1.89251C8.1793 1.03899 9.95312 0.675319 11.8012 0.667897C16.6477 0.667897 21.5016 0.638209 26.348 0.682741C30.1109 0.712428 33.2504 2.15227 35.566 5.1804C36.8574 6.87258 37.4809 8.81712 37.4809 10.9546C37.4809 13.6562 37.4809 16.3652 37.4809 19.0741ZM3.41445 19.0741C3.41445 21.798 3.41445 24.5144 3.41445 27.2382C3.41445 28.4554 3.69648 29.5984 4.32734 30.63C5.98242 33.339 8.48359 34.6601 11.5859 34.712C16.566 34.7863 21.5535 34.7417 26.541 34.7269C27.7656 34.7269 28.9531 34.4745 30.059 33.9476C33.0723 32.5077 34.757 30.2144 34.7422 26.7706C34.7125 21.5011 34.7348 16.2316 34.7348 10.962C34.7348 9.47024 34.3117 8.10462 33.4285 6.90227C31.7215 4.59407 29.3613 3.45852 26.541 3.42883C21.5684 3.36946 16.5957 3.40657 11.623 3.41399C10.5617 3.41399 9.5375 3.62923 8.54297 4.00032C5.81172 5.01712 3.27344 7.59251 3.39219 11.3851C3.48125 13.9531 3.41445 16.5136 3.41445 19.0741Z" fill="white"/>
<path d="M19.1227 26.9404C14.3356 26.9404 10.4762 23.1256 10.4688 18.3756C10.4613 13.6998 14.3504 9.87013 19.1078 9.87013C23.8801 9.86271 27.7543 13.685 27.7617 18.3979C27.7617 23.1033 23.8949 26.933 19.1227 26.9404ZM19.1227 24.1943C22.3809 24.1943 25.0231 21.5893 25.0156 18.383C25.0082 15.2065 22.366 12.6088 19.1227 12.6088C15.8645 12.6088 13.2074 15.199 13.2074 18.3979C13.2149 21.6041 15.8645 24.2018 19.1227 24.1943Z" fill="white"/>
<path d="M28.7602 7.27344C29.7622 7.27344 30.5786 8.12695 30.5786 9.17344C30.5711 10.2199 29.7473 11.066 28.7454 11.0586C27.7583 11.0512 26.9493 10.2051 26.9493 9.18086C26.9418 8.13437 27.7583 7.27344 28.7602 7.27344Z" fill="white"/>
</svg>
