<svg width="194" height="184" viewBox="0 0 194 184" fill="none" xmlns="http://www.w3.org/2000/svg">
<path d="M101.568 64.6651C100.143 63.0602 98.3898 61.7799 96.4273 60.9105C94.4649 60.0412 92.3388 59.6031 90.1924 59.6257C88.0461 59.6484 85.9294 60.1312 83.9854 61.0418C82.0413 61.9524 80.3149 63.2694 78.923 64.904C77.5832 66.4914 76.6013 68.3489 76.0442 70.3499C75.9014 71.4678 75.4991 72.5369 74.8695 73.4717C74.1605 74.0657 73.2622 74.3858 72.3375 74.374C68.4042 74.6414 64.6003 72.3848 60.6872 73.9874C56.7742 75.59 56.0097 80.055 55.7983 84.0157C55.9011 86.0143 55.4315 88.0009 54.4448 89.7421C53.3689 91.0598 52.0486 92.157 50.5563 92.9733C47.5468 94.879 44.1778 96.571 42.4809 99.8896C40.784 103.208 41.8953 107.143 42.8409 110.686C43.3267 112.528 43.8695 114.643 43.0609 116.48C42.0734 118.764 39.547 120.092 37.5826 121.4C33.793 123.931 30.1955 127.87 31.7235 132.729C32.5076 135.196 36.2289 133.7 35.4518 131.25C34.2732 127.505 39.9146 124.769 42.2191 123.113C45.4459 120.805 47.6618 117.769 47.4484 113.713C47.2713 110.415 45.4898 107.356 45.5216 104.046C45.5535 100.737 48.3992 99.0082 50.9017 97.4663C53.8107 95.692 56.8707 93.9392 58.481 90.7873C60.2362 87.3336 59.1197 83.411 60.2728 79.901C61.5463 76.0787 66.3811 77.8044 69.2934 78.2471C72.6657 78.7721 76.6926 78.3556 78.5912 75.1096C79.7728 73.0842 79.8176 70.6547 81.1133 68.6349C82.2578 66.845 83.886 65.4161 85.8091 64.5138C87.8966 63.6028 90.2147 63.3608 92.4449 63.8212C94.6752 64.2815 96.7079 65.4217 98.2637 67.0847C100.003 68.9591 103.252 66.6026 101.493 64.7053L101.568 64.6651Z" fill="#2D2FEE"/>
<path d="M95.9759 47.5691C94.4216 46.5967 92.6749 45.9727 90.8562 45.7401C89.0375 45.5074 87.19 45.6717 85.4406 46.2215C81.796 47.3716 79.5018 50.1842 77.6158 53.3336C75.7297 56.483 73.8991 59.8749 69.7345 60.5088C65.9495 61.0735 62.2422 60.9867 58.5637 62.2826C56.8297 62.8311 55.2256 63.7276 53.8495 64.9171C52.4735 66.1067 51.3542 67.5642 50.5604 69.2009C49.7322 71.1168 49.4684 73.3786 47.9231 74.897C46.6151 76.0009 45.1597 76.9171 43.5989 77.6192C40.3651 79.3697 37.7325 81.482 36.8386 85.2352C36.0087 88.7391 37.0031 92.4049 36.2277 95.9177C35.5868 97.9993 34.3475 99.8462 32.6643 101.228C30.792 102.977 29.0583 104.869 27.4788 106.887C24.546 110.877 22.3786 115.376 21.0864 120.157C20.4091 122.634 24.3873 123.173 25.0715 120.714C26.2066 116.617 28.0934 112.766 30.6357 109.359C33.0101 106.159 36.4321 103.804 38.5716 100.473C40.5469 97.4205 40.5509 94.0406 40.4922 90.5024C40.4334 86.9642 40.6886 84.1155 43.7758 82.0976C46.4091 80.3207 49.484 79.3762 51.519 76.8597C53.9067 73.8981 53.697 69.799 57.0311 67.4797C62.953 63.3201 71.306 66.5812 76.6864 61.517C79.5615 58.8098 80.7142 54.8625 83.4281 52.0564C84.7197 50.7506 86.4046 49.9055 88.2233 49.6514C90.042 49.3972 91.8935 49.7481 93.493 50.6499C93.9158 50.9661 94.4429 51.1102 94.9678 51.0531C95.4927 50.996 95.9765 50.7419 96.3217 50.3422C96.6497 49.9256 96.8008 49.3967 96.7424 48.8697C96.684 48.3427 96.4207 47.8598 96.0095 47.5253L95.9759 47.5691Z" fill="#2D2FEE"/>
<path d="M106.911 49.7456C110.326 45.654 116.527 44.8946 121.145 47.1536C124.135 48.6647 125.269 51.5017 127.179 54.0618C129.38 57.025 132.585 58.4102 136.033 59.2305C139.482 60.0507 143.079 60.4253 146.083 62.5108C148.754 64.3411 150.785 66.9624 151.891 70.0068C153.828 75.4356 151.74 81.7483 155.04 86.7895C157.149 90.0335 161.641 90.4301 163.504 93.7717C165.147 96.7122 164.859 100.479 164.641 103.68C164.466 106.242 168.456 106.786 168.609 104.243C169.03 100.795 168.791 97.2982 167.905 93.9396C166.716 90.2188 164.082 88.4243 160.856 86.6508C157.767 84.9655 157.209 82.0424 156.974 78.7777C156.738 75.513 156.891 72.2266 155.815 69.0209C154.696 65.6863 152.688 62.7212 150.006 60.4462C146.946 58.0375 143.311 56.4664 139.46 55.8872C137.571 55.5749 135.717 55.0762 133.925 54.3984C132.056 53.5474 130.514 52.1134 129.529 50.3112C127.946 47.3767 125.532 44.9746 122.591 43.4056C119.473 41.9044 115.951 41.4615 112.558 42.1439C109.165 42.8264 106.087 44.5969 103.791 47.1871C102.134 49.1672 105.274 51.6766 106.92 49.6912L106.911 49.7456Z" fill="#2D2FEE"/>
<path d="M178.75 92.8851C175.927 82.54 172.798 72.2719 169.364 62.0807C168.815 60.0377 167.848 58.1308 166.525 56.4805C164.723 54.7613 162.556 53.4709 160.187 52.7054C155.53 50.838 150.616 49.0927 146.819 45.6732C143.376 42.5815 141.3 38.2151 136.888 36.2201C132.475 34.2252 127.651 34.734 123.098 34.8503C118.395 34.898 113.703 35.306 109.063 36.0709C106.885 36.45 104.736 36.9824 102.633 37.6641C101.114 38.3181 99.5444 38.8486 97.9401 39.2503C95.6363 39.6245 93.0519 40.4459 90.837 39.4009C87.2177 37.8836 83.2259 37.4884 79.3789 38.2665C75.5571 38.9799 72.0468 40.8515 69.3239 43.6275C65.8903 46.8513 62.7888 50.5538 58.4789 52.6699C54.5489 54.615 50.4965 54.7872 46.2616 55.449C42.3711 56.0556 38.6412 57.5041 36.643 61.1152C34.6448 64.7262 35.336 69.2958 33.8126 73.2578C32.5461 76.5584 29.2631 77.7483 26.2556 79.0427C22.6959 80.5357 19.0752 82.4395 17.8189 86.3567C16.4651 90.567 19.0778 95.6466 16.6715 99.4602C15.2162 101.361 13.4367 102.99 11.4149 104.272C9.43405 105.671 7.68845 107.376 6.24359 109.324C3.44592 113.373 2.33828 118.354 3.15639 123.207C3.60301 125.747 7.59132 125.285 7.13774 122.727C6.76983 120.682 6.83712 118.583 7.33517 116.565C7.83321 114.548 8.75082 112.658 10.0282 111.019C12.5908 107.754 16.5835 105.967 19.2689 102.755C21.9543 99.5429 21.779 95.6337 21.4569 91.5589C21.1898 89.9133 21.4127 88.2253 22.0979 86.7053C22.8613 85.5167 23.9476 84.5705 25.2295 83.9777C28.1379 82.4073 31.453 81.5811 34.0996 79.5039C37.3271 76.9927 38.242 73.2924 38.7938 69.4204C39.3456 65.5485 39.7113 61.669 43.8032 60.1583C47.2461 58.9355 50.9916 59.17 54.4929 58.3514C58.748 57.3621 62.6964 55.3457 65.9931 52.4783C69.2568 49.6476 72.0517 45.7105 75.854 43.6227C79.1154 42.0396 82.7976 41.5422 86.3615 42.2034C88.1028 42.4897 89.4802 43.4496 91.1615 43.8412C92.353 44.0697 93.5776 44.0645 94.7673 43.8257C97.2677 43.5796 99.7297 43.0339 102.1 42.2001C106.306 40.6114 110.72 39.6425 115.205 39.3236C119.532 38.9204 123.955 38.7335 128.277 38.7799C130.701 38.6567 133.123 39.0528 135.381 39.9416C137.333 41.0026 139.014 42.4976 140.297 44.3113C141.769 46.2495 143.444 48.0243 145.294 49.6054C147.507 51.3085 149.918 52.7374 152.474 53.8608C154.93 54.9223 157.336 55.8607 159.771 56.8694C162.205 57.8781 163.984 59.0552 165.017 61.5863C167.108 66.8628 168.623 72.357 170.283 77.7534C171.943 83.1498 173.596 88.8642 175.139 94.4289C175.828 96.9133 179.55 95.4172 178.873 92.9382L178.75 92.8851Z" fill="#2D2FEE"/>
<path d="M99.3566 68.0966C104.633 71.6313 109.822 67.1111 115.367 68.138C116.664 68.398 117.896 68.9138 118.992 69.6552C120.087 70.3965 121.024 71.3486 121.748 72.456C123.253 74.739 123.163 77.5425 123.927 80.0886C124.346 81.4728 125.089 82.7367 126.095 83.7751C127.101 84.8135 128.341 85.5962 129.711 86.0579C132.642 87.1647 135.69 87.5639 138.304 89.4374C140.732 91.1433 142.622 93.5078 143.751 96.2524C144.781 99.2137 145.165 102.362 144.875 105.484C144.652 111.83 144.522 119.412 150.351 123.491C152.464 124.973 154.98 121.849 152.867 120.366C147.726 116.686 148.83 109.482 148.895 104.073C148.978 97.8124 147.26 92.1137 142.585 87.7604C140.426 85.7873 137.845 84.3328 135.039 83.5074C132.133 82.6449 128.689 82.2198 127.7 78.8773C126.891 76.166 126.882 73.422 125.436 70.902C124.074 68.5889 122.078 66.7145 119.684 65.5002C116.983 64.1307 113.9 63.7117 110.931 64.3107C108.305 64.8228 104.354 66.7151 101.871 65.044C99.7489 63.6164 97.22 66.7357 99.3669 68.1739L99.3566 68.0966Z" fill="#2D2FEE"/>
<path d="M52.6676 92.1662C52.7146 100.67 55.2707 108.97 60.0153 116.026C64.7599 123.082 71.4818 128.579 79.3383 131.828C95.8419 138.481 115.166 132.375 126.429 118.995C129.641 115.193 132.094 110.811 133.656 106.086C135.447 99.9466 136.404 93.5945 136.501 87.2006C136.617 84.6414 132.637 84.0725 132.534 86.637C132.108 96.0149 131.016 105.586 125.579 113.511C121.028 120.043 114.638 125.074 107.222 127.965C99.8231 130.969 91.6344 131.42 83.9518 129.245C76.6201 126.961 70.1397 122.536 65.3444 116.537C59.8035 109.848 56.7424 101.45 56.6788 92.7634C56.7197 92.2435 56.5633 91.7275 56.2408 91.3179C55.9183 90.9083 55.4533 90.6354 54.9385 90.5534C54.4183 90.4972 53.8966 90.6464 53.4847 90.9694C53.0729 91.2924 52.8035 91.7636 52.734 92.2823L52.6676 92.1662Z" fill="#2D2FEE"/>
<path d="M88.9471 112.601L89.4223 112.311C89.787 112.092 90.0519 111.739 90.1605 111.328C90.2691 110.917 90.2128 110.479 90.0036 110.109C89.7944 109.738 89.4488 109.464 89.0405 109.345C88.6322 109.226 88.1934 109.271 87.8177 109.47C87.4419 109.67 87.1589 110.008 87.0289 110.413C86.8989 110.818 86.9322 111.258 87.1217 111.639C87.3111 112.02 87.6418 112.312 88.0432 112.452C88.4447 112.593 88.8852 112.571 89.2709 112.392C89.3323 112.418 89.4398 112.304 89.5331 112.257C89.8335 112.102 90.1444 111.969 90.4635 111.858C90.7976 111.725 91.1526 111.645 91.4815 111.525C91.3461 111.569 91.0614 111.62 91.3813 111.555L91.5887 111.513L92.1581 111.409C92.4972 111.367 92.831 111.336 93.1718 111.323L93.4529 111.313C93.7216 111.298 93.3546 111.271 93.2667 111.306L93.8374 111.334C94.1772 111.352 94.5155 111.391 94.8504 111.451L95.3963 111.57L95.6049 111.661C96.0244 111.769 95.1384 111.459 95.5313 111.629C96.024 111.818 96.5682 111.826 97.0663 111.651C97.5593 111.453 97.9552 111.069 98.1692 110.583C98.5621 109.674 98.1961 108.262 97.124 107.944C95.3651 107.375 93.5012 107.207 91.6686 107.452C89.8442 107.721 88.1004 108.385 86.5583 109.397C86.1547 109.717 85.8887 110.179 85.8146 110.689C85.7404 111.199 85.8638 111.718 86.1595 112.14C86.4833 112.538 86.9449 112.8 87.4528 112.874C87.9607 112.947 88.4778 112.828 88.9017 112.538L88.9471 112.601Z" fill="#2D2FEE"/>
<path d="M81.3183 84.5097C75.9837 82.5243 69.5207 82.9808 65.0332 86.7547C60.5458 90.5286 58.4354 96.7586 60.7027 102.199C61.7241 104.743 63.5761 106.867 65.9575 108.225C68.3389 109.582 71.1097 110.094 73.8193 109.677C76.6538 109.197 79.3134 107.982 81.5328 106.154C83.7523 104.326 85.4541 101.948 86.4689 99.2572C87.4977 96.1898 87.3528 92.85 86.0621 89.8839C85.0946 87.6727 82.6419 83.6389 79.7833 84.4875C79.2937 84.6895 78.9021 85.0745 78.6919 85.5608C78.4817 86.047 78.4695 86.596 78.6578 87.0911C78.8666 87.5781 79.254 87.9666 79.7403 88.1768C80.2266 88.387 80.775 88.403 81.2728 88.2215L81.4732 88.1624L79.479 87.8542C80.9711 88.9515 82.089 90.4819 82.6807 92.2372C83.2723 93.9926 83.309 95.8878 82.7858 97.665C82.0841 99.6322 80.8972 101.39 79.3351 102.776C77.773 104.163 75.8864 105.132 73.8501 105.594C72.0677 106.035 70.1879 105.852 68.5246 105.075C66.8612 104.297 65.5148 102.973 64.71 101.322C63.9004 99.5169 63.6721 97.5041 64.057 95.563C64.4419 93.6218 65.4208 91.8482 66.8582 90.488C70.1657 87.1515 75.4734 86.6036 79.7256 88.194C82.1604 89.1008 83.7531 85.4165 81.3183 84.5097Z" fill="#2D2FEE"/>
<path d="M88.0296 97.8032C88.5179 97.5807 89.0194 97.3885 89.5314 97.228L89.7441 97.1742L89.9568 97.1204C90.2302 97.0505 90.5071 96.995 90.7863 96.9542C91.3192 96.8714 91.8566 96.8214 92.3956 96.8046L92.7663 96.7899C93.0964 96.8014 92.4905 96.7873 92.7663 96.7899L93.6144 96.8504C94.1155 96.8972 94.6136 96.9714 95.1066 97.0728L95.5681 97.1848C95.5681 97.1848 95.961 97.3547 95.7523 97.2645L96.0592 97.3971L96.403 97.5458C96.9069 97.7272 97.3989 97.9398 97.8762 98.1826L98.22 98.3313L98.4901 98.448L98.6866 98.5329L99.0721 98.7871C99.2761 98.9616 99.513 99.0934 99.7689 99.1747C100.025 99.256 100.294 99.285 100.562 99.2602C100.829 99.2354 101.089 99.1571 101.325 99.0301C101.562 98.9031 101.771 98.7299 101.939 98.5207C102.108 98.3115 102.232 98.0708 102.306 97.8125C102.38 97.5543 102.401 97.2839 102.368 97.0173C102.335 96.7508 102.25 96.4935 102.116 96.2608C101.982 96.028 101.803 95.8246 101.589 95.6624C99.4317 94.1498 96.9244 93.2125 94.304 92.9393C91.6837 92.6661 89.0368 93.0659 86.6137 94.101C86.1177 94.2963 85.7195 94.6807 85.5068 95.1697C85.2941 95.6586 85.2842 96.2119 85.4794 96.708C85.6746 97.2041 86.0588 97.6023 86.5476 97.815C87.0363 98.0276 87.5896 98.0373 88.0856 97.842L88.0296 97.8032Z" fill="#2D2FEE"/>
<path d="M112.515 86.9033C110.029 87.2168 107.688 88.2442 105.773 89.8612C103.859 91.4782 102.454 93.6155 101.728 96.0143C100.936 98.5726 100.969 101.315 101.822 103.853C102.666 106.258 103.921 108.497 105.533 110.471C109.521 114.965 115.689 113.74 120.375 111.057C125.385 108.165 126.783 102.167 124.972 96.8506C123.272 92.0198 118.14 85.6906 112.373 87.0311C111.867 87.1135 111.41 87.3814 111.091 87.7825C110.772 88.1837 110.614 88.6893 110.648 89.2007C110.721 89.7106 110.987 90.1731 111.39 90.4937C111.793 90.8143 112.303 90.9687 112.817 90.9253C116.232 90.1715 119.184 94.0276 120.519 96.7036C122.05 99.902 122.433 104.411 119.298 106.875C116.766 108.856 111.888 110.77 109.071 108.386C107.734 107.013 106.7 105.375 106.036 103.576C105.652 102.828 105.353 102.038 105.145 101.223C105.04 100.221 105.103 99.2089 105.332 98.2281C105.604 96.2747 106.564 94.4826 108.041 93.1752C109.351 91.8759 111.074 91.0742 112.912 90.908C115.487 90.6804 115.008 86.6982 112.438 86.9135L112.515 86.9033Z" fill="#2D2FEE"/>
<path d="M69.0154 93.2856L68.9295 93.2484L69.4511 93.2553L69.3774 93.2235L69.9003 93.3621L70.3596 93.6481L70.2859 93.6162L70.6429 94.0037L70.5693 93.9719L70.8277 94.4189L70.7541 94.3871L70.8894 94.8829L70.8689 94.7282L70.8619 95.25C70.8791 95.1755 70.9097 95.1047 70.9522 95.0412L70.7398 95.5324C70.7608 95.4498 70.7949 95.371 70.8407 95.2991L70.6283 95.7904C70.6436 95.7247 70.6706 95.6622 70.708 95.6061L70.3327 95.9686C70.3445 95.9301 70.3605 95.8931 70.3804 95.8581L69.9388 96.1045L70.0443 96.0626L69.5539 96.1859C69.6084 96.1718 69.6647 96.1666 69.7208 96.1705L69.1992 96.1637L69.3711 96.238L68.8481 96.0994L69.0814 96.2003L68.6222 95.9143C68.7025 95.9625 68.7746 96.0232 68.8359 96.0941L68.4858 95.7241L68.6607 95.96L68.4022 95.5131C68.4582 95.6087 68.5022 95.7109 68.533 95.8174L68.3976 95.3216C68.4262 95.4283 68.4423 95.538 68.4457 95.6485L68.4527 95.1267C68.4477 95.21 68.4362 95.2928 68.4184 95.3744L68.5572 94.8512C68.5395 94.9256 68.5089 94.9962 68.4669 95.06L68.7529 94.6006C68.7106 94.6626 68.6616 94.7196 68.6066 94.7706L68.9819 94.4081C68.9361 94.4558 68.884 94.497 68.8269 94.5306L69.2686 94.2842L69.0698 94.3732L69.5655 94.2377C69.4807 94.2632 69.3922 94.2742 69.3038 94.2703L69.8254 94.2771C69.7191 94.2735 69.6136 94.2573 69.5112 94.2287L70.0287 94.3796L69.7341 94.2522L70.1864 94.5206C70.0992 94.4675 70.0191 94.4035 69.9481 94.3301L70.3105 94.7055C70.245 94.6405 70.1885 94.5671 70.1425 94.4871L70.3888 94.9288C70.3499 94.8563 70.3195 94.7796 70.2982 94.7002L70.4283 95.2082C70.4095 95.1425 70.3997 95.0745 70.399 95.0061L70.4044 95.5332L70.4362 95.4595L68.6919 97.1688L69.0556 97.1365L68.534 97.1297C68.6635 97.1297 68.7921 97.1508 68.9148 97.1923L68.3972 97.0414L68.8269 97.2271L68.3624 96.9535C68.5008 97.0395 68.6274 97.1432 68.739 97.262L68.3819 96.8745C68.4875 96.9901 68.5791 97.1177 68.6547 97.2548L68.4138 96.8008C68.4715 96.9169 68.5164 97.039 68.5478 97.1649L68.4248 96.6743C68.4539 96.7911 68.4705 96.9108 68.4745 97.0311L68.4692 96.504L68.4321 96.59L69.686 95.004L68.5522 95.3009C68.3102 95.3912 68.0926 95.5367 67.9168 95.7259C67.7155 95.9033 67.5559 96.123 67.4494 96.3693C67.3429 96.6156 67.2922 96.8824 67.3009 97.1505C67.2763 97.4086 67.3197 97.6685 67.4267 97.9045C67.626 98.3969 68.0089 98.7924 68.4944 99.0075L68.9855 99.2198C69.3336 99.2715 69.6891 99.2289 70.0151 99.0964L71.1366 98.7941C71.4548 98.6613 71.7353 98.4522 71.9535 98.1853C72.1904 97.9078 72.3384 97.5654 72.3783 97.2027C72.487 96.5711 72.4199 95.9219 72.1842 95.326C71.9377 94.783 71.5732 94.3017 71.1174 93.9173C70.8821 93.7254 70.6257 93.5608 70.3533 93.4267L69.985 93.2675C69.7039 93.1616 69.4099 93.0934 69.1109 93.0645C68.81 93.0332 68.5061 93.0442 68.2081 93.097L67.7124 93.2325C67.4638 93.3093 67.243 93.457 67.077 93.6574C66.9293 93.76 66.8127 93.9013 66.7402 94.0658C66.5743 94.281 66.4649 94.5343 66.4217 94.8026C66.3772 95.2467 66.4266 95.6952 66.5666 96.1189L66.6363 96.2947C66.7305 96.4972 66.8415 96.6915 66.9681 96.8754L67.2428 97.1837C67.3414 97.2926 67.4492 97.3928 67.565 97.4833C67.7993 97.6672 68.0576 97.8181 68.3328 97.9319C68.5461 98.0162 68.7663 98.0821 68.9908 98.1289L69.1627 98.2032C69.3841 98.2217 69.6064 98.2252 69.8283 98.2139L70.0181 98.1794C70.4551 98.1046 70.8708 97.9363 71.2368 97.6859C71.4179 97.5507 71.586 97.3989 71.7389 97.2324C71.8401 97.1092 71.931 96.9779 72.0106 96.8398C72.0744 96.6924 72.1275 96.5696 72.1859 96.4345C72.2687 96.2051 72.3317 95.9689 72.3743 95.7288C72.3949 95.4975 72.398 95.265 72.3836 95.0332L72.3597 94.8188C72.2685 94.3571 72.0937 93.9161 71.8441 93.5172C71.6787 93.2585 71.4738 93.0274 71.2369 92.8321C71.0124 92.6264 70.749 92.4678 70.4621 92.3659C70.2389 92.2785 70.0062 92.2171 69.7689 92.1829L69.4265 92.1661L69.0735 92.1738C68.9631 92.1907 68.8543 92.2167 68.7483 92.2518C68.5425 92.2926 68.3459 92.3706 68.168 92.482C68.063 92.5299 67.9637 92.5898 67.8723 92.6603C67.4946 92.9399 67.1972 93.314 67.0099 93.7451C66.9731 93.7964 66.9478 93.8551 66.9356 93.917C66.8532 94.1365 66.7896 94.3625 66.7455 94.5928C66.7166 94.8117 66.7088 95.0329 66.7222 95.2533C66.7536 95.4681 66.8035 95.6799 66.8712 95.8862C66.9045 95.9762 66.9516 96.0605 67.0109 96.136C67.0465 96.225 67.0934 96.3089 67.1506 96.3858C67.2733 96.5341 67.4093 96.671 67.5567 96.7947L67.8145 96.9061L68.0846 97.0229C68.2467 97.1081 68.4149 97.1808 68.588 97.2405C68.7853 97.2581 68.9838 97.2611 69.1816 97.2493L69.2553 97.2812C69.7727 97.2061 70.2444 96.9429 70.5802 96.5421C70.7438 96.3306 70.8515 96.0814 70.8935 95.8174C70.9882 95.5678 71.0146 95.2974 70.9698 95.0342C70.8998 94.515 70.6359 94.0416 70.2312 93.7091C70.0237 93.542 69.7847 93.4182 69.5286 93.345C69.2724 93.2718 69.0042 93.2507 68.7397 93.283L69.0154 93.2856Z" fill="#2D2FEE"/>
<path d="M114.8 98.3711L113.714 99.0968L116.748 101.516L117.194 100.485C117.303 100.239 117.354 99.9717 117.342 99.7033C117.359 99.4456 117.316 99.1874 117.216 98.9493C117.13 98.7007 116.979 98.4796 116.779 98.3085C116.613 98.1022 116.395 97.9429 116.149 97.8464L115.626 97.7078C115.28 97.6574 114.928 97.6956 114.601 97.8188L114.16 98.0652C113.872 98.2769 113.648 98.5629 113.511 98.8924L113.081 99.8871L112.93 100.405C112.884 100.662 112.905 100.927 112.99 101.175C113.008 101.347 113.073 101.512 113.179 101.649C113.285 101.888 113.451 102.096 113.661 102.252L114.152 102.464L114.631 102.671C114.889 102.717 115.154 102.696 115.401 102.61C115.657 102.57 115.899 102.463 116.103 102.301L117.189 101.576C117.409 101.426 117.588 101.222 117.707 100.983C117.886 100.776 117.997 100.519 118.025 100.246C118.075 99.9918 118.058 99.7285 117.977 99.4821C117.927 99.2243 117.817 98.982 117.656 98.775L117.306 98.405C117.021 98.1799 116.683 98.0335 116.324 97.9804L115.802 97.9735C115.46 98.0226 115.135 98.1516 114.853 98.3501L114.8 98.3711Z" fill="#2D2FEE"/>
<path d="M49.2925 136.986C48.141 135.886 47.4196 134.412 47.2582 132.827C47.1005 131.184 47.4115 129.529 48.1554 128.055C49.1802 125.728 50.6559 123.627 52.4972 121.874C54.3386 120.121 56.509 118.75 58.8831 117.841C61.2571 116.931 63.7876 116.502 66.3284 116.577C68.8692 116.652 71.3699 117.229 73.6858 118.277C80.1011 121.167 84.7441 128.392 83.3482 135.295C83.2351 136.204 82.9184 137.076 82.4217 137.846C81.925 138.615 81.2612 139.263 80.4796 139.74C79.479 140.134 78.3789 140.199 77.3391 139.925C76.2993 139.651 75.3739 139.053 74.6975 138.217C73.3865 136.501 72.6464 134.418 72.5811 132.259C72.5081 131.484 72.3585 130.516 71.6199 130.269C70.8812 130.023 69.9963 131.025 69.6074 131.79L66.5962 137.98C66.3306 138.713 65.8302 139.337 65.1731 139.755C63.7025 140.461 62.0938 138.789 61.9147 137.181C61.7355 135.573 62.2432 133.926 62.0096 132.31C61.9014 131.549 61.4704 130.692 60.7172 130.614C60.4568 130.617 60.2004 130.677 59.9656 130.79C59.7307 130.902 59.5232 131.064 59.3574 131.265C58.4257 132.35 57.6557 133.563 57.0712 134.868C56.4904 136.193 55.5023 137.297 54.2508 138.022C52.9544 138.627 51.797 138.069 50.3211 137.708L49.2925 136.986Z" fill="white"/>
<path d="M50.5527 135.417C49.9392 134.756 49.5107 133.944 49.3104 133.064C49.1101 132.185 49.145 131.267 49.4117 130.405C49.985 128.476 50.9478 126.685 52.2407 125.142C54.7436 121.977 58.2687 119.78 62.2123 118.929C69.4478 117.494 77.3091 120.747 80.3953 127.664C81.6054 130.359 82.4273 134.693 80.3694 137.229C80.1033 137.515 79.7779 137.739 79.416 137.886C79.0542 138.032 78.6646 138.098 78.2747 138.078C77.8848 138.058 77.5039 137.953 77.159 137.77C76.814 137.587 76.5133 137.331 76.2778 137.02C75.179 135.571 74.5674 133.812 74.5308 131.994C74.3185 130.328 73.6897 128.715 71.8558 128.272C71.0345 128.187 70.2079 128.371 69.4993 128.795C68.7907 129.219 68.2383 129.861 67.9245 130.625C66.937 132.37 66.1476 134.229 65.26 136.047C65.0517 136.58 64.7997 137.095 64.5068 137.587C64.1627 138.079 64.5529 137.986 64.2761 137.749C63.5913 137.176 63.7881 136.081 63.8873 135.278C64.0519 133.28 64.3054 130.94 62.6944 129.442C62.337 129.147 61.924 128.926 61.4797 128.794C61.0355 128.661 60.5691 128.619 60.1082 128.67C59.6473 128.72 59.2012 128.863 58.7965 129.09C58.3918 129.316 58.0367 129.622 57.7521 129.988C56.1431 131.654 55.6935 134.345 53.9289 135.798C53.0573 136.5 52.4756 136.059 51.51 135.933C50.3145 135.766 51.7337 136.292 51.2818 135.922C51.0558 135.737 50.784 135.59 50.5405 135.412C48.4059 133.979 45.8894 137.104 48.0187 138.549C49.3298 139.486 50.8635 140.064 52.4673 140.224C53.6011 140.26 54.7231 139.982 55.709 139.421C56.6949 138.859 57.5065 138.036 58.054 137.042C58.6895 136.078 59.1636 135.015 59.7377 134.024C60.0126 133.662 60.2677 133.286 60.5018 132.897C60.6133 132.639 61.262 132.453 60.4206 132.512C59.5791 132.571 60.2118 132.421 60.0588 133.011C60.008 133.378 59.9846 133.748 59.9885 134.118C59.8037 136.399 59.6842 138.563 61.3416 140.358C61.9898 141.139 62.9099 141.645 63.9165 141.775C64.9231 141.904 65.9414 141.648 66.7664 141.056C68.5818 139.654 69.3921 136.769 70.3716 134.773C70.6583 134.11 70.9503 133.434 71.3229 132.808C71.6956 132.182 72.026 132.092 71.152 131.889C69.7445 131.572 70.7243 131.631 70.5614 132.042C70.5638 132.338 70.5922 132.633 70.6463 132.924C70.7147 133.507 70.8129 134.089 70.934 134.651C71.3243 136.865 72.4399 138.886 74.1048 140.395C74.9123 141.11 75.8828 141.617 76.9314 141.871C77.98 142.125 79.0748 142.118 80.1202 141.851C81.1657 141.584 82.1299 141.065 82.9287 140.339C83.7275 139.614 84.3365 138.704 84.7025 137.688C85.4369 135.671 85.7353 133.521 85.5782 131.381C85.4211 129.24 84.812 127.157 83.7911 125.269C81.6604 121.279 78.265 118.11 74.1381 116.26C70.0111 114.41 65.3864 113.984 60.9903 115.048C55.6453 116.323 51 119.616 48.0267 124.239C45.3224 128.404 43.4185 134.898 48.0466 138.619C48.4711 138.951 49.0101 139.101 49.5452 139.036C50.0803 138.971 50.5677 138.696 50.9 138.271C51.2323 137.847 51.3825 137.307 51.3173 136.772C51.2522 136.237 50.9772 135.749 50.5527 135.417Z" fill="#2D2FEE"/>
<path d="M104.482 139.329C104.122 138.964 103.911 138.478 103.891 137.966C103.719 132.061 105.701 128.05 110.107 123.789C111.081 122.82 112.192 121.998 113.405 121.352C118.223 118.902 124.103 120.671 128.941 123.098C132.281 124.775 135.856 127.326 136.068 131.047C136.223 133.621 134.7 135.965 133.255 138.095C133.033 138.545 132.717 138.942 132.328 139.26C131.939 139.577 131.487 139.807 131.002 139.935C128.98 140.096 127.795 136.872 125.821 137.258C123.847 137.644 124.293 141.466 122.384 142.579C120.969 143.425 119.198 142.164 118.357 140.736C117.517 139.309 117.021 137.593 115.736 136.688C115.563 136.548 115.355 136.458 115.135 136.428C114.784 136.447 114.455 136.603 114.218 136.863C112.522 138.461 112.051 141.538 109.775 142.084C108.149 142.475 106.608 141.254 105.355 140.174L104.482 139.329Z" fill="white"/>
<path d="M106.129 138.147C105.384 137.242 106.05 134.688 106.295 133.583C106.666 131.966 107.33 130.43 108.254 129.052C110.057 126.362 112.698 123.423 115.926 122.529C118.69 121.907 121.577 122.139 124.206 123.194C126.953 124.065 129.519 125.426 131.78 127.212C132.913 128.012 133.691 129.22 133.95 130.583C134.209 131.946 133.929 133.356 133.169 134.517C132.814 135.171 132.423 135.805 131.998 136.416C131.721 136.821 131.275 137.75 130.774 137.898C131.075 137.81 130.885 137.946 130.664 137.851C130.443 137.755 130.3 137.547 130.13 137.401C129.598 136.886 129.029 136.411 128.427 135.98C125.781 134.282 123.164 135.818 122.25 138.572C122.059 139.014 121.715 140.789 121.395 140.855C120.347 141.087 119.415 138.424 119.074 137.796C118.287 136.246 116.821 134.344 114.805 134.493C112.788 134.641 111.821 136.439 111.002 137.863C110.465 138.768 109.823 140.589 108.488 140.071C107.432 139.512 106.499 138.747 105.745 137.821C105.329 137.506 104.807 137.365 104.289 137.429C103.771 137.492 103.298 137.755 102.971 138.162C102.644 138.568 102.487 139.086 102.535 139.606C102.584 140.126 102.832 140.606 103.229 140.945C105.469 143.211 108.818 145.577 111.912 143.241C113.1 142.093 114.078 140.744 114.8 139.257C114.954 138.901 115.822 138.241 115.134 138.483C114.447 138.725 115.001 138.79 115.307 139.229C115.877 140.102 116.237 141.088 116.784 141.981C118.801 145.17 123.311 146.129 125.233 142.324C125.531 141.634 125.78 140.923 125.977 140.197C126.078 139.964 126.534 139.214 126.142 139.277C126.421 139.238 127.077 140.046 127.291 140.226C127.864 140.796 128.526 141.269 129.25 141.627C133.277 143.368 136.273 137.987 137.435 134.962C138.124 133.22 138.259 131.308 137.82 129.488C137.381 127.667 136.39 126.027 134.983 124.792C132.331 122.43 129.206 120.662 125.816 119.605C122.494 118.279 118.861 117.932 115.348 118.607C110.82 119.71 107.074 123.455 104.689 127.321C103.498 129.231 102.673 131.346 102.255 133.557C101.832 135.75 101.444 138.804 102.905 140.616C104.366 142.428 107.749 140.13 106.129 138.147Z" fill="#2D2FEE"/>
</svg>
