<svg width="197" height="188" viewBox="0 0 197 188" fill="none" xmlns="http://www.w3.org/2000/svg">
<path d="M91.8773 120.524C93.2245 122.195 94.9145 123.558 96.8332 124.52C98.7519 125.482 100.855 126.021 103 126.1C105.145 126.18 107.282 125.799 109.267 124.982C111.253 124.165 113.04 122.932 114.508 121.366C115.922 119.844 116.991 118.036 117.643 116.063C117.839 114.954 118.292 113.905 118.966 113.001C119.702 112.442 120.615 112.165 121.538 112.221C125.479 112.141 129.171 114.577 133.156 113.163C137.142 111.749 138.118 107.325 138.518 103.379C138.511 101.378 139.075 99.4159 140.143 97.7237C141.281 96.4588 142.652 95.4259 144.182 94.6817C147.279 92.9217 150.724 91.3923 152.578 88.1584C154.431 84.9246 153.509 80.9412 152.733 77.3574C152.336 75.4938 151.895 73.3553 152.79 71.5591C153.885 69.3246 156.472 68.1191 158.497 66.9062C162.403 64.5594 166.184 60.7956 164.889 55.8697C164.224 53.3681 160.436 54.6849 161.095 57.1686C162.093 60.966 156.328 63.4294 153.947 64.9742C150.614 67.125 148.256 70.0518 148.275 74.1143C148.295 77.4169 149.928 80.557 149.739 83.8613C149.549 87.1656 146.624 88.7566 144.051 90.1773C141.061 91.8108 137.92 93.4156 136.162 96.4872C134.244 99.8532 135.172 103.825 133.853 107.276C132.398 111.033 127.651 109.078 124.763 108.497C121.42 107.812 117.378 108.036 115.326 111.188C114.05 113.154 113.889 115.579 112.498 117.535C111.27 119.268 109.575 120.618 107.611 121.427C105.483 122.237 103.156 122.369 100.95 121.802C98.7442 121.236 96.7681 120 95.2935 118.265C93.6452 116.31 90.2883 118.509 91.9548 120.488L91.8773 120.524Z" fill="#2D2FEE"/>
<path d="M96.6498 137.868C98.1561 138.913 99.8709 139.62 101.676 139.939C103.482 140.258 105.335 140.182 107.109 139.716C110.804 138.741 113.23 136.041 115.264 132.986C117.298 129.93 119.289 126.629 123.479 126.195C127.286 125.811 130.985 126.075 134.721 124.956C136.48 124.49 138.125 123.672 139.556 122.549C140.987 121.426 142.175 120.024 143.046 118.427C143.964 116.553 144.336 114.306 145.952 112.863C147.311 111.823 148.808 110.977 150.401 110.35C153.714 108.756 156.445 106.772 157.517 103.066C158.513 99.6052 157.694 95.8962 158.637 92.4243C159.376 90.3757 160.702 88.59 162.449 87.29C164.403 85.6322 166.225 83.8252 167.899 81.8853C171.018 78.0396 173.398 73.6486 174.917 68.9351C175.712 66.4936 171.764 65.7653 170.963 68.189C169.634 72.2271 167.565 75.9829 164.863 79.265C162.339 82.3487 158.809 84.537 156.513 87.7624C154.394 90.7172 154.229 94.0931 154.119 97.6301C154.008 101.167 153.618 104 150.438 105.869C147.723 107.518 144.606 108.315 142.453 110.731C139.927 113.576 139.941 117.68 136.5 119.838C130.387 123.71 122.199 120.054 116.583 124.856C113.582 127.423 112.242 131.311 109.397 133.984C108.045 135.227 106.322 135.99 104.493 136.158C102.664 136.325 100.832 135.886 99.2769 134.909C98.8696 134.573 98.3501 134.404 97.823 134.436C97.296 134.468 96.8006 134.698 96.4368 135.081C96.0893 135.482 95.9131 136.003 95.9463 136.532C95.9795 137.061 96.2194 137.556 96.6143 137.91L96.6498 137.868Z" fill="#2D2FEE"/>
<path d="M85.8298 135.172C82.2231 139.096 75.9934 139.559 71.4876 137.082C68.5734 135.43 67.5759 132.542 65.7906 129.894C63.7329 126.829 60.5984 125.292 57.1929 124.309C53.7874 123.325 50.2119 122.779 47.3112 120.552C44.7301 118.597 42.8262 115.882 41.867 112.788C40.1911 107.273 42.5776 101.067 39.5223 95.8741C37.5702 92.5332 33.1028 91.9228 31.4012 88.4961C29.9002 85.4806 30.3676 81.7313 30.7377 78.5453C31.035 75.994 27.0751 75.2599 26.8016 77.793C26.2165 81.2172 26.2883 84.7214 27.0133 88.1184C28.0237 91.8918 30.569 93.8099 33.7066 95.7353C36.7119 97.566 37.1296 100.512 37.2088 103.785C37.2881 107.057 36.9785 110.332 37.9011 113.586C38.859 116.97 40.7239 120.027 43.2938 122.428C46.2358 124.979 49.7911 126.722 53.6104 127.484C55.4828 127.887 57.3108 128.473 59.0676 129.236C60.8939 130.175 62.3665 131.681 63.2645 133.528C64.7057 136.535 67.0017 139.049 69.865 140.757C72.9076 142.405 76.405 143.015 79.8265 142.495C83.2479 141.976 86.4069 140.354 88.8239 137.876C90.5739 135.977 87.5562 133.321 85.8182 135.226L85.8298 135.172Z" fill="#2D2FEE"/>
<path d="M16.1307 88.6544C18.4573 99.1224 21.0924 109.528 24.0361 119.871C24.4872 121.938 25.362 123.889 26.6051 125.601C28.3231 127.404 30.4256 128.796 32.7564 129.674C37.319 131.761 42.1439 133.739 45.7731 137.336C49.0646 140.588 50.9297 145.049 55.242 147.252C59.5542 149.455 64.3975 149.177 68.9507 149.278C73.6503 149.455 78.3566 149.271 83.0283 148.728C85.222 148.454 87.3936 148.024 89.5269 147.444C91.0755 146.863 92.6684 146.408 94.29 146.083C96.6091 145.819 99.2297 145.122 101.392 146.272C104.935 147.96 108.903 148.545 112.783 147.951C116.635 147.421 120.23 145.719 123.082 143.076C126.666 140.02 129.94 136.469 134.346 134.561C138.365 132.806 142.421 132.827 146.682 132.368C150.597 131.948 154.392 130.679 156.56 127.167C158.729 123.656 158.256 119.058 159.967 115.174C161.389 111.937 164.725 110.905 167.791 109.756C171.418 108.434 175.125 106.705 176.567 102.852C178.12 98.7116 175.753 93.5132 178.338 89.8187C179.883 87.9894 181.738 86.4472 183.819 85.2634C185.864 83.9604 187.689 82.3401 189.225 80.4634C192.213 76.5523 193.557 71.6299 192.971 66.7436C192.646 64.1854 188.64 64.4568 188.971 67.0329C189.241 69.0932 189.074 71.1873 188.48 73.1787C187.886 75.1701 186.88 77.0141 185.526 78.5903C182.81 81.7294 178.737 83.3237 175.901 86.4039C173.066 89.4841 173.054 93.3972 173.182 97.4827C173.37 99.1392 173.067 100.815 172.31 102.3C171.49 103.451 170.36 104.344 169.051 104.875C166.072 106.305 162.721 106.972 159.978 108.921C156.634 111.275 155.544 114.928 154.808 118.769C154.072 122.61 153.522 126.468 149.363 127.782C145.865 128.839 142.135 128.426 138.599 129.076C134.302 129.862 130.261 131.687 126.832 134.394C123.437 137.066 120.457 140.865 116.56 142.769C113.226 144.195 109.525 144.516 105.996 143.686C104.271 143.317 102.941 142.292 101.28 141.821C100.101 141.536 98.8772 141.483 97.6775 141.664C95.1681 141.791 92.6829 142.218 90.2755 142.938C85.9985 144.324 81.5431 145.082 77.0487 145.186C72.7072 145.383 68.2802 145.358 63.9652 145.106C61.5382 145.113 59.1378 144.602 56.9245 143.607C55.0259 142.454 53.4174 140.88 52.2228 139.007C50.845 137.001 49.2564 135.148 47.484 133.481C45.3549 131.674 43.0149 130.132 40.515 128.888C38.1131 127.71 35.7539 126.658 33.3703 125.534C30.9867 124.411 29.266 123.15 28.3547 120.573C26.5183 115.203 25.2668 109.642 23.8664 104.173C22.466 98.7033 21.0871 92.9166 19.811 87.2846C19.2411 84.7702 15.4527 86.087 16.0106 88.5955L16.1307 88.6544Z" fill="#2D2FEE"/>
<path d="M94.2505 117.202C89.1483 113.42 83.7496 117.687 78.26 116.397C76.9769 116.075 75.7708 115.501 74.7119 114.709C73.653 113.916 72.7626 112.92 72.0925 111.779C70.6984 109.427 70.922 106.631 70.2798 104.052C69.9279 102.649 69.2459 101.351 68.2905 100.266C67.3351 99.1806 66.1341 98.3397 64.7877 97.8132C61.9126 96.5678 58.8873 96.0237 56.3653 94.0275C54.0215 92.2077 52.2465 89.7558 51.2496 86.9604C50.3618 83.9534 50.1292 80.7908 50.5674 77.6858C51.0926 71.3573 51.5842 63.7905 45.9572 59.4379C43.917 57.8567 41.2543 60.8578 43.2945 62.439C48.2542 66.3601 46.8082 73.5038 46.4852 78.9033C46.103 85.1528 47.5476 90.9271 52.0098 95.4984C54.0722 97.5723 56.5805 99.1483 59.3438 100.107C62.205 101.107 65.6254 101.696 66.4533 105.081C67.1326 107.828 67.0103 110.57 68.3345 113.156C69.5849 115.531 71.4892 117.499 73.8222 118.826C76.4547 120.322 79.5148 120.888 82.5087 120.431C85.1558 120.045 89.1925 118.344 91.5932 120.131C93.645 121.658 96.3197 118.663 94.2439 117.124L94.2505 117.202Z" fill="#2D2FEE"/>
<path d="M142.036 95.3871C142.395 86.8906 140.238 78.4779 135.835 71.204C131.432 63.93 124.98 58.1187 117.288 54.4985C101.12 47.0653 81.5272 52.2423 69.6387 65.0701C66.249 68.7141 63.5893 72.9743 61.8038 77.62C59.722 83.6666 58.463 89.9657 58.0608 96.3478C57.8234 98.8985 61.7715 99.6566 61.9969 97.0999C62.8695 87.7531 64.4169 78.2452 70.2259 70.5879C75.0833 64.2808 81.7058 59.5605 89.2514 57.0269C96.7852 54.379 104.986 54.3195 112.556 56.8579C119.771 59.4889 126.033 64.2189 130.536 70.4393C135.752 77.3846 138.409 85.919 138.058 94.5992C137.992 95.1165 138.124 95.6395 138.426 96.064C138.729 96.4884 139.18 96.7832 139.691 96.8897C140.208 96.9707 140.736 96.8465 141.163 96.5435C141.589 96.2405 141.881 95.7828 141.975 95.2679L142.036 95.3871Z" fill="#2D2FEE"/>
<path d="M106.774 73.2446L106.285 73.5118C105.91 73.7132 105.629 74.0529 105.501 74.4586C105.373 74.8644 105.408 75.3041 105.599 75.684C105.791 76.064 106.123 76.3542 106.525 76.4928C106.927 76.6314 107.367 76.6076 107.752 76.4262C108.137 76.2448 108.436 75.9203 108.585 75.5218C108.734 75.1233 108.722 74.6823 108.551 74.2928C108.38 73.9033 108.064 73.5961 107.669 73.4366C107.275 73.277 106.834 73.2778 106.44 73.4387C106.38 73.4093 106.267 73.518 106.172 73.5606C105.864 73.7009 105.547 73.8194 105.223 73.9152C104.883 74.0316 104.525 74.0943 104.191 74.1987C104.328 74.1617 104.615 74.1235 104.292 74.174L104.083 74.2056L103.509 74.282C103.169 74.3087 102.834 74.3233 102.493 74.32L102.211 74.3163C101.942 74.3185 102.308 74.3634 102.397 74.3327L101.828 74.2775C101.49 74.2433 101.154 74.188 100.822 74.112L100.283 73.9668L100.078 73.8667C99.6646 73.7384 100.535 74.0904 100.15 73.902C99.6673 73.689 99.1241 73.6552 98.6183 73.8066C98.1163 73.9812 97.7026 74.3453 97.4656 74.8211C97.0298 75.7101 97.328 77.1377 98.3838 77.5062C100.114 78.1584 101.967 78.4155 103.809 78.2585C105.645 78.0764 107.418 77.4966 109.007 76.5594C109.425 76.2588 109.713 75.8098 109.811 75.304C109.91 74.7983 109.811 74.2741 109.536 73.8387C109.231 73.4255 108.783 73.1418 108.279 73.0439C107.775 72.946 107.253 73.041 106.816 73.3101L106.774 73.2446Z" fill="#2D2FEE"/>
<path d="M113.052 101.668C118.286 103.906 124.763 103.758 129.426 100.203C134.088 96.6472 136.493 90.525 134.488 84.9826C133.589 82.3925 131.84 80.1829 129.527 78.7132C127.213 77.2435 124.469 76.6002 121.743 76.8878C118.889 77.2321 116.174 78.3185 113.87 80.0387C111.566 81.7589 109.753 84.0528 108.611 86.6919C107.437 89.7068 107.422 93.0497 108.57 96.074C109.431 98.3288 111.688 102.475 114.584 101.764C115.083 101.585 115.492 101.219 115.725 100.744C115.959 100.268 115.997 99.7203 115.833 99.2169C115.647 98.7205 115.279 98.3139 114.803 98.0807C114.327 97.8475 113.78 97.8054 113.274 97.9629L113.071 98.0124L115.049 98.4154C113.611 97.2482 112.567 95.6662 112.06 93.8846C111.552 92.103 111.606 90.2083 112.214 88.458C113.008 86.5266 114.278 84.8271 115.904 83.5171C117.531 82.207 119.461 81.3289 121.517 80.9642C123.319 80.6084 125.188 80.8812 126.812 81.7371C128.436 82.593 129.718 83.9801 130.443 85.6672C131.166 87.5092 131.298 89.5305 130.821 91.4511C130.344 93.3718 129.281 95.0966 127.781 96.3867C124.318 99.5616 118.99 99.8557 114.819 98.0642C112.43 97.0423 110.663 100.646 113.052 101.668Z" fill="#2D2FEE"/>
<path d="M106.981 88.0696C106.483 88.2686 105.973 88.4366 105.454 88.5726L105.239 88.6161L105.023 88.6597C104.747 88.7165 104.468 88.7587 104.187 88.7861C103.651 88.8434 103.112 88.8677 102.572 88.8588L102.201 88.8558C101.872 88.8285 102.477 88.8716 102.201 88.8558L101.357 88.7549C100.859 88.6843 100.365 88.5864 99.8773 88.4616L99.4216 88.3277C99.4216 88.3277 99.0373 88.1393 99.2414 88.2393L98.9412 88.0922L98.6049 87.9273C98.1102 87.7221 97.6289 87.4862 97.1637 87.2209L96.8274 87.056L96.5632 86.9265L96.371 86.8323L95.998 86.5601C95.8026 86.376 95.5722 86.2331 95.3205 86.1397C95.0688 86.0463 94.8009 86.0044 94.5327 86.0164C94.2644 86.0285 94.0013 86.0943 93.759 86.2099C93.5166 86.3255 93.2999 86.4885 93.1216 86.6894C92.9434 86.8903 92.8073 87.1248 92.7214 87.3793C92.6354 87.6337 92.6014 87.9028 92.6213 88.1706C92.6413 88.4384 92.7147 88.6995 92.8373 88.9383C92.96 89.1772 93.1293 89.3889 93.3353 89.5611C95.4177 91.1749 97.8774 92.2308 100.482 92.6287C103.086 93.0266 105.749 92.7535 108.219 91.8352C108.723 91.6637 109.14 91.2987 109.375 90.8205C109.611 90.3423 109.647 89.79 109.476 89.2852C109.305 88.7804 108.94 88.3643 108.462 88.1285C107.984 87.8928 107.432 87.8567 106.927 88.0282L106.981 88.0696Z" fill="#2D2FEE"/>
<path d="M82.003 97.7892C84.501 97.5947 86.8892 96.6801 88.8786 95.1563C90.8681 93.6325 92.3735 91.5647 93.2126 89.2032C94.1254 86.6856 94.2233 83.9449 93.4927 81.3689C92.7648 78.9266 91.6174 76.6298 90.102 74.5812C86.3328 69.9026 80.1127 70.832 75.3042 73.2878C70.1623 75.9377 68.4794 81.8626 70.0348 87.259C71.5026 92.1654 76.3273 98.7322 82.1516 97.6684C82.6607 97.6102 83.1299 97.3644 83.4676 96.9789C83.8053 96.5934 83.9872 96.0959 83.9779 95.5835C83.9289 95.0707 83.6859 94.596 83.2985 94.2566C82.9111 93.9171 82.4086 93.7386 81.8939 93.7574C78.4468 94.3475 75.682 90.3549 74.4763 87.6183C73.099 84.3505 72.9323 79.8285 76.1805 77.5168C78.8042 75.6589 83.7683 73.9797 86.4678 76.495C87.7385 77.93 88.6932 79.6164 89.27 81.4446C89.6185 82.2105 89.8796 83.0132 90.0483 83.8376C90.1054 84.8431 89.9939 85.8512 89.7185 86.82C89.3539 88.7582 88.3088 90.5024 86.7716 91.7379C85.4005 92.9732 83.6418 93.6918 81.7983 93.7701C79.2148 93.8746 79.5031 97.8751 82.0807 97.7827L82.003 97.7892Z" fill="#2D2FEE"/>
<path d="M125.762 93.4893L125.846 93.5305L125.325 93.4987L125.397 93.534L124.881 93.3706L124.436 93.0631L124.508 93.0984L124.17 92.6943L124.242 92.7296L124.005 92.2707L124.077 92.3061L123.966 91.8044L123.979 91.9599L124.011 91.439C123.99 91.5126 123.956 91.5819 123.911 91.6433L124.146 91.1627C124.121 91.2443 124.084 91.3213 124.034 91.391L124.27 90.9104C124.252 90.9753 124.222 91.0364 124.182 91.0906L124.574 90.7465C124.56 90.7844 124.542 90.8206 124.521 90.8546L124.974 90.6295L124.866 90.6663L125.362 90.5666C125.307 90.5781 125.25 90.5805 125.195 90.5739L125.715 90.6056L125.547 90.5232L126.063 90.6866L125.835 90.5748L126.28 90.8823C126.202 90.8303 126.133 90.7663 126.075 90.6925L126.407 91.0788L126.243 90.8348L126.48 91.2936C126.429 91.1954 126.39 91.0912 126.364 90.9834L126.476 91.4851C126.452 91.3771 126.441 91.2667 126.443 91.1562L126.411 91.6771C126.42 91.5941 126.436 91.5119 126.457 91.4314L126.294 91.9473C126.315 91.8739 126.349 91.8048 126.394 91.743L126.086 92.1882C126.132 92.1284 126.183 92.0738 126.241 92.0255L125.849 92.3696C125.897 92.3241 125.951 92.2855 126.009 92.2547L125.556 92.4797L125.759 92.4003L125.257 92.512C125.343 92.4906 125.432 92.4838 125.52 92.4919L125 92.4603C125.106 92.4689 125.21 92.4901 125.311 92.5236L124.802 92.3482L125.09 92.4894L124.651 92.1998C124.735 92.257 124.812 92.3248 124.88 92.4014L124.536 92.0092C124.598 92.0772 124.651 92.1532 124.693 92.2353L124.468 91.7824C124.503 91.8566 124.53 91.9347 124.548 92.0151L124.442 91.5014C124.458 91.568 124.464 91.6364 124.462 91.7047L124.481 91.178L124.446 91.2501L126.27 89.6259L125.905 89.6408L126.426 89.6725C126.296 89.6663 126.169 89.6391 126.048 89.5918L126.558 89.7672L126.138 89.5612L126.589 89.8567C126.455 89.7642 126.333 89.6546 126.227 89.5306L126.565 89.9347C126.466 89.8142 126.38 89.6823 126.311 89.5418L126.53 90.0068C126.478 89.888 126.439 89.7639 126.414 89.6367L126.513 90.1326C126.49 90.0145 126.479 89.8942 126.48 89.7738L126.461 90.3006L126.502 90.2164L125.174 91.7408L126.32 91.4983C126.566 91.4197 126.791 91.2847 126.975 91.1042C127.185 90.9366 127.355 90.7247 127.473 90.4838C127.591 90.2429 127.654 89.9788 127.658 89.7105C127.695 89.4539 127.664 89.1922 127.569 88.9514C127.393 88.4501 127.03 88.0368 126.555 87.7987L126.074 87.5633C125.729 87.4949 125.372 87.5206 125.04 87.6374L123.905 87.8858C123.581 88.0033 123.291 88.1988 123.06 88.455C122.811 88.7209 122.646 89.0558 122.589 89.4162C122.451 90.0419 122.487 90.6936 122.694 91.3C122.914 91.8542 123.255 92.3523 123.692 92.758C123.918 92.9609 124.166 93.1376 124.432 93.2845L124.792 93.4611C125.068 93.5803 125.358 93.6624 125.656 93.7055C125.955 93.7511 126.259 93.7547 126.559 93.7162L127.061 93.6044C127.313 93.5396 127.54 93.4026 127.715 93.2103C127.868 93.115 127.991 92.9794 128.071 92.8185C128.247 92.6114 128.369 92.3636 128.425 92.0977C128.49 91.6563 128.462 91.2059 128.343 90.776L128.281 90.597C128.197 90.3903 128.095 90.191 127.978 90.0012L127.718 89.6802C127.625 89.5667 127.522 89.4614 127.411 89.3655C127.185 89.1707 126.934 89.0076 126.665 88.8808C126.456 88.7864 126.239 88.7101 126.017 88.6527L125.849 88.5703C125.629 88.5412 125.407 88.527 125.185 88.5277L124.993 88.5532C124.553 88.607 124.13 88.7553 123.753 88.9879C123.565 89.1144 123.39 89.258 123.229 89.417C123.122 89.5352 123.025 89.662 122.939 89.7962C122.869 89.9404 122.81 90.0605 122.745 90.1927C122.651 90.4179 122.577 90.6508 122.523 90.8886C122.491 91.1187 122.477 91.3508 122.481 91.583L122.494 91.7983C122.563 92.2638 122.717 92.7127 122.947 93.1229C123.1 93.3892 123.294 93.6299 123.521 93.8363C123.735 94.0525 123.991 94.2234 124.273 94.3389C124.491 94.4368 124.721 94.5092 124.956 94.5548L125.297 94.5879L125.65 94.597C125.762 94.5855 125.871 94.5646 125.979 94.5346C126.187 94.5037 126.387 94.4351 126.57 94.3324C126.677 94.2895 126.779 94.2345 126.873 94.1684C127.264 93.9071 127.579 93.5476 127.787 93.126C127.826 93.0764 127.854 93.0191 127.869 92.9577C127.962 92.7425 128.036 92.5197 128.091 92.2919C128.13 92.0746 128.149 91.854 128.146 91.6332C128.125 91.4171 128.085 91.2032 128.027 90.9939C127.998 90.9024 127.955 90.8159 127.9 90.7377C127.868 90.6471 127.826 90.561 127.772 90.4815C127.657 90.3275 127.527 90.1843 127.386 90.0537L127.134 89.9301L126.87 89.8006C126.712 89.7078 126.547 89.6271 126.377 89.5593C126.181 89.5323 125.983 89.5198 125.785 89.5221L125.713 89.4868C125.192 89.5371 124.708 89.7775 124.354 90.1619C124.18 90.3652 124.061 90.609 124.006 90.8707C123.9 91.1155 123.861 91.3844 123.893 91.6494C123.938 92.1714 124.179 92.6568 124.567 93.0082C124.767 93.1851 124.999 93.3201 125.252 93.4055C125.504 93.4908 125.771 93.5246 126.037 93.505L125.762 93.4893Z" fill="#2D2FEE"/>
<path d="M80.2694 86.2253L81.3889 85.5522L78.4736 82.9908L77.9789 84C77.8578 84.2398 77.7943 84.5046 77.7935 84.7733C77.7639 85.0299 77.7946 85.2898 77.8832 85.5324C77.9575 85.7848 78.0976 86.0129 78.2891 86.1933C78.4456 86.4073 78.6551 86.5768 78.8971 86.6851L79.4128 86.8485C79.7553 86.9152 80.1093 86.8939 80.4413 86.7864L80.8942 86.5614C81.1913 86.3636 81.4291 86.0887 81.5819 85.7661L82.0589 84.793L82.2345 84.283C82.2922 84.0279 82.2839 83.7623 82.2105 83.5114C82.2012 83.338 82.144 83.1707 82.0452 83.028C81.9501 82.7843 81.7939 82.5692 81.5917 82.4034L81.1113 82.1679L80.6429 81.9383C80.3879 81.88 80.1222 81.8884 79.8714 81.9625C79.613 81.9905 79.3663 82.0852 79.1556 82.2374L78.0363 82.9105C77.8086 83.0494 77.6206 83.2446 77.4903 83.4773C77.3015 83.6758 77.1782 83.9274 77.137 84.1981C77.0752 84.4502 77.0793 84.7139 77.1489 84.9639C77.1861 85.2238 77.2843 85.4711 77.4357 85.6856L77.7677 86.0719C78.0412 86.3103 78.3725 86.4726 78.7285 86.5428L79.2492 86.5746C79.5929 86.5419 79.924 86.4285 80.2157 86.2437L80.2694 86.2253Z" fill="#2D2FEE"/>
<path d="M147.542 50.7793C148.64 51.9328 149.29 53.4403 149.376 55.0307C149.455 56.6798 149.065 58.3177 148.252 59.7545C147.118 62.0299 145.543 64.058 143.62 65.7213C141.697 67.3847 139.464 68.6505 137.049 69.4454C134.635 70.2404 132.087 70.5488 129.552 70.3527C127.018 70.1567 124.548 69.4602 122.284 68.3035C116.014 65.1108 111.721 57.6722 113.445 50.8434C113.601 49.9409 113.959 49.0853 114.492 48.3404C115.025 47.5954 115.719 46.9802 116.522 46.5406C117.54 46.1946 118.642 46.1824 119.668 46.5055C120.693 46.8287 121.589 47.4705 122.225 48.3378C123.453 50.1141 124.093 52.2308 124.055 54.3902C124.091 55.1677 124.194 56.1421 124.92 56.4235C125.646 56.7049 126.578 55.746 127.003 55.0007L130.306 48.961C130.606 48.242 131.136 47.6425 131.812 47.2557C133.315 46.6214 134.842 48.3682 134.944 49.9829C135.046 51.5975 134.46 53.2177 134.617 54.8439C134.688 55.6092 135.078 56.4857 135.827 56.5993C136.087 56.6085 136.346 56.5608 136.586 56.4597C136.826 56.3586 137.041 56.2064 137.216 56.0137C138.198 54.9748 139.025 53.7993 139.671 52.5238C140.315 51.2285 141.354 50.1722 142.639 49.5083C143.963 48.9652 145.092 49.5784 146.549 50.0095L147.542 50.7793Z" fill="white"/>
<path d="M146.209 52.2864C146.791 52.9764 147.18 53.8073 147.338 54.6957C147.496 55.5841 147.418 56.4985 147.11 57.3469C146.445 59.2468 145.398 60.9902 144.033 62.4694C141.382 65.5115 137.756 67.5373 133.777 68.1997C126.481 69.2874 118.784 65.6634 116.031 58.6073C114.951 55.8577 114.337 51.4888 116.513 49.0542C116.793 48.7814 117.128 48.573 117.497 48.4438C117.865 48.3145 118.257 48.2675 118.646 48.306C119.034 48.3445 119.41 48.4676 119.746 48.6667C120.082 48.8657 120.37 49.1359 120.59 49.4582C121.619 50.9574 122.146 52.7441 122.095 54.5618C122.228 56.2361 122.779 57.8771 124.59 58.407C125.406 58.5307 126.241 58.387 126.969 57.9972C127.697 57.6075 128.279 56.9927 128.629 56.2446C129.698 54.5488 130.576 52.7288 131.549 50.9559C131.782 50.4333 132.059 49.9308 132.375 49.4535C132.742 48.9779 132.348 49.0529 132.613 49.302C133.27 49.907 133.021 50.992 132.883 51.7889C132.624 53.7774 132.259 56.1019 133.797 57.6751C134.139 57.9872 134.541 58.2272 134.979 58.381C135.416 58.5348 135.88 58.5993 136.343 58.5704C136.806 58.5416 137.258 58.4202 137.673 58.2133C138.088 58.0064 138.458 57.7183 138.759 57.366C140.446 55.7789 141.023 53.1118 142.855 51.7449C143.759 51.0854 144.319 51.5536 145.278 51.7254C146.464 51.9493 145.072 51.3561 145.505 51.7475C145.722 51.9432 145.987 52.1027 146.221 52.2923C148.285 53.8254 150.948 50.8243 148.89 49.2792C147.625 48.2803 146.121 47.6302 144.526 47.3936C143.396 47.3033 142.262 47.5275 141.25 48.0413C140.238 48.5552 139.389 49.3388 138.794 50.3055C138.113 51.2384 137.589 52.2777 136.968 53.24C136.677 53.5881 136.404 53.9518 136.151 54.3295C136.028 54.5818 135.371 54.7366 136.214 54.7179C137.058 54.6992 136.418 54.818 136.599 54.2361C136.668 53.8724 136.709 53.5041 136.722 53.1343C137.016 50.8643 137.238 48.7085 135.669 46.8364C135.058 46.0254 134.163 45.4758 133.164 45.2984C132.165 45.121 131.135 45.329 130.283 45.8804C128.403 47.1938 127.456 50.0374 126.382 51.9846C126.064 52.6334 125.74 53.2941 125.338 53.9016C124.936 54.5092 124.602 54.5836 125.465 54.828C126.856 55.2117 125.88 55.1059 126.062 54.7036C126.074 54.4078 126.06 54.1116 126.02 53.8184C125.979 53.2324 125.909 52.6466 125.815 52.0789C125.531 49.8493 124.513 47.7778 122.922 46.1907C122.149 45.4375 121.204 44.885 120.169 44.5814C119.133 44.2779 118.04 44.2326 116.983 44.4494C115.926 44.6662 114.938 45.1386 114.105 45.8253C113.273 46.512 112.621 47.3921 112.207 48.3887C111.377 50.3685 110.976 52.5016 111.031 54.6474C111.086 56.7932 111.595 58.9029 112.525 60.8373C114.463 64.9243 117.703 68.2513 121.737 70.2961C125.771 72.3409 130.37 72.9875 134.812 72.1344C140.212 71.1159 145.009 68.0479 148.199 63.5727C151.099 59.5407 153.311 53.1448 148.865 49.2076C148.457 48.8554 147.926 48.6799 147.388 48.7195C146.851 48.7592 146.351 49.0108 145.999 49.419C145.646 49.8273 145.471 50.3588 145.51 50.8965C145.55 51.4342 145.801 51.9342 146.209 52.2864Z" fill="#2D2FEE"/>
<path d="M92.5302 45.806C92.8721 46.1877 93.0593 46.6833 93.0555 47.1959C92.9458 53.1022 90.7748 57.0147 86.17 61.0604C85.1509 61.9823 84.0019 62.7495 82.7599 63.3374C77.8299 65.5549 72.0413 63.5072 67.3248 60.8526C64.0682 59.0179 60.6194 56.2992 60.5845 52.5719C60.5525 49.9934 62.186 47.7246 63.7313 45.666C63.9745 45.2271 64.3091 44.8456 64.7123 44.5471C65.1156 44.2487 65.5782 44.0403 66.0689 43.936C68.0963 43.8719 69.1267 47.1484 71.1165 46.8572C73.1063 46.566 72.8432 42.7269 74.8034 41.7059C76.257 40.9284 77.9663 42.2729 78.7374 43.7386C79.5085 45.2043 79.9228 46.9421 81.1626 47.9075C81.3287 48.0556 81.5322 48.1554 81.7511 48.1959C82.1023 48.1937 82.4385 48.0535 82.6873 47.8055C84.4582 46.2895 85.0745 43.2391 87.3743 42.8018C89.0169 42.4895 90.4985 43.7819 91.6978 44.9211L92.5302 45.806Z" fill="white"/>
<path d="M90.8275 46.9085C91.5287 47.8482 90.7406 50.3675 90.444 51.4588C89.996 53.0566 89.2596 54.559 88.2711 55.8919C86.3411 58.4921 83.5633 61.3026 80.2968 62.0408C77.5062 62.5304 74.6331 62.1612 72.0573 60.982C69.3556 59.9807 66.8573 58.4987 64.6833 56.6076C63.5898 55.7545 62.8703 54.5099 62.6767 53.1363C62.483 51.7626 62.8302 50.3674 63.6451 49.2446C64.0304 48.6079 64.451 47.9932 64.905 47.4036C65.2011 47.0123 65.6905 46.1049 66.198 45.9811C65.8935 46.0554 66.09 45.9282 66.3061 46.0341C66.5223 46.1401 66.6556 46.3544 66.8183 46.5087C67.3245 47.0488 67.8703 47.5504 68.4511 48.0094C71.0136 49.8316 73.7006 48.422 74.7444 45.7152C74.9564 45.2827 75.3854 43.5261 75.708 43.4757C76.7654 43.2937 77.5701 45.9977 77.8801 46.6414C78.5923 48.2272 79.9656 50.1967 81.9871 50.1445C84.0087 50.0924 85.0599 48.3429 85.9465 46.9596C86.5259 46.0814 87.2538 44.2926 88.5624 44.8744C89.5905 45.4825 90.4858 46.2913 91.195 47.2525C91.5954 47.5872 92.1104 47.7526 92.6308 47.7138C93.1512 47.6749 93.636 47.4349 93.9824 47.0444C94.3288 46.654 94.5096 46.1439 94.4863 45.6225C94.463 45.1011 94.2375 44.6093 93.8577 44.2515C91.7276 41.8813 88.4957 39.3584 85.2943 41.544C84.052 42.6344 83.0111 43.9349 82.2194 45.386C82.0486 45.7344 81.1501 46.3519 81.8484 46.1428C82.5467 45.9338 81.9956 45.8425 81.711 45.39C81.1836 44.4908 80.8707 43.4881 80.367 42.5707C78.5051 39.2889 74.0453 38.1161 71.9445 41.8246C71.6137 42.5 71.3312 43.1981 71.0993 43.9135C70.9874 44.1418 70.4965 44.8697 70.891 44.8246C70.61 44.8508 69.9933 44.0121 69.7885 43.8223C69.2431 43.226 68.6049 42.722 67.8985 42.3297C63.9593 40.3987 60.7098 45.6303 59.4048 48.5964C58.6332 50.3031 58.4077 52.2064 58.7593 54.0458C59.1109 55.8852 60.0223 57.5708 61.3689 58.8719C63.9052 61.3571 66.9424 63.2726 70.2779 64.4905C73.5331 65.9734 77.1449 66.4925 80.6863 65.9866C85.2617 65.1003 89.1823 61.5388 91.7494 57.7906C93.03 55.9398 93.9552 53.8669 94.4777 51.6778C95.0052 49.5076 95.538 46.4758 94.1655 44.5961C92.7929 42.7164 89.304 44.8505 90.8275 46.9085Z" fill="#2D2FEE"/>
</svg>
