<svg width="264" height="270" viewBox="0 0 264 270" fill="none" xmlns="http://www.w3.org/2000/svg">
<g clip-path="url(#clip0)">
<path d="M123.251 101.503L207.774 90.12L231.782 86.8947L225.092 83.1573L227.934 97.7206L234.696 132.444L242.869 174.409L249.928 210.669C251.079 216.545 252.059 222.483 253.372 228.314C253.372 228.404 253.372 228.485 253.372 228.574L258.578 221.746L247.167 223.103L219.769 226.346L186.76 230.263L158.211 233.65C153.58 234.198 148.896 234.549 144.283 235.304H144.085L149.291 239.257L146.962 224.936L141.414 190.796L134.662 149.272L128.862 113.569C127.918 107.774 127.18 101.889 126.02 96.1394C126.025 96.0586 126.025 95.9776 126.02 95.8968C125.571 93.1027 121.947 91.3059 119.384 92.1325C116.354 93.1117 115.131 95.771 115.617 98.7627L117.946 113.083L123.494 147.223L130.247 188.748L136.073 224.451L137.998 236.283C138.303 238.143 138.51 240.047 138.897 241.889C138.897 241.961 138.897 242.042 138.897 242.122C139.238 244.216 141.954 246.336 144.094 246.084L155.514 244.728L182.903 241.476L215.912 237.559L244.461 234.181L258.389 232.527H258.587C259.405 232.502 260.207 232.299 260.938 231.933C261.67 231.567 262.312 231.046 262.822 230.407C263.328 229.746 263.677 228.979 263.844 228.164C264.011 227.348 263.99 226.506 263.784 225.699L261.06 211.109L254.298 176.386L246.124 134.421L239.057 98.1608C237.915 92.2852 236.944 86.3467 235.622 80.516L235.568 80.2644C235.196 78.9082 234.309 77.7508 233.095 77.0391C231.808 76.3967 230.342 76.2038 228.932 76.4911L144.409 87.874L120.392 91.1083C119.044 91.4859 117.896 92.3717 117.19 93.5789C116.469 94.8404 116.276 96.3351 116.651 97.7386C117.027 99.0929 117.917 100.247 119.133 100.955C120.416 101.601 121.88 101.795 123.287 101.503H123.251Z" fill="#2D2FEE"/>
<path d="M246.511 216.652C246.511 217.001 246.43 217.345 246.273 217.657C246.117 217.968 245.891 218.24 245.612 218.449C237.303 224.944 225.83 221.818 215.822 219.347C202.784 216.077 189.323 214.451 176.105 216.311C162.887 218.17 149.876 223.651 139.643 233.47L118.773 96.4624C121.078 93.9729 123.764 91.8652 126.731 90.2185C140.407 82.2495 156.943 81.0636 172.769 81.3062C188.594 81.5488 204.645 83.0042 220.111 79.6172C226.248 125.606 235.042 171.202 246.448 216.176C246.487 216.335 246.508 216.497 246.511 216.661V216.652Z" fill="white"/>
<path d="M245.162 216.652C245.162 217.389 244.362 217.766 243.813 218.126C243.094 218.605 242.336 219.022 241.547 219.374C240.057 220.033 238.484 220.487 236.872 220.722C233.58 221.145 230.242 221.048 226.981 220.435C219.508 219.213 212.27 216.841 204.789 215.646C189.548 213.157 173.632 213.562 159.164 219.41C151.592 222.448 144.663 226.889 138.744 232.5L141.001 233.093L138.915 219.437L133.915 186.654L127.882 147.124L122.675 112.984L120.949 101.7C120.679 99.9035 120.544 98.1067 120.131 96.3099V96.0853L119.78 97.397C124.105 92.6174 130.175 89.4819 136.163 87.3078C142.234 85.1775 148.547 83.8133 154.956 83.247C168.749 81.8724 182.597 83.193 196.417 83.1571C204.51 83.2477 212.589 82.492 220.524 80.9021L218.816 79.5994C221.214 97.7054 224.037 115.746 227.286 133.72C230.535 151.694 234.165 169.546 238.175 187.274C239.308 192.257 240.474 197.244 241.673 202.233C242.267 204.721 242.878 207.21 243.472 209.69C243.786 210.965 244.11 212.25 244.425 213.526C244.795 214.531 245.054 215.573 245.198 216.634C245.198 218.368 247.895 218.368 247.895 216.634C247.821 215.839 247.655 215.056 247.401 214.298C247.104 213.095 246.798 211.882 246.502 210.705C245.953 208.504 245.405 206.303 244.874 204.101C243.801 199.687 242.755 195.273 241.736 190.859C239.632 181.947 237.663 172.998 235.828 164.014C232.142 146.178 228.845 128.263 225.937 110.271C224.307 100.089 222.808 89.8593 221.442 79.5814C221.435 79.3758 221.383 79.1742 221.289 78.9913C221.195 78.8084 221.061 78.6487 220.898 78.5239C220.734 78.3991 220.544 78.3124 220.343 78.27C220.142 78.2276 219.933 78.2306 219.733 78.2787C203.323 81.8275 186.463 79.9498 169.846 79.8959C155.073 79.8959 139.625 81.3064 126.533 88.7273C124.889 89.6541 123.309 90.6896 121.803 91.8268C120.248 92.8701 118.862 94.1457 117.694 95.6091C117.562 95.8317 117.478 96.0788 117.445 96.3353C117.413 96.5918 117.433 96.8522 117.505 97.1005L117.937 99.9574L119.96 113.191L123.107 133.855L126.875 158.525L130.777 184.148L134.311 207.264L137.008 224.81C137.449 227.667 137.791 230.551 138.321 233.39C138.321 233.515 138.321 233.65 138.375 233.776C138.537 234.827 139.976 234.998 140.632 234.369C151.422 224.055 165.809 218.323 180.619 217.101C189.036 216.483 197.498 216.951 205.796 218.494C213.331 219.833 220.65 222.294 228.275 223.283C232.003 223.867 235.807 223.742 239.488 222.914C241.306 222.464 243.048 221.75 244.658 220.794C246.331 219.788 247.842 218.701 247.94 216.616C247.94 214.918 245.243 214.918 245.162 216.652Z" fill="#2D2FEE"/>
<path d="M223.294 80.1385C226.144 97.8911 228.941 115.644 231.881 133.378C234.821 151.113 237.942 168.632 241.646 186.124C243.744 196.061 246.013 205.961 248.453 215.826C248.867 217.506 251.474 216.796 251.052 215.107C246.736 197.636 242.944 180.048 239.677 162.343C236.404 144.77 233.554 127.125 230.685 109.481C229.073 99.4604 227.466 89.4401 225.866 79.4198C225.587 77.7128 222.988 78.4405 223.258 80.1385H223.294Z" fill="#2D2FEE"/>
<path d="M143.501 237.891C158.811 227.49 177.011 222.171 195.518 222.69C200.733 222.834 205.922 223.462 211.02 224.567C212.711 224.927 213.439 222.33 211.74 221.962C193.036 218.016 173.564 220.06 156.089 227.802C151.209 229.957 146.54 232.562 142.143 235.582C140.713 236.552 142.062 238.888 143.501 237.909V237.891Z" fill="#2D2FEE"/>
<path d="M111.705 92.8419L27.8207 108.07L3.98333 112.4C1.90622 112.778 -0.242834 115.428 0.0269209 117.593L1.82529 132.327L6.11439 167.446L11.2937 209.878L15.7896 246.551C16.5209 252.499 17.2493 258.446 17.9746 264.394V264.654C18.0028 265.472 18.2079 266.273 18.5758 267.004C18.9437 267.734 19.4656 268.376 20.1057 268.886C20.7653 269.392 21.5315 269.741 22.3462 269.908C23.1609 270.074 24.0029 270.054 24.8084 269.847L36.0751 267.619L63.1405 262.229L95.7539 255.778L123.961 250.262C128.538 249.363 133.169 248.6 137.719 247.567H137.908C139.266 247.193 140.425 246.303 141.136 245.087C141.785 243.805 141.975 242.341 141.675 240.936L139.472 226.562L134.203 192.359L127.801 150.781L122.298 115.024C121.399 109.22 120.715 103.344 119.6 97.5675C119.6 97.4867 119.6 97.4058 119.6 97.3339C119.226 95.9762 118.336 94.8186 117.118 94.1086C115.859 93.3888 114.366 93.195 112.964 93.5696C109.916 94.5488 108.729 97.1632 109.197 100.2L111.4 114.574L116.669 148.777L123.071 190.356L128.547 226.005C129.446 231.817 130.184 237.684 131.245 243.461C131.249 243.542 131.249 243.623 131.245 243.703L135.012 237.073L123.745 239.301L96.6801 244.692L64.1386 251.16L35.9493 256.739C31.3634 257.638 26.7326 258.41 22.1828 259.435H21.994L28.8188 264.636L27.0204 249.902L22.7313 214.783L17.552 172.351L13.0561 135.678C12.3367 129.74 11.8062 123.738 10.8801 117.836V117.575L6.91466 122.777L90.7994 107.504L114.637 103.183C117.424 102.67 119.25 99.1487 118.413 96.5433C117.997 95.1861 117.077 94.0396 115.841 93.3395C114.605 92.6394 113.148 92.4388 111.768 92.779L111.705 92.8419Z" fill="#2D2FEE"/>
<path d="M31.696 250.963C31.7973 251.296 31.9753 251.602 32.2157 251.855C32.4562 252.107 32.7524 252.3 33.0807 252.418C42.9718 256.012 52.9347 249.525 61.6837 244.054C73.0854 236.93 85.3862 231.234 98.5502 228.916C111.714 226.598 125.768 227.82 138.528 234.01L116.084 97.2624C113.124 95.603 109.919 94.4234 106.589 93.7676C91.114 90.4165 75.0276 94.3785 60.0472 99.4904C45.0668 104.602 30.2483 110.927 14.4946 112.473C22.8416 158.108 28.5459 204.186 31.5791 250.478C31.5916 250.642 31.6217 250.805 31.669 250.963H31.696Z" fill="white"/>
<path d="M30.3925 251.322C31.5974 254.521 36.2551 254.835 39.2045 254.808C42.79 254.687 46.3162 253.859 49.581 252.374C56.6216 249.382 62.808 244.701 69.4889 241.036C82.7429 233.758 97.4895 228.79 112.758 229.204C121.456 229.401 130.015 231.434 137.872 235.169C138.104 235.297 138.369 235.354 138.633 235.334C138.897 235.315 139.15 235.218 139.361 235.057C139.572 234.896 139.731 234.678 139.819 234.428C139.908 234.178 139.921 233.908 139.859 233.651L138.852 227.802L136.325 212.376L132.728 190.545L128.619 165.506L124.51 140.44L120.913 118.528L118.378 102.923L117.658 98.5204C117.605 97.967 117.515 97.4178 117.388 96.8763C116.975 95.6095 114.691 94.9447 113.549 94.4775C111.668 93.6993 109.725 93.0802 107.74 92.6268C103.905 91.735 99.9874 91.2472 96.0508 91.1714C87.9338 91.1246 79.8501 92.2102 72.0336 94.3967C56.4238 98.4755 41.7312 105.456 26.0045 109.14C22.2179 110.043 18.3762 110.697 14.5039 111.098C14.2976 111.103 14.0949 111.154 13.911 111.247C13.727 111.341 13.5665 111.475 13.4413 111.638C13.3161 111.802 13.2294 111.992 13.1876 112.194C13.1459 112.396 13.1501 112.605 13.2001 112.805C16.4911 130.773 19.3715 148.802 21.8412 166.89C24.311 184.978 26.3671 203.144 28.0096 221.387C28.4652 226.52 28.8938 231.656 29.2955 236.795C29.4843 239.284 29.6731 241.781 29.844 244.279C29.9429 245.6 30.0328 246.929 30.1227 248.25C30.1026 249.272 30.1961 250.294 30.4015 251.295C30.905 252.949 33.5036 252.248 33.0001 250.577C32.848 249.735 32.7817 248.88 32.8023 248.025L32.5595 244.503C32.3977 242.222 32.2358 239.949 32.056 237.676C31.7143 233.118 31.3426 228.569 30.941 224.029C30.1437 214.937 29.2445 205.854 28.2434 196.78C26.2293 178.662 23.8135 160.592 20.996 142.57C19.3955 132.388 17.666 122.227 15.8077 112.086L14.5129 113.793C41.7312 111.098 65.7663 94.3787 93.3532 93.8576C100.78 93.7229 108.882 94.6393 115.428 98.3946L114.808 97.586L117.038 111.224L122.433 143.944L128.907 183.402L134.491 217.542L136.343 228.808C136.631 230.56 136.757 232.402 137.242 234.145C137.247 234.223 137.247 234.301 137.242 234.378L139.23 232.851C125.742 226.374 110.456 225.053 95.853 228.081C88.5688 229.659 81.497 232.092 74.7851 235.331C67.9963 238.538 61.7739 242.626 55.3178 246.426C51.8647 248.589 48.1314 250.27 44.2219 251.421C42.2979 251.943 40.3069 252.176 38.3143 252.113C37.373 252.068 36.4373 251.942 35.5178 251.736C34.8075 251.574 33.3238 251.403 33.0271 250.613C32.3887 248.996 29.781 249.696 30.3925 251.322Z" fill="#2D2FEE"/>
<path d="M8.9917 114.368C11.7522 132.03 14.5576 149.693 17.2192 167.374C19.8808 185.055 22.3625 202.87 24.2418 220.704C25.3029 230.73 26.2021 240.771 26.9394 250.828C27.0653 252.544 29.7628 252.561 29.6369 250.828C28.3481 232.859 26.5198 214.927 24.1519 197.031C21.823 179.233 19.0895 161.48 16.32 143.746C14.7555 133.713 13.1879 123.681 11.6173 113.649C11.3476 111.942 8.74892 112.661 9.01867 114.368H8.9917Z" fill="#2D2FEE"/>
<path d="M136.882 236.785C118.537 231.45 98.9721 232.05 80.9891 238.501C75.957 240.306 71.0994 242.565 66.4763 245.248C66.1812 245.435 65.97 245.729 65.8871 246.068C65.8043 246.407 65.8563 246.764 66.0322 247.066C66.2081 247.367 66.4942 247.589 66.8303 247.684C67.1664 247.779 67.5262 247.74 67.8341 247.575C83.9252 238.333 102.526 234.402 120.985 236.345C126.129 236.893 131.213 237.909 136.172 239.382C137.835 239.876 138.546 237.27 136.882 236.785Z" fill="#2D2FEE"/>
<path d="M37.3701 129.066C37.6129 124.771 44.9592 129.56 46.3619 130.018C47.9555 130.63 49.7064 130.699 51.3434 130.216C53.3846 129.506 53.8791 127.826 55.3178 126.514C59.0134 123.145 62.1875 125.849 66.1979 126.46C71.2333 127.224 75.5224 124.663 79.8026 122.426C83.2284 120.63 85.1977 121.483 88.7944 122.004C91.5493 122.377 94.3513 122.187 97.0309 121.447C99.135 120.917 98.2358 117.665 96.1317 118.195C93.2277 118.951 90.1816 118.975 87.2658 118.267C86.1832 117.914 85.069 117.668 83.9388 117.53C81.2412 117.44 79.0652 119.03 76.8083 120.225C72.708 122.426 69.1832 123.747 64.4715 122.57C62.0976 121.977 59.6788 120.872 57.1521 121.348C54.9132 121.771 53.7262 123.064 52.4134 124.798C49.2753 128.949 46.3979 125.885 42.7202 124.529C38.8448 123.109 34.2859 124.403 34.0162 129.021C33.8993 131.186 37.2712 131.177 37.3881 129.021L37.3701 129.066Z" fill="#2D2FEE"/>
<path d="M43.4574 157.626C43.7896 156.466 44.2416 155.342 44.8062 154.275L49.7877 153.305C50.2642 153.404 51.8198 154.904 52.3414 155.102C53.1587 155.422 54.0353 155.563 54.9119 155.515C55.7884 155.467 56.6444 155.231 57.4217 154.823C59.7776 153.718 60.9106 151.14 63.0327 149.972C65.5773 148.561 69.228 150.708 71.9166 150.96C77.2038 151.472 79.7035 148.606 83.3272 145.318C85.737 143.126 87.2836 142.865 90.3498 143.755C91.2166 144.144 92.1203 144.445 93.0474 144.653C95.2953 144.86 96.4373 142.758 98.3885 142.856C100.565 142.919 100.565 139.55 98.3885 139.487C96.9948 139.442 96.9228 139.712 95.691 140.179C94.1155 140.849 92.3398 140.875 90.7455 140.251C88.4436 139.604 86.7531 139.353 84.4512 140.431C81.9335 141.634 80.3419 143.898 78.2738 145.668C73.7779 149.505 70.0553 146.423 65.2177 146.064C64.4007 145.977 63.5747 146.07 62.7978 146.337C62.0209 146.604 61.3122 147.038 60.7217 147.609C57.9613 149.927 57.6465 152.874 52.2514 150.933C51.4332 150.637 50.7408 149.621 49.8776 149.271C44.6803 147.151 41.6051 152.73 40.2833 156.746C39.6089 158.803 42.864 159.693 43.5384 157.644L43.4574 157.626Z" fill="#2D2FEE"/>
<path d="M45.6153 180.231C45.912 175.936 48.7624 173.501 52.9886 174.939C55.1286 175.676 57.0169 176.655 59.3458 176.34C64.606 175.613 68.1938 168.192 73.9575 170.51C76.8619 171.678 78.4534 173.322 81.4747 171.058C82.9583 169.962 83.8215 168.264 85.2063 167.087C88.5602 164.23 92.8404 165.901 96.3921 167.428C98.3613 168.282 100.088 165.38 98.0916 164.526C93.5417 162.568 88.0028 160.6 83.6237 163.987C82.4368 164.886 81.7354 166.305 80.6025 167.231C78.3096 169.09 76.8978 168.048 74.7308 167.06C73.8022 166.66 72.8017 166.454 71.7905 166.454C70.7793 166.454 69.7787 166.66 68.8502 167.06C65.73 168.228 63.7698 171.058 60.7575 172.369C56.4235 174.283 53.2493 170.24 48.9782 170.995C44.7071 171.75 42.4771 176.206 42.1984 180.24C42.0455 182.405 45.4175 182.396 45.5703 180.24L45.6153 180.231Z" fill="#2D2FEE"/>
<path d="M49.6797 205.27C52.2513 203.877 53.726 201.676 55.7132 199.646C59.238 195.989 61.8007 197.552 65.856 199.098C71.6467 201.299 73.3821 199.268 77.5453 195.612C81.4118 192.243 85.3502 195.1 89.6843 195.279C92.9843 195.405 93.5778 193.707 95.8527 191.686C99.3775 188.559 102.444 190.203 106.409 190.787C108.522 191.102 110.15 190.931 111.561 189.269C112.973 187.607 110.581 185.226 109.179 186.888C107.776 188.55 102.3 186.098 99.9889 186.34C97.9548 186.553 96.0177 187.317 94.387 188.55C92.0851 190.293 92.274 191.883 88.6502 191.74C87.0317 191.677 85.3413 190.949 83.7317 190.716C81.0342 190.338 78.5974 190.545 76.3494 192.18C73.5709 194.201 72.3031 197.355 68.2568 196.42C65.4334 195.774 63.1314 193.725 60.0922 193.779C54.3374 193.779 52.4582 199.951 47.9982 202.359C46.0829 203.392 47.7914 206.303 49.6977 205.27H49.6797Z" fill="#2D2FEE"/>
<path d="M141.136 109.714C142.278 106.642 143.698 104.567 147.43 105.887C148.041 106.103 149.138 107.477 149.786 107.801C150.585 108.187 151.455 108.407 152.342 108.447C153.23 108.487 154.116 108.347 154.947 108.034C157.15 107.352 158.76 105.869 160.504 104.441C162.248 103.012 163.966 101.467 166.636 102.06C167.787 102.321 168.884 103.192 169.963 103.632C174.378 105.429 177.516 103.515 180.852 100.551C182.876 98.7538 183.901 97.5949 186.715 99.1401C187.56 99.5983 188.181 100.596 189.062 101.072C189.839 101.551 190.73 101.816 191.642 101.839C192.555 101.863 193.458 101.645 194.259 101.206C196.228 100.308 194.52 97.4152 192.551 98.2956C190.348 99.2929 187.65 94.8188 185.115 94.5133C183.226 94.2887 181.716 95.2141 180.313 96.364C178.91 97.514 177.481 99.769 175.592 100.434C172.967 101.332 171.384 100.353 169.064 99.4366C166.987 98.6191 165.27 98.1698 163.076 98.8796C160.738 99.6253 159.047 101.422 157.15 102.887C154.363 105.034 153.293 105.51 149.813 103.47C148.824 102.896 148.356 102.006 147.187 101.602C142.251 99.8589 139.31 104.998 137.899 108.789C137.143 110.828 140.398 111.7 141.154 109.687L141.136 109.714Z" fill="#2D2FEE"/>
<path d="M179.711 114.88L185.528 138.437C185.629 138.791 185.842 139.104 186.136 139.327C186.429 139.551 186.787 139.673 187.156 139.677C194.911 139.062 202.586 137.678 210.067 135.544C212.153 134.951 211.272 131.699 209.168 132.301C201.978 134.36 194.602 135.703 187.147 136.308L188.774 137.538L182.966 113.991C182.444 111.88 179.189 112.778 179.711 114.889V114.88Z" fill="#2D2FEE"/>
<path d="M182.894 115.248C190.276 113.593 197.753 112.393 205.283 111.655L203.602 109.966C203.228 117.353 204.282 124.744 206.704 131.734C207.405 133.774 210.669 132.893 209.959 130.836C207.624 124.137 206.611 117.05 206.974 109.966C206.965 109.529 206.786 109.112 206.476 108.804C206.166 108.495 205.748 108.319 205.31 108.312C197.479 109.063 189.702 110.293 182.021 111.996C179.908 112.472 180.799 115.715 182.921 115.248H182.894Z" fill="#2D2FEE"/>
<path d="M149.138 129.803C150.586 126.209 158.679 131.599 161.376 131.599C164.496 131.599 169.747 126.29 172.166 128.572C173.749 130.054 176.141 127.673 174.549 126.191C173.857 125.495 172.996 124.99 172.051 124.726C171.105 124.461 170.107 124.446 169.154 124.682C167.898 124.999 166.709 125.534 165.638 126.263C162.635 128.06 160.45 128.356 157.078 126.811C153.068 125.014 147.861 123.927 145.838 128.913C145.029 130.917 148.284 131.797 149.093 129.812L149.138 129.803Z" fill="#2D2FEE"/>
<path d="M57.1249 216.635C57.5025 214.928 60.1551 214.515 61.5039 214.703C62.6316 214.963 63.7451 215.281 64.8399 215.655C66.2012 216.087 67.6326 216.255 69.057 216.15C72.5099 215.736 76.808 209.519 79.8472 211.361C81.6995 212.493 83.399 209.564 81.5467 208.45C80.6024 207.843 79.5058 207.514 78.3829 207.501C77.26 207.489 76.1562 207.793 75.1984 208.378C73.993 209.147 72.8798 210.051 71.8804 211.074C69.5246 213.023 67.2047 212.816 64.4262 212.026C60.4968 210.912 55.0028 210.768 53.9058 215.745C53.4382 217.857 56.6843 218.764 57.1518 216.644L57.1249 216.635Z" fill="#2D2FEE"/>
<path d="M148.572 159.585C147.808 149.02 160.855 159.064 165.27 159.37C171.213 159.765 174.415 153.701 179.963 153.009C183.406 152.578 186.581 152.874 190.024 152.182C194.439 151.284 197.218 152.901 201.381 153.755C205.544 154.608 210.022 153.476 211.569 149.155C212.297 147.106 209.042 146.226 208.314 148.256C206.461 153.458 198.737 149.092 195.527 148.472C192.695 147.933 190.501 148.742 187.776 149.326C184.117 150.125 180.385 148.93 176.806 150.224C174.271 151.122 172.409 153.072 170.152 154.438C163.382 158.543 159.479 151.401 152.915 151.203C151.836 151.18 150.764 151.388 149.771 151.812C148.778 152.235 147.887 152.865 147.157 153.66C146.427 154.455 145.875 155.396 145.537 156.421C145.2 157.446 145.085 158.531 145.2 159.603C145.353 161.751 148.725 161.769 148.572 159.603V159.585Z" fill="#2D2FEE"/>
<path d="M153.157 178.011C154.731 175.757 156.973 174.054 159.567 173.141C162.161 172.229 164.977 172.154 167.616 172.926C171.681 174.175 174.45 177.787 179.054 176.996C181.023 176.664 182.651 175.487 184.566 174.858C187.533 173.861 190.195 174.759 193.225 174.795C198.012 174.789 202.705 173.461 206.785 170.959C208.646 169.854 206.956 166.943 205.076 168.048C201.944 169.989 198.385 171.139 194.709 171.399C191.957 171.543 189.251 170.662 186.526 170.86C184.521 171.013 182.929 171.938 181.131 172.657C176.338 174.615 174.468 172.333 170.512 170.465C163.264 167.042 154.686 169.881 150.217 176.295C148.976 178.092 151.899 179.763 153.131 177.993L153.157 178.011Z" fill="#2D2FEE"/>
<path d="M159.41 39.5786C161.51 31.1479 156.865 22.7343 149.034 20.7865C141.203 18.8386 133.152 24.094 131.052 32.5248C128.951 40.9555 133.596 49.3691 141.427 51.317C149.258 53.2648 157.309 48.0094 159.41 39.5786Z" stroke="#2D2FEE" stroke-width="6" stroke-miterlimit="10" stroke-linecap="round"/>
<path d="M202.016 43.6001C204.117 35.1694 199.472 26.7558 191.641 24.8079C183.81 22.8601 175.759 28.1155 173.658 36.5463C171.557 44.9771 176.203 53.3906 184.033 55.3384C191.864 57.2863 199.915 52.0309 202.016 43.6001Z" stroke="#2D2FEE" stroke-width="6" stroke-miterlimit="10" stroke-linecap="round"/>
<path d="M161.178 35.829C162.8 34.6662 164.756 34.0603 166.752 34.1024C168.748 34.1446 170.676 34.8324 172.247 36.0626C173.983 37.3563 175.664 34.4365 173.947 33.1518C171.859 31.6147 169.343 30.7662 166.75 30.7243C164.157 30.6824 161.616 31.4493 159.479 32.9182C157.681 34.14 159.389 37.0599 161.178 35.829Z" fill="#2D2FEE"/>
<path d="M181.356 24.6257C174.315 17.7618 167.562 10.1433 159.991 3.88136C156.538 1.01542 149.804 0.539261 149.929 6.6305C149.929 8.79567 153.346 8.80466 153.301 6.6305L156.529 5.47155C157.237 5.92781 157.894 6.45785 158.49 7.05275C159.29 7.7625 160.036 8.5531 160.801 9.29879L167.095 15.408L179 27.0065C180.556 28.5248 182.938 26.1081 181.383 24.6257H181.356Z" fill="#2D2FEE"/>
<path d="M134.356 26.4224C126.542 18.6602 119.007 10.3678 110.797 3.06371C108.819 1.26688 106.301 -0.467049 103.496 0.16184C102.238 0.398933 101.11 1.09035 100.329 2.10433C99.5483 3.11832 99.168 4.38398 99.2608 5.66012C99.3957 7.80733 102.768 7.8253 102.633 5.66012C102.3 -0.0627674 108.927 5.92965 109.377 6.37885C110.276 7.18743 111.058 8.0499 111.885 8.87644L118.791 15.7313L131.973 28.8302C133.511 30.3575 135.893 27.9767 134.356 26.4494V26.4224Z" fill="#2D2FEE"/>
<path d="M48.133 58.8101C45.1285 57.6865 42.2576 56.2342 39.5727 54.4797C38.1053 53.5014 36.7299 52.3918 35.4635 51.1646C34.6542 50.383 32.1545 48.2537 32.2084 47.1487C31.7409 46.5557 31.9477 46.3491 32.8379 46.5378C33.0483 46.4303 33.2864 46.3891 33.5208 46.4195C33.7552 46.45 33.9748 46.5507 34.1507 46.7084C34.9546 47.1176 35.6865 47.6547 36.3177 48.2986C37.4836 49.3692 38.5546 50.5385 39.5188 51.7935C41.9473 54.8207 44.1904 57.9919 46.2357 61.2897L48.5376 58.9808C42.7321 54.6245 37.4916 49.5635 32.9368 43.9144L30.5539 46.3221L37.6845 53.0872C37.9794 53.3563 38.3598 53.513 38.7589 53.5297C39.158 53.5465 39.5502 53.4223 39.8667 53.1789C40.1833 52.9356 40.4039 52.5886 40.4899 52.1988C40.5759 51.8091 40.5218 51.4016 40.3371 51.0478L38.6466 47.5889L36.003 49.6283L39.321 52.9434C40.7776 54.3899 42.6839 52.5661 41.9736 50.904C41.5936 50.0234 41.0643 49.2149 40.409 48.5143C39.1411 47.0858 36.7223 48.9455 37.7114 50.5537L40.1752 54.3809C41.3441 56.1777 44.2665 54.5157 43.0886 52.6829L40.6248 48.8557L38.0621 50.8681C38.5348 51.3491 38.8889 51.9336 39.0962 52.5751L41.7398 50.5357L38.3858 47.2206C36.9741 45.819 34.915 47.5889 35.6883 49.26L37.3787 52.7188L40.0223 50.6794L32.8918 43.9144C31.2823 42.3871 29.1692 44.6421 30.509 46.2952C35.2645 52.1525 40.7351 57.3921 46.7932 61.8916C48.1779 62.9248 49.9493 60.9393 49.0951 59.5827C46.0469 54.7403 42.6569 49.3228 38.3049 45.5585C36.0569 43.6359 31.0305 40.5813 28.9444 44.3726C26.9752 47.9662 31.5341 52.1798 33.827 54.2551C37.7794 57.6541 42.324 60.2975 47.2338 62.0533C49.2569 62.835 50.1292 59.5827 48.133 58.8011V58.8101Z" fill="#2D2FEE"/>
<path d="M34.8794 49.2692L34.7265 48.8379C34.6795 48.6237 34.5772 48.4255 34.4298 48.2629C34.3095 48.0817 34.1456 47.9334 33.9532 47.8317C33.5545 47.6264 33.0968 47.5661 32.6584 47.661L32.2538 47.8317C32.0046 47.9773 31.7971 48.1846 31.6513 48.4336L31.4805 48.8379C31.3997 49.132 31.3997 49.4423 31.4805 49.7363L31.6243 50.1586C31.6727 50.3742 31.7783 50.5728 31.9301 50.7336C32.0444 50.9166 32.2059 51.0655 32.3976 51.1648C32.5868 51.2852 32.8033 51.3563 33.0271 51.3714C33.2481 51.4297 33.4804 51.4297 33.7015 51.3714L34.0971 51.2007C34.3509 51.058 34.562 50.8502 34.7085 50.5988L34.8794 50.1945C34.9619 49.9007 34.9619 49.5899 34.8794 49.2961V49.2692Z" fill="#2D2FEE"/>
<path d="M34.9063 48.8379H34.8613C32.7123 48.6133 32.7213 51.9823 34.8613 52.2069H34.9063C37.0643 52.4315 37.0464 49.0625 34.9063 48.8379H34.8613C32.7123 48.6133 32.7213 51.9823 34.8613 52.2069H34.9063C37.0643 52.4315 37.0464 49.0625 34.9063 48.8379Z" fill="#2D2FEE"/>
<path d="M67.3035 54.9027C65.4422 52.1266 60.6316 47.904 61.7735 44.2026L62.1782 43.0975C63.6888 42.3249 64.2883 42.6663 63.9766 44.1217C64.3902 45.083 64.1474 46.8708 64.2103 47.8861L64.6869 55.4147L67.825 54.5163C66.9259 52.7195 66.0267 50.8328 65.2624 48.9192C64.6869 47.4728 63.2572 44.8314 64.2733 43.3041H61.3599H61.4139L64.2373 44.0408L62.34 43.9151L64.4082 42.7381L64.8487 44.2026H62.4659L62.6817 44.3912L62.412 42.3518L62.2591 42.7202L63.7158 41.8846H63.3741L65.0016 43.1245L64.4171 44.3733L62.7806 43.942C62.5918 43.7534 61.8365 46.0802 61.8185 46.1701C61.6608 47.1919 61.6974 48.2344 61.9264 49.2426C62.6006 51.8593 63.4723 54.4211 64.534 56.9061C65.2714 58.9275 68.5264 58.0561 67.7891 56.0077C66.8899 53.4832 64.8308 49.9434 65.0915 47.2032C65.2444 45.4963 66.8899 44.1487 65.9188 42.3698C65.6808 41.849 65.2514 41.4397 64.7194 41.2268C64.1875 41.0138 63.594 41.0137 63.062 41.2263C62.53 41.439 62.1003 41.848 61.8621 42.3687C61.6238 42.8894 61.5954 43.4818 61.7825 44.0229C61.8808 44.3765 62.0921 44.6883 62.3844 44.9105C62.6767 45.1328 63.0338 45.2533 63.4011 45.2537H63.7428C64.0377 45.2551 64.3279 45.1786 64.5837 45.0319C64.8395 44.8851 65.0519 44.6734 65.1994 44.4182L65.3523 44.0588C65.5249 43.732 65.5925 43.36 65.5458 42.9935C65.4991 42.6269 65.3405 42.2836 65.0915 42.0104L64.8757 41.8218C64.5568 41.5117 64.1293 41.3382 63.6843 41.3382C63.2393 41.3382 62.8118 41.5117 62.4929 41.8218C61.0542 43.3311 61.6746 45.2717 63.5449 45.9904C63.9753 46.1063 64.4341 46.0476 64.8214 45.8272C65.2087 45.6068 65.4933 45.2425 65.6131 44.8135C66.2874 40.1058 59.5975 40.8784 61.0092 44.9393C61.0946 45.2188 61.2499 45.472 61.4606 45.6747C61.6713 45.8774 61.9303 46.0231 62.2131 46.0978C62.4959 46.1724 62.7931 46.1737 63.0765 46.1015C63.36 46.0292 63.6202 45.8858 63.8327 45.6849C64.4407 45.2011 64.8315 44.4959 64.9191 43.7243C65.0068 42.9527 64.7842 42.1779 64.3002 41.5702C64.1459 41.3233 63.9312 41.1196 63.6764 40.9785C63.4215 40.8373 63.135 40.7632 62.8436 40.7632C62.5522 40.7632 62.2656 40.8373 62.0108 40.9785C61.7559 41.1196 61.5413 41.3233 61.3869 41.5702C58.6894 45.658 63.0324 52.441 64.9836 56.1784C65.1754 56.4904 65.4629 56.7321 65.8033 56.8675C66.1437 57.0029 66.5188 57.0248 66.8727 56.9298C67.2266 56.8349 67.5402 56.6282 67.767 56.3406C67.9937 56.053 68.1213 55.6999 68.1308 55.3339L67.6182 47.1763C67.5013 45.2627 67.6902 42.8999 67.0607 41.0581C66.1166 38.3629 63.1763 37.9047 60.9553 39.5128C54.4452 44.2295 61.5757 52.1715 64.4801 56.5198C65.685 58.3166 68.6073 56.6276 67.3934 54.8218L67.3035 54.9027Z" fill="#2D2FEE"/>
<path d="M36.1651 69.6805C31.9119 69.7793 26.9664 70.4981 22.8482 69.1774L21.2836 68.5126C21.4154 68.7393 21.6223 68.9128 21.8687 69.003C22.115 69.0933 22.3852 69.0946 22.6324 69.0067C23.7256 69.0652 24.8212 69.0652 25.9144 69.0067C29.1144 69.2768 32.238 70.1293 35.131 71.5223L35.9762 68.3868C33.0666 68.6323 30.1442 68.6893 27.2272 68.5575C24.7095 68.4317 20.6992 68.6384 18.5681 67.1021L18.9098 69.7973C20.0607 68.4946 24.3049 69.0965 25.7076 69.2852C27.9376 69.5817 30.4193 70.0129 32.0019 71.7648L33.6384 68.9528L21.5084 66.1498L21.0588 69.4649C25.9073 69.0712 30.779 69.8573 35.2569 71.7558L35.7065 68.4497C29.8365 68.4547 23.9727 68.0675 18.1545 67.2907L19.3324 69.3661C19.6651 68.5485 25.222 69.1954 25.7525 69.2583C28.1047 69.5722 30.398 70.2291 32.5594 71.2078C34.5286 72.1062 36.246 69.1774 34.2678 68.297C30.6567 66.622 26.7303 65.7338 22.7493 65.6916C20.0517 65.6916 17.2193 65.6916 16.0774 68.4676C16.0187 68.6806 16.0027 68.903 16.0301 69.1222C16.0576 69.3414 16.128 69.5529 16.2375 69.7449C16.3469 69.9368 16.4931 70.1053 16.6677 70.2407C16.8424 70.3761 17.042 70.4758 17.2553 70.534C23.3699 71.3749 29.5342 71.8041 35.7065 71.8187C37.7476 71.8187 37.8106 69.1954 36.1561 68.5036C31.3847 66.4981 26.2003 65.6692 21.0408 66.0869C19.2425 66.2216 18.631 68.9348 20.6002 69.393L32.7212 72.1871C33.0774 72.2751 33.4524 72.2455 33.7904 72.1029C34.1283 71.9603 34.411 71.7122 34.5962 71.3957C34.7814 71.0793 34.8591 70.7115 34.8177 70.3473C34.7763 69.9831 34.6181 69.642 34.3667 69.3751C32.1098 66.8415 28.54 66.1587 25.294 65.7814C22.6504 65.5209 18.4872 65.1345 16.5179 67.3626C16.3421 67.5476 16.2097 67.7693 16.1304 68.0119C16.0512 68.2544 16.027 68.5115 16.0598 68.7645C16.0925 69.0175 16.1813 69.26 16.3196 69.4745C16.458 69.6889 16.6425 69.8697 16.8596 70.0039C18.9547 71.5043 22.0659 71.4953 24.5387 71.7289C28.3441 72.0569 32.1708 72.0569 35.9762 71.7289C37.4779 71.6121 38.485 69.3661 36.8305 68.5934C32.8175 66.629 28.4138 65.5912 23.9452 65.5568C21.8411 65.5568 17.7498 65.3771 17.4081 68.3329C16.6528 74.7296 33.0629 73.0765 36.1651 73.0046C38.3321 73.0046 38.3411 69.5907 36.1651 69.6356V69.6805Z" fill="#2D2FEE"/>
</g>
<defs>
<clipPath id="clip0">
<rect width="264" height="270" fill="white"/>
</clipPath>
</defs>
</svg>
