<svg width="138" height="123" viewBox="0 0 138 123" fill="none" xmlns="http://www.w3.org/2000/svg">
<path d="M31.0342 75.0652C26.8989 76.962 22.1819 72.536 21.8531 67.9582C21.5243 63.3804 23.8132 59.2073 25.5837 55.0215C29.8581 44.9049 31.0975 33.8525 33.4749 23.1415C34.9293 16.6036 37.1423 9.67366 42.5296 5.69023C48.1192 1.5424 55.6817 1.63093 62.6244 2.09882C83.9422 3.55776 105.07 7.06416 125.716 12.5696C129.637 13.6192 134.063 15.1872 135.504 18.981C136.478 21.5101 135.783 24.3681 135.1 26.9984L120.759 81.3754C119.646 85.5865 118.23 90.2275 114.284 92.2508C112.614 92.9814 110.82 93.3849 108.998 93.4395C96.5415 94.4385 84.0091 92.3646 71.9826 88.9882C65.3676 87.1329 58.8687 84.8864 52.5201 82.2606" fill="white"/>
<path d="M30.5284 73.2315C26.5322 74.8628 23.6109 70.0827 23.7247 66.6177C23.8638 61.7744 26.8357 57.2851 28.4671 52.8464C31.9953 43.2735 33.1588 33.081 35.4098 23.1793C36.1728 19.048 37.64 15.0785 39.7474 11.444C40.9049 9.63208 42.4169 8.07292 44.1924 6.86028C45.968 5.64764 47.9705 4.80658 50.0794 4.38766C54.5815 3.38864 59.2858 3.71744 63.8384 4.04623C69.2173 4.42561 74.5835 4.93987 79.9371 5.58902C90.6611 6.8536 101.334 8.73783 111.881 11.1026C116.94 12.2154 121.998 13.3283 126.918 14.8963C130.927 16.1609 134.505 18.2475 134.025 22.9897C133.599 25.5245 132.994 28.0261 132.216 30.476L130.041 38.7211L125.855 54.6042L121.594 70.7782C120.329 75.5836 119.381 80.6293 117.572 85.2576C116.944 87.1264 115.8 88.7793 114.271 90.0251C112.337 91.4288 109.782 91.492 107.493 91.6311C102.164 91.9349 96.8182 91.7571 91.521 91.1C80.8742 89.6719 70.4245 87.0373 60.3734 83.247C57.8441 82.3491 55.454 81.4007 53.0259 80.389C50.5979 79.3773 49.7885 83.1331 52.0143 84.0563C62.817 88.6225 74.0956 91.969 85.6405 94.0338C91.3595 95.0529 97.1567 95.5692 102.966 95.5766C107.91 95.5766 113.968 95.779 117.749 92.0358C121.075 88.7352 122.087 83.7907 123.238 79.39L127.904 61.6858C131.002 49.9379 134.316 38.2279 137.199 26.4293C137.994 23.9337 138.069 21.2642 137.414 18.728C136.717 16.7132 135.386 14.9784 133.62 13.7835C129.687 11.0014 124.325 10.1921 119.709 9.06662C108.25 6.25796 96.6498 4.05872 84.9576 2.47815C79.153 1.69411 73.3231 1.03652 67.4805 0.555984C62.2815 -0.0822767 57.0297 -0.171287 51.812 0.290423C47.0024 0.729037 42.4933 2.82039 39.0519 6.20866C36.0308 9.63742 33.8641 13.7324 32.7288 18.159C29.6684 28.6044 28.935 39.5683 25.4194 49.9252C23.7374 54.9836 20.7149 59.7131 20.0194 65.0117C19.425 69.5136 21.284 74.3317 25.4446 76.4814C26.3617 76.9864 27.3787 77.2833 28.4234 77.3511C29.4681 77.4188 30.5149 77.2558 31.4895 76.8735C33.7152 75.963 32.7541 72.2957 30.4778 73.2188L30.5284 73.2315Z" fill="#2D2FEE"/>
<path d="M123.073 23.9887C127.041 22.8988 131.081 22.0875 135.163 21.5607C135.662 21.5479 136.137 21.3439 136.49 20.9909C136.843 20.6379 137.047 20.1629 137.06 19.6638C137.06 18.7407 136.225 17.6405 135.163 17.7669C130.72 18.294 126.32 19.1392 121.998 20.2961C121.751 20.3565 121.52 20.4658 121.316 20.6175C121.112 20.7692 120.941 20.9602 120.813 21.1792C120.685 21.3982 120.602 21.6407 120.569 21.8924C120.536 22.1441 120.554 22.3998 120.621 22.6445C120.689 22.8891 120.805 23.1176 120.963 23.3166C121.121 23.5155 121.317 23.6808 121.539 23.8026C121.762 23.9244 122.007 24.0003 122.26 24.0257C122.512 24.0512 122.767 24.0257 123.01 23.9507L123.073 23.9887Z" fill="#2D2FEE"/>
<path d="M120.62 22.9644C118.614 35.3826 116.164 47.7165 113.273 59.966C110.743 70.8414 108.379 82.4756 101.537 91.5806C100.083 93.5407 103.371 95.3743 104.812 93.5027C111.717 84.2839 114.183 72.5486 116.801 61.5594C119.752 49.1328 122.243 36.6008 124.275 23.9634C124.667 21.5734 121.012 20.5364 120.62 22.9517V22.9644Z" fill="#2D2FEE"/>
<path d="M42.8336 8.1561C64.0413 12.7339 85.2364 17.4255 106.558 21.4215C112.414 22.6592 118.36 23.4288 124.338 23.7231C126.779 23.7863 126.779 19.9926 124.338 19.9293C119.093 19.6976 113.874 19.0463 108.733 17.9819C103.434 17.0082 98.1355 15.9712 92.8493 14.909C82.353 12.7971 71.8946 10.5588 61.4236 8.2952L43.8074 4.50146C41.4299 3.98298 40.4056 7.63762 42.7958 8.1561H42.8336Z" fill="#2D2FEE"/>
<path d="M65.3059 10.7232L73.5386 6.15801C73.9534 5.903 74.2552 5.49913 74.3821 5.029C74.5091 4.55887 74.4516 4.058 74.2214 3.62885C73.9623 3.21861 73.5584 2.92073 73.0899 2.79425C72.6215 2.66776 72.1226 2.72192 71.6922 2.94597L63.4595 7.51111C63.2348 7.63143 63.0367 7.7958 62.8769 7.9944C62.7171 8.193 62.599 8.42176 62.5296 8.66702C62.4603 8.91228 62.441 9.16901 62.4731 9.42187C62.5051 9.67473 62.5878 9.91853 62.7162 10.1387C62.8446 10.3589 63.016 10.551 63.2203 10.7034C63.4246 10.8559 63.6575 10.9656 63.9051 11.0261C64.1527 11.0865 64.41 11.0965 64.6615 11.0553C64.9131 11.0141 65.1537 10.9226 65.3691 10.7864L65.3059 10.7232Z" fill="#2D2FEE"/>
<path d="M73.589 13.2017C77.1038 11.3896 80.5228 9.39737 83.8323 7.23292C84.2667 6.97803 84.582 6.56104 84.7089 6.07369C84.8358 5.58634 84.7639 5.06854 84.509 4.63421C84.3827 4.41915 84.2154 4.23106 84.0165 4.08068C83.8176 3.93029 83.591 3.82055 83.3497 3.75773C82.8623 3.63085 82.3445 3.70277 81.9102 3.95766C78.6066 6.12476 75.1917 8.11711 71.6794 9.92649C71.2622 10.1793 70.9584 10.5832 70.8312 11.0543C70.704 11.5253 70.7633 12.0272 70.9965 12.4557C71.2577 12.8636 71.6615 13.1596 72.1292 13.2859C72.5968 13.4122 73.0948 13.3596 73.5258 13.1385L73.589 13.2017Z" fill="#2D2FEE"/>
<path d="M86.2855 16.1609C87.9042 14.8963 89.447 13.6318 91.344 12.3672C93.2409 11.1026 94.9861 9.97712 96.8704 8.90222C97.0951 8.78191 97.2933 8.61754 97.453 8.41894C97.6128 8.22034 97.7308 7.99158 97.8002 7.74632C97.8696 7.50106 97.8888 7.24434 97.8568 6.99148C97.8247 6.73862 97.7421 6.49481 97.6137 6.27462C97.4853 6.05442 97.3139 5.86236 97.1096 5.7099C96.9054 5.55744 96.6724 5.4477 96.4248 5.38725C96.1772 5.3268 95.9199 5.31687 95.6684 5.35806C95.4169 5.39924 95.1762 5.4907 94.9608 5.62697C90.9888 7.90875 87.2116 10.5142 83.6678 13.4168C83.3156 13.7741 83.1182 14.2556 83.1182 14.7572C83.1182 15.2589 83.3156 15.7404 83.6678 16.0977C84.0297 16.441 84.5095 16.6324 85.0083 16.6324C85.5071 16.6324 85.9869 16.441 86.3488 16.0977L86.2855 16.1609Z" fill="#2D2FEE"/>
<path d="M98.7673 18.7027L104.104 14.4158C105.648 13.0155 107.345 11.7938 109.162 10.7738C109.58 10.5209 109.883 10.117 110.011 9.64603C110.138 9.17502 110.079 8.67312 109.845 8.24463C109.586 7.8344 109.182 7.53651 108.714 7.41003C108.245 7.28355 107.746 7.3377 107.316 7.56176C105.262 8.69986 103.337 10.0566 101.575 11.6084L96.0483 16.0218C95.8709 16.1971 95.7301 16.4058 95.6339 16.6359C95.5378 16.866 95.4883 17.1129 95.4883 17.3623C95.4883 17.6116 95.5378 17.8585 95.6339 18.0886C95.7301 18.3187 95.8709 18.5275 96.0483 18.7027C96.4102 19.0461 96.89 19.2375 97.3888 19.2375C97.8877 19.2375 98.3675 19.0461 98.7293 18.7027H98.7673Z" fill="#2D2FEE"/>
<path d="M109.846 21.3078C113.933 18.9369 117.892 16.3536 121.708 13.5685C122.132 13.3061 122.44 12.8909 122.567 12.4085C122.694 11.9262 122.631 11.4135 122.391 10.9761C122.135 10.5446 121.72 10.2311 121.235 10.1033C120.75 9.9755 120.234 10.0437 119.799 10.2932C115.972 13.082 112 15.6654 107.899 18.0325C107.464 18.2874 107.149 18.7044 107.022 19.1917C106.895 19.6791 106.967 20.1969 107.222 20.6312C107.477 21.0655 107.894 21.3808 108.381 21.5077C108.869 21.6346 109.387 21.5627 109.821 21.3078H109.846Z" fill="#2D2FEE"/>
<path d="M58.3755 9.45862C59.2354 8.64929 60.1459 7.87789 61.0817 7.14444L60.7023 7.44793C61.5623 6.7777 62.4602 6.18335 63.3707 5.55106C63.7858 5.28846 64.0829 4.87509 64.1994 4.39791C64.3159 3.92074 64.2428 3.41698 63.9954 2.99264C63.748 2.56831 63.3456 2.25647 62.8729 2.12277C62.4003 1.98907 61.8942 2.04393 61.4612 2.2758C59.4074 3.59982 57.4772 5.10657 55.6944 6.77771C55.3392 7.13337 55.1396 7.6155 55.1396 8.11817C55.1396 8.62084 55.3392 9.10296 55.6944 9.45862C56.0533 9.80778 56.5343 10.0031 57.035 10.0031C57.5357 10.0031 58.0166 9.80778 58.3755 9.45862Z" fill="#2D2FEE"/>
<path d="M107.898 86.3578L112.742 91.8335C113.099 92.1856 113.581 92.383 114.082 92.383C114.584 92.383 115.065 92.1856 115.423 91.8335C115.77 91.471 115.963 90.9885 115.963 90.4867C115.963 89.9849 115.77 89.5024 115.423 89.1399L110.579 83.6643C110.222 83.3121 109.74 83.1147 109.239 83.1147C108.737 83.1147 108.255 83.3121 107.898 83.6643C107.551 84.0268 107.357 84.5092 107.357 85.0111C107.357 85.5129 107.551 85.9954 107.898 86.3578Z" fill="#2D2FEE"/>
<path d="M110.87 78.6944C112.867 80.9393 115.009 83.0514 117.281 85.0173C117.641 85.3664 118.12 85.5653 118.622 85.5737C118.997 85.5734 119.363 85.462 119.675 85.2535C119.986 85.0451 120.229 84.7489 120.373 84.4025C120.516 84.0561 120.554 83.675 120.481 83.3073C120.408 82.9395 120.227 82.6017 119.962 82.3364C117.69 80.3705 115.548 78.2584 113.551 76.0135C113.193 75.6613 112.712 75.4639 112.21 75.4639C111.708 75.4639 111.227 75.6613 110.87 76.0135C110.523 76.3739 110.33 76.8542 110.33 77.3539C110.33 77.8537 110.523 78.334 110.87 78.6944Z" fill="#2D2FEE"/>
<path d="M113.033 70.2977C114.898 73.3816 117.31 76.0987 120.152 78.3151C120.371 78.4454 120.614 78.5295 120.866 78.5621C121.119 78.5948 121.375 78.5752 121.619 78.5048C122.092 78.3754 122.496 78.067 122.745 77.6449C122.874 77.4259 122.958 77.1835 122.993 76.9317C123.028 76.6799 123.012 76.4237 122.947 76.178C122.79 75.7127 122.483 75.3125 122.075 75.0398C121.872 74.9007 122.075 75.0398 122.075 75.1031C122.075 75.1663 121.898 74.964 121.809 74.8881L121.354 74.5087L120.532 73.7373C119.95 73.1683 119.406 72.5739 118.875 71.9669C118.635 71.6761 118.382 71.3852 118.142 71.0817L118.015 70.8794V70.8035L117.952 70.7276L117.75 70.4621C117.269 69.8045 116.814 69.1343 116.384 68.4514C116.121 68.0363 115.708 67.7392 115.231 67.6227C114.753 67.5062 114.25 67.5794 113.825 67.8268C113.401 68.0742 113.089 68.4765 112.955 68.9492C112.822 69.4218 112.877 69.9279 113.108 70.3609L113.033 70.2977Z" fill="#2D2FEE"/>
<path d="M114.74 60.7627C117.222 63.0385 119.582 65.4446 121.809 67.9708C122.166 68.323 122.648 68.5204 123.149 68.5204C123.651 68.5204 124.133 68.323 124.49 67.9708C124.837 67.6083 125.031 67.1259 125.031 66.624C125.031 66.1222 124.837 65.6398 124.49 65.2773C122.259 62.7582 119.9 60.3564 117.421 58.0818C117.061 57.7467 116.585 57.5643 116.094 57.573C115.603 57.5817 115.134 57.7807 114.786 58.1283C114.439 58.4758 114.239 58.9447 114.231 59.4361C114.222 59.9275 114.405 60.4031 114.74 60.7627Z" fill="#2D2FEE"/>
<path d="M117.041 51.0634C117.42 51.3037 117.787 51.5566 118.154 51.8221C118.52 52.0877 118.52 52.0877 118.697 52.2268L118.912 52.3912C118.52 52.1636 118.912 52.3912 118.912 52.3912C119.595 52.9476 120.253 53.5167 120.898 54.1237C121.543 54.7307 122.163 55.3883 122.719 56.0206C123.022 56.3662 123.313 56.7076 123.592 57.0449C123.592 57.1207 123.705 57.1966 123.769 57.2599C123.832 57.3231 124.047 57.6266 123.87 57.3863C123.693 57.146 123.933 57.4748 123.958 57.5128L124.199 57.8416C124.461 58.2593 124.865 58.5689 125.337 58.7141C125.701 58.8192 126.088 58.8122 126.448 58.6941C126.807 58.5759 127.123 58.3521 127.354 58.0517C127.585 57.7514 127.72 57.3885 127.741 57.0104C127.762 56.6323 127.669 56.2565 127.474 55.932C125.138 52.7136 122.237 49.9457 118.912 47.7628C118.477 47.5116 117.96 47.4411 117.473 47.5664C116.986 47.6917 116.568 48.0028 116.307 48.4331C116.067 48.8723 116.003 49.387 116.13 49.8714C116.257 50.3559 116.565 50.7733 116.99 51.0381L117.041 51.0634Z" fill="#2D2FEE"/>
<path d="M119.014 42.831C119.798 43.2989 120.583 43.7921 121.341 44.2979L122.442 45.0693L123.011 45.4866L123.264 45.6763C124.711 46.8054 126.087 48.0216 127.386 49.3183C127.746 49.6534 128.221 49.8358 128.713 49.8271C129.204 49.8184 129.673 49.6194 130.021 49.2718C130.368 48.9243 130.567 48.4554 130.576 47.964C130.585 47.4726 130.402 46.997 130.067 46.6374C127.315 43.8857 124.226 41.4935 120.873 39.5178C120.44 39.2859 119.934 39.2311 119.462 39.3648C118.989 39.4985 118.587 39.8103 118.339 40.2346C118.092 40.659 118.019 41.1627 118.135 41.6399C118.252 42.1171 118.549 42.5305 118.964 42.7931L119.014 42.831Z" fill="#2D2FEE"/>
<path d="M120.772 34.6364C123.667 37.0132 126.681 39.2417 129.801 41.3134C130.229 41.5447 130.729 41.6041 131.199 41.4795C131.669 41.355 132.074 41.0559 132.331 40.6432C132.574 40.2046 132.639 39.6889 132.512 39.2036C132.385 38.7183 132.075 38.3008 131.648 38.0381C130.181 37.0644 128.726 36.0528 127.31 35.0032L126.273 34.2318L125.755 33.8397C125.755 33.8397 125.451 33.5995 125.616 33.7386C125.78 33.8777 125.514 33.6501 125.489 33.6374L123.39 31.9555C123.028 31.6122 122.548 31.4208 122.049 31.4208C121.55 31.4208 121.071 31.6122 120.709 31.9555C120.357 32.3128 120.159 32.7943 120.159 33.296C120.159 33.7976 120.357 34.2791 120.709 34.6364H120.772Z" fill="#2D2FEE"/>
<path d="M122.492 23.9001C125.577 27.3397 128.528 30.8848 131.344 34.5352C131.7 34.8904 132.182 35.09 132.685 35.09C133.187 35.09 133.669 34.8904 134.025 34.5352C134.368 34.1734 134.56 33.6936 134.56 33.1948C134.56 32.6959 134.368 32.2161 134.025 31.8543C131.184 28.2123 128.233 24.6673 125.173 21.2192C124.817 20.864 124.335 20.6644 123.832 20.6644C123.33 20.6644 122.847 20.864 122.492 21.2192C122.148 21.581 121.957 22.0608 121.957 22.5596C121.957 23.0584 122.148 23.5382 122.492 23.9001Z" fill="#2D2FEE"/>
<path d="M4.19882 67.7811C3.94589 69.7033 3.02272 72.4601 4.19882 74.2305C5.37491 76.0009 7.27186 75.9503 8.9538 75.4951C11.3766 74.7161 13.7499 73.7913 16.061 72.7256L23.6487 69.7539C33.6392 65.8505 43.6465 61.9725 53.6707 58.1197C59.4121 55.9193 65.1535 53.7274 70.8949 51.5439C73.1585 50.684 72.1595 47.0167 69.8832 47.8892C58.2993 52.2731 46.728 56.716 35.1693 61.2179C29.4448 63.4436 23.7161 65.6819 17.9832 67.9329L9.26996 71.3725C8.85989 71.5544 8.43726 71.7066 8.00534 71.8278C7.80674 71.8992 7.5967 71.9335 7.38568 71.9289C7.06953 71.9289 7.12011 71.929 7.53743 72.1313C7.57857 70.6581 7.76495 69.1925 8.09387 67.7558C8.39738 65.3405 4.60352 65.3658 4.30001 67.7558L4.19882 67.7811Z" fill="#2D2FEE"/>
<path d="M66.3677 47.219C67.3414 51.0886 72.6908 53.5419 76.3708 53.8834C78.7989 54.0857 80.7717 52.7073 82.6307 51.3542C83.8194 50.3765 85.0885 49.5008 86.4246 48.7365C87.9967 47.9981 89.6658 47.4872 91.3819 47.219C91.8652 47.0803 92.275 46.7576 92.5232 46.3203C92.7714 45.8829 92.8384 45.3657 92.7097 44.8795C91.8046 42.1753 89.9946 39.8659 87.5849 38.3409C85.1752 36.8159 82.3133 36.1685 79.4818 36.508C76.4679 36.8493 73.6085 38.0228 71.2238 39.8971C68.859 41.7434 67.2276 44.7784 64.2431 45.6636C61.2586 46.5488 57.8442 47.1431 54.6953 48.1927C51.5464 49.2423 48.5492 50.3046 45.5394 51.5059C39.3934 54.0351 33.3864 56.754 27.2657 59.2578C20.411 62.2277 13.2348 64.392 5.88101 65.7072C3.47824 66.0992 4.50256 69.7539 6.89269 69.3745C19.248 67.3891 30.5663 61.9135 41.9732 57.0575C47.6049 54.5439 53.4071 52.431 59.3364 50.7346C62.0933 50.0011 65.3054 49.7861 67.7714 48.2054C70.2374 46.6247 71.6538 44.184 73.9175 42.5401C75.1557 41.5714 76.5832 40.8729 78.1079 40.4896C79.6326 40.1062 81.2206 40.0466 82.7698 40.3144C84.2031 40.5913 85.537 41.2443 86.6347 42.2065C87.7325 43.1687 88.5547 44.4055 89.017 45.79L90.3448 43.4632C87.6328 43.9021 85.0458 44.9153 82.7571 46.435C81.1637 47.5605 79.2668 49.7355 77.2813 50.077C75.8493 50.1189 74.4369 49.7361 73.2219 48.9768C72.1217 48.4077 70.3512 47.4846 70.0224 46.1694C69.4281 43.8046 65.7733 44.8037 66.3677 47.1811V47.219Z" fill="#2D2FEE"/>
<path d="M37.8506 71.4991L41.3915 49.8115C41.7077 47.9273 42.6562 45.4993 44.591 45.7522C45.1385 45.8632 45.6378 46.1416 46.0201 46.5489C49.1057 49.5965 46.3235 55.1228 48.132 59.0682C49.7507 58.1451 49.8013 55.4515 51.5464 54.7687C52.9249 54.2249 54.4677 55.4642 54.8218 56.9058C55.0461 58.3787 54.8396 59.885 54.2274 61.2433C54.5425 60.508 55.0885 59.8954 55.7829 59.4982C57.1234 58.9038 58.7042 60.1811 58.9824 61.6353C59.1152 63.1137 58.8024 64.5979 58.0845 65.897C59.5222 66.1122 60.8878 66.6671 62.0681 67.5156C62.6465 67.9464 63.0944 68.5288 63.3623 69.1984C63.6301 69.8679 63.7074 70.5986 63.5856 71.3094C63.169 72.4581 62.4097 73.4513 61.4105 74.1547L48.7643 85.0048" fill="white"/>
<path d="M39.685 72.0048L41.5566 60.5477C42.151 56.9057 42.4924 53.112 43.3903 49.5459C43.5673 48.8251 43.8709 47.3202 44.6549 47.8893C45.439 48.4583 45.6414 50.1529 45.654 51.1393C45.654 53.9719 45.1482 56.8552 46.2737 59.5614C46.3548 59.8385 46.4973 60.0939 46.6907 60.3084C46.8841 60.5229 47.1233 60.6911 47.3906 60.8004C47.6579 60.9098 47.9465 60.9575 48.2347 60.94C48.523 60.9225 48.8036 60.8403 49.0558 60.6995C49.7627 60.2327 50.362 59.6205 50.8136 58.9038C51.1014 58.1774 51.4705 57.4859 51.9138 56.8425C52.3058 56.4631 52.5335 56.5264 52.8623 57.1081C53.4314 58.1324 52.7105 59.7637 52.3817 60.7374C51.6988 62.7987 54.7846 64.038 55.8468 62.2043C56.2009 61.5973 56.5929 60.8259 57.0482 61.825C57.5034 62.824 56.77 64.1265 56.4285 64.9358C56.2875 65.1871 56.2048 65.4669 56.1865 65.7545C56.1683 66.0421 56.2149 66.3301 56.323 66.5972C56.4311 66.8644 56.5978 67.1038 56.8109 67.2977C57.024 67.4917 57.278 67.6353 57.554 67.7179C58.9451 68.0214 61.5882 68.5778 61.7399 70.4115C61.879 72.0175 58.9704 73.75 57.9461 74.6352L47.4624 83.6769C45.6034 85.2703 48.2971 87.9512 50.1434 86.3579L57.1367 80.3258C59.5136 78.4921 61.7734 76.5113 63.9025 74.3949C64.7472 73.5504 65.2903 72.4513 65.448 71.2674C65.6057 70.0834 65.3692 68.8805 64.7751 67.8444C63.5104 65.5808 60.9812 64.5944 58.5657 64.0506L59.7039 66.8327C60.8547 64.1265 61.8031 60.826 59.2613 58.5623C56.7194 56.2987 54.0131 57.7657 52.5714 60.2695L56.0365 61.7365C57.0988 58.5244 57.3011 53.896 53.1532 52.8844C52.4199 52.7154 51.6538 52.7563 50.9426 53.0023C50.2314 53.2483 49.6039 53.6895 49.1317 54.2754C48.3982 55.1606 48.0821 56.8046 47.1463 57.4495L49.9284 58.5876C48.5879 55.325 50.0169 51.721 49.1064 48.3572C48.2591 45.2337 44.5791 42.1481 41.6199 44.9555C40.5265 46.1094 39.8117 47.5698 39.5711 49.1412C39.1159 51.4554 38.8124 53.8202 38.433 56.147L36.005 71.0311C35.6129 73.4085 39.2676 74.4455 39.6597 72.0301L39.685 72.0048Z" fill="#2D2FEE"/>
<path d="M0.987242 100.85C-1.20055 105.263 0.544595 109.917 3.32676 113.635C6.10892 117.353 10.0419 121.387 14.8095 122.133C20.1209 122.967 23.6618 118.82 27.0384 115.431C31.1779 111.325 35.2626 107.164 39.2925 102.949C41.2527 100.913 43.2128 98.8772 45.1351 96.8033C46.8173 95.1249 48.218 93.1863 49.283 91.0621C50.2999 88.9733 50.5158 86.5843 49.89 84.3471C49.0086 81.9823 47.7251 79.7875 46.0962 77.8598C43.5669 74.4581 40.1272 68.8434 35.1698 69.6527C30.2125 70.462 28.3283 75.7606 25.9381 79.4532C20.2526 88.4076 12.0161 95.4547 2.28976 99.6865C1.87489 99.9415 1.57313 100.345 1.44619 100.816C1.31925 101.286 1.37675 101.787 1.60689 102.216C1.86936 102.64 2.28457 102.947 2.76692 103.074C3.24928 103.201 3.76198 103.138 4.19935 102.899C11.5185 99.7527 18.0521 95.0286 23.333 89.064C25.9896 86.0954 28.3528 82.8768 30.3896 79.4532C31.9704 76.8102 34.7652 70.9046 38.4199 74.534C39.8734 76.0269 41.2253 77.6154 42.4667 79.2888C44.0593 81.0783 45.3416 83.1213 46.2606 85.3335C47.5252 89.279 43.7314 92.7945 41.2906 95.3616C34.6514 102.405 28.0121 109.613 20.8923 116.164C19.261 117.669 17.4273 118.82 15.1257 118.339C12.7673 117.629 10.6583 116.265 9.04286 114.406C6.27334 111.662 2.2392 106.895 4.28788 102.747C5.3628 100.572 2.10005 98.6369 1.01248 100.837L0.987242 100.85Z" fill="#2D2FEE"/>
<path d="M100.172 31.6774C99.2227 32.2989 98.4446 33.1494 97.9098 34.1504C97.375 35.1515 97.1006 36.271 97.1119 37.4059C97.0669 38.0534 97.156 38.7031 97.3736 39.3146C97.5912 39.926 97.9326 40.486 98.3766 40.9594C99.2703 41.8101 100.444 42.3048 101.677 42.3505C102.891 42.3759 104.089 42.0699 105.142 41.4652C106.083 41.0049 106.918 40.3547 107.596 39.5557C108.415 38.6425 108.866 37.457 108.86 36.2299C108.822 35.1576 108.47 34.12 107.849 33.2455C107.034 32.2125 105.938 31.4364 104.693 31.0103C103.448 30.5841 102.107 30.5259 100.83 30.8428C100.356 30.9918 99.9595 31.3194 99.7235 31.7562C99.4874 32.1929 99.4306 32.7044 99.5653 33.1822C99.7223 33.6476 100.049 34.0364 100.481 34.2709C100.912 34.5054 101.416 34.5682 101.892 34.4468C101.972 34.4586 102.053 34.4586 102.133 34.4468H101.88H102.057C102.242 34.4342 102.428 34.4342 102.613 34.4468H103.094C103.245 34.4468 103.372 34.548 102.955 34.4468H103.321L103.789 34.5733L104.017 34.6618C103.954 34.6618 103.637 34.4721 103.89 34.6618C104.143 34.8515 104.206 34.8262 104.358 34.9274C104.51 35.0285 104.573 35.1423 104.358 34.9274C104.143 34.7124 104.358 34.9274 104.459 35.0412C104.567 35.1403 104.668 35.2458 104.763 35.3573C104.927 35.547 104.51 34.9527 104.763 35.2814L104.877 35.4711C104.936 35.6056 105.004 35.7365 105.079 35.8632C104.877 35.5849 104.965 35.547 105.016 35.724C105.066 35.9011 105.079 35.9264 105.104 36.0402C105.099 36.1118 105.099 36.1836 105.104 36.2552C104.965 36.0149 105.104 35.8505 105.104 36.0655C105.104 36.2805 105.104 36.3943 105.104 36.5587C105.104 36.7231 105.193 36.1414 105.104 36.369C105.11 36.4574 105.11 36.5461 105.104 36.6345C105.076 36.7006 105.05 36.7682 105.028 36.8369C105.028 36.6978 105.218 36.4575 105.028 36.761L104.877 37.0139C104.725 37.2668 104.877 36.8748 104.953 36.9254C105.028 36.976 104.662 37.2415 104.624 37.2795C104.586 37.3174 104.308 37.6209 104.244 37.6083C104.181 37.5956 104.586 37.3554 104.244 37.6083L103.991 37.7853C103.827 37.8991 103.65 38.0003 103.473 38.1015C103.296 38.2026 103.081 38.367 102.942 38.367C102.803 38.367 103.359 38.2153 103.018 38.367L102.765 38.4555C102.545 38.4894 102.329 38.5444 102.12 38.6199C102.12 38.6199 102.575 38.6199 102.221 38.6199H101.753C101.424 38.6199 101.88 38.6199 101.918 38.6199C101.753 38.563 101.584 38.5207 101.412 38.4935C101.336 38.4935 101.096 38.4176 101.412 38.4935C101.728 38.5694 101.412 38.4935 101.285 38.405C101.159 38.3164 101.045 38.2026 101.285 38.405C101.526 38.6073 101.285 38.405 101.285 38.3291C101.238 38.2712 101.187 38.2163 101.133 38.1647C101.133 38.1647 101.361 38.5441 101.235 38.2785C101.198 38.1997 101.156 38.1237 101.108 38.0509C101.273 38.19 101.222 38.367 101.108 38.1521C101.102 38.0721 101.102 37.9918 101.108 37.9118C100.982 37.5324 101.108 38.2912 101.108 37.9118C101.108 37.5324 101.108 37.4818 101.108 37.2668C101.108 37.0519 101.108 37.2668 101.108 37.3807C101.146 37.2569 101.171 37.1299 101.184 37.0013C101.26 36.6093 101.437 36.2425 101.526 35.8632C101.526 35.8632 101.323 36.2678 101.526 35.9896L101.677 35.6861C101.677 35.6102 101.766 35.547 101.804 35.4838C101.842 35.4206 102.057 35.1676 101.804 35.3953C101.551 35.6229 101.804 35.3953 101.804 35.3194L102.006 35.1297C102.272 34.8894 102.006 35.2056 101.943 35.1297C101.88 35.0538 102.196 34.9653 102.234 34.9527C102.649 34.6901 102.946 34.2767 103.062 33.7995C103.179 33.3223 103.106 32.8186 102.858 32.3942C102.611 31.9699 102.209 31.6581 101.736 31.5244C101.263 31.3907 100.757 31.4455 100.324 31.6774H100.172Z" fill="#2D2FEE"/>
<path d="M64.6608 33.0178C66.2795 31.5762 67.9361 30.1598 69.6307 28.8067C69.9842 28.4498 70.184 27.9686 70.1871 27.4663C70.1846 26.9601 69.985 26.4748 69.6307 26.1132C69.4541 25.9387 69.2448 25.8009 69.0148 25.7075C68.7847 25.6142 68.5385 25.5673 68.2902 25.5694H67.7844C67.471 25.6587 67.1843 25.8237 66.9497 26.05C65.2636 27.4157 63.6069 28.8236 61.9798 30.2736C61.6447 30.6332 61.4623 31.1088 61.471 31.6003C61.4797 32.0917 61.6787 32.5605 62.0263 32.9081C62.3738 33.2556 62.8427 33.4547 63.3341 33.4634C63.8255 33.472 64.3012 33.2896 64.6608 32.9546V33.0178Z" fill="#2D2FEE"/>
<path d="M46.045 31.1082C47.5283 29.454 48.8456 27.6581 49.9779 25.7464C50.1142 25.531 50.2057 25.2904 50.2469 25.0388C50.288 24.7873 50.2781 24.5301 50.2177 24.2824C50.1572 24.0348 50.0474 23.8019 49.895 23.5977C49.7425 23.3934 49.5505 23.222 49.3303 23.0936C49.1101 22.9652 48.8662 22.8826 48.6134 22.8505C48.3605 22.8185 48.1038 22.8377 47.8585 22.9071C47.6132 22.9764 47.3845 23.0945 47.1859 23.2543C46.9873 23.4141 46.8229 23.6122 46.7026 23.8369C46.0421 24.954 45.3159 26.0308 44.5275 27.0616L44.8183 26.6822C44.3504 27.2766 43.8698 27.8583 43.364 28.4273C43.0127 28.7858 42.8134 29.266 42.8076 29.7678C42.8081 30.2707 43.0081 30.7529 43.364 31.1082C43.7095 31.4574 44.1756 31.661 44.6666 31.6773C44.9158 31.6785 45.1628 31.6299 45.393 31.5343C45.6231 31.4388 45.8319 31.2982 46.007 31.1209L46.045 31.1082Z" fill="#2D2FEE"/>
<path d="M84.1365 66.428C81.199 68.4899 78.8039 71.232 77.1558 74.4202C76.813 75.0084 76.6668 75.6906 76.7385 76.3676C76.7847 76.7416 76.9173 77.0997 77.1258 77.4135C77.3343 77.7274 77.613 77.9884 77.9399 78.176C78.4484 78.4161 79.0106 78.5202 79.5714 78.4781C80.1322 78.436 80.6725 78.2491 81.1394 77.9357C82.6293 76.9185 83.916 75.6318 84.9333 74.1419C86.0662 72.5812 86.8982 70.8229 87.3866 68.9572C87.4616 68.7146 87.487 68.4596 87.4616 68.207C87.4361 67.9545 87.3603 67.7096 87.2384 67.4869C87.1166 67.2642 86.9513 67.0682 86.7524 66.9106C86.5535 66.7529 86.3249 66.6368 86.0803 66.5691C85.8356 66.5013 85.5799 66.4834 85.3282 66.5163C85.0765 66.5492 84.834 66.6323 84.615 66.7607C84.396 66.8891 84.205 67.06 84.0533 67.2636C83.9016 67.4671 83.7923 67.699 83.7319 67.9455C83.6433 68.2616 83.5548 68.5651 83.4536 68.8686L83.3019 69.2986C83.3019 69.3745 83.3018 69.4504 83.2133 69.5389C83.0616 69.9435 83.3271 69.2733 83.2133 69.5389C82.9435 70.148 82.6352 70.7393 82.2902 71.3093C82.13 71.5791 81.953 71.8446 81.7591 72.106C81.6705 72.2324 81.5693 72.3462 81.4935 72.4727C81.7717 72.0301 81.4935 72.5359 81.3417 72.6371C80.9106 73.1441 80.4459 73.6215 79.9507 74.0661L79.5586 74.3949L79.4068 74.5213C79.2045 74.6857 79.6977 74.3063 79.4828 74.5213L79.1666 74.7489C79.1666 74.7489 79.0275 74.7489 79.0022 74.8375L79.2677 74.7236H79.116C79.116 74.7236 78.7239 74.7869 79.116 74.7236C79.508 74.6604 79.2551 74.7236 79.1792 74.7236C79.7735 74.7236 79.5712 74.7995 79.4448 74.7236C79.7793 74.8344 80.0682 75.0522 80.2668 75.3433C80.4084 75.6155 80.4657 75.9236 80.4312 76.2285C80.4312 76.2285 80.2668 76.5573 80.4312 76.3803C80.5956 76.2032 80.6209 76.0135 80.7094 75.8365C81.0508 75.2295 81.4176 74.5719 81.8096 74.0661C82.0311 73.8067 82.2339 73.532 82.4166 73.2441C82.4166 73.2441 82.189 73.5223 82.3281 73.3579L82.4925 73.1429C82.6189 72.9912 82.7454 72.8268 82.8845 72.675C83.3862 72.0953 83.9181 71.5423 84.4779 71.0184L85.3885 70.2217C85.5476 70.1294 85.6924 70.0144 85.8184 69.8803C85.6161 70.1332 85.6287 70.0194 85.8184 69.8803L86.1473 69.64C86.5552 69.3789 86.8513 68.9751 86.9775 68.5074C87.1038 68.0398 87.0513 67.5419 86.8302 67.1109C86.5697 66.681 86.1522 66.3693 85.6659 66.2418C85.1797 66.1144 84.663 66.1811 84.2251 66.428H84.1365Z" fill="#2D2FEE"/>
<path d="M99.6648 60.0925C99.6648 62.9252 99.5637 65.7452 99.3613 68.5525C99.3613 69.0556 99.5612 69.5381 99.9169 69.8938C100.273 70.2496 100.755 70.4494 101.258 70.4494C101.757 70.4366 102.232 70.2327 102.585 69.8797C102.938 69.5267 103.142 69.0516 103.155 68.5525C103.4 65.7452 103.501 62.9252 103.459 60.0925C103.459 59.5894 103.259 59.1069 102.903 58.7512C102.547 58.3955 102.065 58.1956 101.562 58.1956C101.059 58.1956 100.576 58.3955 100.22 58.7512C99.8647 59.1069 99.6648 59.5894 99.6648 60.0925Z" fill="#2D2FEE"/>
<path d="M67.2156 59.8901L66.7602 60.0924C66.6242 60.1865 66.4933 60.2878 66.3682 60.3959C66.0965 60.678 65.9044 61.0271 65.8118 61.4076C65.7047 61.8223 65.7047 62.2575 65.8118 62.6722C65.8118 62.8366 65.9509 63.0136 66.0268 63.1654C66.043 63.2058 66.0642 63.2441 66.09 63.2792C66.1886 63.4267 66.2985 63.5662 66.4188 63.6965C66.5647 63.8365 66.7259 63.9595 66.8994 64.0632C66.9833 64.1112 67.0723 64.1494 67.1649 64.1771L67.4305 64.2909C67.6358 64.3511 67.8489 64.381 68.0628 64.3794C68.1723 64.3863 68.2822 64.3863 68.3916 64.3794H68.7205C68.9256 64.318 69.1246 64.2375 69.3148 64.1391C69.4312 64.0736 69.5413 63.9974 69.6436 63.9115C69.7448 63.823 69.8586 63.7471 69.9598 63.6459C70.1004 63.4853 70.2313 63.3164 70.3518 63.1401L70.453 62.9757C70.5415 62.786 70.6301 62.5837 70.7059 62.394C70.7117 62.3267 70.7117 62.259 70.7059 62.1917C70.7119 62.154 70.7119 62.1155 70.7059 62.0778C70.7059 61.8882 70.7059 61.6858 70.7818 61.4961V61.395V61.1041C70.7869 61.003 70.7869 60.9017 70.7818 60.8006C70.7873 60.7756 70.7873 60.7497 70.7818 60.7247C70.7818 60.5856 70.6553 60.3959 70.5921 60.2568L70.4277 60.0545L70.2506 59.8269C70.1203 59.7066 69.9808 59.5966 69.8333 59.4981C69.796 59.4655 69.7532 59.4398 69.7068 59.4222C69.5251 59.3279 69.3344 59.2516 69.1377 59.1946L68.5687 59.1187C68.3817 59.1307 68.1957 59.1561 68.0123 59.1946C67.8864 59.2253 67.7636 59.2677 67.6455 59.3211C67.5443 59.3211 67.4178 59.4096 67.3167 59.4728L66.9246 59.789C66.7218 59.9929 66.5664 60.239 66.4694 60.5098C66.4121 60.6276 66.3655 60.7503 66.3303 60.8765C66.2332 61.2924 66.2332 61.7251 66.3303 62.1411C66.3248 62.1661 66.3248 62.1919 66.3303 62.2169C66.3865 62.3917 66.4585 62.561 66.5453 62.7228V62.7987L66.8867 63.2286L67.2914 63.5448C67.4779 63.6541 67.6776 63.7391 67.8858 63.7977C68.1305 63.8609 68.3872 63.8609 68.6319 63.7977C68.883 63.779 69.1268 63.7047 69.3456 63.58C69.5644 63.4553 69.7526 63.2834 69.8966 63.0769C70.0684 62.898 70.1866 62.6746 70.238 62.4319V61.9261C70.244 61.5925 70.1565 61.2639 69.9851 60.9777L69.6942 60.5856C69.457 60.3563 69.1655 60.1909 68.8469 60.1051L69.3021 60.2948H69.201L69.5804 60.5983C69.5445 60.5708 69.5144 60.5364 69.4919 60.4971L69.7827 60.8891C69.7486 60.8414 69.7189 60.7906 69.6942 60.7374L69.8839 61.18C69.8767 61.1254 69.8767 61.0702 69.8839 61.0156L69.9471 61.5214C69.9345 61.4631 69.9345 61.4027 69.9471 61.3444L69.8839 61.8502C69.8725 61.8003 69.8725 61.7484 69.8839 61.6985L69.6942 62.1537C69.6919 62.12 69.6919 62.0862 69.6942 62.0526L69.4033 62.4319L69.4919 62.3434L69.0998 62.6343L69.2263 62.571L68.771 62.7607H68.9101L68.4043 62.8366H68.5813L68.0755 62.7734H68.2651L67.8099 62.5837L67.9364 62.6596L67.557 62.3687C67.5968 62.3957 67.6311 62.43 67.6581 62.4699L67.3546 62.0778C67.3914 62.112 67.4177 62.1558 67.4305 62.2043L67.2408 61.7491V61.8755L67.1649 61.3697C67.1777 61.445 67.1777 61.522 67.1649 61.5973L67.2408 61.0915C67.2188 61.2084 67.185 61.3228 67.1397 61.4329L67.3293 60.9777C67.2876 61.0815 67.2323 61.1793 67.1649 61.2685L67.4685 60.8891L67.2661 61.0915L67.6455 60.788C67.5955 60.8289 67.5402 60.8629 67.4811 60.8891L67.9364 60.6994H67.7467H68.2526H68.1134H68.6193H68.5181L68.9733 60.8891H68.8849L69.2642 61.18C69.2316 61.1538 69.2019 61.1241 69.1757 61.0915L69.4666 61.4708L69.3907 61.3444L69.5804 61.7996C69.5749 61.745 69.5749 61.6899 69.5804 61.6352L69.6563 62.1411C69.6433 62.0956 69.6433 62.0474 69.6563 62.002L69.5804 62.5078C69.575 62.4701 69.575 62.4317 69.5804 62.394L69.378 62.8492L69.0745 63.2286L68.6825 63.5195H68.7584L68.3031 63.7092C68.5466 63.65 68.7722 63.5328 68.9607 63.3677C69.1617 63.2323 69.3266 63.05 69.4413 62.8366C69.6804 62.3868 69.7478 61.8655 69.631 61.3697L69.4413 60.9271C69.2814 60.6406 69.0449 60.4041 68.7584 60.2442L68.3031 60.0545C67.9778 59.9533 67.6294 59.9533 67.3041 60.0545L67.2156 59.8901Z" fill="#2D2FEE"/>
</svg>
