<svg width="153" height="136" viewBox="0 0 153 136" fill="none" xmlns="http://www.w3.org/2000/svg">
<g clip-path="url(#clip0)">
<path d="M34.1814 83.6262C29.5745 85.7469 24.3318 80.7388 23.9319 75.6734C23.5319 70.6079 26.1246 65.8577 28.096 61.172C32.8672 49.8518 34.26 37.4498 36.917 25.4489C38.5383 18.1195 41.0025 10.3601 47.0236 5.88936C53.2662 1.25381 61.7158 1.33979 69.4655 1.86997C93.2572 3.49636 116.892 7.42977 139.934 13.6057C144.312 14.7807 149.247 16.5432 150.862 20.7919C151.947 23.6434 151.176 26.8246 150.405 29.7692C145.069 50.0668 139.734 70.3643 134.398 90.669C133.155 95.3906 131.498 100.649 127.156 102.849C125.341 103.766 123.277 104.017 121.249 104.182C107.342 105.299 93.3429 102.978 79.9078 99.1878C72.5225 97.1029 65.2585 94.5738 58.1731 91.6219" fill="white"/>
<path d="M33.368 82.2362C29.5824 83.8841 25.9326 79.0837 25.5469 75.7952C25.2255 73.0726 26.0397 70.3213 26.9968 67.8065C28.0111 65.1413 29.2824 62.5835 30.3181 59.9254C34.5965 48.9563 35.9464 37.1775 38.4892 25.7499C39.532 21.0642 40.8462 16.314 43.4246 12.2086C46.0174 8.08175 49.8886 5.35201 54.5955 4.15551C59.6025 2.88736 64.8808 3.16678 69.9805 3.52501C76.1303 3.95489 82.2657 4.53523 88.3868 5.2732C100.543 6.73479 112.621 8.81971 124.564 11.4921C130.278 12.7675 136.092 14.0141 141.677 15.7909C143.641 16.4143 145.706 17.2096 147.298 18.5708C149.091 20.1113 149.877 22.0959 149.777 24.4602C149.655 27.3977 148.591 30.3281 147.848 33.151C147.048 36.2103 146.241 39.2624 145.441 42.3218C143.82 48.4906 142.199 54.6593 140.577 60.8353C138.97 66.9468 137.363 73.0582 135.756 79.1769C134.935 82.2935 134.12 85.403 133.299 88.5196C132.678 90.8768 132.099 93.2698 131.178 95.5338C130.399 97.4397 129.306 99.3526 127.671 100.642C125.664 102.226 123.028 102.455 120.571 102.634C114.536 103.071 108.457 102.863 102.45 102.183C90.3296 100.8 78.3873 97.4898 66.9307 93.3343C64.1308 92.3169 61.3524 91.235 58.6025 90.0887C57.8025 89.752 56.8383 90.4469 56.624 91.2135C56.3669 92.1378 56.9383 92.8614 57.7454 93.1982C69.5663 98.1131 81.93 102.025 94.5437 104.26C100.872 105.378 107.293 106.073 113.721 106.095C116.835 106.109 119.985 106.023 123.078 105.629C125.849 105.271 128.428 104.411 130.492 102.448C134.213 98.9156 135.335 93.4561 136.585 88.6916C138.284 82.2362 139.977 75.7737 141.677 69.3183C145.07 56.4004 148.47 43.4824 151.862 30.5645C152.627 27.6485 153.391 24.5963 152.762 21.58C152.234 19.0652 150.627 17.0233 148.591 15.533C146.648 14.1216 144.334 13.2403 142.056 12.5525C139.184 11.6784 136.249 10.9834 133.335 10.2598C120.807 7.16467 108.114 4.72868 95.3294 2.959C88.9082 2.07058 82.4728 1.33978 76.016 0.78094C70.2877 0.286577 64.4379 -0.336751 58.6882 0.236424C53.2885 0.76661 48.0173 2.4718 44.0532 6.33357C40.3819 9.90874 38.2249 14.7449 36.7678 19.5811C35.1036 25.1122 34.1608 30.8583 33.0751 36.5184C31.918 42.5367 30.7109 48.5694 28.8539 54.4301C27.9396 57.3103 26.8397 60.0973 25.6183 62.8557C24.4112 65.5927 23.1613 68.3797 22.6113 71.3459C22.0971 74.1258 22.1613 76.8842 23.3327 79.485C24.3112 81.6487 26.0469 83.6333 28.1539 84.7438C30.361 85.9045 32.7109 86.012 34.9893 85.0161C35.7893 84.6722 35.9678 83.4972 35.5679 82.8094C35.0893 81.9854 34.1679 81.8851 33.368 82.2362Z" fill="#2D2FEE"/>
<path d="M136.77 25.9146C141.27 24.6823 145.863 23.7437 150.491 23.1634C151.355 23.0559 152.098 22.4971 152.098 21.5513C152.098 20.7632 151.355 19.8318 150.491 19.9393C145.57 20.5555 140.699 21.494 135.913 22.8052C133.928 23.3497 134.771 26.4592 136.77 25.9146Z" fill="#2D2FEE"/>
<path d="M134.743 25.3916C132.979 36.3608 130.907 47.2797 128.522 58.1342C127.343 63.5006 126.093 68.8526 124.765 74.1903C123.586 78.9118 122.365 83.6333 120.743 88.2187C118.951 93.2698 116.608 98.1275 113.379 102.419C112.858 103.114 113.272 104.225 113.958 104.626C114.779 105.106 115.629 104.748 116.158 104.046C122.051 96.2145 124.929 86.6425 127.315 77.2568C130.036 66.5456 132.436 55.7555 134.543 44.9082C135.743 38.7108 136.843 32.4918 137.85 26.2514C137.985 25.3916 137.628 24.5175 136.728 24.2668C135.95 24.0518 134.878 24.5247 134.743 25.3916Z" fill="#2D2FEE"/>
<path d="M47.5032 8.16774C59.2955 10.7184 71.0807 13.2905 82.8801 15.7981C94.7224 18.3129 106.586 20.7561 118.493 22.9986C125.085 24.2381 131.714 25.449 138.435 25.5994C140.506 25.6424 140.506 22.4183 138.435 22.3753C132.585 22.2463 126.814 21.2863 121.071 20.2187C115.15 19.1154 109.243 17.9619 103.343 16.7725C91.644 14.4153 79.9803 11.9077 68.3165 9.38573C61.6668 7.94563 55.01 6.50553 48.3603 5.06543C46.3461 4.62122 45.4819 7.73069 47.5032 8.16774Z" fill="#2D2FEE"/>
<path d="M72.209 11.0981C75.2731 9.39289 78.3372 7.69487 81.4014 5.98967C82.1371 5.58128 82.4442 4.50658 81.9799 3.78295C81.5014 3.03782 80.5657 2.76556 79.78 3.20261C76.7159 4.9078 73.6517 6.60583 70.5876 8.31103C69.8519 8.71942 69.5448 9.79412 70.0091 10.5178C70.4947 11.2629 71.4233 11.5351 72.209 11.0981Z" fill="#2D2FEE"/>
<path d="M81.4594 13.8708C85.3878 11.8432 89.2019 9.61501 92.9017 7.18618C93.6303 6.71331 93.9302 5.76041 93.4803 4.97946C93.0589 4.25582 92.0089 3.91908 91.2804 4.39912C87.5877 6.82794 83.7664 9.05616 79.838 11.0838C79.0667 11.485 78.8381 12.5669 79.2595 13.2905C79.7166 14.0786 80.6809 14.272 81.4594 13.8708Z" fill="#2D2FEE"/>
<path d="M95.5389 17.274C99.253 14.2362 103.231 11.5208 107.388 9.12063C109.181 8.08891 107.567 5.30185 105.767 6.33357C101.367 8.86986 97.196 11.7716 93.2676 14.9885C92.5962 15.5402 92.6962 16.6937 93.2676 17.2669C93.9318 17.9403 94.8675 17.8257 95.5389 17.274Z" fill="#2D2FEE"/>
<path d="M109.473 20.1256C111.473 18.5279 113.473 16.923 115.472 15.3252C117.308 13.8565 119.094 12.2086 121.208 11.1554C121.986 10.7685 122.201 9.66514 121.786 8.94867C121.322 8.15339 120.365 7.98144 119.587 8.36833C117.301 9.50752 115.365 11.3059 113.387 12.8892C111.323 14.5371 109.266 16.1922 107.201 17.84C106.523 18.3846 106.637 19.5524 107.201 20.1184C107.873 20.7919 108.794 20.6701 109.473 20.1256Z" fill="#2D2FEE"/>
<path d="M121.952 22.9556C126.523 20.3047 130.944 17.4102 135.201 14.2864C135.901 13.7705 136.251 12.8892 135.78 12.0796C135.373 11.3847 134.287 10.9834 133.58 11.4993C129.323 14.6231 124.894 17.5176 120.33 20.1686C118.538 21.2074 120.159 23.9945 121.952 22.9556Z" fill="#2D2FEE"/>
<path d="M64.3592 9.76546C65.2734 8.9057 66.2305 8.08892 67.2162 7.30797C67.3733 7.17901 67.2304 7.30081 67.1519 7.35813C67.209 7.31514 67.2662 7.26498 67.3304 7.222C67.4447 7.12886 67.5661 7.04288 67.6876 6.9569C67.9376 6.77062 68.1947 6.58434 68.4518 6.39806C68.9804 6.02549 69.5161 5.6601 70.0589 5.30903C70.766 4.85049 71.1231 3.8546 70.6374 3.1023C70.1803 2.393 69.1946 2.03477 68.4375 2.52196C66.1805 3.97639 64.052 5.64577 62.095 7.48709C61.4807 8.06743 61.4664 9.19228 62.095 9.76546C62.7449 10.3745 63.702 10.3816 64.3592 9.76546Z" fill="#2D2FEE"/>
<path d="M120.415 95.9136C122.222 97.9555 124.022 100.005 125.829 102.047C126.386 102.677 127.536 102.663 128.1 102.047C128.722 101.373 128.693 100.442 128.1 99.7682C126.293 97.7262 124.493 95.6771 122.686 93.6352C122.129 93.0047 120.979 93.019 120.415 93.6352C119.794 94.3087 119.815 95.2401 120.415 95.9136Z" fill="#2D2FEE"/>
<path d="M123.724 87.3303C125.952 89.8523 128.345 92.2309 130.88 94.4448C131.516 94.9965 132.538 95.1183 133.152 94.4448C133.709 93.8358 133.83 92.754 133.152 92.1664C130.616 89.9526 128.231 87.5739 125.995 85.0519C125.438 84.4214 124.288 84.4358 123.724 85.0519C123.102 85.7326 123.124 86.6568 123.724 87.3303Z" fill="#2D2FEE"/>
<path d="M126.214 78.0305C128.299 81.3335 130.849 84.4859 133.985 86.8359C134.663 87.3446 135.806 86.9721 136.185 86.2556C136.628 85.4102 136.328 84.5862 135.606 84.0489C135.513 83.9772 135.442 83.9271 135.578 84.0274C135.478 83.9486 135.385 83.8698 135.285 83.7909C135.113 83.6476 134.942 83.5044 134.77 83.3539C134.456 83.0745 134.142 82.7879 133.842 82.487C133.199 81.8565 132.592 81.1902 132.006 80.5095C131.728 80.1871 131.456 79.8575 131.185 79.5208C131.106 79.4205 131.028 79.3202 130.949 79.227C130.935 79.2055 130.749 78.9691 130.842 79.0909C130.935 79.2127 130.756 78.9763 130.742 78.9548C130.664 78.8545 130.592 78.7542 130.514 78.6539C129.978 77.9231 129.464 77.1708 128.978 76.4041C128.528 75.6948 127.528 75.3438 126.778 75.8238C126.078 76.2823 125.728 77.2711 126.214 78.0305Z" fill="#2D2FEE"/>
<path d="M128.037 67.2334C130.808 69.7768 133.444 72.4707 135.929 75.3008C136.486 75.9385 137.643 75.917 138.201 75.3008C138.822 74.6273 138.793 73.6959 138.201 73.0224C135.715 70.1924 133.079 67.4985 130.308 64.955C129.687 64.3818 128.637 64.2958 128.037 64.955C127.473 65.5712 127.38 66.6244 128.037 67.2334Z" fill="#2D2FEE"/>
<path d="M130.509 56.2929C130.931 56.5723 131.345 56.8518 131.752 57.1455C131.959 57.296 132.159 57.4393 132.359 57.5969C132.438 57.6542 132.516 57.7187 132.602 57.7832C132.359 57.5969 132.738 57.8978 132.752 57.905C133.516 58.5211 134.259 59.1659 134.973 59.8394C135.687 60.5201 136.366 61.2222 137.016 61.9602C137.352 62.3399 137.673 62.7196 137.987 63.1137C138.052 63.1925 138.116 63.2713 138.173 63.3501C138.166 63.3429 138.43 63.6797 138.323 63.5436C138.216 63.4003 138.452 63.7155 138.473 63.7442C138.566 63.866 138.652 63.9878 138.744 64.1096C139.237 64.7902 140.159 65.1914 140.944 64.6899C141.616 64.26 142.051 63.214 141.523 62.4832C138.937 58.9438 135.787 55.9203 132.13 53.513C131.423 53.0473 130.323 53.3482 129.931 54.0933C129.509 54.8886 129.759 55.7985 130.509 56.2929Z" fill="#2D2FEE"/>
<path d="M132.707 47.0791C136.278 49.1855 139.292 51.5284 142.221 54.4731C142.813 55.0677 143.906 55.1179 144.492 54.4731C145.078 53.8283 145.128 52.8324 144.492 52.1947C141.456 49.1497 138.028 46.4845 134.328 44.2992C133.6 43.8693 132.535 44.1129 132.128 44.8796C131.721 45.6462 131.935 46.6206 132.707 47.0791Z" fill="#2D2FEE"/>
<path d="M134.771 37.9728C137.978 40.6023 141.307 43.0741 144.749 45.3739C145.449 45.8396 146.556 45.5316 146.949 44.7936C147.378 43.984 147.121 43.0884 146.371 42.5869C143.092 40.4016 140.021 38.1304 137.042 35.6873C136.393 35.1571 135.4 34.9995 134.771 35.6873C134.235 36.2891 134.078 37.4068 134.771 37.9728Z" fill="#2D2FEE"/>
<path d="M136.701 25.9361C140.143 29.7979 143.464 33.7743 146.643 37.851C147.179 38.5388 148.357 38.417 148.914 37.851C149.593 37.1704 149.45 36.2605 148.914 35.5726C145.736 31.4888 142.415 27.5124 138.972 23.6578C138.393 23.0058 137.286 23.0631 136.701 23.6578C136.058 24.3026 136.122 25.2913 136.701 25.9361Z" fill="#2D2FEE"/>
<path d="M4.68301 75.4727C4.51159 76.834 4.33303 78.1953 4.16161 79.5566C3.99733 80.8391 4.06876 82.1144 5.09014 83.0387C6.90434 84.665 9.48993 83.619 11.4184 82.8524C16.7967 80.7173 22.1822 78.5965 27.5677 76.483C38.3386 72.2558 49.1309 68.0573 59.9304 63.9018C66.1016 61.5231 72.2798 59.1588 78.4581 56.8087C79.2724 56.5007 79.8295 55.7197 79.5795 54.8241C79.3652 54.0432 78.4153 53.3912 77.601 53.6993C57.0734 61.5159 36.5887 69.4544 16.161 77.529C14.7325 78.095 13.304 78.661 11.8755 79.2199C10.6827 79.6927 9.45422 80.3376 8.18999 80.5883C7.86144 80.6528 7.39003 80.746 7.14718 80.5955C7.17575 80.6098 7.23289 80.6098 7.24718 80.6528C7.31146 80.8176 7.29718 80.1799 7.31146 80.0367C7.47574 78.5106 7.69716 76.9917 7.89715 75.4656C8.01143 74.5987 7.07576 73.8535 6.29008 73.8535C5.32584 73.8607 4.79015 74.6058 4.68301 75.4727Z" fill="#2D2FEE"/>
<path d="M74.1454 52.2878C74.5096 53.9214 75.8024 55.1824 77.0809 56.1639C78.6166 57.3389 80.3736 58.2345 82.2093 58.8364C83.7449 59.3379 85.5877 59.7033 87.1662 59.1874C89.4946 58.428 91.3874 56.6511 93.3087 55.2182C94.4016 54.4014 95.5444 53.6348 96.8157 53.1189C98.2871 52.5171 99.8584 52.1732 101.416 51.8651C102.258 51.7003 102.765 50.6686 102.537 49.8805C100.63 43.3177 93.6659 39.9359 87.2162 41.025C83.7949 41.6053 80.5879 43.3965 78.0809 45.768C76.8381 46.9502 75.7881 48.3186 74.5168 49.4721C73.2525 50.6256 71.7883 51.1487 70.1455 51.5141C63.0673 53.1046 56.2676 55.3257 49.5394 58.0626C42.8183 60.7995 36.2328 63.8588 29.5189 66.5957C22.0121 69.655 14.2982 72.2988 6.26996 73.5669C5.41286 73.7031 4.93431 74.7778 5.14859 75.5516C5.39858 76.4686 6.26282 76.8125 7.12707 76.6764C21.055 74.4697 33.8258 68.1934 46.6824 62.7196C53.0606 60.0042 59.546 57.4751 66.2529 55.7197C69.5813 54.8528 73.2454 54.5805 76.0381 52.381C77.3523 51.3493 78.4023 50.0596 79.5522 48.856C80.6522 47.6953 81.8664 46.6922 83.2521 45.8826C86.2162 44.1559 89.8018 43.4323 93.1159 44.4998C96.0515 45.4456 98.5728 47.7239 99.4442 50.7259C99.8156 50.0668 100.194 49.4005 100.566 48.7413C97.43 49.3647 94.5301 50.339 91.9302 52.2449C90.7446 53.1118 89.6232 54.0647 88.409 54.8815C87.8519 55.2612 87.2662 55.6266 86.6519 55.9132C86.4591 56.0063 86.3091 56.0565 86.1091 56.1281C86.0162 56.1496 85.9162 56.1711 85.8234 56.1854C85.9734 56.1639 85.9877 56.1639 85.8662 56.1711C84.1663 56.2929 82.2593 55.5406 80.6593 54.6594C79.8094 54.1865 78.9951 53.6563 78.288 52.9828C77.6809 52.4025 77.3738 51.9941 77.2452 51.4209C76.7952 49.4076 73.6954 50.2674 74.1454 52.2878Z" fill="#2D2FEE"/>
<path d="M41.8047 79.6426C43.1261 71.5393 44.4403 63.4432 45.7616 55.34C46.1045 53.2192 47.2044 50.4967 49.3258 50.7976C49.94 50.8836 50.49 51.2418 50.9328 51.6788C54.3755 55.0964 51.2685 61.2795 53.2827 65.7001C55.0969 64.6684 55.1541 61.6521 57.0968 60.8855C58.6325 60.2836 60.3681 61.6736 60.7681 63.2785C61.1681 64.8905 60.6324 66.5671 60.1038 68.1361C60.5395 67.3623 61.0252 66.5456 61.8323 66.1802C63.3394 65.5138 65.1036 66.9468 65.4179 68.566C65.7321 70.1852 65.0679 71.8259 64.4179 73.3377C65.9964 73.6673 67.6035 74.1401 68.8534 75.1575C70.1034 76.1749 70.9462 77.8514 70.5605 79.4277C70.2319 80.746 69.1534 81.7204 68.1249 82.6088C63.4394 86.664 58.7539 90.7192 54.0684 94.7672" fill="white"/>
<path d="M43.3526 80.0725C44.5168 72.9078 45.6811 65.7503 46.8524 58.5856C47.0881 57.1168 47.231 55.5979 47.6953 54.1793C47.8881 53.5918 48.4024 52.4455 48.9024 52.3882C49.8023 52.2807 50.5023 53.6491 50.7237 54.3441C51.0665 55.426 51.0808 56.558 51.0594 57.6829C50.9951 60.7063 50.6594 63.6582 51.8951 66.5097C52.2379 67.2979 53.4236 67.5056 54.095 67.0901C55.0449 66.5026 55.6878 65.65 56.202 64.6684C56.552 63.9949 56.9305 62.7841 57.5662 62.4402C58.1733 62.1106 58.9019 62.8701 59.1376 63.4289C59.6876 64.7472 58.9805 66.4596 58.559 67.7062C57.9805 69.4544 60.6089 70.522 61.4946 68.9457C61.7018 68.5803 62.0375 67.7707 62.4803 67.6418C62.8803 67.5271 63.3231 67.9283 63.5445 68.2221C64.4516 69.4114 63.5231 71.3674 63.0231 72.5352C62.6446 73.4237 62.866 74.6631 63.9802 74.9067C65.8516 75.308 68.3229 75.9313 68.9443 78.0305C69.2157 78.9405 68.8014 79.6999 68.1872 80.3591C67.3658 81.2332 66.4015 81.9854 65.4944 82.7664C61.3018 86.3917 57.1163 90.0171 52.9236 93.6424C51.3522 94.9965 53.6378 97.2749 55.1949 95.9208C60.0518 91.7223 65.0087 87.6169 69.7657 83.3037C71.8656 81.3979 72.9369 78.8688 71.6441 76.1534C70.3799 73.5025 67.5229 72.3776 64.8302 71.7901C65.1516 72.5782 65.473 73.3663 65.7873 74.1616C66.9658 71.4032 68.03 67.957 65.473 65.5998C64.4945 64.6971 63.1517 64.2027 61.8303 64.4965C60.3375 64.826 59.4161 66.0727 58.709 67.3265C59.6876 67.7421 60.6661 68.1576 61.6446 68.566C62.2803 66.653 62.8946 64.4821 62.1946 62.4904C61.5803 60.7565 60.0233 59.2877 58.1376 59.1444C56.4734 59.0226 55.1378 60.0042 54.2878 61.3655C53.7093 62.2826 53.3593 63.7442 52.4665 64.2959C53.2021 64.4893 53.9307 64.6827 54.6664 64.8762C53.6021 62.4115 54.3092 59.3952 54.2735 56.8088C54.2307 53.9357 53.2879 50.4322 50.2594 49.3647C47.0239 48.2183 44.9525 51.5427 44.3383 54.2295C43.9312 56.0063 43.724 57.8548 43.4312 59.6603C43.1098 61.6592 42.7812 63.651 42.4598 65.65C41.7241 70.1709 40.9884 74.6918 40.2528 79.2127C40.1099 80.0725 40.4742 80.9466 41.3741 81.1973C42.1384 81.4051 43.2098 80.9322 43.3526 80.0725Z" fill="#2D2FEE"/>
<path d="M1.07071 112.772C-1.47917 117.73 0.94929 123.053 4.07771 127.101C7.15614 131.078 11.4917 135.341 16.7057 135.943C22.5269 136.616 26.6195 131.25 30.2908 127.567C34.6263 123.218 38.9189 118.826 43.1616 114.391C45.2829 112.177 47.4043 109.956 49.4899 107.714C51.2469 105.822 53.004 103.773 54.0825 101.395C55.1896 98.9442 55.5467 96.2288 54.5896 93.6639C53.6111 91.0344 51.8326 88.7346 50.147 86.5207C48.4328 84.2638 46.6614 81.8636 44.5544 79.9578C42.4545 78.052 39.8189 77.443 37.169 78.5679C34.6334 79.6426 32.9835 81.8565 31.6407 84.1707C30.3693 86.3559 29.1123 88.5339 27.6766 90.6117C22.0912 98.6791 14.6201 105.507 5.86335 109.949C4.82054 110.479 3.7563 110.981 2.67778 111.432C1.87782 111.769 1.30642 112.5 1.5564 113.417C1.76354 114.176 2.72778 114.878 3.53488 114.542C12.1131 110.938 19.6984 105.292 25.7981 98.2564C28.7908 94.803 31.4336 91.0559 33.6906 87.0867C34.8334 85.0806 35.9619 82.7807 38.0976 81.6773C38.8761 81.2761 39.776 81.0612 40.6403 81.269C41.7331 81.5341 42.5545 82.4511 43.283 83.2464C45.0687 85.1809 46.7329 87.2371 48.2828 89.3651C49.7256 91.3425 51.6398 93.628 51.9326 96.15C52.4612 100.714 48.0614 104.561 45.2544 107.542C41.3188 111.712 37.3476 115.839 33.3335 119.93C31.3693 121.936 29.3908 123.927 27.4123 125.912C25.5839 127.746 23.7982 129.846 21.6769 131.35C19.5698 132.848 17.2485 133.17 14.8415 132.174C12.4345 131.178 10.4131 129.337 8.63464 127.474C5.6205 124.314 1.49212 118.991 3.8563 114.406C4.79197 112.557 2.02067 110.931 1.07071 112.772Z" fill="#2D2FEE"/>
<path d="M111.658 35.3864C109.573 36.5184 108.601 39.0977 108.501 41.3689C108.444 42.6872 108.858 44.0485 109.808 44.9942C110.694 45.8755 111.901 46.3125 113.13 46.3985C114.38 46.4845 115.644 46.0546 116.744 45.4814C117.722 44.9727 118.694 44.2849 119.386 43.4251C120.158 42.4651 120.629 41.3044 120.572 40.0577C120.522 38.9544 120.165 37.8582 119.515 36.9697C117.829 34.6627 114.944 34.0179 112.251 34.5266C111.423 34.6842 110.88 35.7303 111.13 36.5112C111.415 37.3996 112.223 37.8009 113.108 37.6361C113.201 37.6217 113.287 37.6002 113.38 37.5859C113.03 37.6432 113.337 37.5931 113.43 37.5859C113.637 37.5716 113.837 37.5573 114.044 37.5573C114.23 37.5573 114.408 37.5716 114.594 37.5787C114.672 37.5859 114.901 37.6289 114.572 37.5716C114.708 37.5931 114.837 37.6146 114.972 37.6504C115.151 37.6934 115.322 37.7364 115.494 37.7937C115.58 37.8223 115.665 37.8582 115.751 37.8868C115.458 37.7865 115.672 37.851 115.737 37.8868C115.915 37.9871 116.094 38.0731 116.265 38.1877C116.301 38.2164 116.537 38.374 116.379 38.2594C116.222 38.1448 116.522 38.3884 116.558 38.417C116.679 38.5317 116.787 38.6535 116.894 38.7752C117.051 38.9544 116.708 38.46 116.901 38.7967C116.944 38.8684 116.994 38.9329 117.029 39.0045C117.115 39.1478 117.187 39.2983 117.251 39.4487C117.087 39.0833 117.294 39.6493 117.322 39.764C117.329 39.7855 117.387 39.9646 117.372 40.0004C117.422 39.8428 117.358 39.7425 117.358 39.9359C117.365 40.115 117.358 40.3013 117.358 40.4804C117.365 40.7097 117.429 40.1939 117.372 40.4088C117.344 40.5091 117.329 40.6094 117.308 40.7026C117.287 40.7814 117.258 40.853 117.237 40.9318C117.301 40.7169 117.301 40.7885 117.215 40.9533C117.158 41.0536 117.101 41.1468 117.044 41.2471C117.008 41.3115 116.858 41.4692 117.051 41.2471C116.929 41.3832 116.808 41.5193 116.679 41.6483C116.544 41.7773 116.408 41.8991 116.265 42.0137C116.515 41.8131 116.272 42.0065 116.201 42.0495C116.108 42.114 116.015 42.1785 115.915 42.243C115.537 42.4866 115.144 42.7158 114.73 42.9021C115.008 42.7803 114.48 42.9881 114.415 43.0096C114.18 43.0884 113.937 43.1457 113.694 43.1887C113.765 43.1744 113.994 43.1672 113.68 43.1815C113.587 43.1887 113.494 43.1887 113.401 43.1887C113.315 43.1887 113.23 43.1815 113.144 43.1815C112.823 43.1744 113.151 43.1959 113.187 43.1959C113.03 43.2102 112.773 43.1027 112.63 43.0526C112.58 43.0382 112.337 42.9236 112.523 43.0167C112.723 43.1171 112.358 42.9164 112.323 42.8949C112.28 42.8663 112.051 42.723 112.223 42.8448C112.423 42.9809 112.108 42.7373 112.101 42.723C112.044 42.6657 111.987 42.6012 111.93 42.5367C111.98 42.594 112.087 42.8018 111.958 42.5582C111.915 42.4722 111.865 42.3934 111.823 42.3074C111.951 42.5582 111.851 42.3719 111.83 42.3003C111.808 42.2143 111.787 42.114 111.758 42.028C111.658 41.6769 111.744 42.2286 111.737 41.8919C111.73 41.6483 111.73 41.4119 111.744 41.1683C111.765 40.853 111.751 41.0966 111.737 41.1611C111.758 41.0178 111.787 40.8745 111.815 40.7312C111.908 40.2942 112.037 39.8786 112.194 39.4631C112.173 39.5204 112.051 39.7496 112.187 39.4846C112.244 39.3699 112.301 39.2481 112.365 39.1335C112.408 39.0547 112.451 38.983 112.501 38.9114C112.523 38.8756 112.73 38.5746 112.594 38.7609C112.451 38.9544 112.708 38.6391 112.715 38.632C112.787 38.5531 112.865 38.4815 112.944 38.4099C113.022 38.3382 113.244 38.2164 112.965 38.3884C113.072 38.3239 113.18 38.2522 113.294 38.1877C114.037 37.7865 114.33 36.6975 113.872 35.981C113.372 35.2144 112.451 34.9565 111.658 35.3864Z" fill="#2D2FEE"/>
<path d="M71.3897 36.1602C73.1968 34.5338 75.0467 32.9575 76.9395 31.4315C77.2395 31.1879 77.4109 30.6577 77.4109 30.2923C77.4109 29.8982 77.2323 29.4254 76.9395 29.1531C76.6323 28.8737 76.2324 28.6587 75.8038 28.6802C75.3538 28.7017 75.0181 28.8665 74.6682 29.1531C72.7754 30.6792 70.9255 32.2554 69.1184 33.8818C68.4899 34.4478 68.5042 35.5941 69.1184 36.1602C69.7898 36.7763 70.7183 36.762 71.3897 36.1602Z" fill="#2D2FEE"/>
<path d="M50.5954 34.0179C52.2239 32.1981 53.6738 30.2206 54.9095 28.1142C55.338 27.3834 55.1023 26.3159 54.3309 25.9075C53.5595 25.4991 52.5882 25.7069 52.131 26.4878C51.5596 27.4694 50.9382 28.4223 50.274 29.3394C50.1168 29.5615 49.9526 29.7764 49.7883 29.9913C49.6597 30.1633 49.9811 29.7406 49.8526 29.9054C49.8097 29.9555 49.7669 30.0128 49.724 30.063C49.6311 30.1848 49.5312 30.2994 49.4383 30.4212C49.074 30.8654 48.7026 31.3096 48.3169 31.7324C47.7527 32.3629 47.6527 33.4017 48.3169 34.0107C48.9312 34.5839 49.9954 34.6842 50.5954 34.0179Z" fill="#2D2FEE"/>
<path d="M93.7583 74.398C90.6228 76.6764 87.8729 79.6641 86.1444 83.1676C85.8515 83.7623 85.6444 84.3498 85.7373 85.0233C85.8301 85.7111 86.2301 86.3272 86.8372 86.6711C87.7872 87.2013 89.0085 86.9506 89.8942 86.3989C91.4941 85.403 92.8441 83.8841 93.944 82.3795C95.1868 80.6815 96.1011 78.7255 96.6367 76.6907C96.851 75.874 96.3653 74.8996 95.5154 74.7061C94.6726 74.5127 93.7726 74.9569 93.5369 75.831C93.444 76.182 93.344 76.526 93.2298 76.8699C93.1726 77.0275 93.1226 77.1851 93.0583 77.3427C93.0226 77.4359 92.9869 77.5218 92.9512 77.615C92.7869 78.0449 93.0298 77.4574 92.9226 77.6938C92.6155 78.3744 92.2798 79.0408 91.8941 79.6712C91.7084 79.9793 91.5084 80.2802 91.2941 80.574C91.1941 80.7101 91.0942 80.8463 90.9942 80.9824C91.1656 80.7603 91.0156 80.9537 90.9799 80.9967C90.9013 81.0899 90.8299 81.183 90.7513 81.2761C90.2728 81.8421 89.7514 82.3795 89.1942 82.8739C89.0514 83.0028 88.9014 83.1246 88.7585 83.2464C88.7014 83.2894 88.6443 83.3324 88.5943 83.3826C88.4014 83.5473 88.78 83.2464 88.58 83.3969C88.4657 83.4829 88.3514 83.5688 88.23 83.6405C88.23 83.6405 88.0514 83.7551 88.0372 83.748C88.1086 83.7766 88.3514 83.6262 88.0586 83.7265C87.9943 83.748 87.7586 83.7909 88.0086 83.7551C88.2371 83.7193 88.0729 83.7479 88.0157 83.7408C88.4729 83.7766 88.2586 83.7981 88.1657 83.7551C88.38 83.8483 88.6728 83.9987 88.7871 84.2208C88.88 84.3999 88.9085 84.622 88.9157 84.8155C88.9157 84.837 88.8085 85.0304 88.8943 84.8585C89.0014 84.6579 89.1014 84.4573 89.2085 84.2566C89.5871 83.5688 89.9942 82.9025 90.437 82.2577C90.6513 81.9424 90.8727 81.6415 91.1013 81.3406C90.9442 81.5484 91.2227 81.1902 91.2727 81.1328C91.4156 80.9537 91.5584 80.7818 91.7084 80.6098C92.2655 79.9578 92.8655 79.3417 93.4869 78.7542C93.8155 78.4461 94.1583 78.1452 94.5083 77.8586C94.6654 77.7296 94.8225 77.6007 94.9797 77.4789C94.7725 77.6365 94.9797 77.4789 95.0154 77.4574C95.1368 77.3714 95.2582 77.2782 95.3797 77.1851C96.0582 76.6907 96.4582 75.7593 95.9582 74.9784C95.5225 74.2977 94.4869 73.8679 93.7583 74.398Z" fill="#2D2FEE"/>
<path d="M111.351 66.8608C111.401 70.0204 111.287 73.1872 111.008 76.3325C110.937 77.1779 111.801 77.9804 112.615 77.9446C113.551 77.9016 114.144 77.2353 114.222 76.3325C114.501 73.18 114.615 70.0204 114.565 66.8608C114.551 66.0154 113.836 65.2058 112.958 65.2487C112.101 65.2917 111.337 65.958 111.351 66.8608Z" fill="#2D2FEE"/>
<path d="M74.7293 67.1187C74.5864 67.1617 74.4364 67.2334 74.3007 67.2979C74.2793 67.305 74.265 67.3194 74.2436 67.3265C74.2364 67.3337 74.2293 67.3408 74.2222 67.3408C74.1365 67.3982 73.9579 67.5343 73.8865 67.5988C73.8722 67.6131 73.8579 67.6274 73.8436 67.6418C73.6151 67.8997 73.4151 68.2006 73.3579 68.5445C73.2865 68.9386 73.2722 69.2395 73.3722 69.6335C73.4151 69.8055 73.4936 69.9703 73.5722 70.1207C73.5936 70.1637 73.6151 70.2067 73.6436 70.2497C73.8579 70.5578 74.065 70.7942 74.3864 70.9877C74.4579 71.0307 74.5579 71.0665 74.6293 71.0951C74.7007 71.1238 74.7864 71.1668 74.865 71.1954C75.0507 71.2528 75.2435 71.2743 75.4364 71.2743C75.5364 71.2743 75.6364 71.2528 75.7364 71.2384C75.8292 71.2241 75.9364 71.2169 76.0292 71.1954C76.2221 71.1525 76.4078 71.0593 76.5792 70.9733C76.6935 70.916 76.7863 70.8372 76.8863 70.7584C76.9935 70.6724 77.1006 70.6008 77.1935 70.5005C77.322 70.3572 77.4363 70.1996 77.5506 70.0491C77.5934 69.9918 77.6292 69.9273 77.6649 69.8628C77.7506 69.6909 77.822 69.5046 77.8934 69.3255C77.922 69.2538 77.9434 69.175 77.9649 69.1034C77.972 69.0604 77.9791 69.0245 77.9863 68.9816C78.0149 68.8096 78.0434 68.6377 78.0506 68.4585C78.0506 68.4227 78.0506 68.3869 78.0506 68.3511C78.0363 68.1791 78.0148 67.9857 77.9791 67.8137C77.972 67.7851 77.9649 67.7564 77.9506 67.7277C77.8934 67.5844 77.8363 67.4268 77.7649 67.2907C77.7506 67.2692 77.7434 67.2549 77.7291 67.2334C77.6434 67.1044 77.5363 66.9683 77.4363 66.8536C77.422 66.8322 77.4006 66.8178 77.3792 66.7963C77.2649 66.696 77.1363 66.5957 77.0078 66.5097C76.9649 66.4811 76.922 66.4524 76.872 66.4309C76.7435 66.3736 76.5292 66.2661 76.3578 66.2232C76.3292 66.216 76.3078 66.216 76.2792 66.2088C76.1221 66.1873 75.9578 66.1515 75.7935 66.1443C75.6078 66.1372 75.4078 66.1802 75.2293 66.2088C75.1078 66.2303 75.0078 66.2805 74.8864 66.3306C74.7793 66.3736 74.6721 66.4094 74.5793 66.4811C74.4507 66.5671 74.3222 66.6674 74.2079 66.7677C74.1865 66.7892 74.165 66.8107 74.1507 66.8322C73.9222 67.1044 73.865 67.1832 73.7436 67.477C73.6936 67.5988 73.6436 67.6991 73.6151 67.828C73.5436 68.2436 73.5222 68.5875 73.6365 68.9959C73.6436 69.0246 73.6579 69.0532 73.665 69.0819C73.7222 69.2323 73.7793 69.3899 73.8579 69.5261C73.8722 69.5547 73.8865 69.5762 73.9008 69.6049C73.9936 69.7339 74.0936 69.87 74.1936 69.9846C74.215 70.0061 74.2293 70.0276 74.2579 70.0491C74.3722 70.1494 74.5079 70.2569 74.6364 70.3429C74.8007 70.4503 74.9864 70.5148 75.1721 70.5793C75.3864 70.6438 75.6007 70.6581 75.815 70.6079C76.0292 70.6008 76.2292 70.5363 76.4149 70.4145C76.6006 70.3142 76.7506 70.1781 76.8649 69.9989C77.0078 69.8413 77.1006 69.6622 77.1506 69.4473C77.172 69.304 77.1863 69.1607 77.2077 69.0174C77.2077 68.7236 77.1363 68.4585 76.9863 68.2006C76.9006 68.0931 76.822 67.9857 76.7363 67.871C76.5363 67.6704 76.3006 67.5343 76.0292 67.4555C76.0078 67.4483 75.9935 67.4412 75.9721 67.434C76.1007 67.4913 76.2292 67.5415 76.3578 67.5988C76.3149 67.5773 76.2792 67.5558 76.2435 67.5271C76.3506 67.6131 76.4578 67.6919 76.5721 67.7779C76.5292 67.7421 76.4935 67.7062 76.4649 67.6704C76.5506 67.7779 76.6292 67.8854 76.7149 68C76.6721 67.9498 76.6435 67.8925 76.6149 67.828C76.6721 67.957 76.7221 68.086 76.7792 68.2149C76.7578 68.1505 76.7363 68.0931 76.7292 68.0215C76.7506 68.1648 76.7649 68.3081 76.7863 68.4514C76.7792 68.3869 76.7792 68.3224 76.7863 68.2579C76.7649 68.4012 76.7506 68.5445 76.7292 68.6878C76.7363 68.6305 76.7506 68.5732 76.772 68.523C76.7149 68.652 76.6649 68.781 76.6078 68.9099C76.6292 68.8669 76.6506 68.8311 76.6792 68.7953C76.5935 68.9027 76.5149 69.0102 76.4292 69.1249C76.4578 69.089 76.4863 69.0532 76.5292 69.0245C76.4221 69.1105 76.3149 69.1893 76.2006 69.2753C76.2435 69.2467 76.2864 69.218 76.3364 69.1965C76.2078 69.2538 76.0792 69.304 75.9507 69.3613C76.0007 69.3398 76.0507 69.3326 76.1007 69.3183C75.9578 69.3398 75.8149 69.3541 75.6721 69.3756C75.7364 69.3685 75.8007 69.3685 75.8649 69.3756C75.7221 69.3541 75.5792 69.3398 75.4364 69.3183C75.5078 69.3255 75.5792 69.347 75.6435 69.3756C75.515 69.3183 75.3864 69.2681 75.2578 69.2108C75.315 69.2323 75.365 69.2681 75.4078 69.2968C75.3007 69.2108 75.1936 69.132 75.0793 69.046C75.1221 69.0819 75.1578 69.1105 75.1864 69.1535C75.1007 69.046 75.0221 68.9386 74.9364 68.8239C74.965 68.8669 74.9936 68.9099 75.015 68.9601C74.9578 68.8311 74.9079 68.7021 74.8507 68.5732C74.8721 68.6233 74.8793 68.6663 74.8864 68.7165C74.865 68.5732 74.8507 68.4299 74.8293 68.2866C74.8364 68.3654 74.8364 68.4514 74.8293 68.5302C74.8507 68.3869 74.865 68.2436 74.8864 68.1003C74.865 68.2293 74.8293 68.3582 74.7793 68.48C74.8364 68.3511 74.8864 68.2221 74.9436 68.0931C74.8936 68.2078 74.8293 68.3224 74.7579 68.4227C74.8436 68.3152 74.9221 68.2078 75.0078 68.0931C74.9436 68.1791 74.865 68.2579 74.7793 68.3224C74.8864 68.2364 74.9936 68.1576 75.1078 68.0716C75.0507 68.1146 74.9864 68.1505 74.9221 68.1791C75.0507 68.1218 75.1793 68.0716 75.3078 68.0143C75.2435 68.043 75.1721 68.0573 75.1078 68.0716C75.2507 68.0502 75.3935 68.0358 75.5364 68.0143C75.4793 68.0215 75.4293 68.0215 75.3721 68.0143C75.515 68.0358 75.6578 68.0502 75.8007 68.0716C75.765 68.0645 75.7221 68.0573 75.6864 68.043C75.815 68.1003 75.9435 68.1505 76.0721 68.2078C76.0364 68.1934 76.0078 68.172 75.9721 68.1505C76.0792 68.2364 76.1864 68.3152 76.3006 68.4012C76.2578 68.3726 76.2292 68.3367 76.1935 68.2938C76.2792 68.4012 76.3578 68.5087 76.4435 68.6233C76.4078 68.5803 76.3792 68.5302 76.3578 68.48C76.4149 68.609 76.4649 68.738 76.5221 68.8669C76.5006 68.8096 76.4792 68.7523 76.4721 68.6878C76.4935 68.8311 76.5078 68.9744 76.5292 69.1177C76.5221 69.0675 76.5221 69.0102 76.5292 68.9601C76.5078 69.1034 76.4935 69.2467 76.4721 69.3899C76.4792 69.347 76.4863 69.3111 76.5006 69.2753C76.4435 69.4043 76.3935 69.5332 76.3364 69.6622C76.3506 69.6335 76.3649 69.6121 76.3792 69.5906C76.2935 69.698 76.2149 69.8055 76.1292 69.9201C76.1435 69.8986 76.1649 69.8843 76.1792 69.87C76.0721 69.956 75.9649 70.0348 75.8507 70.1207C75.8721 70.0993 75.9007 70.0849 75.9292 70.0778C75.8007 70.1351 75.6721 70.1852 75.5435 70.2425C75.5578 70.2354 75.5721 70.2282 75.5935 70.2282C75.8007 70.1781 75.9864 70.0849 76.1435 69.9416C76.3149 69.827 76.4578 69.6765 76.5578 69.4903C76.6721 69.304 76.7363 69.1034 76.7506 68.8884C76.8006 68.6735 76.7863 68.4585 76.722 68.2436C76.5935 67.8567 76.3578 67.477 75.9864 67.2835C75.5864 67.0758 75.1507 66.9969 74.7293 67.1187Z" fill="#2D2FEE"/>
</g>
<defs>
<clipPath id="clip0">
<rect width="153" height="136" fill="white"/>
</clipPath>
</defs>
</svg>
