<svg width="259" height="270" viewBox="0 0 259 270" fill="none" xmlns="http://www.w3.org/2000/svg">
<g clip-path="url(#clip0)">
<path d="M55.4246 54.7971C56.4824 60.464 58.893 66.2696 63.5232 69.9435C65.5036 71.5423 67.8732 72.587 70.39 72.9706C72.9067 73.3542 75.4803 73.0631 77.8475 72.1271C80.0919 71.2747 82.0263 69.7645 83.3969 67.7946C85.1311 65.1604 84.8884 62.2837 85.3046 59.2856C85.426 58.5404 85.7207 56.8767 86.6919 56.7728C87.663 56.6688 88.6862 57.9859 89.2758 58.5057C91.4262 60.2387 93.8367 61.2959 96.542 60.1521C98.2068 59.2734 99.7273 58.1455 101.051 56.8074L105.959 52.5616L116.364 43.498C116.851 43.0106 117.124 42.3499 117.124 41.6611C117.124 40.9722 116.851 40.3115 116.364 39.8241C113.346 37.3806 109.704 34.3825 108.681 30.4486C107.658 26.5147 110.416 23.3087 113.485 21.2291C119.901 17.0006 128.746 15.5102 132.179 7.7811C132.769 6.44669 132.457 4.22847 130.619 3.96852L124.913 3.13669L126.734 6.32539L127.393 3.82988C127.539 3.27555 127.501 2.68887 127.286 2.15773C127.07 1.6266 126.688 1.17962 126.197 0.883799C123.405 -0.745212 120.474 0.25992 117.872 1.80228C114.647 3.7259 111.473 5.8055 108.317 7.85043C102.057 11.9056 95.8137 16.0301 89.7614 20.3973C84.8016 24.0019 79.8592 28.0224 76.8244 33.464C75.6434 35.8846 74.6068 38.3729 73.7202 40.9159C72.8531 43.0648 71.7086 45.4563 69.142 45.7509C67.3037 45.9589 65.4828 45.6296 63.6446 45.9069C62.2111 46.0801 60.8163 46.4901 59.5172 47.12C58.2052 47.758 57.1059 48.7618 56.352 50.0103C55.5981 51.2588 55.2218 52.6985 55.2685 54.156C55.2685 54.8454 55.5426 55.5066 56.0304 55.9941C56.5182 56.4816 57.1799 56.7554 57.8698 56.7554C58.5597 56.7554 59.2214 56.4816 59.7092 55.9941C60.197 55.5066 60.4711 54.8454 60.4711 54.156C60.4711 50.9846 64.4943 50.8806 66.8875 50.9326C70.1478 50.9326 73.0959 50.586 75.4371 48.1078C77.3237 45.7629 78.7212 43.0641 79.5471 40.1707C80.6081 37.0838 82.2636 34.2343 84.4201 31.783C89.5186 26.1508 96.3166 22.0783 102.56 17.9191C106.155 15.516 109.774 13.1418 113.416 10.7965C115.289 9.60075 117.179 8.40499 119.086 7.22655C120.092 6.60268 122.329 4.69639 123.578 5.49356L122.381 2.5648L121.722 5.07763C121.538 5.73017 121.616 6.42878 121.94 7.02447C122.264 7.62016 122.808 8.06579 123.457 8.26633L129.162 9.09819L127.619 5.28558C125.763 9.44476 121.688 11.455 117.751 13.2747C113.814 15.0943 109.514 17.0353 106.514 20.4666C105.028 22.068 103.992 24.0334 103.51 26.1637C103.029 28.294 103.12 30.5136 103.774 32.5975C105.3 37.19 108.976 40.6906 112.618 43.6714V39.9974L102.213 49.0436L97.0103 53.5841C96.0565 54.3986 94.9293 55.9409 93.5419 55.4383C92.1546 54.9358 91.3742 53.7054 90.3163 53.0468C89.1531 52.2333 87.7647 51.8032 86.345 51.8164C82.9807 51.9204 80.7263 55.0571 80.1887 58.1245C79.6511 61.1919 80.3795 64.3633 77.7435 66.4775C76.7711 67.1842 75.6678 67.6906 74.4978 67.9673C73.3278 68.2439 72.1144 68.2854 70.9282 68.0892C64.2863 67.0494 61.4075 59.4242 60.3323 53.636C59.7253 50.3434 54.7136 51.7471 55.3205 55.0224L55.4246 54.7971Z" fill="#2D2FEE"/>
<path d="M70.8412 51.955C70.4726 51.5733 69.9965 51.3125 69.4762 51.2073C68.9559 51.102 68.4159 51.1573 67.9278 51.3658C67.5489 51.5199 67.2083 51.7548 66.9297 52.0542C66.6512 52.3535 66.4414 52.71 66.315 53.0988C66.1057 54.0733 66.2796 55.091 66.8006 55.9409C67.1677 56.8024 67.627 57.6217 68.1706 58.3844C69.4338 60.2164 71.0563 61.7729 72.9396 62.9595C73.5281 63.2749 74.215 63.3536 74.8597 63.1797C75.5044 63.0057 76.0582 62.5922 76.4079 62.0237C76.7384 61.4264 76.8272 60.7253 76.6562 60.0645C76.4853 59.4037 76.0675 58.8335 75.4888 58.471C75.1114 58.2427 74.7466 57.9939 74.3963 57.7259L74.9339 58.1245C74.0343 57.4236 73.2247 56.6145 72.5233 55.7156L72.9396 56.2528C72.2309 55.3223 71.6478 54.3027 71.2054 53.2201L71.4655 53.844C71.3726 53.6548 71.2971 53.4576 71.2401 53.2548L71.3441 53.9479V54.6238L71.084 55.2477L70.6678 55.7849L70.1475 56.1835L68.1532 56.4435L67.0087 55.7849C67.3724 56.148 67.8357 56.3952 68.34 56.4953C68.8443 56.5954 69.367 56.544 69.842 56.3474C70.3171 56.1508 70.7232 55.818 71.009 55.391C71.2949 54.9639 71.4477 54.4617 71.4482 53.9479L71.3441 53.2548C71.2288 52.8223 71.0015 52.4278 70.6851 52.111L70.8412 51.955Z" fill="#2D2FEE"/>
<path d="M82.391 47.5191C84.5763 48.7263 86.9613 49.5305 89.4317 49.8933C91.7111 50.0335 93.9793 49.4774 95.9349 48.299C97.9213 47.0763 99.485 45.2746 100.415 43.1366C101.345 40.9985 101.597 38.627 101.137 36.3414C100.933 35.6963 100.486 35.1554 99.8915 34.8323C99.2965 34.5091 98.5995 34.4289 97.9466 34.6084C97.2911 34.8098 96.7374 35.254 96.3989 35.85C96.0604 36.446 95.9627 37.1487 96.1257 37.8144C96.2644 38.5249 96.1257 37.2772 96.1257 38.005C96.1257 38.1956 96.1257 38.3863 96.1257 38.5769C96.1257 38.7675 96.1257 38.9408 96.1257 39.1315C96.1257 39.3221 96.039 39.946 96.1257 39.3394C96.0756 39.7081 96.0003 40.0729 95.9003 40.4312C95.9003 40.6045 95.7962 40.7951 95.7268 40.9684C95.6575 41.1417 95.5361 41.4017 95.7268 41.0724C95.557 41.4469 95.3659 41.8114 95.1546 42.1642L94.8251 42.6321C95.1372 42.1815 94.721 42.7361 94.669 42.7881C94.617 42.8401 94.1314 43.3253 93.8539 43.5852C94.2354 43.2386 93.6979 43.6719 93.6458 43.7239L93.1429 44.0185L92.64 44.2784C92.2064 44.5037 92.7961 44.2784 92.5186 44.2784C92.2412 44.2784 91.7209 44.5557 91.3047 44.6424H90.9578H90.6283C90.1948 44.6424 89.7786 44.6424 89.3624 44.6424C88.9462 44.6424 89.7439 44.729 89.241 44.6424C89.0156 44.6424 88.7901 44.6424 88.582 44.4864C88.1564 44.3708 87.7392 44.226 87.3334 44.0532L87.1079 43.9492L86.501 43.6719C86.0154 43.4466 85.5472 43.204 85.0616 42.996C84.4618 42.6674 83.7588 42.5812 83.0973 42.7553C82.4359 42.9295 81.8665 43.3506 81.5066 43.9318C81.1583 44.5251 81.0595 45.232 81.2317 45.8979C81.404 46.5638 81.8333 47.1343 82.4257 47.4845L82.391 47.5191Z" fill="#2D2FEE"/>
<path d="M92.5876 60.5853L98.6052 65.6976C100.547 67.4306 102.472 69.5448 105.282 68.9036C107.571 68.4011 109.652 66.3735 111.507 65.0564C113.363 63.7393 115.548 62.2316 117.56 60.7933C121.288 58.1244 125.242 54.1559 123.786 49.0956C123.178 47.2646 122.074 45.6386 120.595 44.3991C119.25 43.3773 118.017 42.2155 116.918 40.9332C116.599 40.3875 116.092 39.9765 115.492 39.7772C114.892 39.5779 114.24 39.6039 113.658 39.8502C113.075 40.0966 112.603 40.5465 112.328 41.1158C112.054 41.6851 111.996 42.3348 112.166 42.9434C113.051 45.4975 114.112 47.9874 115.34 50.3953C115.607 50.8278 115.993 51.174 116.451 51.3923C116.91 51.6106 117.423 51.6917 117.927 51.6257C118.431 51.5598 118.905 51.3497 119.292 51.0207C119.679 50.6917 119.963 50.2579 120.109 49.7714C120.43 48.3918 120.43 46.9572 120.109 45.5776L115.097 46.964C115.758 49.1566 116.641 51.2761 117.733 53.2894C118.031 53.7662 118.475 54.1344 118.999 54.3394C119.523 54.5443 120.099 54.5752 120.642 54.4275C121.185 54.2797 121.666 53.9611 122.013 53.5189C122.361 53.0767 122.557 52.5344 122.572 51.9723C122.565 51.0402 122.33 50.1238 121.889 49.3024C121.448 48.4811 120.813 47.7795 120.04 47.2586C119.443 46.9166 118.735 46.8231 118.07 46.9982C117.405 47.1733 116.835 47.603 116.485 48.1944C115.809 49.3594 115.285 50.6057 114.924 51.903C114.781 52.5539 114.894 53.2346 115.24 53.8046C115.585 54.3746 116.136 54.7904 116.779 54.9661C117.422 55.1418 118.108 55.064 118.696 54.7487C119.283 54.4335 119.727 53.9049 119.936 53.2721C120.264 52.2784 120.405 51.2324 120.352 50.1873C120.336 49.6806 120.174 49.1893 119.885 48.7723C119.597 48.3553 119.194 48.0303 118.726 47.8364C118.257 47.6425 117.742 47.5878 117.243 47.679C116.744 47.7702 116.282 48.0033 115.912 48.3504C114.196 50.2351 112.865 52.4368 111.993 54.8318C111.853 55.3829 111.897 55.9646 112.117 56.4889C112.337 57.0131 112.723 57.4513 113.215 57.7372C113.706 58.0232 114.278 58.1412 114.843 58.0735C115.408 58.0057 115.936 57.7559 116.346 57.3619C117.702 55.8304 118.459 53.8612 118.479 51.8163C118.463 51.3097 118.301 50.8183 118.013 50.4013C117.724 49.9843 117.321 49.6594 116.853 49.4654C116.384 49.2715 115.869 49.2168 115.37 49.308C114.871 49.3991 114.409 49.6323 114.039 49.9794C112.525 51.7324 111.232 53.6647 110.19 55.7329L114.681 58.3671L116.415 54.5198C116.722 53.9736 116.822 53.3358 116.698 52.7222C116.574 52.1085 116.233 51.5596 115.739 51.1751C115.242 50.7668 114.61 50.5597 113.968 50.595C113.325 50.6303 112.72 50.9054 112.271 51.3658L106.461 58.6617L110.554 61.8157L113.207 56.9287C114.334 54.8317 111.854 51.7297 109.635 53.3587C107.274 55.1226 105.193 57.2316 103.461 59.6148C101.727 62.0237 105.559 64.9178 107.536 62.7689C108.506 61.7492 109.219 60.5136 109.617 59.1642C110.207 57.154 107.658 54.8144 105.785 56.2355L101.553 59.4415L104.71 63.5314C105.265 63.0352 105.707 62.4257 106.006 61.744C106.305 61.0624 106.455 60.3244 106.444 59.5801C106.444 57.1193 102.785 55.8715 101.605 58.2631C101.779 57.8991 102.576 57.9685 102.628 57.8298C102.56 57.5624 102.455 57.3058 102.316 57.0673L101.952 58.3671L102.143 58.1244L101.206 59.0603C102.611 58.0378 104.137 57.154 105.594 56.2008L102.126 52.6482L101.258 54.0692C99.663 56.738 103.183 59.0602 105.351 57.2233C106.989 55.8403 108.547 54.3649 110.016 52.8042L105.923 49.6501L103.617 54.2252C102.334 56.738 105.611 59.6668 107.692 57.3793L112.184 52.4402L107.831 49.91C107.601 50.7551 107.212 51.549 106.686 52.2496C106.216 52.7455 105.953 53.403 105.953 54.0866C105.953 54.7701 106.216 55.4276 106.686 55.9235C107.174 56.4103 107.835 56.6838 108.525 56.6838C109.214 56.6838 109.875 56.4103 110.363 55.9235L113.19 52.4575C113.584 52.0433 113.836 51.5149 113.911 50.9482C113.986 50.3815 113.879 49.8057 113.606 49.3035V49.1995C113.249 48.6104 112.676 48.1832 112.009 48.0086C111.343 47.8339 110.634 47.9254 110.033 48.2637C109.698 48.4473 109.403 48.6967 109.166 48.9969C108.929 49.2971 108.755 49.6419 108.655 50.0108C108.555 50.3797 108.53 50.765 108.582 51.1438C108.634 51.5225 108.762 51.8868 108.958 52.2149C109.209 52.5809 109.54 52.8858 109.924 53.1072C110.309 53.3285 110.739 53.4607 111.182 53.494C111.624 53.5273 112.069 53.4607 112.482 53.2993C112.896 53.138 113.268 52.8858 113.571 52.5615C115.565 50.5859 115.791 45.9588 112.271 45.4909L114.178 47.9864C114.178 49.6155 112.444 49.7194 111.594 48.593L111.23 47.2759L111.057 50.118C110.848 53.4627 116.051 53.4454 116.259 50.118C116.577 48.7471 116.517 47.3157 116.086 45.9762C115.811 45.4952 115.426 45.0868 114.961 44.7853C114.497 44.4838 113.966 44.2979 113.415 44.2432C112.872 44.1647 112.318 44.202 111.791 44.3528C111.263 44.5037 110.773 44.7645 110.354 45.1182C109.934 45.4718 109.595 45.9103 109.357 46.4047C109.12 46.8991 108.99 47.4382 108.976 47.9864C108.978 48.5579 109.167 49.1128 109.515 49.5666C109.862 50.0203 110.349 50.3479 110.901 50.4993L109.999 49.7194V48.333C109.999 48.7143 109.773 48.9569 110.172 48.6623L111.49 48.3157H111.213L113.45 49.5981V49.4595V52.0763V51.903L112.531 52.8388L112.669 52.7522L109.114 51.8163V51.9203L109.513 48.7836L106.686 52.2496L110.363 55.9235C111.486 54.5592 112.329 52.9868 112.843 51.2964C112.977 50.7486 112.93 50.172 112.71 49.6527C112.49 49.1335 112.107 48.6993 111.62 48.4148C111.132 48.1304 110.566 48.0109 110.005 48.0742C109.444 48.1376 108.919 48.3803 108.507 48.7663L104.016 53.7053L108.109 56.842L110.415 52.2669C111.698 49.7541 108.455 46.86 106.34 49.1129C104.875 50.6835 103.317 52.165 101.675 53.5493L105.75 56.7034L106.617 55.2823C106.897 54.7856 107.007 54.2111 106.93 53.6464C106.853 53.0816 106.593 52.5574 106.191 52.1534C105.789 51.7494 105.265 51.4877 104.701 51.4081C104.136 51.3285 103.56 51.4353 103.062 51.7124C101.396 52.636 99.7913 53.6664 98.2584 54.7971C96.5242 56.2701 96.9924 58.2631 97.8942 59.9961C98.2173 60.708 98.697 61.338 99.2975 61.839C99.898 62.3401 100.604 62.6994 101.363 62.8902C102.251 63.0968 103.183 63.007 104.016 62.6347C104.849 62.2623 105.537 61.6277 105.975 60.8279L101.12 59.5282C101.12 59.7881 101.675 59.1642 100.946 59.7881C98.796 61.7291 101.727 65.6803 104.103 63.878L108.351 60.6719L104.536 57.7259C104.396 58.2178 104.14 58.6692 103.79 59.0429L107.883 62.197C109.091 60.5194 110.547 59.0352 112.201 57.7952L108.733 54.2425L106.062 59.1296C105.758 59.6792 105.659 60.3189 105.783 60.9345C105.907 61.5502 106.246 62.102 106.738 62.4916C107.239 62.894 107.872 63.0956 108.513 63.0571C109.154 63.0187 109.758 62.7429 110.207 62.2836L116.016 55.005L111.941 51.851L110.207 55.6809C109.857 56.2761 109.759 56.9857 109.933 57.6536C110.107 58.3215 110.539 58.8929 111.135 59.2422C111.73 59.5915 112.44 59.6901 113.109 59.5162C113.777 59.3423 114.349 58.9103 114.698 58.3151C115.512 56.625 116.531 55.0418 117.733 53.6013L113.294 51.7644C113.326 52.4412 113.11 53.1065 112.687 53.636L117.022 56.1661C117.614 54.6192 118.49 53.1967 119.606 51.9723L115.167 50.1353C115.199 50.7219 115.122 51.3094 114.941 51.8683L119.953 53.2374C120.195 52.3766 120.544 51.5497 120.993 50.7765L117.525 51.7124C117.525 51.7124 117.525 51.903 117.525 51.9377L122.381 50.6206C121.502 49.0056 120.793 47.3039 120.265 45.5429C120.065 44.897 119.622 44.3542 119.028 44.0297C118.435 43.7053 117.738 43.6247 117.086 43.8051C116.434 43.9854 115.878 44.4126 115.536 44.9959C115.194 45.5791 115.092 46.2727 115.253 46.9293C115.366 47.4022 115.366 47.8948 115.253 48.3677L120.005 47.7438C118.979 45.7331 118.093 43.6544 117.352 41.5224L112.6 43.5153C113.503 44.746 114.551 45.8632 115.722 46.8427C116.763 47.6092 117.701 48.5061 118.514 49.5115C120.439 52.3362 116.779 55.0744 114.733 56.4434C111.421 58.7656 108.195 61.3305 104.744 63.3754C104.575 63.4959 104.395 63.6003 104.207 63.6873C104.298 63.6696 104.392 63.6696 104.484 63.6873C104.623 63.6873 104.016 63.2194 103.86 63.0808L101.449 61.0359L96.4375 56.7727C95.9393 56.3061 95.282 56.0464 94.5992 56.0464C93.9164 56.0464 93.2592 56.3061 92.761 56.7727C92.2781 57.2623 92.0073 57.9222 92.0073 58.6097C92.0073 59.2972 92.2781 59.957 92.761 60.4466L92.5876 60.5853Z" fill="#2D2FEE"/>
<path d="M103.826 66.391L160.672 120.547L174.615 107.342L121.376 50.1182" stroke="#2D2FEE" stroke-width="2" stroke-miterlimit="10" stroke-linecap="round"/>
<path d="M159.666 122.21C185.734 145.872 209.972 171.472 232.172 198.791C233.525 200.524 234.843 202.101 236.178 203.765C237.113 205.292 238.374 206.594 239.872 207.577C243.202 209.224 247.693 206.156 250.277 204.111C255.202 200.455 262.416 192.604 257.214 186.539C254.751 183.697 251.023 181.825 248.179 179.364C244.918 176.539 241.884 173.489 238.831 170.474C232.311 164.05 225.831 157.592 219.391 151.099C204.772 136.369 190.378 121.396 176.488 106.041C174.233 103.546 170.574 107.237 172.811 109.715C184.291 122.47 196.119 134.913 208.136 147.165C214.044 153.196 219.992 159.186 225.981 165.136C231.877 171.011 237.67 177.094 243.913 182.605C246.705 185.048 249.965 186.972 252.688 189.433C253.867 190.507 254.214 191.166 253.503 192.691C252.725 194.259 251.733 195.711 250.554 197.006C249.468 198.231 248.246 199.33 246.913 200.281C245.855 201.009 243.722 202.725 242.386 202.742C241.329 202.742 239.612 199.727 238.918 198.826C237.583 197.093 236.247 195.498 234.895 193.852C224.652 181.236 213.946 169.012 202.778 157.182C190.153 143.792 177.025 130.898 163.395 118.501C160.932 116.266 157.238 119.923 159.718 122.193L159.666 122.21Z" fill="#2D2FEE"/>
<path d="M173.037 128.883C176.426 125.748 179.521 122.308 182.28 118.606C182.457 118.31 182.573 117.98 182.621 117.638C182.668 117.296 182.647 116.947 182.557 116.613C182.357 115.962 181.908 115.415 181.308 115.091C180.708 114.767 180.004 114.691 179.349 114.88C178.713 115.101 178.166 115.52 177.788 116.076L177.528 116.44L177.407 116.596L177.181 116.873L176.175 118.121C175.482 118.97 174.753 119.854 174.008 120.599C172.551 122.211 171.025 123.736 169.429 125.209C168.946 125.699 168.676 126.359 168.676 127.046C168.676 127.734 168.946 128.393 169.429 128.883C169.924 129.357 170.582 129.622 171.268 129.622C171.953 129.622 172.612 129.357 173.106 128.883H173.037Z" fill="#2D2FEE"/>
<path d="M183.806 136.508C184.326 135.71 184.864 134.913 185.436 134.133C185.696 133.752 185.974 133.371 186.268 133.007L186.459 132.747C186.06 133.301 186.32 132.938 186.459 132.747L186.927 132.158C188.13 130.66 189.41 129.226 190.76 127.86C191.239 127.368 191.507 126.709 191.507 126.023C191.507 125.337 191.239 124.678 190.76 124.186C190.264 123.715 189.606 123.453 188.922 123.453C188.238 123.453 187.58 123.715 187.083 124.186C184.186 127.124 181.6 130.353 179.366 133.821C179.02 134.417 178.923 135.125 179.099 135.791C179.275 136.457 179.708 137.027 180.303 137.374C180.892 137.685 181.578 137.762 182.221 137.588C182.865 137.414 183.419 137.004 183.771 136.438L183.806 136.508Z" fill="#2D2FEE"/>
<path d="M188.089 145.952C191.272 142.292 194.666 138.82 198.252 135.554C198.735 135.064 199.005 134.405 199.005 133.717C199.005 133.03 198.735 132.37 198.252 131.88C197.758 131.406 197.099 131.141 196.413 131.141C195.728 131.141 195.069 131.406 194.575 131.88C190.985 135.142 187.592 138.614 184.413 142.278C183.953 142.771 183.703 143.423 183.715 144.096C183.727 144.769 184 145.412 184.477 145.888C184.953 146.365 185.596 146.637 186.27 146.649C186.944 146.661 187.596 146.411 188.089 145.952Z" fill="#2D2FEE"/>
<path d="M196.413 151.585L205.622 142.175C206.049 141.679 206.273 141.04 206.25 140.385C206.226 139.731 205.956 139.11 205.494 138.646C205.032 138.182 204.411 137.909 203.757 137.882C203.102 137.855 202.461 138.076 201.963 138.501L192.737 147.911C192.249 148.401 191.976 149.064 191.978 149.754C191.98 150.445 192.256 151.107 192.746 151.594C193.235 152.081 193.899 152.354 194.59 152.352C195.281 152.35 195.943 152.075 196.431 151.585H196.413Z" fill="#2D2FEE"/>
<path d="M205.431 158.673C207.789 155.519 210.165 152.4 212.524 149.246C212.702 148.946 212.818 148.613 212.862 148.267C212.907 147.922 212.88 147.57 212.784 147.235C212.602 146.585 212.173 146.031 211.587 145.693C211.291 145.515 210.96 145.4 210.617 145.355C210.274 145.31 209.925 145.337 209.593 145.433C208.952 145.643 208.401 146.064 208.032 146.629L200.939 156.039C200.592 156.637 200.495 157.348 200.671 158.017C200.846 158.686 201.279 159.258 201.876 159.609C202.481 159.952 203.197 160.045 203.87 159.869C204.508 159.653 205.057 159.233 205.431 158.673Z" fill="#2D2FEE"/>
<path d="M213.079 169.175C215.652 165.875 219.015 163.276 222.859 161.619L219.929 157.807L216.27 166.194L221.108 167.511C220.934 166.282 220.987 165.031 221.264 163.82C221.94 161.099 217.796 159.002 216.512 161.81L213.564 168.603C212.264 171.584 216.426 174.253 218.056 171.22L221.264 165.241L216.773 162.607L213.807 168.257C212.506 170.717 215.923 173.802 217.882 171.393L222.911 165.258L218.559 162.728L216.946 169.782C216.806 170.382 216.883 171.012 217.163 171.561C217.443 172.111 217.908 172.544 218.476 172.784C219.044 173.024 219.678 173.057 220.268 172.875C220.857 172.694 221.363 172.31 221.698 171.792L224.507 166.922L219.738 164.912L217.501 171.844C216.599 174.599 221.073 176.592 222.253 173.854L224.646 168.309L219.877 166.316C219.235 168.315 218.452 170.266 217.536 172.156H222.027C221.619 171.291 221.328 170.376 221.16 169.435L216.148 170.804C217.231 174.638 218.824 178.31 220.883 181.722C222.617 184.668 226.64 182.086 225.374 179.105L222.946 173.352L218.455 175.968L226.917 190.768C228.34 193.264 232.692 191.6 231.669 188.775L227.108 176.107L222.339 178.117C224.984 182.087 227.221 186.314 229.016 190.733L234.028 189.347L228.565 176.159L224.212 178.689C226.596 181.281 228.269 184.445 229.068 187.874L233.819 185.864C231.155 181.814 229.06 177.417 227.594 172.797L223.779 175.726C224.742 176.096 225.599 176.7 226.271 177.484C226.943 178.267 227.41 179.206 227.628 180.214L231.964 177.684C229.867 175.62 228.629 172.841 228.496 169.903L225.201 172.416C225.424 172.481 225.631 172.59 225.811 172.737C225.991 172.884 226.139 173.065 226.248 173.27C226.356 173.476 226.422 173.701 226.442 173.932C226.462 174.163 226.435 174.396 226.363 174.617L230.715 173.473C229.487 172.329 228.701 170.789 228.496 169.123L224.576 171.376C224.797 171.533 224.973 171.745 225.085 171.992C225.198 172.238 225.244 172.51 225.218 172.78L229.05 171.237C228.426 170.949 227.896 170.49 227.521 169.914C227.147 169.337 226.944 168.667 226.935 167.979L223.016 170.215C223.016 170.215 223.432 170.631 223.362 170.683C224.836 169.695 222.53 171.133 222.617 170.96L225.565 169.764C225.894 169.886 225.201 169.972 225.842 170.197C228.756 171.22 230.195 167.009 227.854 165.449C227.741 165.385 227.651 165.287 227.598 165.168C227.545 165.05 227.531 164.917 227.559 164.791L223.744 166.333C225.349 167.588 226.668 169.172 227.611 170.977L232.103 168.36L228.877 163.733C226.987 161.03 222.634 163.439 224.386 166.35C227.665 171.794 231.315 177.005 235.311 181.947C237.166 184.217 241.068 181.219 239.404 178.793L233.872 170.735L229.796 173.871L240.461 185.812L243.6 181.739C242.247 180.674 241.12 179.348 240.288 177.84L236.733 181.41C239.003 183.138 240.818 185.393 242.022 187.978L246.098 184.824C245.097 183.679 244.288 182.38 243.704 180.977L239.872 183.923C241.88 185.133 243.364 187.049 244.034 189.295L248.785 187.285L247.71 185.552L244.155 189.104C244.749 189.341 245.278 189.716 245.697 190.198C246.117 190.681 246.415 191.256 246.566 191.877L250.901 189.347C250.211 188.589 249.748 187.652 249.566 186.644L247.051 189.971C247.308 189.994 247.558 190.072 247.782 190.199C248.007 190.326 248.202 190.5 248.354 190.708C248.507 190.916 248.613 191.154 248.667 191.407C248.72 191.659 248.719 191.92 248.664 192.172L251.265 189.572L252.289 190.56L248.994 193.056L248.872 192.726L250.78 190.214L251.976 190.404L252.739 192.241L251.838 193.368L248.543 190.855C248.637 191.392 248.539 191.944 248.266 192.417C247.994 192.889 247.564 193.25 247.051 193.437L250.26 195.256L250.069 195.534L245.976 192.38C245.799 192.932 245.455 193.416 244.993 193.766C244.531 194.116 243.972 194.316 243.392 194.338L246.34 198.168L245.161 198.497L243.34 195.308C243.34 195.499 243.132 195.534 242.924 195.395L245.439 197.301L244.918 198.341L242.317 195.742C242.326 195.907 242.291 196.071 242.214 196.217C242.138 196.364 242.024 196.487 241.883 196.574L245.803 198.826L245.144 199.572L242.889 198.289L243.045 197.527L246.965 199.762C246.757 199.988 246.739 200.178 246.965 200.369L245.126 195.932C244.628 196.544 244.044 197.081 243.392 197.527C242.723 197.926 242.021 198.268 241.294 198.549C240.652 198.272 239.473 193.922 239.109 192.813L234.773 195.343C235.268 195.958 235.67 196.641 235.97 197.371L240.722 195.36C239.111 192.343 237.714 189.216 236.542 186.002L232.207 188.533C234.223 190.754 236.023 193.162 237.583 195.724L242.074 193.09C239.233 189.396 236.944 185.31 235.276 180.959L230.923 183.489C233.63 186.366 235.217 190.116 235.398 194.061L239.837 192.224C238.679 191.286 237.733 190.114 237.06 188.785C236.388 187.456 236.004 186 235.935 184.512L231.444 186.297C233.277 188.1 234.692 190.283 235.588 192.692L239.404 189.763C238.41 189.017 237.66 187.993 237.25 186.82C236.839 185.648 236.786 184.38 237.097 183.178L232.744 184.321C235.528 187.284 237.801 190.686 239.473 194.39L243.566 191.236C241.85 189.816 240.725 187.808 240.409 185.604L236.49 187.857C237.105 188.151 237.632 188.599 238.021 189.158C238.41 189.717 238.648 190.367 238.71 191.045L242.629 188.81C242.169 188.6 241.761 188.293 241.433 187.909L241.138 187.423C240.947 186.592 240.704 186.834 240.409 188.203L238.415 188.463C238.727 188.463 239.681 190.508 239.802 190.733C240.325 191.662 240.799 192.616 241.224 193.593L244.693 190.023C244.322 189.859 243.989 189.621 243.714 189.323C243.44 189.024 243.23 188.673 243.097 188.29L239.889 191.496C240.357 191.583 240.392 191.496 240.392 191.964L244.832 190.127C244.584 189.92 244.4 189.648 244.299 189.342C244.198 189.036 244.184 188.707 244.259 188.394L239.82 190.231C241.027 191.203 241.836 192.584 242.092 194.113L245.3 190.907L245.664 191.704L242.196 192.622C242.471 192.871 242.675 193.188 242.788 193.541C242.901 193.894 242.918 194.271 242.837 194.633L245.439 192.033L246.6 192.657L243.392 195.846V195.69L247.832 193.853C245.166 191.848 243.377 188.893 242.837 185.604C242.265 182.328 237.236 183.715 237.825 186.99C238.566 191.161 240.819 194.913 244.155 197.527C245.751 198.774 248.768 198.185 248.595 195.69C248.593 194.564 248.209 193.471 247.507 192.59C246.805 191.709 245.825 191.092 244.728 190.837C244.285 190.729 243.821 190.737 243.382 190.859C242.943 190.982 242.543 191.216 242.22 191.538C241.898 191.86 241.664 192.26 241.541 192.699C241.418 193.138 241.411 193.601 241.519 194.043C241.702 194.937 242.185 195.741 242.889 196.321C243.593 196.901 244.474 197.223 245.386 197.232C246.843 197.405 247.901 195.88 247.988 194.633C248.066 193.362 247.809 192.093 247.243 190.953C246.677 189.813 245.822 188.841 244.762 188.134C244.165 187.792 243.458 187.698 242.793 187.874C242.127 188.049 241.558 188.478 241.207 189.07C240.85 189.691 240.638 190.384 240.586 191.098C240.533 191.812 240.643 192.529 240.906 193.195C241.17 193.861 241.58 194.459 242.106 194.945C242.633 195.431 243.262 195.792 243.947 196.002C245.959 196.764 247.502 194.546 247.155 192.796C246.722 190.351 245.461 188.13 243.583 186.505C243.213 186.158 242.751 185.925 242.252 185.834C241.753 185.742 241.238 185.797 240.77 185.991C240.301 186.185 239.898 186.51 239.61 186.927C239.321 187.344 239.159 187.835 239.143 188.342C239.057 189.343 239.201 190.351 239.565 191.289C239.929 192.226 240.502 193.067 241.242 193.749C241.611 194.096 242.074 194.329 242.573 194.42C243.072 194.511 243.586 194.457 244.055 194.263C244.524 194.069 244.927 193.744 245.215 193.327C245.503 192.91 245.665 192.419 245.681 191.912C245.72 190.637 245.309 189.39 244.519 188.389C243.73 187.387 242.612 186.696 241.363 186.436C240.921 186.318 240.455 186.318 240.013 186.436C239.571 186.554 239.167 186.786 238.842 187.109C238.518 187.431 238.283 187.833 238.163 188.275C238.042 188.716 238.039 189.182 238.155 189.624C238.798 191.706 240.238 193.45 242.161 194.477C242.658 194.749 243.229 194.853 243.79 194.773C244.351 194.693 244.871 194.433 245.271 194.032C245.672 193.632 245.932 193.113 246.012 192.552C246.092 191.992 245.988 191.42 245.716 190.924C244.502 188.186 241.242 180.838 237.184 183.992C233.715 186.696 237.184 191.704 240.011 193.212C240.407 193.434 240.855 193.55 241.309 193.547C241.764 193.545 242.21 193.424 242.604 193.196C242.998 192.969 243.325 192.643 243.555 192.251C243.784 191.858 243.908 191.413 243.912 190.959C243.834 189.378 243.353 187.843 242.515 186.5C241.678 185.157 240.511 184.049 239.126 183.282C237.565 182.415 234.964 183.472 235.207 185.517C235.532 189.096 237.198 192.42 239.872 194.823C240.326 195.247 240.915 195.496 241.536 195.525C242.156 195.554 242.767 195.362 243.259 194.983C243.751 194.604 244.092 194.063 244.221 193.456C244.35 192.849 244.259 192.216 243.964 191.669C242.078 187.577 239.529 183.824 236.421 180.561C236.097 180.247 235.697 180.022 235.261 179.908C234.825 179.794 234.366 179.795 233.93 179.91C233.494 180.025 233.095 180.251 232.772 180.565C232.449 180.879 232.212 181.272 232.085 181.705C231.498 184.012 231.633 186.445 232.474 188.673C233.314 190.902 234.819 192.819 236.785 194.165C237.232 194.414 237.742 194.527 238.253 194.49C238.763 194.453 239.251 194.267 239.657 193.955C240.063 193.644 240.369 193.22 240.536 192.737C240.704 192.254 240.726 191.732 240.6 191.236C239.435 187.979 237.563 185.02 235.12 182.571C234.753 182.216 234.291 181.976 233.789 181.881C233.287 181.785 232.769 181.838 232.297 182.034C231.825 182.229 231.421 182.557 231.134 182.979C230.847 183.401 230.689 183.898 230.681 184.408C230.749 186.578 231.266 188.71 232.2 190.669C233.135 192.629 234.465 194.374 236.109 195.794C236.478 196.141 236.94 196.374 237.439 196.465C237.938 196.556 238.453 196.502 238.922 196.308C239.391 196.114 239.793 195.789 240.082 195.372C240.37 194.955 240.532 194.463 240.548 193.957C240.316 188.648 238.194 183.596 234.565 179.712C232.831 177.875 229.276 179.712 230.212 182.242C231.988 187.044 234.453 191.562 237.531 195.655C239.49 198.237 243.826 195.967 242.022 193.021C240.225 190.087 238.152 187.33 235.831 184.789C235.423 184.367 234.884 184.094 234.301 184.015C233.718 183.936 233.126 184.055 232.62 184.353C232.113 184.651 231.721 185.111 231.508 185.659C231.295 186.206 231.272 186.809 231.444 187.371C232.76 191.012 234.33 194.556 236.143 197.977C237.496 200.525 241.988 198.757 240.895 195.967C240.288 194.422 239.439 192.983 238.38 191.704C236.646 189.676 233.178 191.86 234.028 194.234C234.655 196.158 235.378 198.049 236.195 199.901C236.958 201.634 237.773 203.367 239.82 203.679C243.063 204.268 246.756 201.946 248.785 199.641C249.139 199.279 249.381 198.824 249.483 198.328C249.584 197.833 249.541 197.319 249.358 196.848C249.175 196.376 248.861 195.967 248.452 195.67C248.043 195.372 247.556 195.199 247.051 195.17C246.403 195.108 245.75 195.18 245.131 195.381C244.512 195.581 243.941 195.907 243.453 196.338C242.965 196.768 242.571 197.295 242.295 197.884C242.019 198.473 241.867 199.112 241.849 199.762C241.852 200.219 241.975 200.667 242.205 201.062C242.435 201.457 242.765 201.784 243.162 202.012C243.558 202.24 244.007 202.36 244.464 202.361C244.922 202.361 245.371 202.242 245.768 202.015C246.814 201.38 247.576 200.368 247.899 199.189C248.221 198.009 248.079 196.751 247.502 195.672C247.277 195.278 246.951 194.951 246.558 194.723C246.165 194.494 245.719 194.374 245.265 194.373C244.671 194.354 244.079 194.456 243.525 194.672C242.971 194.888 242.466 195.214 242.041 195.63C241.617 196.046 241.281 196.544 241.054 197.093C240.827 197.643 240.714 198.232 240.722 198.826C240.728 199.282 240.853 199.728 241.084 200.12C241.316 200.513 241.646 200.838 242.042 201.064C242.438 201.289 242.886 201.408 243.341 201.408C243.797 201.408 244.245 201.288 244.641 201.062C245.528 200.477 246.262 199.689 246.784 198.764C247.306 197.839 247.599 196.803 247.641 195.742C247.628 195.056 247.349 194.403 246.864 193.918C246.379 193.434 245.725 193.156 245.04 193.142C244.346 193.112 243.655 193.245 243.022 193.53C242.389 193.815 241.832 194.244 241.395 194.783C240.958 195.323 240.654 195.957 240.507 196.635C240.36 197.313 240.374 198.016 240.548 198.688C240.702 199.233 241.028 199.713 241.479 200.057C241.929 200.401 242.479 200.589 243.045 200.594C244.261 200.654 245.46 200.299 246.447 199.587C247.433 198.875 248.148 197.849 248.473 196.678C248.654 196.013 248.564 195.305 248.222 194.707C247.881 194.109 247.317 193.671 246.652 193.489C245.756 193.242 244.801 193.31 243.949 193.682C243.096 194.055 242.398 194.708 241.97 195.534C241.724 195.981 241.613 196.491 241.651 197.001C241.689 197.51 241.875 197.998 242.186 198.404C242.496 198.81 242.918 199.117 243.401 199.287C243.883 199.458 244.404 199.484 244.901 199.364C246.128 199.162 247.284 198.656 248.265 197.893C249.247 197.131 250.022 196.135 250.52 194.997C251.647 192.414 248.785 189.659 246.444 191.842C245.791 192.43 245.332 193.202 245.127 194.056C244.923 194.91 244.983 195.806 245.3 196.626C245.504 197.271 245.951 197.812 246.546 198.135C247.141 198.458 247.838 198.538 248.491 198.359C250.078 197.844 251.449 196.818 252.391 195.441C253.332 194.065 253.79 192.415 253.693 190.751C253.606 189.243 252.098 187.579 250.416 188.238C249.509 188.491 248.722 189.055 248.192 189.832C247.662 190.609 247.424 191.548 247.52 192.484C247.624 192.988 247.835 193.464 248.139 193.88C248.442 194.296 248.831 194.643 249.279 194.897C249.727 195.151 250.224 195.307 250.737 195.354C251.25 195.401 251.767 195.338 252.254 195.17C252.801 195.019 253.283 194.693 253.627 194.242C253.972 193.792 254.159 193.241 254.161 192.674C254.225 191.578 253.885 190.496 253.204 189.634C252.523 188.771 251.55 188.188 250.468 187.995C250.081 187.895 249.677 187.885 249.286 187.964C248.895 188.043 248.526 188.21 248.209 188.452C247.892 188.694 247.634 189.005 247.454 189.361C247.275 189.717 247.178 190.109 247.173 190.508C247.154 191.063 247.248 191.617 247.451 192.134C247.654 192.651 247.961 193.121 248.352 193.516C248.744 193.91 249.212 194.221 249.728 194.428C250.243 194.635 250.796 194.734 251.352 194.719C252.038 194.706 252.692 194.428 253.177 193.943C253.662 193.459 253.94 192.805 253.953 192.12C253.998 191.181 253.853 190.243 253.527 189.361C253.202 188.479 252.702 187.671 252.059 186.986C251.415 186.301 250.64 185.752 249.78 185.371C248.92 184.991 247.992 184.787 247.051 184.772C246.653 184.777 246.26 184.873 245.904 185.052C245.548 185.232 245.238 185.49 244.997 185.808C244.756 186.126 244.591 186.494 244.514 186.885C244.437 187.276 244.451 187.68 244.554 188.065C244.965 189.943 245.89 191.671 247.225 193.056C247.635 193.45 248.163 193.699 248.727 193.767C249.292 193.835 249.864 193.717 250.356 193.431C250.848 193.145 251.233 192.707 251.453 192.183C251.674 191.658 251.717 191.077 251.577 190.525C251.254 189.258 250.659 188.076 249.832 187.061C249.006 186.046 247.968 185.224 246.791 184.651C244.554 183.576 241.797 185.829 243.219 188.117L244.294 189.85C244.614 190.389 245.119 190.795 245.715 190.992C246.312 191.189 246.959 191.164 247.538 190.921C248.117 190.678 248.589 190.234 248.866 189.671C249.143 189.107 249.207 188.463 249.046 187.857C247.978 184.327 245.652 181.312 242.508 179.382C240.774 178.273 237.791 180.162 238.693 182.311C239.587 184.548 240.847 186.621 242.421 188.446C244.467 190.803 247.728 187.805 246.514 185.309C244.852 181.954 242.393 179.056 239.352 176.869C237.184 175.258 234.531 178.325 235.796 180.422C237.139 182.641 238.907 184.573 240.999 186.106C243.479 187.943 246.011 184.096 244.155 182.016L233.49 170.076C231.548 167.91 227.715 170.787 229.397 173.23L234.929 181.306L239.005 178.152C235.305 173.561 231.927 168.72 228.894 163.664L224.507 166.385L227.732 171.012C228.093 171.581 228.66 171.988 229.314 172.148C229.968 172.307 230.659 172.207 231.241 171.868C231.823 171.529 232.251 170.978 232.434 170.33C232.617 169.682 232.542 168.989 232.224 168.395C230.803 165.835 228.845 163.612 226.484 161.879C226.139 161.683 225.754 161.567 225.357 161.542C224.961 161.516 224.564 161.581 224.196 161.731C223.829 161.881 223.5 162.113 223.236 162.409C222.971 162.705 222.777 163.057 222.669 163.439C222.368 164.67 222.464 165.965 222.944 167.138C223.424 168.311 224.262 169.303 225.339 169.972L227.351 165.224C226.056 164.779 224.638 164.863 223.404 165.457C222.171 166.051 221.221 167.106 220.761 168.395C220.382 169.705 220.534 171.111 221.183 172.31C221.831 173.51 222.925 174.406 224.229 174.807C224.782 174.955 225.367 174.918 225.896 174.702C226.425 174.486 226.869 174.103 227.16 173.611C227.578 172.938 227.81 172.166 227.831 171.375C227.852 170.583 227.663 169.799 227.282 169.105C226.901 168.41 226.342 167.829 225.662 167.421C224.983 167.014 224.207 166.793 223.414 166.783C222.619 166.779 221.838 166.995 221.159 167.409C220.479 167.823 219.929 168.418 219.569 169.126C219.209 169.835 219.053 170.63 219.12 171.422C219.186 172.215 219.473 172.973 219.946 173.611C220.378 174.201 220.939 174.685 221.586 175.025C222.233 175.365 222.949 175.554 223.68 175.575C224.411 175.597 225.137 175.452 225.803 175.15C226.47 174.849 227.058 174.4 227.524 173.837C227.953 173.189 228.245 172.461 228.382 171.696C228.52 170.932 228.499 170.148 228.322 169.392C228.145 168.635 227.815 167.923 227.353 167.299C226.891 166.675 226.306 166.151 225.634 165.761C225.238 165.538 224.79 165.423 224.335 165.425C223.881 165.428 223.434 165.549 223.041 165.776C222.647 166.004 222.319 166.329 222.09 166.722C221.86 167.114 221.737 167.559 221.732 168.014C221.749 169.605 222.192 171.163 223.016 172.526C223.839 173.888 225.013 175.005 226.415 175.76C226.761 175.957 227.147 176.072 227.545 176.098C227.942 176.123 228.34 176.059 228.709 175.909C229.078 175.759 229.408 175.527 229.674 175.231C229.941 174.935 230.136 174.583 230.247 174.201C230.515 172.822 230.368 171.395 229.825 170.099C229.282 168.804 228.367 167.698 227.195 166.922C226.801 166.695 226.353 166.575 225.898 166.574C225.443 166.573 224.995 166.692 224.6 166.918C224.205 167.144 223.877 167.47 223.647 167.863C223.418 168.256 223.296 168.703 223.293 169.158C223.538 172.195 224.868 175.042 227.039 177.181C227.359 177.508 227.758 177.746 228.198 177.871C228.638 177.997 229.103 178.006 229.547 177.898C229.992 177.789 230.4 177.567 230.733 177.253C231.065 176.939 231.31 176.544 231.444 176.107C231.92 174.322 231.686 172.422 230.79 170.807C229.894 169.191 228.407 167.985 226.64 167.442C226.255 167.339 225.851 167.325 225.46 167.402C225.068 167.479 224.7 167.644 224.382 167.884C224.064 168.125 223.805 168.435 223.626 168.791C223.446 169.147 223.35 169.539 223.345 169.938C223.504 174.242 225.274 178.33 228.305 181.393C228.715 181.787 229.243 182.036 229.808 182.104C230.373 182.172 230.944 182.054 231.436 181.768C231.928 181.482 232.313 181.044 232.534 180.52C232.754 179.995 232.798 179.414 232.658 178.862C232.274 177.201 231.511 175.652 230.428 174.335C229.345 173.018 227.971 171.97 226.415 171.272C224.507 170.44 221.854 171.844 222.599 174.201C224.178 179.265 226.448 184.088 229.345 188.533C229.679 189.051 230.186 189.434 230.775 189.616C231.365 189.797 231.999 189.765 232.567 189.525C233.135 189.284 233.6 188.851 233.88 188.302C234.16 187.753 234.237 187.123 234.097 186.522C233.048 182.233 230.916 178.283 227.906 175.05C226.172 173.317 222.547 175.137 223.553 177.58L229.033 190.768C229.238 191.417 229.681 191.965 230.272 192.302C230.864 192.639 231.561 192.741 232.224 192.588C232.889 192.402 233.454 191.96 233.795 191.359C234.136 190.759 234.226 190.048 234.045 189.382C232.124 184.528 229.712 179.883 226.848 175.518C225.322 173.196 221.039 174.617 222.096 177.528L226.675 190.161L231.444 188.238L222.981 173.438C221.247 170.44 217.223 173.074 218.489 176.055L220.917 181.808L225.409 179.192C223.569 176.176 222.151 172.922 221.195 169.522C220.986 168.889 220.542 168.36 219.955 168.045C219.367 167.73 218.681 167.652 218.038 167.828C217.395 168.003 216.844 168.419 216.499 168.989C216.153 169.559 216.04 170.24 216.183 170.891C216.47 172.268 216.936 173.603 217.57 174.859C217.799 175.251 218.127 175.576 218.521 175.802C218.915 176.028 219.362 176.147 219.816 176.147C220.27 176.147 220.717 176.028 221.111 175.802C221.505 175.576 221.833 175.251 222.062 174.859C223.189 172.568 224.151 170.199 224.94 167.771C225.825 165.033 221.351 163.04 220.171 165.778L217.796 171.324L222.547 173.317L224.802 166.385C224.941 165.785 224.865 165.154 224.585 164.605C224.305 164.056 223.84 163.623 223.272 163.382C222.704 163.142 222.069 163.11 221.48 163.291C220.891 163.473 220.384 163.857 220.05 164.375L217.206 169.175L221.958 171.185L223.57 164.115C224.108 161.81 220.987 159.436 219.235 161.584L214.206 167.737L218.299 170.891L221.264 165.258C222.807 162.295 218.351 159.678 216.773 162.624L213.564 168.62L218.056 171.237L221.004 164.461L216.252 162.451C215.824 164.108 215.706 165.829 215.905 167.529C216.183 169.712 219.582 171.515 220.761 168.846L224.507 160.51C225.27 158.777 223.917 155.71 221.559 156.697C216.821 158.58 212.643 161.64 209.42 165.588C207.339 168.17 210.998 171.878 213.096 169.262L213.079 169.175Z" fill="#2D2FEE"/>
<path d="M77.3619 115.695C76.2977 114.61 75.5497 113.256 75.1983 111.778C74.8469 110.3 74.9054 108.754 75.3676 107.307C76.196 104.155 78.0584 101.373 80.6569 99.4045C86.4144 94.8121 94.2008 93.9283 101.259 93.0964C101.943 93.0789 102.595 92.7994 103.079 92.3156C103.563 91.8319 103.843 91.1808 103.86 90.4969C103.856 89.8089 103.58 89.1504 103.093 88.6638C102.606 88.1773 101.947 87.902 101.259 87.8975C92.3279 88.9373 82.842 90.2197 75.9573 96.5624C72.8237 99.4177 70.7462 103.246 70.061 107.428C69.4367 111.622 70.3038 116.474 73.6855 119.351C74.1837 119.818 74.8409 120.078 75.5237 120.078C76.2065 120.078 76.8637 119.818 77.3619 119.351C77.846 118.859 78.1171 118.196 78.1171 117.506C78.1171 116.815 77.846 116.153 77.3619 115.66V115.695Z" fill="#2D2FEE"/>
<path d="M82.6684 124.845C84.9922 125.088 87.1599 126.041 89.449 126.457C91.6295 126.88 93.8807 126.761 96.0042 126.11C99.9437 124.719 103.205 121.881 105.126 118.173C109.67 109.508 108.109 98.0529 105.577 89.0067C105.348 88.3938 104.898 87.8887 104.315 87.5911C103.732 87.2935 103.058 87.2249 102.427 87.3989C101.796 87.5729 101.253 87.9768 100.905 88.531C100.557 89.0852 100.43 89.7496 100.548 90.3931C101.758 94.5856 102.457 98.909 102.629 103.269C102.999 107.268 102.405 111.297 100.895 115.019C100.264 116.506 99.3169 117.837 98.1189 118.92C96.9209 120.004 95.5009 120.813 93.9579 121.292C90.2988 122.245 86.3795 120.01 82.7204 119.559C82.0305 119.559 81.3689 119.833 80.8811 120.321C80.3932 120.808 80.1191 121.469 80.1191 122.159C80.1191 122.848 80.3932 123.509 80.8811 123.997C81.3689 124.484 82.0305 124.758 82.7204 124.758L82.6684 124.845Z" fill="#2D2FEE"/>
<path d="M91.7383 90.7051C90.2366 92.0538 89.2754 93.901 89.0329 95.9041C88.9773 96.8221 89.1801 97.7372 89.6184 98.5459C90.0567 99.3545 90.713 100.024 91.5128 100.479C91.9982 100.731 92.5287 100.884 93.0736 100.93H93.7846C93.7846 100.756 94.0794 101.779 93.6459 100.93C93.6459 100.93 93.2123 100.549 93.3337 100.514C93.4551 100.479 93.4377 101.19 93.4551 101.12C93.3684 101.519 93.1256 102.333 92.9175 102.975C92.5968 103.865 92.4268 104.802 92.4146 105.747C92.4104 106.652 92.6377 107.542 93.0748 108.333C93.5119 109.125 94.1442 109.792 94.9118 110.271C95.3442 110.518 95.8218 110.677 96.3165 110.738C96.5419 110.738 97.9639 110.894 98.0507 110.738C97.785 110.608 97.5299 110.458 97.2877 110.288C97.2125 110.214 97.1535 110.126 97.1142 110.028C97.1543 110.164 97.1833 110.303 97.2009 110.444C97.2009 110.704 97.2009 111.796 97.2009 112.333C97.2662 112.977 97.5172 113.589 97.9236 114.093C98.3299 114.598 98.8741 114.974 99.4901 115.175C100.462 115.353 101.466 115.176 102.319 114.677C103.172 114.177 103.817 113.389 104.138 112.454C105.041 110.529 105.51 108.429 105.51 106.302C105.51 104.176 105.041 102.075 104.138 100.15C103.88 99.7084 103.497 99.3537 103.037 99.1314C102.576 98.9091 102.06 98.8293 101.554 98.9022C101.051 98.9741 100.58 99.1888 100.195 99.5205C99.8111 99.8523 99.5302 100.287 99.386 100.774C99.1 101.504 98.7457 102.206 98.3281 102.871C98.3281 103.009 97.5998 103.807 97.6518 103.911C97.6518 103.737 99.2819 104.118 98.5016 103.824L99.6461 104.482L99.9583 104.985V106.371C99.9583 106.077 99.9583 106.042 99.9583 106.233C99.9583 106.423 99.9583 106.337 100.149 106.111C100.518 105.85 100.845 105.534 101.12 105.176C101.812 104.451 102.334 103.58 102.646 102.628C102.979 101.592 102.947 100.474 102.556 99.459C102.165 98.4439 101.438 97.5931 100.496 97.0479C100.091 96.8223 99.6671 96.631 99.2299 96.476L99.0565 96.3893L99.2299 96.5973C99.334 96.8572 99.3513 96.8399 99.2299 96.5973C99.2299 96.8919 99.2299 96.8746 99.2299 96.5973C99.2299 96.32 99.2299 95.9907 99.2299 95.6788C99.363 94.8016 99.2446 93.9047 98.8886 93.0919C98.5326 92.2792 97.9534 91.5838 97.2183 91.0864L97.7385 95.1762C98.2935 94.5697 97.6518 95.3322 97.5998 95.1762H97.4437C97.8773 95.3149 97.8079 95.2629 97.2703 95.0029C97.0622 94.899 97.2703 94.4657 97.2703 95.0029C97.2703 94.7776 97.2703 94.7083 97.3744 94.5004L101.814 96.3547C101.738 95.3876 101.38 94.4639 100.786 93.6972C100.191 92.9305 99.3851 92.3543 98.4669 92.0395C97.6162 91.7412 96.6995 91.6836 95.8181 91.8732C94.9367 92.0628 94.1249 92.4922 93.4724 93.114C93.199 93.3977 92.9927 93.7391 92.8688 94.1131C92.7449 94.487 92.7064 94.884 92.7563 95.2748C92.8063 95.6655 92.9433 96.0401 93.1572 96.371C93.3712 96.7018 93.6567 96.9805 93.9927 97.1865C94.6357 97.7624 95.387 98.2046 96.2028 98.4873C97.0187 98.7699 97.8826 98.8874 98.7444 98.8329C99.6404 98.7443 100.489 98.3876 101.179 97.8094C101.869 97.2312 102.368 96.4585 102.612 95.5921L97.409 94.899L97.5651 97.7237C97.5783 98.2878 97.77 98.8332 98.1127 99.2815C98.4555 99.7299 98.9316 100.058 99.4727 100.219C100.027 100.371 100.617 100.336 101.149 100.12C101.682 99.904 102.129 99.5186 102.421 99.0235L103.479 96.7879L98.727 96.1814L99.3686 99.8033C99.5233 100.351 99.8525 100.834 100.306 101.178C100.76 101.522 101.314 101.708 101.883 101.71C102.45 101.697 102.998 101.507 103.45 101.164C103.902 100.822 104.233 100.345 104.398 99.8033C104.77 98.6102 104.997 97.3767 105.074 96.1294L99.9756 96.8226L100.635 98.7809C100.811 99.3805 101.197 99.8972 101.722 100.237C102.247 100.577 102.876 100.719 103.496 100.635C104.117 100.555 104.688 100.253 105.102 99.7847C105.517 99.3161 105.747 98.7131 105.75 98.0877C105.75 96.7013 105.75 95.3149 105.75 93.9285C105.843 92.6209 105.522 91.3172 104.831 90.2025C104.445 89.6544 103.913 89.2254 103.295 88.9642C102.677 88.703 101.999 88.62 101.336 88.7246C100.673 88.8293 100.053 89.1174 99.5462 89.5563C99.039 89.9951 98.6652 90.5672 98.4669 91.2077C98.3758 91.5377 98.3506 91.8824 98.3929 92.2221C98.4351 92.5618 98.5438 92.8899 98.7129 93.1876C98.882 93.4853 99.1081 93.7468 99.3783 93.9572C99.6485 94.1676 99.9575 94.3227 100.288 94.4137C100.618 94.5048 100.963 94.5299 101.303 94.4877C101.643 94.4455 101.971 94.3369 102.269 94.1679C102.567 93.9989 102.829 93.773 103.039 93.5029C103.25 93.2329 103.405 92.9241 103.496 92.5941L101.762 93.8592L100.704 93.3913C100.704 93.3913 100.357 92.9753 100.444 92.906C100.392 93.4536 100.392 94.0048 100.444 94.5524V98.0183L105.56 97.3251L104.883 95.3669C104.698 94.7774 104.311 94.2723 103.789 93.941C103.267 93.6097 102.645 93.4734 102.033 93.5564C101.42 93.6394 100.857 93.9363 100.442 94.3945C100.028 94.8527 99.7887 95.4427 99.7675 96.0601C99.7043 96.8418 99.5351 97.6114 99.2646 98.3476H104.294L103.635 94.7256C103.492 94.2385 103.211 93.8032 102.825 93.4729C102.44 93.1427 101.966 92.9316 101.462 92.8655C100.959 92.7994 100.447 92.881 99.9889 93.1005C99.5309 93.3201 99.1467 93.6679 98.8831 94.1018L97.8079 96.3373L102.664 97.6544L102.508 94.8296C102.483 94.2136 102.241 93.626 101.825 93.1706C101.409 92.7152 100.846 92.4211 100.234 92.3403C99.6225 92.2595 99.002 92.3971 98.4819 92.7289C97.9619 93.0607 97.5758 93.5653 97.3917 94.1538C97.4784 93.8418 97.8426 93.7379 98.0333 93.5819H97.9293C98.1027 93.5819 98.0854 93.5819 97.9293 93.5819C97.7732 93.5819 96.8194 92.906 96.4726 92.6287L96.9928 96.7186C96.8769 96.8232 96.7316 96.8898 96.5766 96.9092C96.8715 96.9092 96.8541 96.8226 96.5766 96.9092H96.802C96.4725 96.9092 96.4725 96.9092 96.802 96.9092C96.5593 96.8053 96.5246 96.7879 96.698 96.9092C96.8714 97.0305 96.8194 96.9092 96.698 96.9092C96.8888 97.1172 96.9061 97.1172 96.698 96.9092C96.626 96.7644 96.5959 96.6023 96.6113 96.4413C96.6265 96.947 96.7843 97.4382 97.0666 97.8582C97.3488 98.2783 97.7441 98.6101 98.2068 98.8155C98.6812 99.0152 99.2039 99.0708 99.7098 98.9753C100.216 98.8797 100.682 98.6373 101.051 98.2783C101.945 97.3458 102.445 96.104 102.445 94.8123C102.445 93.5206 101.945 92.2788 101.051 91.3463C100.09 90.4721 98.8238 90.0111 97.5256 90.063C96.2273 90.1149 95.0018 90.6755 94.1141 91.6236C93.8406 91.9073 93.6344 92.2488 93.5104 92.6227C93.3865 92.9967 93.3481 93.3936 93.398 93.7844C93.4479 94.1752 93.5849 94.5498 93.7989 94.8806C94.0128 95.2115 94.2983 95.4901 94.6343 95.6961C94.4743 95.5936 94.3525 95.4414 94.2875 95.2629C94.0968 94.8816 94.0447 94.847 94.1487 95.1589C94.0447 95.1589 94.1487 94.743 94.1487 95.2975C94.1487 95.8521 94.1487 96.2507 94.1487 96.7186C94.1243 97.3883 94.2328 98.0562 94.468 98.6838C94.7031 99.3114 95.0602 99.8862 95.5188 100.375C95.9467 100.794 96.4537 101.124 97.0102 101.346L97.7559 101.675C98.0854 101.675 97.9293 102.039 97.7559 101.554C97.5825 101.068 97.6518 101.38 97.409 101.692C97.0856 102.073 96.7255 102.422 96.3338 102.732C95.7501 103.222 95.3108 103.862 95.0634 104.582C94.8159 105.303 94.7695 106.077 94.9291 106.822C95.205 107.673 95.7994 108.384 96.588 108.807C97.3766 109.23 98.2984 109.332 99.1606 109.092C101.935 108.347 103.444 104.777 104.363 102.351L99.6115 102.975C100.507 104.994 100.618 107.273 99.9236 109.369C99.8195 109.716 99.6635 110.028 99.5421 110.357C99.2993 110.981 99.4554 110.461 99.7675 110.357H101.137L101.346 110.444L102.282 111.38C102.369 111.865 102.403 111.986 102.403 111.709V111.31C102.403 111.102 102.403 110.877 102.403 110.652C102.378 110.026 102.285 109.404 102.126 108.798C101.946 108.112 101.599 107.482 101.114 106.965C100.63 106.447 100.024 106.059 99.3513 105.834C99.1952 105.834 97.1142 105.488 97.0275 105.834C97.0275 105.73 97.6171 106.094 97.7385 106.111L97.8253 106.267C97.6865 106.013 97.6518 105.961 97.7212 106.111C97.8426 106.337 97.6345 105.678 97.7212 106.111C97.703 105.939 97.703 105.764 97.7212 105.592C97.8593 104.964 98.0507 104.349 98.2935 103.755C98.818 102.527 98.9116 101.159 98.5589 99.8722C98.2063 98.5852 97.4282 97.4554 96.3512 96.6666C95.7099 96.2859 94.9812 96.077 94.2355 96.0601C93.3511 96.0601 93.958 96.0601 93.9927 96.0601C94.3742 96.5106 94.4783 96.5973 94.3222 96.3373C94.1661 96.0774 94.2181 96.1814 94.3222 96.3373C94.4262 96.4933 94.3222 96.0427 94.3222 96.3373C94.3222 96.632 94.3222 96.164 94.4262 96.0601C94.7307 95.544 95.1041 95.0718 95.5361 94.6563C97.8079 92.2128 94.1314 88.5216 91.8597 90.9824L91.7383 90.7051Z" fill="#2D2FEE"/>
<path d="M112.86 126.352C111.855 129.593 111.022 132.885 110.363 136.213C110.034 137.946 109.739 139.541 109.513 141.222C109.201 142.614 109.201 144.058 109.513 145.45C109.737 146.276 110.195 147.02 110.832 147.592C111.469 148.164 112.257 148.539 113.103 148.673C113.994 148.758 114.891 148.603 115.702 148.225C116.513 147.847 117.208 147.26 117.716 146.525C119.541 143.793 120.447 140.551 120.3 137.27C120.183 133.664 119.6 130.087 118.566 126.63C118.398 126.095 118.063 125.628 117.611 125.296C117.159 124.965 116.612 124.786 116.051 124.786C115.49 124.786 114.944 124.965 114.492 125.296C114.04 125.628 113.705 126.095 113.537 126.63C112.341 131.752 111.621 136.973 111.386 142.227C111.386 142.916 111.66 143.577 112.148 144.065C112.636 144.552 113.298 144.826 113.988 144.826C114.677 144.826 115.339 144.552 115.827 144.065C116.315 143.577 116.589 142.916 116.589 142.227C116.813 137.462 117.475 132.729 118.566 128.085H113.519C114.431 131.038 114.955 134.096 115.08 137.184C115.117 138.56 114.941 139.933 114.56 141.256C114.403 141.858 114.176 142.44 113.884 142.989C113.781 143.218 113.633 143.424 113.45 143.596C113.086 143.96 113.346 143.596 113.589 143.596C113.715 143.572 113.846 143.578 113.969 143.614C114.093 143.651 114.206 143.715 114.3 143.804C114.629 144.098 114.577 144.358 114.421 143.804C114.543 144.237 114.421 143.804 114.421 143.544C114.404 143.221 114.404 142.897 114.421 142.573C114.421 142.885 114.508 141.932 114.508 141.967C114.508 141.482 114.647 140.996 114.733 140.528C114.872 139.679 115.028 138.795 115.184 138.016C115.849 134.562 116.706 131.149 117.751 127.791C117.861 127.456 117.902 127.102 117.872 126.751C117.841 126.4 117.739 126.058 117.572 125.748C117.405 125.437 117.176 125.163 116.9 124.944C116.624 124.724 116.306 124.563 115.966 124.47C115.626 124.377 115.27 124.354 114.92 124.403C114.571 124.452 114.235 124.571 113.933 124.754C113.631 124.936 113.37 125.178 113.164 125.465C112.959 125.752 112.814 126.077 112.739 126.422L112.86 126.352Z" fill="#2D2FEE"/>
<path d="M99.4554 141.238C98.1907 143.2 97.1933 145.321 96.49 147.546C96.1722 148.551 95.9231 149.576 95.7443 150.614C95.4121 151.969 95.4121 153.384 95.7443 154.738C95.9601 155.47 96.3531 156.138 96.8885 156.682C97.4238 157.226 98.0851 157.63 98.8138 157.858C99.6017 158.064 100.434 158.025 101.199 157.746C101.964 157.467 102.627 156.962 103.097 156.298C103.829 155.263 104.413 154.132 104.831 152.936C105.203 151.983 105.482 150.997 105.664 149.99C106.173 147.303 106.108 144.539 105.473 141.88C105.287 141.218 104.847 140.657 104.25 140.317C103.654 139.976 102.947 139.884 102.282 140.06C101.64 140.275 101.104 140.726 100.782 141.321C100.46 141.916 100.376 142.611 100.548 143.266C100.548 143.543 100.687 143.82 100.739 144.115C100.791 144.41 100.964 145.155 100.739 144.496C100.825 145.006 100.86 145.522 100.843 146.039C100.869 146.547 100.869 147.056 100.843 147.564C100.843 147.685 100.739 148.621 100.843 147.962C100.806 148.254 100.754 148.543 100.687 148.829C100.443 149.867 100.094 150.877 99.6462 151.844C99.8716 151.255 99.5248 152.122 99.4728 152.225C99.4207 152.329 99.2126 152.745 99.0566 152.988C98.9005 153.231 98.6404 153.56 99.0566 153.109C98.8485 153.317 98.8831 153.3 99.1606 153.109C99.359 153.002 99.5775 152.937 99.8023 152.919C100.039 152.915 100.273 152.975 100.479 153.092C100.236 152.953 100.271 152.988 100.583 153.196L100.461 153.075C100.619 153.199 100.725 153.379 100.756 153.577C100.705 153.443 100.67 153.304 100.652 153.161C100.652 153.491 100.652 153.491 100.652 153.161C100.652 152.832 100.739 152.087 100.652 152.745C100.793 151.702 101.013 150.671 101.311 149.661C101.484 149.095 101.675 148.517 101.883 147.928C101.883 147.72 102.039 147.512 102.126 147.304C101.901 147.858 102.265 146.975 102.317 146.888C102.792 145.864 103.336 144.874 103.947 143.924C104.267 143.337 104.348 142.649 104.174 142.004C103.999 141.359 103.583 140.805 103.01 140.458C102.412 140.125 101.707 140.037 101.045 140.211C100.382 140.386 99.8124 140.81 99.4554 141.394V141.238Z" fill="#2D2FEE"/>
<path d="M71.4313 127.843C72.0903 127.999 72.7492 128.19 73.3908 128.398L74.4141 128.745L74.8649 128.918C75.3158 129.091 74.7609 128.918 75.021 128.918C76.2874 129.493 77.5104 130.159 78.6801 130.911C78.9798 131.089 79.3129 131.205 79.6589 131.249C80.005 131.294 80.3565 131.267 80.6918 131.171C81.3209 130.956 81.8628 130.543 82.2352 129.992L85.7035 125.539L81.212 122.904L77.8997 129.455C77.5699 130.057 77.4832 130.762 77.6573 131.426C77.8315 132.09 78.2533 132.662 78.8362 133.025C79.4264 133.332 80.1106 133.406 80.753 133.233C81.3954 133.06 81.9492 132.651 82.3046 132.089C82.6167 131.483 82.9635 130.911 83.3277 130.356L83.8827 129.576L84.0387 129.368L84.2816 129.057C85.1486 127.999 86.0157 126.994 87.0042 125.989L82.9288 122.835L80.1715 126.44L78.8709 128.173L78.1425 129.126L77.8304 129.542C77.8304 129.628 77.3621 130.044 77.6916 129.68L78.8362 129.022H78.6801L80.6744 129.282C80.0153 128.921 79.3886 128.503 78.8015 128.034L76.8072 126.613L74.9169 125.296L74.0152 124.672L73.4602 124.273L73.2348 124.117C72.9053 123.875 73.0614 124.117 73.7377 124.637L74.1019 125.954C73.8071 126.769 73.7724 126.942 74.1019 126.474L74.3793 126.006L74.9343 125.071L76.0268 123.216L78.2466 119.49L74.7782 120.409C77.4782 122.237 80.3897 123.733 83.4491 124.863L82.3046 120.652L77.813 124.117L82.1659 126.648L82.8248 124.516C82.9427 124.074 82.9426 123.609 82.8244 123.167C82.7062 122.725 82.474 122.321 82.1511 121.997C81.8283 121.672 81.4259 121.438 80.9842 121.318C80.5426 121.197 80.077 121.195 79.6339 121.31C78.452 121.716 77.4471 122.518 76.7899 123.58L81.2814 126.214C81.5779 125.693 81.7634 125.116 81.826 124.519C81.8887 123.923 81.8272 123.32 81.6456 122.748C81.5321 122.368 81.3347 122.018 81.0678 121.724C80.8009 121.43 80.4714 121.2 80.1035 121.05C79.7357 120.901 79.339 120.835 78.9425 120.859C78.5461 120.883 78.1601 120.996 77.813 121.189L76.7725 121.865L80.3449 125.417C80.8777 124.258 81.0412 122.964 80.8132 121.709C80.6229 121.046 80.1804 120.485 79.5807 120.145C78.9809 119.804 78.2716 119.713 77.6049 119.889C77.0319 120.029 76.4947 120.288 76.0286 120.649C75.5624 121.011 75.1777 121.466 74.8996 121.986C74.6264 122.488 74.5195 123.064 74.5943 123.631C74.6691 124.197 74.9217 124.726 75.3158 125.14C75.7246 125.544 76.2542 125.803 76.824 125.878C77.3938 125.953 77.9725 125.84 78.472 125.556C79.3344 124.94 79.9879 124.075 80.3449 123.078C80.4814 122.583 80.465 122.058 80.2979 121.573C80.1308 121.087 79.8207 120.663 79.4085 120.357C79.0008 120.046 78.5114 119.861 78.0001 119.824C77.4888 119.787 76.9779 119.9 76.5298 120.149C75.7303 120.528 75.0073 121.051 74.3967 121.691L78.0732 125.365C78.4776 124.961 78.7966 124.48 79.0111 123.95C79.2256 123.42 79.3312 122.852 79.3218 122.281C79.3058 121.774 79.1439 121.283 78.8554 120.866C78.567 120.449 78.1642 120.124 77.6955 119.93C77.2269 119.736 76.7121 119.681 76.2131 119.772C75.7141 119.863 75.252 120.096 74.8823 120.444C73.7891 121.601 73.1119 123.088 72.9573 124.672C72.9618 125.36 73.2374 126.019 73.7243 126.505C74.2111 126.992 74.8701 127.267 75.5586 127.272C76.2429 127.254 76.8945 126.974 77.3785 126.491C77.8626 126.007 78.1423 125.356 78.1598 124.672C78.1598 125.019 78.1598 124.949 78.1598 124.672C78.1598 124.395 78.4373 124.256 78.1598 124.672L78.368 124.325C78.6975 123.771 78.0385 124.672 78.4893 124.187L74.0498 122.35C74.0498 122.662 74.0498 122.61 74.0498 122.246C74.0839 122.065 74.168 121.897 74.2927 121.761C73.8332 122.253 73.583 122.905 73.5949 123.579C73.6068 124.252 73.8798 124.895 74.3564 125.371C74.833 125.847 75.476 126.12 76.1499 126.132C76.8238 126.144 77.476 125.894 77.9691 125.435C78.0732 125.331 78.7495 124.845 78.2812 125.14C78.5235 124.975 78.7787 124.83 79.0443 124.707L75.2291 121.778C75.3093 121.508 75.489 121.279 75.732 121.137L79.2871 124.603C79.4605 124.239 79.2871 124.603 79.079 124.741C78.8709 124.88 78.4547 124.984 78.8882 124.88L75.6973 123.147V122.904C75.6973 123.164 75.6973 123.182 75.6973 122.991C75.6973 122.8 75.4892 123.459 75.6973 122.87C75.4458 123.364 75.3588 123.925 75.449 124.472C75.5393 125.019 75.8021 125.522 76.1991 125.91C76.5961 126.297 77.1065 126.547 77.6558 126.623C78.205 126.7 78.7645 126.599 79.2524 126.336L80.2929 125.66L76.4604 124.117C76.5471 124.395 76.5644 124.395 76.4604 124.117C76.4635 123.954 76.5051 123.794 76.5818 123.65C76.4087 123.944 76.2954 124.27 76.2484 124.609C76.2013 124.947 76.2214 125.292 76.3076 125.622C76.3937 125.953 76.5442 126.263 76.7505 126.536C76.9567 126.809 77.2146 127.038 77.5095 127.211C77.8044 127.384 78.1306 127.497 78.4693 127.544C78.808 127.591 79.1526 127.571 79.4836 127.485C79.8145 127.399 80.1252 127.248 80.398 127.042C80.6707 126.836 80.9002 126.578 81.0733 126.284C81.3681 125.798 80.7091 126.578 81.0733 126.284L80.8479 126.457C81.0906 126.318 81.056 126.318 80.7438 126.457L77.5356 123.251L76.8766 125.383C76.7276 125.937 76.7639 126.525 76.9799 127.056C77.1959 127.588 77.5798 128.035 78.0732 128.329C78.5738 128.598 79.1464 128.702 79.7099 128.628C80.2733 128.553 80.7989 128.303 81.212 127.913L85.7035 124.447C86.0303 124.123 86.264 123.717 86.3799 123.272C86.4958 122.827 86.4898 122.359 86.3625 121.917C86.2318 121.511 86.0063 121.142 85.7048 120.841C85.4032 120.54 85.0343 120.314 84.6284 120.184L83.5705 119.768L83.3104 119.664L82.9288 119.508C82.2525 119.196 81.5762 118.884 80.9172 118.537C79.6007 117.852 78.3267 117.088 77.102 116.25C76.5042 115.912 75.7982 115.821 75.1343 115.996C74.4704 116.171 73.9009 116.598 73.547 117.186C72.1596 119.525 70.7549 121.83 69.4022 124.117C69.1233 124.52 68.9301 124.975 68.8346 125.455C68.7392 125.935 68.7435 126.429 68.8473 126.908C69.2119 127.859 69.9077 128.646 70.8069 129.126L74.0325 131.396L77.2754 133.649C77.7467 134.058 78.3333 134.311 78.9545 134.373C79.5757 134.435 80.2008 134.303 80.7438 133.996C81.4278 133.458 82.0144 132.808 82.478 132.072L87.3337 125.729C87.663 125.183 87.7799 124.534 87.662 123.908C87.544 123.281 87.1995 122.719 86.694 122.329C86.1885 121.94 85.5574 121.75 84.9207 121.795C84.2839 121.84 83.6862 122.118 83.241 122.575C81.0871 124.7 79.2318 127.108 77.7263 129.732L82.2179 132.367L85.5301 125.816C85.8678 125.218 85.9588 124.513 85.7839 123.849C85.609 123.186 85.182 122.617 84.5937 122.263C84.0039 121.963 83.3237 121.89 82.6837 122.059C82.0437 122.229 81.4887 122.629 81.1253 123.182L77.657 127.635L81.2294 126.7C78.6259 124.995 75.7443 123.757 72.7145 123.043C72.3794 122.933 72.0253 122.892 71.6738 122.922C71.3222 122.953 70.9806 123.055 70.6698 123.222C70.3589 123.389 70.0852 123.617 69.8654 123.893C69.6456 124.169 69.4843 124.486 69.3913 124.827C69.2982 125.167 69.2754 125.522 69.3242 125.871C69.373 126.221 69.4924 126.556 69.6751 126.858C69.8578 127.16 70.1 127.421 70.387 127.626C70.674 127.831 70.9998 127.976 71.3445 128.051L71.4313 127.843Z" fill="#2D2FEE"/>
<path d="M71.6738 123.926L6.85014 238.91L1.89038 258.753C1.02329 262.218 3.95404 265.043 6.15645 262.912L17.1685 252.236L79.9285 132.66L71.6738 123.926Z" stroke="#2D2FEE" stroke-width="2" stroke-miterlimit="10" stroke-linecap="round"/>
<path d="M48.6436 224.925C49.595 234.246 51.3354 243.469 53.8461 252.497C54.0458 253.142 54.4896 253.685 55.0831 254.01C55.6767 254.334 56.3734 254.415 57.0254 254.234C57.6774 254.054 58.2335 253.627 58.5756 253.044C58.9177 252.46 59.019 251.767 58.8579 251.11C56.4681 242.538 54.8146 233.778 53.9155 224.925C53.8979 224.241 53.6182 223.59 53.1341 223.106C52.65 222.622 51.9986 222.343 51.3142 222.325C50.6243 222.325 49.9626 222.599 49.4748 223.087C48.987 223.574 48.7129 224.235 48.7129 224.925H48.6436Z" fill="#2D2FEE"/>
<path d="M54.8175 240.816L64.2341 239.343C64.8853 239.161 65.4394 238.732 65.7775 238.147C65.9525 237.846 66.0656 237.513 66.1103 237.168C66.1549 236.823 66.1302 236.472 66.0376 236.137C65.9494 235.814 65.7984 235.511 65.593 235.247C65.3877 234.982 65.1322 234.76 64.8411 234.595C64.2278 234.276 63.5214 234.183 62.8468 234.335L53.4302 235.808C52.7725 235.985 52.2116 236.415 51.8694 237.003C51.5347 237.611 51.4418 238.323 51.6092 238.996C51.7934 239.65 52.2218 240.209 52.8058 240.556C53.4254 240.875 54.1371 240.967 54.8175 240.816Z" fill="#2D2FEE"/>
<path d="M61.4941 223.556C62.2291 232.592 64.2435 241.478 67.4771 249.949C67.6821 250.598 68.1245 251.146 68.716 251.483C69.3075 251.82 70.0046 251.922 70.668 251.769C71.3334 251.582 71.8981 251.141 72.2392 250.54C72.5803 249.94 72.67 249.229 72.4888 248.563C69.3794 240.544 67.4291 232.124 66.6967 223.556C66.675 222.873 66.3939 222.224 65.9107 221.741C65.4275 221.259 64.7784 220.978 64.0954 220.956C63.4069 220.961 62.7479 221.236 62.261 221.722C61.7742 222.209 61.4987 222.868 61.4941 223.556Z" fill="#2D2FEE"/>
<path d="M78.8359 218.201C79.8071 226.901 80.3851 235.641 80.5701 244.421C80.5701 247.766 85.7727 247.783 85.7727 244.421C85.5761 235.652 84.9981 226.912 84.0385 218.201C84.0209 217.517 83.7412 216.866 83.2571 216.382C82.773 215.899 82.1216 215.619 81.4372 215.602C80.7487 215.606 80.0897 215.881 79.6028 216.368C79.116 216.854 78.8405 217.513 78.8359 218.201Z" fill="#2D2FEE"/>
<path d="M79.2524 219.431C83.6572 227.022 88.6864 234.283 92.2761 242.324C92.4492 242.619 92.6787 242.876 92.9514 243.082C93.2242 243.289 93.5349 243.439 93.8658 243.525C94.1967 243.611 94.5414 243.631 94.8801 243.584C95.2188 243.537 95.5449 243.424 95.8399 243.251C96.1348 243.078 96.3927 242.849 96.599 242.576C96.8052 242.304 96.9557 241.993 97.0418 241.662C97.128 241.332 97.1481 240.987 97.1011 240.649C97.054 240.31 96.9407 239.984 96.7676 239.69C93.1779 231.666 88.0967 224.387 83.7439 216.814C83.3838 216.245 82.817 215.838 82.1626 215.679C81.5082 215.519 80.8174 215.619 80.2354 215.958C79.6535 216.297 79.2259 216.849 79.0426 217.496C78.8592 218.144 78.9344 218.838 79.2524 219.431Z" fill="#2D2FEE"/>
<path d="M85.7727 239.621C86.9936 239.605 88.1994 239.349 89.3211 238.867C90.4429 238.385 91.4587 237.688 92.3105 236.813C92.6739 236.45 92.9213 235.987 93.0215 235.483C93.1216 234.979 93.0701 234.457 92.8734 233.982C92.6767 233.507 92.3437 233.101 91.9163 232.816C91.489 232.53 90.9865 232.377 90.4723 232.377C89.7792 232.386 89.1156 232.659 88.6168 233.139C88.3968 233.377 88.1591 233.597 87.9058 233.798L88.426 233.382C87.9731 233.746 87.471 234.043 86.9346 234.266L87.5589 234.006C86.9999 234.222 86.4181 234.373 85.8247 234.457L86.5184 234.37C86.247 234.388 85.9747 234.388 85.7033 234.37C85.0137 234.37 84.3525 234.645 83.8651 235.132C83.3803 235.622 83.1064 236.281 83.1021 236.969C83.1027 237.659 83.3771 238.319 83.8651 238.806C84.3566 239.288 85.0152 239.561 85.7033 239.569L85.7727 239.621Z" fill="#2D2FEE"/>
<path d="M95.2066 213.522C97.1835 222.776 99.5247 231.979 102.23 241.06C103.184 244.266 108.196 242.896 107.242 239.673C104.548 230.592 102.207 221.413 100.218 212.136C99.5073 208.861 94.4956 210.247 95.2066 213.522Z" fill="#2D2FEE"/>
<path d="M96.1778 214.873C99.9757 223.036 105.941 229.933 111.178 237.177C111.477 237.66 111.922 238.037 112.449 238.252C112.976 238.467 113.557 238.509 114.109 238.373C114.653 238.216 115.132 237.889 115.476 237.44C115.819 236.991 116.009 236.443 116.017 235.877L115.254 212.776C115.15 209.449 109.947 209.432 110.051 212.776L110.762 235.877L115.618 234.56C110.415 227.316 104.415 220.402 100.617 212.239C100.268 211.644 99.6959 211.212 99.0276 211.038C98.3593 210.864 97.6492 210.963 97.0536 211.312C96.458 211.661 96.0256 212.233 95.8516 212.901C95.6776 213.569 95.7762 214.278 96.1258 214.873H96.1778Z" fill="#2D2FEE"/>
<path d="M117.439 204.735C118.775 214.152 121.166 223.389 124.566 232.273C124.782 232.91 125.23 233.443 125.822 233.764C126.413 234.086 127.105 234.172 127.757 234.006C128.419 233.819 128.981 233.38 129.321 232.784C129.662 232.187 129.754 231.481 129.578 230.817C126.185 221.938 123.8 212.707 122.468 203.297C122.282 202.632 121.84 202.068 121.239 201.727C120.638 201.386 119.927 201.296 119.26 201.477C118.608 201.679 118.057 202.12 117.719 202.712C117.381 203.304 117.281 204.003 117.439 204.666V204.735Z" fill="#2D2FEE"/>
<path d="M122.19 205.359C123.595 203.176 128.069 202.43 130.497 203.401C133.705 204.683 135.613 208.184 136.549 211.321C137.607 214.787 138.093 219.847 135.804 222.845C134.069 225.011 130.219 227.368 127.757 226.311C127.104 226.127 126.405 226.205 125.809 226.529C125.213 226.853 124.767 227.396 124.566 228.044C124.39 228.699 124.472 229.396 124.795 229.992C125.117 230.588 125.656 231.038 126.3 231.25C129.873 232.723 134.295 230.626 137.122 228.477C138.89 227.104 140.303 225.326 141.242 223.294C142.18 221.261 142.617 219.033 142.515 216.797C142.515 208.825 138.231 198.774 129.318 197.734C125.225 197.249 119.918 199.051 117.629 202.638C115.895 205.463 120.335 208.08 122.121 205.255L122.19 205.359Z" fill="#2D2FEE"/>
<path d="M129.127 247.801C130.861 254.542 131.937 261.422 133.636 268.163C134.469 271.404 139.48 270.018 138.665 266.777C136.931 260.036 135.856 253.155 134.139 246.431C133.324 243.191 128.295 244.56 129.127 247.801Z" fill="#2D2FEE"/>
<path d="M130.324 249.361L135.96 252.723C137.85 253.832 140.018 255.53 142.324 254.993C144.631 254.456 145.481 252.22 145.897 250.054C146.309 247.792 146.576 245.505 146.695 243.209L141.856 244.526C144.69 251.027 146.964 257.758 148.654 264.646C149.469 267.904 154.481 266.517 153.683 263.259C151.843 255.966 149.389 248.841 146.348 241.961C146.052 241.47 145.604 241.088 145.073 240.872C144.541 240.657 143.954 240.619 143.4 240.765C142.86 240.934 142.386 241.267 142.044 241.717C141.702 242.167 141.509 242.713 141.492 243.278C141.429 244.787 141.278 246.292 141.041 247.784C140.92 248.564 140.625 249.395 140.573 250.175C140.573 250.574 140.452 250.297 140.573 250.331C140.694 250.366 141.371 249.915 141.371 249.95C140.758 249.504 140.101 249.12 139.411 248.806L137.365 247.593L132.908 244.942C132.314 244.624 131.62 244.549 130.972 244.732C130.324 244.915 129.772 245.342 129.433 245.924C129.093 246.505 128.993 247.196 129.153 247.85C129.313 248.504 129.72 249.07 130.289 249.43L130.324 249.361Z" fill="#2D2FEE"/>
<path d="M151.967 237.142L160.031 254.334C160.378 254.929 160.948 255.361 161.614 255.537C162.281 255.712 162.99 255.616 163.586 255.269C164.174 254.916 164.601 254.347 164.776 253.683C164.951 253.02 164.86 252.314 164.522 251.717L156.458 234.508C156.108 233.916 155.537 233.487 154.87 233.315C154.204 233.143 153.497 233.242 152.903 233.59C152.318 233.947 151.894 234.516 151.719 235.178C151.545 235.84 151.633 236.544 151.967 237.142Z" fill="#2D2FEE"/>
<path d="M153.527 237.454C157.022 238.647 160.386 240.191 163.568 242.064C166.612 243.783 169.24 246.149 171.268 248.996C171.628 249.582 172.201 250.006 172.866 250.18C173.532 250.355 174.239 250.266 174.84 249.932C175.429 249.578 175.855 249.008 176.027 248.343C176.199 247.679 176.103 246.973 175.759 246.379C170.99 239.135 162.805 235.271 154.949 232.394C154.285 232.218 153.578 232.31 152.981 232.651C152.384 232.991 151.945 233.552 151.758 234.214C151.591 234.879 151.687 235.584 152.026 236.181C152.365 236.778 152.921 237.222 153.579 237.42L153.527 237.454Z" fill="#2D2FEE"/>
<path d="M161.279 248.13C162.146 247.316 163.013 246.501 163.967 245.773L163.447 246.189C164.51 245.365 165.676 244.684 166.915 244.161L166.291 244.421C166.846 244.196 167.383 244.005 168.025 243.832C168.363 243.749 168.681 243.6 168.96 243.392C169.239 243.184 169.474 242.922 169.65 242.622C169.826 242.322 169.94 241.99 169.985 241.645C170.03 241.3 170.005 240.949 169.912 240.614C169.82 240.279 169.66 239.966 169.444 239.693C169.228 239.42 168.959 239.194 168.654 239.027C168.348 238.86 168.013 238.756 167.666 238.721C167.32 238.686 166.97 238.721 166.638 238.824C164.935 239.32 163.315 240.067 161.834 241.042C160.373 242.086 158.999 243.245 157.724 244.508C157.241 244.998 156.97 245.658 156.97 246.345C156.97 247.033 157.241 247.692 157.724 248.182C158.218 248.656 158.877 248.921 159.562 248.921C160.247 248.921 160.906 248.656 161.4 248.182L161.279 248.13Z" fill="#2D2FEE"/>
<path d="M175.17 230.61L179.782 238.72C181.083 241.008 182.557 244.04 185.661 243.919C187.086 243.721 188.407 243.064 189.425 242.047C190.431 241.266 191.361 240.39 192.199 239.431C194.029 237.429 195.334 235.006 195.997 232.377C196.647 229.807 196.421 227.093 195.357 224.664C194.292 222.236 192.449 220.23 190.118 218.964C187.844 217.812 185.373 217.101 182.835 216.867C180.24 216.384 177.559 216.787 175.222 218.011C172.898 219.501 172.88 222.118 173.262 224.561C173.599 226.66 174.242 228.697 175.17 230.61C175.335 230.918 175.56 231.189 175.832 231.408C176.105 231.627 176.418 231.789 176.755 231.884C177.091 231.979 177.443 232.005 177.79 231.961C178.137 231.917 178.471 231.804 178.773 231.628C179.075 231.452 179.338 231.217 179.547 230.937C179.756 230.658 179.907 230.338 179.99 229.999C180.073 229.66 180.086 229.307 180.03 228.963C179.973 228.618 179.848 228.288 179.661 227.993C179.661 227.82 179.332 227.213 179.54 227.716C179.418 227.421 179.297 227.126 179.193 226.832C178.931 226.07 178.711 225.295 178.534 224.509C178.447 224.163 178.378 223.799 178.326 223.452C178.274 223.106 178.326 222.932 178.326 223.366V222.88C178.326 222.569 178.326 222.274 178.326 221.979C178.326 222.118 178.152 222.447 178.326 222.083C178.499 221.719 178.083 222.395 178.326 222.083C178.569 221.771 178.083 222.291 178.048 222.378C178.014 222.465 178.256 222.257 178.413 222.187C178.717 222.076 179.03 221.989 179.349 221.927C180.185 221.84 181.028 221.84 181.864 221.927C183.563 222.033 185.236 222.401 186.823 223.019C188.092 223.525 189.213 224.341 190.084 225.393C191.029 226.766 191.447 228.434 191.263 230.09C190.972 231.761 190.345 233.356 189.417 234.778C188.49 236.199 187.283 237.416 185.869 238.356L185.349 238.72C185.58 238.705 185.812 238.705 186.043 238.72C186.147 238.72 186.338 239.309 185.922 238.564C186.043 238.772 185.713 238.269 185.696 238.217C185.002 237.143 184.413 235.999 183.788 234.89L179.8 227.958C179.44 227.389 178.873 226.982 178.218 226.823C177.564 226.663 176.873 226.763 176.291 227.102C175.709 227.441 175.282 227.993 175.098 228.64C174.915 229.288 174.99 229.982 175.308 230.575L175.17 230.61Z" fill="#2D2FEE"/>
<path d="M192.893 213.088C195.454 214.94 197.84 217.023 200.021 219.31C202.293 221.684 204.113 224.353 206.194 226.883C206.51 227.297 206.913 227.637 207.375 227.879C207.836 228.121 208.345 228.259 208.865 228.284C209.386 228.309 209.905 228.219 210.388 228.022C210.87 227.825 211.303 227.525 211.657 227.143C212.576 226.38 213.478 225.618 214.414 224.873C216.478 223.243 218.611 221.666 220.588 219.916C221.048 219.423 221.298 218.772 221.286 218.098C221.274 217.425 221.001 216.782 220.524 216.306C220.048 215.83 219.405 215.557 218.731 215.545C218.057 215.533 217.405 215.783 216.912 216.242C213.929 218.876 210.703 221.303 207.582 223.798L208.726 223.122L210.027 223.486C210.322 223.833 210.304 223.798 210.027 223.382L209.645 222.862L208.796 221.701L207.062 219.552C205.969 218.2 204.842 216.883 203.593 215.636C201.087 213.044 198.347 210.689 195.408 208.6C194.819 208.284 194.132 208.206 193.488 208.38C192.843 208.553 192.289 208.967 191.939 209.536C191.632 210.125 191.558 210.809 191.731 211.451C191.905 212.093 192.313 212.646 192.876 213.002L192.893 213.088Z" fill="#2D2FEE"/>
<path d="M206.159 218.582L211.639 211.928C212.108 211.428 212.379 210.775 212.402 210.091C212.399 209.397 212.125 208.732 211.639 208.236C211.148 207.757 210.488 207.489 209.801 207.491C209.46 207.482 209.12 207.544 208.804 207.672C208.488 207.8 208.201 207.992 207.963 208.236L202.483 214.908C202.008 215.404 201.736 216.059 201.72 216.745C201.72 217.259 201.873 217.761 202.159 218.188C202.445 218.615 202.851 218.948 203.326 219.145C203.801 219.341 204.324 219.393 204.828 219.293C205.332 219.193 205.796 218.945 206.159 218.582Z" fill="#2D2FEE"/>
<path d="M196.569 211.685C198.304 209.952 200.038 208.219 201.876 206.677L204.616 204.355L205.986 203.263L206.385 202.951C206.229 203.09 206.125 203.159 206.385 202.951L207.2 202.327C207.777 201.972 208.203 201.417 208.396 200.767C208.488 200.435 208.512 200.087 208.467 199.745C208.422 199.403 208.31 199.073 208.136 198.774C207.782 198.186 207.213 197.76 206.549 197.585C205.885 197.41 205.179 197.501 204.581 197.839C200.452 200.926 196.557 204.315 192.928 207.977C192.672 208.215 192.467 208.502 192.325 208.82C192.183 209.139 192.106 209.484 192.1 209.833C192.094 210.182 192.158 210.528 192.289 210.852C192.42 211.176 192.615 211.47 192.862 211.716C193.109 211.963 193.403 212.158 193.727 212.289C194.051 212.419 194.398 212.484 194.747 212.477C195.096 212.471 195.441 212.395 195.76 212.253C196.079 212.111 196.366 211.906 196.604 211.651L196.569 211.685Z" fill="#2D2FEE"/>
<path d="M151.671 206.486L152.174 206.087L151.637 206.486C152.438 205.878 153.312 205.371 154.238 204.978L153.614 205.238C154.369 204.926 155.153 204.688 155.955 204.528C156.448 204.392 156.89 204.114 157.226 203.728C157.561 203.343 157.776 202.867 157.843 202.36C157.909 201.854 157.825 201.339 157.6 200.88C157.375 200.42 157.02 200.038 156.579 199.779C155.968 199.453 155.259 199.36 154.585 199.519C152.136 200.015 149.862 201.152 147.995 202.812C147.51 203.301 147.236 203.961 147.232 204.649C147.24 205.337 147.513 205.995 147.995 206.486C148.235 206.73 148.521 206.923 148.837 207.054C149.152 207.185 149.491 207.251 149.833 207.248C150.517 207.221 151.169 206.95 151.671 206.486Z" fill="#2D2FEE"/>
</g>
<defs>
<clipPath id="clip0">
<rect width="259" height="270" fill="white"/>
</clipPath>
</defs>
</svg>
