<svg width="270" height="289" viewBox="0 0 270 289" fill="none" xmlns="http://www.w3.org/2000/svg">
<path d="M83.0078 72.8503C83.5321 85.1848 85.1232 97.0129 90.4026 108.28C92.3119 112.691 95.4503 116.458 99.4425 119.132C103.855 121.716 108.805 123.245 113.907 123.599C124.881 124.793 136.38 121.7 144.335 113.833C148.101 109.974 150.886 105.266 152.453 100.106C154.405 94.2835 155.762 88.2785 156.503 82.1826C157.985 69.7034 155.635 56.8625 147.553 46.8973C145.348 44.1844 141.533 48.0366 143.72 50.7314C149.922 58.3274 151.947 68.3831 151.441 78.0048C151.099 83.2263 150.208 88.3972 148.783 93.4319C147.745 98.3168 145.794 102.962 143.033 107.123C137.248 114.9 127.521 118.553 118.047 118.426C109.151 118.318 100.274 115.732 96.0073 107.34C90.5833 96.4884 88.9923 84.8412 88.468 72.8322C88.3053 69.3598 82.8813 69.3417 83.044 72.8322L83.0078 72.8503Z" fill="#2D2FEE"/>
<path d="M79.6771 83.7739C84.6129 66.9541 77.2362 48.7417 84.9202 32.4645C88.2805 25.3422 93.6145 19.3349 100.288 15.1565C103.846 12.9702 107.591 11.106 111.48 9.58601C113.42 8.81435 115.373 8.07287 117.338 7.3615C118.983 6.78275 122.093 5.02843 123.774 5.55292C124.779 6.02786 125.716 6.6362 126.558 7.3615C127.535 7.97641 128.565 8.50087 129.614 9.02536C131.675 10.0562 133.79 10.9967 135.815 12.1361C139.954 14.4988 143.77 17.3862 147.17 20.7269L146.754 17.4352C141.496 24.6566 136.776 32.255 132.633 40.1691L135.707 38.9211C126.354 36.3079 116.404 36.8171 107.366 40.3713C98.3279 43.9256 90.6953 50.3312 85.6253 58.6166C83.8173 61.6188 88.482 64.3497 90.3081 61.3656C94.7547 54.0936 101.456 48.4752 109.391 45.3668C117.326 42.2584 126.06 41.8304 134.261 44.1479C134.836 44.299 135.445 44.2589 135.996 44.0339C136.547 43.8088 137.01 43.4109 137.316 42.9C141.484 34.9522 146.234 27.3233 151.527 20.0758C151.823 19.5548 151.941 18.9512 151.863 18.357C151.784 17.7628 151.514 17.2105 151.093 16.7842C147.807 13.5685 144.168 10.7351 140.245 8.33809C136.394 5.98694 132.073 4.50391 128.366 1.95382C127.589 1.26935 126.684 0.745876 125.704 0.413701C124.723 0.0815248 123.686 -0.0527668 122.653 0.0186264C120.338 0.464957 118.081 1.17495 115.927 2.13469C111.516 3.68963 107.2 5.5013 103 7.56042C95.0225 11.3414 88.2046 17.1935 83.2569 24.5068C78.4793 31.9708 75.8806 40.6212 75.7536 49.4832C75.4101 60.4794 77.5617 71.6745 74.4881 82.4174C73.4937 85.7814 78.7368 87.2101 79.7131 83.8643L79.6771 83.7739Z" fill="#2D2FEE"/>
<path d="M157.3 28.9919L166.232 39.554C166.955 40.4221 167.587 40.9285 167.624 42.0136C167.51 42.8908 167.298 43.7524 166.991 44.5818L165.454 51.5268L159.542 78.4203C158.801 81.8204 164.026 83.2673 164.785 79.8672L171.457 49.5012C171.963 47.15 172.614 44.7989 172.957 42.4296C173.082 41.4475 172.984 40.4499 172.671 39.5107C172.358 38.5715 171.838 37.7148 171.149 37.0039C167.859 32.9889 164.442 29.0823 161.097 25.1215C158.837 22.4629 155.022 26.3152 157.264 28.9557L157.3 28.9919Z" fill="#2D2FEE"/>
<path d="M97.1442 74.4601C99.0776 74.7959 100.986 75.2612 102.858 75.8527L104.25 76.3772C103.707 76.1601 104.43 76.3772 104.485 76.4857L105.136 76.7931C105.563 77.0066 105.98 77.2421 106.383 77.4985L106.98 77.8783C106.98 77.8783 107.631 78.3847 107.179 78.023C107.54 78.3304 107.884 78.6198 108.227 78.9634L108.697 79.4698C108.697 79.5784 109.185 80.1209 108.86 79.6688C109.165 80.0972 109.443 80.5442 109.692 81.0071C109.692 81.0071 110.053 81.7667 109.891 81.3688C109.999 81.622 110.09 81.8933 110.18 82.1465C110.516 83.1785 110.764 84.2374 110.921 85.3115V85.7456C110.921 85.5466 110.921 85.5285 110.921 85.7456C110.921 85.9626 110.921 86.3062 111.012 86.5956L111.174 88.4042C111.174 89.1237 111.46 89.8136 111.969 90.3224C112.477 90.8312 113.167 91.117 113.886 91.117C114.606 91.117 115.295 90.8312 115.804 90.3224C116.313 89.8136 116.598 89.1237 116.598 88.4042C116.182 83.2317 115.387 77.8421 111.174 74.3154C107.472 71.5419 103.109 69.7838 98.5183 69.2152C97.826 69.0413 97.0932 69.1417 96.4732 69.4956C95.8533 69.8495 95.394 70.4295 95.1915 71.1143C95.0043 71.7952 95.088 72.5221 95.4251 73.1426C95.7622 73.7631 96.3265 74.2288 96.9995 74.442L97.1442 74.4601Z" fill="#2D2FEE"/>
<path d="M129.401 79.7046L129.961 79.1982L130.25 78.9631C130.522 78.728 130.25 78.9631 130.142 78.9631C130.377 78.9631 130.612 78.6195 130.829 78.4929C131.046 78.3663 131.245 78.2216 131.462 78.095C131.888 77.841 132.329 77.6116 132.782 77.4077H132.89C132.529 77.5705 132.89 77.4077 132.999 77.4077C133.258 77.3012 133.524 77.2106 133.794 77.1364C134.266 76.9739 134.75 76.847 135.241 76.7566L135.982 76.6119C136.343 76.6119 135.982 76.6119 135.801 76.6119H136.181C137.232 76.4854 138.294 76.4854 139.345 76.6119C139.701 76.6146 140.055 76.5456 140.384 76.4089C140.713 76.2721 141.011 76.0706 141.261 75.8161C141.767 75.3056 142.052 74.6175 142.057 73.899C142.056 73.1798 141.77 72.4902 141.261 71.9819C140.733 71.5038 140.056 71.2226 139.345 71.1862C136.849 70.8986 134.321 71.1644 131.94 71.9646C129.559 72.7648 127.383 74.0798 125.568 75.8161C125.089 76.3304 124.828 77.0106 124.84 77.7134C124.853 78.4162 125.137 79.0868 125.634 79.5839C126.131 80.0809 126.801 80.3657 127.504 80.3781C128.207 80.3905 128.887 80.1296 129.401 79.6504V79.7046Z" fill="#2D2FEE"/>
<path d="M97.5616 118.101C97.5616 124.069 97.6882 130.761 94.3253 135.988C90.9624 141.214 84.3633 142.444 78.5415 142.824C70.9841 143.312 63.4086 143.403 55.8512 144.054C48.6192 144.669 40.7725 145.049 33.884 147.671C26.9956 150.293 21.8066 155.484 16.4911 160.331C10.4645 165.865 4.51617 171.46 -1.35378 177.115C-7.22374 182.769 -13.0094 188.334 -18.7106 193.808L-27.1177 201.928C-29.4681 204.207 -32.1801 206.522 -32.2344 210.049C-32.2344 217.048 -22.7966 221.009 -17.6619 223.685C-11.2436 227.049 -4.49973 229.69 2.22601 232.511C2.84301 232.823 3.55356 232.896 4.22105 232.716C4.88855 232.536 5.46587 232.115 5.842 231.535C6.17102 230.921 6.25323 230.205 6.07175 229.532C5.89027 228.86 5.45885 228.282 4.86572 227.917C-0.865622 225.494 -6.65125 223.197 -12.238 220.466C-15.1127 219.055 -17.9331 217.518 -20.6994 215.89C-22.5074 214.769 -26.5754 212.961 -26.8285 210.465C-26.9731 209.09 -25.4363 207.951 -24.5504 207.101L-20.1932 202.887L-12.0029 194.983C-6.3499 189.521 -0.672831 184.096 5.02838 178.706C10.7296 173.317 16.4791 167.933 22.2767 162.556C27.7007 157.654 32.6546 153.35 39.9047 151.704C47.3268 150.248 54.8545 149.395 62.4141 149.154C69.2664 148.72 76.2273 148.937 83.0253 147.979C89.8234 147.02 96.0609 144.181 99.4961 138.068C102.931 131.955 103.112 124.937 102.968 118.282C102.968 117.562 102.682 116.872 102.173 116.363C101.665 115.855 100.975 115.569 100.256 115.569C99.5363 115.569 98.8465 115.855 98.3379 116.363C97.8293 116.872 97.5436 117.562 97.5436 118.282L97.5616 118.101Z" fill="#2D2FEE"/>
<path d="M138.223 112.982C138.567 117.178 139.055 121.374 139.633 125.642C140.014 129.352 140.753 133.016 141.839 136.584C142.745 139.607 144.533 142.29 146.974 144.288C150.084 146.658 153.935 146.965 157.695 147.2L185.195 148.918C193.566 149.443 202.425 149.262 210.615 151.378C224.446 154.995 232.89 167.456 238.711 179.664C245.003 192.83 249.089 207.136 258.274 218.729C259.47 220.241 260.749 221.684 262.107 223.052C262.425 223.421 262.776 223.76 263.156 224.065L263.589 224.481C263.77 224.028 263.77 223.92 263.589 224.173C263.013 224.674 262.343 225.055 261.619 225.294C257.207 226.976 252.579 228.224 248.077 229.671C239.254 232.511 230.413 235.278 221.427 237.538C218.046 238.407 219.492 243.633 222.873 242.783C231.046 240.721 239.145 238.244 247.137 235.676L259.684 231.624C262.848 230.594 266.79 229.816 268.507 226.56C270.442 222.943 267.169 220.52 264.891 218.169C262.266 215.342 259.956 212.237 258.003 208.909C254.274 202.274 251.047 195.371 248.348 188.255C242.924 175.269 236.976 161.651 225.585 152.807C219.468 148.222 212.191 145.44 204.576 144.777C195.627 143.728 186.497 143.511 177.457 142.968L161.691 141.973C157.569 141.72 151.892 142.317 149.035 138.772C146.685 135.933 146.088 131.881 145.419 128.355C144.587 123.255 143.991 118.136 143.611 113C143.322 109.545 137.898 109.509 138.187 113L138.223 112.982Z" fill="#2D2FEE"/>
<path d="M88.8281 142.896C88.9998 146.245 89.9894 149.502 91.7103 152.38C93.4312 155.259 95.8309 157.672 98.6997 159.408C105.075 163.404 112.457 165.499 119.98 165.449C123.727 165.231 127.429 164.519 130.991 163.333C134.655 162.348 138.148 160.812 141.35 158.775C146.955 155.013 151.24 148.737 150.481 141.756C150.119 138.32 144.695 138.284 145.057 141.756C145.672 147.453 142.055 152.138 137.337 154.905C132.034 157.952 126.087 159.705 119.98 160.023C113.95 160.013 108.024 158.456 102.768 155.501C98.1754 152.861 94.4148 148.412 94.3244 142.841C94.3244 139.351 88.9004 139.351 88.9004 142.841L88.8281 142.896Z" fill="#2D2FEE"/>
<path d="M-20.8778 202.109C-18.4896 205.167 -15.8334 208.006 -12.9408 210.591C-9.77985 213.209 -6.1551 215.209 -2.25547 216.487C6.00175 219.545 14.6409 221.45 23.4181 222.148C26.9075 222.347 26.9075 216.921 23.4181 216.722C15.3878 216.021 7.48504 214.264 -0.0858479 211.496C-3.58537 210.427 -6.83266 208.662 -9.63212 206.305C-12.2959 203.812 -14.7679 201.122 -17.0269 198.257C-19.2507 195.562 -23.0656 199.432 -20.8598 202.109H-20.8778Z" fill="#2D2FEE"/>
<path d="M217.396 227.664C231.299 226.217 246.703 223.739 255.056 211.152C256.991 208.24 252.29 205.509 250.373 208.421C243.25 219.164 229.166 221.081 217.396 222.238C216.682 222.257 216.003 222.548 215.498 223.053C214.994 223.558 214.702 224.237 214.684 224.951C214.693 225.668 214.982 226.352 215.488 226.859C215.995 227.366 216.679 227.655 217.396 227.664Z" fill="#2D2FEE"/>
<path d="M-24.6583 217.862C-28.2743 224.354 -32.6316 230.775 -35.5063 237.756C-38.0375 244.032 -37.694 250.85 -31.7999 255.01C-28.9852 256.788 -25.9448 258.181 -22.7599 259.151C-19.06 260.475 -15.272 261.539 -11.4238 262.334C-3.7352 263.726 4.06856 264.38 11.8813 264.288C21.1925 264.414 30.4856 264.523 39.7606 265.427C43.232 265.771 43.2139 260.345 39.7606 260.001C30.341 259.079 20.8852 258.989 11.4293 258.862C2.56647 258.993 -6.27769 258.008 -14.8951 255.932C-19.0884 254.899 -23.1609 253.426 -27.0449 251.537C-30.245 249.873 -32.1434 247.432 -31.619 243.67C-31.0947 239.908 -28.7806 236.128 -26.846 232.71L-20.0479 220.683C-19.6835 220.062 -19.5806 219.321 -19.762 218.624C-19.9434 217.927 -20.3942 217.331 -21.0152 216.966C-21.6361 216.602 -22.3764 216.499 -23.0732 216.68C-23.77 216.862 -24.3662 217.313 -24.7306 217.934L-24.6583 217.862Z" fill="#2D2FEE"/>
<path d="M1.28694 233.958C14.2684 230.992 27.5934 233.416 40.4482 235.767C43.8653 236.4 45.3298 231.173 41.8946 230.54C28.0273 227.954 13.8345 225.476 -0.159433 228.732C-3.55847 229.509 -2.11209 234.736 1.28694 233.958Z" fill="#2D2FEE"/>
<path d="M252.508 231.697C254.6 239.016 255.695 246.584 255.762 254.196C255.817 256.157 255.763 258.119 255.6 260.074C255.419 262.027 254.515 262.081 252.761 262.624C249.055 263.745 245.349 264.812 241.606 265.807C226.676 269.921 211.369 272.514 195.918 273.548C192.447 273.765 192.41 279.19 195.918 278.973C213.302 277.811 230.511 274.779 247.247 269.93L253.448 268.122C255.286 267.725 257.033 266.989 258.601 265.952C261.566 263.582 261.223 259.332 261.259 255.896C261.35 247.239 260.193 238.613 257.824 230.286C257.634 229.591 257.176 228.999 256.551 228.641C255.925 228.283 255.183 228.189 254.488 228.378C253.793 228.568 253.201 229.026 252.843 229.652C252.486 230.277 252.391 231.02 252.58 231.715L252.508 231.697Z" fill="#2D2FEE"/>
<path d="M198.772 247.595C207.534 243.875 217.218 242.904 226.543 244.809C229.942 245.533 231.406 240.306 227.971 239.583C217.682 237.372 206.965 238.337 197.235 242.35C196.571 242.581 196.018 243.053 195.683 243.672C195.349 244.291 195.257 245.013 195.427 245.696C195.626 246.387 196.087 246.973 196.712 247.328C197.338 247.683 198.077 247.779 198.772 247.595Z" fill="#2D2FEE"/>
<path d="M43.3923 288.233H195.698C196.289 288.228 196.862 288.031 197.331 287.673C197.801 287.314 198.141 286.813 198.301 286.244C199.097 280.511 198.518 274.398 198.446 268.628C198.446 262.081 198.247 255.552 198.103 249.023C197.831 236.363 197.488 223.812 197.235 211.206C197.108 204.587 197 197.949 196.945 191.312C196.945 186.157 197.849 180.334 193.221 176.843C191.597 175.638 189.638 174.968 187.616 174.926C184.127 174.763 180.583 174.926 177.094 174.926H56.6991C51.8356 174.926 45.7065 173.787 41.7289 177.259C37.2993 181.129 38.583 187.893 38.583 193.102C38.583 223.402 38.583 253.695 38.583 283.983C38.583 284.703 38.8687 285.393 39.3773 285.901C39.8859 286.41 40.5757 286.696 41.295 286.696C42.0142 286.696 42.7041 286.41 43.2127 285.901C43.7213 285.393 44.007 284.703 44.007 283.983C44.007 258.446 44.007 232.903 44.007 207.354V188.617C44.007 186.356 43.3561 183.191 45.146 181.383C46.9359 179.574 49.3767 180.243 51.4559 180.243H182.264C184.362 180.243 187.182 179.683 189.171 180.569C191.16 181.455 191.467 183.77 191.485 185.904C191.485 192.318 191.551 198.739 191.684 205.165C191.919 218.639 192.281 232.113 192.588 245.587C192.757 252.231 192.883 258.862 192.968 265.481C192.968 268.954 192.968 272.444 193.076 275.917C193.275 278.831 193.275 281.756 193.076 284.67L195.698 282.681H43.3923C42.6731 282.681 41.9832 282.967 41.4746 283.476C40.966 283.984 40.6803 284.674 40.6803 285.394C40.6803 286.113 40.966 286.803 41.4746 287.312C41.9832 287.821 42.6731 288.107 43.3923 288.107V288.233Z" fill="#2D2FEE"/>
<path d="M43.8995 276.224H194.108C194.827 276.224 195.517 275.938 196.025 275.429C196.534 274.92 196.82 274.23 196.82 273.511C196.82 272.791 196.534 272.101 196.025 271.592C195.517 271.084 194.827 270.798 194.108 270.798H43.8995C43.1802 270.798 42.4904 271.084 41.9818 271.592C41.4732 272.101 41.1875 272.791 41.1875 273.511C41.1875 274.23 41.4732 274.92 41.9818 275.429C42.4904 275.938 43.1802 276.224 43.8995 276.224Z" fill="#2D2FEE"/>
<path d="M134.443 232.222C135.69 233.561 133.737 236.292 132.87 237.268C131.539 238.957 129.87 240.35 127.97 241.356C126.361 242.007 124.951 240.234 123.432 239.782C121.147 239.378 118.793 239.707 116.706 240.723C112.457 242.151 108.353 239.764 105.497 236.671C104.148 235.104 103.191 233.24 102.704 231.231C102.217 229.221 102.213 227.125 102.694 225.115C102.863 223.292 103.391 221.522 104.248 219.905C105.104 218.287 106.272 216.856 107.684 215.692C111.445 213.088 116.128 213.775 120.34 214.281C122.088 214.465 123.844 214.55 125.601 214.534C126.56 214.534 127.536 214.534 128.512 214.534C129.489 214.534 130.61 214.878 131.586 214.842L132.074 214.95C131.894 214.815 131.754 214.634 131.666 214.427C131.578 214.219 131.546 213.993 131.574 213.769C131.601 213.545 131.687 213.333 131.822 213.153C131.958 212.973 132.138 212.832 132.345 212.744C131.973 212.783 131.607 212.874 131.26 213.015C130.221 213.339 129.23 213.801 128.313 214.39C126.458 215.58 125.003 217.3 124.137 219.327C122.329 223.469 123.179 229.799 127.554 231.987C130.067 233.271 133.521 232.855 136.287 232.91C139.776 232.91 139.776 227.484 136.287 227.484H132.833C131.025 227.484 129.706 227.629 129.019 225.675C128.625 224.618 128.553 223.467 128.814 222.369C129.075 221.271 129.656 220.275 130.483 219.508C132.291 217.898 135.148 218.224 136.468 215.891C137.002 214.908 137.128 213.754 136.821 212.679C136.513 211.603 135.795 210.691 134.822 210.14C132.526 209.228 130.056 208.839 127.59 209C125.294 209 122.998 209 120.738 208.765C118.155 208.36 115.54 208.196 112.927 208.277C110.459 208.404 108.052 209.098 105.895 210.305C103.738 211.513 101.888 213.201 100.488 215.24C97.8332 219.48 96.5689 224.443 96.8723 229.437C97.0131 231.985 97.7072 234.471 98.9062 236.723C100.105 238.975 101.78 240.938 103.815 242.477C105.835 244.272 108.297 245.497 110.947 246.025C113.598 246.552 116.341 246.364 118.894 245.479C120.141 245.027 121.19 244.539 122.51 245.19C123.733 246.031 125.129 246.587 126.596 246.817C129.543 247.034 132.02 245.226 134.099 243.399C138.167 239.782 142.904 233.307 138.221 228.225C135.943 225.802 132.128 229.654 134.443 232.222Z" fill="#2D2FEE"/>
<path d="M125.064 205.075C125.064 205.238 124.937 205.744 125.064 205.31C125.055 205.22 125.055 205.129 125.064 205.039L125.172 204.695C125.172 204.695 124.883 205.31 125.064 204.948C125.244 204.587 125.263 204.569 125.389 204.388C125.441 204.312 125.49 204.234 125.534 204.153C125.715 203.881 125.118 204.659 125.425 204.315C125.693 203.97 126.01 203.665 126.365 203.411C126.365 203.411 125.859 203.773 126.167 203.574L126.474 203.375C126.653 203.253 126.84 203.144 127.034 203.049L127.306 202.905C127.595 202.76 127.197 202.905 127.107 202.905C127.36 202.905 127.613 202.706 127.848 202.634C128.357 202.471 128.876 202.344 129.403 202.254L130.18 202.127C129.927 202.127 129.656 202.127 130.18 202.127H130.524L132.205 201.982C132.925 201.982 133.614 201.697 134.123 201.188C134.632 200.679 134.917 199.989 134.917 199.27C134.917 198.55 134.632 197.86 134.123 197.351C133.614 196.842 132.925 196.557 132.205 196.557C129.417 196.562 126.665 197.179 124.142 198.365C123.035 198.995 122.065 199.837 121.285 200.843C120.921 201.306 120.611 201.81 120.363 202.344C120 203.171 119.768 204.05 119.676 204.948C119.673 205.305 119.742 205.659 119.879 205.988C120.015 206.317 120.217 206.616 120.471 206.866C120.979 207.374 121.669 207.661 122.388 207.661C123.106 207.657 123.794 207.371 124.304 206.866C124.775 206.333 125.055 205.658 125.1 204.948L125.064 205.075Z" fill="#2D2FEE"/>
<path d="M121.609 207.625C122.843 208.303 124.237 208.639 125.645 208.598C127.054 208.557 128.425 208.139 129.618 207.389C131.554 205.838 133.101 203.856 134.138 201.602C134.49 200.979 134.585 200.242 134.403 199.55C134.22 198.857 133.775 198.264 133.162 197.894C132.535 197.546 131.797 197.453 131.104 197.635C130.41 197.817 129.813 198.26 129.437 198.871C128.806 200.066 128.099 201.22 127.322 202.325L127.756 201.783C127.435 202.2 127.065 202.577 126.653 202.904L127.195 202.47C126.856 202.732 126.485 202.95 126.092 203.121L126.743 202.85C126.296 203.031 125.829 203.159 125.351 203.23L126.074 203.121C125.6 203.184 125.12 203.184 124.646 203.121L125.369 203.212C124.991 203.162 124.62 203.065 124.266 202.922L124.899 203.194C124.706 203.118 124.518 203.027 124.339 202.922C123.725 202.593 123.009 202.511 122.337 202.693C121.665 202.874 121.087 203.306 120.723 203.899C120.402 204.514 120.325 205.228 120.506 205.898C120.687 206.568 121.113 207.145 121.699 207.516L121.609 207.625Z" fill="#2D2FEE"/>
</svg>
