<svg width="177" height="154" viewBox="0 0 177 154" fill="none" xmlns="http://www.w3.org/2000/svg">
<g clip-path="url(#clip0)">
<path d="M35.2242 131.995L52.2943 107.076L76.1601 113.427L99.1458 81.2053L68.616 13.1549L47.678 41.1445L22.0878 30.9517L1.49707 56.804L35.2242 131.995Z" fill="white" stroke="#2D2FEE" stroke-width="5" stroke-linecap="round" stroke-linejoin="round"/>
<path d="M23 34L50 102" stroke="#2D2FEE" stroke-width="5" stroke-linecap="round" stroke-linejoin="round"/>
<path d="M49.396 44.9857L73.2559 105.492" stroke="#2D2FEE" stroke-width="5" stroke-linecap="round" stroke-linejoin="round"/>
<path d="M14.4595 71.7109C14.5366 71.0888 14.496 70.4576 14.3398 69.8506C14.2328 69.1566 14.1649 68.4571 14.1362 67.7554C14.081 66.4022 14.1613 65.0467 14.3757 63.7096C14.5963 62.3889 14.9084 61.0853 15.3097 59.8083C15.4464 59.2475 15.6685 58.7113 15.9683 58.2189C16.3298 57.7743 16.8126 57.4457 17.3574 57.2736C18.9342 56.6602 20.3468 55.6851 21.4828 54.4259C22.4481 53.2439 23.5031 52.1388 24.6381 51.1206C25.1774 50.6691 25.818 50.3564 26.5044 50.2096C27.1908 50.0627 27.9024 50.0861 28.5778 50.2777C29.6973 50.6549 30.7623 51.1792 31.7452 51.8371C32.775 52.4391 33.8049 53.0412 34.8107 53.6432C36.8848 54.8728 38.8045 56.3484 40.5287 58.0382C42.2792 59.9389 43.7182 62.1073 44.7918 64.4622C47.5926 70.1624 50.0343 76.034 52.1024 82.0422L53.4196 81.0247C50.166 79.4212 47.279 77.1558 44.9415 74.372C42.774 71.7772 41.1754 67.912 37.4572 67.3039C35.661 67.0149 34.1761 67.7795 32.9127 68.9896C31.6494 70.1998 30.5657 71.446 29.0987 72.3973C26.164 74.2673 22.7173 75.1585 19.2494 74.944C18.1298 74.9018 16.6629 74.9921 15.7288 74.2396C15.2778 73.8297 14.9518 73.2993 14.7888 72.7104C14.6571 72.2829 14.6032 71.735 14.4954 71.2293C14.2559 70.0914 12.5256 70.5731 12.7651 71.7109C12.807 71.9036 12.8309 72.1023 12.8908 72.313C12.8908 72.3973 12.8908 72.6622 12.8908 72.313C12.8908 71.9638 12.8549 72.4334 12.8908 72.5297C13.0083 73.3255 13.3143 74.0812 13.7829 74.7333C14.1111 75.2093 14.5307 75.6144 15.0171 75.9246C15.5035 76.2348 16.0469 76.4439 16.615 76.5394C19.8262 77.1209 23.132 76.8681 26.2188 75.8049C27.8863 75.2227 29.4568 74.3905 30.877 73.3365C31.587 72.8134 32.2557 72.2357 32.8768 71.6086C33.4857 70.905 34.1526 70.2545 34.8706 69.6639C38.3972 67.1173 41.1873 72.4635 42.8997 74.7032C45.457 78.027 48.733 80.722 52.4796 82.5841C53.1203 82.9032 54.0723 82.3613 53.7968 81.5606C51.8454 75.905 49.5765 70.3652 47.0011 64.9679C45.8036 62.3971 44.4864 59.8444 42.6123 57.683C40.9182 55.8202 38.9782 54.1997 36.8465 52.8666C35.7867 52.1682 34.697 51.5119 33.5953 50.8738C32.5276 50.1981 31.4243 49.5811 30.2902 49.0255C29.4549 48.6142 28.5413 48.3884 27.6115 48.3635C26.6818 48.3385 25.7575 48.515 24.9016 48.881C21.9079 50.2717 20.6505 53.7998 17.7167 55.2387C16.4892 55.8407 15.2439 56.1237 14.4475 57.3519C13.6512 58.5801 13.3099 60.2418 12.9866 61.6626C12.6378 63.1908 12.4373 64.7494 12.3879 66.3165C12.3639 67.13 12.3879 67.9442 12.4597 68.7548C12.4597 69.1101 12.5316 69.4653 12.5855 69.8145C12.7145 70.2893 12.7809 70.7792 12.783 71.2714C12.5376 72.3672 14.2679 72.8488 14.4595 71.7109Z" fill="#2D2FEE"/>
<path d="M62.3588 104.95C60.4668 101.338 61.9277 97.2923 64.8855 94.7637C66.3584 93.5054 68.0708 92.5662 69.5497 91.3019C70.9503 90.1038 72.043 88.5838 72.735 86.8707C74.166 83.3788 74.0403 79.4654 73.5194 75.7989C73.196 73.493 72.7111 71.2172 72.4237 68.9114C72.1602 66.7861 71.9626 64.4682 72.4237 62.367C72.729 61.0184 73.6212 59.0798 75.3276 59.6036C77.034 60.1274 78.0878 62.2767 78.92 63.7036C81.1053 67.3407 82.913 71.194 84.3147 75.2029C85.7363 79.2165 86.7122 83.3759 87.2246 87.6052C87.4401 89.5499 87.5179 91.645 86.7695 93.4933C86.1256 94.9883 84.97 96.2016 83.5124 96.913C80.2612 98.6289 76.4233 98.7794 73.1721 100.525C71.2022 101.579 69.6754 103.247 67.8373 104.487C66.1369 105.637 63.9096 106.293 62.2271 104.758C61.3769 103.975 60.1016 105.252 60.9578 106.04C61.6941 106.715 62.5984 107.176 63.5746 107.376C64.5508 107.575 65.5625 107.505 66.5021 107.172C68.5438 106.51 70.1365 104.987 71.777 103.662C73.2901 102.438 75.0244 101.52 76.8843 100.959C78.6206 100.417 80.3989 100.038 82.1233 99.4417C83.7557 98.9422 85.2625 98.0963 86.542 96.9612C87.9669 95.5384 88.8541 93.6606 89.0507 91.6511C89.2372 89.4584 89.1082 87.2502 88.6675 85.0946C88.2885 82.7885 87.7828 80.5052 87.1527 78.2553C85.8996 73.8071 84.1732 69.5076 82.0035 65.4315C81.0256 63.4187 79.8417 61.5139 78.471 59.7481C77.2735 58.3332 75.4772 57.2134 73.5673 57.9419C71.8549 58.6102 70.9807 60.4645 70.6574 62.1563C70.2871 64.5737 70.3033 67.035 70.7053 69.4472C71.304 73.9265 72.5674 78.4239 71.9028 82.9694C71.6724 84.9618 70.9318 86.8599 69.7533 88.4782C68.46 90.1459 66.6039 91.1995 64.9274 92.4217C61.5565 94.8781 59.0957 98.6168 59.8022 102.958C59.9758 103.963 60.3115 104.933 60.7961 105.829C61.3529 106.889 62.9037 105.98 62.3588 104.95Z" fill="#2D2FEE"/>
<path d="M60.9519 46.2319C54.9645 39.82 50.911 35.8404 45.4804 28.9288C43.9536 26.9841 41.6844 23.3899 42.0915 19.8979C42.3909 17.3332 44.708 14.4132 46.9174 13.0827C48.8851 11.9308 51.1386 11.3669 53.4137 11.4571C57.0062 11.6016 60.1077 15.0092 61.1974 18.4711C62.2871 21.9329 61.862 25.6957 61.5866 29.3081C61.1435 35.0655 61.0895 40.8464 61.4249 46.6112L60.9519 46.2319Z" fill="white"/>
<path d="M61.5868 45.5937C57.9165 41.6623 54.1504 37.8152 50.6238 33.7513C48.788 31.7332 47.0668 29.6126 45.4686 27.3996C44.0376 25.3345 42.7922 22.8541 42.9539 20.2712C43.1096 17.863 44.9777 15.5451 46.8457 14.2146C48.908 12.7576 51.4314 12.1147 53.9348 12.4084C56.3298 12.7756 58.2578 14.6601 59.4253 16.683C60.8623 19.1875 61.0778 22.1015 60.976 24.9432C60.8503 28.4773 60.4491 31.9993 60.3773 35.5454C60.2735 39.226 60.3294 42.9066 60.5449 46.5871L61.8981 45.8045L61.4251 45.4492C60.503 44.7448 59.6289 46.3162 60.521 47.0086L60.988 47.3638C61.1246 47.4424 61.2792 47.4838 61.4366 47.4839C61.594 47.484 61.7487 47.4428 61.8853 47.3643C62.022 47.2859 62.136 47.1729 62.2159 47.0366C62.2959 46.9003 62.339 46.7454 62.3412 46.5871C62.1376 43.0109 62.0797 39.4287 62.1675 35.8404C62.2514 32.4328 62.5926 29.0492 62.7663 25.6416C62.9219 22.535 62.7663 19.314 61.3712 16.4723C60.2288 14.035 58.2338 12.1061 55.767 11.0538C53.1804 10.0483 50.0849 10.6203 47.6241 11.722C45.2066 12.8557 43.2433 14.7809 42.0558 17.1827C39.3255 22.7096 43.5826 28.0679 46.9296 32.1438C51.1327 37.2733 55.773 42.0175 60.3174 46.8701C61.1078 47.719 62.3591 46.4426 61.5868 45.5937Z" fill="#2D2FEE"/>
<path d="M52.438 27.8933C55.4141 27.8933 57.8267 25.4673 57.8267 22.4748C57.8267 19.4822 55.4141 17.0563 52.438 17.0563C49.4619 17.0563 47.0493 19.4822 47.0493 22.4748C47.0493 25.4673 49.4619 27.8933 52.438 27.8933Z" fill="white" stroke="#2D2FEE" stroke-width="3" stroke-linecap="round" stroke-linejoin="round"/>
<path d="M131.603 54.173C133.756 55.2311 135.796 56.5059 137.693 57.978C139.357 59.2724 141.01 60.9281 141.171 63.0293C141.333 65.1305 139.04 67.34 137.202 66.3225C139.178 67.7494 141.393 69.7121 140.986 72.1264C140.507 75.0463 136.795 75.8832 133.837 76.0518L129.047 76.3287C130.123 77.7221 130.747 79.4146 130.833 81.1767C130.92 82.9387 130.466 84.6849 129.532 86.1783C129.094 86.8982 128.474 87.4883 127.736 87.8882C126.881 88.2297 125.966 88.3876 125.047 88.3518C121.802 88.4421 118.533 88.5384 115.33 87.9664C105.51 86.2265 97.8644 78.6406 91.2123 71.1751C90.3322 70.1877 89.4161 69.1582 88.1647 68.7067C86.7158 68.1829 85.1172 68.5441 83.6083 68.8391C74.4082 70.6047 64.9014 69.7711 56.144 66.4309L56.3835 65.57C56.9823 61.5964 60.8502 58.9473 64.6342 57.671C68.4182 56.3946 72.5376 55.8648 75.9145 53.7155C80.1416 51.0423 82.5006 46.2741 85.9494 42.6256C89.2699 39.2128 93.4955 36.8311 98.1234 35.7638C102.751 34.6964 107.587 34.9884 112.055 36.605" fill="white"/>
<path d="M131.155 54.9557C133.921 56.3284 136.92 58.0322 138.986 60.3742C139.8 61.3014 140.591 62.6741 140.154 63.9504C139.836 64.8836 138.729 66.0637 137.657 65.5278C137.452 65.4174 137.212 65.3913 136.988 65.455C136.765 65.5186 136.574 65.6671 136.457 65.8691C136.34 66.0711 136.305 66.311 136.36 66.5381C136.416 66.7653 136.556 66.9621 136.753 67.0872C138.004 68.0023 139.489 69.1402 139.992 70.6995C140.183 71.292 140.164 71.9325 139.939 72.5128C139.715 73.0931 139.298 73.5776 138.759 73.8844C137.601 74.5653 136.305 74.9768 134.969 75.0885C133.017 75.3233 131.023 75.3474 129.059 75.4618C128.884 75.4673 128.714 75.5235 128.57 75.6237C128.426 75.7238 128.314 75.8636 128.247 76.0263C128.18 76.1891 128.161 76.3678 128.192 76.541C128.224 76.7142 128.304 76.8747 128.424 77.003C129.185 78.0231 129.684 79.2159 129.877 80.476C130.07 81.7361 129.952 83.0246 129.532 84.2277C129.155 85.3415 128.412 86.6359 127.299 87.1597C126.625 87.4098 125.909 87.5243 125.191 87.4969C124.341 87.4969 123.485 87.545 122.628 87.5631C119.472 87.6851 116.314 87.3506 113.252 86.5697C110.607 85.809 108.084 84.6695 105.762 83.1861C101.002 80.212 96.9784 76.1902 93.1884 72.0601C91.3203 70.0071 89.5959 67.5748 86.5543 67.5387C84.9796 67.5387 83.4169 67.9782 81.8721 68.2311C80.3274 68.4839 78.7168 68.6585 77.1301 68.7548C70.0602 69.182 62.9802 68.1029 56.3538 65.588L56.9525 66.7018C57.1381 66.0396 57.2519 65.3593 57.4615 64.709C57.7848 63.767 58.3008 62.9036 58.9763 62.1744C60.4339 60.6539 62.2234 59.4955 64.2033 58.7908C68.7358 57.0629 73.6993 56.6776 77.6331 53.583C81.2614 50.7293 83.4468 46.5269 86.6142 43.2156C89.6286 40.11 93.4399 37.9052 97.625 36.8459C102.315 35.5912 107.276 35.8182 111.833 37.4961C112.923 37.9055 113.39 36.1595 112.312 35.7561C103.882 32.6014 93.9368 34.4978 87.0992 40.3378C83.5067 43.4143 81.2854 47.713 77.9205 51.0062C76.1494 52.715 74.0104 53.9903 71.6696 54.733C69.2088 55.5578 66.6521 56.0454 64.2093 56.9184C61.8812 57.6791 59.7587 58.9687 58.0063 60.6873C57.1687 61.5413 56.4985 62.5462 56.0305 63.6494C55.7362 64.4976 55.4903 65.3619 55.294 66.2383C55.2392 66.4694 55.2736 66.7129 55.3903 66.9196C55.5069 67.1263 55.6972 67.2808 55.9227 67.3521C62.149 69.705 68.7684 70.8273 75.4177 70.6573C78.7057 70.4737 81.978 70.0714 85.2131 69.4532C85.9816 69.2767 86.7819 69.2985 87.5398 69.5163C88.2977 69.7342 88.9885 70.1412 89.548 70.6995C90.6078 71.723 91.5418 72.8789 92.5417 73.9626C96.5054 78.2613 100.81 82.3914 105.894 85.3596C108.401 86.8378 111.113 87.9315 113.941 88.6046C117.264 89.3632 120.677 89.3693 124.065 89.279C125.772 89.2368 127.556 89.2789 128.963 88.1712C130.124 87.164 130.958 85.8303 131.358 84.3421C131.784 82.8704 131.855 81.3177 131.565 79.813C131.274 78.3082 130.631 76.895 129.688 75.6905L129.053 77.2318C131.368 77.183 133.678 77.0101 135.974 76.714C137.65 76.5265 139.235 75.8483 140.531 74.7634C141.159 74.1684 141.6 73.4013 141.799 72.557C141.998 71.7127 141.946 70.8283 141.651 70.0131C140.944 68.0806 139.256 66.7139 137.651 65.5399L136.747 67.0992C137.479 67.4448 138.308 67.522 139.091 67.3175C139.874 67.113 140.561 66.6396 141.034 65.9794C141.587 65.2916 141.929 64.4569 142.018 63.5771C142.107 62.6973 141.94 61.8104 141.537 61.0244C140.74 59.2785 139.214 58.0142 137.717 56.8763C135.939 55.5434 134.043 54.3785 132.053 53.3964C131.023 52.8846 130.107 54.4379 131.149 54.9557H131.155Z" fill="#2D2FEE"/>
<path d="M137.753 58.851C146.86 61.3676 157.044 58.4898 164.205 52.4993C165.181 51.6805 166.289 50.7895 166.744 49.5553C166.981 48.9703 167 48.3186 166.796 47.7209C166.593 47.1231 166.181 46.6198 165.636 46.3042L165.427 47.9538C167.768 47.424 170.252 47.7551 172.552 47.0146C173.498 46.7428 174.368 46.2547 175.095 45.5883C175.822 44.9219 176.386 44.0955 176.743 43.1735C177 42.2802 176.957 41.3264 176.619 40.4607C176.281 39.5949 175.668 38.8659 174.875 38.3871C172.971 37.1048 170.6 37.3275 168.444 37.6165L168.899 39.2962C170.697 38.2495 172.376 37.0079 173.905 35.5936C175.222 34.3895 176.779 32.8964 176.988 31.0059C177.198 29.1155 175.629 27.8331 174.031 27.1347C172.317 26.4576 170.48 26.1559 168.642 26.2497C166.594 26.2798 164.534 26.5025 162.493 26.6771C160.451 26.8517 158.391 27.0324 156.344 27.2792C152.267 27.6919 148.215 28.3291 144.207 29.1877C139.624 30.1727 135.171 31.6943 130.939 33.7212C129.897 34.2269 130.807 35.7863 131.843 35.2805C138.597 31.9933 146.009 30.3798 153.398 29.4346C157.128 28.9529 160.87 28.6338 164.618 28.3328C167.75 28.0799 171.875 27.3876 174.551 29.5369C176.282 30.9156 174.066 32.9747 173.013 33.9921C171.494 35.4513 169.805 36.7208 167.983 37.773C167.277 38.1885 167.516 39.5792 168.438 39.4588C170.151 39.23 172.121 38.9049 173.695 39.814C174.977 40.5545 175.533 41.9453 174.743 43.2758C172.809 46.533 168.061 45.5456 164.948 46.244C164.78 46.2947 164.63 46.3932 164.516 46.5277C164.402 46.6621 164.33 46.8267 164.307 47.0017C164.284 47.1766 164.312 47.3545 164.388 47.5138C164.463 47.6731 164.583 47.8071 164.732 47.8996C166.427 48.7726 162.613 51.512 161.96 52.0237C160.328 53.2435 158.579 54.2963 156.739 55.1665C153.044 56.9339 149.017 57.8902 144.926 57.972C142.666 58.0145 140.411 57.7306 138.232 57.1292C138.009 57.0882 137.78 57.1325 137.588 57.2532C137.397 57.374 137.257 57.5625 137.197 57.7816C137.137 58.0007 137.161 58.2345 137.264 58.4369C137.367 58.6393 137.541 58.7957 137.753 58.8751V58.851Z" fill="#2D2FEE"/>
<path d="M105.51 35.5213C109.755 30.6567 111.342 24.317 113.294 18.3025C114.35 14.918 115.711 11.6372 117.359 8.50101C118.171 6.93539 119.081 5.42319 120.084 3.97355C120.754 3.0223 122.155 1.39675 123.497 1.85431C124.694 2.25167 124.694 3.82303 124.694 4.86459C124.754 6.30953 124.79 7.77252 125.49 9.07899C125.611 9.27649 125.802 9.42016 126.025 9.48059C126.247 9.54102 126.485 9.51366 126.688 9.4041C127.901 8.4772 128.988 7.3943 129.921 6.1831C130.801 5.17164 131.861 4.02171 133.292 3.97355C133.671 3.95988 134.049 4.02251 134.404 4.15776C134.759 4.29301 135.083 4.49816 135.358 4.76117C135.633 5.02418 135.853 5.33976 136.005 5.68938C136.157 6.03901 136.238 6.41564 136.244 6.79719C136.244 8.83816 134.448 9.39206 133.064 10.4095C131.867 11.2825 130.927 12.89 131.592 14.3771C132.424 16.2495 134.861 15.7739 136.453 15.4909C138.148 15.1838 139.968 14.6661 141.644 15.3645C143.506 16.1351 143.489 17.9714 142.728 19.5789C141.776 21.6198 140.399 23.5103 139.225 25.4248L135.405 31.632C134.807 32.6254 136.346 33.5285 136.956 32.5471L140.633 26.5687C141.794 24.6722 143.087 22.8059 144.111 20.8251C144.997 19.1153 145.566 17.0021 144.381 15.2802C143.387 13.8292 141.573 13.2151 139.884 13.185C138.935 13.199 137.99 13.31 137.064 13.5161C136.058 13.7028 134.669 14.1965 133.639 13.8894C132.825 13.6486 133.256 12.6853 133.639 12.2338C134.286 11.5113 135.328 11.1621 136.1 10.5841C139.202 8.24815 138.291 3.16679 134.436 2.26973C132.591 1.84227 130.891 2.62494 129.568 3.88926C128.245 5.15358 127.287 6.79117 125.766 7.82069L126.993 8.1458C125.796 5.93625 127.185 2.89587 125.287 0.951226C124.757 0.434638 124.074 0.10581 123.341 0.0145534C122.609 -0.0767032 121.867 0.0745842 121.227 0.445498C119.73 1.21613 118.707 2.64902 117.82 4.05784C115.764 7.29792 114.049 10.7441 112.701 14.341C111.504 17.5559 110.606 20.8793 109.504 24.1364C108.277 27.7488 106.738 31.3611 104.199 34.269C103.439 35.136 104.708 36.4184 105.468 35.5454L105.51 35.5213Z" fill="#2D2FEE"/>
<path d="M90.1286 46.852C86.9433 47.3457 85.8596 50.8677 86.2368 53.6673C86.389 55.0325 86.9063 56.3308 87.7336 57.4241C88.6528 58.4972 89.9305 59.1952 91.3261 59.3868C94.2659 59.9226 97.5889 59.3447 99.439 56.7679C100.227 55.5796 100.695 54.2065 100.798 52.7823C101.032 51.321 100.688 49.8256 99.8402 48.616C98.8826 47.3956 97.5354 46.5449 96.0262 46.2078C94.4096 45.8165 92.32 45.6057 90.7632 46.274C90.5657 46.3944 90.4219 46.5867 90.3617 46.8109C90.3015 47.0352 90.3295 47.2741 90.4399 47.4781C90.5626 47.6734 90.7538 47.8153 90.9756 47.8755C91.1974 47.9357 91.4336 47.9099 91.6374 47.8033C92.1825 47.6507 92.7518 47.6057 93.3139 47.6708C93.9059 47.6748 94.4966 47.7272 95.0802 47.8273C96.1239 47.9828 97.1021 48.4338 97.9003 49.1278C99.4809 50.6028 99.2355 53.2037 98.3433 55.0159C97.3255 57.0749 95.0742 57.8335 92.9067 57.7312C91.7686 57.7441 90.6507 57.4286 89.6855 56.8221C88.9172 56.1817 88.3823 55.3028 88.1647 54.3235C87.566 52.1802 87.9073 48.9652 90.5597 48.5498C90.783 48.4775 90.97 48.3213 91.0815 48.1138C91.1931 47.9063 91.2206 47.6635 91.1584 47.436C91.0841 47.2132 90.9283 47.027 90.7227 46.9153C90.5171 46.8035 90.2769 46.7744 90.0507 46.8339L90.1286 46.852Z" fill="#2D2FEE"/>
<path d="M86.9853 52.2224C88.063 53.6071 90.0568 53.8419 91.6016 53.1856C92.1953 52.9394 92.7307 52.57 93.1726 52.1014C93.6146 51.6328 93.9532 51.0757 94.1662 50.4664C94.3793 49.8572 94.4621 49.2096 94.4091 48.566C94.3561 47.9224 94.1686 47.2973 93.8588 46.7316C93.8019 46.6246 93.724 46.5303 93.63 46.4542C93.536 46.3782 93.4277 46.322 93.3115 46.2889C93.1954 46.2559 93.0739 46.2467 92.9541 46.262C92.8344 46.2772 92.719 46.3166 92.6147 46.3777C92.5105 46.4389 92.4195 46.5205 92.3474 46.6177C92.2752 46.715 92.2232 46.8258 92.1946 46.9437C92.166 47.0616 92.1613 47.1841 92.1808 47.3038C92.2003 47.4236 92.2436 47.5382 92.3081 47.6407C92.3081 47.6407 92.4638 47.9718 92.3979 47.8153C92.4338 47.8936 92.4578 47.9779 92.4877 48.0561C92.55 48.2523 92.5941 48.4538 92.6194 48.6582C92.6194 48.4956 92.6194 48.7184 92.6194 48.7605C92.6194 48.8027 92.6194 48.9652 92.6194 49.0676V49.3686C92.6194 49.188 92.6194 49.4469 92.6194 49.471C92.5731 49.8076 92.4546 50.1301 92.2722 50.4162C92.2239 50.5021 92.1699 50.5845 92.1105 50.663C92.2123 50.5185 92.0566 50.7232 92.0446 50.7353C91.9195 50.8802 91.7834 51.015 91.6375 51.1387C91.4818 51.2711 91.7093 51.1025 91.5537 51.1989L91.2783 51.3795L91.0567 51.4939C91.0148 51.4939 90.8232 51.5902 90.9729 51.536C90.7936 51.604 90.6094 51.6583 90.422 51.6986L90.1766 51.7467C90.3801 51.7467 90.0448 51.7467 90.0089 51.7467C89.9252 51.7528 89.8412 51.7528 89.7574 51.7467C89.7574 51.7467 89.4641 51.7467 89.6018 51.7467C89.4701 51.7259 89.34 51.6957 89.2126 51.6564C89.2126 51.6564 88.9252 51.536 89.0809 51.6143C88.9919 51.572 88.9059 51.5238 88.8234 51.4698C88.7875 51.4698 88.5659 51.2831 88.6917 51.3915C88.5439 51.259 88.4077 51.114 88.2845 50.958C88.1154 50.7904 87.8874 50.6964 87.6499 50.6964C87.4123 50.6964 87.1844 50.7904 87.0152 50.958C86.8536 51.132 86.7637 51.3612 86.7637 51.5992C86.7637 51.8373 86.8536 52.0665 87.0152 52.2404L86.9853 52.2224Z" fill="#2D2FEE"/>
<path d="M113.503 71.3798C115.329 73.2131 117.389 74.7943 119.629 76.0819C119.832 76.1886 120.069 76.2143 120.29 76.1541C120.512 76.0939 120.703 75.9521 120.826 75.7568C120.935 75.5525 120.962 75.314 120.902 75.0902C120.842 74.8663 120.699 74.6741 120.503 74.5527C118.395 73.3453 116.458 71.859 114.743 70.1336C114.573 69.974 114.347 69.8872 114.115 69.8913C113.882 69.8954 113.66 69.9902 113.495 70.1557C113.331 70.3211 113.237 70.5444 113.233 70.7783C113.228 71.0123 113.315 71.2387 113.473 71.4099L113.503 71.3798Z" fill="#2D2FEE"/>
<path d="M122.862 66.7019C122.987 66.6537 123.119 66.6356 123.245 66.5935C123.371 66.5513 123.077 66.5935 123.245 66.5935H123.46H123.634C123.742 66.5935 123.472 66.5574 123.634 66.5935C123.796 66.6296 123.897 66.6477 124.023 66.6898C124.149 66.732 124.287 66.7741 124.418 66.8223L124.592 66.8885C124.694 66.9306 124.472 66.8343 124.628 66.8885L125.418 67.2497C126.502 67.7554 127.741 68.2612 128.933 67.7976C129.154 67.7216 129.338 67.5648 129.449 67.3584C129.56 67.152 129.589 66.9111 129.532 66.6838C129.464 66.4579 129.31 66.268 129.104 66.1553C128.897 66.0426 128.655 66.0162 128.43 66.0817C128.304 66.1299 128.172 66.148 128.053 66.1961C127.933 66.2443 128.214 66.1961 128.053 66.1961C127.981 66.1961 127.909 66.1961 127.843 66.1961C127.777 66.1961 127.723 66.1961 127.664 66.1961C127.604 66.1961 127.825 66.2322 127.664 66.1961L127.274 66.0998C127.143 66.0637 127.011 66.0155 126.885 65.9673L126.706 65.9011C126.61 65.859 126.825 65.9553 126.67 65.9011L125.885 65.5399C124.796 65.0341 123.562 64.5284 122.365 64.986C122.144 65.0607 121.96 65.2164 121.849 65.4218C121.738 65.6272 121.708 65.8672 121.766 66.0938C121.835 66.3188 121.989 66.5076 122.195 66.6201C122.401 66.7326 122.642 66.7598 122.868 66.6958L122.862 66.7019Z" fill="#2D2FEE"/>
<path d="M119.119 23.5645C120.318 22.1005 121.315 20.4803 122.083 18.7481C122.196 18.5386 122.225 18.2941 122.165 18.0638C122.105 17.8336 121.96 17.6349 121.76 17.5078C121.554 17.389 121.31 17.3565 121.08 17.4174C120.85 17.4782 120.654 17.6275 120.532 17.8329C120.176 18.6628 119.764 19.4674 119.299 20.2412C119.072 20.6205 118.832 20.9877 118.581 21.3489C118.455 21.5296 118.323 21.7102 118.191 21.8848L118.096 22.0172C118.006 22.1316 118.173 21.9209 118.096 22.0172L117.862 22.3122C117.7 22.4845 117.609 22.7129 117.609 22.9504C117.609 23.1879 117.7 23.4163 117.862 23.5886C118.032 23.7548 118.26 23.8478 118.497 23.8478C118.734 23.8478 118.962 23.7548 119.131 23.5886L119.119 23.5645Z" fill="#2D2FEE"/>
<path d="M125.658 23.5946L128.699 20.3495C128.869 20.1802 128.964 19.9504 128.964 19.7104C128.965 19.4705 128.871 19.2402 128.702 19.0701C128.534 18.9001 128.305 18.8042 128.067 18.8037C127.828 18.8031 127.599 18.8979 127.43 19.0671L124.382 22.3122C124.289 22.3939 124.212 22.4943 124.159 22.6069C124.105 22.7195 124.075 22.842 124.071 22.9668C124.066 23.0916 124.088 23.216 124.133 23.3322C124.179 23.4483 124.247 23.5539 124.335 23.6422C124.423 23.7305 124.528 23.7996 124.643 23.8453C124.759 23.891 124.883 23.9123 125.007 23.9079C125.131 23.9034 125.253 23.8733 125.365 23.8194C125.477 23.7655 125.576 23.6889 125.658 23.5946Z" fill="#2D2FEE"/>
<path d="M85.71 17.55C85.6869 16.9046 85.9018 16.2735 86.3133 15.7778C86.7248 15.282 87.3039 14.9566 87.9394 14.8641C88.575 14.7715 89.2221 14.9183 89.7566 15.2762C90.2911 15.6342 90.6752 16.178 90.8352 16.8034C91.2423 18.3266 90.5837 19.9522 89.9551 21.3128C89.2186 22.8962 88.4642 24.4435 88.3145 26.2135C88.2187 27.3695 90.0149 27.3635 90.1107 26.2135C90.2904 24.0943 91.6375 22.2881 92.2961 20.3134C92.8949 18.435 93.0146 16.2254 91.6974 14.624C91.1168 13.9102 90.3284 13.3973 89.4429 13.1572C88.5575 12.9172 87.6195 12.962 86.7608 13.2855C85.902 13.609 85.1656 14.1949 84.655 14.9608C84.1443 15.7268 83.8851 16.6343 83.9138 17.556C83.9138 17.7955 84.0084 18.0252 84.1768 18.1946C84.3452 18.3639 84.5737 18.4591 84.8119 18.4591C85.0501 18.4591 85.2785 18.3639 85.4469 18.1946C85.6154 18.0252 85.71 17.7955 85.71 17.556V17.55Z" fill="#2D2FEE"/>
<path d="M85.3149 18.3808C85.8238 17.574 85.1772 16.689 84.3689 16.4662C83.6399 16.316 82.8839 16.3702 82.1835 16.6228C81.4863 16.8418 80.8482 17.2182 80.3179 17.7232C79.7876 18.2283 79.3792 18.8486 79.1239 19.5367C78.9103 20.1858 78.8457 20.875 78.9349 21.5528C79.0241 22.2306 79.2647 22.8792 79.6388 23.4501C80.5729 24.8348 81.9919 25.2201 83.5486 25.5031C85.3235 25.8106 87.0073 26.5142 88.4763 27.5621C88.6816 27.6814 88.9253 27.7148 89.1549 27.6552C89.3845 27.5955 89.5816 27.4475 89.7037 27.243C89.819 27.0342 89.8498 26.7887 89.7896 26.5577C89.7293 26.3266 89.5828 26.1278 89.3804 26.0028C88.0484 25.0512 86.5521 24.357 84.9676 23.9558C83.7223 23.6427 82.0757 23.721 81.2255 22.5891C80.8979 22.1506 80.7124 21.6212 80.6942 21.073C80.676 20.5248 80.826 19.9843 81.1237 19.5247C81.451 19.0474 81.9084 18.6752 82.4409 18.453C82.6968 18.3405 82.9667 18.2635 83.2433 18.2242C83.4169 18.2242 83.6085 18.2242 83.7761 18.2242C84.1653 18.152 83.6384 18.5493 83.7282 17.863L83.848 17.4054L83.7941 17.4897C83.1954 18.4771 84.7281 19.3802 85.3448 18.4048L85.3149 18.3808Z" fill="#2D2FEE"/>
<path d="M68.0531 91.8798C69.4444 86.8826 71.8773 82.2403 75.1901 78.2613C75.6567 77.5998 76.2944 77.0793 77.0342 76.7562C78.5969 76.2264 80.1716 77.4064 81.405 78.5082L85.4525 82.1205C87.8828 77.5759 91.4672 73.7598 95.8407 71.0607L97.4154 82.2951C97.5112 82.9694 97.6549 83.722 98.2177 84.1013C98.6374 84.3271 99.1228 84.3975 99.5888 84.3C104.469 83.6979 107.283 77.8399 112.097 76.8284C112.399 76.7233 112.723 76.6985 113.038 76.7565C113.353 76.8145 113.647 76.9534 113.893 77.1596C114.2 77.601 114.328 78.1435 114.252 78.6767L114.09 85.4378C113.94 86.3241 114.045 87.2349 114.392 88.0635C114.739 88.8921 115.313 89.604 116.048 90.1158L126.598 99.8872L115.048 101.38C114.294 101.477 113.33 101.79 113.312 102.584C113.343 102.928 113.482 103.252 113.707 103.512L117.389 108.792C111.312 109.674 105.381 111.377 99.7565 113.855C98.8735 114.147 98.106 114.714 97.5651 115.474C97.2071 116.28 97.0906 117.174 97.2298 118.045L98.1159 131.459L85.1472 130.171C84.3509 130.092 83.4587 130.038 82.848 130.556C82.2373 131.074 82.1415 131.995 82.0936 132.814L81.6446 140.905C81.6086 141.568 81.5188 142.338 80.968 142.711C80.4171 143.085 79.6328 142.862 79.0101 142.573C76.5142 141.407 74.4196 139.521 72.9927 137.154L61.449 149.888C60.5342 151.045 59.3956 152.004 58.102 152.706C56.7608 153.308 55.0245 153.278 54.0006 152.224C53.1564 151.351 52.9888 150.045 52.863 148.84L51.4979 135.481L36.1941 141.387L43.2413 127.028C43.3911 126.813 43.4891 126.567 43.5275 126.308C43.566 126.048 43.5438 125.784 43.4628 125.535C43.3079 125.332 43.1096 125.166 42.8827 125.051C42.6558 124.935 42.4059 124.872 42.1516 124.867L30.6258 122.964C29.2956 122.828 28.0075 122.418 26.8417 121.76C25.7281 121.031 24.9078 119.671 25.2251 118.37C25.5425 117.07 26.7519 116.323 27.8955 115.721C33.1295 112.975 38.8677 111.335 44.7561 110.905C44.0557 107.332 44.1333 103.649 44.9836 100.11C49.7137 100.652 54.4597 100.977 59.2217 101.085C56.9927 96.2267 55.4297 91.0864 54.5754 85.8051C59.1991 86.4799 63.4453 88.751 66.5862 92.229L68.0531 91.8798Z" fill="white"/>
<path d="M68.945 92.1207C70.1279 87.9143 72.0569 83.9574 74.6391 80.4407C75.2251 79.5598 75.9124 78.7515 76.6868 78.0325C77.5849 77.286 78.5548 77.5569 79.4709 78.1289C80.3962 78.7812 81.2672 79.5081 82.0754 80.3023L84.8416 82.7767C84.9397 82.8728 85.058 82.9454 85.1879 82.9891C85.3177 83.0327 85.4557 83.0464 85.5915 83.0291C85.7273 83.0117 85.8574 82.9637 85.9723 82.8888C86.0871 82.8138 86.1836 82.7138 86.2547 82.5961C88.6198 78.1955 92.0899 74.4945 96.3195 71.8614L95.0023 71.3196L95.9962 78.4178L96.4572 81.6689C96.583 82.6021 96.6368 83.6256 97.2535 84.3902C98.3552 85.7689 100.445 85.209 101.834 84.625C103.246 83.9739 104.552 83.1111 105.708 82.0663C106.851 81.103 107.935 80.0675 109.163 79.2065C109.726 78.7991 110.327 78.4482 110.959 78.159C111.432 77.9482 112.809 77.3221 113.246 77.8098C113.45 78.0325 113.348 78.7249 113.342 78.9838L113.306 80.7538L113.234 84.2999C113.198 86.4071 113.102 88.3096 114.599 89.9653C115.389 90.8503 116.329 91.6209 117.198 92.4217L120.054 95.0707L125.987 100.568L126.622 99.0262L120.263 99.839L117.162 100.23C116.204 100.301 115.252 100.436 114.312 100.634C112.665 101.073 112.001 102.488 112.971 103.957C114.168 105.763 115.425 107.479 116.653 109.237L117.192 107.913C112.176 108.642 107.256 109.928 102.522 111.748C101.391 112.187 100.259 112.645 99.1516 113.15C98.2044 113.511 97.3924 114.159 96.8284 115.005C96.3713 115.997 96.2171 117.103 96.3854 118.184C96.4732 119.524 96.561 120.865 96.6488 122.205L97.2476 131.447L98.1457 130.544L89.901 129.707L85.7757 129.298C84.7518 129.195 83.6382 129.039 82.6981 129.569C81.7581 130.098 81.3929 131.164 81.2791 132.218C81.1354 133.542 81.1175 134.897 81.0396 136.227L80.8121 140.442C80.8561 140.909 80.7884 141.379 80.6145 141.814C80.3032 142.248 79.5428 141.814 79.1835 141.628C76.9651 140.533 75.0978 138.832 73.7949 136.721C73.7243 136.603 73.6282 136.502 73.5136 136.427C73.399 136.351 73.269 136.303 73.1331 136.285C72.9973 136.267 72.8592 136.28 72.7291 136.323C72.599 136.366 72.4803 136.439 72.3818 136.534C68.5379 140.777 64.692 145.021 60.8441 149.268C59.5208 150.731 57.521 152.958 55.2937 152.031C54.2639 151.604 53.9945 150.424 53.8568 149.424C53.6711 148.052 53.5694 146.667 53.4257 145.294L52.4258 135.499C52.3719 134.975 51.8869 134.397 51.2881 134.632L35.9843 140.532L37.0022 141.857L42.6782 130.297C43.1333 129.364 43.6123 128.443 44.0494 127.504C44.3966 126.751 44.708 125.89 44.2649 125.095C44.0691 124.798 43.8102 124.549 43.5068 124.364C43.2035 124.18 42.8632 124.066 42.5106 124.03C41.4329 123.819 40.3372 123.668 39.2475 123.494L33.1942 122.488C31.398 122.187 29.1646 122.115 27.5301 121.152C26.0452 120.279 25.5782 118.581 26.9912 117.413C28.4042 116.245 30.2244 115.541 31.8231 114.89C35.9456 113.192 40.3075 112.154 44.7499 111.814C44.8873 111.811 45.0222 111.777 45.1447 111.714C45.2672 111.651 45.3741 111.562 45.4575 111.452C45.5408 111.342 45.5986 111.215 45.6264 111.079C45.6542 110.944 45.6513 110.804 45.6181 110.67C44.9625 107.255 45.0401 103.739 45.8456 100.357L44.9774 101.019C49.7075 101.557 54.4535 101.882 59.2155 101.994C59.372 101.99 59.5247 101.945 59.6591 101.864C59.7935 101.783 59.905 101.669 59.9831 101.533C60.0611 101.396 60.1031 101.242 60.105 101.085C60.1069 100.927 60.0686 100.772 59.9939 100.634C57.8074 95.8445 56.269 90.7824 55.4195 85.5823L54.3118 86.6961C58.7842 87.3389 62.8972 89.5195 65.9513 92.8672C66.0637 92.9801 66.2036 93.0612 66.3571 93.1025C66.5106 93.1437 66.6721 93.1435 66.8255 93.102L68.2984 92.7528C69.418 92.4879 68.945 90.748 67.8194 91.0129L66.3465 91.356L67.2207 91.5908C63.9627 88.012 59.5848 85.6622 54.8147 84.9321C54.6622 84.8957 54.503 84.8993 54.3522 84.9425C54.2015 84.9856 54.0642 85.067 53.9537 85.1788C53.8432 85.2905 53.763 85.4289 53.7209 85.5808C53.6787 85.7326 53.676 85.8927 53.7131 86.0459C54.5992 91.4026 56.1983 96.615 58.4671 101.543L59.2394 100.188C54.4814 100.076 49.7354 99.7507 45.0014 99.2129C44.8045 99.2123 44.6128 99.2768 44.456 99.3965C44.2991 99.5161 44.1857 99.6843 44.1332 99.8751C43.2638 103.573 43.1883 107.416 43.9117 111.146L44.7738 110.008C40.7142 110.304 36.7147 111.163 32.8888 112.56C30.994 113.249 29.1494 114.07 27.3684 115.017C25.9434 115.781 24.4945 116.877 24.3029 118.629C24.1113 120.381 25.2189 121.886 26.62 122.717C28.3444 123.729 30.4938 123.867 32.4218 124.186L38.7625 125.234C39.8222 125.408 40.882 125.565 41.9358 125.758C42.0915 125.788 42.6064 125.818 42.6902 125.968C42.8459 126.245 42.2232 127.136 42.0915 127.389L35.4155 140.929C35.1101 141.562 35.637 142.561 36.4334 142.254L51.7372 136.354L50.5996 135.481L51.5875 145.114C51.7432 146.661 51.8629 148.214 52.0785 149.756C52.1585 150.971 52.6682 152.118 53.5155 152.989C55.4554 154.729 58.2455 153.964 60.1016 152.501C61.1778 151.553 62.1787 150.523 63.0953 149.418L66.2747 145.908L73.6392 137.781L72.2261 137.6C73.4325 139.57 75.0709 141.236 77.0161 142.471C77.9262 143.043 79.0219 143.717 80.1235 143.771C80.6644 143.794 81.195 143.618 81.6168 143.277C82.0386 142.936 82.3229 142.453 82.4167 141.917C82.6176 140.626 82.7137 139.322 82.7041 138.015L82.9436 133.669C83.0035 132.585 82.8239 131.026 84.2609 130.983C85.5943 131.015 86.9243 131.133 88.2425 131.339L98.1157 132.32C98.3539 132.32 98.5824 132.225 98.7508 132.055C98.9192 131.886 99.0139 131.656 99.0139 131.417L98.5109 123.819L98.2654 120.092C98.1171 118.961 98.0671 117.819 98.1157 116.679C98.2235 115.649 98.96 115.179 99.8162 114.77C100.882 114.264 101.99 113.831 103.091 113.409C105.26 112.577 107.471 111.858 109.713 111.254C112.318 110.557 114.961 110.012 117.629 109.622C117.761 109.585 117.883 109.518 117.985 109.426C118.087 109.334 118.167 109.22 118.218 109.092C118.27 108.964 118.292 108.826 118.282 108.688C118.272 108.551 118.231 108.417 118.162 108.298L115.234 104.084C114.982 103.722 114.719 103.367 114.479 103C114.425 102.916 114.186 102.639 114.21 102.53C114.21 102.621 114.24 102.53 114.282 102.53C114.671 102.145 115.743 102.181 116.234 102.121L126.58 100.802C127.286 100.712 127.849 99.845 127.215 99.261L116.904 89.7064C116.193 89.168 115.61 88.477 115.198 87.6835C114.827 86.7322 114.982 85.5703 115 84.5769L115.066 81.3258C115.145 80.2096 115.155 79.0897 115.096 77.9723C114.659 73.7579 109.192 76.8585 107.444 78.2071C105.145 80.0133 103.031 82.572 100.092 83.2885C99.7079 83.4254 99.2965 83.4647 98.8941 83.4029C98.4331 83.2463 98.3971 82.6864 98.3253 82.259C98.1157 81.0187 97.972 79.7604 97.7984 78.5082L96.7147 70.8199C96.6776 70.6871 96.6107 70.5646 96.5192 70.4618C96.4277 70.359 96.314 70.2786 96.1868 70.2269C96.0597 70.1752 95.9224 70.1534 95.7855 70.1633C95.6487 70.1732 95.5159 70.2145 95.3974 70.2841C90.9034 73.0755 87.2113 76.9976 84.686 81.6629L86.099 81.4823L82.9017 78.6286C82.0326 77.7646 81.0684 77.0031 80.0277 76.3588C79.5188 76.0404 78.9455 75.8406 78.3498 75.7739C77.7541 75.7072 77.1511 75.7754 76.585 75.9735C75.4773 76.425 74.7169 77.4124 73.9984 78.3215C70.8731 82.264 68.5608 86.7934 67.1967 91.645C67.1657 91.7605 67.1575 91.8809 67.1728 91.9995C67.188 92.1181 67.2263 92.2325 67.2855 92.3362C67.3447 92.4399 67.4237 92.5309 67.5178 92.6039C67.612 92.677 67.7196 92.7306 67.8344 92.7618C67.9492 92.7931 68.069 92.8013 68.1869 92.7859C68.3048 92.7706 68.4186 92.7321 68.5218 92.6725C68.6249 92.613 68.7154 92.5336 68.788 92.4389C68.8606 92.3442 68.914 92.2361 68.945 92.1207Z" fill="#2D2FEE"/>
<path d="M48.2705 120.243C51.6352 124.873 55.4456 129.158 59.6466 133.036C60.5207 133.843 62.4547 133.681 62.6403 132.236L63.9755 122.242L60.9818 123.036L63.6342 125.18C64.4635 125.959 65.359 126.664 66.3106 127.287C66.8535 127.603 67.4983 127.693 68.1063 127.537C68.7143 127.38 69.237 126.99 69.5618 126.45C70.1006 125.469 69.8491 124.258 69.7653 123.205C69.422 118.734 69.0508 114.262 68.6517 109.791C68.6395 109.316 68.4464 108.863 68.1121 108.527C67.7779 108.191 67.328 107.997 66.8554 107.985C66.379 107.985 65.9222 108.175 65.5853 108.514C65.2485 108.853 65.0592 109.312 65.0592 109.791C65.2987 112.44 65.5262 115.093 65.7418 117.75C65.8495 119.027 65.9513 120.305 66.0471 121.585L66.2088 123.65C66.2088 123.945 66.2567 124.252 66.2747 124.535C66.2747 124.692 66.2747 124.848 66.3046 125.011C66.3046 124.927 66.3525 124.848 66.3705 124.764L67.0171 124.114C67.6158 123.68 68.3164 124.361 67.6757 123.837L67.2147 123.464L65.9454 122.44L63.5504 120.484C63.3212 120.265 63.0409 120.108 62.7353 120.027C62.4297 119.946 62.1087 119.943 61.8021 120.02C61.5003 120.099 61.2251 120.258 61.0051 120.481C60.785 120.703 60.6281 120.98 60.5507 121.284L59.2155 131.278L62.2092 130.484C58.2327 126.835 54.6229 122.802 51.4318 118.443C51.1803 118.04 50.7856 117.75 50.3284 117.63C49.8711 117.51 49.3857 117.571 48.971 117.798C48.561 118.041 48.2633 118.437 48.1432 118.899C48.0231 119.362 48.0904 119.854 48.3304 120.267L48.2705 120.243Z" fill="#2D2FEE"/>
<path d="M80.5009 96.2387L84.9017 101.278C86.2197 102.92 87.6502 104.467 89.1827 105.908C90.1047 106.696 91.3441 107.25 92.5057 106.588C93.5535 105.986 93.811 104.878 93.9127 103.764C94.0901 101.551 93.8379 99.3245 93.1703 97.208L90.9609 99.4296L99.2056 102.012C99.5877 102.119 99.994 102.095 100.361 101.944C100.728 101.794 101.036 101.526 101.235 101.182C102.672 99.0202 101.349 96.5578 100.271 94.559L96.6789 87.9906C95.5713 85.9556 92.4877 87.7738 93.5774 89.7967L96.5712 95.3356C97.0322 96.1785 97.5531 97.0154 97.9423 97.8944C98.0696 98.1911 98.1679 98.4996 98.2357 98.8155C98.2836 98.9961 98.2357 99.0925 98.0979 99.3273L100.128 98.4964L91.877 95.9076C91.5709 95.8226 91.2478 95.8208 90.9408 95.9023C90.6337 95.9838 90.3536 96.1457 90.129 96.3715C89.9045 96.5973 89.7435 96.879 89.6624 97.1877C89.5814 97.4965 89.5832 97.8213 89.6677 98.1292C90.142 99.6208 90.3666 101.181 90.3323 102.747C90.251 103.161 90.2249 103.584 90.2544 104.005C90.0089 103.451 91.7633 103.752 91.6794 103.301C91.6794 103.349 91.4938 103.144 91.4878 103.132C90.9789 102.53 90.2904 101.97 89.7575 101.374C87.4583 98.8516 85.2549 96.2327 83.0097 93.6559C82.6722 93.3166 82.2145 93.126 81.7373 93.126C81.2601 93.126 80.8024 93.3166 80.465 93.6559C80.1276 93.9952 79.938 94.4554 79.938 94.9353C79.938 95.4151 80.1276 95.8753 80.465 96.2146L80.5009 96.2387Z" fill="#2D2FEE"/>
<path d="M81.6653 115.552C84.4732 114.056 85.0035 109.53 82.8498 105.443C80.696 101.356 76.6738 99.2562 73.8659 100.752C71.058 102.249 70.5277 106.775 72.6815 110.861C74.8352 114.948 78.8574 117.048 81.6653 115.552Z" stroke="#2D2FEE" stroke-width="5" stroke-miterlimit="10" stroke-linecap="round"/>
<path d="M60.0659 93.4271C59.0949 92.3201 57.9501 91.3805 56.677 90.6456C55.4795 89.9954 54.0605 89.6643 52.9169 88.8756C52.3011 88.4432 51.7785 87.8902 51.3804 87.2498C50.9822 86.6095 50.7167 85.8949 50.5998 85.1489C50.4611 84.3456 50.5384 83.5196 50.8237 82.7564C51.1089 81.9933 51.5918 81.3206 52.2224 80.808C52.8736 80.3243 53.6772 80.0943 54.4841 80.1607C55.2911 80.2271 56.0468 80.5854 56.6111 81.1693L57.3117 80.6575C57.8493 79.4806 58.8034 78.547 59.988 78.0386C60.5785 77.7926 61.2202 77.6969 61.8562 77.7599C62.4922 77.8229 63.103 78.0427 63.6344 78.3998C65.1492 79.4835 65.5204 81.6569 65.0534 83.4571C64.5864 85.2572 63.4607 86.8045 62.4249 88.3518C61.3891 89.8991 60.4071 91.5848 60.2934 93.4452L60.0659 93.4271Z" fill="white"/>
<path d="M60.7006 92.789C59.458 91.3827 57.9419 90.2476 56.246 89.4536C54.5815 88.7371 52.905 88.1953 51.9889 86.5035C51.6001 85.8255 51.4122 85.0498 51.4472 84.268C51.4822 83.4861 51.7387 82.7306 52.1865 82.0904C52.4005 81.798 52.6749 81.5557 52.9908 81.38C53.3067 81.2043 53.6567 81.0994 54.0168 81.0725C54.3768 81.0456 54.7384 81.0974 55.0767 81.2243C55.4149 81.3511 55.7219 81.5501 55.9765 81.8075C56.1173 81.9485 56.3007 82.0387 56.4979 82.0637C56.6951 82.0888 56.895 82.0473 57.0662 81.9459L57.665 81.5004C57.9502 81.2568 58.1808 80.9552 58.3416 80.6154C58.8503 79.7299 59.6706 79.0682 60.6407 78.761C62.6166 78.2132 64.1793 79.6401 64.317 81.5847C64.4727 83.722 63.1974 85.5763 62.0657 87.2681C60.7844 89.1706 59.575 91.0972 59.3834 93.4452L60.2815 92.5421H60.054C58.9044 92.4518 58.9104 94.258 60.054 94.3483H60.2815C60.5187 94.3452 60.7454 94.249 60.9131 94.0803C61.0809 93.9116 61.1765 93.6837 61.1796 93.4452C61.4011 90.7661 63.4249 88.6829 64.7182 86.4613C65.8737 84.4746 66.6162 82.0784 65.754 79.8387C65.362 78.7794 64.5963 77.902 63.6026 77.3735C62.609 76.8451 61.4567 76.7025 60.3653 76.9729C59.259 77.2387 58.2628 77.8448 57.5153 78.7069C57.3205 78.9331 57.1386 79.1703 56.9704 79.4173C56.9165 79.4956 56.4435 80.3384 56.8148 79.8989C56.609 80.0849 56.3842 80.2484 56.1442 80.3866L57.2339 80.5311C56.5497 79.8345 55.6488 79.3948 54.6813 79.2852C53.7138 79.1756 52.7381 79.4029 51.9171 79.929C51.0806 80.5191 50.4282 81.3361 50.0359 82.2849C49.6437 83.2336 49.5278 84.2749 49.7017 85.2873C49.869 86.3505 50.2933 87.3561 50.9375 88.2159C51.5816 89.0756 52.4258 89.7632 53.3959 90.2182C54.4318 90.7239 55.5514 91.049 56.5453 91.633C57.6108 92.3106 58.5762 93.1355 59.4133 94.0834C60.2336 94.9082 61.5029 93.6318 60.7006 92.789Z" fill="#2D2FEE"/>
<path d="M60.91 65.4134C65.1141 64.8056 69.3791 64.7509 73.5973 65.2509C76.9622 65.6181 81.2792 65.4616 82.9676 61.9094C83.4646 60.8619 81.9138 59.9467 81.4169 60.9943C79.7703 64.4622 75.184 63.5892 72.1484 63.2942C68.2424 62.9275 64.3061 63.0529 60.431 63.6674C59.2934 63.8481 59.7784 65.588 60.91 65.4134Z" fill="#2D2FEE"/>
</g>
<defs>
<clipPath id="clip0">
<rect width="177" height="154" fill="white"/>
</clipPath>
</defs>
</svg>
