<svg width="196" height="158" viewBox="0 0 196 158" fill="none" xmlns="http://www.w3.org/2000/svg">
<g clip-path="url(#clip0)">
<path d="M54.2232 135.152L71.2933 110.233L95.1592 116.585L118.145 84.3627L87.615 16.3123L66.677 44.3019L41.0868 34.1091L20.4961 59.9614L54.2232 135.152Z" fill="white" stroke="#2D2FEE" stroke-width="2" stroke-linecap="round" stroke-linejoin="round"/>
<path d="M42 37.1573L69 105.157" stroke="#2D2FEE" stroke-width="2" stroke-linecap="round" stroke-linejoin="round"/>
<path d="M68.3945 48.143L92.2544 108.65" stroke="#2D2FEE" stroke-width="2" stroke-linecap="round" stroke-linejoin="round"/>
<path d="M33.4595 74.8683C33.5366 74.2461 33.496 73.6149 33.3398 73.0079C33.2328 72.3139 33.1649 71.6145 33.1362 70.9128C33.081 69.5595 33.1613 68.2041 33.3757 66.867C33.5963 65.5462 33.9084 64.2426 34.3097 62.9656C34.4464 62.4048 34.6685 61.8687 34.9683 61.3762C35.3298 60.9317 35.8126 60.6031 36.3574 60.431C37.9342 59.8175 39.3468 58.8424 40.4828 57.5832C41.4481 56.4012 42.5031 55.2962 43.6381 54.278C44.1774 53.8265 44.818 53.5138 45.5044 53.3669C46.1908 53.2201 46.9024 53.2435 47.5778 53.4351C48.6973 53.8123 49.7623 54.3366 50.7452 54.9944C51.775 55.5965 52.8049 56.1985 53.8107 56.8006C55.8848 58.0302 57.8045 59.5058 59.5287 61.1956C61.2792 63.0963 62.7182 65.2646 63.7918 67.6195C66.5926 73.3197 69.0343 79.1913 71.1024 85.1996L72.4196 84.1821C69.166 82.5786 66.279 80.3132 63.9415 77.5294C61.774 74.9345 60.1754 71.0693 56.4572 70.4612C54.661 70.1723 53.1761 70.9369 51.9127 72.147C50.6494 73.3571 49.5657 74.6034 48.0987 75.5546C45.164 77.4246 41.7173 78.3158 38.2494 78.1013C37.1298 78.0592 35.6629 78.1495 34.7288 77.3969C34.2778 76.987 33.9518 76.4567 33.7888 75.8677C33.6571 75.4402 33.6032 74.8924 33.4954 74.3866C33.2559 73.2488 31.5256 73.7304 31.7651 74.8683C31.807 75.0609 31.8309 75.2596 31.8908 75.4703C31.8908 75.5546 31.8908 75.8195 31.8908 75.4703C31.8908 75.1211 31.8549 75.5908 31.8908 75.6871C32.0083 76.4828 32.3143 77.2386 32.7829 77.8906C33.1111 78.3667 33.5307 78.7717 34.0171 79.082C34.5035 79.3922 35.0469 79.6012 35.615 79.6968C38.8262 80.2782 42.132 80.0254 45.2188 78.9623C46.8863 78.38 48.4568 77.5478 49.877 76.4938C50.587 75.9707 51.2557 75.393 51.8768 74.7659C52.4857 74.0623 53.1526 73.4118 53.8706 72.8213C57.3972 70.2746 60.1873 75.6209 61.8997 77.8605C64.457 81.1843 67.733 83.8793 71.4796 85.7414C72.1203 86.0605 73.0723 85.5187 72.7968 84.7179C70.8454 79.0623 68.5765 73.5225 66.0011 68.1253C64.8036 65.5545 63.4864 63.0018 61.6123 60.8404C59.9182 58.9776 57.9782 57.357 55.8465 56.0239C54.7867 55.3255 53.697 54.6693 52.5953 54.0311C51.5276 53.3554 50.4243 52.7384 49.2902 52.1828C48.4549 51.7715 47.5413 51.5457 46.6115 51.5208C45.6818 51.4959 44.7575 51.6724 43.9016 52.0383C40.9079 53.4291 39.6505 56.9571 36.7167 58.396C35.4892 58.9981 34.2439 59.281 33.4475 60.5092C32.6512 61.7374 32.3099 63.3991 31.9866 64.82C31.6378 66.3481 31.4373 67.9067 31.3879 69.4739C31.3639 70.2874 31.3879 71.1015 31.4597 71.9122C31.4597 72.2674 31.5316 72.6226 31.5855 72.9718C31.7145 73.4467 31.7809 73.9365 31.783 74.4288C31.5376 75.5245 33.2679 76.0062 33.4595 74.8683Z" fill="#2D2FEE"/>
<path d="M81.3578 108.108C79.4658 104.495 80.9268 100.45 83.8845 97.921C85.3574 96.6627 87.0698 95.7235 88.5487 94.4592C89.9493 93.2611 91.042 91.7411 91.734 90.0281C93.165 86.5361 93.0393 82.6228 92.5184 78.9563C92.1951 76.6504 91.7101 74.3746 91.4227 72.0687C91.1592 69.9435 90.9617 67.6255 91.4227 65.5244C91.728 64.1758 92.6202 62.2371 94.3266 62.7609C96.033 63.2847 97.0868 65.4341 97.919 66.8609C100.104 70.498 101.912 74.3514 103.314 78.3602C104.735 82.3738 105.711 86.5332 106.224 90.7626C106.439 92.7072 106.517 94.8024 105.769 96.6507C105.125 98.1457 103.969 99.359 102.511 100.07C99.2602 101.786 95.4223 101.937 92.1711 103.683C90.2013 104.736 88.6745 106.404 86.8363 107.644C85.1359 108.794 82.9086 109.45 81.2261 107.915C80.3759 107.132 79.1006 108.409 79.9568 109.198C80.6931 109.872 81.5974 110.334 82.5736 110.533C83.5498 110.732 84.5615 110.662 85.5011 110.329C87.5428 109.667 89.1355 108.144 90.776 106.819C92.2891 105.596 94.0234 104.678 95.8833 104.116C97.6197 103.574 99.3979 103.195 101.122 102.599C102.755 102.1 104.262 101.254 105.541 100.119C106.966 98.6957 107.853 96.8179 108.05 94.8084C108.236 92.6158 108.107 90.4076 107.667 88.252C107.287 85.9458 106.782 83.6626 106.152 81.4126C104.899 76.9644 103.172 72.665 101.003 68.5888C100.025 66.5761 98.8407 64.6713 97.47 62.9054C96.2725 61.4906 94.4763 60.3708 92.5663 61.0993C90.8539 61.7675 89.9797 63.6219 89.6564 65.3136C89.2861 67.731 89.3023 70.1923 89.7043 72.6046C90.303 77.0839 91.5664 81.5812 90.9018 86.1267C90.6714 88.1191 89.9308 90.0173 88.7523 91.6356C87.459 93.3033 85.6029 94.3569 83.9264 95.579C80.5555 98.0354 78.0947 101.774 78.8012 106.115C78.9748 107.12 79.3105 108.09 79.7951 108.987C80.352 110.046 81.9027 109.137 81.3578 108.108Z" fill="#2D2FEE"/>
<path d="M79.9514 49.3893C73.964 42.9774 69.9105 38.9978 64.4799 32.0862C62.9531 30.1415 60.6839 26.5472 61.091 23.0553C61.3904 20.4906 63.7075 17.5706 65.9169 16.24C67.8846 15.0882 70.1381 14.5243 72.4132 14.6145C76.0057 14.759 79.1072 18.1666 80.1969 21.6284C81.2866 25.0903 80.8615 28.8531 80.5861 32.4655C80.143 38.2228 80.089 44.0038 80.4244 49.7686L79.9514 49.3893Z" fill="white"/>
<path d="M80.5863 48.7511C76.916 44.8197 73.1499 40.9725 69.6233 36.9086C67.7875 34.8906 66.0664 32.77 64.4681 30.5569C63.0371 28.4919 61.7918 26.0114 61.9534 23.4286C62.1091 21.0204 63.9772 18.7025 65.8452 17.3719C67.9075 15.9149 70.4309 15.272 72.9343 15.5657C75.3293 15.933 77.2573 17.8174 78.4248 19.8403C79.8618 22.3449 80.0773 25.2588 79.9755 28.1005C79.8498 31.6346 79.4487 35.1566 79.3768 38.7028C79.273 42.3833 79.3289 46.0639 79.5445 49.7445L80.8976 48.9618L80.4246 48.6066C79.5025 47.9022 78.6284 49.4735 79.5205 50.1659L79.9875 50.5211C80.1241 50.5997 80.2787 50.6411 80.4361 50.6412C80.5935 50.6413 80.7482 50.6001 80.8848 50.5217C81.0215 50.4432 81.1355 50.3303 81.2154 50.194C81.2954 50.0576 81.3385 49.9027 81.3407 49.7445C81.1371 46.1683 81.0792 42.586 81.167 38.9978C81.2509 35.5901 81.5921 32.2066 81.7658 28.7989C81.9215 25.6923 81.7658 22.4713 80.3707 19.6296C79.2283 17.1923 77.2333 15.2634 74.7665 14.2111C72.1799 13.2057 69.0844 13.7776 66.6236 14.8794C64.2061 16.013 62.2428 17.9383 61.0553 20.34C58.325 25.8669 62.5821 31.2252 65.9291 35.3011C70.1322 40.4307 74.7725 45.1749 79.3169 50.0274C80.1073 50.8763 81.3586 49.6 80.5863 48.7511Z" fill="#2D2FEE"/>
<path d="M71.4395 31.0506C74.4155 31.0506 76.8281 28.6247 76.8281 25.6321C76.8281 22.6396 74.4155 20.2136 71.4395 20.2136C68.4634 20.2136 66.0508 22.6396 66.0508 25.6321C66.0508 28.6247 68.4634 31.0506 71.4395 31.0506Z" fill="white" stroke="#2D2FEE" stroke-width="2" stroke-linecap="round" stroke-linejoin="round"/>
<path d="M150.604 57.3304C152.756 58.3884 154.797 59.6633 156.693 61.1354C158.358 62.4298 160.01 64.0855 160.172 66.1866C160.333 68.2878 158.04 70.4974 156.202 69.4799C158.178 70.9067 160.393 72.8695 159.986 75.2837C159.507 78.2037 155.795 79.0405 152.837 79.2091L148.047 79.486C149.123 80.8794 149.747 82.572 149.834 84.334C149.921 86.096 149.466 87.8422 148.532 89.3357C148.095 90.0556 147.475 90.6456 146.736 91.0455C145.882 91.387 144.966 91.5449 144.048 91.5091C140.803 91.5994 137.533 91.6958 134.33 91.1238C124.511 89.3839 116.865 81.7979 110.213 74.3324C109.333 73.3451 108.417 72.3156 107.165 71.864C105.716 71.3402 104.118 71.7015 102.609 71.9965C93.4087 73.7621 83.9019 72.9285 75.1445 69.5882L75.384 68.7273C75.9828 64.7537 79.8506 62.1047 83.6347 60.8283C87.4187 59.552 91.5381 59.0222 94.915 56.8728C99.1421 54.1997 101.501 49.4314 104.95 45.7829C108.27 42.3702 112.496 39.9885 117.124 38.9211C121.752 37.8538 126.587 38.1458 131.055 39.7624" fill="white"/>
<path d="M150.156 58.1131C152.922 59.4858 155.921 61.1896 157.987 63.5316C158.801 64.4587 159.592 65.8314 159.155 67.1078C158.837 68.041 157.73 69.221 156.658 68.6852C156.453 68.5748 156.213 68.5487 155.989 68.6123C155.766 68.676 155.575 68.8244 155.458 69.0265C155.341 69.2285 155.306 69.4683 155.361 69.6955C155.417 69.9227 155.557 70.1195 155.754 70.2445C157.005 71.1596 158.49 72.2975 158.993 73.8568C159.184 74.4493 159.165 75.0899 158.94 75.6702C158.716 76.2505 158.299 76.7349 157.76 77.0417C156.602 77.7227 155.306 78.1341 153.97 78.2458C152.018 78.4806 150.024 78.5047 148.06 78.6191C147.885 78.6246 147.715 78.6809 147.571 78.781C147.427 78.8812 147.315 79.021 147.248 79.1837C147.181 79.3464 147.162 79.5251 147.193 79.6983C147.225 79.8716 147.305 80.032 147.425 80.1604C148.186 81.1805 148.685 82.3733 148.878 83.6334C149.071 84.8934 148.953 86.182 148.533 87.3851C148.156 88.4989 147.413 89.7933 146.3 90.3171C145.626 90.5671 144.91 90.6817 144.192 90.6542C143.342 90.6542 142.486 90.7024 141.629 90.7204C138.473 90.8425 135.315 90.5079 132.253 89.7271C129.608 88.9664 127.085 87.8268 124.763 86.3435C120.003 83.3693 115.979 79.3476 112.189 75.2175C110.321 73.1645 108.597 70.7322 105.555 70.696C103.981 70.696 102.418 71.1355 100.873 71.3884C99.3284 71.6413 97.7178 71.8159 96.1311 71.9122C89.0611 72.3394 81.9812 71.2602 75.3548 68.7454L75.9535 69.8592C76.1391 69.1969 76.2529 68.5166 76.4624 67.8664C76.7858 66.9244 77.3018 66.061 77.9773 65.3317C79.4348 63.8113 81.2244 62.6528 83.2043 61.9482C87.7367 60.2203 92.7003 59.8349 96.634 56.7404C100.262 53.8866 102.448 49.6843 105.615 46.373C108.63 43.2674 112.441 41.0625 116.626 40.0032C121.316 38.7485 126.277 38.9755 130.834 40.6534C131.924 41.0628 132.391 39.3169 131.313 38.9135C122.883 35.7587 112.938 37.6552 106.1 43.4951C102.508 46.5716 100.286 50.8703 96.9214 54.1636C95.1503 55.8724 93.0113 57.1476 90.6706 57.8903C88.2097 58.7151 85.6531 59.2028 83.2102 60.0758C80.8822 60.8364 78.7597 62.1261 77.0073 63.8446C76.1697 64.6986 75.4994 65.7035 75.0314 66.8068C74.7371 67.6549 74.4912 68.5193 74.295 69.3956C74.2402 69.6268 74.2746 69.8703 74.3913 70.077C74.5079 70.2836 74.6982 70.4382 74.9237 70.5094C81.1499 72.8623 87.7694 73.9846 94.4187 73.8147C97.7067 73.631 100.979 73.2288 104.214 72.6106C104.983 72.4341 105.783 72.4558 106.541 72.6737C107.299 72.8916 107.989 73.2986 108.549 73.8568C109.609 74.8803 110.543 76.0363 111.543 77.12C115.506 81.4187 119.811 85.5488 124.895 88.5169C127.402 89.9952 130.114 91.0889 132.942 91.762C136.265 92.5206 139.678 92.5266 143.066 92.4363C144.773 92.3942 146.557 92.4363 147.964 91.3285C149.125 90.3213 149.959 88.9877 150.359 87.4994C150.785 86.0277 150.856 84.475 150.566 82.9703C150.275 81.4656 149.632 80.0523 148.689 78.8479L148.054 80.3891C150.369 80.3403 152.679 80.1675 154.975 79.8714C156.651 79.6839 158.236 79.0056 159.532 77.9207C160.16 77.3257 160.601 76.5586 160.8 75.7144C160.999 74.8701 160.947 73.9856 160.651 73.1705C159.945 71.2379 158.257 69.8712 156.652 68.6972L155.748 70.2565C156.48 70.6021 157.309 70.6793 158.092 70.4748C158.875 70.2703 159.562 69.797 160.035 69.1367C160.588 68.4489 160.93 67.6143 161.019 66.7344C161.108 65.8546 160.941 64.9677 160.538 64.1818C159.741 62.4358 158.215 61.1715 156.718 60.0336C154.94 58.7008 153.044 57.5359 151.054 56.5537C150.024 56.042 149.108 57.5953 150.15 58.1131H150.156Z" fill="#2D2FEE"/>
<path d="M156.751 62.0084C165.858 64.5249 176.042 61.6471 183.203 55.6567C184.179 54.8379 185.287 53.9468 185.742 52.7126C185.979 52.1276 185.998 51.4759 185.794 50.8782C185.591 50.2804 185.179 49.7771 184.634 49.4615L184.425 51.1111C186.766 50.5813 189.251 50.9125 191.55 50.1719C192.496 49.9002 193.366 49.412 194.093 48.7456C194.82 48.0793 195.384 47.2528 195.741 46.3308C195.998 45.4375 195.955 44.4837 195.617 43.618C195.279 42.7522 194.666 42.0232 193.873 41.5445C191.969 40.2621 189.598 40.4848 187.442 40.7738L187.897 42.4536C189.695 41.4068 191.374 40.1652 192.903 38.7509C194.22 37.5468 195.777 36.0537 195.986 34.1632C196.196 32.2728 194.627 30.9904 193.029 30.292C191.315 29.6149 189.478 29.3132 187.64 29.407C185.592 29.4371 183.533 29.6599 181.491 29.8345C179.449 30.0091 177.389 30.1897 175.342 30.4365C171.265 30.8493 167.213 31.4864 163.205 32.345C158.622 33.3301 154.169 34.8516 149.937 36.8785C148.895 37.3842 149.805 38.9436 150.841 38.4378C157.595 35.1506 165.007 33.5371 172.396 32.5919C176.126 32.1102 179.868 31.7911 183.616 31.4901C186.748 31.2373 190.873 30.5449 193.549 32.6942C195.28 34.0729 193.064 36.132 192.011 37.1494C190.492 38.6087 188.803 39.8781 186.981 40.9304C186.275 41.3458 186.514 42.7365 187.436 42.6161C189.149 42.3873 191.119 42.0622 192.693 42.9713C193.975 43.7119 194.531 45.1026 193.741 46.4332C191.807 49.6903 187.059 48.7029 183.946 49.4013C183.778 49.452 183.628 49.5506 183.514 49.685C183.4 49.8194 183.328 49.984 183.305 50.159C183.282 50.3339 183.31 50.5118 183.386 50.6711C183.461 50.8304 183.581 50.9644 183.73 51.0569C185.425 51.9299 181.611 54.6693 180.958 55.181C179.326 56.4008 177.577 57.4536 175.737 58.3238C172.042 60.0912 168.015 61.0476 163.924 61.1294C161.664 61.1718 159.41 60.888 157.23 60.2865C157.007 60.2455 156.778 60.2898 156.586 60.4106C156.395 60.5313 156.255 60.7198 156.195 60.9389C156.135 61.158 156.159 61.3918 156.262 61.5942C156.365 61.7966 156.539 61.953 156.751 62.0324V62.0084Z" fill="#2D2FEE"/>
<path d="M124.51 38.6787C128.755 33.8141 130.342 27.4744 132.294 21.4599C133.35 18.0753 134.711 14.7946 136.359 11.6584C137.171 10.0928 138.081 8.58057 139.084 7.13093C139.754 6.17968 141.155 4.55413 142.497 5.01169C143.694 5.40905 143.694 6.98041 143.694 8.02197C143.754 9.46691 143.79 10.9299 144.49 12.2364C144.611 12.4339 144.802 12.5775 145.025 12.638C145.247 12.6984 145.485 12.671 145.688 12.5615C146.901 11.6346 147.988 10.5517 148.921 9.34047C149.801 8.32902 150.861 7.17909 152.292 7.13093C152.671 7.11726 153.049 7.17989 153.404 7.31514C153.759 7.45039 154.083 7.65554 154.358 7.91855C154.633 8.18156 154.853 8.49713 155.005 8.84676C155.157 9.19639 155.238 9.57302 155.244 9.95457C155.244 11.9955 153.448 12.5494 152.064 13.5669C150.867 14.4399 149.927 16.0474 150.592 17.5345C151.424 19.4069 153.861 18.9312 155.453 18.6483C157.148 18.3412 158.968 17.8235 160.644 18.5218C162.506 19.2925 162.489 21.1287 161.728 22.7362C160.776 24.7772 159.399 26.6677 158.225 28.5822L154.405 34.7894C153.807 35.7828 155.346 36.6859 155.956 35.7045L159.633 29.7261C160.794 27.8296 162.087 25.9633 163.111 23.9825C163.997 22.2726 164.566 20.1594 163.381 18.4375C162.387 16.9866 160.573 16.3725 158.884 16.3424C157.935 16.3564 156.99 16.4674 156.064 16.6735C155.058 16.8602 153.669 17.3538 152.639 17.0468C151.825 16.806 152.256 15.8427 152.639 15.3911C153.286 14.6687 154.328 14.3195 155.1 13.7415C158.202 11.4055 157.291 6.32417 153.436 5.42711C151.591 4.99965 149.891 5.78232 148.568 7.04664C147.245 8.31096 146.287 9.94855 144.766 10.9781L145.993 11.3032C144.796 9.09363 146.185 6.05325 144.287 4.1086C143.757 3.59202 143.074 3.26319 142.341 3.17193C141.609 3.08068 140.867 3.23196 140.227 3.60288C138.73 4.37351 137.707 5.8064 136.82 7.21522C134.764 10.4553 133.049 13.9015 131.701 17.4983C130.504 20.7133 129.606 24.0367 128.504 27.2938C127.277 30.9061 125.738 34.5185 123.199 37.4264C122.439 38.2934 123.708 39.5757 124.468 38.7028L124.51 38.6787Z" fill="#2D2FEE"/>
<path d="M109.128 50.0094C105.942 50.5031 104.859 54.0251 105.236 56.8247C105.388 58.1899 105.905 59.4882 106.733 60.5815C107.652 61.6546 108.93 62.3526 110.325 62.5442C113.265 63.08 116.588 62.5021 118.438 59.9252C119.226 58.7369 119.694 57.3639 119.797 55.9396C120.031 54.4784 119.688 52.983 118.839 51.7734C117.882 50.5529 116.534 49.7023 115.025 49.3652C113.409 48.9738 111.319 48.7631 109.762 49.4314C109.565 49.5518 109.421 49.7441 109.361 49.9683C109.3 50.1926 109.329 50.4315 109.439 50.6355C109.562 50.8308 109.753 50.9726 109.975 51.0329C110.196 51.0931 110.433 51.0673 110.636 50.9606C111.182 50.8081 111.751 50.7631 112.313 50.8282C112.905 50.8322 113.496 50.8846 114.079 50.9847C115.123 51.1402 116.101 51.5912 116.899 52.2852C118.48 53.7602 118.234 56.3611 117.342 58.1733C116.324 60.2323 114.073 60.9909 111.906 60.8885C110.768 60.9015 109.65 60.586 108.685 59.9794C107.916 59.3391 107.381 58.4602 107.164 57.4809C106.565 55.3376 106.906 52.1226 109.559 51.7072C109.782 51.6349 109.969 51.4787 110.081 51.2712C110.192 51.0637 110.22 50.8208 110.157 50.5934C110.083 50.3705 109.927 50.1844 109.722 50.0726C109.516 49.9609 109.276 49.9318 109.05 49.9913L109.128 50.0094Z" fill="#2D2FEE"/>
<path d="M105.983 55.3797C107.061 56.7644 109.055 56.9992 110.6 56.343C111.193 56.0968 111.729 55.7273 112.171 55.2587C112.613 54.7902 112.951 54.233 113.164 53.6238C113.377 53.0146 113.46 52.367 113.407 51.7234C113.354 51.0798 113.167 50.4547 112.857 49.889C112.8 49.782 112.722 49.6876 112.628 49.6116C112.534 49.5355 112.426 49.4793 112.31 49.4463C112.193 49.4132 112.072 49.4041 111.952 49.4193C111.832 49.4346 111.717 49.474 111.613 49.5351C111.509 49.5962 111.418 49.6778 111.345 49.7751C111.273 49.8723 111.221 49.9832 111.193 50.1011C111.164 50.219 111.159 50.3414 111.179 50.4612C111.198 50.5809 111.242 50.6955 111.306 50.7981C111.306 50.7981 111.462 51.1292 111.396 50.9727C111.432 51.0509 111.456 51.1352 111.486 51.2135C111.548 51.4097 111.592 51.6112 111.617 51.8155C111.617 51.653 111.617 51.8757 111.617 51.9179C111.617 51.96 111.617 52.1226 111.617 52.2249V52.526C111.617 52.3453 111.617 52.6042 111.617 52.6283C111.571 52.9649 111.453 53.2874 111.27 53.5735C111.222 53.6594 111.168 53.7419 111.109 53.8204C111.21 53.6759 111.055 53.8806 111.043 53.8926C110.918 54.0375 110.781 54.1724 110.636 54.296C110.48 54.4285 110.707 54.2599 110.552 54.3562L110.276 54.5368L110.055 54.6512C110.013 54.6512 109.821 54.7475 109.971 54.6934C109.792 54.7613 109.607 54.8157 109.42 54.8559L109.175 54.9041C109.378 54.9041 109.043 54.9041 109.007 54.9041C108.923 54.9101 108.839 54.9101 108.755 54.9041C108.755 54.9041 108.462 54.9041 108.6 54.9041C108.468 54.8832 108.338 54.8531 108.211 54.8138C108.211 54.8138 107.923 54.6934 108.079 54.7716C107.99 54.7294 107.904 54.6811 107.821 54.6271C107.786 54.6271 107.564 54.4405 107.69 54.5489C107.542 54.4163 107.406 54.2713 107.283 54.1154C107.113 53.9477 106.885 53.8537 106.648 53.8537C106.41 53.8537 106.182 53.9477 106.013 54.1154C105.852 54.2893 105.762 54.5185 105.762 54.7566C105.762 54.9946 105.852 55.2238 106.013 55.3978L105.983 55.3797Z" fill="#2D2FEE"/>
<path d="M132.505 74.5372C134.331 76.3704 136.391 77.9516 138.63 79.2392C138.834 79.3459 139.07 79.3717 139.292 79.3115C139.514 79.2513 139.705 79.1094 139.828 78.9141C139.937 78.7098 139.964 78.4713 139.904 78.2475C139.844 78.0237 139.701 77.8314 139.505 77.71C137.397 76.5026 135.46 75.0163 133.745 73.2909C133.575 73.1314 133.349 73.0445 133.117 73.0487C132.884 73.0528 132.662 73.1476 132.497 73.313C132.333 73.4785 132.239 73.7017 132.235 73.9357C132.23 74.1696 132.317 74.3961 132.475 74.5673L132.505 74.5372Z" fill="#2D2FEE"/>
<path d="M141.863 69.8592C141.988 69.811 142.12 69.793 142.246 69.7508C142.372 69.7087 142.078 69.7508 142.246 69.7508H142.461H142.635C142.743 69.7508 142.473 69.7147 142.635 69.7508C142.797 69.7869 142.898 69.805 143.024 69.8472C143.15 69.8893 143.288 69.9314 143.419 69.9796L143.593 70.0458C143.695 70.088 143.473 69.9917 143.629 70.0458L144.419 70.4071C145.503 70.9128 146.742 71.4185 147.934 70.9549C148.155 70.879 148.339 70.7222 148.45 70.5158C148.561 70.3093 148.59 70.0685 148.533 69.8411C148.465 69.6152 148.311 69.4254 148.105 69.3127C147.898 69.2 147.656 69.1735 147.431 69.2391C147.305 69.2872 147.173 69.3053 147.054 69.3535C146.934 69.4016 147.215 69.3535 147.054 69.3535C146.982 69.3535 146.91 69.3535 146.844 69.3535C146.778 69.3535 146.724 69.3535 146.665 69.3535C146.605 69.3535 146.826 69.3896 146.665 69.3535L146.275 69.2571C146.144 69.221 146.012 69.1729 145.886 69.1247L145.707 69.0585C145.611 69.0163 145.826 69.1126 145.671 69.0585L144.886 68.6972C143.797 68.1915 142.563 67.6858 141.366 68.1433C141.145 68.2181 140.961 68.3737 140.85 68.5791C140.739 68.7846 140.709 69.0246 140.767 69.2511C140.836 69.4761 140.99 69.665 141.196 69.7775C141.402 69.8899 141.643 69.9171 141.869 69.8532L141.863 69.8592Z" fill="#2D2FEE"/>
<path d="M138.12 26.7218C139.319 25.2578 140.316 23.6377 141.084 21.9054C141.196 21.6959 141.225 21.4514 141.165 21.2212C141.105 20.9909 140.961 20.7922 140.76 20.6651C140.554 20.5464 140.31 20.5139 140.08 20.5747C139.851 20.6355 139.654 20.7848 139.533 20.9903C139.176 21.8201 138.764 22.6247 138.3 23.3985C138.072 23.7778 137.833 24.145 137.581 24.5063C137.455 24.6869 137.324 24.8675 137.192 25.0421L137.096 25.1745C137.006 25.2889 137.174 25.0782 137.096 25.1745L136.863 25.4696C136.7 25.6418 136.609 25.8702 136.609 26.1077C136.609 26.3452 136.7 26.5736 136.863 26.7459C137.032 26.9121 137.26 27.0052 137.497 27.0052C137.734 27.0052 137.962 26.9121 138.132 26.7459L138.12 26.7218Z" fill="#2D2FEE"/>
<path d="M144.658 26.7519L147.699 23.5068C147.869 23.3376 147.964 23.1077 147.964 22.8678C147.965 22.6279 147.871 22.3975 147.702 22.2275C147.534 22.0574 147.305 21.9616 147.067 21.961C146.828 21.9604 146.599 22.0552 146.43 22.2245L143.382 25.4695C143.289 25.5513 143.212 25.6516 143.159 25.7642C143.105 25.8769 143.075 25.9994 143.071 26.1242C143.066 26.249 143.088 26.3733 143.133 26.4895C143.179 26.6057 143.247 26.7112 143.335 26.7995C143.423 26.8878 143.528 26.957 143.643 27.0027C143.759 27.0484 143.883 27.0697 144.007 27.0652C144.131 27.0607 144.253 27.0306 144.365 26.9767C144.477 26.9228 144.576 26.8463 144.658 26.7519Z" fill="#2D2FEE"/>
<path d="M104.709 20.7073C104.685 20.062 104.9 19.4309 105.312 18.9351C105.723 18.4394 106.302 18.114 106.938 18.0214C107.574 17.9288 108.221 18.0756 108.755 18.4336C109.29 18.7915 109.674 19.3354 109.834 19.9608C110.241 21.484 109.582 23.1095 108.954 24.4702C108.217 26.0536 107.463 27.6008 107.313 29.3709C107.217 30.5268 109.013 30.5208 109.109 29.3709C109.289 27.2517 110.636 25.4455 111.295 23.4707C111.893 21.5923 112.013 19.3828 110.696 17.7813C110.115 17.0676 109.327 16.5546 108.441 16.3146C107.556 16.0745 106.618 16.1194 105.759 16.4429C104.901 16.7664 104.164 17.3522 103.653 18.1182C103.143 18.8841 102.884 19.7917 102.912 20.7133C102.912 20.9528 103.007 21.1825 103.175 21.3519C103.344 21.5213 103.572 21.6164 103.81 21.6164C104.049 21.6164 104.277 21.5213 104.445 21.3519C104.614 21.1825 104.709 20.9528 104.709 20.7133V20.7073Z" fill="#2D2FEE"/>
<path d="M104.313 21.5381C104.822 20.7314 104.176 19.8464 103.367 19.6236C102.638 19.4734 101.882 19.5275 101.182 19.7801C100.485 19.9991 99.8467 20.3756 99.3164 20.8806C98.7861 21.3857 98.3777 22.006 98.1225 22.6941C97.9089 23.3431 97.8443 24.0324 97.9334 24.7102C98.0226 25.3879 98.2633 26.0366 98.6374 26.6075C99.5714 27.9922 100.99 28.3775 102.547 28.6605C104.322 28.968 106.006 29.6716 107.475 30.7195C107.68 30.8388 107.924 30.8722 108.153 30.8125C108.383 30.7528 108.58 30.6048 108.702 30.4004C108.818 30.1916 108.848 29.9461 108.788 29.715C108.728 29.484 108.581 29.2852 108.379 29.1602C107.047 28.2086 105.551 27.5144 103.966 27.1132C102.721 26.8001 101.074 26.8784 100.224 25.7465C99.8964 25.3079 99.711 24.7786 99.6928 24.2304C99.6745 23.6822 99.8245 23.1416 100.122 22.682C100.45 22.2047 100.907 21.8326 101.439 21.6104C101.695 21.4979 101.965 21.4209 102.242 21.3816C102.415 21.3816 102.607 21.3816 102.775 21.3816C103.164 21.3094 102.637 21.7067 102.727 21.0204L102.847 20.5628L102.793 20.6471C102.194 21.6345 103.727 22.5376 104.343 21.5622L104.313 21.5381Z" fill="#2D2FEE"/>
<path d="M87.0531 95.0372C88.4444 90.04 90.8773 85.3977 94.1901 81.4187C94.6567 80.7571 95.2944 80.2366 96.0342 79.9135C97.5969 79.3837 99.1716 80.5638 100.405 81.6655L104.453 85.2779C106.883 80.7332 110.467 76.9172 114.841 74.2181L116.415 85.4525C116.511 86.1268 116.655 86.8793 117.218 87.2586C117.637 87.4845 118.123 87.5548 118.589 87.4573C123.469 86.8552 126.283 80.9972 131.097 79.9858C131.399 79.8806 131.723 79.8558 132.038 79.9139C132.353 79.9719 132.647 80.1107 132.893 80.3169C133.2 80.7583 133.328 81.3008 133.252 81.8341L133.09 88.5952C132.94 89.4814 133.045 90.3923 133.392 91.2209C133.739 92.0495 134.313 92.7614 135.048 93.2732L145.598 103.045L134.048 104.538C133.294 104.634 132.33 104.947 132.312 105.742C132.343 106.085 132.482 106.409 132.707 106.669L136.389 111.949C130.312 112.831 124.381 114.534 118.756 117.012C117.874 117.304 117.106 117.872 116.565 118.632C116.207 119.438 116.091 120.331 116.23 121.203L117.116 134.616L104.147 133.328C103.351 133.25 102.459 133.196 101.848 133.713C101.237 134.231 101.142 135.152 101.094 135.971L100.645 144.063C100.609 144.725 100.519 145.496 99.968 145.869C99.4171 146.242 98.6328 146.019 98.0101 145.73C95.5142 144.564 93.4196 142.678 91.9927 140.312L80.449 153.045C79.5342 154.202 78.3956 155.161 77.102 155.863C75.7608 156.465 74.0245 156.435 73.0006 155.381C72.1564 154.508 71.9888 153.202 71.863 151.998L70.4979 138.638L55.1941 144.544L62.2413 130.185C62.3911 129.971 62.4891 129.724 62.5275 129.465C62.566 129.206 62.5438 128.941 62.4628 128.692C62.3079 128.489 62.1096 128.324 61.8827 128.208C61.6558 128.092 61.4059 128.03 61.1516 128.024L49.6258 126.121C48.2956 125.985 47.0075 125.575 45.8417 124.917C44.7281 124.189 43.9078 122.828 44.2251 121.528C44.5425 120.227 45.7519 119.481 46.8955 118.879C52.1295 116.132 57.8677 114.493 63.7561 114.062C63.0557 110.49 63.1333 106.807 63.9836 103.267C68.7137 103.809 73.4597 104.134 78.2217 104.243C75.9927 99.384 74.4297 94.2437 73.5754 88.9624C78.1991 89.6373 82.4453 91.9084 85.5862 95.3864L87.0531 95.0372Z" fill="white"/>
<path d="M87.945 95.278C89.1279 91.0716 91.0569 87.1147 93.6391 83.5981C94.2251 82.7172 94.9124 81.9088 95.6868 81.1899C96.5849 80.4433 97.5548 80.7142 98.4709 81.2862C99.3962 81.9386 100.267 82.6654 101.075 83.4596L103.842 85.9341C103.94 86.0301 104.058 86.1027 104.188 86.1464C104.318 86.1901 104.456 86.2038 104.591 86.1864C104.727 86.169 104.857 86.1211 104.972 86.0461C105.087 85.9712 105.184 85.8711 105.255 85.7535C107.62 81.3528 111.09 77.6518 115.32 75.0188L114.002 74.4769L114.996 81.5752L115.457 84.8263C115.583 85.7595 115.637 86.783 116.254 87.5476C117.355 88.9263 119.445 88.3664 120.834 87.7824C122.246 87.1312 123.552 86.2685 124.708 85.2236C125.851 84.2604 126.935 83.2248 128.163 82.3639C128.726 81.9564 129.327 81.6055 129.959 81.3163C130.432 81.1056 131.809 80.4794 132.246 80.9671C132.45 81.1899 132.348 81.8822 132.342 82.1411L132.306 83.9112L132.234 87.4573C132.198 89.5645 132.102 91.467 133.599 93.1226C134.389 94.0077 135.329 94.7783 136.198 95.579L139.054 98.2281L144.987 103.725L145.622 102.184L139.263 102.996L136.162 103.388C135.204 103.458 134.252 103.593 133.312 103.791C131.665 104.231 131.001 105.645 131.971 107.114C133.168 108.921 134.425 110.636 135.653 112.394L136.192 111.07C131.176 111.8 126.256 113.086 121.522 114.905C120.391 115.345 119.259 115.802 118.152 116.308C117.204 116.668 116.392 117.316 115.828 118.162C115.371 119.154 115.217 120.261 115.385 121.341C115.473 122.682 115.561 124.022 115.649 125.363L116.248 134.604L117.146 133.701L108.901 132.864L104.776 132.455C103.752 132.353 102.638 132.196 101.698 132.726C100.758 133.256 100.393 134.321 100.279 135.375C100.135 136.699 100.117 138.054 100.04 139.385L99.8121 143.599C99.8561 144.066 99.7884 144.537 99.6145 144.972C99.3032 145.405 98.5428 144.972 98.1835 144.785C95.9651 143.69 94.0978 141.99 92.7949 139.878C92.7243 139.76 92.6282 139.66 92.5136 139.584C92.399 139.509 92.269 139.46 92.1331 139.442C91.9973 139.424 91.8592 139.437 91.7291 139.481C91.599 139.524 91.4803 139.596 91.3818 139.692C87.5379 143.934 83.692 148.179 79.8441 152.425C78.5208 153.888 76.521 156.116 74.2937 155.189C73.2639 154.761 72.9945 153.581 72.8568 152.582C72.6711 151.209 72.5694 149.824 72.4257 148.452L71.4258 138.656C71.3719 138.132 70.8869 137.554 70.2881 137.789L54.9843 143.689L56.0022 145.014L61.6782 133.454C62.1333 132.521 62.6123 131.6 63.0494 130.661C63.3966 129.908 63.708 129.047 63.2649 128.253C63.0691 127.956 62.8102 127.706 62.5068 127.522C62.2035 127.337 61.8632 127.223 61.5106 127.187C60.4329 126.976 59.3372 126.826 58.2475 126.651L52.1942 125.646C50.398 125.345 48.1646 125.272 46.5301 124.309C45.0452 123.436 44.5782 121.738 45.9912 120.57C47.4042 119.402 49.2244 118.698 50.8231 118.048C54.9456 116.349 59.3075 115.311 63.7499 114.971C63.8873 114.968 64.0222 114.934 64.1447 114.871C64.2672 114.809 64.3741 114.719 64.4575 114.609C64.5408 114.499 64.5986 114.372 64.6264 114.237C64.6542 114.101 64.6513 113.961 64.6181 113.827C63.9625 110.413 64.0401 106.896 64.8456 103.514L63.9774 104.176C68.7075 104.714 73.4535 105.039 78.2155 105.152C78.372 105.147 78.5247 105.102 78.6591 105.022C78.7935 104.941 78.905 104.827 78.9831 104.69C79.0611 104.554 79.1031 104.399 79.105 104.242C79.1069 104.085 79.0686 103.929 78.9939 103.791C76.8074 99.0019 75.269 93.9397 74.4195 88.7397L73.3118 89.8535C77.7842 90.4963 81.8972 92.6769 84.9513 96.0245C85.0637 96.1374 85.2036 96.2186 85.3571 96.2598C85.5106 96.301 85.6721 96.3009 85.8255 96.2593L87.2984 95.9102C88.418 95.6452 87.945 93.9053 86.8194 94.1702L85.3465 94.5134L86.2207 94.7482C82.9627 91.1694 78.5848 88.8196 73.8147 88.0894C73.6622 88.053 73.503 88.0566 73.3522 88.0998C73.2015 88.143 73.0642 88.2244 72.9537 88.3361C72.8432 88.4479 72.763 88.5863 72.7209 88.7381C72.6787 88.8899 72.676 89.0501 72.7131 89.2032C73.5992 94.5599 75.1983 99.7723 77.4671 104.7L78.2394 103.346C73.4814 103.233 68.7354 102.908 64.0014 102.37C63.8045 102.37 63.6128 102.434 63.456 102.554C63.2991 102.673 63.1857 102.842 63.1332 103.032C62.2638 106.731 62.1883 110.573 62.9117 114.303L63.7738 113.165C59.7142 113.462 55.7147 114.321 51.8888 115.718C49.994 116.406 48.1494 117.227 46.3684 118.174C44.9434 118.939 43.4945 120.035 43.3029 121.787C43.1113 123.539 44.2189 125.044 45.62 125.875C47.3444 126.886 49.4938 127.024 51.4218 127.344L57.7625 128.391C58.8222 128.566 59.882 128.722 60.9358 128.915C61.0915 128.945 61.6064 128.975 61.6902 129.126C61.8459 129.403 61.2232 130.294 61.0915 130.546L54.4155 144.087C54.1101 144.719 54.637 145.718 55.4334 145.411L70.7372 139.511L69.5996 138.638L70.5875 148.271C70.7432 149.818 70.8629 151.372 71.0785 152.913C71.1585 154.128 71.6682 155.275 72.5155 156.146C74.4554 157.886 77.2455 157.121 79.1016 155.658C80.1778 154.711 81.1787 153.68 82.0953 152.576L85.2747 149.066L92.6392 140.938L91.2261 140.757C92.4325 142.727 94.0709 144.393 96.0161 145.628C96.9262 146.2 98.0219 146.874 99.1235 146.928C99.6644 146.951 100.195 146.776 100.617 146.435C101.039 146.094 101.323 145.61 101.417 145.074C101.618 143.784 101.714 142.479 101.704 141.173L101.944 136.826C102.004 135.742 101.824 134.183 103.261 134.141C104.594 134.172 105.924 134.291 107.242 134.496L117.116 135.477C117.354 135.477 117.582 135.382 117.751 135.213C117.919 135.043 118.014 134.814 118.014 134.574L117.511 126.976L117.265 123.25C117.117 122.118 117.067 120.976 117.116 119.836C117.224 118.806 117.96 118.337 118.816 117.927C119.882 117.422 120.99 116.988 122.091 116.567C124.26 115.735 126.471 115.015 128.713 114.411C131.318 113.714 133.961 113.169 136.629 112.78C136.761 112.742 136.883 112.675 136.985 112.583C137.087 112.491 137.167 112.377 137.218 112.249C137.27 112.121 137.292 111.983 137.282 111.846C137.272 111.708 137.231 111.574 137.162 111.455L134.234 107.241C133.982 106.88 133.719 106.524 133.479 106.157C133.425 106.073 133.186 105.796 133.21 105.688C133.21 105.778 133.24 105.688 133.282 105.688C133.671 105.302 134.743 105.338 135.234 105.278L145.58 103.96C146.286 103.869 146.849 103.002 146.215 102.418L135.904 92.8637C135.193 92.3254 134.61 91.6343 134.198 90.8408C133.827 89.8896 133.982 88.7276 134 87.7342L134.066 84.4831C134.145 83.367 134.155 82.247 134.096 81.1297C133.659 76.9153 128.192 80.0159 126.444 81.3645C124.145 83.1706 122.031 85.7294 119.092 86.4458C118.708 86.5827 118.297 86.622 117.894 86.5602C117.433 86.4037 117.397 85.8438 117.325 85.4163C117.116 84.1761 116.972 82.9178 116.798 81.6655L115.715 73.9772C115.678 73.8444 115.611 73.7219 115.519 73.6191C115.428 73.5163 115.314 73.436 115.187 73.3843C115.06 73.3325 114.922 73.3108 114.786 73.3207C114.649 73.3306 114.516 73.3719 114.397 73.4414C109.903 76.2328 106.211 80.1549 103.686 84.8203L105.099 84.6397L101.902 81.7859C101.033 80.9219 100.068 80.1604 99.0277 79.5162C98.5188 79.1978 97.9455 78.9979 97.3498 78.9312C96.7541 78.8646 96.1511 78.9328 95.585 79.1308C94.4773 79.5824 93.7169 80.5697 92.9984 81.4789C89.8731 85.4213 87.5608 89.9508 86.1967 94.8024C86.1657 94.9178 86.1575 95.0383 86.1728 95.1569C86.188 95.2755 86.2263 95.3899 86.2855 95.4936C86.3447 95.5973 86.4237 95.6882 86.5178 95.7613C86.612 95.8343 86.7196 95.888 86.8344 95.9192C86.9492 95.9504 87.069 95.9586 87.1869 95.9433C87.3048 95.928 87.4186 95.8894 87.5218 95.8299C87.6249 95.7703 87.7154 95.691 87.788 95.5963C87.8606 95.5016 87.914 95.3934 87.945 95.278Z" fill="#2D2FEE"/>
<path d="M67.2715 123.4C70.6361 128.03 74.4466 132.316 78.6476 136.194C79.5217 137.001 81.4557 136.838 81.6413 135.393L82.9765 125.399L79.9828 126.194L82.6352 128.337C83.4644 129.117 84.36 129.822 85.3116 130.444C85.8544 130.761 86.4993 130.851 87.1073 130.694C87.7153 130.538 88.2379 130.147 88.5627 129.607C89.1016 128.626 88.8501 127.416 88.7663 126.362C88.423 121.891 88.0518 117.42 87.6526 112.948C87.6405 112.473 87.4474 112.021 87.1131 111.685C86.7788 111.349 86.329 111.154 85.8564 111.142C85.38 111.142 84.9232 111.333 84.5863 111.671C84.2494 112.01 84.0602 112.469 84.0602 112.948C84.2997 115.597 84.5272 118.25 84.7428 120.908C84.8505 122.184 84.9523 123.462 85.0481 124.743L85.2098 126.808C85.2098 127.103 85.2577 127.41 85.2756 127.693C85.2756 127.849 85.2756 128.006 85.3056 128.168C85.3056 128.084 85.3535 128.006 85.3714 127.922L86.0181 127.271C86.6168 126.838 87.3173 127.518 86.6767 126.994L86.2157 126.621L84.9463 125.598L82.5514 123.641C82.3222 123.422 82.0418 123.265 81.7363 123.184C81.4307 123.103 81.1097 123.101 80.803 123.177C80.5013 123.257 80.2261 123.416 80.006 123.638C79.786 123.86 79.6291 124.138 79.5517 124.442L78.2165 134.436L81.2102 133.641C77.2337 129.992 73.6238 125.959 70.4328 121.6C70.1812 121.198 69.7866 120.907 69.3293 120.788C68.8721 120.668 68.3867 120.728 67.972 120.956C67.562 121.198 67.2643 121.594 67.1442 122.057C67.0241 122.52 67.0914 123.011 67.3313 123.424L67.2715 123.4Z" fill="#2D2FEE"/>
<path d="M99.5004 99.3961L103.901 104.435C105.219 106.077 106.65 107.624 108.182 109.065C109.104 109.854 110.344 110.408 111.505 109.745C112.553 109.143 112.81 108.036 112.912 106.922C113.09 104.709 112.837 102.482 112.17 100.365L109.96 102.587L118.205 105.17C118.587 105.276 118.993 105.252 119.361 105.102C119.728 104.951 120.035 104.683 120.235 104.339C121.672 102.178 120.349 99.7152 119.271 97.7163L115.678 91.1479C114.571 89.113 111.487 90.9312 112.577 92.9541L115.571 98.493C116.032 99.3359 116.553 100.173 116.942 101.052C117.069 101.348 117.167 101.657 117.235 101.973C117.283 102.153 117.235 102.25 117.097 102.485L119.127 101.654L110.877 99.0649C110.57 98.98 110.247 98.9782 109.94 99.0597C109.633 99.1412 109.353 99.3031 109.129 99.5289C108.904 99.7547 108.743 100.036 108.662 100.345C108.581 100.654 108.583 100.979 108.667 101.287C109.142 102.778 109.366 104.339 109.332 105.904C109.251 106.318 109.224 106.742 109.254 107.163C109.008 106.609 110.763 106.91 110.679 106.458C110.679 106.506 110.493 106.302 110.487 106.29C109.978 105.688 109.29 105.128 108.757 104.532C106.458 102.009 104.254 99.39 102.009 96.8132C101.672 96.4739 101.214 96.2833 100.737 96.2833C100.26 96.2833 99.802 96.4739 99.4645 96.8132C99.1271 97.1526 98.9375 97.6128 98.9375 98.0926C98.9375 98.5725 99.1271 99.0327 99.4645 99.372L99.5004 99.3961Z" fill="#2D2FEE"/>
<path d="M100.665 118.709C103.473 117.213 104.003 112.687 101.849 108.6C99.6955 104.514 95.6733 102.414 92.8654 103.91C90.0575 105.406 89.5272 109.932 91.681 114.019C93.8347 118.105 97.8569 120.206 100.665 118.709Z" stroke="#2D2FEE" stroke-width="3" stroke-miterlimit="10" stroke-linecap="round"/>
<path d="M79.0644 96.5845C78.0934 95.4775 76.9486 94.5378 75.6755 93.803C74.478 93.1527 73.059 92.8216 71.9154 92.0329C71.2997 91.6005 70.777 91.0475 70.3789 90.4072C69.9807 89.7668 69.7152 89.0522 69.5983 88.3062C69.4596 87.5029 69.5369 86.677 69.8222 85.9138C70.1075 85.1506 70.5904 84.4779 71.2209 83.9654C71.8721 83.4816 72.6757 83.2516 73.4827 83.3181C74.2896 83.3845 75.0453 83.7428 75.6097 84.3266L76.3102 83.8149C76.8479 82.6379 77.8019 81.7043 78.9866 81.1959C79.577 80.95 80.2187 80.8543 80.8547 80.9173C81.4908 80.9803 82.1015 81.2001 82.6329 81.5572C84.1477 82.6409 84.5189 84.8143 84.0519 86.6144C83.5849 88.4146 82.4593 89.9619 81.4234 91.5091C80.3876 93.0564 79.4057 94.7422 79.2919 96.6025L79.0644 96.5845Z" fill="white"/>
<path d="M79.6986 95.9463C78.4561 94.54 76.94 93.4049 75.244 92.6109C73.5795 91.8944 71.903 91.3526 70.9869 89.6608C70.5982 88.9828 70.4102 88.2071 70.4452 87.4253C70.4802 86.6434 70.7367 85.8879 71.1845 85.2477C71.3985 84.9554 71.6729 84.713 71.9889 84.5373C72.3048 84.3616 72.6548 84.2567 73.0148 84.2298C73.3749 84.203 73.7364 84.2547 74.0747 84.3816C74.413 84.5084 74.72 84.7074 74.9746 84.9648C75.1154 85.1058 75.2987 85.196 75.4959 85.221C75.6931 85.2461 75.893 85.2047 76.0643 85.1032L76.663 84.6577C76.9482 84.4141 77.1788 84.1125 77.3396 83.7727C77.8483 82.8872 78.6687 82.2255 79.6388 81.9184C81.6146 81.3705 83.1773 82.7974 83.3151 84.742C83.4707 86.8793 82.1954 88.7336 81.0638 90.4254C79.7825 92.3279 78.573 94.2545 78.3814 96.6025L79.2795 95.6994H79.052C77.9024 95.6091 77.9084 97.4153 79.052 97.5056H79.2795C79.5168 97.5025 79.7434 97.4063 79.9112 97.2376C80.0789 97.069 80.1745 96.8411 80.1776 96.6025C80.3992 93.9234 82.4229 91.8402 83.7162 89.6187C84.8718 87.6319 85.6142 85.2357 84.752 82.996C84.36 81.9367 83.5943 81.0593 82.6007 80.5309C81.607 80.0024 80.4548 79.8598 79.3633 80.1303C78.2571 80.396 77.2608 81.0021 76.5133 81.8642C76.3185 82.0904 76.1366 82.3276 75.9685 82.5746C75.9146 82.6529 75.4416 83.4958 75.8128 83.0563C75.6071 83.2422 75.3823 83.4057 75.1422 83.5439L76.2319 83.6884C75.5478 82.9918 74.6468 82.5521 73.6793 82.4425C72.7118 82.333 71.7362 82.5602 70.9151 83.0864C70.0786 83.6764 69.4262 84.4934 69.034 85.4422C68.6417 86.3909 68.5258 87.4322 68.6998 88.4447C68.867 89.5078 69.2914 90.5135 69.9355 91.3732C70.5796 92.2329 71.4238 92.9205 72.394 93.3755C73.4298 93.8812 74.5495 94.2063 75.5434 94.7903C76.6088 95.468 77.5743 96.2928 78.4114 97.2407C79.2316 98.0655 80.501 96.7892 79.6986 95.9463Z" fill="#2D2FEE"/>
<path d="M79.909 68.5708C84.1132 67.963 88.3781 67.9083 92.5963 68.4082C95.9613 68.7755 100.278 68.6189 101.967 65.0668C102.464 64.0192 100.913 63.1041 100.416 64.1517C98.7694 67.6195 94.183 66.7466 91.1474 66.4516C87.2414 66.0848 83.3051 66.2102 79.43 66.8248C78.2924 67.0054 78.7774 68.7454 79.909 68.5708Z" fill="#2D2FEE"/>
</g>
<defs>
<clipPath id="clip0">
<rect width="177" height="154" fill="white" transform="translate(19 3.15735)"/>
</clipPath>
</defs>
</svg>
