<svg width="276" height="267" viewBox="0 0 276 267" fill="none" xmlns="http://www.w3.org/2000/svg">
<g clip-path="url(#clip0)">
<path d="M2.51518 170.783C15.4454 162.067 30.2149 156.386 44.4304 150.228L91.6307 129.607L118.001 118.123L115.729 117.536L130.133 150.439C130.998 152.388 133.856 150.705 133.014 148.755L118.61 115.852C118.383 115.493 118.029 115.232 117.619 115.122C117.208 115.011 116.771 115.058 116.394 115.254C85.1601 128.898 53.7929 142.277 22.6806 156.231C15.066 159.504 7.74826 163.428 0.808889 167.959C-0.952813 169.155 0.709157 172.034 2.49302 170.827L2.51518 170.783Z" fill="#2D2FEE"/>
<path d="M170.398 215.403C191.625 207.426 213.763 202.117 236.301 199.599C224.711 134.285 220.024 67.9334 222.318 1.63916C169.456 12.3179 115.718 18.0718 61.7925 18.8271C61.7939 19.9685 62.0237 21.0981 62.4683 22.1495C77.7586 59.0283 81.6144 97.3578 86.1682 137.105C87.0325 144.669 87.5311 149.088 88.3842 156.652" fill="white"/>
<path d="M170.83 216.998C187.241 210.866 204.2 206.312 221.476 203.398C226.403 202.571 231.348 201.877 236.312 201.316C236.565 201.31 236.813 201.248 237.038 201.133C237.264 201.018 237.46 200.854 237.613 200.653C237.767 200.452 237.873 200.219 237.924 199.972C237.974 199.724 237.969 199.468 237.907 199.223C233.401 173.773 229.941 148.176 227.525 122.431C225.11 96.6859 223.758 70.9261 223.47 45.1516C223.315 30.6659 223.485 16.1802 223.98 1.69449C223.976 1.43962 223.915 1.1889 223.8 0.961248C223.685 0.733599 223.52 0.534962 223.317 0.380323C223.115 0.225684 222.88 0.119085 222.63 0.0685596C222.38 0.018034 222.121 0.024902 221.875 0.0886521C201.288 4.20844 180.565 7.60469 159.705 10.2774C138.979 12.9132 118.182 14.8032 97.3145 15.9476C85.4959 16.6047 73.6552 17.0108 61.7924 17.1658C61.3542 17.1743 60.9364 17.3521 60.6266 17.6618C60.3167 17.9715 60.1389 18.3891 60.1304 18.827C60.2909 20.9713 60.8707 23.0633 61.8367 24.9846C62.7009 27.1405 63.5282 29.3037 64.3186 31.4744C65.9288 35.9042 67.4062 40.3341 68.7505 44.764C71.3875 53.5684 73.5481 62.4835 75.3431 71.5094C79.0105 89.7827 81.2265 108.289 83.3538 126.783C84.484 136.728 85.6178 146.673 86.7553 156.618C86.9991 158.723 90.3231 158.745 90.0793 156.618C88.0184 138.611 86.1238 120.57 83.7305 102.596C81.2929 84.3007 78.1906 66.0496 73.2268 48.2636C71.8086 43.2025 70.2352 38.1746 68.4957 33.2131C67.6536 30.7988 66.7562 28.3845 65.8254 25.9924C64.8947 23.6002 63.4543 21.3078 63.4543 18.827L61.7924 20.4883C82.8663 20.1855 103.918 19.1298 124.948 17.3209C145.977 15.512 166.844 12.9353 187.549 9.59075C199.368 7.70805 211.112 5.5854 222.783 3.2228L220.678 1.61697C219.792 27.5022 219.958 53.3875 221.177 79.2728C222.395 105.158 224.7 131.036 228.09 156.906C229.974 171.326 232.19 185.697 234.738 200.02L236.345 197.916C218.678 199.888 201.24 203.544 184.269 208.836C179.446 210.357 174.671 212.003 169.943 213.775C167.96 214.517 168.835 217.729 170.818 216.976L170.83 216.998Z" fill="#2D2FEE"/>
<path d="M100.018 44.6755C99.475 42.2391 96.694 41.2313 94.478 41.8072C91.8521 42.4717 90.5779 45.1296 89.8577 47.5328C89.1375 49.936 88.4727 52.9151 89.625 55.4291C90.7773 57.943 93.8132 59.2941 96.273 60.2466C99.0318 61.354 102.777 61.055 104.284 58.1091C104.477 57.7317 104.523 57.2956 104.413 56.8861C104.302 56.4765 104.043 56.1229 103.685 55.8942C103.306 55.6718 102.854 55.6087 102.428 55.7187C102.003 55.8287 101.638 56.1029 101.414 56.4812C100.472 58.3306 97.9239 57.4779 96.3284 56.7248C95.2446 56.2947 94.2294 55.7089 93.3147 54.9861C92.9527 54.6391 92.674 54.2148 92.4993 53.7449C92.3247 53.275 92.2588 52.7718 92.3064 52.2728C92.3666 51.1429 92.5752 50.0258 92.9268 48.9504C93.167 47.8795 93.6028 46.8621 94.2121 45.9491C94.4512 45.6285 94.7575 45.3639 95.1096 45.1739C94.9323 45.2625 95.453 45.0742 95.5417 45.0521C95.2868 45.0521 95.8187 45.0521 95.8852 45.0521C96.1334 45.0559 96.3769 45.1206 96.5943 45.2403C96.7051 45.3068 96.7605 45.4065 96.7051 45.2403C96.7937 45.4065 96.8159 45.4175 96.7605 45.2403C96.8016 45.3438 96.8314 45.4515 96.8491 45.5615C97.3256 47.6436 100.528 46.7686 100.051 44.6755H100.018Z" fill="#2D2FEE"/>
<path d="M104.45 42.4273L107.275 59.8256C107.324 60.0458 107.416 60.2538 107.547 60.4371C107.678 60.6204 107.845 60.7751 108.038 60.8917C108.231 61.0084 108.446 61.0847 108.669 61.1158C108.892 61.147 109.12 61.1324 109.337 61.073C109.555 61.0136 109.758 60.9106 109.934 60.7702C110.111 60.6298 110.256 60.4551 110.363 60.2565C110.47 60.058 110.535 59.8399 110.555 59.6154C110.574 59.3909 110.548 59.1648 110.477 58.9507L107.652 41.5524C107.521 41.1401 107.236 40.7945 106.856 40.588C106.476 40.3815 106.031 40.3302 105.613 40.4449C105.194 40.5689 104.839 40.8502 104.622 41.23C104.405 41.6097 104.343 42.0586 104.45 42.4826V42.4273Z" fill="#2D2FEE"/>
<path d="M107.896 42.4606C109.637 41.9436 111.458 41.7484 113.27 41.8847C113.379 41.8632 113.492 41.8632 113.602 41.8847C113.602 41.8847 113.458 41.785 113.491 41.8847C113.609 42.1986 113.687 42.526 113.724 42.8592C113.934 43.8117 114.134 44.7641 114.333 45.7165L116.771 57.1567C117.214 59.2498 120.416 58.3638 119.973 56.2818L117.137 42.9921C117.016 42.0468 116.754 41.1249 116.361 40.2567C116.078 39.7868 115.683 39.3942 115.211 39.114C114.74 38.8338 114.206 38.6747 113.657 38.6509C111.42 38.4632 109.167 38.6847 107.01 39.3043C106.618 39.4504 106.295 39.738 106.105 40.1103C105.914 40.4826 105.87 40.9127 105.982 41.3157C106.093 41.7188 106.351 42.0655 106.705 42.2877C107.06 42.5098 107.484 42.5913 107.896 42.5159V42.4606Z" fill="#2D2FEE"/>
<path d="M120.194 38.6619C121.206 44.1993 122.477 49.6776 124.006 55.0968C124.139 55.5012 124.423 55.839 124.798 56.0404C125.173 56.2419 125.612 56.2916 126.023 56.1793C126.434 56.0671 126.786 55.8014 127.006 55.4371C127.227 55.0729 127.299 54.6378 127.208 54.2219C125.686 48.7953 124.416 43.3133 123.396 37.776C123.261 37.3645 122.973 37.0204 122.592 36.8144C122.211 36.6085 121.765 36.5562 121.347 36.6685C120.937 36.806 120.594 37.0941 120.388 37.4744C120.183 37.8548 120.129 38.299 120.239 38.7173L120.194 38.6619Z" fill="#2D2FEE"/>
<path d="M123.374 39.0606C123.474 38.9055 123.574 38.8059 123.374 39.0606C123.446 38.9705 123.524 38.8854 123.607 38.8059L123.773 38.6619C123.773 38.6619 123.507 38.817 123.662 38.7505C123.778 38.6923 123.889 38.6257 123.995 38.5512C124.25 38.4072 123.718 38.6287 123.995 38.5512L124.394 38.385H124.571C124.781 38.3075 124.238 38.385 124.46 38.385H124.87C124.988 38.374 125.107 38.374 125.225 38.385C125.535 38.385 124.937 38.3186 125.225 38.385C125.503 38.433 125.777 38.5033 126.044 38.5955C126.222 38.5955 126.333 38.7505 126.1 38.5955C126.203 38.6574 126.311 38.7129 126.421 38.7616C126.528 38.8178 126.632 38.8807 126.731 38.9498C126.781 38.9869 126.832 39.0203 126.887 39.0495C127.064 39.1603 126.61 38.7948 126.887 39.0495C127.164 39.3042 127.23 39.3818 127.385 39.559C127.208 39.3596 127.319 39.4593 127.385 39.559C127.476 39.6955 127.554 39.8401 127.618 39.9909C127.74 40.2345 127.551 39.7915 127.618 39.9909C127.618 40.0684 127.673 40.1459 127.695 40.2234L127.828 40.6886C127.828 40.7772 127.917 41.1648 127.828 40.8879C127.845 41.0795 127.845 41.2722 127.828 41.4638C127.858 41.8323 127.858 42.2027 127.828 42.5713C127.828 42.3166 127.828 42.7152 127.828 42.7928C127.796 42.9873 127.751 43.1796 127.695 43.3687C127.596 43.723 127.485 44.0774 127.352 44.4761C127.352 44.4761 127.252 44.7308 127.352 44.5979C127.452 44.465 127.297 44.7198 127.297 44.7087C127.219 44.897 127.13 45.0742 127.042 45.2513C126.842 45.6168 126.632 45.9823 126.399 46.3588L126.266 46.5582C126.111 46.7797 126.399 46.4031 126.266 46.5582C126.147 46.7045 126.014 46.8382 125.867 46.9569C125.867 46.9569 126.033 46.8129 125.867 46.9569C125.701 47.1008 126.044 46.8904 125.867 46.9569H125.679C125.79 46.9569 125.956 46.8793 125.745 46.9569C125.978 46.9569 125.978 46.9569 125.812 46.9569C125.923 46.9569 126.044 47.0787 125.812 46.9569C125.812 46.9569 126.056 47.1562 125.923 47.0344C125.987 47.1045 126.036 47.1876 126.067 47.278C126.014 47.0621 125.918 46.859 125.785 46.6808C125.652 46.5026 125.485 46.3528 125.293 46.2404C125.101 46.128 124.889 46.0552 124.668 46.0264C124.447 45.9976 124.223 46.0133 124.009 46.0726C123.795 46.1319 123.595 46.2336 123.42 46.3717C123.246 46.5097 123.101 46.6814 122.994 46.8764C122.888 47.0714 122.821 47.2859 122.799 47.507C122.777 47.7282 122.799 47.9516 122.865 48.164C123.044 48.743 123.398 49.2525 123.878 49.6232C124.358 49.9938 124.94 50.2074 125.546 50.235C126.102 50.2589 126.656 50.1545 127.165 49.9298C127.675 49.7051 128.125 49.3661 128.482 48.9392C129.838 47.3634 130.742 45.4498 131.097 43.4019C131.311 42.3457 131.302 41.2566 131.071 40.204C130.84 39.1514 130.393 38.1585 129.756 37.2886C129.2 36.6456 128.522 36.1188 127.762 35.7387C127.001 35.3586 126.173 35.1326 125.324 35.0737C124.381 34.9632 123.426 35.122 122.569 35.5316C121.712 35.9412 120.989 36.5849 120.482 37.3883C120.264 37.7694 120.204 38.2212 120.316 38.6461C120.428 39.0709 120.703 39.4346 121.081 39.6586C121.463 39.8714 121.913 39.928 122.337 39.8165C122.76 39.7051 123.124 39.4342 123.352 39.0606H123.374Z" fill="#2D2FEE"/>
<path d="M137.501 34.4646C137.213 41.3974 136.663 48.308 135.851 55.1965C135.851 55.6371 136.026 56.0596 136.337 56.3711C136.649 56.6827 137.072 56.8577 137.513 56.8577C137.95 56.8465 138.366 56.6679 138.675 56.3587C138.985 56.0496 139.163 55.6335 139.175 55.1965C139.987 48.308 140.537 41.3974 140.825 34.4646C140.914 32.3272 137.59 32.3383 137.501 34.4646Z" fill="#2D2FEE"/>
<path d="M138.443 34.3317C142.416 40.1517 145.362 46.6095 147.152 53.4244C147.279 53.8372 147.563 54.1841 147.942 54.3914C148.321 54.5988 148.766 54.6503 149.183 54.535C149.6 54.4198 149.955 54.1468 150.174 53.774C150.392 53.4013 150.457 52.9581 150.354 52.5385C148.499 45.4272 145.441 38.6853 141.313 32.604C140.105 30.8431 137.224 32.5043 138.443 34.2763V34.3317Z" fill="#2D2FEE"/>
<path d="M139.906 48.7398C140.569 48.5408 141.247 48.3964 141.933 48.3079L141.501 48.3632C142.733 48.2032 143.981 48.2032 145.213 48.3632L144.77 48.2968H144.881C145.313 48.395 145.766 48.332 146.155 48.1196C146.341 48.0136 146.504 47.872 146.635 47.7029C146.766 47.5337 146.863 47.3404 146.919 47.134C146.978 46.9195 146.994 46.6955 146.966 46.4749C146.937 46.2543 146.865 46.0416 146.753 45.8493C146.647 45.6634 146.505 45.5002 146.336 45.3691C146.167 45.238 145.973 45.1415 145.767 45.0851C143.514 44.7492 141.215 44.8888 139.019 45.4949C138.808 45.5531 138.611 45.6522 138.438 45.7867C138.266 45.9211 138.121 46.0882 138.013 46.2785C137.905 46.4687 137.836 46.6784 137.809 46.8955C137.782 47.1126 137.798 47.3328 137.856 47.5437C137.914 47.7546 138.013 47.952 138.148 48.1245C138.282 48.2971 138.45 48.4415 138.64 48.5495C138.83 48.6574 139.04 48.7269 139.257 48.7538C139.474 48.7808 139.695 48.7647 139.906 48.7066V48.7398Z" fill="#2D2FEE"/>
<path d="M150.32 33.3903C151.584 38.9859 152.425 44.6685 152.836 50.39C152.847 50.8271 153.026 51.2431 153.335 51.5523C153.644 51.8614 154.06 52.04 154.498 52.0512C154.938 52.0483 155.359 51.8724 155.67 51.5615C155.981 51.2506 156.157 50.8297 156.16 50.39C155.73 44.3706 154.848 38.3919 153.523 32.5044C153.057 30.4223 149.855 31.3083 150.32 33.3903Z" fill="#2D2FEE"/>
<path d="M155.03 33.9552C155.046 33.7339 155.137 33.5247 155.288 33.3622C155.439 33.1997 155.641 33.0935 155.86 33.0612C156.08 33.0289 156.304 33.0725 156.495 33.1847C156.687 33.2969 156.834 33.471 156.913 33.6783C157.06 34.529 156.923 35.4041 156.526 36.1701C156.167 37.0237 155.678 37.8159 155.074 38.518L157.855 40.1349C157.911 39.8248 157.911 39.7694 158.309 39.6697C158.485 39.6321 158.668 39.6431 158.838 39.7016C159.008 39.7602 159.158 39.864 159.273 40.002C159.694 40.5145 160.008 41.1054 160.199 41.7404C160.389 42.3753 160.451 43.0417 160.381 43.7009C160.392 44.3232 160.271 44.9407 160.026 45.5132C159.782 46.0856 159.42 46.6002 158.963 47.0233C158.534 47.3966 158.002 47.6321 157.437 47.6993C156.872 47.7664 156.299 47.6621 155.794 47.3999C155.415 47.1968 154.971 47.1488 154.557 47.2658C154.143 47.3829 153.791 47.656 153.574 48.0276C153.357 48.3993 153.293 48.8404 153.395 49.2583C153.497 49.6762 153.757 50.0382 154.121 50.2682C155.168 50.8492 156.363 51.1096 157.557 51.0171C158.751 50.9245 159.891 50.4831 160.836 49.7477C161.836 48.9328 162.62 47.884 163.119 46.6942C163.617 45.5043 163.815 44.21 163.694 42.9257C163.528 40.4339 162.509 37.5988 159.994 36.6242C157.922 35.8268 155.052 36.9343 154.653 39.2821C154.564 39.6348 154.59 40.0066 154.728 40.3433C154.866 40.6801 155.107 40.964 155.418 41.1537C155.733 41.3394 156.101 41.4152 156.464 41.3691C156.827 41.323 157.164 41.1576 157.423 40.899C159.517 38.4626 161.91 33.778 159.096 31.0093C158.494 30.4294 157.737 30.0362 156.916 29.8769C156.095 29.7177 155.245 29.7993 154.47 30.1119C153.694 30.4246 153.026 30.9548 152.545 31.6388C152.065 32.3227 151.792 33.131 151.761 33.9663C151.628 36.1037 154.952 36.0926 155.085 33.9663L155.03 33.9552Z" fill="#2D2FEE"/>
<path d="M165.844 30.1675L168.248 45.949C168.525 47.7874 171.661 47.3665 171.506 45.506C171.096 40.5224 170.475 33.6893 175.173 30.3558C175.53 30.1271 175.79 29.7735 175.9 29.3639C176.011 28.9544 175.965 28.5183 175.771 28.1409C175.547 27.7629 175.183 27.4884 174.758 27.3765C174.333 27.2646 173.881 27.3243 173.5 27.5428C167.639 31.6958 167.65 39.1048 168.182 45.5614L171.506 45.1184L169.046 29.2816C168.915 28.8693 168.63 28.5237 168.25 28.3172C167.87 28.1107 167.424 28.0594 167.007 28.1741C166.599 28.3138 166.258 28.6023 166.052 28.9819C165.847 29.3616 165.792 29.8047 165.899 30.2229L165.844 30.1675Z" fill="#2D2FEE"/>
<path d="M169.655 38.2632C172.559 41.9114 175.909 45.1817 179.627 47.9978C180.009 48.2134 180.46 48.2716 180.884 48.1599C181.308 48.0482 181.672 47.7755 181.898 47.3998C182.109 47.0151 182.164 46.5644 182.053 46.1401C181.942 45.7159 181.672 45.3503 181.3 45.1184L181.167 45.0187L180.835 44.7529L180.159 44.2103L178.918 43.1692C178.087 42.4383 177.267 41.6742 176.48 40.9543C174.902 39.3858 173.422 37.7215 172.048 35.9707C171.737 35.6596 171.314 35.4849 170.874 35.4849C170.433 35.4849 170.011 35.6596 169.699 35.9707C169.401 36.2888 169.235 36.7085 169.235 37.1446C169.235 37.5807 169.401 38.0004 169.699 38.3185L169.655 38.2632Z" fill="#2D2FEE"/>
<path d="M185.045 28.1077V48.2748C185.045 48.7153 185.22 49.1379 185.532 49.4494C185.843 49.761 186.266 49.936 186.707 49.936C187.148 49.936 187.57 49.761 187.882 49.4494C188.194 49.1379 188.369 48.7153 188.369 48.2748V28.1077C188.369 27.6672 188.194 27.2446 187.882 26.9331C187.57 26.6216 187.148 26.4465 186.707 26.4465C186.266 26.4465 185.843 26.6216 185.532 26.9331C185.22 27.2446 185.045 27.6672 185.045 28.1077Z" fill="#2D2FEE"/>
<path d="M186.02 28.307C188.56 33.2191 190.203 38.5444 190.873 44.0331C190.887 44.4693 191.066 44.8838 191.375 45.1924C191.684 45.501 192.099 45.6805 192.535 45.6943C192.975 45.6914 193.396 45.5155 193.707 45.2046C194.018 44.8937 194.194 44.4728 194.197 44.0331C193.483 37.9595 191.686 32.0631 188.89 26.6237C187.915 24.7299 185.045 26.4022 186.02 28.307Z" fill="#2D2FEE"/>
<path d="M188.214 41.3861L190.862 40.2787C191.074 40.2398 191.271 40.1397 191.427 39.9907C191.607 39.8684 191.755 39.7052 191.859 39.5145C191.971 39.3241 192.043 39.1133 192.071 38.8945C192.1 38.6758 192.084 38.4535 192.025 38.2409C191.906 37.8241 191.632 37.468 191.261 37.2442C191.069 37.1301 190.856 37.0564 190.635 37.0278C190.414 36.9993 190.19 37.0164 189.976 37.0781L187.327 38.1855C187.116 38.2351 186.922 38.3381 186.762 38.4845C186.578 38.597 186.429 38.7579 186.33 38.9497C186.126 39.3249 186.074 39.7645 186.185 40.177C186.297 40.5895 186.563 40.9432 186.929 41.1646C187.119 41.2813 187.332 41.3564 187.553 41.385C187.775 41.4137 188 41.3952 188.214 41.3308V41.3861Z" fill="#2D2FEE"/>
<path d="M108.029 85.4083L168.071 75.0312C170.176 74.6658 169.279 71.4652 167.184 71.8196L107.154 82.1966C105.048 82.562 105.935 85.7626 108.029 85.4083Z" fill="#2D2FEE"/>
<path d="M109.846 95.7852L169.888 85.4082C171.993 85.0427 171.095 81.8421 169.001 82.1965L108.971 92.5735C106.865 92.939 107.752 96.1396 109.846 95.7852Z" fill="#2D2FEE"/>
<path d="M112.782 107.048L172.813 96.6713C174.918 96.3058 174.032 93.1052 171.938 93.4707L111.896 103.848C109.791 104.213 110.688 107.414 112.782 107.048Z" fill="#2D2FEE"/>
<path d="M114.732 117.392L174.774 107.048C176.879 106.683 175.982 103.482 173.888 103.848L113.857 114.225C111.752 114.59 112.638 117.791 114.732 117.425V117.392Z" fill="#2D2FEE"/>
<path d="M186.607 160.207C183.45 163.568 181.411 167.823 180.768 172.389C180.502 174.305 180.159 176.819 181.699 178.336C183.738 180.329 186.319 178.281 187.859 176.752C190.94 173.647 192.821 169.55 193.167 165.19C193.255 164.171 193.477 162.566 192.712 161.768C192.34 161.405 191.88 161.145 191.376 161.015C190.873 160.885 190.344 160.889 189.843 161.026C189.325 161.161 188.844 161.409 188.435 161.752C188.025 162.094 187.696 162.524 187.473 163.009C187.249 163.494 187.136 164.023 187.141 164.557C187.147 165.092 187.271 165.618 187.505 166.098C188.613 168.247 191.383 168.878 193.532 168.192C194.753 167.749 195.905 167.137 196.956 166.375C197.959 165.529 199.212 165.034 200.524 164.969C202.662 165.068 202.662 161.746 200.524 161.646C198.944 161.64 197.399 162.111 196.092 162.997C195.049 163.753 193.936 164.406 192.768 164.947C192.07 165.201 190.995 165.334 190.474 164.648C190.319 164.448 190.474 164.36 190.408 164.459C190.341 164.559 190.707 164.094 190.729 164.205C190.751 164.315 190.197 163.983 190.341 164.116L189.854 162.942C190.003 165.473 189.504 168.001 188.402 170.285C187.853 171.428 187.165 172.5 186.352 173.474C185.923 173.97 185.464 174.44 184.978 174.881C184.79 175.058 183.87 175.645 183.87 175.855C183.992 175.855 184.059 175.922 184.07 176.01L183.97 175.822L183.904 175.357C183.869 174.71 183.895 174.061 183.981 173.419C184.129 172.08 184.423 170.762 184.857 169.487C185.716 166.914 187.122 164.556 188.978 162.577C190.441 161.015 188.092 158.667 186.629 160.229L186.607 160.207Z" fill="#2D2FEE"/>
<path d="M20.6083 76.8806C19.1347 76.4376 18.7026 74.123 18.6915 72.8051C18.6881 70.8458 19.1716 68.9164 20.0987 67.1902C20.5082 66.3005 21.1238 65.5211 21.8944 64.9164C22.6651 64.3117 23.5687 63.8991 24.5306 63.7127C26.9682 63.3362 29.5387 64.4437 31.655 65.529C33.736 66.5485 35.5988 67.9627 37.1395 69.6931C38.4981 71.4403 39.5064 73.4333 40.1089 75.5627C41.4607 79.7489 42.3803 84.0681 45.3608 87.468C46.779 89.0738 49.128 86.7149 47.7208 85.1091C44.9287 81.9528 44.3415 77.545 42.9786 73.7021C41.6257 69.5824 38.8845 66.0597 35.2227 63.7349C31.6328 61.4535 26.6469 59.305 22.3922 60.8444C18.6694 62.2177 16.5199 65.9277 15.7443 69.7042C14.9687 73.4806 15.4562 78.8408 19.7441 80.1144C21.7939 80.7235 22.6692 77.5229 20.6194 76.9138L20.6083 76.8806Z" fill="#2D2FEE"/>
<path d="M21.0074 79.9151L25.8493 76.5927C26.223 76.3648 26.4941 76.0011 26.6056 75.5779C26.7171 75.1547 26.6605 74.7048 26.4476 74.3224C25.9601 73.5029 24.5086 71 26.0155 70.402C27.1235 69.9258 29.0403 71.5094 29.8159 72.2071C31.9115 74.3631 33.5077 76.9528 34.4916 79.7933C35.5434 82.8309 36.9139 85.7487 38.5801 88.498C39.4222 89.7384 40.375 91.1449 42.0592 90.9234C42.9857 90.7109 43.8673 90.336 44.6629 89.8159L47.3221 88.3651C49.1946 87.3463 47.5215 84.4779 45.638 85.4968L42.5356 87.1912L42.0924 87.4238C41.4719 87.6342 41.5052 87.7671 42.2032 87.8557C42.2032 87.8557 41.4608 86.8922 41.4498 86.8701C40.4059 85.2833 39.5331 83.5905 38.846 81.82C37.4721 78.4976 36.2976 75.0312 34.126 72.1296C32.2424 69.6267 28.7744 66.3265 25.2621 67.1792C24.4592 67.4125 23.7388 67.868 23.184 68.4932C22.6291 69.1183 22.2625 69.8875 22.1264 70.7121C21.9197 72.6006 22.4211 74.4986 23.5336 76.039L24.1319 73.8241L19.29 77.1465C17.5394 78.3536 19.2013 81.233 20.963 80.0148L21.0074 79.9151Z" fill="#2D2FEE"/>
<path d="M44.9731 92.9721C44.3068 93.7245 43.9539 94.7033 43.987 95.7076C44.0305 96.7131 44.4222 97.6722 45.095 98.4209C45.4365 98.7882 45.8495 99.0819 46.3087 99.2837C46.7679 99.4856 47.2636 99.5915 47.7652 99.5948C48.8016 99.5701 49.7952 99.1775 50.5685 98.4874C50.9514 98.1528 51.2642 97.7456 51.4886 97.2894C51.7131 96.8331 51.8447 96.3369 51.8759 95.8294C51.8981 95.6085 51.8981 95.3859 51.8759 95.165C51.8547 94.9184 51.7988 94.676 51.7097 94.4451C51.5112 93.8895 51.2064 93.3779 50.8122 92.9389C50.4555 92.5455 50.0239 92.2273 49.5425 92.0029C49.0611 91.7785 48.5398 91.6524 48.009 91.6321C47.4687 91.6256 46.933 91.7326 46.4367 91.9463C45.9404 92.1599 45.4947 92.4755 45.1282 92.8725C44.7155 93.3095 44.4151 93.8402 44.253 94.419C44.0908 94.9977 44.0718 95.6072 44.1975 96.1949C44.3208 96.7206 44.5612 97.2117 44.9007 97.6316C45.2403 98.0516 45.6703 98.3895 46.1587 98.6203C46.4139 98.7502 46.6862 98.8434 46.9675 98.8971C47.4662 99.0001 47.9823 98.9836 48.4734 98.8488C48.9645 98.7141 49.4166 98.465 49.7929 98.1219C50.1775 97.7809 50.4777 97.3554 50.67 96.8788C50.8622 96.4023 50.9413 95.8876 50.9009 95.3754C50.8658 94.6885 50.5869 94.0367 50.1142 93.537C49.7387 93.1457 49.2753 92.8496 48.7624 92.6731C48.309 92.5027 47.8216 92.4419 47.3402 92.4958C46.8588 92.5497 46.3969 92.7167 45.9925 92.9832C45.4652 93.362 45.0762 93.9026 44.8845 94.5226C44.746 95.0489 44.746 95.6021 44.8845 96.1284C44.968 96.5275 45.134 96.9048 45.372 97.2359C45.7572 97.7518 46.2906 98.1381 46.901 98.3434C47.4361 98.5265 48.0169 98.5265 48.5519 98.3434C49.2086 98.1165 49.7729 97.6808 50.1585 97.103C50.4854 96.626 50.6663 96.0642 50.6793 95.4861C50.6821 94.7928 50.4297 94.1227 49.9701 93.6034C49.5962 93.1942 49.1197 92.8921 48.5899 92.7286C48.06 92.565 47.4961 92.5459 46.9564 92.6731C46.566 92.7488 46.2014 92.9228 45.897 93.1786C45.5926 93.4344 45.3585 93.7636 45.2169 94.135C45.0915 94.9084 45.2658 95.7005 45.7044 96.3499C45.9873 96.8837 46.3711 97.3576 46.8345 97.7454L47.2334 97.9115C47.4471 97.9721 47.6734 97.9721 47.8871 97.9115C48.2515 97.8768 48.5924 97.7162 48.8511 97.4574C49.1489 97.1256 49.3618 96.7266 49.4716 96.2946C49.5823 95.8472 49.5823 95.3797 49.4716 94.9324C49.3476 94.5016 49.1187 94.1082 48.8055 93.7874C48.4923 93.4666 48.1044 93.2284 47.6766 93.094C47.3222 93.0007 46.9471 93.0248 46.6075 93.1625C46.2679 93.3003 45.9822 93.5444 45.793 93.8581C45.4861 94.451 45.3922 95.1313 45.5271 95.7851C45.6373 96.2959 45.891 96.7646 46.2584 97.1362C46.5352 97.3626 46.8591 97.5244 47.2064 97.6097C47.5537 97.6951 47.9157 97.702 48.2659 97.6299C48.6162 97.5577 48.946 97.4084 49.2313 97.1927C49.5165 96.977 49.75 96.7005 49.9147 96.3832C50.1336 95.9923 50.1931 95.5321 50.0809 95.0985C49.9941 94.7837 49.8163 94.5014 49.5699 94.287C49.3234 94.0726 49.0192 93.9356 48.6953 93.893C48.3713 93.8505 48.042 93.9043 47.7485 94.0478C47.455 94.1913 47.2103 94.4181 47.0451 94.6998L46.9453 94.8549L47.2112 94.5226L47.0783 94.6555L47.4107 94.3897C47.3496 94.4416 47.2826 94.4861 47.2112 94.5226L47.5991 94.3565C47.5253 94.3902 47.4468 94.4126 47.3664 94.4229H47.8096H47.5658H48.009L48.7403 94.8549C48.6758 94.8015 48.6164 94.7421 48.563 94.6777L48.8289 95.021C48.7818 94.9548 48.741 94.8843 48.707 94.8106L48.8732 95.2092C48.832 95.1134 48.8023 95.013 48.7846 94.9102L48.8511 95.3532C48.8346 95.2542 48.8346 95.1532 48.8511 95.0542L48.7957 95.4972C48.8058 95.3941 48.832 95.2932 48.8732 95.1982L48.707 95.5969V95.5415L46.8345 96.3056H46.9343L46.5354 96.1395L46.7127 96.2392L46.3692 95.9845L46.5465 96.1617L46.2916 95.8184C46.347 95.907 46.4024 95.9956 46.4467 96.0842L46.2695 95.6965C46.3019 95.7755 46.3278 95.857 46.347 95.9402L46.2805 95.4972C46.2916 95.5966 46.2916 95.6968 46.2805 95.7962L46.3359 95.3643C46.3241 95.4444 46.3018 95.5226 46.2695 95.5969L46.4357 95.2092L46.3359 95.3754L46.5908 95.0431L48.6073 94.7773H48.5519L48.8954 95.0431C48.7315 94.9126 48.5828 94.764 48.4522 94.6001L48.7181 94.9435C48.5786 94.7635 48.4632 94.5662 48.3746 94.3565L48.5408 94.7552C48.46 94.5629 48.4006 94.3624 48.3636 94.1572L47.9315 95.7741L48.0201 95.7076L47.6766 95.9623C47.7613 95.9042 47.8502 95.8523 47.9425 95.8073L47.5436 95.9734C47.6552 95.9336 47.7702 95.9039 47.8871 95.8848L47.455 95.9402C47.5726 95.9237 47.692 95.9237 47.8096 95.9402L47.3664 95.8737C47.5071 95.8937 47.6448 95.9309 47.7763 95.9845L47.3775 95.8184C47.487 95.8704 47.591 95.9335 47.6877 96.0066L47.3553 95.7408C47.431 95.8092 47.5014 95.8832 47.5658 95.9623L47.2999 95.6301C47.3545 95.6972 47.3993 95.7718 47.4328 95.8516L47.2667 95.4529C47.3026 95.5382 47.3286 95.6274 47.3442 95.7187V95.2757C47.3553 95.3862 47.3553 95.4975 47.3442 95.6079L47.4107 95.165C47.3907 95.2948 47.3535 95.4215 47.2999 95.5415L47.4661 95.1539C47.4177 95.256 47.3582 95.3526 47.2888 95.4418L47.5547 95.1096C47.4707 95.2099 47.3781 95.3025 47.2777 95.3864L47.6101 95.1317C47.5206 95.1976 47.424 95.2533 47.3221 95.2978L47.7209 95.1317C47.6169 95.1715 47.5093 95.2011 47.3996 95.2203L47.8428 95.1539C47.7508 95.1654 47.6578 95.1654 47.5658 95.1539L48.009 95.2092C47.9133 95.1976 47.8199 95.1714 47.732 95.1317L48.1309 95.3089L47.8871 95.165L48.2306 95.4197C48.1365 95.3569 48.054 95.2782 47.9868 95.1871L48.2417 95.5193C48.155 95.4018 48.0807 95.2757 48.0201 95.1428L48.1974 95.5415C48.14 95.4028 48.0991 95.2578 48.0755 95.1096L48.142 95.5526C48.1192 95.4244 48.1192 95.2932 48.142 95.165L48.0755 95.6079C48.0984 95.4992 48.128 95.3919 48.1641 95.2868L47.9979 95.6744C48.0388 95.5867 48.0909 95.5048 48.153 95.4307L47.8871 95.763C47.9527 95.6846 48.0271 95.614 48.1087 95.5526L47.7652 95.8184C47.8473 95.7562 47.9366 95.7042 48.0312 95.6633L47.6323 95.8294C47.7545 95.7846 47.8806 95.7512 48.009 95.7298H47.5658H47.9758H47.5326C47.7036 95.7532 47.8711 95.7979 48.0312 95.8626L47.6323 95.6965C47.7552 95.7519 47.8706 95.8226 47.9758 95.907L47.6434 95.6412C47.7364 95.7176 47.8218 95.8029 47.8982 95.8959L47.6323 95.5526C47.7055 95.6493 47.7686 95.7532 47.8206 95.8626L47.6434 95.464C47.6882 95.5671 47.7216 95.6748 47.7431 95.7851L47.6766 95.3421C47.6932 95.4745 47.6932 95.6084 47.6766 95.7408L47.732 95.2978C47.7099 95.4464 47.6689 95.5915 47.6101 95.7298L47.7763 95.3421C47.7181 95.4854 47.6398 95.6196 47.5436 95.7408L47.8096 95.3975C47.7012 95.5391 47.5745 95.6658 47.4328 95.7741L47.7763 95.5083C47.6621 95.5849 47.5437 95.6551 47.4218 95.7187L47.8206 95.5415C47.6972 95.5987 47.5668 95.6396 47.4328 95.6633L47.876 95.5969C47.7362 95.6135 47.5949 95.6135 47.455 95.5969L47.8982 95.6522C47.7575 95.6323 47.6198 95.5951 47.4882 95.5415L47.8871 95.7076C47.7363 95.6434 47.5916 95.5656 47.455 95.475L47.7985 95.7298C47.6498 95.6178 47.5157 95.4876 47.3996 95.3421L47.6655 95.6744C47.5488 95.5291 47.452 95.369 47.3775 95.1982L47.5547 95.5969C47.4886 95.445 47.4439 95.2848 47.4218 95.1206L47.4882 95.5636C47.4662 95.4205 47.4662 95.2749 47.4882 95.1317L47.4218 95.5747C47.4514 95.393 47.4997 95.2149 47.5658 95.0431L47.3996 95.4418C47.4757 95.2719 47.5725 95.1119 47.6877 94.9656L47.4328 95.2978C47.5479 95.1552 47.6779 95.0252 47.8206 94.9102L47.4882 95.165C47.6551 95.0446 47.8332 94.9408 48.0201 94.8549L47.6212 95.021C47.7973 94.9562 47.9791 94.908 48.1641 94.877L47.7209 94.9435C47.9012 94.9212 48.0835 94.9212 48.2638 94.9435H47.8206C47.9996 94.9693 48.1746 95.0176 48.3414 95.0874L47.9425 94.9213C48.1289 94.9969 48.3041 95.0975 48.4633 95.2203L48.1309 94.9656C48.3083 95.1004 48.4683 95.2567 48.6073 95.4307L48.3414 95.0985C48.4805 95.2707 48.596 95.4606 48.6849 95.6633L48.5187 95.2646C48.5958 95.4496 48.6516 95.6429 48.6849 95.8405L48.6184 95.4086C48.646 95.5847 48.646 95.7641 48.6184 95.9402L48.6738 95.5083C48.6517 95.676 48.607 95.8399 48.5408 95.9956L48.7181 95.5969C48.646 95.7665 48.5529 95.9265 48.4411 96.0731L48.6959 95.7408C48.5638 95.9172 48.4071 96.0739 48.2306 96.206L48.563 95.9512C48.3815 96.0855 48.1843 96.1971 47.9758 96.2835L48.3746 96.1174C48.1684 96.1998 47.9524 96.2556 47.732 96.2835L48.1752 96.2281C47.9727 96.2502 47.7683 96.2502 47.5658 96.2281L48.009 96.2835C47.8448 96.2614 47.6845 96.2167 47.5326 96.1506L47.9204 96.3167C47.7512 96.2503 47.5941 96.1568 47.455 96.0398L47.7874 96.3056C47.6517 96.1902 47.5291 96.0602 47.4218 95.918L47.6766 96.2613C47.5558 96.1008 47.4553 95.926 47.3775 95.7408L47.5436 96.1395C47.4525 95.9194 47.3892 95.6887 47.3553 95.4529L47.4218 95.8959C47.394 95.6827 47.394 95.4668 47.4218 95.2536L47.3664 95.6855C47.3943 95.4723 47.4502 95.2638 47.5326 95.0653L47.3664 95.464C47.4325 95.3155 47.5142 95.1744 47.6101 95.0431L47.3553 95.3864L47.4218 95.2978C47.723 94.9797 47.8966 94.5618 47.9093 94.1239C47.9042 93.6845 47.7295 93.2639 47.4218 92.95C47.109 92.6404 46.6875 92.4655 46.2473 92.4627C46.0289 92.4617 45.8126 92.5043 45.6109 92.5879C45.4092 92.6716 45.2263 92.7947 45.0728 92.95L44.9731 92.9721Z" fill="#2D2FEE"/>
<path d="M19.0575 69.7928C18.9331 70.4174 18.9377 71.0609 19.0711 71.6836C19.2045 72.3064 19.4638 72.8953 19.8331 73.4143C20.0466 73.7453 20.3701 73.9905 20.7467 74.1065C21.1233 74.2225 21.5288 74.2019 21.8917 74.0483C22.2546 73.8947 22.5516 73.6181 22.7303 73.2671C22.9091 72.9161 22.9582 72.5132 22.869 72.1296L22.4701 70.0033C22.3535 69.5792 22.0734 69.2186 21.6913 69.0006C21.3091 68.7826 20.856 68.725 20.4314 68.8404C20.0222 68.9756 19.6798 69.2616 19.474 69.6401C19.2682 70.0187 19.2143 70.4614 19.3234 70.8782C19.5353 72.3683 20.0642 73.7958 20.8746 75.0644C21.0452 75.3376 21.2905 75.5562 21.5816 75.6942C21.8727 75.8322 22.1973 75.8839 22.5168 75.8431C22.8364 75.8023 23.1376 75.6707 23.3846 75.464C23.6316 75.2573 23.8141 74.9841 23.9105 74.6768C24.1077 73.9066 24.1475 73.1047 24.0276 72.3188C23.9076 71.5329 23.6304 70.7793 23.2125 70.1029C23.0225 69.7989 22.7398 69.5639 22.4061 69.4326C22.0724 69.3013 21.7053 69.2806 21.359 69.3737C21.0127 69.4667 20.7054 69.6686 20.4825 69.9494C20.2597 70.2303 20.133 70.5753 20.1212 70.9335C19.967 72.3815 20.3407 73.8365 21.1738 75.0312C22.038 76.2937 24.3648 75.9614 24.2761 74.1895C24.2351 73.0324 23.883 71.9076 23.2568 70.9335C23.0663 70.6288 22.7826 70.3935 22.4479 70.2625C22.1131 70.1315 21.7451 70.1118 21.3982 70.2062C21.0514 70.3007 20.7442 70.5043 20.5222 70.7869C20.3001 71.0695 20.1751 71.416 20.1655 71.7752C20.0966 73.1093 20.4877 74.4267 21.2735 75.5074C22.0601 76.6149 23.9659 76.6149 24.3094 75.1087C24.5109 74.3526 24.4695 73.5523 24.1912 72.821C23.9128 72.0896 23.4115 71.4642 22.7582 71.0332C22.5389 70.9053 22.2932 70.8294 22.04 70.8111C21.7868 70.7929 21.5327 70.8329 21.2974 70.9281C21.0621 71.0233 20.8516 71.1711 20.6823 71.3601C20.513 71.5492 20.3893 71.7745 20.3206 72.0188C20.1089 72.7678 20.0913 73.5582 20.2697 74.3158C20.448 75.0734 20.8163 75.7731 21.34 76.3491C21.5481 76.5491 21.8042 76.6924 22.0836 76.765C22.3631 76.8377 22.6565 76.8372 22.9358 76.7639C23.215 76.6905 23.4707 76.5465 23.6783 76.3459C23.8858 76.1453 24.0383 75.8946 24.121 75.6181C24.6196 74.0455 23.9881 71.6534 22.1488 71.2547C19.4675 70.6788 19.5893 73.9901 19.5783 75.6846L22.8468 75.2527C22.7177 74.3819 22.4324 73.5415 22.0048 72.7719C21.8561 72.5242 21.6459 72.3192 21.3944 72.1768C21.143 72.0345 20.8589 71.9597 20.5699 71.9597C20.2809 71.9597 19.9969 72.0345 19.7454 72.1768C19.494 72.3192 19.2837 72.5242 19.1351 72.7719C18.7733 73.4412 18.5756 74.1867 18.5583 74.9472C18.541 75.7077 18.7045 76.4614 19.0354 77.1464C19.7555 78.8409 21.9937 77.7334 22.1377 76.3048C22.2305 75.1285 22.0006 73.9492 21.4729 72.8938C21.3045 72.6165 21.059 72.3942 20.7664 72.2539C20.4738 72.1136 20.1467 72.0614 19.8249 72.1037C19.5032 72.1459 19.2006 72.2808 18.9542 72.4919C18.7078 72.703 18.5281 72.9811 18.437 73.2924C18.1858 74.4003 18.2746 75.5582 18.6919 76.6149C18.7506 77.0554 18.9821 77.4546 19.3353 77.7246C19.6886 77.9946 20.1347 78.1133 20.5755 78.0546C21.0162 77.9958 21.4156 77.7645 21.6857 77.4114C21.9559 77.0583 22.0746 76.6124 22.0158 76.1719C22.0427 75.8068 21.9858 75.4405 21.8495 75.1007C21.7131 74.761 21.501 74.4569 21.2292 74.2116C21.0215 74.0113 20.7654 73.868 20.486 73.7959C20.2065 73.7237 19.9131 73.725 19.6342 73.7997C19.3554 73.8744 19.1007 74.0199 18.8948 74.2221C18.6889 74.4243 18.5388 74.6763 18.4592 74.9536C18.2916 75.6569 18.2503 76.3844 18.3373 77.1021L21.4286 76.2605C20.9189 75.3142 20.6098 74.2732 20.5207 73.2022C20.4315 72.1313 20.5642 71.0534 20.9104 70.036C21.2567 69.0186 21.809 68.0835 22.533 67.289C23.2569 66.4945 24.137 65.8577 25.1182 65.4183L23.1127 62.8047C21.6118 64.1595 20.4455 65.8436 19.7054 67.7248C18.9653 69.606 18.6714 71.633 18.847 73.6468L22.171 73.2149C21.961 72.3696 21.8384 71.5049 21.8053 70.6345C21.7278 68.8293 18.98 68.2978 18.5368 70.1915C18.336 70.9946 18.2723 71.8258 18.3484 72.6501C18.3586 72.9739 18.462 73.2879 18.6463 73.5544C18.8306 73.8209 19.088 74.0285 19.3874 74.1525C19.6869 74.2764 20.0157 74.3113 20.3346 74.2531C20.6534 74.1948 20.9486 74.0458 21.1849 73.824C22.3706 72.81 23.378 71.6047 24.1653 70.258C25.1182 68.6743 22.8247 66.8027 21.5616 68.2535C21.2988 68.5061 21.0958 68.8142 20.9674 69.1552C20.8389 69.4962 20.7883 69.8617 20.8192 70.2247C20.8327 70.6193 20.9854 70.9963 21.2503 71.2891C21.5152 71.5819 21.8751 71.7717 22.2665 71.8247C22.6579 71.8777 23.0554 71.7907 23.3887 71.5789C23.722 71.3672 23.9697 71.0444 24.0878 70.6677C24.6972 68.6743 27.3231 68.8183 28.7635 69.6821C30.9019 70.9667 32.2647 73.4032 33.3727 75.5517C35.7881 80.2473 37.162 85.4303 40.0207 89.9488C40.2506 90.3202 40.6144 90.5894 41.037 90.7006C41.4596 90.8119 41.9088 90.7568 42.292 90.5468L45.0952 89.1293C45.8819 88.7306 46.7461 88.2765 46.9788 87.3352C47.0361 86.9439 47.0115 86.545 46.9066 86.1638C46.8017 85.7825 46.6188 85.4272 46.3694 85.1202C45.749 84.1456 45.1063 83.1821 44.4859 82.2186L41.871 84.2342C42.441 84.8451 42.8952 85.5543 43.2117 86.3274L45.8265 84.3118L44.508 82.861C44.245 82.6143 43.9094 82.4592 43.551 82.4187C43.1927 82.3783 42.8308 82.4546 42.5194 82.6364C42.208 82.8181 41.9637 83.0956 41.8229 83.4275C41.6821 83.7593 41.6523 84.1278 41.738 84.4779L42.5358 86.9365L44.9734 85.0648C44.5096 84.7058 44.1469 84.2327 43.9208 83.6916L41.0511 85.3639C41.3394 85.8599 41.5592 86.3926 41.7048 86.9475L44.4859 85.3306C44.0077 84.8759 43.6039 84.349 43.2892 83.7691C43.0961 83.4668 42.8115 83.2341 42.4768 83.1048C42.1421 82.9756 41.7749 82.9565 41.4286 83.0505C41.0823 83.1444 40.7751 83.3464 40.5518 83.6271C40.3284 83.9078 40.2005 84.2524 40.1869 84.6108V85.6075L43.0233 84.4336C42.7491 84.125 42.5214 83.778 42.3474 83.4036C41.5164 81.7535 38.5803 82.9385 39.3115 84.6883C39.6305 85.4579 39.8789 86.2549 40.0539 87.0694L43.1009 85.7958C42.8294 85.3187 42.6314 84.8035 42.5136 84.2675L39.4777 85.5521C39.7808 86.1101 40.0081 86.706 40.1536 87.3241L43.1895 86.0394L42.5358 84.5111C41.8488 82.9274 39.4556 83.8356 39.4334 85.3528C39.4165 85.8526 39.5065 86.3503 39.6976 86.8125C39.8887 87.2747 40.1764 87.6908 40.5414 88.0329C41.4721 88.9299 43.5773 88.3762 43.3779 86.8589L42.6688 81.4323L39.5664 82.2629L40.5525 83.9241C40.766 84.2552 41.0895 84.5004 41.4661 84.6164C41.8427 84.7324 42.2482 84.7118 42.611 84.5582C42.9739 84.4046 43.2709 84.128 43.4497 83.777C43.6285 83.4259 43.6776 83.0231 43.5884 82.6395C43.5108 82.3907 43.5108 82.1242 43.5884 81.8753L40.2644 82.3072C40.9786 84.2731 42.2681 85.9787 43.9651 87.2023C45.0731 88.0329 46.9567 86.6375 46.4137 85.3306C44.1091 79.7933 42.1923 73.7354 38.7132 68.7961C38.4831 68.4326 38.121 68.1724 37.7029 68.0704C37.2848 67.9684 36.8434 68.0324 36.4716 68.2491C36.0998 68.4658 35.8266 68.8181 35.7095 69.2321C35.5923 69.646 35.6404 70.0892 35.8435 70.4684C37.6752 74.6261 38.9744 78.9982 39.7104 83.4812L42.9125 82.5952C41.5667 78.4513 39.78 74.4638 37.5831 70.701C36.6524 69.1062 33.96 70.1472 34.5472 71.9746L39.0567 86.0948L42.0926 84.8212C39.655 79.1952 38.1371 72.8605 33.3838 68.63C31.3605 66.7391 28.7877 65.5406 26.0378 65.2079C23.1349 64.931 20.3317 66.5147 20.0879 69.6378C19.9439 71.4873 22.9798 71.8527 23.3565 70.0808C23.5179 69.2005 23.7704 68.3395 24.1099 67.5115C24.3537 66.9799 24.8523 65.6288 25.4395 65.3851C26.0268 65.1415 27.0683 65.7395 27.5779 65.9388C28.2869 66.2286 28.9722 66.5729 29.6277 66.9688C32.2491 68.5437 34.3491 70.8545 35.6663 73.6136L38.27 71.598C33.8381 67.5225 28.8411 63.8457 22.5144 64.7095L24.1321 67.4893C27.6887 64.6209 32.1539 69.0398 34.4807 71.3876C34.7675 71.6689 35.1465 71.8368 35.5476 71.8603C35.9487 71.8837 36.3447 71.7612 36.6624 71.5153C36.9801 71.2694 37.1979 70.9168 37.2755 70.5227C37.3531 70.1287 37.2852 69.7199 37.0845 69.372C36.2035 67.7771 34.9998 66.3832 33.5499 65.2792C32.1001 64.1752 30.436 63.3852 28.6638 62.9597L28.2206 66.2822C34.7909 66.548 37.295 74.0344 38.9237 79.2174C39.5664 81.2551 42.7795 80.3249 42.1369 78.3425C39.9874 71.5316 36.597 63.3031 28.2206 62.9597C27.8224 62.9649 27.4393 63.1129 27.141 63.3766C26.8427 63.6404 26.6491 64.0024 26.5954 64.3969C26.5418 64.7913 26.6315 65.1919 26.8485 65.5257C27.0654 65.8595 27.395 66.1044 27.7774 66.2157C29.1344 66.5298 30.4095 67.1273 31.519 67.9691C32.6285 68.8108 33.5472 69.8777 34.2148 71.0996L36.8296 69.0951C34.7355 66.9688 32.5085 64.8314 29.6166 63.8679C28.3053 63.4076 26.8984 63.2881 25.5281 63.5205C24.1578 63.753 22.8691 64.3298 21.7832 65.1968C20.3206 66.3708 21.9826 68.1759 23.4008 67.9655C28.3425 67.2567 32.575 70.8892 35.9211 74.0012C36.211 74.267 36.5854 74.4221 36.9784 74.4393C37.3713 74.4566 37.7579 74.3349 38.07 74.0956C38.3821 73.8563 38.5999 73.5148 38.6852 73.1309C38.7704 72.7471 38.7175 72.3455 38.5359 71.9967C36.6449 68.1491 33.4769 65.0765 29.5723 63.3031C27.6223 62.4282 25.1404 61.4204 23.279 62.9819C21.4175 64.5434 20.5865 67.1238 20.1433 69.2945L23.4673 69.7375C23.6335 67.6222 27.6666 68.9844 28.6638 69.4827C30.4805 70.4351 32.0479 71.8008 33.2398 73.4696C36.1316 77.3679 37.3726 82.2408 39.2783 86.6375C40.0317 88.3651 42.8793 87.1358 42.3142 85.3528L37.8047 71.2436L34.6469 72.34C36.7017 75.8435 38.3769 79.5561 39.6439 83.4147C39.7715 83.8275 40.055 84.1744 40.4343 84.3817C40.8135 84.589 41.2586 84.6406 41.6752 84.5253C42.0918 84.41 42.4471 84.1371 42.6657 83.7643C42.8843 83.3916 42.9489 82.9484 42.846 82.5287C42.0373 77.7697 40.6262 73.1328 38.6467 68.7297L35.7549 70.4352C39.0789 75.153 40.9181 80.9008 43.1119 86.1834L45.5606 84.3007C44.5545 83.5704 43.7842 82.5617 43.3446 81.3991C43.2332 81.0169 42.9882 80.6875 42.6543 80.4706C42.3203 80.2538 41.9195 80.1641 41.5249 80.2177C41.1303 80.2714 40.7681 80.4649 40.5042 80.763C40.2403 81.0612 40.0923 81.4441 40.0871 81.8421C40.0237 82.3949 40.0651 82.9547 40.209 83.4922L43.2449 82.2076L42.2699 80.5574C41.4943 79.2506 38.9459 79.6825 39.1675 81.3991L39.8766 86.8257L42.7131 85.6518C42.5579 85.5964 42.5136 85.4857 42.569 85.3196L39.4777 86.1612L40.1314 87.6896C40.896 89.4615 43.5995 88.1658 43.1673 86.4049C42.9438 85.5085 42.6049 84.6448 42.1591 83.8355C41.2394 82.1522 38.6911 83.3261 39.1232 85.1202C39.3122 85.9334 39.6222 86.7136 40.0428 87.4348C40.2565 87.7632 40.5788 88.0062 40.9535 88.1213C41.3281 88.2365 41.7313 88.2165 42.0927 88.0649C42.4541 87.9133 42.7508 87.6397 42.931 87.2917C43.1112 86.9438 43.1635 86.5437 43.0787 86.1612C42.9188 85.354 42.6928 84.5614 42.4028 83.7913L39.3669 85.0759C39.6822 85.6926 40.0811 86.2628 40.5525 86.7704C40.7883 86.9957 41.0845 87.1478 41.4051 87.2081C41.7257 87.2683 42.057 87.2342 42.3586 87.1099C42.6602 86.9856 42.9191 86.7763 43.104 86.5077C43.2889 86.239 43.3917 85.9224 43.4 85.5964V84.5997L40.3087 85.4414C40.7657 86.2623 41.3448 87.0092 42.0261 87.6563C42.2891 87.903 42.6248 88.0581 42.9831 88.0986C43.3414 88.139 43.7033 88.0627 44.0147 87.8809C44.3261 87.6992 44.5704 87.4217 44.7112 87.0898C44.852 86.758 44.8818 86.3895 44.7961 86.0394C44.5744 85.2091 44.2427 84.4121 43.81 83.6694C42.702 81.7867 40.0428 83.4369 40.9403 85.3417C41.4402 86.3779 42.2045 87.2641 43.1563 87.911C43.4427 88.0718 43.7701 88.1448 44.0977 88.1209C44.4254 88.0969 44.7387 87.977 44.9986 87.7763C45.2586 87.5755 45.4536 87.3027 45.5595 86.9919C45.6653 86.681 45.6773 86.3459 45.5938 86.0283L44.7961 83.5698L42.015 85.1867L43.3335 86.6375C44.6964 88.1547 46.6575 86.2277 45.9373 84.6219C45.4808 83.5988 44.8511 82.6621 44.0759 81.8532C42.8017 80.5021 40.4306 82.274 41.4721 83.8688L42.6798 85.7404C43.0819 86.2045 43.4039 86.7322 43.6327 87.3019L43.7989 86.0173C43.9872 85.7182 43.6659 86.0173 43.4887 86.1169C43.123 86.2831 42.7685 86.4824 42.3807 86.6596L40.4417 87.6452L42.6577 88.2322C39.0567 82.6949 37.8379 75.9615 33.971 70.5791C32.2758 68.2092 29.949 66.0164 26.891 65.7616C25.5393 65.6257 24.1814 65.9527 23.04 66.6892C21.8986 67.4256 21.0413 68.5278 20.6087 69.815L23.8662 70.2469L23.6335 70.6234L21.0186 68.6078C20.3631 69.6998 19.5321 70.6764 18.5589 71.4983L21.3954 72.6723C21.3286 72.1481 21.3511 71.6163 21.4618 71.0996L18.2044 70.6567C18.2493 71.822 18.4127 72.9797 18.6919 74.112C19.124 75.895 22.1266 75.5738 21.9494 73.669C21.7871 72.0909 22.0041 70.4969 22.5822 69.0195C23.1604 67.5421 24.083 66.224 25.2733 65.1747C26.7469 63.8346 24.8744 61.7969 23.2568 62.5611C21.8996 63.2255 20.6914 64.1581 19.705 65.3025C18.7186 66.4469 17.9746 67.7792 17.5179 69.2191C17.0612 70.659 16.9013 72.1764 17.0478 73.6798C17.1944 75.1832 17.6443 76.6413 18.3706 77.966C19.1018 79.3392 21.6945 78.7966 21.4729 77.1243C21.401 76.7028 21.401 76.2722 21.4729 75.8507L18.6919 76.5927L18.5035 76.194L21.7721 75.751C21.5123 75.2585 21.4227 74.6939 21.5172 74.1452L18.4703 74.5439C18.6997 75.0929 18.7725 75.6947 18.6808 76.2826L21.7721 75.452C21.7137 75.2851 21.6924 75.1075 21.7097 74.9316C21.7269 74.7557 21.7822 74.5856 21.8718 74.4331H19.0021C19.2712 74.9554 19.4439 75.5219 19.5118 76.1054C19.7666 77.9992 22.7693 77.4898 22.7693 75.6624V73.9237C22.7693 73.6358 22.7693 73.5915 22.7693 73.7908L21.7721 74.555C21.0741 74.0787 20.7527 74.0344 20.8303 74.4442C20.8472 74.4954 20.85 74.5502 20.8383 74.6029C20.8266 74.6555 20.8008 74.704 20.7638 74.7432L23.5338 74.0123C23.4101 73.8591 23.3295 73.6758 23.3003 73.4811C23.2711 73.2864 23.2943 73.0875 23.3676 72.9048L20.93 73.9016C20.9593 73.95 20.9749 74.0055 20.9749 74.0621C20.9749 74.1187 20.9593 74.1743 20.93 74.2227L23.9659 73.8351C23.4997 73.2539 23.2702 72.5182 23.3233 71.7752L20.2209 72.6169C20.5555 73.0765 20.7516 73.6221 20.786 74.1895L23.8773 73.3478C23.3726 72.6508 23.1581 71.7854 23.279 70.9335L20.1766 71.7752C20.3738 72.0676 20.5081 72.3977 20.571 72.7446C20.634 73.0916 20.6242 73.4478 20.5422 73.7908L23.5781 73.3921C22.9278 72.3657 22.5117 71.2086 22.3593 70.0033L19.1572 70.8782L19.5561 73.0156L22.592 71.7309C22.4444 71.5878 22.3286 71.4152 22.2522 71.2244C22.1759 71.0336 22.1406 70.8288 22.1488 70.6234C22.2556 70.2052 22.2009 69.7622 21.9956 69.3825C21.7903 69.0028 21.4494 68.7143 21.0408 68.5746C20.6149 68.4619 20.1617 68.5205 19.7785 68.7379C19.3953 68.9553 19.1126 69.3141 18.991 69.7375L19.0575 69.7928Z" fill="#2D2FEE"/>
<path d="M19.4008 104.246C18.2928 104.169 17.7277 102.186 17.5837 101.356C17.3292 99.8385 17.4743 98.2813 18.0047 96.8372C19.3897 93.2711 23.456 93.8359 26.4587 94.733C28.0539 95.2155 29.5348 96.0157 30.8125 97.0853C32.0902 98.155 33.1382 99.4719 33.8933 100.957C35.5664 103.859 37.04 106.771 39.8099 108.798C41.5384 110.06 43.2004 107.181 41.483 105.93C38.979 104.091 37.8045 100.935 36.2201 98.3766C34.4583 95.3912 31.7183 93.1064 28.4641 91.9089C25.2621 90.7129 20.9963 89.9266 17.9272 91.8425C15.2237 93.5369 14.16 96.7929 14.1489 99.8384C14.1489 103.105 15.6115 107.27 19.3786 107.591C21.506 107.768 21.4949 104.446 19.3786 104.268L19.4008 104.246Z" fill="#2D2FEE"/>
<path d="M20.5754 107.048L23.6667 103.726C23.9701 103.41 24.1395 102.989 24.1395 102.552C24.1395 102.114 23.9701 101.693 23.6667 101.378C23.3122 101.012 21.9715 99.6724 22.6363 99.0854C23.3011 98.4984 24.9963 99.5727 25.4949 99.8606C27.4787 101.198 29.1432 102.957 30.3701 105.01C31.7266 107.241 33.3734 109.282 35.2674 111.079C36.2424 111.91 37.3836 112.486 38.5913 111.755C39.7633 110.926 40.8573 109.991 41.8599 108.964C43.4776 107.546 41.1176 105.21 39.511 106.616L38.0484 107.901L37.4501 108.41L37.018 108.798C36.8296 108.953 36.8186 108.975 37.018 108.798H37.9044C37.4501 108.743 36.9515 108.067 36.6191 107.69C36.2867 107.314 35.777 106.749 35.3892 106.251C34.5583 105.143 33.827 104.036 33.0625 102.928C31.6576 100.715 29.8543 98.7812 27.7441 97.2249C25.7387 95.8737 22.315 94.6334 20.3095 96.6268C18.3041 98.6203 19.5893 101.788 21.34 103.615V101.267L18.2487 104.59C16.7972 106.162 19.1461 108.521 20.5976 106.948L20.5754 107.048Z" fill="#2D2FEE"/>
<path d="M40.2642 112.585C39.8429 113.374 39.7436 114.295 39.9872 115.155C40.2395 115.993 40.7762 116.718 41.5051 117.204C41.6569 117.298 41.8162 117.379 41.9816 117.447C42.1561 117.524 42.338 117.584 42.5245 117.624C43.0419 117.746 43.5805 117.746 44.0978 117.624C44.9778 117.37 45.7343 116.803 46.2252 116.03C46.4709 115.642 46.6315 115.207 46.6965 114.752C46.7614 114.298 46.7292 113.835 46.6019 113.394C46.3381 112.523 45.7515 111.786 44.9621 111.334C44.5721 111.103 44.1402 110.952 43.6913 110.889C43.2424 110.826 42.7856 110.853 42.3472 110.969C41.6409 111.174 41.0199 111.602 40.5766 112.188C40.1334 112.775 39.8917 113.489 39.8875 114.224C39.8933 114.75 40.0345 115.265 40.2974 115.72C40.5242 116.113 40.8322 116.454 41.2009 116.719C41.5696 116.985 41.9905 117.169 42.4359 117.259C42.7622 117.314 43.0956 117.314 43.422 117.259C43.8304 117.21 44.2229 117.071 44.5715 116.853C44.9201 116.635 45.2162 116.342 45.4385 115.996C45.6652 115.691 45.8204 115.339 45.8928 114.966C46.0255 114.477 46.0255 113.961 45.8928 113.471C45.7507 113.005 45.487 112.585 45.1287 112.254C44.7705 111.923 44.3305 111.693 43.8541 111.589C43.3691 111.479 42.8655 111.479 42.3804 111.589C41.9106 111.721 41.483 111.973 41.1395 112.32C40.7612 112.722 40.5207 113.234 40.4526 113.782C40.3913 114.304 40.4758 114.832 40.6968 115.309C40.9178 115.786 41.2666 116.193 41.7046 116.484C42.1157 116.765 42.6024 116.916 43.1007 116.916C43.7307 116.916 44.3385 116.683 44.8069 116.262C45.1716 115.937 45.443 115.52 45.5936 115.055C45.7541 114.576 45.7771 114.062 45.6601 113.571C45.5473 113.099 45.2966 112.671 44.9399 112.342C44.7674 112.18 44.5736 112.042 44.3638 111.932C44.019 111.757 43.6418 111.655 43.2558 111.633C42.7573 111.599 42.259 111.702 41.8154 111.932C41.6056 112.042 41.4117 112.18 41.2392 112.342C40.9089 112.627 40.6893 113.019 40.6188 113.449C40.6056 113.823 40.6742 114.195 40.8196 114.539C40.965 114.883 41.1839 115.192 41.4608 115.443C41.7436 115.751 42.0819 116.002 42.458 116.185C42.8449 116.404 43.302 116.464 43.7322 116.351C43.941 116.296 44.1368 116.201 44.3081 116.069C44.4793 115.938 44.6226 115.774 44.7294 115.587C44.9329 115.221 45.0361 114.809 45.0285 114.391C45.0202 113.975 44.9085 113.568 44.7034 113.207C44.4984 112.845 44.2065 112.54 43.8541 112.32C43.4939 112.108 43.0863 111.99 42.6685 111.976L42.2253 112.032C42.0146 112.082 41.8201 112.185 41.6603 112.331C41.3689 112.543 41.158 112.847 41.0619 113.195C40.9288 113.717 40.9643 114.268 41.1632 114.77C41.3622 115.271 41.7146 115.696 42.1699 115.985C42.4702 116.137 42.8009 116.218 43.1371 116.222C43.4733 116.227 43.8061 116.155 44.1104 116.012C44.4146 115.869 44.6824 115.659 44.8933 115.397C45.1042 115.135 45.2527 114.829 45.3277 114.501C45.4347 114.071 45.3754 113.616 45.1615 113.228C44.9373 112.847 44.5714 112.57 44.1437 112.458C43.716 112.346 43.2613 112.408 42.879 112.63C42.5145 112.856 42.2433 113.206 42.1145 113.615C42.1197 113.648 42.1197 113.682 42.1145 113.715L42.2807 113.316C42.2582 113.374 42.2243 113.427 42.181 113.471L42.4469 113.139L42.314 113.272L42.6464 113.017C42.5947 113.053 42.5389 113.083 42.4802 113.106L42.879 112.94H42.7461L43.1893 112.884H43.0896L43.9316 113.106C43.8871 113.087 43.846 113.061 43.8098 113.028L44.1422 113.294L43.976 113.128L44.2419 113.46C44.2023 113.413 44.1688 113.361 44.1422 113.305L44.3084 113.693C44.2746 113.623 44.2521 113.548 44.2419 113.471L44.2973 113.914V113.693L44.2419 114.136C44.2367 114.103 44.2367 114.069 44.2419 114.036L42.6353 115.266L42.1921 115.21C42.2436 115.204 42.2957 115.204 42.3472 115.21L41.9594 115.044L42.1367 115.144L41.7932 114.889C41.8466 114.931 41.8949 114.98 41.9373 115.033L41.6824 114.701C41.7233 114.757 41.7603 114.816 41.7932 114.878L41.6159 114.479C41.6473 114.558 41.6696 114.639 41.6824 114.723V114.28V114.446V114.003C41.6938 114.069 41.6938 114.136 41.6824 114.202L41.8486 113.804L44.12 113.206C43.9772 113.135 43.8402 113.054 43.71 112.962L44.0535 113.217C43.9118 113.108 43.7852 112.982 43.6768 112.84L43.9427 113.183C43.847 113.056 43.7652 112.919 43.699 112.774L43.8652 113.161L43.699 114.446C43.6969 114.42 43.6969 114.394 43.699 114.368L43.4441 114.712C43.4864 114.658 43.5348 114.61 43.5882 114.568L43.2447 114.823L43.4552 114.701L43.0674 114.867C43.1531 114.834 43.2424 114.812 43.3333 114.8H42.9012H43.2225L42.7793 114.734L43.0563 114.811L42.6574 114.645C42.7313 114.679 42.8017 114.72 42.868 114.767L42.5356 114.512C42.6025 114.559 42.6622 114.615 42.7128 114.679L42.4469 114.346C42.4906 114.399 42.5244 114.459 42.5467 114.524L42.3804 114.125C42.4077 114.201 42.4299 114.278 42.4469 114.357L42.3804 113.914C42.3915 113.999 42.3915 114.085 42.3804 114.169L42.4359 113.726C42.4271 113.833 42.4009 113.938 42.3583 114.036L42.5245 113.638C42.4831 113.726 42.435 113.811 42.3804 113.892L42.6353 113.56C42.5745 113.632 42.5078 113.699 42.4359 113.759L42.7683 113.494C42.718 113.535 42.662 113.568 42.602 113.593L42.9898 113.427L42.7572 113.494H43.2004H43.0009H43.433H43.2114L43.5992 113.66C43.5178 113.618 43.44 113.57 43.3666 113.516L43.699 113.77C43.6219 113.716 43.5545 113.648 43.4995 113.571L43.7544 113.903C43.6886 113.818 43.6328 113.725 43.5882 113.626L43.7544 114.014C43.7082 113.916 43.6782 113.811 43.6657 113.704L43.7211 114.147C43.7156 114.066 43.7156 113.984 43.7211 113.903L43.6657 114.346C43.6777 114.264 43.6962 114.182 43.7211 114.103L43.5549 114.501C43.5889 114.428 43.6297 114.357 43.6768 114.291L43.422 114.623C43.4717 114.562 43.5274 114.507 43.5882 114.457L43.2447 114.723L43.4884 114.579L43.0896 114.745C43.1897 114.708 43.2938 114.682 43.3998 114.667H42.9566H43.3112L42.868 114.601C42.9892 114.622 43.1079 114.656 43.2225 114.701L42.8237 114.535C42.9238 114.571 43.0173 114.623 43.1007 114.69L42.7683 114.435C42.8291 114.485 42.8847 114.54 42.9344 114.601L42.6685 114.269C42.723 114.332 42.7678 114.403 42.8015 114.479L42.6353 114.081C42.6714 114.173 42.6974 114.27 42.7128 114.368L42.6574 113.925C42.6686 114.04 42.6686 114.155 42.6574 114.269L42.7128 113.826C42.7021 113.956 42.6684 114.084 42.6131 114.202L42.7793 113.804C42.7303 113.924 42.6631 114.036 42.5799 114.136L42.8458 113.804C42.7702 113.89 42.6888 113.972 42.602 114.047L42.9344 113.782C42.8562 113.844 42.7706 113.896 42.6796 113.937L43.0674 113.77C42.9715 113.809 42.8709 113.835 42.7683 113.848L43.2114 113.793H42.8901L43.3333 113.848C43.1949 113.835 43.0599 113.797 42.9344 113.737L43.3222 113.903C43.207 113.856 43.0988 113.792 43.0009 113.715L43.3444 113.981C43.2279 113.896 43.1236 113.795 43.0342 113.682L43.3001 114.025C43.2251 113.926 43.1619 113.818 43.1117 113.704L43.2779 114.092C43.223 113.981 43.1891 113.86 43.1782 113.737L43.2336 114.18C43.2223 114.051 43.2223 113.922 43.2336 113.793L43.1782 114.224C43.1981 114.084 43.2354 113.946 43.289 113.815L43.1228 114.202C43.1859 114.071 43.26 113.945 43.3444 113.826L43.0896 114.169C43.1895 114.038 43.3048 113.919 43.433 113.815L43.1007 114.081C43.2032 114.001 43.3148 113.934 43.433 113.881L43.0342 114.047C43.1658 113.994 43.3034 113.956 43.4441 113.937L43.0009 113.992C43.1515 113.97 43.3046 113.97 43.4552 113.992L43.012 113.937C43.1762 113.959 43.3365 114.003 43.4884 114.069L43.0896 113.903C43.2432 113.971 43.3883 114.056 43.5217 114.158L43.1893 113.903C43.3235 114.004 43.4428 114.124 43.5438 114.258L43.289 113.914C43.3776 114.035 43.4519 114.165 43.5106 114.302L43.3444 113.914C43.4083 114.051 43.4494 114.197 43.4663 114.346V113.903C43.4774 114.029 43.4774 114.155 43.4663 114.28V113.837C43.4427 113.989 43.4018 114.137 43.3444 114.28L43.5106 113.881C43.4443 114.026 43.3626 114.164 43.2668 114.291L43.5328 113.948C43.4212 114.083 43.2948 114.206 43.156 114.313L43.4995 114.047C43.3614 114.157 43.2084 114.246 43.0452 114.313L43.4441 114.147C43.3015 114.204 43.1528 114.245 43.0009 114.269L43.4441 114.202C43.3047 114.225 43.1626 114.225 43.0231 114.202L43.4663 114.258C43.3332 114.241 43.2029 114.208 43.0785 114.158L43.4774 114.324C43.3435 114.265 43.2171 114.191 43.1007 114.103L43.4441 114.368C43.3225 114.269 43.2112 114.158 43.1117 114.036L43.3666 114.368C43.2646 114.227 43.1791 114.075 43.1117 113.914L43.2779 114.313C43.2131 114.153 43.1684 113.986 43.145 113.815L43.2004 114.258C43.1782 114.1 43.1782 113.939 43.2004 113.782L43.145 114.224C43.1649 114.084 43.2021 113.946 43.2558 113.815L43.0896 114.213C43.0854 114.173 43.0854 114.132 43.0896 114.092C43.3034 113.703 43.3628 113.248 43.2558 112.818C43.1351 112.402 42.8622 112.046 42.4913 111.821C42.1106 111.6 41.6576 111.538 41.2318 111.651C40.8059 111.763 40.4419 112.039 40.2199 112.419L40.2642 112.585Z" fill="#2D2FEE"/>
<path d="M16.7085 99.5948C16.7354 100.135 16.8686 100.664 17.1006 101.153C17.3326 101.641 17.6587 102.079 18.0602 102.441C18.3516 102.704 18.7261 102.856 19.1182 102.87C19.5103 102.885 19.8951 102.762 20.2053 102.521C20.5155 102.281 20.7315 101.94 20.8153 101.557C20.8992 101.173 20.8456 100.773 20.664 100.425L19.9992 98.8749C19.268 97.1694 16.2985 98.3987 16.9633 100.16C17.424 101.405 18.1456 102.538 19.0796 103.482C19.3158 103.704 19.611 103.853 19.9299 103.911C20.2487 103.969 20.5776 103.934 20.877 103.81C21.1765 103.686 21.4338 103.479 21.6181 103.212C21.8024 102.946 21.9058 102.632 21.916 102.308C21.927 100.972 21.4092 99.6866 20.4757 98.7309C19.556 97.7674 17.4619 98.4319 17.6392 99.9048C17.74 101.234 18.3326 102.477 19.3012 103.393C19.5633 103.645 19.9003 103.805 20.2613 103.848C20.6223 103.891 20.9875 103.816 21.3018 103.633C21.616 103.451 21.8622 103.17 22.003 102.835C22.1438 102.5 22.1716 102.129 22.0822 101.776C21.8309 100.852 21.333 100.014 20.6419 99.3511C20.3789 99.1045 20.0432 98.9493 19.6849 98.9089C19.3265 98.8684 18.9647 98.9447 18.6533 99.1265C18.3419 99.3083 18.0976 99.5858 17.9568 99.9176C17.816 100.249 17.7862 100.618 17.8719 100.968C18.0707 102.044 18.6246 103.023 19.4452 103.748C19.6828 103.968 19.9786 104.116 20.2976 104.174C20.6167 104.231 20.9456 104.196 21.2453 104.073C21.545 103.949 21.8029 103.742 21.9886 103.477C22.1743 103.211 22.2798 102.898 22.2928 102.574C22.3095 101.958 22.148 101.35 21.8277 100.824C21.5073 100.297 21.0417 99.8743 20.4867 99.6058C20.2343 99.4639 19.9493 99.3899 19.6597 99.3911C19.3701 99.3923 19.0857 99.4686 18.8344 99.6126C18.5832 99.7566 18.3736 99.9634 18.2262 100.213C18.0789 100.462 17.9988 100.745 17.9938 101.034C17.9605 101.629 18.0699 102.222 18.3128 102.765C18.5556 103.309 18.9249 103.786 19.3898 104.158C19.626 104.379 19.9213 104.528 20.2401 104.587C20.5589 104.645 20.8878 104.61 21.1873 104.486C21.4867 104.362 21.744 104.154 21.9283 103.888C22.1126 103.621 22.2161 103.307 22.2263 102.984C22.3371 101.411 21.1183 99.5061 19.3344 99.7387C17.1184 100.038 17.7611 102.541 18.0824 104.002L21.2845 103.128C21.0018 102.314 20.5654 101.562 19.9992 100.913C19.7925 100.709 19.5364 100.563 19.2562 100.489C18.976 100.414 18.6812 100.414 18.4008 100.488C18.1204 100.561 17.8639 100.707 17.6566 100.909C17.4493 101.112 17.2982 101.365 17.2182 101.644C17.0569 102.204 17.023 102.793 17.1188 103.367C17.2147 103.942 17.4379 104.488 17.7722 104.966C17.9632 105.275 18.2475 105.515 18.5839 105.653C18.9204 105.79 19.2918 105.817 19.6447 105.73C19.995 105.635 20.3042 105.427 20.5245 105.139C20.7448 104.851 20.8639 104.498 20.8635 104.135C20.7917 103.154 20.4505 102.211 19.8773 101.411C18.9688 100.204 16.7307 100.447 16.7861 102.253C16.7854 103.209 17.0752 104.144 17.6171 104.933C17.8267 105.273 18.151 105.526 18.5315 105.648C18.912 105.77 19.3235 105.751 19.6916 105.596C20.0597 105.441 20.36 105.159 20.5384 104.802C20.7167 104.445 20.7613 104.035 20.664 103.648C20.6049 103.326 20.4748 103.02 20.2832 102.754C20.0916 102.488 19.8432 102.267 19.556 102.109C19.302 101.967 19.0155 101.894 18.7246 101.896C18.4337 101.898 18.1483 101.975 17.8961 102.12C17.6439 102.265 17.4336 102.473 17.2857 102.723C17.1378 102.973 17.0572 103.258 17.052 103.548C17.0569 104.144 17.1579 104.735 17.3511 105.298L20.1322 103.681C19.6264 103.08 19.25 102.382 19.0263 101.629C18.8026 100.877 18.7366 100.086 18.8322 99.3064C18.9278 98.527 19.1832 97.7757 19.5822 97.0994C19.9813 96.423 20.5155 95.8361 21.1515 95.3753L18.5367 93.3597C17.6149 94.6911 17.0117 96.2164 16.7735 97.8179C16.5352 99.4194 16.6684 101.054 17.1628 102.596L20.243 101.4C19.9611 100.818 19.7383 100.21 19.5782 99.5837C19.4601 99.207 19.2124 98.8842 18.8791 98.6725C18.5458 98.4607 18.1483 98.3737 17.7569 98.4267C17.3655 98.4798 17.0056 98.6695 16.7407 98.9623C16.4758 99.2551 16.3231 99.6321 16.3096 100.027C16.3008 100.7 16.4057 101.37 16.6199 102.009C16.7149 102.317 16.8964 102.591 17.1428 102.799C17.3892 103.007 17.6901 103.14 18.0098 103.182C18.3295 103.224 18.6546 103.173 18.9464 103.036C19.2381 102.899 19.4843 102.681 19.6558 102.408C20.3867 101.396 20.9515 100.275 21.3288 99.0853C21.4318 98.6977 21.391 98.2859 21.214 97.926C21.037 97.5661 20.7357 97.2824 20.3657 97.1272C19.9957 96.972 19.5821 96.9558 19.2011 97.0816C18.8201 97.2074 18.4976 97.4668 18.2929 97.8117C18.1159 98.0966 18.0042 98.4172 17.9659 98.7504C17.9276 99.0836 17.9636 99.4211 18.0713 99.7387C18.1894 100.115 18.4371 100.438 18.7704 100.65C19.1037 100.862 19.5012 100.949 19.8926 100.896C20.284 100.843 20.6439 100.653 20.9088 100.36C21.1737 100.067 21.3264 99.6903 21.3399 99.2957C21.4839 97.6235 23.8993 97.9668 24.8522 98.443C26.4861 99.4128 27.8949 100.719 28.985 102.275C31.4004 105.32 33.2729 108.754 36.0651 111.489C36.3821 111.79 36.8025 111.957 37.2395 111.957C37.6766 111.957 38.0969 111.79 38.414 111.489C39.522 110.614 41.4942 109.551 41.4942 107.978C41.4942 106.406 39.5442 105.221 38.6024 104.301L36.5858 106.915C36.9786 107.179 37.3264 107.505 37.6162 107.879L39.8876 105.608L38.6467 104.733C37.2506 103.748 35.5665 105.653 36.3753 106.948L37.3946 108.676L39.6106 106.461C39.1161 106.266 38.6862 105.936 38.3697 105.509L36.0207 107.868C36.2979 108.17 36.5327 108.509 36.7188 108.875L38.9347 106.66C38.5215 106.411 38.1481 106.101 37.8268 105.741C36.619 104.39 34.7798 105.863 35.0457 107.358L35.1898 108.111L37.6273 106.24C37.3983 106.068 37.1965 105.863 37.029 105.63C35.8435 104.18 33.3394 106.096 34.4141 107.635C34.7855 108.168 35.1117 108.731 35.3892 109.318L37.993 107.303C37.7407 107.003 37.5284 106.672 37.3614 106.317L34.7576 108.333C35.0512 108.669 35.3006 109.041 35.5 109.44L38.3697 107.768L37.6162 106.727C37.4025 106.398 37.0802 106.155 36.7056 106.04C36.3309 105.925 35.9277 105.945 35.5663 106.097C35.2049 106.248 34.9082 106.522 34.7281 106.87C34.5479 107.218 34.4956 107.618 34.5804 108C34.6759 108.423 34.8582 108.822 35.1156 109.171C35.3731 109.519 35.7001 109.811 36.0761 110.027C36.3616 110.187 36.6876 110.259 37.0138 110.235C37.34 110.211 37.652 110.093 37.9114 109.893C38.1707 109.694 38.366 109.424 38.473 109.115C38.5801 108.806 38.5942 108.472 38.5137 108.155L37.0622 104.169L34.2812 105.786L35.3005 106.893C36.6523 108.333 38.7131 106.505 37.9154 104.877V104.811L34.8241 105.653C35.6645 106.983 36.8731 108.041 38.3032 108.698C39.6439 109.296 41.6272 107.934 40.5192 106.483C37.8268 102.662 35.3227 98.3876 31.8326 95.2092C30.5251 94.0131 28.0432 95.63 29.2288 97.2248C31.3152 100.017 33.0424 103.061 34.3698 106.284L37.4168 105.01C35.6785 102.077 33.6279 99.3405 31.3007 96.8482C31.0136 96.5731 30.6374 96.41 30.2402 96.3886C29.8431 96.3671 29.4515 96.4887 29.1364 96.7313C28.8213 96.9738 28.6037 97.3213 28.5231 97.7106C28.4424 98.0998 28.5041 98.5051 28.6969 98.8527L34.4917 108.82L37.3614 107.148C34.536 103.272 32.2868 98.7531 28.0321 96.1948C26.144 95 23.9241 94.4375 21.6944 94.589C19.3787 94.8216 16.9301 96.4163 17.2625 99.0189C17.5062 101.079 20.5865 101.234 20.5865 99.0189C20.5531 98.3243 20.609 97.6283 20.7527 96.9479C20.8081 96.6489 20.9299 95.6743 21.1848 95.486C21.4396 95.2978 22.3814 95.5636 22.6584 95.6079C23.2325 95.7089 23.7989 95.8495 24.3536 96.0287C26.5444 96.7596 28.4712 98.1193 29.8936 99.9381L31.9101 97.3244C27.9989 95.043 23.3897 92.9499 18.8358 94.6665L20.4535 97.4352C22.6695 94.6554 26.4477 97.0476 28.708 98.5427C30.3589 99.6501 31.9323 97.2912 30.7246 95.9401C29.7458 94.8504 28.5507 93.9764 27.2153 93.3739C25.88 92.7713 24.4337 92.4534 22.9686 92.4405L23.4118 95.6965C28.1983 94.8548 31.2453 100.126 33.2397 103.559C33.4698 103.923 33.832 104.183 34.2501 104.285C34.6681 104.387 35.1095 104.323 35.4813 104.107C35.8531 103.89 36.1263 103.537 36.2435 103.124C36.3606 102.71 36.3125 102.266 36.1094 101.887C33.2065 96.8704 29.0958 91.333 22.5254 92.4959C20.6308 92.8281 21.1515 95.7297 22.9686 95.8183C23.9958 95.8321 25.0083 96.0645 25.9387 96.4999C26.8691 96.9352 27.696 97.5637 28.3645 98.3433L30.3811 95.7297C28.4451 94.2878 26.1856 93.341 23.7996 92.9721C22.7423 92.8591 21.6733 93.0013 20.6824 93.3867C19.6914 93.7721 18.8074 94.3895 18.1046 95.187C17.8545 95.453 17.6952 95.7913 17.6494 96.1534C17.6036 96.5155 17.6737 96.8828 17.8497 97.2026C18.0343 97.5181 18.3178 97.764 18.6563 97.9022C18.9948 98.0403 19.3695 98.063 19.7222 97.9668C23.4451 96.5603 27.046 98.4319 30.237 100.292C31.9655 101.3 33.3837 99.0853 32.2425 97.6899C30.0613 94.9837 26.9845 93.1455 23.5669 92.5069C21.8939 92.2079 19.9992 91.9864 18.7583 93.3929C17.5173 94.7994 17.2514 97.3023 17.2847 99.1185H20.6086C20.4203 97.5459 23.1127 97.9114 24.0434 98.144C25.5415 98.5513 26.9205 99.3107 28.0654 100.359C30.7578 102.751 32.4309 106.018 34.525 108.886C35.7548 110.581 38.5026 109.097 37.3946 107.214L31.6663 97.0808L29.1069 99.1296C31.233 101.419 33.1087 103.929 34.7022 106.616C35.6219 108.167 38.4694 107.137 37.7381 105.331C36.316 101.828 34.4544 98.5201 32.1982 95.486L29.5833 97.4905C32.9073 100.481 35.2119 104.49 37.7492 108.089L39.9652 105.819C39.035 105.441 38.2398 104.793 37.6827 103.958C36.8517 102.696 34.4252 103.039 34.5804 104.8C34.6299 105.405 34.7954 105.996 35.0679 106.539L37.6716 104.534L36.6523 103.427C35.5443 102.253 33.3283 103.427 33.8712 105.044L35.3338 109.03L37.7714 107.148L34.7355 108.421L35.4889 109.462C35.719 109.826 36.0812 110.086 36.4993 110.188C36.9174 110.29 37.3587 110.226 37.7305 110.009C38.1023 109.793 38.3755 109.44 38.4927 109.026C38.6098 108.612 38.5618 108.169 38.3586 107.79C38.0191 107.125 37.5945 106.507 37.0955 105.952C35.7881 104.468 33.694 106.361 34.4806 107.967C34.7747 108.568 35.1473 109.126 35.5886 109.628C36.9293 111.124 38.9126 109.23 38.2035 107.624C37.9309 107.034 37.6045 106.471 37.2284 105.941L34.6247 107.956C34.9956 108.379 35.4202 108.751 35.8878 109.064C37.1952 109.983 38.558 108.466 38.3364 107.181L38.2035 106.428L35.4224 108.045C35.933 108.607 36.5228 109.092 37.173 109.484C37.4906 109.663 37.8579 109.733 38.219 109.684C38.5801 109.635 38.9152 109.469 39.1735 109.212C39.4318 108.955 39.5991 108.621 39.65 108.261C39.7009 107.9 39.6326 107.532 39.4555 107.214C39.1219 106.6 38.7125 106.031 38.2367 105.52C37.9223 105.214 37.5009 105.043 37.0622 105.043C36.6236 105.043 36.2022 105.214 35.8878 105.52C35.5837 105.837 35.414 106.26 35.414 106.699C35.414 107.139 35.5837 107.561 35.8878 107.879C36.3918 108.521 37.0516 109.024 37.8046 109.34C39.2228 109.95 41.0067 108.632 40.076 107.07L39.0566 105.343L36.8406 107.613L38.0705 108.488C39.4001 109.429 41.328 107.546 40.353 106.217C39.745 105.375 38.9952 104.644 38.137 104.058C36.5636 102.95 34.813 105.365 36.1315 106.66L37.3836 107.89L38.004 108.499C38.3918 108.942 38.4251 108.909 38.1038 108.432V107.546C38.3586 107.148 38.2921 107.148 37.9265 107.546L37.2617 108.089L35.9432 109.197H38.2921C34.7133 105.697 32.6635 100.957 28.985 97.5459C27.1901 95.8736 24.8522 94.4339 22.3371 94.8105C21.1881 94.9412 20.1195 95.4644 19.312 96.2918C18.5044 97.1191 18.0075 98.1998 17.9051 99.3511L21.1626 98.9081L20.941 99.7498L21.0518 99.5394L18.027 98.1883C17.7138 99.0875 17.2614 99.9321 16.6863 100.691L19.7222 101.079C19.5913 100.724 19.5274 100.349 19.5339 99.9713L16.2099 100.414C16.4617 101.312 16.7994 102.184 17.2182 103.017C18.0492 104.7 20.8302 103.526 20.2541 101.732C19.8864 100.622 19.7891 99.4394 19.9702 98.2838C20.1514 97.1281 20.6057 96.0323 21.2956 95.0873C21.4955 94.7385 21.563 94.3292 21.4857 93.9347C21.4084 93.5401 21.1914 93.1866 20.8745 92.9388C20.5509 92.6909 20.1488 92.5679 19.7418 92.5923C19.3348 92.6167 18.9502 92.7869 18.6586 93.0718C17.7132 93.8421 16.934 94.796 16.3681 95.8759C15.8022 96.9558 15.4612 98.1393 15.3659 99.3546C15.2707 100.57 15.423 101.792 15.8137 102.947C16.2044 104.102 16.8255 105.165 17.6392 106.073C17.9022 106.32 18.2379 106.475 18.5962 106.516C18.9545 106.556 19.3164 106.48 19.6278 106.298C19.9392 106.116 20.1835 105.839 20.3243 105.507C20.4651 105.175 20.4949 104.807 20.4092 104.457C20.2952 104.183 20.2351 103.889 20.2319 103.593L17.7278 105.032L17.3179 104.578L20.3538 103.294C20.1199 103.013 19.9872 102.662 19.9771 102.297L16.8747 103.139C17.142 103.432 17.3257 103.791 17.4065 104.18L20.5089 103.338C20.2984 103.05 20.1987 102.906 20.2873 102.563L17.5173 103.294C17.7011 103.507 17.8472 103.751 17.9494 104.014C18.0827 104.418 18.3663 104.756 18.7416 104.957C19.1169 105.159 19.5553 105.208 19.9662 105.096C20.3771 104.984 20.7292 104.718 20.9498 104.354C21.1704 103.99 21.2426 103.555 21.1515 103.139L20.9853 102.386C20.9853 101.81 20.8191 101.865 20.5975 102.552L18.9799 102.984C18.8469 102.784 18.7804 102.795 18.7694 102.984L21.6058 101.81C21.2512 101.533 21.1626 101.477 21.1848 101.034L18.6807 102.474C19.1571 102.696 18.8358 102.397 18.8358 102.574L21.6723 101.389C21.2676 101.07 21.005 100.604 20.941 100.093L18.16 101.699C18.4486 101.953 18.6533 102.289 18.7472 102.662L21.5172 101.046C21.1643 100.769 20.9209 100.377 20.8302 99.9381L17.9938 101.112C18.1543 101.272 18.2788 101.465 18.359 101.676C18.4393 101.888 18.4734 102.115 18.4591 102.341L21.2956 101.167C20.7424 100.631 20.3116 99.9808 20.0325 99.2625L16.9966 100.547L17.6614 102.087L20.2762 100.071C20.11 99.927 19.9217 99.8162 19.8995 99.5837C19.7112 97.4684 16.3872 97.4462 16.5755 99.5837L16.7085 99.5948Z" fill="#2D2FEE"/>
<path d="M258.361 58.984C258.427 57.2453 261.042 56.2597 262.46 55.9828C264.417 55.6082 266.437 55.7146 268.344 56.2929C273.263 57.8655 273.019 63.2035 271.978 67.3676C271.46 69.7378 270.419 71.9625 268.931 73.8795C267.524 75.4544 265.87 76.7897 264.033 77.8332C260.455 80.0481 256.721 82.0305 254.294 85.5855C253.087 87.3685 255.967 89.0297 257.164 87.2688C259.38 83.9464 263.291 82.2631 266.56 80.1478C270.248 77.8977 273.061 74.4611 274.537 70.4021C275.955 66.4373 276.853 61.2433 274.748 57.3671C272.82 53.8343 268.665 52.45 264.853 52.45C261.042 52.45 255.236 54.2108 255.037 58.973C254.948 61.1104 258.272 61.1104 258.361 58.973V58.984Z" fill="#2D2FEE"/>
<path d="M255.524 60.1578L259.956 64.0007C260.273 64.3072 260.696 64.4786 261.136 64.4786C261.577 64.4786 262 64.3072 262.316 64.0007C262.992 63.303 264.798 61.4535 265.895 62.4835C266.992 63.5134 265.674 65.8059 265.186 66.7694C263.679 69.5713 261.12 71.6201 258.605 73.4696C255.819 75.2968 253.282 77.4783 251.059 79.9593C250.162 81.0668 249.486 82.3293 250.317 83.7026C251.401 85.1554 252.626 86.4981 253.973 87.7116C255.436 89.2842 257.785 86.9253 256.322 85.3638L254.106 82.9717L253.585 82.4179C253.231 81.8642 253.109 81.9306 253.209 82.6284C253.455 82.2576 253.729 81.9059 254.029 81.5763C255.261 80.2274 256.627 79.0066 258.106 77.9327C261.087 75.7178 264.244 73.6357 266.571 70.6677C268.521 68.198 270.748 64.0229 268.909 60.8887C268.466 60.217 267.848 59.6785 267.122 59.3312C266.396 58.9839 265.589 58.8409 264.787 58.9174C262.915 59.2038 261.213 60.165 260.001 61.6197H262.361L257.929 57.7767C256.311 56.3924 253.951 58.7291 255.58 60.1246L255.524 60.1578Z" fill="#2D2FEE"/>
<path d="M248.865 86.6153C247.949 86.1519 246.889 86.0606 245.907 86.3606C244.948 86.6674 244.126 87.2977 243.58 88.1436C243.324 88.6027 243.161 89.1081 243.1 89.6305C243.04 90.1528 243.084 90.682 243.229 91.1874C243.374 91.6928 243.618 92.1645 243.947 92.5754C244.275 92.9862 244.681 93.3281 245.142 93.5813C245.598 93.8478 246.106 94.0143 246.631 94.0697C247.157 94.1251 247.688 94.0681 248.189 93.9025C249.136 93.5415 249.922 92.8541 250.405 91.9644C250.678 91.4925 250.845 90.9675 250.897 90.4251C250.948 89.8828 250.883 89.3356 250.704 88.8209C250.525 88.3062 250.238 87.8359 249.862 87.442C249.485 87.048 249.028 86.7396 248.522 86.5378C248.003 86.3041 247.436 86.2001 246.868 86.2349C246.301 86.2696 245.75 86.442 245.264 86.7371C244.765 87.0532 244.347 87.4827 244.044 87.9908C243.742 88.4988 243.564 89.071 243.525 89.6608C243.498 90.2287 243.621 90.7936 243.882 91.299C244.142 91.8043 244.531 92.2324 245.009 92.5403C245.422 92.8246 245.893 93.0122 246.388 93.0889C246.883 93.1656 247.389 93.1295 247.868 92.9833C248.39 92.8183 248.859 92.5167 249.225 92.1097C249.591 91.7027 249.842 91.2051 249.951 90.6686C250.067 90.1403 250.051 89.5917 249.906 89.0706C249.762 88.5495 249.492 88.0716 249.12 87.6785C248.735 87.2954 248.246 87.0336 247.713 86.9254C247.027 86.8081 246.322 86.9088 245.696 87.2133C245.208 87.4699 244.799 87.8532 244.51 88.3229C244.221 88.7926 244.065 89.3312 244.057 89.8823C244.079 90.496 244.292 91.0877 244.665 91.5756C245.038 92.0635 245.553 92.4238 246.14 92.6067C246.664 92.7882 247.23 92.8136 247.769 92.68C248.308 92.5463 248.797 92.2592 249.175 91.8536C249.578 91.3804 249.831 90.7982 249.902 90.1811C249.973 89.5639 249.859 88.9395 249.574 88.3872C249.416 88.0567 249.184 87.767 248.896 87.5404C248.607 87.3138 248.271 87.1565 247.912 87.0804C247.504 87.0811 247.1 87.1683 246.728 87.3363C246.355 87.5043 246.023 87.7492 245.752 88.055C245.395 88.4032 245.109 88.8168 244.91 89.2732C244.692 89.6602 244.629 90.1151 244.732 90.5468C244.85 90.9647 245.124 91.3215 245.497 91.5435C245.907 91.7566 246.364 91.8632 246.827 91.8536C247.276 91.8253 247.712 91.6925 248.101 91.466C248.489 91.2373 248.813 90.9145 249.044 90.5274C249.274 90.1402 249.403 89.7013 249.419 89.2511C249.418 88.8888 249.298 88.5369 249.078 88.249C248.858 87.9611 248.55 87.7529 248.2 87.6563C247.548 87.5061 246.863 87.5843 246.261 87.8778C245.795 88.1098 245.409 88.4763 245.153 88.9299C245.009 89.2536 244.937 89.6053 244.944 89.9598C244.951 90.3143 245.037 90.6628 245.195 90.9804C245.353 91.298 245.579 91.5767 245.857 91.7966C246.135 92.0165 246.459 92.1721 246.804 92.2523C247.239 92.36 247.697 92.3007 248.09 92.0862C248.372 91.921 248.598 91.6765 248.742 91.3831C248.886 91.0897 248.939 90.7606 248.897 90.4368C248.854 90.113 248.717 89.8089 248.503 89.5626C248.288 89.3162 248.006 89.1385 247.691 89.0517L247.514 88.9964L247.912 89.1625L247.757 89.0628L248.09 89.3286L247.912 89.1625L248.178 89.4947C248.128 89.4288 248.083 89.3584 248.045 89.2843L248.212 89.683C248.188 89.6068 248.169 89.5291 248.156 89.4504L248.212 89.8934V89.827L247.979 90.6686C248.013 90.5949 248.054 90.5244 248.101 90.4582L247.846 90.7905L248.012 90.6243L247.68 90.8791C247.763 90.8186 247.852 90.7666 247.946 90.724L247.547 90.8901L247.835 90.8126L247.392 90.8791H247.635H247.192H247.314L246.095 89.2732C246.101 89.3099 246.101 89.3473 246.095 89.384L246.151 88.941C246.139 89.0127 246.12 89.0831 246.095 89.1514L246.261 88.7527C246.231 88.819 246.194 88.882 246.151 88.941L246.406 88.6088C246.349 88.6804 246.286 88.7471 246.217 88.8081L246.55 88.5423L246.317 88.6863L246.705 88.5202C246.607 88.5663 246.502 88.5962 246.394 88.6088L246.838 88.5534H246.616L247.059 88.6198L246.849 88.5644L247.237 88.7306L247.835 91.0009C247.921 90.7924 248.033 90.5953 248.167 90.4139L247.912 90.7462C248.054 90.5678 248.214 90.4046 248.389 90.2589L248.056 90.5247C248.22 90.3969 248.399 90.289 248.588 90.2035H246.827L246.915 90.27L246.583 90.0042C246.665 90.0694 246.739 90.1437 246.804 90.2256L246.55 89.8934C246.608 89.9781 246.66 90.0669 246.705 90.1592L246.538 89.7605C246.585 89.8777 246.615 90.0006 246.627 90.126L246.572 89.683C246.594 89.8224 246.594 89.9644 246.572 90.1038L246.638 89.6608C246.617 89.782 246.583 89.9007 246.538 90.0152L246.705 89.6276C246.657 89.721 246.602 89.81 246.538 89.8934L246.804 89.5612C246.747 89.6258 246.684 89.6851 246.616 89.7384L246.96 89.4836L246.727 89.6165L247.126 89.4504C247.029 89.4901 246.929 89.5198 246.827 89.539H247.27H246.893H247.336C247.195 89.523 247.057 89.4857 246.926 89.4283L247.325 89.5944C247.21 89.5468 247.102 89.4834 247.004 89.4061L247.347 89.6719C247.265 89.6038 247.187 89.5298 247.115 89.4504L247.381 89.7827C247.313 89.7024 247.257 89.6129 247.214 89.5169L247.381 89.9156C247.348 89.8336 247.326 89.7481 247.314 89.6608L247.369 90.1038C247.358 89.9971 247.358 89.8894 247.369 89.7827L247.314 90.2256C247.328 90.1233 247.354 90.0229 247.392 89.9266L247.225 90.3142C247.273 90.2209 247.328 90.1319 247.392 90.0484L247.126 90.3807C247.221 90.2727 247.325 90.1727 247.436 90.0817L247.104 90.3364C247.219 90.2492 247.346 90.1784 247.48 90.126L247.081 90.2921L247.447 90.1924L247.004 90.2478H247.381L246.937 90.1924C247.044 90.2012 247.149 90.2274 247.248 90.27L246.849 90.1038C246.944 90.1429 247.034 90.1951 247.115 90.2589L246.782 90.0042L246.993 90.2146L246.738 89.8823C246.806 89.9765 246.865 90.0766 246.915 90.1814L246.738 89.7827C246.799 89.9201 246.84 90.0656 246.86 90.2146L246.804 89.7716C246.816 89.9264 246.816 90.0819 246.804 90.2367L246.86 89.7937C246.841 89.9466 246.8 90.0959 246.738 90.2367L246.904 89.838C246.86 89.947 246.804 90.0509 246.738 90.1481L246.993 89.8048C246.92 89.8975 246.838 89.9829 246.749 90.0595L247.081 89.8048C246.993 89.863 246.9 89.9149 246.804 89.9599L247.203 89.7937C247.087 89.8437 246.964 89.8772 246.838 89.8934L247.281 89.838C247.119 89.8602 246.955 89.8602 246.793 89.838L247.237 89.8934C247.072 89.8713 246.912 89.8266 246.76 89.7605L247.159 89.9266C247.025 89.8678 246.899 89.7935 246.782 89.7051L247.115 89.9709C246.984 89.8697 246.868 89.7504 246.771 89.6165L247.026 89.9599C246.953 89.8555 246.89 89.7442 246.838 89.6276L247.004 90.0263C246.959 89.8966 246.926 89.7632 246.904 89.6276L246.96 90.0706C246.948 89.9342 246.948 89.7972 246.96 89.6608L246.904 90.1038C246.923 89.9236 246.972 89.7477 247.048 89.5833L246.882 89.982C246.953 89.815 247.046 89.6585 247.159 89.5169L246.893 89.8491C246.999 89.7265 247.114 89.6117 247.237 89.5058L246.904 89.7716C247.031 89.6724 247.169 89.5871 247.314 89.5169L246.926 89.683C247.076 89.6243 247.232 89.5834 247.392 89.5612L246.948 89.6165C247.114 89.5945 247.282 89.5945 247.447 89.6165L247.004 89.5612C247.19 89.587 247.372 89.6353 247.547 89.7051L247.148 89.539C247.324 89.6175 247.491 89.714 247.646 89.827L247.303 89.5612C247.473 89.6886 247.626 89.8375 247.757 90.0042L247.491 89.6719C247.606 89.8227 247.703 89.9862 247.779 90.1592L247.613 89.7716C247.671 89.9179 247.712 90.0702 247.735 90.2256V89.7827C247.757 89.974 247.757 90.1672 247.735 90.3585V89.9156C247.712 90.1261 247.656 90.3317 247.569 90.5247L247.735 90.137C247.647 90.3503 247.531 90.5513 247.392 90.7351L247.646 90.4028C247.516 90.5667 247.367 90.7153 247.203 90.8458L247.536 90.5911C247.38 90.7076 247.213 90.8078 247.037 90.8901L247.436 90.7129C247.26 90.7914 247.073 90.8436 246.882 90.868L247.325 90.8126C247.163 90.8237 247 90.8237 246.838 90.8126L247.281 90.868C247.078 90.8399 246.881 90.784 246.694 90.7019L247.092 90.868C246.905 90.7889 246.73 90.6846 246.572 90.5579L246.904 90.8237C246.729 90.678 246.569 90.5147 246.428 90.3364L246.683 90.6686C246.562 90.5042 246.461 90.3257 246.383 90.137L246.55 90.5357C246.471 90.3474 246.415 90.1504 246.383 89.9488L246.439 90.3918C246.417 90.2116 246.417 90.0293 246.439 89.8491L246.372 90.2921C246.402 90.1212 246.45 89.9541 246.516 89.7937L246.339 90.1924C246.411 90.0228 246.504 89.8628 246.616 89.7162L246.361 90.0484C246.488 89.8884 246.633 89.7434 246.793 89.6165L246.461 89.8823C246.635 89.7408 246.83 89.6252 247.037 89.539L246.638 89.7051C246.846 89.6209 247.061 89.5578 247.281 89.5169L246.838 89.5833C247.04 89.5553 247.245 89.5553 247.447 89.5833H247.004C247.188 89.6024 247.367 89.651 247.536 89.7273L247.137 89.5501H247.248C247.638 89.7587 248.091 89.8178 248.522 89.7162C248.938 89.5881 249.288 89.3016 249.495 88.9184C249.702 88.5352 249.751 88.0859 249.63 87.6674C249.573 87.4609 249.477 87.2676 249.346 87.0985C249.215 86.9294 249.051 86.7877 248.865 86.6817V86.6153Z" fill="#2D2FEE"/>
<path d="M264.809 55.739C264.171 55.776 263.548 55.9424 262.976 56.228C262.405 56.5136 261.897 56.9124 261.485 57.4002C261.204 57.6868 261.036 58.0657 261.012 58.4666C260.989 58.8675 261.111 59.2634 261.357 59.5809C261.603 59.8984 261.956 60.1161 262.35 60.1936C262.745 60.2712 263.154 60.2034 263.502 60.0028L265.463 59.0836C267.147 58.2973 265.928 55.3182 264.189 56.0491C262.652 56.6477 261.265 57.5736 260.122 58.7624C259.9 58.9985 259.751 59.2936 259.693 59.6123C259.635 59.931 259.67 60.2597 259.794 60.559C259.918 60.8583 260.125 61.1155 260.392 61.2997C260.659 61.4839 260.973 61.5873 261.297 61.5975C262.087 61.5899 262.869 61.4254 263.595 61.1137C264.322 60.8019 264.979 60.349 265.529 59.7813C265.773 59.5167 265.925 59.1812 265.964 58.8239C266.003 58.4666 265.926 58.1062 265.745 57.7956C265.564 57.4849 265.289 57.2402 264.959 57.0973C264.629 56.9544 264.262 56.9209 263.912 57.0015C262.482 57.2208 261.18 57.9483 260.244 59.0503C259.214 60.2243 260.167 62.3727 261.851 61.819C262.958 61.4986 263.956 60.8776 264.732 60.0249C264.978 59.7621 265.133 59.4265 265.174 59.0684C265.214 58.7102 265.138 58.3485 264.956 58.0373C264.774 57.726 264.497 57.4818 264.165 57.3411C263.833 57.2003 263.464 57.1706 263.114 57.2562C261.811 57.5222 260.638 58.2256 259.79 59.2497C259.568 59.4858 259.419 59.7809 259.361 60.0996C259.302 60.4182 259.337 60.747 259.461 61.0463C259.585 61.3456 259.793 61.6028 260.06 61.787C260.326 61.9712 260.64 62.0746 260.964 62.0848C261.666 62.0885 262.354 61.8885 262.944 61.509C263.534 61.1296 264.001 60.5871 264.288 59.9474C264.43 59.6942 264.503 59.4089 264.502 59.1191C264.5 58.8292 264.424 58.5446 264.28 58.2929C264.136 58.0411 263.93 57.8307 263.681 57.6821C263.432 57.5335 263.149 57.4516 262.859 57.4445C262.084 57.4341 261.32 57.6195 260.636 57.9835C259.952 58.3475 259.371 58.8783 258.948 59.5265C258.803 59.7792 258.727 60.0652 258.727 60.3563C258.727 60.6474 258.802 60.9335 258.947 61.1863C259.091 61.4391 259.299 61.6499 259.55 61.7977C259.801 61.9456 260.086 62.0255 260.377 62.0294C262.117 62.0959 264.599 60.634 264.022 58.552C263.391 56.337 260.698 57.2562 259.147 57.6549L260.034 60.8555C260.984 60.485 261.859 59.9446 262.615 59.2607C262.819 59.0541 262.965 58.7982 263.039 58.5181C263.114 58.238 263.114 57.9434 263.04 57.6631C262.967 57.3828 262.821 57.1264 262.619 56.9192C262.416 56.712 262.163 56.561 261.884 56.481C261.216 56.3037 260.517 56.2783 259.839 56.4068C259.16 56.5352 258.518 56.8141 257.962 57.223C257.622 57.4325 257.368 57.7567 257.246 58.137C257.124 58.5174 257.143 58.9286 257.298 59.2966C257.453 59.6645 257.735 59.9647 258.093 60.143C258.45 60.3213 258.86 60.3658 259.247 60.2686C260.404 60.0585 261.483 59.5422 262.372 58.7735C262.598 58.5392 262.752 58.2437 262.813 57.9234C262.874 57.6031 262.84 57.2719 262.715 56.9706C262.59 56.6694 262.38 56.4111 262.11 56.2277C261.841 56.0443 261.523 55.9437 261.197 55.9383C260.045 55.9701 258.93 56.3569 258.006 57.0458C257.675 57.2592 257.43 57.5826 257.313 57.959C257.197 58.3354 257.218 58.7407 257.372 59.1034C257.525 59.4661 257.802 59.763 258.153 59.9417C258.504 60.1204 258.907 60.1695 259.291 60.0803C259.646 60.0145 259.981 59.8685 260.271 59.6536C260.561 59.4386 260.798 59.1603 260.964 58.8399C261.106 58.5868 261.179 58.3014 261.178 58.0116C261.176 57.7217 261.1 57.4371 260.956 57.1854C260.812 56.9336 260.606 56.7233 260.357 56.5746C260.108 56.426 259.825 56.3442 259.535 56.337C258.81 56.3619 258.095 56.5079 257.419 56.7689L259.036 59.5487C259.826 58.8175 260.758 58.2571 261.774 57.9025C262.79 57.5479 263.869 57.4067 264.942 57.4878C266.015 57.5689 267.06 57.8705 268.012 58.3737C268.963 58.877 269.8 59.5711 270.471 60.4125L272.476 57.7989C270.782 56.6911 268.855 55.9888 266.845 55.7468C264.835 55.5048 262.796 55.7295 260.887 56.4035L262.172 59.4379C262.94 59.022 263.75 58.6879 264.587 58.4412C266.327 57.8986 266.072 55.1188 264.144 55.1742C263.317 55.1884 262.497 55.3381 261.718 55.6172C261.41 55.7122 261.135 55.8936 260.927 56.1398C260.719 56.3861 260.586 56.6869 260.544 57.0065C260.502 57.3261 260.553 57.651 260.69 57.9426C260.828 58.2342 261.046 58.4803 261.319 58.6516C262.609 59.5336 264.03 60.2064 265.529 60.6451C267.302 61.1767 268.51 58.4301 266.803 57.6106C266.488 57.4171 266.132 57.2976 265.764 57.2611C265.395 57.2247 265.024 57.2722 264.676 57.4002C264.235 57.4589 263.836 57.6903 263.566 58.0434C263.296 58.3965 263.177 58.8423 263.236 59.2829C263.295 59.7235 263.526 60.1227 263.879 60.3927C264.232 60.6627 264.679 60.7814 265.119 60.7226C267.568 60.8334 267.69 64.045 266.981 65.6841C265.821 67.9403 264.161 69.9023 262.128 71.4208C258.305 74.7432 253.895 77.2571 250.472 81.0004C250.173 81.3185 250.007 81.7383 250.007 82.1743C250.007 82.6104 250.173 83.0301 250.472 83.3482C251.58 84.5775 253.087 87.2687 255.003 87.0472C255.775 86.8614 256.45 86.3957 256.898 85.7404L259.114 83.3704L256.499 81.3659C256.045 82.0657 255.471 82.6805 254.804 83.1821L257.419 85.1977L258.527 83.5586C258.679 83.2429 258.729 82.8872 258.668 82.5418C258.608 82.1964 258.44 81.8788 258.189 81.6339C257.938 81.389 257.616 81.2293 257.269 81.1772C256.922 81.1251 256.567 81.1834 256.255 81.3437L254.039 82.7391L256.477 84.6108C256.716 84.0679 257.099 83.6007 257.585 83.2596L255.236 80.9118C254.827 81.313 254.365 81.6559 253.862 81.9307L256.145 84.2121C256.463 83.6352 256.871 83.112 257.352 82.6616C257.599 82.3987 257.754 82.0632 257.795 81.7051C257.835 81.3469 257.759 80.9852 257.577 80.674C257.395 80.3627 257.118 80.1185 256.786 79.9778C256.454 79.837 256.085 79.8073 255.735 79.8929L254.76 80.0923L256.632 82.5398C256.861 82.1994 257.137 81.8936 257.452 81.6317C258.859 80.4024 256.965 77.8773 255.447 79.018C254.777 79.5214 254.065 79.9661 253.319 80.347L255.336 82.9496C255.733 82.5759 256.181 82.2591 256.665 82.0082L254.66 79.3946C254.195 79.8312 253.673 80.2037 253.109 80.502L255.114 83.1157L256.433 82.0968C257.818 80.9893 256.289 78.9516 254.815 79.317C254.33 79.4291 253.875 79.6431 253.48 79.9448C253.084 80.2465 252.757 80.629 252.521 81.0668C251.868 82.1743 252.976 84.0792 254.394 83.5144L259.48 81.4655L257.862 78.6858L256.51 80.048C256.244 80.3378 256.089 80.7119 256.072 81.1047C256.055 81.4975 256.176 81.8839 256.416 82.1959C256.655 82.5079 256.997 82.7256 257.381 82.8107C257.765 82.8959 258.167 82.8431 258.516 82.6616L258.837 82.5176L258.006 79.4278C256.279 80.6129 254.95 82.2922 254.195 84.2453C254.114 84.5621 254.128 84.8956 254.235 85.2044C254.342 85.5133 254.538 85.784 254.797 85.9832C255.056 86.1823 255.368 86.3011 255.694 86.3249C256.021 86.3487 256.347 86.2764 256.632 86.1169C261.419 82.5066 266.803 79.1288 270.715 74.5328C271.044 74.2302 271.239 73.8094 271.258 73.3629C271.277 72.9163 271.117 72.4807 270.814 72.1517C270.512 71.8227 270.091 71.6274 269.644 71.6087C269.197 71.5901 268.761 71.7495 268.432 72.052C264.863 74.8632 260.954 77.2147 256.798 79.0513L258.471 81.9196C262.146 79.5767 265.56 76.8479 268.654 73.7797C269.972 72.4729 268.266 70.1472 266.648 71.1771L254.028 79.0734L256.045 81.6759C260.876 77.9216 266.604 74.8761 269.518 69.228C270.867 66.7859 271.392 63.9739 271.014 61.2099C270.537 58.2973 268.321 56.0823 265.252 56.5807C263.413 56.8908 263.834 59.9031 265.695 59.8477C266.523 59.7866 267.354 59.8089 268.177 59.9142C269.022 59.9505 269.846 60.1857 270.582 60.6008C271.391 61.3206 270.582 64.0782 270.294 65.0307C269.449 68.0091 267.732 70.6667 265.363 72.6611L267.978 74.6767C270.692 69.6488 273.23 63.746 270.859 58.0647L268.421 59.9474C272.077 62.6607 268.909 68.1094 267.224 70.9335C267.036 71.2826 266.978 71.6873 267.061 72.0752C267.143 72.4632 267.361 72.8092 267.675 73.0514C267.99 73.2937 268.38 73.4163 268.776 73.3976C269.173 73.3789 269.549 73.2199 269.839 72.9491C271.163 71.6896 272.211 70.1691 272.917 68.484C273.622 66.7988 273.97 64.9856 273.939 63.159L270.615 63.602C271.978 70.0254 265.352 74.3113 260.743 77.1907C258.937 78.2982 260.599 81.1887 262.427 80.0591C268.51 76.2604 275.557 70.8781 273.817 62.7271C273.429 60.8777 270.493 61.3096 270.56 63.159C270.591 64.5493 270.329 65.9306 269.79 67.2128C269.252 68.4951 268.45 69.6496 267.435 70.6012L270.039 72.6058C271.634 69.9478 273.252 67.0684 273.307 63.9121C273.358 62.592 273.087 61.2792 272.518 60.0869C271.949 58.8947 271.098 57.8586 270.039 57.068C268.931 56.2484 267.058 57.6438 267.601 58.9507C269.629 63.8125 267.38 68.6742 265.053 72.9712C264.871 73.3189 264.818 73.7193 264.902 74.1025C264.985 74.4856 265.201 74.8271 265.512 75.0672C265.822 75.3074 266.207 75.4309 266.599 75.4162C266.991 75.4015 267.365 75.2495 267.657 74.9868C271.035 72.1119 273.275 68.1255 273.972 63.746C274.282 61.664 274.515 59.1389 272.476 57.8321C270.4 56.7442 268.05 56.2898 265.718 56.5253L266.161 59.8477C268.377 59.4822 267.856 64.1225 267.601 65.1525C267.057 67.1601 266.061 69.0165 264.687 70.5791C261.629 74.1562 257.397 76.5151 253.718 79.3835C252.222 80.5463 254.15 82.9828 255.735 81.9971L268.277 74.1009L266.216 71.4318C263.328 74.3025 260.141 76.8567 256.71 79.0513C256.346 79.2812 256.086 79.6432 255.984 80.0611C255.882 80.479 255.946 80.9202 256.162 81.2918C256.379 81.6634 256.732 81.9365 257.146 82.0536C257.56 82.1707 258.003 82.1227 258.383 81.9196C262.788 79.945 266.925 77.4182 270.693 74.3999L268.432 72.052C264.698 76.4819 259.568 79.6604 255.026 83.1267L257.463 84.9984C257.939 83.8585 258.731 82.8785 259.746 82.1743C260.931 81.3437 260.71 78.8519 258.903 79.0734C258.207 79.1434 257.53 79.3464 256.909 79.6714L258.926 82.2851L260.277 80.9118C261.385 79.8043 260.277 77.4897 258.66 78.1431L253.574 80.1809L255.458 82.6284C255.458 82.4512 255.58 82.3847 255.768 82.4069L254.15 79.6271L252.832 80.646C251.303 81.8421 253.253 84.1124 254.848 83.2486C255.656 82.8106 256.401 82.2668 257.064 81.6317C258.482 80.3138 256.676 78.1653 255.048 79.0291C254.315 79.4209 253.64 79.913 253.042 80.491C251.624 81.8421 253.419 83.9352 255.048 83.1046C255.794 82.7237 256.506 82.279 257.175 81.7756L255.136 79.162C254.62 79.6225 254.169 80.1517 253.796 80.7346C252.954 82.0304 254.35 83.459 255.679 83.171L256.654 82.9717L255.037 80.1919C254.351 80.8382 253.768 81.5851 253.308 82.4069C253.134 82.7241 253.068 83.0892 253.119 83.4474C253.17 83.8056 253.336 84.1375 253.592 84.3933C253.848 84.6492 254.18 84.8152 254.539 84.8663C254.897 84.9175 255.262 84.8512 255.58 84.6772C256.327 84.2612 257.013 83.743 257.618 83.1378C259.169 81.6095 256.887 79.4278 255.269 80.79C254.397 81.5454 253.736 82.5149 253.352 83.603C252.821 84.9762 254.638 86.2277 255.79 85.4857L258.006 84.0902L255.735 81.8199L254.627 83.4479C253.519 85.1645 255.868 86.5377 257.23 85.4635C258.11 84.7694 258.86 83.9259 259.446 82.9717C259.647 82.6238 259.715 82.215 259.637 81.821C259.56 81.4269 259.342 81.0743 259.024 80.8284C258.707 80.5825 258.311 80.4599 257.91 80.4834C257.508 80.5069 257.129 80.6748 256.843 80.9561L255.502 82.418C255.325 82.6062 254.128 83.6583 254.161 83.8798C255.52 84.1678 255.842 84.0127 255.125 83.4147L254.394 82.5841L252.92 80.9339V83.2818C257.23 78.564 263.169 75.7178 267.424 70.9446C269.429 68.7296 271.202 65.817 270.748 62.6718C270.594 61.2753 269.955 59.9768 268.943 59.0018C267.931 58.0267 266.61 57.4365 265.208 57.3338L265.651 60.5897L265.219 60.4679L266.493 57.4334C265.278 57.0657 264.129 56.5048 263.092 55.7722L262.693 58.8067C263.184 58.6111 263.705 58.5025 264.233 58.4855L263.79 55.1631C262.679 55.5082 261.603 55.9568 260.577 56.5032C258.948 57.3781 260.067 60.1799 261.862 59.5376C263.347 58.9931 264.94 58.8095 266.511 59.002C268.081 59.1946 269.583 59.7578 270.892 60.6451C272.565 61.7526 274.061 59.3936 272.908 58.0315C271.924 56.8866 270.717 55.9529 269.362 55.2866C268.006 54.6203 266.53 54.2351 265.021 54.1544C263.513 54.0737 262.004 54.2991 260.585 54.8169C259.166 55.3348 257.867 56.1344 256.765 57.1676C255.602 58.2751 256.765 60.5676 258.383 59.9474C258.777 59.7782 259.196 59.6734 259.624 59.6373L258.183 57.1455L258.494 56.8575L259.779 59.892C260.196 59.5173 260.726 59.2914 261.286 59.2497L260.111 56.4146C259.626 56.7749 259.051 56.9935 258.449 57.0458L259.723 60.0803C259.9 59.9059 260.116 59.7773 260.354 59.7059C260.591 59.6344 260.843 59.6223 261.086 59.6705L260.355 56.8908C260.036 57.2085 259.66 57.4639 259.247 57.6438C257.33 58.4301 258.006 61.3871 260.133 60.8444L261.341 60.5343L261.829 60.4125C262.106 60.3239 262.15 60.3239 261.95 60.4125L260.953 59.6484L261.086 59.8366L260.92 58.552C260.842 58.7513 260.698 58.8067 260.477 58.707L261.917 61.2099C262.035 61.0493 262.194 60.9234 262.377 60.8454C262.56 60.7675 262.761 60.7404 262.959 60.7669L261.518 58.2751C261.385 58.5741 261.363 58.7513 261.02 58.7624L262.194 61.5975C262.653 61.0121 263.312 60.6174 264.045 60.49L262.427 57.7103C262.059 58.1539 261.57 58.481 261.02 58.6516L262.637 61.4314C263.191 60.7576 263.986 60.3281 264.853 60.2353L263.236 57.4667C262.998 57.7304 262.707 57.9416 262.383 58.0865C262.059 58.2315 261.707 58.307 261.352 58.3083L262.527 61.1435C263.252 60.3503 264.135 59.7167 265.119 59.2829L263.845 56.2484L261.873 57.1676L263.889 59.7813C263.993 59.6104 264.13 59.4618 264.292 59.344C264.453 59.2261 264.637 59.1414 264.831 59.0946C266.925 58.8288 266.947 55.5064 264.831 55.7722L264.809 55.739Z" fill="#2D2FEE"/>
<path d="M2.40448 171.702C35.7217 167.904 69.0943 164.105 102.013 157.637C118.522 154.392 134.898 150.472 151.008 145.632C153.634 144.846 157.556 142.963 159.528 145.887C161.091 148.202 161.068 151.635 161.379 154.293L164.448 180.65L170.575 233.355L172.104 246.534C172.27 247.974 172.725 249.923 170.863 250.399C169.871 250.521 168.868 250.543 167.872 250.465C166.764 250.465 165.589 250.465 164.448 250.554C157.776 250.811 151.135 251.581 144.582 252.858C136.948 254.342 129.435 256.324 121.812 257.863C113.399 259.554 104.93 260.879 96.4062 261.839C79.4043 263.736 62.2703 264.162 45.195 263.113C41.0622 262.858 36.8962 262.625 32.7966 262.072C29.2067 261.584 26.0268 260.399 24.3538 256.977C22.6807 253.555 22.1378 249.391 21.2957 245.692L18.2709 232.812L6.21596 181.525L3.25764 168.911C2.75904 166.829 -0.443039 167.715 0.0444758 169.797L12.6645 223.487L18.847 249.801C19.7002 253.422 20.3317 257.398 22.581 260.466C24.8302 263.534 28.2982 264.752 31.9102 265.272C40.5646 266.372 49.2793 266.931 58.0033 266.945C66.7343 267.107 75.4542 266.882 84.163 266.269C101.624 264.915 118.952 262.186 135.984 258.107C142.745 256.436 149.607 255.197 156.526 254.397C160.282 254.031 164.049 253.854 167.827 253.788C169.678 253.788 171.594 253.965 173.234 252.935C173.951 252.463 174.542 251.822 174.956 251.069C175.369 250.317 175.592 249.474 175.605 248.616C175.499 246.536 175.266 244.465 174.907 242.414L174.109 235.559L172.514 221.826L169.323 194.372L166.187 167.472L164.592 153.739C164.248 150.716 164.115 147.471 162.653 144.724C161.981 143.457 160.94 142.424 159.668 141.761C158.396 141.099 156.952 140.838 155.529 141.014C153.497 141.333 151.503 141.86 149.579 142.587C147.363 143.244 145.147 143.886 142.931 144.514C134.665 146.847 126.337 148.962 117.946 150.86C84.0522 158.612 49.5272 162.953 15.0356 166.929L2.34909 168.38C0.254996 168.623 0.221756 171.946 2.34909 171.702H2.40448Z" fill="#2D2FEE"/>
<path d="M39.5662 210.043L37.6937 208.093C37.4303 207.839 37.0914 207.676 36.7279 207.631C36.3643 207.585 35.9957 207.658 35.6771 207.839C30.7466 211.161 30.5693 217.751 32.5526 222.812C34.7021 228.349 39.6992 233.997 46.192 233.012C47.7657 232.82 49.2492 232.173 50.4598 231.15C51.6704 230.127 52.5555 228.772 53.0061 227.253C53.5379 225.182 50.3358 224.296 49.804 226.378C49.1724 228.847 46.48 230.032 44.0425 229.8C41.1506 229.523 38.8128 227.164 37.317 224.85C34.8683 221.073 32.6967 213.775 37.317 210.707L35.3004 210.441L37.184 212.402C38.6687 213.941 41.0177 211.593 39.533 210.043H39.5662Z" fill="#2D2FEE"/>
<path d="M51.4108 209.378C54.1475 216.102 57.6655 222.48 61.8924 228.382C62.128 228.751 62.4937 229.017 62.9166 229.127C63.3396 229.238 63.7888 229.186 64.1748 228.98C64.5518 228.753 64.8244 228.386 64.9342 227.96C65.044 227.533 64.9822 227.081 64.762 226.699C60.6678 221.055 57.2538 214.947 54.5907 208.503C54.4619 208.085 54.1779 207.731 53.7969 207.515C53.4158 207.299 52.9665 207.236 52.5409 207.34C52.1183 207.46 51.7594 207.74 51.5417 208.121C51.3241 208.502 51.2651 208.954 51.3776 209.378H51.4108Z" fill="#2D2FEE"/>
<path d="M45.1175 210.375L57.0284 206.776C57.4487 206.649 57.8042 206.366 58.0208 205.984C58.2375 205.603 58.2987 205.152 58.1917 204.727C58.0588 204.314 57.7713 203.968 57.3894 203.762C57.0075 203.555 56.5606 203.504 56.142 203.619L44.2311 207.219C44.0151 207.272 43.8119 207.367 43.6336 207.5C43.4553 207.633 43.3054 207.8 43.193 207.992C43.0805 208.184 43.0077 208.396 42.9789 208.617C42.95 208.837 42.9658 209.061 43.0251 209.275C43.0844 209.489 43.1862 209.69 43.3243 209.864C43.4624 210.038 43.6341 210.183 43.8293 210.289C44.0244 210.396 44.2389 210.463 44.4602 210.485C44.6815 210.507 44.905 210.485 45.1175 210.419V210.375Z" fill="#2D2FEE"/>
<path d="M59.3994 202.29C59.6745 205.975 61.3146 209.424 63.9989 211.963C66.6832 214.503 70.2187 215.951 73.9141 216.023C74.3549 216.023 74.7776 215.848 75.0893 215.536C75.401 215.225 75.576 214.802 75.576 214.362C75.576 213.921 75.401 213.499 75.0893 213.187C74.7776 212.876 74.3549 212.701 73.9141 212.701C71.0874 212.678 68.3762 211.577 66.3354 209.622C65.2901 208.682 64.4295 207.555 63.7981 206.299C63.6543 206.035 63.5285 205.761 63.4214 205.48C63.278 205.118 63.1559 204.748 63.0558 204.372C62.8623 203.713 62.7507 203.032 62.7234 202.346C62.7122 201.909 62.5335 201.493 62.2242 201.184C61.9149 200.874 61.4986 200.696 61.0614 200.685C60.6206 200.685 60.1979 200.86 59.8862 201.171C59.5745 201.483 59.3994 201.905 59.3994 202.346V202.29Z" fill="#2D2FEE"/>
<path d="M72.8502 200.075C74.06 205.165 74.8017 210.355 75.0662 215.58C75.1881 218.028 75.2546 220.486 75.1327 222.923C75.0551 224.252 74.8668 226.644 73.4042 227.242C71.4431 228.039 72.2962 231.251 74.2906 230.442C79.1658 228.46 78.5896 222.059 78.4677 217.729C78.2904 211.489 77.4698 205.283 76.0191 199.212C75.5205 197.13 72.3184 198.016 72.817 200.098L72.8502 200.075Z" fill="#2D2FEE"/>
<path d="M82.08 200.43L84.1519 221.25C84.4289 224.108 84.0965 227.707 87.6864 228.25C90.1385 228.581 92.6325 228.127 94.8108 226.954C97.069 225.746 98.9669 223.962 100.312 221.784C101.657 219.605 102.4 217.109 102.467 214.55C102.443 211.846 101.868 209.176 100.779 206.7C99.6893 204.225 98.1074 201.998 96.1293 200.153C92.5061 196.631 85.8582 193.863 81.7254 198.16C80.2407 199.699 82.5896 202.058 84.0743 200.508C86.7003 197.772 91.1987 200.109 93.459 202.213C96.6704 205.062 98.6883 209.017 99.1098 213.288C99.2593 215.25 98.892 217.217 98.0444 218.993C97.1969 220.769 95.8986 222.292 94.2789 223.41C92.7443 224.486 90.9128 225.059 89.0381 225.049C88.7168 225.049 88.0964 225.116 87.8748 224.85C87.6532 224.584 87.6975 223.554 87.6532 223.144L87.2211 218.814L85.3929 200.43C85.1934 198.326 81.8584 198.304 82.0689 200.43H82.08Z" fill="#2D2FEE"/>
<path d="M105.215 196.753C104.658 206.739 105.584 216.752 107.962 226.467C108.472 228.538 111.674 227.663 111.165 225.581C108.873 216.165 107.988 206.461 108.539 196.786C108.661 194.649 105.337 194.66 105.215 196.786V196.753Z" fill="#2D2FEE"/>
<path d="M106.112 198.459C112.55 206.211 118.843 214.307 122.732 223.665C122.863 224.082 123.148 224.434 123.528 224.649C123.908 224.865 124.356 224.929 124.782 224.828C125.205 224.706 125.564 224.423 125.782 224.04C125.999 223.657 126.058 223.204 125.945 222.779C121.835 212.811 115.32 204.295 108.483 196.111C107.109 194.472 104.772 196.831 106.134 198.459H106.112Z" fill="#2D2FEE"/>
<path d="M104.583 217.474C109.466 218.361 114.503 217.351 118.666 214.65C119.038 214.418 119.308 214.052 119.419 213.628C119.53 213.204 119.475 212.753 119.264 212.368C119.034 211.994 118.668 211.723 118.243 211.611C117.818 211.5 117.366 211.557 116.982 211.77C113.601 214.035 109.486 214.929 105.47 214.273C105.044 214.166 104.594 214.227 104.212 214.444C103.83 214.661 103.546 215.016 103.42 215.436C103.308 215.86 103.367 216.312 103.584 216.693C103.802 217.074 104.161 217.355 104.583 217.474Z" fill="#2D2FEE"/>
<path d="M120.383 194.239L131.042 220.508C131.829 222.435 134.92 221.704 134.255 219.622C131.165 210.122 131.597 199.826 135.474 190.618C135.592 190.199 135.543 189.751 135.336 189.369C135.129 188.986 134.781 188.7 134.366 188.569C133.948 188.462 133.505 188.517 133.125 188.722C132.745 188.927 132.456 189.268 132.316 189.676C128.23 199.474 127.778 210.408 131.042 220.508L134.255 219.622L123.641 193.353C122.854 191.393 119.641 192.246 120.439 194.239H120.383Z" fill="#2D2FEE"/>
<path d="M129.801 206.886C133.899 214.505 139.88 220.948 147.174 225.603C148.98 226.71 150.653 223.886 148.847 222.734C142.043 218.373 136.476 212.336 132.682 205.203C131.662 203.32 128.793 204.993 129.801 206.886Z" fill="#2D2FEE"/>
</g>
<defs>
<clipPath id="clip0">
<rect width="276" height="267" fill="white"/>
</clipPath>
</defs>
</svg>
