<svg width="415" height="516" viewBox="0 0 415 516" fill="none" xmlns="http://www.w3.org/2000/svg">
<g clip-path="url(#clip0)">
<path d="M120.444 469.598L102.848 484.713L119.055 506.349L134.226 487.797L120.444 469.598Z" fill="white"/>
<path d="M9.37109 140.706L227.698 95.6475L318.416 404.996L76.5605 429.255L9.37109 140.706Z" fill="white"/>
<path d="M291.647 294.631L334.911 285.354C335.729 285.09 336.414 284.522 336.824 283.767C337.234 283.013 337.339 282.13 337.116 281.3C319.356 218.899 308.152 154.817 303.687 90.0945C302.423 71.7187 301.688 53.3575 301.482 35.0111C301.482 34.1345 301.133 33.2939 300.513 32.6741C299.893 32.0543 299.051 31.7061 298.174 31.7061C254.072 36.2009 210.117 42.4804 166.309 50.5446C144.582 54.5106 122.935 58.9173 101.369 63.7646C96.9587 64.7561 92.0414 65.2188 90.1891 69.956C89.4838 72.103 89.4838 74.419 90.1891 76.566C90.9388 80.0694 91.5342 83.6388 92.2178 87.1861L97.8408 115.323C98.6346 119.487 105.007 117.724 104.214 113.56L99.8033 90.7776L97.2675 77.2711C97.0911 76.3457 96.9367 75.4203 96.7382 74.5169C96.4937 73.9535 96.3662 73.3463 96.3634 72.7322C96.7382 70.8153 100.311 70.7933 101.766 70.5289C143.339 61.1867 185.236 53.4236 227.457 47.2396C250.978 43.773 274.624 40.8352 298.395 38.4262L295.087 35.1212C295.714 100.591 303.171 165.818 317.337 229.742C321.335 247.707 325.856 265.546 330.898 283.261L333.103 279.185L289.883 288.241C285.715 289.144 287.479 295.512 291.625 294.631H291.647Z" fill="#2D2FEE"/>
<path d="M206.266 417.18C209.676 439.537 214.086 461.717 219.496 483.721C219.694 484.511 220.134 485.219 220.753 485.748C221.304 486.213 221.975 486.513 222.688 486.614C223.402 486.715 224.13 486.614 224.788 486.321C286.046 459.286 340.159 438.31 407.128 433.198H407.812C409.133 432.894 410.28 432.078 410.999 430.929C411.719 429.781 411.952 428.394 411.649 427.073C411.56 426.709 411.435 426.354 411.274 426.016C369.928 338.234 369.024 237.079 369.024 139.802C329.547 143.792 290.526 151.434 252.462 162.628" fill="white"/>
<path d="M203.113 418.039C206.288 438.603 210.294 459.036 215.13 479.336C216.079 483.28 216.608 488.149 221.106 489.537C225.605 490.925 230.169 487.554 234.006 485.88C242.826 482.024 251.647 478.234 260.467 474.577C294.382 460.651 329.2 448.709 365.298 441.967C374.677 440.234 384.085 438.831 393.523 437.759C398.308 437.23 403.27 437.208 408.011 436.371C409.668 436.103 411.208 435.345 412.43 434.194C413.653 433.043 414.502 431.553 414.868 429.915C415.795 425.751 412.906 421.674 411.274 418.039C409.422 413.853 407.636 409.622 405.96 405.37C402.498 396.667 399.344 387.743 396.588 378.93C385.342 342.883 379.344 305.404 376.125 267.837C372.905 230.27 372.42 191.954 372.332 153.991V139.757C372.326 138.882 371.976 138.045 371.357 137.427C370.738 136.808 369.9 136.458 369.024 136.452C329.271 140.494 289.973 148.171 251.625 159.389C247.567 160.579 249.287 166.968 253.389 165.757C291.214 154.633 329.98 147 369.201 142.952L365.893 139.647C365.893 176.289 366.025 212.974 368.341 249.572C370.546 285.772 374.956 321.995 383.776 357.249C388.105 374.684 393.63 391.801 400.315 408.476C401.991 412.663 403.755 416.805 405.563 420.925C406.423 422.842 407.393 424.737 408.209 426.698C408.782 428.086 408.848 429.386 407.129 429.893C405.184 430.226 403.214 430.396 401.241 430.4C398.727 430.62 396.235 430.862 393.721 431.149C389.157 431.656 384.614 432.25 380.072 432.889C344.989 437.935 311.163 447.938 278.086 460.497C260.974 467.107 244.127 474.202 227.369 481.561C226.33 482.128 225.246 482.607 224.127 482.993C223.025 483.258 223.444 483.478 222.738 482.773C222.032 482.068 222.076 479.997 221.856 479.115C221.525 477.705 221.172 476.317 220.842 474.907C219.739 470.192 218.636 465.477 217.644 460.718C215.527 450.891 213.609 441.027 211.889 431.127C211.036 426.177 210.228 421.212 209.463 416.232C208.802 412.046 202.429 413.831 203.068 417.995L203.113 418.039Z" fill="#2D2FEE"/>
<path d="M318.724 407.618C319.926 406.226 320.787 404.574 321.239 402.791C321.691 401.009 321.72 399.146 321.326 397.35C320.819 394.971 320.003 392.635 319.319 390.3L315.747 377.873L309.396 355.685C305.736 343.023 302.061 330.347 298.371 317.656L286.904 277.621C281.7 259.539 276.504 241.442 271.314 223.331C263.596 196.494 255.886 169.643 248.183 142.777L240.597 116.777L236.628 103.006C235.57 99.3047 234.776 95.7793 231.071 93.8845C227.367 91.9896 222.251 93.5319 218.061 94.1048C213.276 94.7438 208.491 95.4048 203.706 96.1319L175.039 100.539C136.553 106.972 98.3314 114.904 60.3742 124.335C50.8482 126.692 41.3663 129.248 31.7079 131.209C26.967 132.178 22.1819 132.994 17.3527 133.412C15.1476 133.655 12.7661 133.853 10.4507 133.963C8.38998 133.89 6.33732 134.258 4.43082 135.043C-4.08087 139.45 1.63034 149.915 3.79134 156.415C6.83438 165.64 9.77452 174.887 12.6117 184.155C24.0342 220.878 34.2438 257.974 43.2406 295.446C52.2374 332.917 59.992 370.602 66.5044 408.499C68.0774 417.709 69.5475 426.941 70.9146 436.195C71.1567 437.033 71.7159 437.743 72.4735 438.175C73.2311 438.607 74.1274 438.726 74.972 438.509C105.976 431.392 137.332 425.906 168.821 421.543C201.765 416.96 234.974 413.611 268.161 411.98C276.981 411.562 285.669 411.253 294.424 411.121H306.993C311.182 411.121 315.218 410.879 318.217 407.508C321.216 404.137 316.342 399.62 313.52 402.815C311.315 405.37 307.147 404.511 304.104 404.511C300.311 404.511 296.519 404.511 292.726 404.511C285.118 404.643 277.533 404.908 269.969 405.26C253.673 406.031 237.4 407.243 221.17 408.786C188.447 411.9 155.877 416.306 123.462 422.006C106.637 424.98 89.8785 428.307 73.23 432.119L77.2874 434.322C71.5982 397.424 64.7109 360.716 56.6256 324.199C48.5402 287.683 39.3008 251.592 28.9074 215.927C23.7916 197.963 18.3377 180.079 12.5456 162.276C11.0682 157.869 9.59076 153.22 8.13539 148.704C7.09899 145.575 4.40877 141.014 9.37025 140.705C18.7028 140.087 27.9756 138.768 37.1104 136.761C55.6112 132.707 73.8915 127.64 92.3702 123.541C110.849 119.443 129.085 115.587 147.498 112.128C165.91 108.669 184.984 105.518 203.64 102.698C208.403 101.993 213.188 101.31 217.995 100.649C220.354 100.318 222.714 99.9657 225.095 99.6792C226.727 99.4809 228.182 99.3047 228.976 101.023C229.702 103.085 230.299 105.189 230.762 107.325L232.813 114.486L236.496 127.331C244.61 155.549 252.696 183.773 260.752 212.005C266.191 230.969 271.645 249.94 277.114 268.918L288.889 309.966L299.319 346.233C303.391 360.466 307.478 374.693 311.579 388.912L313.365 395.169C314.093 397.703 315.416 400.545 313.542 402.881C311.425 406.164 316.056 410.901 318.724 407.618Z" fill="#2D2FEE"/>
<path d="M261.434 194.4C284.868 185.923 308.784 178.838 333.055 173.182C338.642 204.381 344.853 235.455 351.688 266.405C330.037 274.787 309.576 285.965 290.828 299.653" fill="#2D2FEE"/>
<path d="M262.319 197.595C285.796 189.104 309.747 181.982 334.051 176.266L329.972 174.063C335.573 205.262 341.791 236.337 348.627 267.286L350.832 263.21C328.913 271.787 308.167 283.099 289.089 296.877C285.649 299.323 288.957 305.051 292.441 302.584C310.986 289.076 331.169 277.971 352.508 269.534C353.341 269.278 354.045 268.713 354.476 267.955C354.906 267.197 355.031 266.304 354.823 265.457C348.032 234.493 341.843 203.411 336.256 172.212C335.996 171.392 335.428 170.704 334.672 170.293C333.915 169.883 333.029 169.781 332.199 170.009C307.933 175.696 284.019 182.788 260.577 191.249C256.608 192.681 258.372 199.071 262.341 197.617L262.319 197.595Z" fill="#2D2FEE"/>
<path d="M298.504 322.768C312.004 315.281 326.244 309.211 340.996 304.656C345.053 303.422 343.311 297.033 339.232 298.289C323.914 302.985 309.132 309.277 295.13 317.061C291.403 319.132 294.733 324.839 298.46 322.768H298.504Z" fill="#2D2FEE"/>
<path d="M303.181 338.081C314.846 329.227 328.675 323.665 343.226 321.974C344.096 321.952 344.924 321.597 345.54 320.982C346.155 320.366 346.511 319.539 346.533 318.669C346.533 317.793 346.185 316.952 345.564 316.332C344.944 315.712 344.103 315.364 343.226 315.364C327.501 317.041 312.519 322.916 299.851 332.374C299.112 332.831 298.576 333.555 298.354 334.395C298.133 335.236 298.242 336.129 298.66 336.891C299.107 337.643 299.831 338.189 300.677 338.412C301.522 338.634 302.422 338.515 303.181 338.081Z" fill="#2D2FEE"/>
<path d="M305.515 351.587L323.333 345.726C323.752 345.612 324.146 345.416 324.49 345.15C324.834 344.883 325.122 344.552 325.338 344.175C325.554 343.797 325.694 343.381 325.749 342.95C325.804 342.518 325.773 342.08 325.659 341.661C325.544 341.241 325.349 340.848 325.082 340.504C324.816 340.16 324.484 339.872 324.106 339.657C323.729 339.441 323.312 339.301 322.88 339.246C322.449 339.191 322.01 339.222 321.59 339.336L303.751 345.197C302.903 345.431 302.183 345.992 301.749 346.756C301.314 347.52 301.202 348.426 301.436 349.273C301.67 350.121 302.231 350.84 302.996 351.274C303.761 351.708 304.667 351.821 305.515 351.587Z" fill="#2D2FEE"/>
<path d="M311.318 372.012L351.009 357.293C351.439 357.188 351.844 356.998 352.199 356.733C352.554 356.469 352.852 356.136 353.075 355.755C353.299 355.373 353.444 354.95 353.502 354.512C353.559 354.073 353.528 353.628 353.41 353.202C353.292 352.775 353.089 352.377 352.814 352.031C352.539 351.684 352.198 351.396 351.809 351.184C351.421 350.972 350.994 350.839 350.553 350.795C350.113 350.751 349.668 350.795 349.245 350.926L309.554 365.622C308.74 365.9 308.062 366.474 307.653 367.229C307.245 367.985 307.136 368.866 307.348 369.698C307.586 370.539 308.144 371.252 308.903 371.685C309.662 372.118 310.561 372.235 311.406 372.012H311.318Z" fill="#2D2FEE"/>
<path d="M135.592 85.6879C179.429 76.8745 223.428 68.9866 267.589 62.024L263.488 58.8512L262.65 65.329C262.473 66.7171 262.65 70.1323 261.393 71.0357C260.136 71.9391 256.762 71.5204 255.263 71.6085L248.273 72.0492C238.614 72.7102 228.963 73.5548 219.32 74.5831C200.473 76.5807 181.715 79.2909 163.045 82.7134C152.284 84.6964 141.568 86.8997 130.895 89.3234L134.952 91.5267C134.669 90.0697 134.463 88.5987 134.335 87.1201C134.335 85.115 137.202 85.3354 139.12 84.9167L135.063 82.7134L135.945 86.415C136.209 87.2368 136.781 87.9248 137.541 88.3354C138.302 88.7459 139.191 88.8473 140.024 88.6183L149.131 86.5692L147.389 80.2016L142.758 81.5897C139.804 82.471 139.429 87.2743 142.758 87.9573C147.376 88.9131 152.184 88.1945 156.32 85.9303C156.9 85.5384 157.343 84.9736 157.583 84.3161C157.824 83.6586 157.851 82.9419 157.661 82.2682C157.47 81.5944 157.072 80.9979 156.522 80.5636C155.973 80.1292 155.3 79.8792 154.6 79.849L139.341 79.6287C135.063 79.6287 135.129 85.9743 139.341 86.2387C142.685 86.4319 145.958 87.2777 148.977 88.7285L150.653 82.5812C145.184 82.5812 139.759 83.6608 134.291 83.7269L135.173 90.2047C152.946 87.759 170.609 84.6743 188.36 82.2286C192.087 81.7219 191.138 75.6186 187.478 75.7508L161.833 76.2576V82.8676C195.791 78.4609 229.242 70.7933 263.267 66.3205L259.96 63.0155C259.89 63.6638 259.696 64.2924 259.386 64.8663C259.21 65.2409 258.945 65.6155 258.791 66.0121L258.504 66.4307C256.872 66.9815 258.173 67.9951 262.451 69.5374L260.114 70.4848H260.445L258.107 69.5154C257.666 69.0747 257.71 69.3391 258.24 70.3306L258.967 72.3577L262.143 68.1713C254.91 68.612 247.677 69.7357 240.489 70.5069C229.86 71.6746 219.209 72.8644 208.537 73.5255C206.552 73.5255 204.589 73.7458 202.627 73.7678H200.422C199.672 73.7678 200.267 73.6136 200.422 73.7678C200.576 73.9221 198.812 73.1729 200.598 73.9221L199.804 79.9592C201.802 79.4321 203.836 79.0565 205.89 78.8355C210.301 78.057 214.711 77.3225 219.121 76.6322C228.89 75.0017 238.636 73.4153 248.383 71.7408C250.948 71.455 253.49 70.9912 255.99 70.3526C256.671 70.1389 257.265 69.7138 257.687 69.1392C258.109 68.5646 258.337 67.8705 258.337 67.1578C258.337 66.4451 258.109 65.751 257.687 65.1764C257.265 64.6018 256.671 64.1768 255.99 63.963C244.277 61.2 232.102 61.0195 220.312 63.4342C216.695 64.1613 217.467 70.2204 221.194 70.0442L240.268 68.5679V61.9579C217.819 64.5354 195.667 69.2499 174.115 76.0373C170.08 77.3152 171.91 83.7049 175.879 82.4049C196.825 75.764 218.355 71.1307 240.18 68.5679C244.325 68.0832 244.59 61.6274 240.18 61.9579L221.106 63.4342L221.988 69.912C232.625 67.7577 243.603 67.9457 254.16 70.4628V64.0731C252.163 64.6074 250.129 64.9904 248.074 65.2189C243.664 65.9827 239.254 66.7171 234.843 67.4222C225.097 69.0527 215.328 70.6391 205.582 72.2916C203.016 72.5847 200.474 73.0559 197.974 73.7017C195.571 74.4949 194.358 78.5491 197.18 79.7389C199.884 80.5696 202.735 80.8027 205.538 80.4219C210.345 80.2016 215.152 79.7829 219.959 79.3423C230.985 78.3287 241.79 77.1389 252.683 75.883C255.792 75.5525 258.901 75.0898 262.01 74.9136C262.448 74.9136 262.882 74.8267 263.286 74.6578C263.691 74.489 264.057 74.2416 264.365 73.93C264.673 73.6184 264.915 73.2489 265.079 72.8428C265.243 72.4367 265.324 72.0022 265.318 71.5645C265.352 71.2864 265.352 71.0053 265.318 70.7272C264.304 67.8629 262.826 62.0901 258.46 64.4697C257.937 64.7572 257.477 65.1479 257.11 65.6181C256.742 66.0883 256.474 66.6282 256.321 67.2051C256.169 67.782 256.135 68.3838 256.222 68.9741C256.309 69.5643 256.516 70.1308 256.828 70.6391C257.043 71.0258 257.318 71.3754 257.644 71.6746C262.473 75.5966 266.641 66.9595 266.597 63.1477C266.6 62.7166 266.518 62.2891 266.355 61.8897C266.193 61.4903 265.953 61.1267 265.65 60.8198C265.347 60.5129 264.987 60.2687 264.589 60.101C264.192 59.9334 263.765 59.8456 263.333 59.8427C229.397 64.2494 195.945 71.917 161.899 76.3898C157.841 76.9186 157.488 82.9998 161.899 82.9998L187.544 82.493L186.684 75.883C168.757 78.3287 151.094 81.5236 133.321 83.8591C129.594 84.3659 130.564 90.4691 134.203 90.4691C139.671 90.4691 145.096 89.3675 150.564 89.3234C153.674 89.3234 155.305 84.6303 152.24 83.154C148.148 81.1721 143.704 80.0189 139.164 79.7609V86.3709L154.423 86.5913L152.748 80.4219C150.156 81.7864 147.17 82.2071 144.302 81.6117V87.9794L148.911 86.5913C149.716 86.3262 150.388 85.7622 150.79 85.0159C151.191 84.2696 151.29 83.3979 151.066 82.5808C150.843 81.7636 150.314 81.0635 149.588 80.6248C148.863 80.1862 147.997 80.0426 147.169 80.2236L138.04 82.2727L142.097 84.476L141.369 80.7965C141.122 79.9574 140.559 79.2471 139.798 78.8154C139.037 78.3838 138.137 78.2646 137.29 78.483C134.968 78.6621 132.712 79.3384 130.674 80.466C129.781 81.1338 129.043 81.9884 128.514 82.9702C127.984 83.952 127.676 85.0373 127.609 86.1506C127.678 88.5648 127.958 90.9683 128.447 93.3335C128.712 94.1505 129.281 94.8347 130.036 95.2447C130.791 95.6548 131.675 95.7593 132.505 95.5368C172.697 86.3965 213.581 80.6184 254.733 78.2626C259.32 77.9982 265.009 78.5711 267.523 73.856C268.426 71.7636 268.934 69.5227 269.023 67.2459L270.125 58.7631C270.412 56.4055 267.766 55.2818 265.935 55.5682C221.789 62.5895 177.761 70.5069 133.85 79.3202C129.682 80.1575 131.446 86.5252 135.614 85.6879H135.592Z" fill="#2D2FEE"/>
<path d="M66.9661 183.626C68.4174 181.648 70.2726 180 72.409 178.792C74.5455 177.584 76.9143 176.844 79.3587 176.619C84.8274 176.156 90.3842 178.007 95.4339 174.768C97.3336 173.4 98.976 171.707 100.285 169.767C101.432 168.268 103.769 164.699 106.062 165.757C107.099 166.241 107.849 167.585 108.687 168.357C109.478 169.081 110.378 169.675 111.355 170.119C113.753 171.094 116.423 171.172 118.874 170.34C124.056 168.665 126.901 164.413 131.223 161.526C135.545 158.64 140.043 161.218 144.453 162.826C146.647 163.743 149.025 164.131 151.397 163.958C153.768 163.786 156.065 163.059 158.103 161.835C162.513 159.103 165.578 155.225 171.333 155.577C177.089 155.93 182.624 158.618 188.666 157.781C191.094 157.589 193.412 156.689 195.333 155.193C197.253 153.697 198.692 151.67 199.471 149.364C200.683 145.266 194.289 143.525 193.098 147.601C191.907 151.677 186.791 151.721 183.55 151.325C177.816 150.642 172.524 148.152 166.57 149.32C161.543 150.311 158.434 154.211 154.112 156.569C149.79 158.926 145.291 155.864 140.881 154.365C138.625 153.525 136.195 153.256 133.809 153.583C131.424 153.91 129.156 154.822 127.209 156.238C123.681 158.772 120.307 163.994 115.611 164.302C113.185 164.457 112.127 162.099 110.429 160.755C109.403 159.94 108.198 159.382 106.914 159.125C105.629 158.868 104.302 158.921 103.042 159.279C100.752 160.003 98.7065 161.345 97.1318 163.157C95.6796 165.311 93.9853 167.292 92.0822 169.062C89.6345 170.78 86.1725 170.207 83.372 170.053C80.5092 169.828 77.6287 170.059 74.8383 170.736C69.3387 172.255 64.5375 175.635 61.2548 180.299C58.7631 183.736 64.4963 187.041 66.9661 183.626Z" fill="#2D2FEE"/>
<path d="M82.4735 226.305C82.6719 223.132 82.7601 219.012 85.3621 216.743C87.5672 214.782 89.5298 215.971 91.4041 217.668C94.9984 220.929 98.7692 224.432 104.017 222.648C108.802 220.995 111.007 215.288 116.41 215.178C121.812 215.068 127.237 217.734 132.838 217.536C135.537 217.332 138.16 216.545 140.524 215.229C142.888 213.913 144.938 212.099 146.532 209.912C148.737 207.224 153.5 198.896 157.822 200.438C159.606 201.375 161.193 202.647 162.497 204.184C164.147 205.903 166.213 207.17 168.494 207.863C169.677 208.134 170.907 208.126 172.086 207.839C173.265 207.552 174.361 206.995 175.286 206.211C177.271 204.602 178.241 201.628 180.468 200.394C183.158 198.896 187.083 200.614 189.487 201.76C192.224 203.234 195.061 204.515 197.977 205.594C203.533 207.268 209.774 206.828 213.17 201.584C215.507 197.992 209.73 194.687 207.525 198.301C204.835 202.465 197.536 198.455 194.448 196.868C189.355 194.269 182.673 191.536 177.205 194.665C175.153 196.152 173.403 198.014 172.045 200.151C170.545 202.002 169.619 201.495 167.943 200.151C164.217 197.067 160.953 193.035 155.595 193.762C149.575 194.577 145.914 200.372 142.364 204.778C140.956 206.74 139.209 208.434 137.204 209.78C134.731 211.077 131.873 211.437 129.155 210.794C123.753 209.934 118.262 207.753 112.727 209.185C110.091 209.96 107.704 211.411 105.803 213.394C104.348 214.76 102.54 217.249 100.291 216.5C98.0415 215.751 96.3876 213.239 94.6236 211.829C93.5166 210.847 92.2111 210.115 90.7957 209.681C89.3803 209.248 87.8882 209.124 86.4206 209.317C78.1515 210.639 76.3433 219.497 75.9023 226.437C75.6376 230.69 82.253 230.69 82.5176 226.437L82.4735 226.305Z" fill="#2D2FEE"/>
<path d="M97.6217 273.037C97.4024 272.017 97.5523 270.952 98.045 270.033C98.5376 269.113 99.3409 268.397 100.312 268.014C102.649 267.088 104.413 269.027 105.979 270.503C109.838 274.139 114.358 276.915 119.651 274.425C123.84 272.442 126.266 268.234 129.64 265.215C134.05 261.249 139.056 263.629 143.995 265.215C149.618 267.11 155.02 267.617 160.335 264.665C164.458 262.461 167.832 258.055 172.419 256.755C173.537 256.513 174.694 256.519 175.81 256.77C176.925 257.021 177.973 257.512 178.88 258.209C181.243 259.845 183.913 260.984 186.73 261.558C192.441 262.197 196.498 258.385 200.909 255.587C202.16 254.667 203.603 254.041 205.13 253.755C206.657 253.469 208.229 253.53 209.729 253.934C213.015 255.098 216.456 255.767 219.939 255.917C226.003 255.543 231.78 251.268 230.633 244.724C229.884 240.538 223.511 242.323 224.239 246.487C224.569 248.272 221.129 249.175 219.828 249.307C216.697 249.66 213.5 247.963 210.479 247.346C204.018 246.024 199.453 248.294 194.404 252.017C192.722 253.547 190.682 254.631 188.472 255.168C185.76 255.477 183.246 253.251 181.041 252.039C178.826 250.741 176.297 250.076 173.73 250.119C171.163 250.162 168.657 250.91 166.487 252.282C162.341 254.727 158.725 259.244 153.874 260.236C148.383 261.382 142.848 257.394 137.49 256.578C134.961 256.19 132.374 256.445 129.969 257.319C127.565 258.194 125.419 259.659 123.73 261.58C121.525 263.783 118.041 269.776 114.27 268.564C111.712 267.727 109.86 264.863 107.655 263.298C106.512 262.394 105.189 261.743 103.775 261.39C102.36 261.036 100.886 260.989 99.4519 261.249C98.0343 261.546 96.6889 262.118 95.4928 262.934C94.2966 263.75 93.273 264.793 92.4805 266.005C91.6881 267.216 91.1422 268.571 90.8741 269.994C90.606 271.416 90.621 272.877 90.9182 274.293C90.9079 274.425 90.9079 274.558 90.9182 274.69C91.1835 275.494 91.7478 276.166 92.4947 276.567C93.2417 276.968 94.1141 277.067 94.9319 276.843C95.7497 276.62 96.4504 276.092 96.8894 275.367C97.3284 274.642 97.4721 273.777 97.2909 272.949L97.6217 273.037Z" fill="#2D2FEE"/>
<path d="M109.751 326.646C110.156 324.571 111.176 322.666 112.678 321.177C114.18 319.688 116.094 318.684 118.174 318.295C123.136 317.37 127.458 321.181 132.044 322.459C134.316 323.054 136.701 323.072 138.981 322.51C141.261 321.948 143.364 320.825 145.098 319.242C148.935 316.202 151.714 313.139 156.962 314.285C162.21 315.431 167.127 317.392 172.397 315.365C176.918 313.624 180.115 309.46 184.702 308.005C189.906 306.331 195.86 308.622 201.086 309.217C206.459 309.628 211.846 308.609 216.698 306.265C219.342 305.01 222.172 304.191 225.077 303.841C228.473 303.665 231.803 304.678 235.199 304.546C241.263 304.29 247.035 301.875 251.472 297.738C254.626 294.873 249.929 290.202 246.776 293.067C244.704 294.93 242.246 296.314 239.579 297.121C236.911 297.929 234.098 298.139 231.34 297.738C225.771 296.611 219.986 297.387 214.912 299.941C212.495 301.041 209.986 301.926 207.414 302.585C204.355 303.055 201.234 302.935 198.219 302.233C192.883 301.285 187.194 300.029 182.034 301.99C177.337 303.687 173.963 308.38 169.112 309.57C164.261 310.76 159.035 307.366 154.007 307.366C148.979 307.366 145.187 310.539 141.526 313.668C140.053 315.161 138.133 316.136 136.057 316.444C133.456 316.228 130.941 315.405 128.714 314.042C123.444 311.619 118.262 310.671 112.816 313.183C110.432 314.271 108.334 315.899 106.688 317.937C105.042 319.976 103.894 322.369 103.334 324.927C102.518 329.091 108.891 330.876 109.706 326.69L109.751 326.646Z" fill="#2D2FEE"/>
<path d="M355.262 3.37146C352.409 10.611 347.689 16.9667 341.581 21.7926C335.473 26.6185 328.195 29.7425 320.487 30.8471C319.61 30.8471 318.769 31.1953 318.148 31.8151C317.528 32.4349 317.18 33.2756 317.18 34.1521C317.18 35.0287 317.528 35.8693 318.148 36.4891C318.769 37.1089 319.61 37.4571 320.487 37.4571C327.213 38.1109 333.534 40.967 338.467 45.5813C343.4 50.1956 346.668 56.3094 347.764 62.9718C348.294 67.048 354.534 67.3785 354.38 62.9718C354.377 60.3119 354.899 57.6775 355.916 55.2195C356.934 52.7615 358.426 50.5282 360.309 48.6473C362.191 46.7665 364.426 45.2751 366.886 44.2585C369.346 43.242 371.983 42.7202 374.645 42.7231C375.381 42.7158 376.118 42.7526 376.85 42.8333C379.76 43.2078 381.106 39.0215 379.187 37.1927C374.588 32.8348 370.967 27.5506 368.564 21.6897C366.162 15.8288 365.032 9.5249 365.251 3.19519C365.405 -1.05725 358.79 -1.05725 358.636 3.19519C358.417 10.3931 359.718 17.5563 362.453 24.2186C365.189 30.8809 369.298 36.8931 374.512 41.8638L376.85 36.2233C361.723 34.2623 347.235 47.8789 347.764 62.9718H354.38C353.203 54.5746 349.21 46.8247 343.054 40.9893C336.897 35.1538 328.942 31.5782 320.487 30.8471V37.4571C329.626 36.2808 338.277 32.658 345.524 26.9719C352.771 21.2859 358.345 13.7481 361.657 5.15616C363.178 1.19015 356.783 -0.528451 355.262 3.41553V3.37146Z" fill="#2D2FEE"/>
<path d="M375.554 51.7779C372.913 58.0678 368.26 63.3058 362.323 66.6725C361.58 67.126 361.04 67.8495 360.818 68.6914C360.596 69.5334 360.709 70.4285 361.133 71.1893L370.703 90.116L376.414 86.7889C375.819 85.7754 376.899 84.4534 377.914 83.9026C380.32 83.0736 382.912 82.9437 385.389 83.528C388.057 83.8144 389.27 80.5535 388.255 78.5705C384.364 70.8652 382.706 62.2258 383.47 53.6287C383.465 52.7539 383.114 51.9166 382.495 51.2981C381.876 50.6795 381.038 50.3295 380.163 50.3237C379.292 50.346 378.464 50.7014 377.849 51.3164C377.233 51.9314 376.877 52.7592 376.855 53.6287C376.082 63.402 378.068 73.1961 382.588 81.8975L385.433 76.918C381.023 76.4553 376.282 76.3672 372.82 79.4959C371.305 80.7572 370.268 82.4995 369.883 84.4321C369.497 86.3647 369.787 88.3708 370.703 90.116C371.161 90.8392 371.882 91.3568 372.714 91.5598C373.546 91.7628 374.424 91.6353 375.164 91.2043C375.904 90.7732 376.448 90.0722 376.681 89.2487C376.914 88.4252 376.818 87.5434 376.414 86.7889L366.756 67.8402L365.565 72.3791C372.575 68.5019 378.109 62.4224 381.309 55.0829C381.69 54.331 381.779 53.4651 381.559 52.6516C381.339 51.8381 380.826 51.1346 380.119 50.6762C379.37 50.2753 378.497 50.1751 377.677 50.3963C376.857 50.6174 376.153 51.1432 375.708 51.866L375.554 51.7779Z" fill="#2D2FEE"/>
<path d="M120.995 460.078C119.206 465.059 116.093 469.459 111.991 472.805C107.888 476.151 102.951 478.317 97.7091 479.071C94.7542 479.534 94.6881 483.786 96.9152 485.108C101.957 488.187 106.259 492.337 109.514 497.265C112.768 502.193 114.897 507.777 115.747 513.619C116.342 517.475 122.031 516.241 122.252 512.738C122.606 508.269 124.328 504.018 127.184 500.561C130.04 497.103 133.892 494.609 138.217 493.415C139.047 493.155 139.743 492.581 140.156 491.815C140.568 491.049 140.663 490.152 140.422 489.317C140.352 489.055 140.248 488.803 140.113 488.567C136.739 483.346 131.557 479.908 127.831 475.039C125.185 471.58 123.421 465.785 127.302 462.612C130.609 459.946 125.89 455.297 122.627 457.941C117.357 462.216 117.709 469.773 120.422 475.414C123.575 482.024 130.521 485.791 134.468 491.895L136.431 487.047C130.738 488.663 125.685 492 121.966 496.6C118.247 501.2 116.043 506.837 115.659 512.738L122.164 511.857C121.074 505.169 118.537 498.8 114.728 493.194C110.919 487.588 105.931 482.881 100.113 479.402L99.4731 485.461C105.823 484.404 111.768 481.651 116.679 477.493C121.589 473.334 125.283 467.926 127.368 461.841C128.757 457.809 122.362 456.068 120.995 460.078Z" fill="#2D2FEE"/>
</g>
<defs>
<clipPath id="clip0">
<rect width="415" height="516" fill="white"/>
</clipPath>
</defs>
</svg>
