<svg width="245" height="490" viewBox="0 0 245 490" fill="none" xmlns="http://www.w3.org/2000/svg">
<path d="M198.181 274.995C199.296 279.816 203.905 282.406 208.367 283.416C212.071 284.279 216.785 285.269 220.194 282.974C224.635 279.943 223.919 273.732 220.005 270.595C217.943 269.114 215.613 268.049 213.144 267.459C210.784 266.684 208.324 266.258 205.841 266.195C204.481 266.174 203.143 266.547 201.99 267.269C200.977 268.014 200.137 268.969 199.528 270.069C198.984 271.093 198.533 272.164 198.181 273.269C197.967 274.078 198.078 274.939 198.491 275.667C198.904 276.396 199.586 276.933 200.391 277.164C201.185 277.372 202.03 277.27 202.752 276.879C203.475 276.489 204.023 275.838 204.284 275.058L204.642 274.048L204.768 273.69C204.768 273.69 204.305 274.616 204.579 274.111C204.852 273.606 205.063 273.248 205.315 272.827C205.568 272.406 205.673 272.469 205.315 272.953L205.61 272.616C205.841 272.322 205.61 272.616 205.61 272.616C205.61 272.616 205.399 272.764 205.61 272.616L205.189 272.764C205.399 272.686 205.618 272.636 205.841 272.616C205.357 272.616 205.841 272.616 205.968 272.616H207.293C206.788 272.616 208.03 272.764 208.114 272.785L209.524 273.08C210.45 273.29 211.355 273.522 212.26 273.795L213.523 274.195L214.112 274.406C214.112 274.406 214.891 274.722 214.575 274.574C214.26 274.427 214.744 274.574 214.744 274.574L215.291 274.848C215.291 274.848 216.343 275.522 215.901 275.185C216.207 275.432 216.488 275.706 216.743 276.006C216.259 275.458 217.122 276.722 216.974 276.406C216.827 276.09 216.974 276.574 216.974 276.658C216.974 276.743 216.974 276.932 216.974 277.058C216.827 276.532 216.974 276.827 216.974 277.058C216.974 277.29 216.974 277.227 216.974 277.058L216.848 277.585C216.848 277.437 217.101 277.1 216.848 277.585C216.596 278.069 216.553 277.816 216.848 277.585C216.848 277.585 216.406 278.132 216.701 277.774C216.995 277.416 216.427 278.09 216.28 277.985C216.133 277.879 216.911 277.795 216.427 277.985L215.985 278.132H215.543C214.933 278.279 215.543 278.132 215.67 278.132C215.308 278.195 214.937 278.195 214.575 278.132H213.586C213.313 278.132 212.66 278.132 213.312 278.132C212.534 278.006 211.776 277.858 210.997 277.69C210.038 277.504 209.09 277.265 208.156 276.974L207.546 276.764C207.399 276.764 206.873 276.469 207.251 276.764C206.848 276.574 206.454 276.363 206.073 276.132L205.631 275.837C205.336 275.648 205.925 276.132 205.526 275.837C205.126 275.543 204.936 275.269 204.663 274.953C204.389 274.637 204.852 275.353 204.663 274.953C204.567 274.748 204.454 274.551 204.326 274.364C204.326 274.216 204.179 273.858 204.326 274.364C204.326 274.111 204.179 273.859 204.116 273.585C203.868 272.796 203.322 272.136 202.595 271.743C201.869 271.35 201.017 271.255 200.222 271.48C199.532 271.745 198.953 272.238 198.582 272.878C198.211 273.517 198.069 274.264 198.181 274.995Z" fill="#2D2FEE"/>
<path d="M212.913 359.857C197.092 366.637 184.48 379.238 177.683 395.056C175.77 398.902 174.559 403.058 174.105 407.33C174.105 411.54 177.704 415.161 179.914 418.361C186.122 427.287 193.046 436.024 198.413 445.476C204.201 455.623 205.8 467.455 207.252 478.865C207.778 482.844 214.092 482.907 213.566 478.865C212.324 469.202 211.125 459.35 207.568 450.192C204.011 441.034 197.571 432.698 191.805 424.424L182.734 411.393C182.019 410.382 180.63 409.056 180.461 407.73C180.566 405.672 181.051 403.652 181.892 401.772C184.41 394.106 188.511 387.055 193.93 381.078C200.088 374.277 207.649 368.897 216.091 365.309C219.816 363.709 216.596 358.257 212.913 359.857Z" fill="#2D2FEE"/>
<path d="M152.01 226.701C139.382 239.522 140.035 259.711 142.329 276.258C143.594 285.486 146.374 294.441 150.557 302.763C154.005 309.992 158.061 316.915 162.68 323.457C167.56 330.629 174.256 336.375 182.084 340.109C185.767 341.73 188.987 336.278 185.283 334.657C172.087 328.91 164.595 315.962 158.176 303.773C154.173 296.611 151.237 288.901 149.463 280.889C147.681 272.465 146.974 263.85 147.359 255.248C147.843 246.574 150.116 237.501 156.366 231.164C159.228 228.259 154.767 223.796 151.904 226.701H152.01Z" fill="#2D2FEE"/>
<path d="M169.182 325.878C180.525 322.742 192.206 320.089 203.339 316.194C213.862 312.51 224.721 303.816 222.027 291.269C221.185 287.29 215.103 288.974 215.945 292.953C218.302 303.963 205.022 309.268 196.815 311.626C187.071 314.405 177.263 317.079 167.498 319.794C166.714 320.037 166.055 320.575 165.661 321.296C165.267 322.017 165.169 322.862 165.388 323.654C165.607 324.445 166.126 325.12 166.834 325.536C167.542 325.951 168.385 326.074 169.182 325.878Z" fill="#2D2FEE"/>
<path d="M179.475 212.933C177.96 226.112 179.37 239.796 174.445 252.385C174.233 253.178 174.333 254.022 174.724 254.742C175.116 255.463 175.769 256.006 176.55 256.259C177.345 256.467 178.189 256.365 178.912 255.975C179.634 255.584 180.182 254.933 180.443 254.154C185.557 241.059 184.105 226.786 185.684 213.038C185.684 212.201 185.351 211.398 184.759 210.806C184.167 210.213 183.364 209.881 182.527 209.881C181.689 209.881 180.887 210.213 180.294 210.806C179.702 211.398 179.37 212.201 179.37 213.038L179.475 212.933Z" fill="#2D2FEE"/>
<path d="M112.653 253.185C110.969 261.374 109.412 269.816 110.548 278.195C111.713 286.066 115.681 293.251 121.724 298.426C128.065 303.847 133.975 309.752 139.402 316.089C142.083 319.429 144.537 322.946 146.747 326.615C149.378 330.423 150.98 334.847 151.398 339.457C151.524 343.52 157.838 343.52 157.711 339.457C157.459 330.91 152.513 323.331 147.673 316.594C142.753 309.721 137.054 303.44 130.689 297.879C124.523 292.468 118.714 287.353 117.03 278.932C115.452 270.974 117.157 262.595 118.756 254.785C119.556 250.827 113.474 249.122 112.674 253.101L112.653 253.185Z" fill="#2D2FEE"/>
<path d="M120.313 369.899C126.816 373.014 134.098 372.341 141.022 371.393C148.474 370.369 155.756 368.359 162.678 365.415C168.895 363.149 174.49 359.449 179.009 354.615C183.032 349.83 185.576 343.979 186.333 337.773C186.775 333.731 180.461 333.773 180.019 337.773C178.799 349.225 169.076 356.194 159.226 360.151C153.575 362.426 147.688 364.064 141.674 365.036C136.013 365.962 128.879 367.141 123.512 364.53C119.871 362.783 116.651 368.235 120.313 369.983V369.899Z" fill="#2D2FEE"/>
<path d="M92.3693 259.648C87.4236 280.406 103.544 296.342 108.869 314.994C110.186 320.017 111.004 325.158 111.31 330.341C112.02 335.53 111.949 340.795 111.1 345.962C110.132 350.173 106.301 354.383 102.997 357.73L105.228 356.804C98.0095 356.362 90.7698 356.173 83.5302 355.836C77.0067 355.739 70.4996 355.155 64.0631 354.088C58.3387 352.952 52.5302 350.888 48.5526 346.404C47.4482 345.259 46.6025 343.891 46.0724 342.391C45.5423 340.891 45.3403 339.294 45.48 337.71C46.2522 334.205 47.7192 330.89 49.7943 327.962C53.4176 322.3 56.4099 316.257 58.7176 309.942C60.7606 303.355 61.4128 296.415 60.6327 289.563C59.2437 275.542 53.7929 262.195 52.8669 248.153C52.5403 240.565 53.3633 232.97 55.3082 225.627C56.9497 218.912 58.5492 211.438 62.0007 205.375C68.146 194.617 81.5309 187.797 93.1691 184.955C99.2187 183.488 105.459 182.969 111.668 183.418C116.055 183.91 120.401 184.712 124.674 185.818C133.067 187.247 141.233 189.781 148.961 193.354C155.595 196.713 161.683 201.057 167.018 206.238C172.279 211.375 176.488 217.417 181.434 222.827C186.047 228.325 192.127 232.399 198.965 234.575C202.104 235.585 205.433 235.86 208.696 235.378C211.958 234.897 215.066 233.671 217.779 231.796L213.149 228.217C210.694 238.785 208.674 249.438 207.088 260.174C206.499 264.153 212.581 265.858 213.17 261.837C214.756 251.129 216.776 240.483 219.232 229.901C219.8 227.501 216.938 224.554 214.602 226.343C208.162 231.206 199.596 229.291 193.325 225.08C185.874 220.091 180.929 212.07 175.036 205.501C164.678 193.734 150.954 185.437 135.723 181.734C123.538 179.123 111.71 175.86 99.1249 177.523C90.8886 178.56 82.921 181.138 75.6381 185.123C68.3774 189.081 61.0326 194.681 56.6972 201.965C54.4791 206.074 52.7824 210.445 51.6463 214.975C50.2573 219.754 48.9314 224.575 47.9844 229.459C46.0944 238.952 46.0229 248.718 47.7739 258.237C51.0149 276.384 58.928 294.742 50.8887 312.805C48.9276 316.981 46.7209 321.037 44.2803 324.952C41.7839 328.6 40.058 332.719 39.2084 337.057C38.0509 345.688 44.3435 353.057 51.6463 356.762C58.9491 360.467 67.0516 361.33 75.0279 361.857C84.5404 362.509 94.1161 362.657 103.65 363.204C107.143 363.394 108.659 361.288 110.637 358.699C112.512 356.554 114.209 354.259 115.709 351.836C119.329 345.015 118.045 335.92 117.392 328.573C116.647 319.069 114.135 309.787 109.984 301.205C105.775 292.784 100.745 284.574 98.5778 275.248C97.4493 270.741 97.3916 266.033 98.4094 261.501C99.3564 257.564 93.2532 255.88 92.3062 259.837L92.3693 259.648Z" fill="#2D2FEE"/>
<path d="M90.3015 364.53C90.1052 373.884 93.2939 382.993 99.2804 390.181C105.267 397.368 113.648 402.15 122.88 403.645C142.873 406.677 161.562 393.119 175.873 380.804C184.733 373.141 192.814 364.657 200.854 356.173C203.653 353.225 199.212 348.741 196.392 351.709C183.765 364.951 171.137 378.446 155.522 388.256C147.819 393.098 139.211 397.456 129.951 397.793C125.533 397.97 121.126 397.232 117.007 395.624C112.888 394.016 109.146 391.574 106.015 388.45C102.885 385.327 100.434 381.589 98.8162 377.473C97.1985 373.357 96.4492 368.95 96.6152 364.53C96.6152 360.467 90.3015 360.467 90.3015 364.53Z" fill="#2D2FEE"/>
<path d="M180.207 346.173C182.67 351.057 188.626 353.015 193.424 354.741C196.686 355.899 200.074 356.573 203.357 357.688C206.735 358.915 209.918 360.624 212.807 362.762C223.796 370.087 232.729 380.103 238.756 391.856C240.545 395.498 245.996 392.298 244.207 388.656C238.237 377.03 229.579 366.998 218.952 359.394C213.493 355.179 207.257 352.081 200.6 350.278C197.689 349.519 194.828 348.576 192.035 347.457C189.465 346.771 187.225 345.188 185.721 342.994C183.89 339.352 178.461 342.552 180.27 346.173H180.207Z" fill="#2D2FEE"/>
<path d="M66.7308 363.036C79.0214 402.319 87.3554 444.887 76.2854 485.455C76.0899 486.252 76.2128 487.095 76.628 487.804C77.0432 488.512 77.718 489.031 78.5093 489.25C79.3006 489.469 80.1461 489.371 80.8664 488.977C81.5867 488.583 82.1252 487.924 82.3676 487.139C91.1646 454.908 88.1341 420.993 80.4735 388.867C78.2638 379.604 75.6751 370.446 72.834 361.352C71.6134 357.499 65.5102 359.141 66.7308 363.036Z" fill="#2D2FEE"/>
<path d="M100.256 53.4202C114.777 55.7148 113.262 74.4724 113.283 85.3354C112.992 91.9508 114.284 98.5402 117.05 104.556C119.855 109.834 124.282 114.071 129.677 116.64V111.188C120.994 117.392 115.091 126.758 113.241 137.271L116.271 134.956C107.91 134.06 99.8846 131.172 92.8686 126.535C92.1444 126.119 91.2858 126.006 90.4785 126.218C89.6712 126.431 88.98 126.953 88.5543 127.671C85.3344 132.703 90.2169 140.303 92.9949 144.513C96.502 149.831 101.004 154.421 106.254 158.029C107.706 159.018 108.358 158.976 108.358 160.787C108.358 162.597 108.042 164.429 107.895 166.239L107.411 172.197C107.241 173.184 107.163 174.185 107.18 175.186V176.176C108.421 175.755 108.526 175.46 107.432 175.292C105.823 174.332 104.077 173.622 102.255 173.186L97.0777 171.081C93.2615 169.537 89.4593 167.972 85.6711 166.387C85.1891 166.124 84.6482 165.99 84.0996 165.995C83.551 166.001 83.013 166.147 82.5366 166.419C82.0601 166.691 81.661 167.08 81.3772 167.55C81.0933 168.019 80.9342 168.554 80.9148 169.102C80.5782 173.958 80.4939 178.827 80.6623 183.691C80.8096 187.755 87.1232 187.776 86.9759 183.691C86.8076 178.827 86.8919 173.958 87.2284 169.102L82.4932 171.839C86.4708 173.502 90.4484 175.165 94.4681 176.786C98.369 178.613 102.383 180.188 106.485 181.502C107.262 181.761 108.089 181.836 108.9 181.719C109.711 181.602 110.484 181.297 111.156 180.829C111.829 180.361 112.383 179.742 112.774 179.022C113.165 178.302 113.382 177.5 113.409 176.681C113.935 172.702 114.104 168.639 114.419 164.618C114.714 161.187 115.661 157.355 112.82 154.681C109.979 152.008 107.011 150.703 104.402 148.218C101.809 145.708 99.5461 142.879 97.667 139.798C96.81 138.374 96.0302 136.905 95.331 135.398C94.8469 134.324 93.4158 131.84 94.1103 130.745L89.9012 131.882C97.7651 137.05 106.747 140.269 116.103 141.271C116.797 141.268 117.471 141.038 118.022 140.616C118.573 140.195 118.971 139.604 119.154 138.934C120.593 130.024 125.447 122.026 132.687 116.64C133.152 116.354 133.537 115.953 133.804 115.476C134.071 114.998 134.211 114.461 134.211 113.914C134.211 113.367 134.071 112.829 133.804 112.352C133.537 111.875 133.152 111.474 132.687 111.188C129.904 109.886 127.424 108.016 125.405 105.7C123.387 103.383 121.874 100.67 120.964 97.7351C118.86 90.9563 119.638 83.7143 119.575 76.6829C119.575 64.8936 115.661 49.4623 101.855 47.2097C97.8775 46.5781 96.1728 52.6623 100.171 53.3149L100.256 53.4202Z" fill="#2D2FEE"/>
<path d="M36.8673 132.493C36.4041 132.298 35.9541 132.073 35.5203 131.819L34.8469 131.356C34.5523 131.166 35.1626 131.651 34.7417 131.356C34.3208 131.061 34.0051 130.661 33.6683 130.303L33.2264 129.777C33.6684 130.282 33.1002 129.608 33.0581 129.524C32.4747 128.684 31.9742 127.788 31.5638 126.851C31.7532 127.272 31.5638 126.851 31.5638 126.703C31.5638 126.556 31.3744 126.177 31.2903 125.924C31.1069 125.393 30.9523 124.852 30.8273 124.303C30.5887 123.39 30.5315 122.439 30.6589 121.503C30.6589 121.293 30.8062 121.082 30.8483 120.872C30.8903 120.661 30.5957 121.272 30.8483 120.872C30.969 120.64 31.1025 120.415 31.2481 120.198C30.9535 120.64 31.2481 120.198 31.4375 120.051C31.6269 119.903 31.2271 120.051 31.4375 120.051C31.648 120.051 31.9005 119.84 31.4375 120.051C31.7322 120.051 32.1952 120.051 31.4375 120.051H31.7322C31.3113 120.051 31.8584 120.051 32.0268 120.051H32.2373C32.4688 120.219 32.4898 120.219 32.2373 120.051C31.9847 119.882 32.0479 119.903 32.2373 120.051L32.0268 119.777C32.1162 119.903 32.1938 120.037 32.2583 120.177C32.6801 120.9 33.3714 121.425 34.1803 121.638C34.9893 121.852 35.8497 121.735 36.5726 121.314C37.2785 120.877 37.7899 120.186 38.0014 119.383C38.2128 118.58 38.1082 117.726 37.7091 116.998C36.8512 115.473 35.4383 114.337 33.7645 113.827C32.0907 113.318 30.2848 113.473 28.7227 114.261C27.2144 115.106 25.9766 116.362 25.1533 117.882C24.33 119.403 23.9549 121.126 24.0716 122.851C24.2821 128.851 27.8388 135.693 33.5211 138.156C33.8795 138.383 34.28 138.535 34.6986 138.603C35.1172 138.672 35.5454 138.655 35.9575 138.555C36.3695 138.454 36.7571 138.271 37.097 138.018C37.4369 137.764 37.7222 137.444 37.9359 137.078C38.1495 136.711 38.2871 136.305 38.3405 135.884C38.3938 135.463 38.3618 135.036 38.2463 134.627C38.1309 134.219 37.9344 133.838 37.6685 133.508C37.4026 133.177 37.0728 132.903 36.6989 132.703L36.8673 132.493Z" fill="#2D2FEE"/>
<path d="M12.771 101.019C12.3501 106.977 16.0121 113.082 22.3468 113.651C28.1763 114.135 31.9224 108.935 34.3216 104.367L28.5341 103.63C29.1159 105.392 30.245 106.923 31.7569 107.999C33.2688 109.075 35.0846 109.64 36.9398 109.611C38.795 109.583 40.5928 108.963 42.0714 107.842C43.5499 106.721 44.632 105.156 45.16 103.377L40.5089 105.272C45.0548 107.988 52.1682 112.324 49.5796 118.661C49.3597 119.471 49.4686 120.334 49.8825 121.064C50.2964 121.793 50.9818 122.33 51.7893 122.556C52.595 122.753 53.4455 122.634 54.1659 122.222C54.8862 121.811 55.4216 121.139 55.6617 120.345C56.3735 118.31 56.5769 116.131 56.2541 114C55.9313 111.868 55.0921 109.847 53.8097 108.114C51.0577 104.674 47.6167 101.849 43.7079 99.8194C43.2905 99.5805 42.8243 99.4396 42.3446 99.4071C41.8648 99.3746 41.3839 99.4514 40.9382 99.6318C40.4924 99.8122 40.0933 100.091 39.7711 100.448C39.4489 100.806 39.2118 101.231 39.0779 101.693C38.9161 102.138 38.6274 102.526 38.2476 102.808C37.8677 103.091 37.4134 103.256 36.9408 103.283C36.4681 103.31 35.998 103.197 35.5886 102.96C35.1792 102.722 34.8485 102.369 34.6373 101.946C33.6903 99.6299 30.2598 98.5352 28.8708 101.188C27.7554 103.293 26.0928 106.956 23.399 107.356C19.9476 107.882 18.9163 103.63 19.0847 101.04C19.3793 96.9773 13.0657 96.9984 12.771 101.04V101.019Z" fill="#2D2FEE"/>
<path d="M40.5508 86.7458C40.3145 84.9997 40.5976 83.2226 41.3647 81.6365C42.1319 80.0504 43.3492 78.7255 44.8645 77.8272C46.3799 76.929 48.1262 76.4971 49.8855 76.5856C51.6447 76.6741 53.3389 77.279 54.7565 78.3249C55.236 78.5947 55.7773 78.7353 56.3274 78.733C56.8776 78.7308 57.4177 78.5857 57.895 78.312C58.3723 78.0383 58.7703 77.6453 59.0502 77.1715C59.3301 76.6978 59.4823 76.1594 59.4918 75.6092C59.5261 72.3709 60.6702 69.2423 62.7328 66.7462C63.6093 65.7553 64.8148 65.1156 66.1264 64.9453C67.438 64.775 68.7669 65.0857 69.8672 65.8199C70.286 66.0585 70.7536 66.1987 71.2345 66.2299C71.7154 66.2611 72.1972 66.1824 72.6432 65.9998C73.0893 65.8173 73.488 65.5357 73.8092 65.1763C74.1304 64.8168 74.3657 64.389 74.4972 63.9252C75.4289 61.2014 77.3433 58.9234 79.8657 57.5373C82.388 56.1511 85.3368 55.7564 88.1347 56.4306C88.9251 56.6036 89.7518 56.4664 90.4441 56.0473C91.1363 55.6281 91.6412 54.9591 91.8545 54.1784C92.0679 53.3976 91.9734 52.5648 91.5905 51.8517C91.2077 51.1386 90.5658 50.5999 89.7973 50.3466C85.3879 49.2687 80.7342 49.8977 76.7689 52.1074C72.8036 54.3172 69.8196 57.9444 68.4151 62.2621L73.0451 60.3674C70.9572 59.0445 68.5009 58.4249 66.0357 58.5992C63.5704 58.7734 61.2256 59.7324 59.3444 61.3358C55.1353 64.7884 53.6411 70.3461 53.1781 75.6092L57.9344 72.8724C55.5473 71.2726 52.7573 70.3795 49.8852 70.2959C47.0131 70.2123 44.1758 70.9417 41.6999 72.4C39.2239 73.8584 37.2099 75.9864 35.8897 78.5392C34.5694 81.092 33.9966 83.9659 34.2372 86.83C34.616 90.851 40.9507 90.8931 40.5508 86.83V86.7458Z" fill="#2D2FEE"/>
<path d="M-4.1501 106.914C-8.3592 107.377 -11.3476 103.925 -13.7889 100.977C-16.2302 98.03 -19.1345 93.8406 -18.8819 89.588C-18.4821 82.9355 -10.4637 79.7987 -4.78144 80.9566C-4.05457 81.1177 -3.29423 81.0183 -2.63308 80.6759C-1.97194 80.3336 -1.45197 79.7699 -1.16386 79.0832C-0.875738 78.3965 -0.837774 77.6304 -1.0566 76.9186C-1.27542 76.2067 -1.73716 75.5944 -2.36122 75.1883C-4.4092 73.7475 -6.06123 71.8138 -7.16472 69.5656C-8.26822 67.3175 -8.78759 64.8274 -8.67486 62.3254C-8.46441 58.115 -5.5391 50.915 -0.53027 50.5571C2.14201 50.7027 4.68636 51.749 6.68839 53.5255C7.7617 54.4097 9.80309 57.1254 8.03526 58.4517C6.26744 59.778 4.81531 55.7781 4.6259 54.7255C4.22602 51.9645 4.26864 49.1574 4.75217 46.4098C6.16222 37.0205 14.5594 25.5681 25.4609 29.2523C29.5227 30.6207 33.3109 34.6628 33.1215 39.1679C33.1215 40.5363 32.3007 43.3783 30.4066 43.1889C27.7759 42.831 28.3021 38.3679 28.7651 36.7469C30.0489 31.147 32.4691 25.2945 38.7828 24.3892C41.1399 24.0524 55.072 24.3892 54.0407 28.2628L60.2281 29.105C60.4178 26.8151 61.459 24.6797 63.1462 23.1206C64.8334 21.5614 67.0439 20.692 69.3408 20.6841C71.3605 20.8917 73.2398 21.8137 74.6403 23.2842C76.0408 24.7546 76.8706 26.6769 76.9803 28.705C77.0823 29.6341 77.0254 30.5738 76.8119 31.4838C76.6646 32.1154 75.5703 33.5891 75.5913 34.0943C75.5913 35.989 77.1066 33.5259 77.6959 33.0417C78.6858 32.3065 79.7596 31.6917 80.8948 31.2102C83.7447 29.691 86.906 28.8481 90.1338 28.7471C92.4488 28.8734 95.4161 30.2418 95.5635 32.9575C95.7739 36.9995 102.088 37.0206 101.877 32.9575C101.351 23.6103 91.207 21.1683 83.6517 23.5051C79.4897 24.485 75.6445 26.506 72.4766 29.3786C70.0774 31.9891 68.9199 36.4311 71.6558 39.2521C74.3917 42.0731 78.9586 40.41 81.0421 37.4206C82.8694 34.6149 83.6172 31.2413 83.1466 27.926C82.847 24.5061 81.3731 21.2956 78.9754 18.8395C76.5776 16.3834 73.4039 14.8333 69.9932 14.4526C65.9124 14.3086 61.938 15.7716 58.9237 18.527C55.9094 21.2825 54.0957 25.1106 53.8723 29.1891C53.898 29.9391 54.188 30.6558 54.6912 31.2124C55.1943 31.7691 55.878 32.1297 56.6214 32.2306C57.3648 32.3314 58.1198 32.1659 58.7529 31.7634C59.386 31.3608 59.8564 30.7473 60.0808 30.0312C62.7746 19.7577 48.4216 18.0736 41.4976 18.0104C37.3572 17.8228 33.2782 19.064 29.9436 21.5262C26.8212 24.3353 24.5836 27.9927 23.5037 32.0523C22.1568 36.2627 21.0835 41.0837 23.5037 45.0836C24.4127 46.8109 25.91 48.1554 27.7245 48.8737C29.539 49.592 31.5507 49.6366 33.3951 48.9993C41.6029 45.7994 40.2559 34.6838 35.7732 29.105C33.1882 25.9853 29.653 23.7983 25.7081 22.8783C21.7632 21.9583 17.6257 22.3559 13.928 24.0103C9.96498 25.8118 6.51029 28.5682 3.87324 32.0327C1.2362 35.4973 -0.500952 39.5618 -1.18267 43.8625C-2.50854 50.9782 -2.84522 65.0411 7.67752 64.9148C9.46397 64.8271 11.1614 64.1084 12.4678 62.8864C13.7742 61.6644 14.6048 60.0184 14.8119 58.2413C15.0338 56.3254 14.7252 54.3854 13.9198 52.6331C13.1144 50.8807 11.8433 49.3834 10.2451 48.3046C6.39375 45.3573 0.858765 43.0837 -3.91856 44.8941C-6.14732 45.9073 -8.14718 47.3627 -9.79682 49.1721C-11.4465 50.9814 -12.7115 53.1072 -13.5153 55.4203C-15.2316 59.9218 -15.3689 64.8728 -13.9044 69.4625C-12.44 74.0522 -9.46085 78.0084 -5.45491 80.683L-3.01362 74.9146C-12.5051 72.9988 -24.0591 78.2198 -25.0272 88.767C-25.6375 94.9564 -22.186 100.535 -18.4399 105.146C-14.6938 109.756 -10.0218 113.945 -4.0659 113.272C-0.0672531 112.809 -0.0251617 106.493 -4.0659 106.956L-4.1501 106.914Z" fill="#2D2FEE"/>
<path d="M0.543564 121.966C4.41593 128.577 8.43562 135.103 12.1186 141.798C15.6374 148.42 17.9936 155.598 19.0846 163.018C21.1892 175.65 23.1675 189.986 15.4017 201.06C13.0656 204.407 18.5374 207.565 20.8524 204.26C29.2706 192.281 27.6712 176.892 25.4825 163.208C24.4397 155.399 22.1518 147.808 18.7058 140.724C14.8335 133.229 10.2876 125.987 6.07854 118.787C5.64152 118.096 4.95354 117.602 4.15941 117.408C3.36528 117.214 2.52695 117.336 1.82076 117.748C1.11456 118.16 0.595614 118.829 0.373109 119.616C0.150604 120.403 0.241885 121.246 0.627764 121.966H0.543564Z" fill="#2D2FEE"/>
<path d="M-25.8467 75.6513C-27.846 69.6514 -30.2662 62.8094 -27.7618 56.599C-25.2574 50.3886 -18.8385 49.9465 -12.9037 50.2834C-12.4197 50.2774 -11.9435 50.1608 -11.5114 49.9427C-11.0793 49.7246 -10.7028 49.4106 -10.4105 49.0248C-10.1181 48.6389 -9.91773 48.1914 -9.82461 47.7163C-9.73149 47.2412 -9.74806 46.7511 -9.8731 46.2834C-11.7462 38.7046 -11.6831 31.5468 -7.03201 24.8312C-4.95933 21.9601 -2.23267 19.6243 0.922085 18.0171C4.07684 16.41 7.56889 15.5777 11.1092 15.5893C14.5396 15.5893 18.1594 17.4419 21.5267 16.7893C24.894 16.1367 27.693 12.5788 30.5763 10.4736C35.6061 6.99998 44.4242 4.43157 47.8125 11.4841C48.0948 11.955 48.4942 12.3447 48.9719 12.6153C49.4495 12.8859 49.989 13.0281 50.5379 13.0281C51.0868 13.0281 51.6264 12.8859 52.104 12.6153C52.5816 12.3447 52.9811 11.955 53.2634 11.4841C54.1649 9.82108 55.5204 8.44871 57.1719 7.52695C58.8234 6.60518 60.7028 6.17202 62.591 6.27793C64.4792 6.38385 66.2984 7.02453 67.8365 8.12521C69.3746 9.22588 70.5683 10.7412 71.2783 12.4946C72.9619 16.1787 78.4127 12.9788 76.7291 9.31569C75.4499 6.6159 73.4533 4.31988 70.9575 2.67866C68.4618 1.03745 65.563 0.114245 62.5781 0.00993593C59.5932 -0.0943735 56.6371 0.624279 54.033 2.08728C51.4288 3.55027 49.2769 5.70131 47.8125 8.30523H53.2634C49.5804 0.60011 39.8363 -0.810397 32.6177 2.17902C30.5102 3.04831 28.5172 4.17244 26.6829 5.52632C24.8519 6.85261 23.2524 8.64204 21.3794 9.86307C19.5063 11.0841 17.2755 9.86304 15.2131 9.50515C13.0399 9.17843 10.8353 9.11482 8.6469 9.31569C4.30824 9.68913 0.111401 11.0451 -3.62593 13.2809C-7.36326 15.5167 -10.5431 18.5738 -12.9247 22.2207C-18.0598 30.1785 -18.144 39.0625 -15.9553 47.8834L-12.9037 43.8835C-20.7957 43.5045 -29.0666 44.9571 -32.9179 52.7044C-36.7693 60.4516 -34.5805 69.3146 -31.9499 77.2934C-30.6661 81.1459 -24.5629 79.5038 -25.8467 75.6302V75.6513Z" fill="#2D2FEE"/>
<path d="M15.0842 203.481C15.0503 205.362 15.4962 207.221 16.38 208.883C17.2637 210.544 18.5561 211.952 20.1351 212.975C23.1276 215.124 26.312 216.991 29.6477 218.554C36.5717 221.986 44.5479 224.07 52.1243 221.48C55.9335 220.175 54.2288 214.07 50.4406 215.396C44.6952 217.354 38.6973 215.923 33.3727 213.291C30.6789 211.986 28.0693 210.491 25.5228 208.933C23.4182 207.649 21.1663 206.091 21.3137 203.397C21.3081 202.561 20.9738 201.761 20.383 201.17C19.7921 200.579 18.9924 200.244 18.1568 200.239C17.3246 200.255 16.5311 200.593 15.9425 201.182C15.354 201.77 15.0162 202.564 15 203.397L15.0842 203.481Z" fill="#2D2FEE"/>
<path d="M13.5918 203.249C2.90073 243.711 -4.80191 287.984 13.5918 327.457C18.0537 337.123 24.1479 345.947 31.6068 353.541C32.1984 354.136 33.002 354.471 33.8407 354.473C34.6793 354.475 35.4845 354.143 36.0789 353.551C36.6734 352.96 37.0084 352.156 37.0104 351.317C37.0124 350.478 36.6811 349.672 36.0895 349.078C8.07792 320.805 5.29989 278.132 11.5925 240.932C13.697 228.806 16.5382 216.828 19.6739 204.912C19.8694 204.114 19.7466 203.272 19.3314 202.563C18.9162 201.855 18.2414 201.336 17.4501 201.117C16.6588 200.898 15.8133 200.995 15.093 201.39C14.3727 201.784 13.8342 202.443 13.5918 203.228V203.249Z" fill="#2D2FEE"/>
</svg>
