<svg width="264" height="490" viewBox="0 0 264 490" fill="none" xmlns="http://www.w3.org/2000/svg">
<path d="M217.181 274.995C218.296 279.816 222.905 282.406 227.367 283.416C231.071 284.279 235.785 285.269 239.194 282.974C243.635 279.943 242.919 273.732 239.005 270.595C236.943 269.114 234.613 268.049 232.144 267.459C229.784 266.684 227.324 266.258 224.841 266.195C223.481 266.174 222.143 266.547 220.99 267.269C219.977 268.014 219.137 268.969 218.528 270.069C217.984 271.093 217.533 272.164 217.181 273.269C216.967 274.078 217.078 274.939 217.491 275.667C217.904 276.396 218.586 276.933 219.391 277.164C220.185 277.372 221.03 277.27 221.752 276.879C222.475 276.489 223.023 275.838 223.284 275.058L223.642 274.048L223.768 273.69C223.768 273.69 223.305 274.616 223.579 274.111C223.852 273.606 224.063 273.248 224.315 272.827C224.568 272.406 224.673 272.469 224.315 272.953L224.61 272.616C224.841 272.322 224.61 272.616 224.61 272.616C224.61 272.616 224.399 272.764 224.61 272.616L224.189 272.764C224.399 272.686 224.618 272.636 224.841 272.616C224.357 272.616 224.841 272.616 224.968 272.616H226.293C225.788 272.616 227.03 272.764 227.114 272.785L228.524 273.08C229.45 273.29 230.355 273.522 231.26 273.795L232.523 274.195L233.112 274.406C233.112 274.406 233.891 274.722 233.575 274.574C233.26 274.427 233.744 274.574 233.744 274.574L234.291 274.848C234.291 274.848 235.343 275.522 234.901 275.185C235.207 275.432 235.488 275.706 235.743 276.006C235.259 275.458 236.122 276.722 235.974 276.406C235.827 276.09 235.974 276.574 235.974 276.658C235.974 276.743 235.974 276.932 235.974 277.058C235.827 276.532 235.974 276.827 235.974 277.058C235.974 277.29 235.974 277.227 235.974 277.058L235.848 277.585C235.848 277.437 236.101 277.1 235.848 277.585C235.596 278.069 235.553 277.816 235.848 277.585C235.848 277.585 235.406 278.132 235.701 277.774C235.995 277.416 235.427 278.09 235.28 277.985C235.133 277.879 235.911 277.795 235.427 277.985L234.985 278.132H234.543C233.933 278.279 234.543 278.132 234.67 278.132C234.308 278.195 233.937 278.195 233.575 278.132H232.586C232.313 278.132 231.66 278.132 232.312 278.132C231.534 278.006 230.776 277.858 229.997 277.69C229.038 277.504 228.09 277.265 227.156 276.974L226.546 276.764C226.399 276.764 225.873 276.469 226.251 276.764C225.848 276.574 225.454 276.363 225.073 276.132L224.631 275.837C224.336 275.648 224.925 276.132 224.526 275.837C224.126 275.543 223.936 275.269 223.663 274.953C223.389 274.637 223.852 275.353 223.663 274.953C223.567 274.748 223.454 274.551 223.326 274.364C223.326 274.216 223.179 273.858 223.326 274.364C223.326 274.111 223.179 273.859 223.116 273.585C222.868 272.796 222.322 272.136 221.595 271.743C220.869 271.35 220.017 271.255 219.222 271.48C218.532 271.745 217.953 272.238 217.582 272.878C217.211 273.517 217.069 274.264 217.181 274.995Z" fill="#2D2FEE"/>
<path d="M231.913 359.857C216.092 366.637 203.48 379.238 196.683 395.056C194.77 398.902 193.559 403.058 193.105 407.329C193.105 411.54 196.704 415.161 198.914 418.361C205.122 427.287 212.046 436.024 217.413 445.476C223.201 455.623 224.8 467.455 226.252 478.865C226.778 482.844 233.092 482.907 232.566 478.865C231.324 469.202 230.125 459.349 226.568 450.192C223.011 441.034 216.571 432.697 210.805 424.424L201.734 411.392C201.019 410.382 199.63 409.056 199.461 407.729C199.566 405.672 200.051 403.652 200.892 401.772C203.41 394.105 207.511 387.055 212.93 381.077C219.088 374.277 226.649 368.897 235.091 365.309C238.816 363.709 235.596 358.257 231.913 359.857Z" fill="#2D2FEE"/>
<path d="M171.01 226.701C158.382 239.522 159.035 259.711 161.329 276.258C162.594 285.486 165.374 294.441 169.557 302.763C173.005 309.992 177.061 316.915 181.68 323.457C186.56 330.629 193.256 336.375 201.084 340.109C204.767 341.73 207.987 336.278 204.283 334.657C191.087 328.91 183.595 315.962 177.176 303.773C173.173 296.611 170.237 288.901 168.463 280.889C166.681 272.465 165.974 263.85 166.359 255.248C166.843 246.574 169.116 237.501 175.366 231.164C178.228 228.259 173.767 223.796 170.904 226.701H171.01Z" fill="#2D2FEE"/>
<path d="M188.182 325.878C199.525 322.742 211.206 320.089 222.339 316.194C232.862 312.51 243.721 303.816 241.027 291.269C240.185 287.29 234.103 288.974 234.945 292.953C237.302 303.963 224.022 309.268 215.815 311.626C206.071 314.405 196.263 317.079 186.498 319.794C185.714 320.037 185.055 320.575 184.661 321.296C184.267 322.017 184.169 322.862 184.388 323.654C184.607 324.445 185.126 325.12 185.834 325.536C186.542 325.951 187.385 326.074 188.182 325.878Z" fill="#2D2FEE"/>
<path d="M198.475 212.933C196.96 226.112 198.37 239.796 193.445 252.385C193.233 253.178 193.333 254.022 193.724 254.742C194.116 255.463 194.769 256.006 195.55 256.259C196.345 256.467 197.189 256.365 197.912 255.975C198.634 255.584 199.182 254.933 199.443 254.154C204.557 241.059 203.105 226.786 204.684 213.038C204.684 212.201 204.351 211.398 203.759 210.806C203.167 210.213 202.364 209.881 201.527 209.881C200.689 209.881 199.887 210.213 199.294 210.806C198.702 211.398 198.37 212.201 198.37 213.038L198.475 212.933Z" fill="#2D2FEE"/>
<path d="M131.653 253.185C129.969 261.374 128.412 269.816 129.548 278.195C130.713 286.066 134.681 293.251 140.724 298.426C147.065 303.847 152.975 309.752 158.402 316.089C161.083 319.429 163.537 322.946 165.747 326.615C168.378 330.423 169.98 334.847 170.398 339.457C170.524 343.52 176.838 343.52 176.711 339.457C176.459 330.91 171.513 323.331 166.673 316.594C161.753 309.721 156.054 303.44 149.689 297.879C143.523 292.468 137.714 287.353 136.03 278.932C134.452 270.974 136.157 262.595 137.756 254.785C138.556 250.827 132.474 249.122 131.674 253.101L131.653 253.185Z" fill="#2D2FEE"/>
<path d="M139.313 369.899C145.816 373.014 153.098 372.341 160.022 371.393C167.474 370.369 174.756 368.359 181.678 365.415C187.895 363.149 193.49 359.449 198.009 354.615C202.032 349.83 204.576 343.979 205.333 337.773C205.775 333.731 199.461 333.773 199.019 337.773C197.799 349.225 188.076 356.194 178.226 360.151C172.575 362.426 166.688 364.064 160.674 365.036C155.013 365.962 147.879 367.141 142.512 364.53C138.871 362.783 135.651 368.235 139.313 369.983V369.899Z" fill="#2D2FEE"/>
<path d="M111.369 259.648C106.424 280.406 122.544 296.342 127.869 314.994C129.186 320.017 130.004 325.158 130.31 330.341C131.02 335.53 130.949 340.795 130.1 345.962C129.132 350.173 125.301 354.383 121.997 357.73L124.228 356.804C117.009 356.362 109.77 356.173 102.53 355.836C96.0067 355.739 89.4996 355.155 83.0631 354.088C77.3387 352.952 71.5302 350.888 67.5526 346.404C66.4482 345.259 65.6025 343.891 65.0724 342.391C64.5423 340.891 64.3403 339.294 64.48 337.71C65.2522 334.205 66.7192 330.89 68.7943 327.962C72.4176 322.3 75.4099 316.257 77.7176 309.942C79.7606 303.355 80.4128 296.415 79.6327 289.563C78.2437 275.542 72.7929 262.195 71.8669 248.153C71.5403 240.565 72.3633 232.97 74.3082 225.627C75.9497 218.912 77.5492 211.438 81.0007 205.375C87.146 194.617 100.531 187.797 112.169 184.955C118.219 183.488 124.459 182.969 130.668 183.418C135.055 183.91 139.401 184.712 143.674 185.818C152.067 187.247 160.233 189.781 167.961 193.354C174.595 196.713 180.683 201.057 186.018 206.238C191.279 211.375 195.488 217.417 200.434 222.827C205.047 228.325 211.127 232.399 217.965 234.575C221.104 235.585 224.433 235.86 227.696 235.378C230.958 234.897 234.066 233.671 236.779 231.796L232.149 228.217C229.694 238.785 227.674 249.438 226.088 260.174C225.499 264.153 231.581 265.858 232.17 261.837C233.756 251.129 235.776 240.483 238.232 229.901C238.8 227.501 235.938 224.554 233.602 226.343C227.162 231.206 218.596 229.291 212.325 225.08C204.874 220.091 199.929 212.07 194.036 205.501C183.678 193.734 169.954 185.437 154.723 181.734C142.538 179.123 130.71 175.86 118.125 177.523C109.889 178.56 101.921 181.138 94.6381 185.123C87.3774 189.081 80.0326 194.681 75.6972 201.965C73.4791 206.074 71.7824 210.445 70.6463 214.975C69.2573 219.754 67.9314 224.575 66.9844 229.459C65.0944 238.952 65.0229 248.718 66.7739 258.237C70.0149 276.384 77.928 294.742 69.8887 312.805C67.9276 316.981 65.7209 321.037 63.2803 324.952C60.7839 328.6 59.058 332.719 58.2084 337.057C57.0509 345.688 63.3435 353.057 70.6463 356.762C77.9491 360.467 86.0516 361.33 94.0279 361.857C103.54 362.509 113.116 362.657 122.65 363.204C126.143 363.394 127.659 361.288 129.637 358.699C131.512 356.554 133.209 354.259 134.709 351.836C138.329 345.015 137.045 335.92 136.392 328.573C135.647 319.069 133.135 309.787 128.984 301.205C124.775 292.784 119.745 284.574 117.578 275.248C116.449 270.741 116.392 266.033 117.409 261.501C118.356 257.564 112.253 255.88 111.306 259.837L111.369 259.648Z" fill="#2D2FEE"/>
<path d="M109.302 364.53C109.105 373.884 112.294 382.993 118.28 390.181C124.267 397.368 132.648 402.15 141.88 403.645C161.873 406.677 180.562 393.119 194.873 380.804C203.733 373.141 211.814 364.657 219.854 356.173C222.653 353.225 218.212 348.741 215.392 351.709C202.765 364.951 190.137 378.446 174.522 388.256C166.819 393.098 158.211 397.456 148.951 397.793C144.533 397.97 140.126 397.232 136.007 395.624C131.888 394.016 128.146 391.574 125.015 388.45C121.885 385.327 119.434 381.589 117.816 377.473C116.199 373.357 115.449 368.95 115.615 364.53C115.615 360.467 109.302 360.467 109.302 364.53Z" fill="#2D2FEE"/>
<path d="M199.207 346.173C201.67 351.057 207.626 353.015 212.424 354.741C215.686 355.899 219.074 356.573 222.357 357.688C225.735 358.915 228.918 360.624 231.807 362.762C242.796 370.087 251.729 380.103 257.756 391.856C259.545 395.498 264.996 392.298 263.207 388.656C257.237 377.03 248.579 366.998 237.952 359.394C232.493 355.179 226.257 352.081 219.6 350.278C216.689 349.519 213.828 348.576 211.035 347.457C208.465 346.771 206.225 345.188 204.721 342.994C202.89 339.352 197.461 342.552 199.27 346.173H199.207Z" fill="#2D2FEE"/>
<path d="M85.7308 363.036C98.0214 402.32 106.355 444.887 95.2854 485.455C95.0899 486.253 95.2128 487.095 95.628 487.804C96.0432 488.512 96.718 489.031 97.5093 489.25C98.3006 489.469 99.1461 489.372 99.8664 488.977C100.587 488.583 101.125 487.924 101.368 487.139C110.165 454.908 107.134 420.993 99.4735 388.867C97.2638 379.604 94.6751 370.447 91.834 361.352C90.6134 357.499 84.5102 359.141 85.7308 363.036Z" fill="#2D2FEE"/>
<path d="M119.256 53.4202C133.777 55.7148 132.262 74.4724 132.283 85.3354C131.992 91.9508 133.284 98.5402 136.05 104.556C138.855 109.834 143.282 114.071 148.677 116.64V111.188C139.994 117.392 134.091 126.758 132.241 137.271L135.271 134.956C126.91 134.06 118.885 131.172 111.869 126.535C111.144 126.119 110.286 126.006 109.479 126.218C108.671 126.431 107.98 126.953 107.554 127.671C104.334 132.703 109.217 140.303 111.995 144.513C115.502 149.831 120.004 154.421 125.254 158.029C126.706 159.018 127.358 158.976 127.358 160.787C127.358 162.597 127.042 164.429 126.895 166.239L126.411 172.197C126.241 173.184 126.163 174.185 126.18 175.186V176.176C127.421 175.755 127.526 175.46 126.432 175.292C124.823 174.332 123.077 173.622 121.255 173.186L116.078 171.081C112.261 169.537 108.459 167.972 104.671 166.387C104.189 166.124 103.648 165.99 103.1 165.995C102.551 166.001 102.013 166.147 101.537 166.419C101.06 166.691 100.661 167.08 100.377 167.55C100.093 168.019 99.9342 168.554 99.9148 169.102C99.5782 173.958 99.4939 178.827 99.6623 183.691C99.8096 187.755 106.123 187.776 105.976 183.691C105.808 178.827 105.892 173.958 106.228 169.102L101.493 171.839C105.471 173.502 109.448 175.165 113.468 176.786C117.369 178.613 121.383 180.188 125.485 181.502C126.262 181.761 127.089 181.836 127.9 181.719C128.711 181.602 129.484 181.297 130.156 180.829C130.829 180.361 131.383 179.742 131.774 179.022C132.165 178.302 132.382 177.5 132.409 176.681C132.935 172.702 133.104 168.639 133.419 164.618C133.714 161.187 134.661 157.355 131.82 154.681C128.979 152.008 126.011 150.703 123.402 148.218C120.809 145.708 118.546 142.879 116.667 139.798C115.81 138.374 115.03 136.905 114.331 135.398C113.847 134.324 112.416 131.84 113.11 130.745L108.901 131.882C116.765 137.05 125.747 140.269 135.103 141.271C135.797 141.268 136.471 141.038 137.022 140.616C137.573 140.195 137.971 139.604 138.154 138.934C139.593 130.024 144.447 122.026 151.687 116.64C152.152 116.354 152.537 115.953 152.804 115.476C153.071 114.998 153.211 114.461 153.211 113.914C153.211 113.367 153.071 112.829 152.804 112.352C152.537 111.875 152.152 111.474 151.687 111.188C148.904 109.886 146.424 108.016 144.405 105.7C142.387 103.383 140.874 100.67 139.964 97.7351C137.86 90.9563 138.638 83.7143 138.575 76.6829C138.575 64.8936 134.661 49.4623 120.855 47.2097C116.877 46.5781 115.173 52.6623 119.171 53.3149L119.256 53.4202Z" fill="#2D2FEE"/>
<path d="M55.8673 132.493C55.4041 132.298 54.9541 132.073 54.5203 131.819L53.8469 131.356C53.5523 131.166 54.1626 131.651 53.7417 131.356C53.3208 131.061 53.0051 130.661 52.6683 130.303L52.2264 129.777C52.6684 130.282 52.1002 129.608 52.0581 129.524C51.4747 128.684 50.9742 127.788 50.5638 126.851C50.7532 127.272 50.5638 126.851 50.5638 126.703C50.5638 126.556 50.3744 126.177 50.2903 125.924C50.1069 125.393 49.9523 124.852 49.8273 124.303C49.5887 123.39 49.5315 122.439 49.6589 121.503C49.6589 121.293 49.8062 121.082 49.8483 120.872C49.8903 120.661 49.5957 121.272 49.8483 120.872C49.969 120.64 50.1025 120.415 50.2481 120.198C49.9535 120.64 50.2481 120.198 50.4375 120.051C50.6269 119.903 50.2271 120.051 50.4375 120.051C50.648 120.051 50.9005 119.84 50.4375 120.051C50.7322 120.051 51.1952 120.051 50.4375 120.051H50.7322C50.3113 120.051 50.8584 120.051 51.0268 120.051H51.2373C51.4688 120.219 51.4898 120.219 51.2373 120.051C50.9847 119.882 51.0479 119.903 51.2373 120.051L51.0268 119.777C51.1162 119.903 51.1938 120.037 51.2583 120.177C51.6801 120.9 52.3714 121.425 53.1803 121.638C53.9893 121.852 54.8497 121.735 55.5726 121.314C56.2785 120.877 56.7899 120.186 57.0014 119.383C57.2128 118.58 57.1082 117.726 56.7091 116.998C55.8512 115.473 54.4383 114.337 52.7645 113.827C51.0907 113.318 49.2848 113.473 47.7227 114.261C46.2144 115.106 44.9766 116.362 44.1533 117.882C43.33 119.403 42.9549 121.126 43.0716 122.851C43.2821 128.851 46.8388 135.693 52.5211 138.156C52.8795 138.383 53.28 138.535 53.6986 138.603C54.1172 138.672 54.5454 138.655 54.9575 138.555C55.3695 138.454 55.7571 138.271 56.097 138.018C56.4369 137.764 56.7222 137.444 56.9359 137.078C57.1495 136.711 57.2871 136.305 57.3405 135.884C57.3938 135.463 57.3618 135.036 57.2463 134.627C57.1309 134.219 56.9344 133.838 56.6685 133.508C56.4026 133.177 56.0728 132.903 55.6989 132.703L55.8673 132.493Z" fill="#2D2FEE"/>
<path d="M31.771 101.019C31.3501 106.977 35.0121 113.082 41.3468 113.651C47.1763 114.135 50.9224 108.935 53.3216 104.367L47.5341 103.63C48.1159 105.392 49.245 106.923 50.7569 107.999C52.2688 109.075 54.0846 109.64 55.9398 109.611C57.795 109.583 59.5928 108.963 61.0714 107.842C62.5499 106.721 63.632 105.156 64.16 103.377L59.5089 105.272C64.0548 107.988 71.1682 112.324 68.5796 118.661C68.3597 119.471 68.4686 120.334 68.8825 121.064C69.2964 121.793 69.9818 122.33 70.7893 122.556C71.595 122.753 72.4455 122.634 73.1659 122.222C73.8862 121.811 74.4216 121.139 74.6617 120.345C75.3735 118.31 75.5769 116.131 75.2541 114C74.9313 111.868 74.0921 109.847 72.8097 108.114C70.0577 104.674 66.6167 101.849 62.7079 99.8194C62.2905 99.5805 61.8243 99.4396 61.3446 99.4071C60.8648 99.3746 60.3839 99.4514 59.9382 99.6318C59.4924 99.8122 59.0933 100.091 58.7711 100.448C58.4489 100.806 58.2118 101.231 58.0779 101.693C57.9161 102.138 57.6274 102.526 57.2476 102.808C56.8677 103.091 56.4134 103.256 55.9408 103.283C55.4681 103.31 54.998 103.197 54.5886 102.96C54.1792 102.722 53.8485 102.369 53.6373 101.946C52.6903 99.6299 49.2598 98.5352 47.8708 101.188C46.7554 103.293 45.0928 106.956 42.399 107.356C38.9476 107.882 37.9163 103.63 38.0847 101.04C38.3793 96.9773 32.0657 96.9984 31.771 101.04V101.019Z" fill="#2D2FEE"/>
<path d="M59.5508 86.7458C59.3145 84.9997 59.5976 83.2226 60.3647 81.6365C61.1319 80.0504 62.3492 78.7255 63.8645 77.8272C65.3799 76.929 67.1262 76.4971 68.8855 76.5856C70.6447 76.6741 72.3389 77.279 73.7565 78.3249C74.236 78.5947 74.7773 78.7353 75.3274 78.733C75.8776 78.7308 76.4177 78.5857 76.895 78.312C77.3723 78.0383 77.7703 77.6453 78.0502 77.1715C78.3301 76.6978 78.4823 76.1594 78.4918 75.6092C78.5261 72.3709 79.6702 69.2423 81.7328 66.7462C82.6093 65.7553 83.8148 65.1156 85.1264 64.9453C86.438 64.775 87.7669 65.0857 88.8672 65.8199C89.286 66.0585 89.7536 66.1987 90.2345 66.2299C90.7154 66.2611 91.1972 66.1824 91.6432 65.9998C92.0893 65.8173 92.488 65.5357 92.8092 65.1763C93.1304 64.8168 93.3657 64.389 93.4972 63.9252C94.4289 61.2014 96.3433 58.9234 98.8657 57.5373C101.388 56.1511 104.337 55.7564 107.135 56.4306C107.925 56.6036 108.752 56.4664 109.444 56.0473C110.136 55.6281 110.641 54.9591 110.855 54.1784C111.068 53.3976 110.973 52.5648 110.591 51.8517C110.208 51.1386 109.566 50.5999 108.797 50.3466C104.388 49.2687 99.7342 49.8977 95.7689 52.1074C91.8036 54.3172 88.8196 57.9444 87.4151 62.2621L92.0451 60.3674C89.9572 59.0445 87.5009 58.4249 85.0357 58.5992C82.5704 58.7734 80.2256 59.7324 78.3444 61.3358C74.1353 64.7884 72.6411 70.3461 72.1781 75.6092L76.9344 72.8724C74.5473 71.2726 71.7573 70.3795 68.8852 70.2959C66.0131 70.2123 63.1758 70.9417 60.6999 72.4C58.2239 73.8584 56.2099 75.9864 54.8897 78.5392C53.5694 81.092 52.9966 83.9659 53.2372 86.83C53.616 90.851 59.9507 90.8931 59.5508 86.83V86.7458Z" fill="#2D2FEE"/>
<path d="M14.8499 106.914C10.6408 107.377 7.65237 103.925 5.2111 100.977C2.76982 98.03 -0.134487 93.8406 0.118059 89.588C0.517923 82.9355 8.53628 79.7987 14.2186 80.9566C14.9454 81.1177 15.7058 81.0183 16.3669 80.6759C17.0281 80.3336 17.548 79.7699 17.8361 79.0832C18.1243 78.3965 18.1622 77.6304 17.9434 76.9186C17.7246 76.2067 17.2628 75.5944 16.6388 75.1883C14.5908 73.7475 12.9388 71.8138 11.8353 69.5656C10.7318 67.3175 10.2124 64.8274 10.3251 62.3254C10.5356 58.115 13.4609 50.915 18.4697 50.5571C21.142 50.7027 23.6864 51.749 25.6884 53.5255C26.7617 54.4097 28.8031 57.1254 27.0353 58.4517C25.2674 59.778 23.8153 55.7781 23.6259 54.7255C23.226 51.9645 23.2686 49.1574 23.7522 46.4098C25.1622 37.0205 33.5594 25.5681 44.4609 29.2523C48.5227 30.6207 52.3109 34.6628 52.1215 39.1679C52.1215 40.5363 51.3007 43.3783 49.4066 43.1889C46.7759 42.831 47.3021 38.3679 47.7651 36.7469C49.0489 31.147 51.4691 25.2945 57.7828 24.3892C60.1399 24.0524 74.072 24.3892 73.0407 28.2628L79.2281 29.105C79.4178 26.8151 80.459 24.6797 82.1462 23.1206C83.8334 21.5614 86.0439 20.692 88.3408 20.6841C90.3605 20.8917 92.2398 21.8137 93.6403 23.2842C95.0408 24.7546 95.8706 26.6769 95.9803 28.705C96.0823 29.6341 96.0254 30.5738 95.8119 31.4838C95.6646 32.1154 94.5703 33.5891 94.5913 34.0943C94.5913 35.989 96.1066 33.5259 96.6959 33.0417C97.6858 32.3065 98.7596 31.6917 99.8948 31.2102C102.745 29.691 105.906 28.8481 109.134 28.7471C111.449 28.8734 114.416 30.2418 114.563 32.9575C114.774 36.9995 121.088 37.0206 120.877 32.9575C120.351 23.6103 110.207 21.1683 102.652 23.5051C98.4897 24.485 94.6445 26.506 91.4766 29.3786C89.0774 31.9891 87.9199 36.4311 90.6558 39.2521C93.3917 42.0731 97.9586 40.41 100.042 37.4206C101.869 34.6149 102.617 31.2413 102.147 27.926C101.847 24.5061 100.373 21.2956 97.9754 18.8395C95.5776 16.3834 92.4039 14.8333 88.9932 14.4526C84.9124 14.3086 80.938 15.7716 77.9237 18.527C74.9094 21.2825 73.0957 25.1106 72.8723 29.1891C72.898 29.9391 73.188 30.6558 73.6912 31.2124C74.1943 31.7691 74.878 32.1297 75.6214 32.2306C76.3648 32.3314 77.1198 32.1659 77.7529 31.7634C78.386 31.3608 78.8564 30.7473 79.0808 30.0312C81.7746 19.7577 67.4216 18.0736 60.4976 18.0104C56.3572 17.8228 52.2782 19.064 48.9436 21.5262C45.8212 24.3353 43.5836 27.9927 42.5037 32.0523C41.1568 36.2627 40.0835 41.0837 42.5037 45.0836C43.4127 46.8109 44.91 48.1554 46.7245 48.8737C48.539 49.592 50.5507 49.6366 52.3951 48.9993C60.6029 45.7994 59.2559 34.6838 54.7732 29.105C52.1882 25.9853 48.653 23.7983 44.7081 22.8783C40.7632 21.9583 36.6257 22.3559 32.928 24.0103C28.965 25.8118 25.5103 28.5682 22.8732 32.0327C20.2362 35.4973 18.499 39.5618 17.8173 43.8625C16.4915 50.9782 16.1548 65.0411 26.6775 64.9148C28.464 64.8271 30.1614 64.1084 31.4678 62.8864C32.7742 61.6644 33.6048 60.0184 33.8119 58.2413C34.0338 56.3254 33.7252 54.3854 32.9198 52.6331C32.1144 50.8807 30.8433 49.3834 29.2451 48.3046C25.3938 45.3573 19.8588 43.0837 15.0814 44.8941C12.8527 45.9073 10.8528 47.3627 9.20318 49.1721C7.55354 50.9814 6.28849 53.1072 5.4847 55.4203C3.76837 59.9218 3.63115 64.8728 5.09555 69.4625C6.55996 74.0522 9.53915 78.0084 13.5451 80.683L15.9864 74.9146C6.49486 72.9988 -5.0591 78.2198 -6.02719 88.767C-6.63751 94.9564 -3.18604 100.535 0.560061 105.146C4.30616 109.756 8.97823 113.945 14.9341 113.272C18.9327 112.809 18.9748 106.493 14.9341 106.956L14.8499 106.914Z" fill="#2D2FEE"/>
<path d="M19.5436 121.966C23.4159 128.577 27.4356 135.103 31.1186 141.798C34.6374 148.42 36.9936 155.598 38.0846 163.018C40.1892 175.65 42.1675 189.986 34.4017 201.06C32.0656 204.407 37.5374 207.565 39.8524 204.26C48.2706 192.281 46.6712 176.892 44.4825 163.208C43.4397 155.399 41.1518 147.808 37.7058 140.724C33.8335 133.229 29.2876 125.987 25.0785 118.787C24.6415 118.096 23.9535 117.602 23.1594 117.408C22.3653 117.214 21.527 117.336 20.8208 117.748C20.1146 118.16 19.5956 118.829 19.3731 119.616C19.1506 120.403 19.2419 121.246 19.6278 121.966H19.5436Z" fill="#2D2FEE"/>
<path d="M-6.84668 75.6513C-8.846 69.6514 -11.2662 62.8094 -8.76177 56.599C-6.25735 50.3886 0.161516 49.9465 6.09634 50.2834C6.58029 50.2774 7.05647 50.1608 7.48856 49.9427C7.92065 49.7246 8.29718 49.4106 8.58952 49.0248C8.88186 48.6389 9.08227 48.1914 9.17539 47.7163C9.26851 47.2412 9.25194 46.7511 9.1269 46.2834C7.25385 38.7046 7.31693 31.5468 11.968 24.8312C14.0407 21.9601 16.7673 19.6243 19.9221 18.0171C23.0768 16.41 26.5689 15.5777 30.1092 15.5893C33.5396 15.5893 37.1594 17.4419 40.5267 16.7893C43.894 16.1367 46.693 12.5788 49.5763 10.4736C54.6061 6.99998 63.4242 4.43157 66.8125 11.4841C67.0948 11.955 67.4942 12.3447 67.9719 12.6153C68.4495 12.8859 68.989 13.0281 69.5379 13.0281C70.0868 13.0281 70.6264 12.8859 71.104 12.6153C71.5816 12.3447 71.9811 11.955 72.2634 11.4841C73.1649 9.82108 74.5204 8.44871 76.1719 7.52695C77.8234 6.60518 79.7028 6.17202 81.591 6.27793C83.4792 6.38385 85.2984 7.02453 86.8365 8.12521C88.3746 9.22588 89.5683 10.7412 90.2783 12.4946C91.9619 16.1787 97.4127 12.9788 95.7291 9.31569C94.4499 6.6159 92.4533 4.31988 89.9575 2.67866C87.4618 1.03745 84.563 0.114245 81.5781 0.00993593C78.5932 -0.0943735 75.6371 0.624279 73.033 2.08728C70.4288 3.55027 68.2769 5.70131 66.8125 8.30523H72.2634C68.5804 0.60011 58.8363 -0.810397 51.6177 2.17902C49.5102 3.04831 47.5172 4.17244 45.6829 5.52632C43.8519 6.85261 42.2524 8.64204 40.3794 9.86307C38.5063 11.0841 36.2755 9.86304 34.2131 9.50515C32.0399 9.17843 29.8353 9.11482 27.6469 9.31569C23.3082 9.68913 19.1114 11.0451 15.3741 13.2809C11.6367 15.5167 8.45688 18.5738 6.07528 22.2207C0.940178 30.1785 0.855991 39.0625 3.04472 47.8834L6.09634 43.8835C-1.79572 43.5045 -10.0666 44.9571 -13.9179 52.7044C-17.7693 60.4516 -15.5805 69.3146 -12.9499 77.2934C-11.6661 81.1459 -5.56291 79.5038 -6.84668 75.6302V75.6513Z" fill="#2D2FEE"/>
<path d="M34.0842 203.481C34.0503 205.362 34.4962 207.221 35.38 208.883C36.2637 210.544 37.5561 211.952 39.1351 212.975C42.1276 215.124 45.312 216.991 48.6477 218.554C55.5717 221.986 63.5479 224.07 71.1243 221.48C74.9335 220.175 73.2288 214.07 69.4406 215.396C63.6952 217.354 57.6973 215.923 52.3727 213.291C49.6789 211.986 47.0693 210.491 44.5228 208.933C42.4182 207.649 40.1663 206.091 40.3137 203.397C40.3081 202.561 39.9738 201.761 39.383 201.17C38.7921 200.579 37.9924 200.244 37.1568 200.239C36.3246 200.255 35.5311 200.593 34.9425 201.182C34.354 201.77 34.0162 202.564 34 203.397L34.0842 203.481Z" fill="#2D2FEE"/>
<path d="M32.5918 203.249C21.9007 243.711 14.1981 287.984 32.5918 327.457C37.0537 337.123 43.1479 345.947 50.6068 353.541C51.1984 354.136 52.002 354.471 52.8407 354.473C53.6793 354.475 54.4845 354.143 55.0789 353.551C55.6734 352.96 56.0084 352.156 56.0104 351.317C56.0124 350.478 55.6811 349.672 55.0895 349.078C27.0779 320.805 24.2999 278.132 30.5925 240.932C32.697 228.806 35.5382 216.828 38.6739 204.912C38.8694 204.114 38.7466 203.272 38.3314 202.563C37.9162 201.855 37.2414 201.336 36.4501 201.117C35.6588 200.898 34.8133 200.995 34.093 201.39C33.3727 201.784 32.8342 202.443 32.5918 203.228V203.249Z" fill="#2D2FEE"/>
</svg>
