<svg width="260" height="497" viewBox="0 0 260 497" fill="none" xmlns="http://www.w3.org/2000/svg">
<path d="M45.5438 279.119C44.4486 284.012 39.923 286.641 35.5421 287.666C31.9051 288.543 27.2763 289.547 23.9286 287.218C19.5683 284.141 20.2709 277.837 24.1146 274.653C26.139 273.15 28.4271 272.068 30.8513 271.469C33.1682 270.683 35.584 270.251 38.0219 270.187C39.3577 270.166 40.6711 270.544 41.8035 271.277C42.7979 272.034 43.6225 273.003 44.2213 274.119C44.755 275.159 45.1976 276.246 45.5438 277.367C45.7541 278.188 45.6447 279.062 45.2391 279.801C44.8335 280.54 44.1639 281.086 43.3741 281.32C42.5936 281.531 41.7646 281.428 41.0549 281.032C40.3452 280.635 39.8077 279.974 39.5511 279.183L39.1998 278.158L39.0758 277.794C39.0758 277.794 39.5304 278.735 39.2617 278.222C38.9931 277.709 38.7864 277.346 38.5385 276.918C38.2905 276.491 38.1872 276.555 38.5385 277.046L38.2492 276.705C38.0219 276.405 38.2492 276.705 38.2492 276.705C38.2492 276.705 38.4558 276.854 38.2492 276.705L38.6625 276.854C38.4564 276.775 38.2409 276.725 38.0219 276.705C38.4971 276.705 38.0219 276.705 37.8979 276.705H36.596C37.092 276.705 35.8728 276.854 35.7901 276.876L34.4055 277.175C33.4963 277.388 32.6077 277.623 31.7192 277.901L30.4793 278.307L29.9007 278.521C29.9007 278.521 29.1361 278.841 29.446 278.692C29.756 278.542 29.2807 278.692 29.2807 278.692L28.7434 278.97C28.7434 278.97 27.7102 279.653 28.1441 279.312C27.8441 279.562 27.5674 279.841 27.3176 280.145C27.7929 279.589 26.9456 280.871 27.0903 280.551C27.2349 280.23 27.0903 280.722 27.0903 280.807C27.0903 280.893 27.0903 281.085 27.0903 281.213C27.2349 280.679 27.0903 280.978 27.0903 281.213C27.0903 281.448 27.0903 281.384 27.0903 281.213L27.2143 281.747C27.2143 281.598 26.9663 281.256 27.2143 281.747C27.4622 282.239 27.5036 281.982 27.2143 281.747C27.2143 281.747 27.6482 282.303 27.3589 281.94C27.0696 281.577 27.6275 282.26 27.7722 282.153C27.9168 282.047 27.1522 281.961 27.6275 282.153L28.0615 282.303H28.4955C29.0947 282.453 28.4955 282.303 28.3715 282.303C28.727 282.367 29.0905 282.367 29.446 282.303H30.4173C30.6859 282.303 31.3265 282.303 30.6859 282.303C31.4505 282.175 32.1945 282.025 32.959 281.854C33.9011 281.665 34.8324 281.423 35.7488 281.128L36.348 280.914C36.4927 280.914 37.0093 280.615 36.6374 280.914C37.0338 280.722 37.4201 280.508 37.7946 280.273L38.2285 279.974C38.5178 279.782 37.9392 280.273 38.3319 279.974C38.7245 279.675 38.9105 279.397 39.1791 279.076C39.4478 278.756 38.9932 279.482 39.1791 279.076C39.2736 278.868 39.3841 278.668 39.5097 278.478C39.5097 278.329 39.6544 277.965 39.5097 278.478C39.5097 278.222 39.6544 277.965 39.7164 277.688C39.9599 276.887 40.4954 276.217 41.209 275.818C41.9227 275.419 42.7585 275.323 43.5394 275.551C44.217 275.82 44.7852 276.321 45.1497 276.97C45.5143 277.619 45.6534 278.377 45.5438 279.119Z" fill="#2D2FEE"/>
<path d="M31.0741 365.254C46.6088 372.136 58.9928 384.926 65.6667 400.981C67.545 404.884 68.7347 409.103 69.1797 413.439C69.1797 417.712 65.646 421.387 63.4762 424.635C57.3801 433.695 50.5815 442.563 45.312 452.157C39.6293 462.457 38.0587 474.466 36.6329 486.047C36.1162 490.086 29.9168 490.15 30.4335 486.047C31.6527 476.239 32.8306 466.239 36.3229 456.944C39.8152 447.649 46.1386 439.187 51.8007 430.789L60.7072 417.563C61.4098 416.537 62.7737 415.191 62.939 413.845C62.8359 411.756 62.3594 409.706 61.5337 407.797C59.0617 400.016 55.0345 392.86 49.7136 386.793C43.6676 379.89 36.2429 374.429 27.9537 370.788C24.296 369.164 27.4577 363.63 31.0741 365.254Z" fill="#2D2FEE"/>
<path d="M90.8769 230.101C103.276 243.114 102.635 263.606 100.383 280.401C99.1405 289.768 96.4105 298.857 92.3028 307.303C88.9173 314.641 84.9353 321.668 80.3999 328.308C75.6083 335.587 69.0333 341.42 61.3471 345.21C57.7307 346.856 54.5691 341.321 58.2061 339.676C71.1628 333.843 78.5195 320.701 84.8222 308.329C88.7531 301.059 91.6353 293.234 93.3773 285.102C95.1271 276.552 95.8214 267.807 95.4438 259.076C94.9685 250.272 92.7367 241.063 86.5993 234.631C83.7889 231.682 88.1698 227.152 90.9802 230.101H90.8769Z" fill="#2D2FEE"/>
<path d="M74.0177 330.766C62.8795 327.582 51.4105 324.89 40.4789 320.937C30.1466 317.197 19.4837 308.372 22.1288 295.637C22.9554 291.598 28.9274 293.308 28.1008 297.346C25.7864 308.522 38.8258 313.907 46.885 316.3C56.4527 319.12 66.0825 321.834 75.6709 324.59C76.4411 324.836 77.0883 325.383 77.4752 326.115C77.8621 326.846 77.9582 327.704 77.7431 328.508C77.528 329.311 77.0188 329.996 76.3232 330.418C75.6277 330.839 74.8007 330.964 74.0177 330.766Z" fill="#2D2FEE"/>
<path d="M63.9109 216.126C65.3987 229.503 64.0142 243.392 68.8497 256.17C69.0584 256.974 68.9604 257.831 68.5758 258.563C68.1912 259.294 67.5495 259.845 66.7833 260.102C66.0028 260.313 65.1739 260.21 64.4641 259.813C63.7544 259.417 63.2168 258.756 62.9602 257.965C57.9387 244.674 59.3646 230.187 57.8147 216.233C57.8147 215.383 58.1413 214.568 58.7226 213.967C59.3039 213.366 60.0923 213.028 60.9144 213.028C61.7365 213.028 62.525 213.366 63.1063 213.967C63.6876 214.568 64.0142 215.383 64.0142 216.233L63.9109 216.126Z" fill="#2D2FEE"/>
<path d="M129.521 256.982C131.174 265.294 132.703 273.863 131.587 282.367C130.444 290.356 126.547 297.649 120.615 302.902C114.388 308.404 108.584 314.398 103.256 320.829C100.624 324.22 98.2143 327.789 96.0443 331.513C93.4605 335.378 91.8873 339.869 91.4774 344.548C91.3534 348.672 85.154 348.672 85.278 344.548C85.526 335.872 90.3821 328.18 95.135 321.342C99.9658 314.366 105.562 307.991 111.811 302.346C117.866 296.855 123.57 291.662 125.223 283.115C126.773 275.038 125.099 266.533 123.528 258.606C122.743 254.589 128.715 252.858 129.5 256.896L129.521 256.982Z" fill="#2D2FEE"/>
<path d="M122.001 375.446C115.616 378.608 108.466 377.925 101.667 376.963C94.3503 375.924 87.1996 373.883 80.4031 370.895C74.299 368.595 68.8051 364.839 64.3674 359.933C60.4177 355.076 57.9192 349.137 57.1761 342.839C56.7421 338.736 62.9415 338.779 63.3755 342.839C64.574 354.463 74.1211 361.535 83.7922 365.553C89.3412 367.861 95.1216 369.524 101.026 370.51C106.585 371.45 113.591 372.647 118.86 369.997C122.435 368.223 125.597 373.758 122.001 375.531V375.446Z" fill="#2D2FEE"/>
<path d="M149.443 263.542C154.299 284.611 138.47 300.786 133.242 319.718C131.948 324.816 131.145 330.034 130.845 335.296C130.148 340.562 130.218 345.906 131.051 351.151C132.002 355.424 135.763 359.698 139.007 363.095L136.817 362.155C143.905 361.706 151.013 361.514 158.122 361.172C164.527 361.074 170.917 360.481 177.237 359.399C182.858 358.245 188.561 356.151 192.467 351.599C193.551 350.437 194.382 349.048 194.902 347.526C195.422 346.003 195.621 344.383 195.484 342.774C194.725 339.217 193.285 335.853 191.247 332.881C187.69 327.133 184.752 320.999 182.486 314.59C180.48 307.904 179.839 300.861 180.605 293.906C181.969 279.675 187.321 266.127 188.23 251.875C188.551 244.172 187.743 236.464 185.833 229.011C184.221 222.195 182.651 214.609 179.262 208.455C173.228 197.536 160.085 190.613 148.658 187.728C142.717 186.24 136.59 185.713 130.493 186.168C126.186 186.668 121.919 187.482 117.723 188.604C109.482 190.055 101.464 192.628 93.8757 196.254C87.3611 199.663 81.3832 204.072 76.1454 209.331C70.9792 214.545 66.8463 220.678 61.9901 226.169C57.4601 231.749 51.4906 235.884 44.7764 238.093C41.6941 239.118 38.4248 239.398 35.2215 238.908C32.0181 238.419 28.9664 237.175 26.3022 235.272L30.8485 231.639C33.2594 242.366 35.2431 253.178 36.7999 264.076C37.3785 268.115 31.4064 269.845 30.8278 265.764C29.2711 254.895 27.2873 244.09 24.8764 233.349C24.3184 230.913 27.1289 227.921 29.4226 229.738C35.746 234.674 44.1565 232.729 50.3146 228.456C57.6298 223.391 62.486 215.25 68.2721 208.583C78.443 196.64 91.9188 188.218 106.874 184.459C118.839 181.809 130.452 178.497 142.81 180.185C150.897 181.238 158.72 183.854 165.871 187.899C173.001 191.916 180.213 197.6 184.469 204.994C186.647 209.165 188.313 213.601 189.429 218.199C190.793 223.05 192.095 227.943 193.025 232.9C194.88 242.536 194.951 252.448 193.231 262.11C190.049 280.529 182.279 299.162 190.173 317.496C192.098 321.735 194.265 325.852 196.662 329.825C199.113 333.528 200.808 337.709 201.642 342.112C202.778 350.873 196.6 358.352 189.429 362.112C182.258 365.873 174.302 366.749 166.471 367.283C157.13 367.946 147.728 368.095 138.367 368.651C134.936 368.843 133.448 366.707 131.506 364.078C129.664 361.901 127.999 359.571 126.526 357.112C122.971 350.189 124.232 340.958 124.873 333.501C125.604 323.854 128.071 314.433 132.147 305.722C136.279 297.175 141.218 288.842 143.347 279.376C144.455 274.802 144.511 270.023 143.512 265.422C142.582 261.426 148.575 259.717 149.505 263.734L149.443 263.542Z" fill="#2D2FEE"/>
<path d="M151.468 369.997C151.661 379.491 148.53 388.737 142.652 396.032C136.774 403.328 128.544 408.181 119.479 409.699C99.8478 412.776 81.4976 399.015 67.4457 386.515C58.7459 378.737 50.8106 370.125 42.9167 361.514C40.1684 358.523 44.5286 353.971 47.2976 356.984C59.6964 370.425 72.0952 384.121 87.4284 394.079C94.9916 398.994 103.444 403.417 112.536 403.759C116.874 403.939 121.201 403.189 125.246 401.557C129.29 399.925 132.965 397.446 136.039 394.276C139.113 391.105 141.519 387.312 143.108 383.134C144.696 378.956 145.432 374.483 145.269 369.997C145.269 365.873 151.468 365.873 151.468 369.997Z" fill="#2D2FEE"/>
<path d="M63.1887 351.364C60.771 356.322 54.9229 358.309 50.2113 360.061C47.0083 361.236 43.6813 361.92 40.4576 363.053C37.1408 364.297 34.0155 366.032 31.1791 368.202C20.389 375.637 11.6177 385.803 5.69966 397.733C3.94316 401.43 -1.40897 398.182 0.347523 394.485C6.20931 382.685 14.7108 372.502 25.1451 364.784C30.5055 360.505 36.6287 357.361 43.1647 355.531C46.0236 354.761 48.8327 353.804 51.5752 352.668C54.0986 351.972 56.2978 350.365 57.7746 348.138C59.5724 344.441 64.9039 347.689 63.1268 351.364H63.1887Z" fill="#2D2FEE"/>
<path d="M174.612 368.48C162.544 408.353 154.361 451.559 165.23 492.735C165.422 493.545 165.302 494.4 164.894 495.119C164.486 495.838 163.824 496.365 163.047 496.587C162.27 496.81 161.439 496.71 160.732 496.31C160.025 495.91 159.496 495.241 159.258 494.445C150.62 461.73 153.596 427.306 161.118 394.699C163.288 385.297 165.829 376.002 168.619 366.771C169.818 362.86 175.81 364.527 174.612 368.48Z" fill="#2D2FEE"/>
<path d="M141.694 54.2213C127.436 56.5504 128.923 75.5892 128.903 86.6151C129.188 93.3298 127.92 100.018 125.204 106.124C122.45 111.481 118.103 115.781 112.805 118.389V112.855C121.332 119.153 127.127 128.659 128.944 139.33L125.968 136.979C134.179 136.07 142.058 133.139 148.948 128.432C149.659 128.011 150.502 127.895 151.294 128.111C152.087 128.327 152.766 128.857 153.184 129.586C156.345 134.693 151.551 142.407 148.824 146.68C145.38 152.078 140.959 156.737 135.805 160.399C134.379 161.403 133.738 161.36 133.738 163.198C133.738 165.036 134.048 166.895 134.193 168.732L134.668 174.779C134.835 175.781 134.912 176.797 134.896 177.814V178.818C133.676 178.391 133.573 178.091 134.648 177.92C136.228 176.947 137.942 176.226 139.731 175.784L144.815 173.647C148.562 172.08 152.295 170.492 156.015 168.882C156.488 168.616 157.019 168.479 157.558 168.485C158.097 168.49 158.625 168.638 159.093 168.915C159.56 169.191 159.952 169.586 160.231 170.062C160.51 170.539 160.666 171.082 160.685 171.638C161.016 176.567 161.098 181.509 160.933 186.446C160.788 190.57 154.589 190.592 154.734 186.446C154.899 181.509 154.816 176.567 154.486 171.638L159.135 174.416C155.23 176.104 151.324 177.792 147.377 179.438C143.547 181.292 139.606 182.891 135.578 184.224C134.814 184.487 134.002 184.563 133.206 184.444C132.41 184.326 131.651 184.016 130.991 183.541C130.331 183.066 129.787 182.438 129.403 181.707C129.019 180.976 128.805 180.162 128.779 179.331C128.262 175.292 128.097 171.168 127.787 167.087C127.498 163.604 126.568 159.715 129.357 157.001C132.147 154.287 135.061 152.963 137.623 150.441C140.169 147.893 142.391 145.021 144.236 141.894C145.078 140.449 145.843 138.958 146.53 137.428C147.005 136.338 148.41 133.817 147.728 132.706L151.861 133.86C144.14 139.105 135.32 142.372 126.134 143.39C125.452 143.387 124.791 143.154 124.25 142.725C123.708 142.297 123.318 141.697 123.137 141.018C121.725 131.974 116.959 123.856 109.85 118.389C109.393 118.099 109.015 117.692 108.753 117.207C108.491 116.723 108.354 116.177 108.354 115.622C108.354 115.067 108.491 114.521 108.753 114.037C109.015 113.552 109.393 113.146 109.85 112.855C112.582 111.533 115.018 109.636 117 107.285C118.982 104.934 120.467 102.18 121.36 99.2008C123.427 92.3203 122.662 84.9697 122.724 77.8328C122.724 65.8668 126.568 50.2041 140.124 47.9177C144.029 47.2766 145.703 53.452 141.777 54.1144L141.694 54.2213Z" fill="#2D2FEE"/>
<path d="M203.935 134.48C204.39 134.282 204.832 134.054 205.258 133.796L205.919 133.326C206.208 133.134 205.609 133.625 206.022 133.326C206.435 133.027 206.745 132.621 207.076 132.258L207.51 131.723C207.076 132.236 207.634 131.552 207.675 131.467C208.248 130.614 208.74 129.705 209.142 128.753C208.956 129.181 209.142 128.753 209.142 128.604C209.142 128.454 209.328 128.069 209.411 127.813C209.591 127.273 209.743 126.724 209.866 126.168C210.1 125.241 210.156 124.275 210.031 123.326C210.031 123.112 209.886 122.898 209.845 122.685C209.804 122.471 210.093 123.091 209.845 122.685C209.726 122.45 209.595 122.221 209.452 122.001C209.742 122.45 209.452 122.001 209.266 121.851C209.08 121.702 209.473 121.851 209.266 121.851C209.06 121.851 208.812 121.638 209.266 121.851C208.977 121.851 208.523 121.851 209.266 121.851H208.977C209.39 121.851 208.853 121.851 208.688 121.851H208.481C208.254 122.022 208.233 122.022 208.481 121.851C208.729 121.68 208.667 121.702 208.481 121.851L208.688 121.574C208.6 121.701 208.524 121.837 208.461 121.98C208.046 122.713 207.368 123.247 206.573 123.463C205.779 123.679 204.934 123.561 204.224 123.133C203.531 122.69 203.029 121.988 202.821 121.173C202.614 120.358 202.717 119.492 203.108 118.753C203.951 117.205 205.338 116.052 206.982 115.535C208.625 115.017 210.398 115.175 211.932 115.975C213.413 116.833 214.629 118.107 215.437 119.65C216.245 121.193 216.614 122.942 216.499 124.693C216.292 130.783 212.8 137.728 207.221 140.228C206.869 140.458 206.475 140.613 206.064 140.682C205.653 140.752 205.233 140.735 204.828 140.633C204.424 140.531 204.043 140.345 203.709 140.088C203.376 139.83 203.096 139.506 202.886 139.134C202.676 138.761 202.541 138.349 202.488 137.922C202.436 137.495 202.468 137.061 202.581 136.647C202.694 136.232 202.887 135.846 203.148 135.51C203.409 135.175 203.733 134.897 204.1 134.694L203.935 134.48Z" fill="#2D2FEE"/>
<path d="M227.597 102.534C228.01 108.581 224.414 114.778 218.194 115.355C212.47 115.846 208.792 110.569 206.436 105.932L212.119 105.184C211.548 106.973 210.439 108.526 208.954 109.618C207.47 110.71 205.687 111.284 203.865 111.255C202.044 111.227 200.278 110.597 198.827 109.459C197.375 108.321 196.312 106.734 195.794 104.928L200.361 106.851C195.897 109.607 188.913 114.009 191.454 120.441C191.67 121.262 191.563 122.139 191.157 122.879C190.75 123.62 190.077 124.164 189.285 124.394C188.493 124.594 187.658 124.473 186.951 124.055C186.244 123.638 185.718 122.956 185.482 122.15C184.783 120.084 184.584 117.873 184.901 115.709C185.218 113.545 186.042 111.494 187.301 109.735C190.003 106.244 193.382 103.377 197.22 101.316C197.63 101.074 198.087 100.931 198.558 100.898C199.029 100.865 199.502 100.943 199.939 101.126C200.377 101.309 200.769 101.593 201.085 101.955C201.402 102.317 201.634 102.749 201.766 103.218C201.925 103.67 202.208 104.063 202.581 104.35C202.954 104.637 203.4 104.804 203.864 104.832C204.328 104.859 204.79 104.745 205.192 104.504C205.594 104.262 205.919 103.905 206.126 103.474C207.056 101.124 210.424 100.013 211.788 102.705C212.884 104.842 214.516 108.56 217.161 108.966C220.55 109.5 221.563 105.184 221.397 102.556C221.108 98.4317 227.307 98.4531 227.597 102.556V102.534Z" fill="#2D2FEE"/>
<path d="M200.318 88.0467C200.55 86.2744 200.272 84.4707 199.519 82.8608C198.766 81.2509 197.571 79.9061 196.083 78.9944C194.595 78.0826 192.88 77.6443 191.153 77.7341C189.425 77.824 187.762 78.438 186.37 79.4995C185.899 79.7733 185.367 79.9161 184.827 79.9138C184.287 79.9115 183.757 79.7642 183.288 79.4864C182.819 79.2086 182.429 78.8097 182.154 78.3289C181.879 77.848 181.729 77.3016 181.72 76.7431C181.686 73.4562 180.563 70.2808 178.538 67.7472C177.677 66.7414 176.493 66.0921 175.206 65.9193C173.918 65.7464 172.613 66.0618 171.532 66.807C171.121 67.0491 170.662 67.1915 170.19 67.2231C169.718 67.2548 169.245 67.1749 168.807 66.9896C168.369 66.8043 167.977 66.5185 167.662 66.1537C167.346 65.7889 167.115 65.3546 166.986 64.8839C166.071 62.1192 164.192 59.8071 161.715 58.4001C159.238 56.9932 156.343 56.5926 153.596 57.2769C152.819 57.4525 152.008 57.3132 151.328 56.8878C150.648 56.4624 150.153 55.7834 149.943 54.9909C149.734 54.1984 149.826 53.3531 150.202 52.6293C150.578 51.9056 151.208 51.3587 151.963 51.1016C156.293 50.0076 160.862 50.646 164.756 52.8889C168.649 55.1317 171.579 58.8134 172.958 63.1958L168.412 61.2727C170.462 59.93 172.874 59.3011 175.295 59.478C177.715 59.6548 180.018 60.6282 181.865 62.2556C185.998 65.76 187.465 71.4011 187.92 76.7431L183.249 73.9652C185.593 72.3414 188.333 71.4349 191.153 71.3501C193.973 71.2653 196.759 72.0056 199.19 73.4858C201.621 74.966 203.599 77.1259 204.895 79.717C206.191 82.3081 206.754 85.2251 206.518 88.1322C206.146 92.2134 199.926 92.2562 200.318 88.1322V88.0467Z" fill="#2D2FEE"/>
<path d="M244.213 108.518C248.346 108.988 251.28 105.483 253.677 102.492C256.074 99.5003 258.926 95.2481 258.678 90.9318C258.285 84.1795 250.412 80.9957 244.833 82.1709C244.119 82.3344 243.372 82.2336 242.723 81.8861C242.074 81.5385 241.563 80.9664 241.281 80.2694C240.998 79.5724 240.96 78.7948 241.175 78.0723C241.39 77.3498 241.843 76.7283 242.456 76.3161C244.467 74.8537 246.089 72.891 247.173 70.6091C248.256 68.3272 248.766 65.7998 248.656 63.2603C248.449 58.9867 245.577 51.6788 240.658 51.3155C238.035 51.4633 235.536 52.5252 233.57 54.3284C232.517 55.2259 230.512 57.9824 232.248 59.3285C233.984 60.6747 235.41 56.6148 235.596 55.5464C235.988 52.744 235.946 49.8948 235.472 47.1061C234.087 37.5759 225.842 25.9518 215.138 29.6912C211.149 31.0801 207.43 35.1828 207.616 39.7555C207.616 41.1445 208.422 44.0291 210.281 43.8368C212.864 43.4735 212.348 38.9435 211.893 37.2982C210.633 31.6143 208.256 25.674 202.057 24.7552C199.742 24.4133 186.062 24.7552 187.075 28.6869L181 29.5417C180.813 27.2175 179.791 25.05 178.134 23.4675C176.478 21.885 174.307 21.0026 172.052 20.9945C170.069 21.2052 168.223 22.1411 166.848 23.6336C165.473 25.1261 164.658 27.0772 164.551 29.1357C164.45 30.0787 164.506 31.0325 164.716 31.9562C164.861 32.5972 165.935 34.093 165.914 34.6059C165.914 36.529 164.427 34.0289 163.848 33.5375C162.876 32.7912 161.822 32.1672 160.707 31.6785C157.909 30.1364 154.804 29.281 151.635 29.1784C149.362 29.3066 146.448 30.6955 146.304 33.452C146.097 37.5546 139.898 37.576 140.104 33.452C140.621 23.9646 150.581 21.4859 158 23.8578C162.087 24.8524 165.862 26.9037 168.973 29.8194C171.329 32.469 172.465 36.9777 169.779 39.841C167.092 42.7043 162.608 41.0162 160.562 37.982C158.768 35.1342 158.034 31.7101 158.496 28.345C158.79 24.8739 160.237 21.6151 162.592 19.1222C164.946 16.6293 168.062 15.056 171.411 14.6695C175.418 14.5234 179.321 16.0083 182.28 18.8051C185.24 21.6018 187.021 25.4874 187.24 29.6271C187.215 30.3883 186.93 31.1158 186.436 31.6807C185.942 32.2457 185.271 32.6118 184.541 32.7141C183.811 32.8165 183.07 32.6485 182.448 32.2399C181.826 31.8314 181.365 31.2086 181.144 30.4818C178.499 20.0542 192.592 18.3448 199.391 18.2807C203.457 18.0903 207.462 19.3501 210.736 21.8492C213.802 24.7004 215.999 28.4127 217.059 32.5332C218.382 36.8068 219.436 41.7 217.059 45.7599C216.167 47.5131 214.697 48.8778 212.915 49.6069C211.133 50.3359 209.158 50.3812 207.347 49.7343C199.288 46.4864 200.61 35.2042 205.012 29.5417C207.55 26.3752 211.021 24.1554 214.895 23.2216C218.768 22.2878 222.831 22.6913 226.462 24.3706C230.353 26.1991 233.745 28.9969 236.335 32.5133C238.924 36.0298 240.63 40.1553 241.299 44.5206C242.601 51.7429 242.932 66.0167 232.599 65.8885C230.845 65.7996 229.178 65.07 227.896 63.8297C226.613 62.5894 225.797 60.9187 225.594 59.1149C225.376 57.1703 225.679 55.2012 226.47 53.4226C227.261 51.644 228.509 50.1242 230.078 49.0292C233.86 46.0377 239.295 43.73 243.985 45.5676C246.174 46.5959 248.138 48.0732 249.757 49.9097C251.377 51.7462 252.619 53.9038 253.408 56.2516C255.094 60.8206 255.229 65.8459 253.791 70.5045C252.353 75.163 249.427 79.1785 245.494 81.8932L243.097 76.0383C252.417 74.0938 263.761 79.3931 264.712 90.0984C265.311 96.3806 261.922 102.043 258.244 106.723C254.566 111.402 249.978 115.654 244.13 114.971C240.204 114.501 240.162 108.09 244.13 108.56L244.213 108.518Z" fill="#2D2FEE"/>
<path d="M239.602 123.795C235.8 130.505 231.853 137.129 228.237 143.924C224.782 150.646 222.468 157.931 221.397 165.463C219.33 178.284 217.388 192.835 225.013 204.075C227.307 207.472 221.934 210.677 219.661 207.323C211.395 195.164 212.966 179.544 215.115 165.655C216.139 157.729 218.385 150.024 221.769 142.834C225.571 135.227 230.035 127.877 234.167 120.569C234.597 119.867 235.272 119.365 236.052 119.169C236.832 118.972 237.655 119.095 238.348 119.513C239.042 119.931 239.551 120.611 239.77 121.41C239.988 122.209 239.899 123.064 239.52 123.795H239.602Z" fill="#2D2FEE"/>
<path d="M265.516 76.7858C267.479 70.696 269.856 63.7514 267.397 57.4479C264.938 51.1443 258.635 50.6956 252.807 51.0375C252.332 51.0314 251.865 50.9131 251.44 50.6917C251.016 50.4704 250.646 50.1516 250.359 49.76C250.072 49.3684 249.876 48.9142 249.784 48.432C249.693 47.9497 249.709 47.4522 249.832 46.9775C251.671 39.2851 251.609 32.0199 247.042 25.2036C245.007 22.2894 242.33 19.9186 239.232 18.2874C236.134 16.6561 232.705 15.8113 229.229 15.8231C225.861 15.8231 222.306 17.7035 219 17.0411C215.694 16.3787 212.945 12.7675 210.114 10.6307C205.175 7.10496 196.517 4.49803 193.19 11.6563C192.913 12.1343 192.521 12.5299 192.052 12.8045C191.583 13.0792 191.053 13.2235 190.514 13.2235C189.975 13.2235 189.445 13.0792 188.976 12.8045C188.507 12.5299 188.115 12.1343 187.838 11.6563C186.953 9.96837 185.622 8.57542 184 7.63983C182.378 6.70424 180.533 6.26458 178.679 6.37208C176.825 6.47959 175.039 7.12988 173.528 8.24706C172.018 9.36425 170.846 10.9023 170.149 12.682C168.496 16.4214 163.144 13.1734 164.797 9.4554C166.053 6.71512 168.013 4.38466 170.464 2.71884C172.914 1.05301 175.761 0.115959 178.692 0.0100849C181.622 -0.0957889 184.525 0.633641 187.082 2.11858C189.639 3.60352 191.752 5.78681 193.19 8.42978H187.838C191.454 0.60911 201.022 -0.82255 208.11 2.2117C210.179 3.09403 212.136 4.23501 213.937 5.6092C215.735 6.95538 217.306 8.77165 219.145 10.011C220.984 11.2503 223.174 10.011 225.2 9.6477C227.333 9.31608 229.498 9.25152 231.647 9.4554C235.907 9.83444 240.028 11.2107 243.698 13.4801C247.367 15.7494 250.49 18.8524 252.828 22.554C257.87 30.6311 257.953 39.6483 255.804 48.6015L252.807 44.5416C260.557 44.157 268.678 45.6314 272.46 53.4948C276.241 61.3582 274.092 70.3541 271.509 78.4525C270.248 82.3629 264.256 80.6961 265.516 76.7644V76.7858Z" fill="#2D2FEE"/>
<path d="M225.324 206.532C225.357 208.442 224.919 210.329 224.051 212.015C223.184 213.701 221.915 215.131 220.364 216.169C217.426 218.35 214.299 220.245 211.024 221.832C204.225 225.315 196.393 227.43 188.954 224.802C185.213 223.477 186.887 217.28 190.607 218.627C196.248 220.614 202.138 219.161 207.366 216.49C210.011 215.165 212.573 213.648 215.074 212.067C217.14 210.763 219.352 209.182 219.207 206.447C219.212 205.599 219.541 204.787 220.121 204.187C220.701 203.587 221.486 203.247 222.307 203.242C223.124 203.258 223.903 203.601 224.481 204.199C225.059 204.796 225.39 205.602 225.406 206.447L225.324 206.532Z" fill="#2D2FEE"/>
<path d="M226.789 206.297C237.286 247.366 244.849 292.303 226.789 332.368C222.407 342.179 216.424 351.135 209.1 358.843C208.519 359.447 207.73 359.787 206.906 359.789C206.083 359.791 205.292 359.454 204.708 358.854C204.125 358.253 203.796 357.437 203.794 356.586C203.792 355.734 204.117 354.917 204.698 354.313C232.203 325.616 234.93 282.303 228.752 244.546C226.685 232.238 223.896 220.079 220.817 207.985C220.625 207.175 220.745 206.32 221.153 205.601C221.561 204.882 222.223 204.355 223 204.133C223.777 203.91 224.607 204.01 225.315 204.41C226.022 204.81 226.551 205.479 226.789 206.276V206.297Z" fill="#2D2FEE"/>
</svg>
