<svg width="217" height="270" viewBox="0 0 217 270" fill="none" xmlns="http://www.w3.org/2000/svg">
<g clip-path="url(#clip0)">
<path d="M152.422 154.167L175.051 149.313C175.479 149.174 175.837 148.877 176.052 148.482C176.266 148.088 176.321 147.625 176.205 147.191C166.915 114.539 161.055 81.0084 158.719 47.142C158.065 37.5267 157.681 27.9191 157.566 18.3192C157.566 17.8606 157.383 17.4207 157.059 17.0964C156.734 16.772 156.294 16.5898 155.836 16.5898C132.768 18.9418 109.777 22.2276 86.8624 26.4472C75.4976 28.5225 64.1752 30.8283 52.8949 33.3647C50.5881 33.8835 48.0161 34.1256 47.0472 36.6044C46.6815 37.7283 46.6815 38.9392 47.0472 40.0631C47.4394 41.8962 47.7508 43.7639 48.1083 45.6201L51.0495 60.3428C51.4647 62.5218 54.798 61.5994 54.3828 59.4204L52.076 47.4994L50.7266 40.432C50.6343 39.9478 50.5535 39.4636 50.4497 38.9909C50.3253 38.695 50.2588 38.378 50.2537 38.057C50.4497 37.054 52.3182 37.0425 53.0795 36.9041C74.8172 32.0158 96.7317 27.9537 118.823 24.7179C131.126 22.9116 143.494 21.3744 155.928 20.1062L154.198 18.3768C154.526 52.6344 158.426 86.7644 165.836 120.213C167.927 129.606 170.291 138.94 172.929 148.218L174.14 146.085L151.533 150.823C149.353 151.296 150.276 154.628 152.445 154.167H152.422Z" fill="#2D2FEE"/>
<path d="M107.762 218.292C109.546 229.99 111.852 241.596 114.682 253.11C114.786 253.523 115.016 253.894 115.34 254.171C115.628 254.414 115.978 254.571 116.352 254.624C116.725 254.677 117.106 254.624 117.45 254.471C149.492 240.324 177.796 229.349 212.825 226.674C212.944 226.685 213.063 226.685 213.182 226.674C213.572 226.584 213.937 226.407 214.25 226.157C214.563 225.907 214.815 225.589 214.989 225.229C215.163 224.868 215.254 224.473 215.254 224.072C215.255 223.672 215.166 223.277 214.993 222.915C193.367 176.983 192.894 124.053 192.894 73.1523C172.245 75.2395 151.835 79.238 131.925 85.0965" fill="white"/>
<path d="M106.089 218.741C107.75 229.502 109.845 240.193 112.375 250.815C112.871 252.879 113.148 255.427 115.501 256.153C117.854 256.88 120.241 255.116 122.248 254.239C126.862 252.222 131.475 250.239 136.089 248.325C153.828 241.039 172.04 234.79 190.922 231.262C195.827 230.347 200.748 229.613 205.685 229.06C208.188 228.783 210.783 228.772 213.263 228.334C214.129 228.192 214.934 227.795 215.573 227.193C216.212 226.591 216.657 225.812 216.85 224.956C217.334 222.777 215.823 220.644 214.97 218.741C214.001 216.551 213.067 214.337 212.19 212.112C210.379 207.558 208.73 202.889 207.288 198.277C201.406 179.416 198.269 159.805 196.585 140.147C194.901 120.49 194.647 100.441 194.601 80.5766V73.1288C194.598 72.6711 194.415 72.2329 194.091 71.9093C193.767 71.5856 193.329 71.4024 192.871 71.3994C172.066 73.5106 151.499 77.5281 131.429 83.4012C129.307 84.0238 130.207 87.3672 132.352 86.7331C152.137 80.9138 172.414 76.9195 192.928 74.8005L191.198 73.0711C191.198 92.244 191.268 111.44 192.479 130.59C193.632 149.532 195.939 168.486 200.552 186.933C202.818 196.055 205.708 205.011 209.203 213.738C210.079 215.928 211.002 218.096 211.948 220.252C212.398 221.255 212.905 222.246 213.332 223.272C213.632 223.999 213.666 224.679 212.767 224.944C211.75 225.119 210.719 225.208 209.687 225.209C208.372 225.324 207.069 225.451 205.754 225.601C203.367 225.866 200.991 226.178 198.615 226.512C180.322 229.152 162.571 234.386 145.339 240.981C136.389 244.44 127.577 248.152 118.811 252.003C118.267 252.297 117.7 252.548 117.116 252.752C116.539 252.891 116.758 253.006 116.389 252.637C116.02 252.268 116.043 251.184 115.928 250.723C115.755 249.985 115.57 249.259 115.397 248.521C114.82 246.054 114.244 243.587 113.725 241.096C112.617 235.954 111.614 230.793 110.714 225.613C110.261 223.022 109.838 220.425 109.446 217.819C109.1 215.628 105.766 216.562 106.101 218.741H106.089Z" fill="#2D2FEE"/>
<path d="M166.585 213.265C167.214 212.537 167.664 211.672 167.901 210.739C168.137 209.807 168.152 208.832 167.946 207.893C167.681 206.647 167.254 205.425 166.897 204.203L165.028 197.701L161.706 186.091C159.792 179.466 157.869 172.832 155.939 166.192L149.942 145.289C147.22 135.828 144.501 126.359 141.787 116.882C137.75 102.839 133.717 88.7892 129.688 74.7314L125.766 61.0809L123.69 53.8752C123.137 51.9384 122.722 50.0937 120.784 49.1022C118.846 48.1107 116.113 48.9177 113.979 49.2175C111.48 49.548 108.977 49.9015 106.47 50.2782C101.472 51.0468 96.474 51.8154 91.476 52.584C71.3454 55.9505 51.3532 60.101 31.4994 65.0354C26.5167 66.269 21.5571 67.6064 16.5052 68.6325C14.0254 69.1398 11.5226 69.5664 8.99663 69.843C7.84324 69.9699 6.59756 70.0736 5.3865 70.1313C4.30852 70.0917 3.23462 70.2843 2.23771 70.6962C-2.2144 73.002 0.772888 78.4783 1.90322 81.8794C3.4949 86.7063 5.03277 91.5447 6.5168 96.3946C12.4914 115.61 17.8316 135.021 22.5375 154.628C27.2434 174.235 31.2995 193.954 34.7058 213.784C35.5209 218.603 36.2898 223.434 37.0126 228.276C37.1418 228.712 37.4347 229.082 37.8302 229.308C38.2258 229.533 38.6932 229.597 39.1349 229.486C55.3516 225.763 71.7529 222.892 88.2234 220.609C105.455 218.211 122.825 216.459 140.184 215.605C144.797 215.386 149.342 215.225 153.921 215.156C156.112 215.156 158.304 215.156 160.495 215.156C162.687 215.156 164.797 215.029 166.366 213.265C167.935 211.501 165.386 209.138 163.909 210.809C162.756 212.147 160.576 211.697 158.984 211.697C157 211.697 155.017 211.697 153.033 211.755C149.054 211.824 145.086 211.962 141.13 212.147C132.606 212.55 124.094 213.184 115.605 213.991C98.4887 215.621 81.453 217.927 64.4981 220.909C55.6977 222.465 46.9318 224.206 38.2237 226.201L40.3459 227.354C37.3317 208.008 33.7139 188.77 29.4925 169.639C25.271 150.508 20.4537 131.627 15.0404 112.996C12.3261 103.589 9.45799 94.2271 6.43609 84.9116C5.66332 82.6058 4.89054 80.1731 4.1293 77.8096C3.5872 76.1725 2.18006 73.786 4.7752 73.6246C9.65665 73.3009 14.5069 72.611 19.2849 71.5609C28.9619 69.4395 38.5236 66.7878 48.189 64.6434C57.8545 62.499 67.3931 60.4814 77.0239 58.6713C86.6548 56.8613 96.6317 55.2126 106.389 53.7369C108.881 53.368 111.384 53.0106 113.898 52.6647C115.132 52.4917 116.366 52.3073 117.612 52.1574C118.465 52.0536 119.227 51.9614 119.642 52.8607C120.019 53.94 120.331 55.0411 120.576 56.158L121.649 59.905L123.575 66.6264C127.82 81.399 132.049 96.1678 136.262 110.933C139.115 120.863 141.968 130.79 144.821 140.712L150.98 162.191L156.435 181.168C158.573 188.616 160.711 196.06 162.848 203.5L163.782 206.774C164.163 208.1 164.855 209.587 163.875 210.809C162.767 212.527 165.19 215.006 166.585 213.265Z" fill="#2D2FEE"/>
<path d="M136.62 101.721C148.877 97.2836 161.386 93.5762 174.082 90.6182C177.004 106.943 180.253 123.203 183.828 139.398C172.5 143.797 161.797 149.661 151.994 156.841" fill="#2D2FEE"/>
<path d="M137.081 103.393C149.361 98.9617 161.889 95.2508 174.601 92.2786L172.467 91.1257C175.397 107.451 178.649 123.711 182.225 139.905L183.378 137.772C171.914 142.262 161.063 148.181 151.083 155.389C149.284 156.669 151.014 159.666 152.836 158.375C162.538 151.31 173.095 145.5 184.255 141.081C184.691 140.947 185.059 140.652 185.284 140.255C185.509 139.859 185.574 139.391 185.466 138.948C181.913 122.746 178.676 106.482 175.754 90.1573C175.63 89.7175 175.338 89.344 174.941 89.1175C174.544 88.8911 174.074 88.8297 173.632 88.9467C160.939 91.921 148.431 95.632 136.17 100.061C134.094 100.81 135.016 104.154 137.092 103.393H137.081Z" fill="#2D2FEE"/>
<path d="M156.008 168.89C163.07 164.972 170.518 161.796 178.234 159.413C180.357 158.767 179.445 155.424 177.312 156.081C169.301 158.542 161.569 161.834 154.244 165.904C152.294 166.988 154.036 169.974 155.985 168.89H156.008Z" fill="#2D2FEE"/>
<path d="M158.453 176.902C164.556 172.272 171.789 169.361 179.399 168.474C179.854 168.463 180.288 168.277 180.609 167.955C180.931 167.633 181.117 167.2 181.129 166.745C181.129 166.286 180.947 165.846 180.622 165.522C180.298 165.198 179.858 165.016 179.399 165.016C171.174 165.893 163.338 168.967 156.712 173.916C156.325 174.155 156.045 174.534 155.929 174.974C155.813 175.413 155.87 175.881 156.089 176.28C156.322 176.673 156.701 176.959 157.143 177.075C157.586 177.192 158.056 177.13 158.453 176.902Z" fill="#2D2FEE"/>
<path d="M159.676 183.97L168.996 180.903C169.215 180.844 169.421 180.741 169.601 180.602C169.781 180.463 169.932 180.289 170.045 180.092C170.158 179.894 170.231 179.676 170.26 179.451C170.288 179.225 170.272 178.996 170.213 178.776C170.153 178.557 170.05 178.351 169.911 178.171C169.772 177.991 169.598 177.841 169.401 177.728C169.203 177.615 168.985 177.542 168.759 177.513C168.533 177.484 168.304 177.5 168.084 177.56L158.754 180.627C158.31 180.749 157.933 181.042 157.706 181.442C157.479 181.842 157.42 182.316 157.542 182.76C157.665 183.203 157.958 183.58 158.359 183.807C158.759 184.034 159.233 184.092 159.676 183.97Z" fill="#2D2FEE"/>
<path d="M162.71 194.657L183.471 186.956C183.908 186.827 184.277 186.534 184.503 186.138C184.729 185.743 184.793 185.276 184.682 184.834C184.555 184.394 184.261 184.02 183.862 183.794C183.463 183.567 182.992 183.506 182.548 183.624L161.787 191.314C161.362 191.459 161.007 191.759 160.793 192.155C160.579 192.55 160.523 193.011 160.634 193.447C160.758 193.886 161.05 194.26 161.447 194.486C161.844 194.713 162.314 194.774 162.756 194.657H162.71Z" fill="#2D2FEE"/>
<path d="M70.7953 44.8369C93.7249 40.2253 116.739 36.0979 139.838 32.4547L137.692 30.7945L137.254 34.184C137.162 34.9104 137.254 36.6974 136.597 37.1701C135.939 37.6428 134.174 37.4237 133.39 37.4698L129.734 37.7004C124.682 38.0463 119.634 38.4882 114.59 39.0262C104.732 40.0792 94.9206 41.4973 85.1551 43.2805C79.5266 44.3181 73.921 45.471 68.3386 46.7392L70.4608 47.8921C70.3155 47.1293 70.2077 46.3597 70.1379 45.5863C70.1379 44.5372 71.6373 44.6524 72.6408 44.4334L70.5185 43.2228L70.9799 45.1597C71.1183 45.5898 71.4175 45.9498 71.8151 46.1646C72.2127 46.3794 72.6779 46.4324 73.1137 46.3126L77.8772 45.2404L76.966 41.9085L74.5439 42.6349C72.9983 43.096 72.8022 45.6094 74.5439 45.9668C76.9484 46.495 79.4625 46.1517 81.6373 44.9983C81.9546 44.8001 82.1997 44.505 82.3361 44.1566C82.4725 43.8083 82.4931 43.4254 82.3947 43.0644C82.2963 42.7035 82.0843 42.3839 81.79 42.1528C81.4957 41.9218 81.1348 41.7917 80.7607 41.7817L72.7792 41.6664C70.5416 41.6664 70.5762 44.9868 72.7792 45.1251C74.5283 45.2262 76.2406 45.6688 77.8195 46.4279L78.6961 43.2113C75.8357 43.2113 72.9983 43.7762 70.1379 43.8108L70.5992 47.2004C79.8956 45.9207 89.1344 44.3066 98.4192 43.0268C100.368 42.7617 99.8725 39.5681 97.9578 39.6373L84.5438 39.9025V43.3612C102.306 41.0554 119.803 37.0432 137.6 34.7028L135.87 32.9735C135.832 33.3123 135.73 33.641 135.57 33.9419C135.478 34.1379 135.339 34.3339 135.259 34.5414L135.109 34.7605C134.255 35.0487 134.936 35.5791 137.173 36.3861L135.951 36.8818H136.101L134.878 36.3746C134.647 36.144 134.67 36.2823 134.947 36.8011L135.328 37.8618L136.989 35.6713C133.206 35.9019 129.422 36.4899 125.662 36.8934C120.103 37.5044 114.532 38.127 108.95 38.4729C107.912 38.4729 106.885 38.5881 105.859 38.5997H104.705C104.313 38.5997 104.624 38.519 104.705 38.5997C104.786 38.6804 103.863 38.2884 104.797 38.6804L104.382 41.8393C105.428 41.5681 106.492 41.3716 107.566 41.2514C109.872 40.8479 112.179 40.4674 114.486 40.0985C119.596 39.2453 124.694 38.4152 129.792 37.539C131.133 37.3905 132.463 37.1478 133.771 36.8127C134.127 36.7008 134.438 36.4784 134.658 36.1777C134.879 35.8771 134.998 35.5139 134.998 35.1409C134.998 34.768 134.879 34.4048 134.658 34.1042C134.438 33.8035 134.127 33.5811 133.771 33.4692C127.644 32.0235 121.276 31.929 115.109 33.1925C113.217 33.573 113.621 36.7435 115.57 36.6513L125.547 35.8788V32.4201C113.804 33.7671 102.218 36.2341 90.9452 39.7872C88.8345 40.4559 89.7341 43.7993 91.8679 43.1191C102.824 39.6442 114.085 37.2198 125.501 35.8788C127.669 35.6252 127.808 32.2471 125.501 32.4201L115.524 33.1925L115.985 36.5821C121.549 35.4548 127.292 35.5532 132.813 36.8703V33.5269C131.769 33.8065 130.705 34.0068 129.63 34.1264C127.323 34.5299 125.017 34.9104 122.71 35.2793C117.612 36.1324 112.502 36.9625 107.404 37.8272C106.062 37.9806 104.733 38.2272 103.425 38.5651C102.168 38.9801 101.533 41.1015 103.01 41.7241C104.423 42.1599 105.915 42.2818 107.381 42.0815C109.895 41.9662 112.41 41.7471 114.924 41.5165C120.691 40.9862 126.343 40.3636 132.041 39.7065C133.667 39.5335 135.293 39.2914 136.92 39.1992C137.186 39.1976 137.448 39.1351 137.686 39.0164C137.925 38.8977 138.132 38.726 138.294 38.5145C138.455 38.3029 138.566 38.0572 138.618 37.7962C138.67 37.5351 138.661 37.2657 138.592 37.0087C138.061 35.5099 137.289 32.4892 135.005 33.7344C134.686 33.9196 134.415 34.1769 134.213 34.4856C134.012 34.7942 133.885 35.1458 133.843 35.5122C133.802 35.8785 133.847 36.2495 133.974 36.5954C134.102 36.9413 134.309 37.2526 134.578 37.5044C137.104 39.5566 139.284 35.0372 139.261 33.0427C139.262 32.8151 139.219 32.5895 139.132 32.379C139.046 32.1685 138.919 31.9773 138.758 31.8164C138.597 31.6555 138.405 31.5282 138.195 31.4418C137.984 31.3554 137.758 31.3118 137.531 31.3133C119.78 33.6191 102.283 37.6312 84.4746 39.9716C82.3524 40.2483 82.1678 43.4304 84.4746 43.4304L97.8886 43.1652L97.4388 39.7065C88.1424 40.9862 78.9037 42.6003 69.6073 43.88C67.6581 44.1452 68.1656 47.3387 70.0687 47.3387C72.9291 47.3387 75.7665 46.7623 78.6269 46.7392C80.2532 46.7392 81.1067 44.2835 79.5035 43.5111C77.3773 42.4799 75.069 41.8766 72.71 41.7356V45.1943L80.6915 45.3096L79.8149 42.0815C78.4594 42.7954 76.8975 43.0155 75.3974 42.704V46.0359L77.808 45.3096C78.2291 45.1709 78.581 44.8758 78.7908 44.4853C79.0006 44.0948 79.0524 43.6387 78.9354 43.2111C78.8185 42.7835 78.5418 42.4172 78.1624 42.1876C77.7831 41.9581 77.33 41.883 76.8968 41.9777L72.1217 43.0499L74.244 44.2028L73.7826 42.2775C73.6535 41.8384 73.3588 41.4667 72.9606 41.2409C72.5625 41.015 72.0921 40.9526 71.6488 41.0669C70.4339 41.1581 69.2532 41.5121 68.1887 42.1045C67.7194 42.4523 67.3325 42.8991 67.0554 43.4132C66.7783 43.9272 66.6179 44.496 66.5854 45.079C66.6228 46.3421 66.7695 47.5997 67.0237 48.8375C67.1622 49.265 67.4596 49.623 67.8545 49.8376C68.2495 50.0521 68.7118 50.1069 69.146 49.9904C90.1691 45.2096 111.554 42.1863 133.079 40.9516C135.478 40.8133 138.454 41.113 139.768 38.6458C140.24 37.5509 140.506 36.3784 140.553 35.1871L141.129 30.7484C141.279 29.5147 139.895 28.9268 138.938 29.0766C115.87 32.7198 92.8521 36.8472 69.8841 41.4589C67.7042 41.897 68.627 45.2289 70.8069 44.7908L70.7953 44.8369Z" fill="#2D2FEE"/>
<path d="M34.9018 96.083C35.6609 95.0479 36.6313 94.1859 37.7488 93.5538C38.8663 92.9218 40.1053 92.5342 41.3839 92.4168C44.2443 92.1747 47.1509 93.1431 49.7922 91.4483C50.7891 90.7362 51.6488 89.8496 52.3296 88.8312C52.9294 88.0473 54.152 86.1795 55.3515 86.7329C55.8936 86.9866 56.2858 87.6899 56.7241 88.0934C57.1359 88.4747 57.6074 88.7862 58.1197 89.0157C59.3742 89.5258 60.7706 89.5668 62.0528 89.131C64.7633 88.2548 66.2511 86.0297 68.5118 84.5193C70.7724 83.009 73.1254 84.3579 75.4322 85.1996C76.5795 85.6792 77.8236 85.8821 79.0639 85.792C80.3042 85.7018 81.5059 85.3212 82.5717 84.6807C84.8785 83.2511 86.4817 81.222 89.4921 81.4065C92.5024 81.591 95.3975 82.9975 98.5578 82.5594C99.8282 82.4606 101.041 81.9903 102.046 81.2072C103.051 80.424 103.804 79.3627 104.209 78.1553C104.844 76.0109 101.499 75.1001 100.876 77.2329C100.299 79.1929 97.5774 79.3889 95.8819 79.1814C92.8831 78.824 90.1149 77.5212 87.0007 78.1322C84.371 78.651 82.7447 80.6917 80.484 81.9253C78.2234 83.1589 75.8128 81.5564 73.5637 80.7724C72.3835 80.3326 71.1126 80.1919 69.8648 80.3629C68.6169 80.5339 67.4309 81.0113 66.4126 81.7524C64.5672 83.0782 62.8025 85.8106 60.3458 85.972C59.077 86.0527 58.5234 84.8191 57.6353 84.1158C57.1003 83.687 56.47 83.393 55.7976 83.2586C55.1251 83.1241 54.4302 83.1532 53.7714 83.3434C52.5729 83.7205 51.5027 84.423 50.6803 85.3725C49.9202 86.4994 49.034 87.536 48.039 88.4623C46.7587 89.3616 44.9479 89.0618 43.4831 88.9811C41.9857 88.8633 40.479 88.9839 39.0195 89.3385C36.1428 90.1334 33.6315 91.902 31.9145 94.3421C30.6112 96.1407 33.61 97.87 34.9018 96.083Z" fill="#2D2FEE"/>
<path d="M43.01 118.416C43.1138 116.755 43.1599 114.6 44.5209 113.412C45.6743 112.386 46.7008 113.008 47.6812 113.896C49.5612 115.603 51.5335 117.436 54.2786 116.502C56.7815 115.637 57.9349 112.651 60.7607 112.593C63.5865 112.536 66.4239 113.931 69.3535 113.827C70.7653 113.721 72.137 113.309 73.3738 112.62C74.6105 111.931 75.6827 110.982 76.5161 109.838C77.6695 108.431 80.1608 104.073 82.4215 104.88C83.3532 105.373 84.1829 106.038 84.8667 106.84C85.7301 107.74 86.8104 108.403 88.004 108.766C88.6226 108.907 89.2656 108.902 89.8821 108.752C90.4986 108.602 91.0718 108.311 91.5564 107.901C92.5945 107.059 93.102 105.503 94.2669 104.857C95.674 104.073 97.7271 104.973 98.9843 105.572C100.414 106.348 101.898 107.019 103.425 107.578C106.331 108.454 109.596 108.224 111.372 105.48C112.594 103.601 109.596 101.871 108.384 103.739C106.977 105.918 103.16 103.82 101.545 102.99C98.8805 101.629 95.3857 100.2 92.5253 101.837C91.4523 102.615 90.5366 103.589 89.8263 104.708C89.042 105.676 88.5576 105.411 87.681 104.708C85.7318 103.093 84.0247 100.984 81.222 101.364C78.0732 101.791 76.1586 104.823 74.3016 107.071C73.5622 108.095 72.6487 108.98 71.6027 109.688C70.308 110.363 68.8143 110.551 67.3927 110.218C64.5669 109.769 61.695 108.627 58.8 109.377C57.4225 109.785 56.1746 110.544 55.1783 111.579C54.417 112.294 53.4712 113.596 52.2948 113.204C51.1183 112.813 50.2533 111.498 49.3306 110.76C48.7507 110.248 48.0678 109.865 47.3277 109.639C46.5876 109.412 45.8075 109.346 45.0399 109.446C40.7147 110.138 39.7689 114.772 39.5382 118.404C39.3998 120.629 42.86 120.629 42.9984 118.404L43.01 118.416Z" fill="#2D2FEE"/>
<path d="M50.9341 142.869C50.8194 142.335 50.8978 141.778 51.1555 141.297C51.4132 140.815 51.8333 140.441 52.3412 140.24C53.5638 139.756 54.4866 140.771 55.3055 141.543C57.3239 143.445 59.6884 144.898 62.4565 143.595C64.648 142.558 65.9167 140.355 67.6814 138.776C69.9882 136.701 72.6064 137.946 75.19 138.776C78.1312 139.768 80.957 140.033 83.7367 138.488C85.8935 137.335 87.6582 135.029 90.0573 134.349C90.6422 134.225 91.247 134.229 91.8302 134.36C92.4135 134.492 92.9615 134.747 93.4368 135.11C94.6724 135.966 96.0694 136.562 97.5428 136.862C100.53 137.243 102.641 135.202 104.936 133.68C105.598 133.19 106.362 132.858 107.172 132.708C107.981 132.558 108.814 132.595 109.607 132.815C111.326 133.423 113.126 133.773 114.948 133.853C118.119 133.657 121.141 131.42 120.542 127.996C120.149 125.806 116.816 126.74 117.197 128.919C117.37 129.852 115.57 130.325 114.948 130.394C113.31 130.579 111.637 129.691 110.057 129.368C106.678 128.677 104.29 129.864 101.649 131.812C100.769 132.613 99.7021 133.179 98.5463 133.461C97.1276 133.622 95.8128 132.458 94.6594 131.824C93.5012 131.144 92.1781 130.797 90.8353 130.819C89.4925 130.841 88.1818 131.233 87.0469 131.951C84.8785 133.231 82.987 135.594 80.4495 136.113C77.5775 136.712 74.6825 134.626 71.8798 134.199C70.5428 133.993 69.1753 134.13 67.9061 134.598C66.6369 135.066 65.5077 135.849 64.6249 136.874C63.4715 138.027 61.6491 141.163 59.6768 140.528C58.3389 140.09 57.3701 138.592 56.2743 137.773C55.6776 137.298 54.9858 136.956 54.2455 136.771C53.5053 136.586 52.734 136.562 51.9837 136.701C51.2245 136.859 50.5051 137.169 49.8686 137.612C49.232 138.055 48.6913 138.622 48.2789 139.278C47.8665 139.935 47.5908 140.668 47.4683 141.433C47.3459 142.199 47.3791 142.981 47.5662 143.734C47.7049 144.155 48.0002 144.506 48.3908 144.716C48.7815 144.926 49.2378 144.977 49.6656 144.861C50.0933 144.744 50.4598 144.467 50.6895 144.088C50.9191 143.709 50.9943 143.256 50.8995 142.823L50.9341 142.869Z" fill="#2D2FEE"/>
<path d="M57.2778 170.919C57.49 169.833 58.0234 168.836 58.8089 168.057C59.5945 167.278 60.5961 166.753 61.6838 166.549C64.2789 166.065 66.5396 168.06 68.9387 168.728C70.127 169.039 71.374 169.047 72.5665 168.753C73.759 168.459 74.8591 167.872 75.7668 167.045C77.7737 165.454 79.227 163.851 81.972 164.451C84.7171 165.05 87.2892 166.077 90.0458 165.016C92.4103 164.105 94.0827 161.926 96.4818 161.165C99.2038 160.289 102.318 161.488 105.052 161.799C107.863 162.008 110.68 161.471 113.218 160.243C114.599 159.583 116.08 159.154 117.6 158.975C119.377 158.882 121.118 159.413 122.895 159.344C126.066 159.207 129.084 157.943 131.407 155.781C133.056 154.282 130.599 151.838 128.95 153.337C127.865 154.31 126.58 155.034 125.185 155.456C123.79 155.879 122.319 155.989 120.876 155.781C117.963 155.192 114.938 155.598 112.283 156.934C111.019 157.509 109.707 157.972 108.362 158.317C106.761 158.562 105.129 158.499 103.552 158.133C100.761 157.637 97.8428 156.98 95.0862 158.006C92.6294 158.894 90.8647 161.35 88.3273 161.972C85.7898 162.595 83.0562 160.819 80.4265 160.819C77.7968 160.819 75.8129 162.479 73.8983 164.117C73.1306 164.902 72.1252 165.413 71.0378 165.569C69.677 165.456 68.3616 165.026 67.197 164.313C64.4404 163.044 61.73 162.549 58.8811 163.863C57.6336 164.432 56.5358 165.283 55.6749 166.35C54.814 167.416 54.2136 168.669 53.9214 170.008C53.4947 172.187 56.828 173.121 57.2548 170.93L57.2778 170.919Z" fill="#2D2FEE"/>
<path d="M185.697 1.764C184.2 5.54565 181.729 8.86421 178.534 11.383C175.34 13.9019 171.536 15.5314 167.508 16.1062C167.049 16.1062 166.609 16.2884 166.285 16.6127C165.96 16.937 165.778 17.3769 165.778 17.8356C165.778 18.2942 165.96 18.7341 166.285 19.0584C166.609 19.3827 167.049 19.5649 167.508 19.5649C171.031 19.9069 174.342 21.4057 176.924 23.8273C179.505 26.249 181.211 29.457 181.775 32.9502C182.052 35.0831 185.316 35.256 185.236 32.9502C185.235 31.4611 185.548 29.9886 186.155 28.6287C186.762 27.2687 187.649 26.0519 188.758 25.0576C189.867 24.0634 191.173 23.3139 192.591 22.8581C194.009 22.4024 195.508 22.2506 196.989 22.4126C198.511 22.6086 199.215 20.4181 198.211 19.4612C195.807 17.1795 193.915 14.4143 192.658 11.3478C191.402 8.28143 190.81 4.98354 190.922 1.67177C191.003 -0.553349 187.542 -0.553349 187.462 1.67177C187.349 5.43792 188.03 9.18567 189.461 12.6716C190.891 16.1574 193.04 19.3035 195.766 21.9053L196.989 18.9539C189.076 17.9278 181.499 25.0528 181.775 32.9502H185.236C184.628 28.5501 182.542 24.4869 179.321 21.4266C176.1 18.3662 171.935 16.4903 167.508 16.1062V19.5649C172.285 18.9537 176.807 17.0636 180.598 14.0946C184.388 11.1255 187.306 7.18785 189.042 2.69786C189.838 0.622618 186.493 -0.276653 185.697 1.78706V1.764Z" fill="#2D2FEE"/>
<path d="M196.308 27.0939C194.912 30.3939 192.457 33.1358 189.33 34.8875C188.941 35.1248 188.659 35.5034 188.543 35.944C188.426 36.3845 188.485 36.8529 188.707 37.251L193.759 47.1545L196.746 45.4136C196.435 44.8833 197 44.1915 197.531 43.9033C198.684 43.2923 200.23 43.5805 201.441 43.7073C202.836 43.8572 203.471 42.1509 202.94 41.1133C200.904 37.0814 200.037 32.5608 200.437 28.0623C200.434 27.6046 200.251 27.1665 199.927 26.8428C199.603 26.5191 199.165 26.336 198.707 26.3329C198.251 26.3418 197.816 26.5269 197.493 26.8493C197.171 27.1717 196.986 27.6064 196.977 28.0623C196.571 33.1764 197.61 38.3017 199.976 42.8542L201.464 40.2486C199.157 40.0065 196.677 39.9604 194.866 41.5975C194.077 42.2605 193.54 43.1736 193.342 44.1846C193.145 45.1957 193.3 46.2438 193.782 47.1545C194.935 49.0914 197.773 47.3851 196.769 45.4136L191.717 35.4986L191.095 37.8736C194.755 35.8458 197.645 32.6691 199.318 28.8348C199.517 28.4413 199.564 27.9882 199.449 27.5626C199.334 27.1369 199.066 26.7688 198.695 26.5289C198.304 26.3191 197.847 26.2667 197.418 26.3825C196.99 26.4982 196.621 26.7733 196.389 27.1515L196.308 27.0939Z" fill="#2D2FEE"/>
<path d="M63.16 240.739C62.2243 243.345 60.5962 245.647 58.4503 247.398C56.3044 249.149 53.7219 250.283 50.9801 250.677C49.4345 250.919 49.3999 253.144 50.5649 253.836C53.2033 255.446 55.454 257.617 57.1566 260.196C58.8592 262.775 59.9717 265.697 60.4149 268.755C60.7263 270.772 63.7021 270.127 63.8174 268.294C64.0026 265.955 64.9033 263.73 66.3973 261.922C67.8913 260.113 69.9061 258.807 72.168 258.183C72.4221 258.11 72.6565 257.982 72.8534 257.806C73.0503 257.63 73.2046 257.411 73.3046 257.167C73.4046 256.923 73.4477 256.659 73.4306 256.395C73.4136 256.132 73.3368 255.876 73.206 255.646C71.4413 252.914 68.7308 251.115 66.7816 248.567C65.3975 246.757 64.4748 243.725 66.5048 242.065C68.2349 240.67 65.7666 238.237 64.0596 239.621C61.303 241.857 61.4875 245.812 62.9062 248.763C64.5556 252.222 68.1888 254.193 70.2533 257.387L71.2799 254.851C68.3022 255.696 65.6592 257.442 63.7139 259.849C61.7685 262.256 60.6161 265.206 60.4149 268.294L63.8174 267.832C63.2492 264.333 61.9224 260.999 59.9301 258.066C57.9377 255.132 55.3279 252.669 52.2834 250.85L51.8682 254.021C55.1889 253.466 58.298 252.025 60.8665 249.85C63.4349 247.674 65.3671 244.845 66.4587 241.661C67.1853 239.551 63.8405 238.641 63.1254 240.739H63.16Z" fill="#2D2FEE"/>
</g>
<defs>
<clipPath id="clip0">
<rect width="217" height="270" fill="white"/>
</clipPath>
</defs>
</svg>
