<svg width="362" height="193" viewBox="0 0 362 193" fill="none" xmlns="http://www.w3.org/2000/svg">
<path d="M152.949 88.2688L339.768 86.2827" stroke="#2D2FEE" stroke-width="3" stroke-miterlimit="10" stroke-linecap="round"/>
<path d="M154.507 99.4939L341.326 97.5078" stroke="#2D2FEE" stroke-width="3" stroke-miterlimit="10" stroke-linecap="round"/>
<path d="M154.683 108.997L341.487 106.997" stroke="#2D2FEE" stroke-width="3" stroke-miterlimit="10" stroke-linecap="round"/>
<path d="M154.507 119.605L341.326 117.619" stroke="#2D2FEE" stroke-width="3" stroke-miterlimit="10" stroke-linecap="round"/>
<path d="M154.683 130.256L341.487 128.255" stroke="#2D2FEE" stroke-width="3" stroke-miterlimit="10" stroke-linecap="round"/>
<path d="M156.329 139.803L343.133 137.802" stroke="#2D2FEE" stroke-width="3" stroke-miterlimit="10" stroke-linecap="round"/>
<path d="M154.507 149.336L341.326 147.35" stroke="#2D2FEE" stroke-width="3" stroke-miterlimit="10" stroke-linecap="round"/>
<path d="M156.329 158.428L343.133 156.427" stroke="#2D2FEE" stroke-width="3" stroke-miterlimit="10" stroke-linecap="round"/>
<path d="M15.5604 179.509C17.5639 180.136 19.67 180.366 21.7612 180.186L30.3719 180.113L56.63 179.892C73.2047 179.76 89.9558 180.127 106.487 179.009C115.656 178.391 124.795 177.612 133.994 177.538C143.192 177.465 152.317 177.744 161.471 178.038C170.626 178.332 179.795 178.656 188.964 178.583C198.133 178.509 207.449 178.141 216.691 177.891L328.571 174.949L342.457 174.566C346.439 174.463 350.406 174.493 353.918 172.33C358.723 169.388 360.236 163.4 360.868 158.134C361.603 151.896 361.573 145.673 361.691 139.406C361.838 132.05 362.161 124.591 361.867 117.192C361.544 108.512 361.515 99.729 360.398 91.1081C359.384 83.517 357.342 75.5139 352.537 69.3939C350.614 66.7338 347.84 64.8128 344.675 63.9507C340.781 63.0827 336.476 63.5093 332.538 63.6712C323.443 64.0537 314.347 63.8035 305.237 63.7741C286.762 63.7741 268.286 63.9114 249.811 64.186C231.336 64.4607 212.861 64.951 194.386 65.6572C185.177 65.9906 175.969 66.383 166.761 66.8341C157.812 67.2608 148.746 67.3196 139.974 69.2909C131.202 71.2623 122.723 73.8662 114.039 75.9258C105.355 77.9854 96.3036 79.9421 87.3844 81.8104C69.7516 85.3853 52.1189 88.4894 34.3246 91.4611C29.9164 92.2114 25.5082 92.9323 21.1 93.6679L14.4877 94.7712C12.4015 94.9174 10.3549 95.4148 8.43382 96.2424C7.10988 96.9373 5.9379 97.89 4.98663 99.0445C4.03537 100.199 3.32399 101.532 2.89422 102.966C1.71654 107.086 0.924549 111.306 0.528497 115.573C-0.231093 124.261 -0.0636213 133.005 1.02809 141.657C1.49829 145.982 2.08606 150.292 2.68851 154.603C3.12396 158.401 3.81118 162.165 4.74565 165.872C5.60038 169.2 7.09796 172.329 9.15384 175.081C10.7189 177.022 12.7807 178.502 15.1196 179.362C17.691 180.48 19.9392 176.685 17.3384 175.552C16.7212 175.287 16.0894 175.037 15.4722 174.743C13.8583 173.914 12.5318 172.617 11.6665 171.021C9.95411 167.998 8.78998 164.696 8.22811 161.267C6.69375 153.19 5.61938 145.031 5.01015 136.831C4.12775 128.378 4.30546 119.848 5.53914 111.439C6.1122 108.085 6.43546 103.333 9.22731 101.141C12.0192 98.9493 15.9131 99.0376 19.1751 98.4932C53.6618 92.7705 88.2367 87.0477 122.136 78.618C130.526 76.529 138.901 73.6308 147.497 72.5422C156.093 71.4535 165.248 71.4094 174.064 71.071C192.02 70.257 209.996 69.6244 227.991 69.1733C245.986 68.7221 263.976 68.4475 281.962 68.3494C299.594 68.2464 317.315 68.6878 334.963 68.114C338.298 67.9963 342.559 67.4373 345.586 69.085C348.323 70.8617 350.459 73.426 351.714 76.4407C355.373 83.6346 356.357 91.8878 356.827 99.8467C357.415 109.851 357.768 119.825 357.562 129.843C357.415 137.199 357.312 144.687 357.136 152.117C357.136 152.896 357.033 153.676 356.96 154.456C356.857 155.544 356.739 156.648 356.607 157.736C356.607 158.075 356.607 158.443 356.489 158.781C356.607 158.06 356.489 158.781 356.489 158.781C356.386 159.266 356.269 159.752 356.166 160.252C355.608 162.797 355.093 165.695 353.227 167.608C350.494 170.359 346.571 170.226 342.941 170.329L234.721 173.272C216.867 173.757 198.97 174.655 181.117 174.419C163.264 174.184 145.455 172.948 127.602 173.551C118.668 173.845 109.763 174.846 100.815 175.243C95.3779 175.478 89.9265 175.523 84.475 175.567L68.3117 175.699L21.9522 176.082C20.2596 176.243 18.5519 176.068 16.9269 175.567C14.0763 174.243 12.9302 178.509 15.5604 179.509Z" fill="#2D2FEE"/>
<path d="M340.988 75.2052C340.22 74.9804 339.422 74.8713 338.622 74.8815L173.844 76.3527C169.127 76.3527 164.705 76.5145 159.297 76.5292C158.331 76.5397 157.388 76.8254 156.579 77.353L154.536 78.6918C154.258 78.8679 153.998 79.0698 153.758 79.295C144.412 88.2248 147.057 96.272 147.248 115.073C147.469 125.298 147.248 115.073 147.733 131.683C148.262 148.674 148.938 149.263 151.392 156.927C152.328 160.221 153.818 163.331 155.8 166.122C157.252 168.001 159.273 169.359 161.56 169.991L175.696 170.447C176.004 170.447 183.807 170.447 184.13 170.447C218.47 169.285 245.33 167.049 279.641 166.975C292.086 166.975 299.948 166.593 307.265 166.534L337.726 166.004C339.662 165.825 341.57 165.42 343.412 164.798C348.967 162.915 348.893 159.84 350.759 154.235C352.714 148.351 352.669 141.981 352.596 135.758C352.523 128.402 352.052 110.586 351.964 103.186C351.832 90.9317 353.434 85.5326 345.69 77.6031C344.699 76.6047 343.47 75.8756 342.119 75.4847L340.988 75.2052Z" fill="#2D2FEE"/>
<path d="M341.561 73.0717C338.401 72.2773 334.904 72.704 331.671 72.7334L321.048 72.8364L299.815 73.0423L257.702 73.4395C229.549 73.7043 201.39 73.9692 173.227 74.234L164.631 74.3516C161.692 74.3516 158.371 73.9103 155.712 75.3667C152.599 77.1461 149.977 79.6742 148.085 82.7225C143.751 89.5339 144.471 97.9783 144.779 105.672C145 111.042 145.014 116.426 145.22 121.855C145.543 130.196 145.367 138.626 146.484 146.865C146.833 149.394 147.414 151.886 148.218 154.309C149.339 158.493 151.019 162.506 153.214 166.24C155.256 169.373 158.459 172.124 162.324 172.227C165.38 172.36 168.451 172.433 171.508 172.536C189.904 173.125 208.345 171.698 226.713 170.815C239.408 170.212 252.104 169.667 264.814 169.344C276.834 169.108 288.868 169.123 300.888 168.844C312.217 168.593 323.546 168.461 334.875 168.27C340.047 168.181 346.527 167.593 349.804 163.047C350.802 161.52 351.532 159.833 351.964 158.06C352.857 155.416 353.583 152.718 354.139 149.983C354.881 144.411 355.117 138.783 354.844 133.168C354.697 124.106 354.432 115.029 354.285 105.967C354.153 97.8018 355.755 88.3128 351.273 81.0307C350.121 79.1202 348.717 77.3736 347.1 75.8375C345.508 74.4595 343.608 73.4856 341.561 72.9982C338.842 72.2038 337.667 76.4701 340.4 77.2645C342.31 77.7565 344.02 78.831 345.293 80.3392C346.626 81.8044 347.717 83.473 348.525 85.2823C349.995 88.7542 349.921 92.638 349.877 96.3306C349.789 105.157 350.039 113.984 350.23 122.811C350.318 126.857 350.406 130.903 350.45 134.948C350.524 140.759 350.685 146.717 349.099 152.352C348.173 155.647 347.541 160.443 344.176 162.135C342.057 163.137 339.758 163.703 337.417 163.797C327.498 164.312 317.492 164.165 307.559 164.312C285.944 164.621 264.3 164.724 242.7 165.607C230.651 166.107 218.602 166.74 206.553 167.314C196.796 167.755 187.039 168.285 177.282 168.211C172.492 168.211 167.702 167.917 162.926 167.77C162.559 167.77 162.192 167.77 161.839 167.77H161.56C162.001 167.843 160.987 167.505 160.81 167.431C158.679 166.277 156.97 164.474 155.932 162.282C154.28 158.998 152.985 155.545 152.067 151.984C149.966 145.114 150.069 137.743 149.863 130.638C149.746 126.636 149.584 122.635 149.496 118.648C149.393 114.234 149.305 109.821 149.129 105.408C148.842 101.328 148.842 97.2328 149.129 93.1529C149.407 89.9307 150.521 86.8373 152.361 84.1789C153.294 82.8008 154.434 81.5752 155.741 80.5452C156.299 80.1333 156.916 79.7508 157.504 79.383C158.581 78.8438 159.792 78.634 160.987 78.7798C187.23 78.5886 213.473 78.2355 239.717 77.9854L321.004 77.2204L330.525 77.1321C333.655 77.1321 337.314 76.5437 340.356 77.3087C343.147 78.0295 344.323 73.7632 341.561 73.0717Z" fill="#2D2FEE"/>
<path d="M153.978 176.552C153.75 180.305 154.58 184.047 156.373 187.35C157.201 188.786 158.33 190.025 159.682 190.982C161.034 191.94 162.577 192.593 164.205 192.897C166.003 193.097 167.823 192.863 169.512 192.216C171.202 191.568 172.712 190.526 173.918 189.175C176.289 186.348 178.086 183.085 179.207 179.568C179.357 179.003 179.279 178.401 178.991 177.892C178.702 177.383 178.226 177.008 177.664 176.847C177.11 176.701 176.52 176.772 176.015 177.045C175.511 177.318 175.129 177.773 174.946 178.318C174.113 180.972 172.825 183.461 171.14 185.673C170.437 186.613 169.519 187.371 168.463 187.883C167.407 188.395 166.244 188.646 165.072 188.616C164.003 188.412 162.995 187.97 162.12 187.323C161.245 186.676 160.526 185.841 160.017 184.879C158.746 182.302 158.183 179.433 158.386 176.567C158.386 173.728 153.978 173.728 153.978 176.567V176.552Z" fill="#2D2FEE"/>
<path d="M24.1126 178.936C24.1513 181.513 24.9042 184.029 26.2873 186.203C26.9846 187.239 27.905 188.104 28.9808 188.735C30.0565 189.367 31.2602 189.748 32.5029 189.852C33.7034 189.872 34.8925 189.617 35.9798 189.107C37.0671 188.597 38.0238 187.846 38.7772 186.91C40.3328 184.85 41.4482 182.491 42.0539 179.98C42.141 179.698 42.1706 179.402 42.1411 179.108C42.1115 178.814 42.0233 178.529 41.8818 178.27C41.7402 178.011 41.5482 177.783 41.317 177.6C41.0859 177.416 40.8203 177.281 40.5361 177.202C40.2518 177.124 39.9547 177.103 39.6622 177.141C39.3698 177.179 39.088 177.276 38.8335 177.425C38.5791 177.575 38.3571 177.773 38.1808 178.01C38.0046 178.247 37.8776 178.517 37.8074 178.804C37.4072 180.564 36.6956 182.238 35.7061 183.747C35.9412 183.423 35.5886 183.894 35.5298 183.953L35.089 184.409C34.939 184.549 34.7821 184.681 34.6187 184.806C34.942 184.57 34.4718 184.894 34.3983 184.938C34.2252 185.051 34.0434 185.149 33.8547 185.232C34.2367 185.041 33.7224 185.233 33.6196 185.321C33.4275 185.38 33.2309 185.425 33.0318 185.453C33.502 185.38 32.8114 185.453 32.7086 185.453H32.4C32.6155 185.453 32.6449 185.453 32.4882 185.453L31.9151 185.306L31.6212 185.203H31.6947L31.1657 184.909C31.0922 184.909 30.6514 184.541 30.7984 184.659C30.9453 184.776 30.5338 184.409 30.4898 184.365C30.4457 184.32 30.1959 184.07 30.0637 183.908C29.9314 183.747 29.9755 183.805 30.0637 183.908L29.8873 183.658C28.9838 182.223 28.4767 180.573 28.4179 178.877C28.4067 178.295 28.1708 177.741 27.7599 177.329C27.349 176.918 26.7949 176.682 26.2139 176.67C25.6305 176.674 25.0721 176.908 24.6596 177.321C24.2471 177.734 24.0136 178.293 24.0098 178.877L24.1126 178.936Z" fill="#2D2FEE"/>
<path d="M311.805 175.067C312.064 178.721 313.281 182.243 315.332 185.277C316.351 186.721 317.685 187.914 319.233 188.765C320.781 189.616 322.502 190.104 324.266 190.19C325.963 190.139 327.627 189.7 329.129 188.907C330.632 188.114 331.934 186.988 332.935 185.615C335.079 182.494 336.523 178.946 337.167 175.214C337.828 172.448 333.582 171.271 332.921 174.037C332.395 176.883 331.402 179.622 329.982 182.143C329.423 183.133 328.64 183.978 327.696 184.609C326.752 185.24 325.672 185.64 324.545 185.777C319.02 185.953 316.728 179.539 316.169 175.067C316.155 174.486 315.918 173.934 315.507 173.523C315.097 173.112 314.545 172.875 313.965 172.86C313.383 172.868 312.827 173.103 312.415 173.515C312.004 173.927 311.769 174.484 311.761 175.067H311.805Z" fill="#2D2FEE"/>
<path d="M122.136 95.7128C120.616 106.4 121.07 117.275 123.473 127.799C123.567 128.121 123.732 128.419 123.957 128.668C124.182 128.918 124.461 129.113 124.772 129.239C125.083 129.365 125.419 129.419 125.754 129.396C126.089 129.373 126.414 129.275 126.706 129.108C129.498 127.284 130.467 124.224 131.114 121.075C131.809 117.372 132.08 113.601 131.922 109.836C131.753 106.165 131.181 102.524 130.218 98.9788C129.38 96.0365 127.97 92.2409 124.134 92.9912C123.67 93.1224 123.261 93.4016 122.969 93.7866C122.677 94.1715 122.519 94.6411 122.518 95.1243L124.355 121.34C124.56 124.15 128.763 124.209 128.763 121.34L128.543 103.613C128.543 103.028 128.31 102.466 127.897 102.052C127.484 101.639 126.923 101.406 126.338 101.406C125.754 101.406 125.193 101.639 124.78 102.052C124.367 102.466 124.134 103.028 124.134 103.613L124.355 121.34H128.763L126.926 95.1243L125.31 97.2575C124.84 97.1398 124.752 97.2575 125.045 97.4929C125.191 97.6983 125.3 97.9272 125.369 98.1696C125.571 98.7287 125.743 99.2984 125.883 99.8761C126.265 101.2 126.574 102.554 126.838 103.922C127.305 106.46 127.546 109.035 127.558 111.616C127.583 114.198 127.386 116.777 126.97 119.325C126.632 121.267 126.368 124.121 124.561 125.298L127.793 126.622C125.544 116.875 125.091 106.799 126.456 96.8897C126.587 96.325 126.501 95.7316 126.215 95.2274C125.929 94.7232 125.465 94.3451 124.913 94.1681C124.35 94.0188 123.751 94.0971 123.245 94.3861C122.74 94.6751 122.367 95.1516 122.209 95.7128H122.136Z" fill="#2D2FEE"/>
<path d="M198.236 144.82C216.787 144.82 231.826 128.261 231.826 107.835C231.826 87.4092 216.787 70.8506 198.236 70.8506C179.684 70.8506 164.646 87.4092 164.646 107.835C164.646 128.261 179.684 144.82 198.236 144.82Z" fill="white" stroke="#2D2FEE" stroke-width="3" stroke-miterlimit="10" stroke-linecap="round"/>
<path d="M138.77 78.78C133.123 101.45 132.841 125.126 137.947 147.924C139.412 154.421 141.316 160.811 143.648 167.049C144.633 169.682 148.894 168.52 147.895 165.872C139.936 144.537 137.068 121.635 139.519 98.9936C140.239 92.547 141.398 86.1572 142.987 79.8686C143.678 77.1176 139.431 75.9407 138.726 78.7065L138.77 78.78Z" fill="#2D2FEE"/>
<path d="M20.7919 108.203C50.6162 104.771 80.2298 99.7023 109.499 93.0207C112.262 92.3881 111.101 88.1365 108.324 88.7691C79.4431 95.3764 50.2219 100.391 20.7919 103.789C18.0001 104.113 17.9707 108.527 20.7919 108.203Z" fill="#2D2FEE"/>
<path d="M31.0192 167.828C37.2647 167.88 43.5086 167.6 49.7246 166.99C56.0283 166.372 62.2585 165.269 68.5328 164.386C81.0667 162.635 93.586 163.459 106.135 164.459C108.971 164.68 108.956 160.267 106.135 160.046C93.6447 159.046 81.1549 158.266 68.7385 159.943C62.5083 160.782 56.3368 161.914 50.0772 162.547C43.7298 163.176 37.3533 163.466 30.9751 163.415C30.3905 163.415 29.8299 163.647 29.4165 164.061C29.0032 164.475 28.771 165.036 28.771 165.622C28.771 166.207 29.0032 166.768 29.4165 167.182C29.8299 167.596 30.3905 167.828 30.9751 167.828H31.0192Z" fill="#2D2FEE"/>
<path d="M200.822 129.255C212.638 129.255 222.216 118.164 222.216 104.481C222.216 90.7988 212.638 79.707 200.822 79.707C189.006 79.707 179.428 90.7988 179.428 104.481C179.428 118.164 189.006 129.255 200.822 129.255Z" fill="white" stroke="#2D2FEE" stroke-width="3" stroke-miterlimit="10" stroke-linecap="round"/>
<path d="M231.885 55.0651L295.495 15.4323L313.583 4.16332C315.993 2.69217 313.774 -1.16223 311.364 0.353051L247.74 39.9858L229.651 51.2548C227.256 52.7259 229.46 56.5656 231.885 55.0651Z" fill="#2D2FEE"/>
<path d="M245.051 115.294C262.584 123.009 279.618 131.814 296.054 141.657C296.557 141.927 297.145 141.99 297.694 141.835C298.243 141.679 298.711 141.317 298.998 140.823C299.286 140.329 299.371 139.743 299.235 139.188C299.1 138.633 298.755 138.152 298.273 137.847C281.844 128.001 264.814 119.196 247.285 111.484C244.713 110.351 242.465 114.146 245.051 115.294Z" fill="white"/>
<path d="M250.297 95.9925C260.288 97.9661 270.491 98.6386 280.654 97.9933C283.461 97.8167 283.49 93.3886 280.654 93.5798C270.884 94.2268 261.07 93.6088 251.457 91.7409C248.695 91.1966 247.505 95.4482 250.297 95.9925Z" fill="white"/>
<path d="M260.847 53.1379C279.783 44.3993 299.041 36.406 318.624 29.1581C321.268 28.1872 320.093 23.9209 317.448 24.9065C297.543 32.2721 277.951 40.4124 258.672 49.3276C256.086 50.5045 258.334 54.3148 260.891 53.1379H260.847Z" fill="#2D2FEE"/>
</svg>
