<svg width="162" height="122" viewBox="0 0 162 122" fill="none" xmlns="http://www.w3.org/2000/svg">
<g clip-path="url(#clip0)">
<path d="M78.9077 46.0097C78.773 45.8728 78.6535 45.7621 78.5486 45.6766C76.7569 44.1014 73.8121 42.4341 69.7154 40.6734L69.627 40.6312L69.583 40.6107L69.5383 40.5895L69.5053 40.6013C67.634 39.7685 66.4303 39.1891 65.8965 38.863C64.9075 38.2319 64.4404 37.4025 64.4912 36.3751C64.5114 35.6054 64.9844 33.8262 65.907 31.0366C66.3893 29.5606 66.7673 28.3806 67.0415 27.4954C69.0257 21.1291 69.5179 17.3378 68.5173 16.1203L68.2058 15.8635C68.0047 15.7138 67.6023 15.6547 66.9989 15.6852C66.3944 15.7165 65.6867 15.9386 64.8744 16.3514L55.4713 19.7804C55.2993 19.7808 55.083 19.8637 54.8223 20.0306C54.562 20.1975 54.4318 20.281 54.4318 20.281L54.297 20.4215L54.2019 20.5665C54.116 20.6705 54.0369 20.8279 53.9643 21.0384C53.8921 21.248 53.8514 21.4784 53.8422 21.7276C53.7581 24.7342 53.4673 27.6054 52.9676 30.342C52.6431 31.9833 52.32 33.4206 51.9972 34.6551C51.6751 35.8891 51.3687 36.8228 51.0781 37.455C50.787 38.0879 50.5073 38.6115 50.237 39.0281C49.9673 39.4446 49.7268 39.6657 49.515 39.6918C49.3027 39.7181 49.102 39.7406 48.9112 39.7596C48.5358 39.672 48.1949 39.4924 47.889 39.2203C47.5824 38.9485 47.3053 38.5675 47.0568 38.078C46.8086 37.5881 46.6126 37.1605 46.4691 36.7934C46.3266 36.4264 46.1443 35.9004 45.925 35.2161C45.7062 34.5313 45.553 34.0698 45.4673 33.8297C45.1714 33.0004 44.8663 32.0946 44.5523 31.112C44.2388 30.1292 43.9909 29.3503 43.811 28.7755C43.6308 28.2002 43.4269 27.5963 43.201 26.9634C42.9752 26.3306 42.7596 25.8481 42.5549 25.515C42.3513 25.1821 42.1112 24.8741 41.8383 24.5899C41.5646 24.3063 41.2472 24.1246 40.887 24.0438C40.5263 23.9634 40.1076 23.9469 39.6328 23.993C38.3828 24.1441 36.8594 24.5281 35.0619 25.1447C30.9879 26.5495 28.4737 27.7422 27.5196 28.7223C27.147 29.1255 26.8492 29.601 26.6263 30.1477C26.4048 30.7681 26.4435 31.0497 26.7425 30.9916C28.122 30.7205 29.2164 30.8589 30.0267 31.406L30.3636 31.729C30.6178 31.958 30.9497 32.4057 31.3594 33.0711C31.7689 33.7366 32.1516 34.4979 32.5063 35.3548C33.1838 36.9091 33.6705 38.2729 33.9664 39.4463C34.2622 40.6202 34.4743 41.5406 34.6017 42.2086C34.729 42.8765 34.7648 43.4419 34.7087 43.9045C34.6522 44.3675 34.6071 44.6542 34.5726 44.7647C34.5382 44.8752 34.5033 44.9496 34.4676 44.9866C34.2228 45.1965 33.9476 45.3572 33.6423 45.4661C33.3365 45.5752 32.9112 45.5546 32.3658 45.4047C31.8205 45.2547 31.218 44.9965 30.5579 44.6292C29.8979 44.2619 29.102 43.7034 28.17 42.9537C27.2385 42.2038 26.2225 41.2873 25.1225 40.2039L24.2601 39.4413C23.7148 38.9473 22.9503 38.2174 21.9664 37.2527C20.982 36.2877 20.0772 35.3373 19.2516 34.4019C18.9137 34.0059 18.5273 33.7506 18.0925 33.6351L17.8935 33.5951C17.7535 33.5468 17.5457 33.5167 17.2707 33.5037C16.9954 33.4909 16.7195 33.5097 16.442 33.5598L7.49687 36.8254C6.58043 37.1525 6.0327 37.582 5.85326 38.1135L5.79222 38.3564C5.76575 38.489 5.795 38.6753 5.88071 38.9155C5.96638 39.1555 6.13699 39.4268 6.39252 39.7289C8.79981 42.3387 11.2826 44.7981 13.8409 47.1076C16.3993 49.4172 18.5577 51.2427 20.3147 52.5825C22.0724 53.9235 23.8169 55.1585 25.548 56.2868C27.2794 57.4157 28.4137 58.1302 28.951 58.4302C29.4891 58.7309 29.9058 58.9505 30.2018 59.0908L31.3006 59.5841C32.0112 59.9211 33.0041 60.2739 34.2796 60.6427C35.5555 61.0118 36.936 61.3308 38.4221 61.6005C39.9081 61.8691 41.549 61.9354 43.3453 61.7985C45.1416 61.6622 46.7986 61.2734 48.317 60.6338L52.0812 59.2905C52.821 58.9522 53.3137 58.5057 53.559 57.9511L53.6307 57.7406C53.6718 57.5791 53.6816 57.3475 53.66 57.0482C53.6393 56.7481 53.5701 56.4341 53.4535 56.1072C53.0964 55.1771 52.8661 54.3061 52.7607 53.4951C52.6553 52.6844 52.6387 52.0507 52.7103 51.5944C52.782 51.1384 52.9016 50.7326 53.0694 50.3783C53.2376 50.0232 53.3674 49.7981 53.4573 49.7045C53.5464 49.6108 53.6199 49.5426 53.6774 49.4969C54.1388 49.1355 54.8154 49.0845 55.7084 49.3445C56.6007 49.6041 57.492 49.9999 58.3828 50.5303C59.2735 51.0616 60.3223 51.6399 61.5297 52.2666C62.7379 52.8935 63.7503 53.3186 64.5685 53.544L65.363 53.7032C65.8936 53.8093 66.5466 53.8469 67.3229 53.8159C68.0978 53.7851 68.7281 53.6217 69.2137 53.3255L77.5459 50.2047C78.3746 49.9089 78.9705 49.5416 79.3308 49.1061C79.6918 48.6698 79.8568 48.2721 79.828 47.9139C79.7988 47.5555 79.671 47.1826 79.4473 46.7946C79.2219 46.4083 79.0422 46.1462 78.9077 46.0097Z" fill="#2D2FEE"/>
</g>
<rect x="97.7383" y="47.3406" width="62" height="16" stroke="#2D2FEE" stroke-width="3" stroke-linecap="round" stroke-linejoin="round"/>
<rect x="12" y="85" width="61" height="16" stroke="#2D2FEE" stroke-width="3" stroke-linecap="round" stroke-linejoin="round"/>
<rect x="12.7383" y="110.341" width="61" height="10" stroke="#2D2FEE" stroke-width="3" stroke-linecap="round" stroke-linejoin="round"/>
<defs>
<clipPath id="clip0">
<rect width="66.748" height="66.748" fill="white" transform="translate(0 22.4343) rotate(-19.6398)"/>
</clipPath>
</defs>
</svg>
