<svg width="48" height="48" viewBox="0 0 48 48" fill="none" xmlns="http://www.w3.org/2000/svg">
<g clip-path="url(#clip0)">
<path d="M47.7455 35.0394C47.6874 34.9141 47.6332 34.8102 47.5829 34.7269C46.7501 33.2271 45.1586 31.386 42.8095 29.2034L42.7599 29.1534L42.735 29.1289L42.7099 29.1038H42.6847C41.6185 28.0874 40.9434 27.404 40.6606 27.0542C40.1433 26.3877 40.0274 25.713 40.3101 25.0295C40.5099 24.513 41.2602 23.4224 42.5594 21.756C43.2428 20.8728 43.784 20.165 44.1837 19.6318C47.0663 15.7995 48.316 13.3507 47.9326 12.2843L47.7837 12.0351C47.6837 11.885 47.4254 11.7478 47.0094 11.6226C46.5924 11.4977 46.0594 11.477 45.4094 11.5603L38.212 11.61C38.0954 11.5687 37.9289 11.5725 37.712 11.6226C37.4954 11.6727 37.387 11.6978 37.387 11.6978L37.2618 11.7604L37.1623 11.8356C37.079 11.8853 36.9873 11.9727 36.8873 12.0977C36.7878 12.2223 36.7045 12.3685 36.638 12.535C35.8544 14.551 34.9635 16.4254 33.9636 18.1581C33.3471 19.1912 32.7809 20.0866 32.2638 20.8447C31.7475 21.6026 31.3143 22.161 30.9646 22.5189C30.6145 22.8772 30.2985 23.1642 30.0147 23.381C29.7314 23.598 29.5151 23.6896 29.3653 23.6561C29.2152 23.6226 29.0738 23.5893 28.94 23.556C28.7069 23.406 28.5194 23.202 28.378 22.9437C28.236 22.6855 28.1404 22.3605 28.0905 21.9689C28.0407 21.5771 28.0113 21.2401 28.0029 20.9568C27.9951 20.6738 27.9987 20.2735 28.0156 19.757C28.033 19.2403 28.0407 18.8907 28.0407 18.7074C28.0407 18.0742 28.0531 17.387 28.0779 16.6456C28.1031 15.9041 28.1235 15.3167 28.1405 14.8839C28.1575 14.4507 28.1654 13.9924 28.1654 13.5092C28.1654 13.026 28.136 12.6471 28.0779 12.3721C28.0204 12.0974 27.9323 11.8308 27.8161 11.5723C27.6993 11.314 27.5282 11.1143 27.3038 10.9725C27.0789 10.8308 26.7993 10.7185 26.4666 10.6349C25.5835 10.4351 24.4589 10.327 23.0924 10.3102C19.9937 10.2769 18.0025 10.477 17.1195 10.9102C16.7696 11.0933 16.453 11.3434 16.1699 11.6597C15.8699 12.0264 15.8281 12.2265 16.0446 12.2594C17.0445 12.4092 17.7523 12.7675 18.1688 13.3339L18.319 13.634C18.4357 13.8506 18.5523 14.234 18.669 14.7837C18.7855 15.3334 18.8607 15.9415 18.8938 16.6077C18.9769 17.8241 18.9769 18.8654 18.8938 19.7317C18.8104 20.5983 18.7316 21.2729 18.6564 21.7561C18.5812 22.2393 18.4688 22.6308 18.319 22.9306C18.1688 23.2305 18.069 23.4138 18.0189 23.4803C17.9689 23.5468 17.9272 23.5888 17.8942 23.6052C17.6776 23.6882 17.4524 23.7305 17.2193 23.7305C16.9858 23.7305 16.7027 23.6137 16.3696 23.3803C16.0365 23.147 15.6908 22.8264 15.3326 22.4182C14.9743 22.0098 14.5702 21.4392 14.1202 20.7062C13.6705 19.9732 13.204 19.1068 12.7208 18.1072L12.321 17.3822C12.0711 16.9159 11.7297 16.2368 11.2965 15.3456C10.8631 14.4541 10.4799 13.5917 10.1469 12.7586C10.0137 12.4087 9.81371 12.1424 9.54716 11.9591L9.42208 11.8839C9.33892 11.8174 9.20543 11.7467 9.02231 11.6714C8.83893 11.5962 8.64758 11.5423 8.44747 11.5091L1.59977 11.5589C0.900025 11.5589 0.42524 11.7174 0.175243 12.034L0.0751918 12.1838C0.0252098 12.2672 0 12.4004 0 12.5838C0 12.7671 0.0499819 12.9921 0.150033 13.2584C1.14967 15.6078 2.23676 17.8737 3.41129 20.0562C4.58582 22.2388 5.60647 23.9969 6.47262 25.329C7.33894 26.6621 8.22199 27.9202 9.12175 29.1028C10.0215 30.2858 10.6171 31.044 10.9085 31.377C11.2002 31.7107 11.4294 31.9602 11.596 32.1267L12.2209 32.7264C12.6207 33.1264 13.2079 33.6054 13.9827 34.1634C14.7576 34.7218 15.6156 35.2715 16.5569 35.8134C17.4984 36.3545 18.5937 36.796 19.8434 37.1375C21.093 37.4793 22.3092 37.6164 23.4922 37.5503H26.3663C26.9492 37.4999 27.3908 37.3166 27.691 37.0003L27.7904 36.875C27.8573 36.7756 27.9199 36.6211 27.9776 36.4132C28.0361 36.205 28.0652 35.9755 28.0652 35.726C28.0481 35.0097 28.1026 34.3641 28.2273 33.7894C28.3518 33.2148 28.4938 32.7816 28.6526 32.4898C28.8113 32.1984 28.9904 31.9524 29.1897 31.753C29.3895 31.5531 29.5318 31.4321 29.6153 31.3904C29.6983 31.3485 29.7646 31.32 29.8145 31.303C30.2144 31.1697 30.685 31.2988 31.227 31.6907C31.7686 32.0822 32.2765 32.5656 32.7517 33.1402C33.2265 33.7153 33.7971 34.3605 34.4634 35.0768C35.1301 35.7934 35.7131 36.326 36.2128 36.6764L36.7124 36.9763C37.0461 37.1764 37.4793 37.3597 38.0125 37.5263C38.5448 37.6928 39.0112 37.7344 39.4117 37.6512L45.8093 37.5514C46.4421 37.5514 46.9345 37.4466 47.2837 37.2387C47.6337 37.0305 47.8416 36.8011 47.9086 36.5515C47.9755 36.3017 47.9791 36.0183 47.9213 35.7014C47.862 35.3853 47.8037 35.1643 47.7455 35.0394Z" fill="white"/>
</g>
<defs>
<clipPath id="clip0">
<rect width="48" height="48" fill="white"/>
</clipPath>
</defs>
</svg>
