<svg width="361" height="254" viewBox="0 0 361 254" fill="none" xmlns="http://www.w3.org/2000/svg">
<g clip-path="url(#clip0)">
<path d="M46.7492 229.736C71.4496 235.597 95.834 242.722 119.806 251.082C109.1 208.351 128.036 159.84 164.822 135.671C172.004 142.939 179.776 156.178 183.758 165.582C187.758 145.647 195.874 126.934 205.399 108.945L206.408 107.686C182.999 95.8672 157.957 87.6179 132.113 83.2109L153.544 120.314C104.909 140.669 75.4387 186.184 44.9585 229.182" fill="#2D2FEE"/>
<path d="M45.9868 232.501C70.6855 238.4 95.0693 245.55 119.044 253.924C119.531 254.051 120.042 254.048 120.527 253.915C121.013 253.783 121.455 253.525 121.809 253.168C122.164 252.811 122.419 252.367 122.549 251.88C122.679 251.394 122.679 250.882 122.549 250.395C114.548 217.965 123.826 182.14 145.409 156.807C151.488 149.659 158.543 143.404 166.365 138.227L162.897 137.769C170.772 146.354 177.032 156.293 181.376 167.108C181.666 167.586 182.088 167.969 182.591 168.21C183.094 168.452 183.656 168.542 184.21 168.469C184.763 168.396 185.283 168.164 185.707 167.8C186.13 167.437 186.439 166.958 186.596 166.421C188.747 155.903 191.852 145.604 195.873 135.651C197.778 130.768 199.988 125.961 202.274 121.23C204.084 117.414 205.703 112.874 208.313 109.631C208.617 109.321 208.846 108.945 208.985 108.533C209.123 108.121 209.166 107.683 209.111 107.251C209.056 106.82 208.904 106.407 208.667 106.043C208.43 105.678 208.113 105.373 207.741 105.148C184.099 93.2088 158.817 84.8513 132.722 80.3493C132.179 80.2198 131.609 80.2504 131.083 80.4375C130.557 80.6246 130.095 80.9601 129.755 81.4037C129.415 81.8473 129.21 82.38 129.165 82.9375C129.12 83.4951 129.237 84.0538 129.503 84.5461L150.934 121.649L152.648 117.453C114.186 133.667 86.8874 165.658 62.8843 198.679C55.931 208.217 49.1682 217.965 42.3101 227.618C40.1765 230.632 45.1295 233.493 47.2441 230.517C70.1042 198.221 92.5263 163.598 124.854 139.81C133.933 133.062 143.773 127.409 154.172 122.966C154.588 122.84 154.97 122.623 155.291 122.331C155.612 122.039 155.864 121.679 156.029 121.276C156.193 120.874 156.265 120.44 156.241 120.007C156.216 119.573 156.095 119.15 155.887 118.769L134.437 81.6656L131.217 85.8624C156.818 90.239 181.631 98.3905 204.846 110.051L204.274 105.549C201.726 109.157 199.591 113.042 197.912 117.128C195.454 122.164 193.149 127.296 191.015 132.485C186.649 142.907 183.281 153.721 180.957 164.781L186.177 164.094C181.611 152.833 175.047 142.492 166.803 133.572C166.35 133.134 165.767 132.854 165.142 132.775C164.517 132.696 163.883 132.821 163.336 133.133C133.827 152.667 115.52 186.871 114.034 222.105C113.618 232.084 114.619 242.071 117.006 251.768L120.511 248.258C96.5448 239.899 72.1668 232.774 47.4727 226.912C43.8913 226.054 42.3673 231.567 45.9487 232.425L45.9868 232.501Z" fill="#2D2FEE"/>
<path d="M52.0639 97.4989C61.5243 105.514 69.6803 114.955 76.2385 125.484C76.5332 125.954 76.9566 126.33 77.4582 126.566C77.9599 126.802 78.5187 126.89 79.0684 126.817C79.6182 126.745 80.1356 126.516 80.5592 126.158C80.9828 125.8 81.2949 125.327 81.4583 124.797C83.5992 114.33 89.2446 104.908 97.4604 98.0902C100.28 95.7248 96.2221 91.6997 93.4218 94.0461C84.4794 101.549 78.3249 111.852 75.9528 123.29L81.1725 122.603C74.3758 111.644 65.918 101.81 56.1026 93.4547C53.3213 91.0892 49.2445 95.1143 52.0639 97.4989Z" fill="#2D2FEE"/>
<path d="M84.0681 114.553C73.6667 91.1651 85.2302 61.9594 105.957 48.3581C118.318 40.6166 132.872 37.1456 147.391 38.4766C154.817 39.0546 162.126 40.6661 169.108 43.2647C176.097 45.6378 182.635 49.1788 188.444 53.7376C191.343 55.8519 193.375 58.9508 194.159 62.4554C194.424 63.7843 194.33 65.1597 193.888 66.4404C193.446 67.7211 192.672 68.8609 191.644 69.7425C187.206 72.852 182.691 66.6331 181.986 62.7797C180.881 56.8279 186.634 52.4404 191.511 50.6281C198.396 48.317 205.769 47.863 212.885 49.3119C227.916 52.2496 236.755 66.2325 243.06 79.0708C249 91.2829 252.666 104.477 253.881 118.005C256.588 145.303 249.688 172.691 234.374 195.436C232.458 198.202 230.405 200.87 228.22 203.429C225.858 206.233 229.878 210.296 232.259 207.473C252.395 183.742 261.939 152.152 259.863 121.134C258.857 105.526 254.832 90.2619 248.014 76.1903C240.851 61.597 230.335 46.3741 213.19 43.5699C205.118 42.0467 196.787 42.7052 189.053 45.4776C182.634 48.0338 176.29 53.356 176.023 60.7385C175.973 63.9168 176.877 67.0368 178.62 69.6936C180.363 72.3503 182.863 74.4211 185.796 75.6371C192.711 78.0979 198.864 72.4132 199.702 65.7174C200.769 57.3621 194.807 50.9906 188.387 46.6412C181.344 41.9628 173.637 38.3743 165.526 35.9967C149.487 31.0115 132.278 31.2721 116.396 36.7406C102.079 41.9038 90.1004 52.0631 82.6584 65.355C75.3421 77.9905 72.8576 92.8568 75.667 107.189C76.4494 110.694 77.5921 114.107 79.077 117.376C80.5629 120.733 85.4969 117.815 84.0109 114.476L84.0681 114.553Z" fill="#2D2FEE"/>
<path d="M268.607 213.73L306.612 196.237L302.402 194.52C305.119 209.146 304.828 224.173 301.544 238.682C300.725 242.268 306.231 243.794 307.05 240.208C310.558 224.695 310.856 208.627 307.926 192.994C307.799 192.577 307.581 192.194 307.287 191.873C306.993 191.551 306.63 191.3 306.227 191.137C305.823 190.974 305.388 190.904 304.953 190.932C304.519 190.959 304.096 191.084 303.716 191.297L265.711 208.789C262.377 210.335 265.273 215.256 268.607 213.73Z" fill="#2D2FEE"/>
<path d="M143.676 221.666L162.879 233.322C163.533 233.706 164.313 233.815 165.047 233.623C165.781 233.432 166.409 232.957 166.793 232.301C167.177 231.646 167.286 230.865 167.095 230.13C166.903 229.395 166.428 228.766 165.774 228.381L146.553 216.726C145.9 216.376 145.138 216.293 144.426 216.495C143.714 216.696 143.108 217.167 142.735 217.807C142.362 218.447 142.252 219.207 142.428 219.927C142.603 220.647 143.051 221.27 143.676 221.666Z" fill="#2D2FEE"/>
<path d="M179.795 241.371C184.56 243.728 189.838 244.856 195.149 244.652C195.907 244.652 196.634 244.351 197.17 243.814C197.706 243.278 198.007 242.55 198.007 241.791C198.007 241.032 197.706 240.304 197.17 239.768C196.634 239.231 195.907 238.93 195.149 238.93C193.976 239.006 192.799 239.006 191.625 238.93H190.863H190.368L188.768 238.643C187.661 238.409 186.567 238.116 185.491 237.766C184.92 237.575 184.367 237.365 183.834 237.136C183.053 236.831 184.348 237.384 183.586 237.041L182.672 236.602C182.022 236.269 181.272 236.189 180.568 236.38C179.863 236.57 179.255 237.017 178.862 237.632C178.481 238.288 178.375 239.068 178.568 239.801C178.761 240.534 179.236 241.161 179.89 241.543L179.795 241.371Z" fill="#2D2FEE"/>
<path d="M215.285 250.108C224.267 251.695 233.411 252.163 242.508 251.501C243.266 251.501 243.993 251.199 244.529 250.662C245.065 250.126 245.366 249.398 245.366 248.639C245.366 247.88 245.065 247.152 244.529 246.616C243.993 246.079 243.266 245.778 242.508 245.778C233.92 246.453 225.281 246.056 216.79 244.595C216.061 244.416 215.291 244.524 214.639 244.897C213.987 245.27 213.503 245.878 213.285 246.598C213.087 247.329 213.186 248.109 213.561 248.767C213.936 249.425 214.556 249.907 215.285 250.108Z" fill="#2D2FEE"/>
<path d="M271.179 244.843C274.658 244.292 277.97 242.97 280.874 240.973C283.777 238.976 286.199 236.356 287.962 233.302C288.167 232.977 288.305 232.614 288.367 232.235C288.429 231.855 288.414 231.467 288.323 231.094C288.232 230.72 288.067 230.369 287.837 230.061C287.608 229.753 287.318 229.494 286.987 229.301C286.655 229.107 286.288 228.982 285.907 228.934C285.526 228.886 285.139 228.914 284.77 229.019C284.4 229.124 284.055 229.302 283.756 229.543C283.457 229.784 283.209 230.083 283.028 230.422C282.647 231.07 282.228 231.7 281.79 232.329C281.352 232.959 281.98 232.12 281.79 232.329L281.428 232.768C281.199 233.054 280.933 233.34 280.685 233.608C280.167 234.158 279.62 234.68 279.047 235.172L278.609 235.534C278.494 235.63 278.056 235.935 278.609 235.534L277.694 236.183C277.079 236.603 276.443 236.991 275.789 237.346L274.78 237.842L274.36 238.033C274.951 237.766 274.36 238.033 274.36 238.033C272.92 238.599 271.417 238.989 269.884 239.197C269.153 239.402 268.532 239.888 268.158 240.549C267.783 241.21 267.684 241.992 267.883 242.726C268.105 243.443 268.59 244.049 269.241 244.421C269.892 244.793 270.66 244.903 271.389 244.729L271.179 244.843Z" fill="#2D2FEE"/>
<path d="M156.192 18.2179C162.022 14.5589 168.322 11.7096 174.918 9.74806C175.623 9.51119 176.212 9.01497 176.566 8.35981C176.919 7.70465 177.011 6.93942 176.823 6.21894C176.614 5.49398 176.131 4.87921 175.476 4.50521C174.822 4.13121 174.048 4.02746 173.318 4.21596C166.257 6.31586 159.505 9.34355 153.239 13.2199C152.614 13.6161 152.166 14.2397 151.991 14.9595C151.815 15.6793 151.925 16.4392 152.298 17.0793C152.671 17.7194 153.277 18.1898 153.989 18.3915C154.701 18.5932 155.463 18.5105 156.116 18.1607L156.192 18.2179Z" fill="#2D2FEE"/>
<path d="M200.045 7.15387C207.356 5.31772 214.994 5.21321 222.353 6.84864C223.075 7.02585 223.837 6.91448 224.478 6.53815C225.12 6.16182 225.589 5.55016 225.787 4.83291C225.986 4.11567 225.897 3.34928 225.54 2.69635C225.184 2.04343 224.587 1.55532 223.877 1.33561C215.518 -0.557418 206.832 -0.452849 198.521 1.64084C194.959 2.53742 196.464 8.06953 200.045 7.15387Z" fill="#2D2FEE"/>
<path d="M256.453 8.87062C262.93 8.1005 269.452 9.87873 274.646 13.8304C275.292 14.1776 276.047 14.2643 276.755 14.0728C277.463 13.8813 278.072 13.4262 278.456 12.8003C278.798 12.152 278.882 11.398 278.691 10.69C278.5 9.98213 278.048 9.37294 277.427 8.9851C271.35 4.53799 263.845 2.49951 256.358 3.26223C255.606 3.28154 254.89 3.58921 254.358 4.1217C253.827 4.6542 253.519 5.37085 253.5 6.12367C253.51 6.87949 253.814 7.60158 254.348 8.13608C254.882 8.67057 255.603 8.97522 256.358 8.9851L256.453 8.87062Z" fill="#2D2FEE"/>
<path d="M295.391 28.1952L312.651 41.8347C313.198 42.3484 313.92 42.6343 314.67 42.6343C315.42 42.6343 316.142 42.3484 316.689 41.8347C317.22 41.2958 317.517 40.5694 317.517 39.8126C317.517 39.0559 317.22 38.3295 316.689 37.7906L299.43 24.1511C298.883 23.6374 298.161 23.3516 297.411 23.3516C296.661 23.3516 295.939 23.6374 295.391 24.1511C294.861 24.69 294.563 25.4164 294.563 26.1731C294.563 26.9299 294.861 27.6563 295.391 28.1952Z" fill="#2D2FEE"/>
<path d="M337.969 71.2496C344.524 73.2938 350.816 76.1047 356.714 79.6241C357.038 79.8296 357.401 79.9676 357.78 80.0297C358.159 80.0919 358.546 80.0769 358.919 79.9857C359.292 79.8945 359.643 79.729 359.951 79.499C360.259 79.269 360.517 78.9793 360.71 78.6471C360.904 78.315 361.028 77.9472 361.076 77.5657C361.125 77.1843 361.096 76.797 360.991 76.427C360.887 76.0571 360.709 75.712 360.468 75.4124C360.227 75.1128 359.929 74.8648 359.59 74.6833C353.266 70.9195 346.52 67.9165 339.493 65.7366C338.771 65.5594 338.008 65.6708 337.367 66.0471C336.726 66.4234 336.256 67.0351 336.058 67.7523C335.86 68.4696 335.948 69.236 336.305 69.8889C336.662 70.5418 337.258 71.0299 337.969 71.2496Z" fill="#2D2FEE"/>
<path d="M2.09538 139.828C9.45895 142.883 16.1323 147.392 21.717 153.086C24.3078 155.719 28.3465 151.675 25.7556 149.042C19.4537 142.677 11.9214 137.666 3.6194 134.315C2.90209 134.113 2.13413 134.199 1.47931 134.555C0.824488 134.912 0.334632 135.51 0.114181 136.223C-0.0741529 136.944 0.0178048 137.709 0.371463 138.364C0.725121 139.019 1.31408 139.515 2.01919 139.752L2.09538 139.828Z" fill="#2D2FEE"/>
<path d="M32.3089 175.482L39.2431 195.016C39.4605 195.74 39.948 196.352 40.6044 196.725C41.2608 197.098 42.0354 197.203 42.7674 197.019C43.4793 196.798 44.0769 196.308 44.4328 195.652C44.7887 194.996 44.8747 194.227 44.6724 193.509L37.7572 173.956C37.5358 173.235 37.0475 172.626 36.3924 172.253C35.7372 171.881 34.9647 171.774 34.2329 171.953C33.5048 172.162 32.8875 172.649 32.5136 173.309C32.1396 173.968 32.0388 174.749 32.2327 175.482H32.3089Z" fill="#2D2FEE"/>
</g>
<defs>
<clipPath id="clip0">
<rect width="361" height="254" fill="white"/>
</clipPath>
</defs>
</svg>
