<svg width="361" height="244" viewBox="0 0 361 244" fill="none" xmlns="http://www.w3.org/2000/svg">
<g clip-path="url(#clip0)">
<path d="M133.35 129.622L126.945 119.174C125.436 116.726 124.229 112.935 126.727 111.51C128.572 110.436 131.221 111.745 132.914 110.453C134.608 109.162 134.055 106.965 133.87 105.053C133.606 103.209 133.819 101.329 134.488 99.5906C135.158 97.8526 136.261 96.315 137.693 95.1246C140.711 92.9612 145.691 93.6152 147.301 96.9694C148.541 93.7997 149.916 90.4791 152.616 88.4162C155.315 86.3534 159.776 86.1689 161.721 88.9697C162.391 89.9592 162.76 91.2505 163.833 91.7704C166.499 93.0618 167.874 88.5336 170.071 86.5715C171.107 85.8256 172.358 85.437 173.634 85.4642C174.91 85.4914 176.143 85.933 177.146 86.7224C179.114 88.3431 180.695 90.3829 181.774 92.6928C184.071 89.1877 186.804 85.431 190.896 84.4751C194.987 83.5191 200.034 87.5609 198.307 91.3847C199.394 89.6954 201.037 88.4392 202.952 87.8329C204.867 87.2266 206.934 87.3084 208.795 88.0641C210.656 88.8199 212.195 90.2021 213.146 91.972C214.096 93.7419 214.399 95.7883 214.001 97.7576C217.69 95.5103 222.687 99.1664 223.441 103.426C224.196 107.686 222.15 111.812 220.188 115.719L225.051 112.751C226.61 115.85 226.992 119.409 226.125 122.768C225.258 126.127 223.203 129.057 220.339 131.014" fill="#2D2FEE"/>
<path d="M135.53 128.347L131.254 121.388C129.832 119.548 128.701 117.5 127.901 115.316C127.381 113.17 128.639 113.639 130.399 113.639C131.446 113.705 132.49 113.489 133.425 113.015C134.36 112.54 135.15 111.823 135.714 110.939C137.71 107.468 135.346 103.158 137.207 99.5015C138.632 96.6839 143.176 94.8224 145.054 98.294C145.313 98.7074 145.686 99.0377 146.127 99.2455C146.569 99.4534 147.061 99.53 147.545 99.4665C148.029 99.4029 148.484 99.2017 148.857 98.8868C149.23 98.572 149.504 98.1566 149.648 97.6902C150.922 94.5037 152.633 89.9253 156.573 89.4557C160.513 88.9861 160.463 94.1348 164.236 94.487C168.008 94.8392 169.182 91.1328 171.278 88.8855C174.631 85.5313 178.22 91.6359 179.527 93.9167C179.755 94.2879 180.075 94.5944 180.455 94.807C180.835 95.0196 181.263 95.1312 181.699 95.1312C182.134 95.1312 182.563 95.0196 182.943 94.807C183.323 94.5944 183.642 94.2879 183.87 93.9167C185.547 91.2669 187.861 87.7115 191.181 86.9401C193.344 86.4369 196.798 88.0972 195.808 90.6632C194.735 93.4975 198.894 94.7721 200.42 92.6086C204.058 87.4264 212.526 90.7135 211.503 97.0361C211.385 97.5157 211.408 98.0193 211.571 98.4856C211.734 98.952 212.028 99.361 212.419 99.663C212.81 99.965 213.28 100.147 213.772 100.187C214.264 100.227 214.757 100.123 215.191 99.8872C217.522 98.6294 220.071 101.162 220.758 103.241C221.949 106.965 219.585 111.208 217.941 114.411C217.706 114.891 217.629 115.433 217.721 115.959C217.813 116.485 218.068 116.969 218.452 117.341C218.835 117.714 219.326 117.955 219.855 118.031C220.384 118.107 220.923 118.014 221.395 117.765L226.258 114.78L222.804 113.891C224.041 116.409 224.336 119.287 223.634 122.003C222.933 124.72 221.282 127.095 218.981 128.7C216.298 130.494 218.813 134.855 221.513 133.043C224.932 130.732 227.392 127.253 228.432 123.259C229.472 119.264 229.021 115.028 227.163 111.342C226.818 110.772 226.264 110.358 225.62 110.189C224.975 110.02 224.29 110.109 223.709 110.436L218.847 113.421L222.284 116.859C224.9 111.744 227.851 105.271 224.699 99.7195C222.318 95.4932 217.153 93.0111 212.66 95.4597L216.348 98.294C216.92 95.7349 216.57 93.0562 215.361 90.7297C214.151 88.4032 212.16 86.5782 209.738 85.576C207.315 84.5739 204.617 84.459 202.118 85.2516C199.619 86.0441 197.479 87.6932 196.077 89.9085L200.671 91.8539C202.633 86.6885 197.519 81.9759 192.639 81.6572C186.637 81.238 182.478 86.7724 179.527 91.2334H183.87C181.472 86.9401 178.102 82.3951 172.603 82.848C171.502 82.9455 170.434 83.2791 169.474 83.826C168.513 84.373 167.682 85.1205 167.036 86.0177C166.399 86.8394 165.879 87.6948 165.242 88.5501C164.99 88.8519 164.688 89.1035 164.437 89.4054C164.655 89.137 164.755 89.6737 164.739 89.1538C164.722 88.6339 163.531 87.1245 163.062 86.655C162.291 85.8465 161.352 85.2168 160.312 84.8102C158.191 84.03 155.861 84.03 153.739 84.8102C148.709 86.6214 146.58 91.5185 144.769 96.1641L149.363 95.5603C148.084 93.4907 146.039 92.0115 143.673 91.4459C141.307 90.8802 138.814 91.2741 136.737 92.5415C131.975 95.3926 130.986 101.028 131.372 106.109C131.456 107.317 131.791 108.306 130.366 108.424C129.063 108.384 127.759 108.48 126.476 108.709C125.351 109.078 124.374 109.799 123.689 110.765C123.004 111.731 122.646 112.891 122.67 114.075C122.832 116.563 123.673 118.959 125.101 121.002C127.079 124.255 129.091 127.509 131.087 130.746C132.763 133.513 137.123 130.98 135.429 128.213L135.53 128.347Z" fill="#2D2FEE"/>
<path d="M89.5539 157.714C74.7523 162.944 59.5425 166.938 44.081 169.655C40.4453 170.025 36.838 170.636 33.2828 171.483C31.7752 171.844 30.4329 172.702 29.4718 173.919C28.5108 175.136 27.9869 176.64 27.9844 178.191C28.2538 181.342 29.173 184.403 30.6839 187.18C32.0009 190.043 33.6257 192.753 35.5297 195.264C39.8328 201.015 45.4422 205.66 51.8945 208.815C54.7953 210.224 57.3439 205.897 54.4264 204.471C49.4342 202.098 44.9873 198.717 41.3658 194.54C37.7442 190.364 35.0264 185.482 33.3834 180.204C33.0313 178.963 32.5954 177.453 33.9032 176.665C35.0653 176.157 36.309 175.862 37.5753 175.793C41.0964 175.267 44.6064 174.708 48.1051 174.116C54.8121 172.858 61.519 171.382 68.2259 169.638C75.8886 167.642 83.4506 165.294 90.9121 162.661C93.9469 161.588 92.5888 156.724 89.5707 157.814L89.5539 157.714Z" fill="#2D2FEE"/>
<path d="M33.2831 193.687C27.0894 199.04 21.3778 204.927 16.2139 211.28C11.9886 216.663 9.30582 224.411 15.2247 229.728C20.5567 234.507 28.7559 234.876 35.5299 234.759C44.1147 234.625 52.7164 233.635 61.2677 232.965L90.8955 230.667C94.0981 230.415 94.1316 225.384 90.8955 225.636L44.819 229.208C37.7935 229.745 30.1476 230.533 23.3065 228.453C20.9256 227.732 18.2763 226.441 17.1529 224.042C15.8116 220.973 17.7398 217.636 19.5003 215.187C22.0204 211.904 24.7776 208.81 27.7499 205.93C30.6897 202.933 33.7246 200.038 36.8545 197.243C39.269 195.079 35.6976 191.524 33.2831 193.67V193.687Z" fill="#2D2FEE"/>
<path d="M53.4036 213.779C58.5799 209.539 64.7147 206.63 71.273 205.306C77.8313 203.981 84.614 204.282 91.0294 206.181C94.1314 207.104 95.456 202.257 92.3708 201.318C85.0958 199.207 77.4139 198.915 69.9997 200.467C62.5855 202.02 55.666 205.37 49.8489 210.223C47.3506 212.303 50.922 215.842 53.4036 213.779Z" fill="#2D2FEE"/>
<path d="M250.386 154.896C275.654 156.053 298.324 169.856 323.592 171.298L321.429 167.508L299.263 199.003C297.402 201.653 301.761 204.169 303.606 201.536L325.772 170.057C325.986 169.672 326.097 169.239 326.094 168.798C326.092 168.358 325.975 167.926 325.755 167.544C325.536 167.163 325.221 166.844 324.842 166.62C324.463 166.397 324.032 166.275 323.592 166.267C298.357 164.824 275.705 151.022 250.386 149.865C247.15 149.714 247.167 154.745 250.386 154.896Z" fill="#2D2FEE"/>
<path d="M252.482 233.501C277.671 236.454 303.155 235.731 328.136 231.355C334.429 230.304 340.695 229.057 346.932 227.615C349.799 226.944 352.784 226.407 355.601 225.518C356.704 225.207 357.722 224.648 358.576 223.883C359.43 223.119 360.099 222.17 360.53 221.108C362.459 216.076 357.999 211.515 355.098 207.909C351.863 203.913 348.203 200.28 344.182 197.075C335.132 189.814 324.481 184.818 313.113 182.501C309.96 181.864 308.602 186.71 311.788 187.348C321.046 189.207 329.816 192.971 337.542 198.4C341.305 201.053 344.793 204.076 347.955 207.423C349.481 209.1 350.956 210.777 352.331 212.538C352.985 213.393 353.606 214.215 354.209 215.137C355.018 216.035 355.629 217.091 356.003 218.24C356.355 220.772 353.186 221.007 351.493 221.426C348.486 222.164 345.473 222.863 342.455 223.523C336.866 224.753 331.277 225.837 325.688 226.776C314.394 228.656 302.991 229.81 291.55 230.231C278.526 230.704 265.484 230.143 252.549 228.554C249.346 228.168 249.38 233.199 252.549 233.585L252.482 233.501Z" fill="#2D2FEE"/>
<path d="M252.482 207.355C261.989 206.332 271.53 205.779 281.087 205.678C290.091 205.493 299.531 205.879 307.395 210.709C307.969 211.017 308.64 211.089 309.267 210.912C309.893 210.735 310.427 210.321 310.755 209.759C311.083 209.196 311.18 208.528 311.025 207.895C310.871 207.262 310.477 206.714 309.927 206.365C301.677 201.334 291.919 200.58 282.495 200.68C272.435 200.798 262.375 201.401 252.482 202.475C249.296 202.827 249.263 207.858 252.482 207.506V207.355Z" fill="#2D2FEE"/>
<path d="M3.65547 109.531C9.20821 113.919 15.0325 117.952 21.0934 121.606C21.6676 121.913 22.3386 121.986 22.9653 121.809C23.592 121.631 24.1255 121.218 24.4535 120.655C24.7815 120.092 24.8785 119.424 24.724 118.792C24.5696 118.159 24.1757 117.61 23.6253 117.262C17.9243 113.845 12.442 110.075 7.21013 105.975C6.72844 105.524 6.09299 105.272 5.4328 105.272C4.7726 105.272 4.13715 105.524 3.65547 105.975C3.18853 106.449 2.92676 107.088 2.92676 107.753C2.92676 108.418 3.18853 109.057 3.65547 109.531Z" fill="#2D2FEE"/>
<path d="M5.03009 104.919C5.03009 104.919 5.03009 104.768 5.03009 104.684C5.03009 104.6 5.03009 104.952 5.03009 104.969C5.08868 104.801 5.12806 104.626 5.14747 104.449C5.14747 104.349 5.31514 103.862 5.14747 104.265C4.9798 104.667 5.14747 104.147 5.29837 104.03C5.44928 103.913 5.66725 103.426 5.44927 103.795C5.2313 104.164 5.44927 103.795 5.58341 103.661C5.68688 103.546 5.79899 103.44 5.91875 103.342C6.32117 102.957 5.51634 103.577 6.00259 103.342C6.26693 103.17 6.54129 103.013 6.8242 102.873C7.32722 102.604 6.47209 102.973 6.8242 102.873L7.36074 102.705C7.66936 102.615 7.98285 102.542 8.29971 102.487C8.63505 102.487 7.77992 102.487 8.11526 102.487H9.40635C10.0267 102.487 9.02071 102.403 9.40635 102.487C9.792 102.571 10.0771 102.638 10.4124 102.755C10.7477 102.873 10.0938 102.571 10.4124 102.755L10.8316 102.99C10.9888 103.081 11.14 103.182 11.2843 103.292L11.1669 103.191L11.5358 103.51C11.8209 103.778 12.0556 104.08 12.3239 104.349C11.9885 103.996 12.3239 104.349 12.4412 104.533L12.7934 105.103L13.3131 106.143C13.0616 105.59 13.3131 106.227 13.3131 106.378L13.5143 107.032C13.6462 107.512 13.7526 107.999 13.8329 108.491V108.793C13.8329 108.592 13.8329 108.407 13.8329 108.709C13.8329 109.011 13.8329 109.246 13.8329 109.514C13.8807 110.511 13.8358 111.51 13.6988 112.499C13.6988 113.166 13.9638 113.806 14.4354 114.278C14.9071 114.75 15.5468 115.015 16.2139 115.015C16.8756 114.998 17.5055 114.727 17.9735 114.259C18.4416 113.791 18.712 113.161 18.729 112.499C19.1063 110.256 18.959 107.956 18.2986 105.78C17.6383 103.603 16.4828 101.61 14.9228 99.9546C13.3581 98.505 11.3563 97.6164 9.23192 97.4282C7.10749 97.24 4.98076 97.7629 3.1857 98.9148C2.14814 99.5589 1.28154 100.444 0.659707 101.495C0.0378738 102.547 -0.320787 103.733 -0.385742 104.952C-0.385742 105.619 -0.120749 106.259 0.350923 106.731C0.822595 107.203 1.46231 107.468 2.12935 107.468C2.7937 107.459 3.42839 107.191 3.89819 106.722C4.36799 106.252 4.63576 105.617 4.64445 104.952L5.03009 104.919Z" fill="#2D2FEE"/>
<path d="M16.432 85.5317C18.9838 93.4408 23.785 100.434 30.2483 105.657C30.7318 106.105 31.3666 106.354 32.0256 106.354C32.6847 106.354 33.3194 106.105 33.803 105.657C34.267 105.178 34.5265 104.538 34.5265 103.871C34.5265 103.204 34.267 102.563 33.803 102.085C27.9534 97.4591 23.5968 91.2115 21.2778 84.123C21.0731 83.5035 20.6401 82.9853 20.067 82.6738C19.4939 82.3622 18.8237 82.2807 18.1926 82.4459C17.5517 82.6299 17.0084 83.0578 16.6793 83.6378C16.3502 84.2178 16.2614 84.9038 16.432 85.5485V85.5317Z" fill="#2D2FEE"/>
<path d="M17.4544 87.2257C24.8451 87.5194 31.8745 90.5011 37.223 95.6111C39.5537 97.8417 43.1252 94.2862 40.7777 92.0557C34.464 86.0364 26.1703 82.5297 17.4544 82.1944C14.2183 82.077 14.2183 87.1083 17.4544 87.2257Z" fill="#2D2FEE"/>
<path d="M26.4082 100.642L32.9307 91.1157C33.2615 90.5386 33.352 89.8544 33.1826 89.211C33.0131 88.5677 32.5974 88.0169 32.0252 87.6777C31.4483 87.3539 30.7685 87.2657 30.128 87.4313C29.4875 87.5969 28.9358 88.0036 28.5879 88.5665L22.0655 98.0924C21.8972 98.3771 21.7871 98.6923 21.7416 99.0199C21.696 99.3474 21.716 99.6808 21.8002 100.001C21.8844 100.32 22.0312 100.62 22.2322 100.883C22.4332 101.145 22.6842 101.366 22.9709 101.53C23.5479 101.854 24.2276 101.942 24.8681 101.777C25.5086 101.611 26.0604 101.204 26.4082 100.642Z" fill="#2D2FEE"/>
<path d="M31.6229 76.0056L45.2883 86.6216L48.3232 82.6637C47.719 82.167 47.2323 81.5427 46.8979 80.8356C46.6077 80.2363 46.4805 79.5711 46.5291 78.907C46.6392 78.2363 47.0061 77.6348 47.5519 77.2299C47.7579 77.0916 47.9769 76.9737 48.2058 76.8777C48.2058 76.8777 48.6082 76.8777 48.3399 76.8777C48.3399 76.8777 49.1112 76.8777 48.7423 76.8777C49.307 77.031 49.7967 77.3842 50.1205 77.8716C50.4444 78.359 50.5803 78.9474 50.5029 79.5275C50.5029 79.1921 50.4023 79.9468 50.4023 79.9635C50.4023 79.9803 50.2514 80.366 50.4023 80.1312C50.239 80.4932 50.0365 80.8363 49.7987 81.1543C49.3113 81.729 48.6972 82.1825 48.0046 82.4792C47.3731 82.6776 46.8403 83.108 46.5136 83.6838C46.1869 84.2596 46.0905 84.9378 46.244 85.5818C46.428 86.2228 46.8558 86.7662 47.4357 87.0954C48.0156 87.4246 48.7014 87.5134 49.346 87.3427C51.029 86.7814 52.5136 85.7447 53.6204 84.3579C54.7273 82.9711 55.409 81.2934 55.5834 79.5275C55.6667 77.7986 55.1396 76.0954 54.0944 74.7158C53.0492 73.3362 51.5524 72.368 49.8658 71.9806C48.0626 71.7329 46.232 72.1686 44.7335 73.2019C43.2351 74.2352 42.177 75.7916 41.7671 77.5653C41.4401 79.385 41.6515 81.2605 42.3753 82.9617C43.0991 84.6629 44.3039 86.1156 45.8416 87.1415C46.3683 87.4453 46.9873 87.548 47.5838 87.4306C48.1804 87.3131 48.7143 86.9834 49.0866 86.5026C49.4589 86.0218 49.6444 85.4223 49.6089 84.8152C49.5733 84.2081 49.3191 83.6344 48.8932 83.2003L35.2447 72.5676C34.7584 72.1185 34.1208 71.8691 33.4589 71.8691C32.7971 71.8691 32.1595 72.1185 31.6732 72.5676C31.2092 73.0463 30.9497 73.6869 30.9497 74.3537C30.9497 75.0205 31.2092 75.6611 31.6732 76.1398L31.6229 76.0056Z" fill="#2D2FEE"/>
<path d="M34.1044 75.3845C35.5326 73.6371 37.0789 71.9897 38.7322 70.4538C39.5371 69.6991 40.409 68.978 41.2473 68.2736L41.8677 67.7705L42.0186 67.6531L42.1863 67.5189L43.6115 66.4959C44.1525 66.1496 44.5449 65.614 44.7124 64.9938C44.8798 64.3736 44.8101 63.7133 44.5169 63.1417C44.1746 62.5683 43.6209 62.1521 42.975 61.9827C42.3291 61.8134 41.6425 61.9043 41.0629 62.2361C37.1366 64.9707 33.5999 68.2261 30.5498 71.9129C30.0939 72.3947 29.8312 73.0275 29.812 73.6906C29.8124 74.1878 29.9602 74.6738 30.2366 75.0871C30.513 75.5004 30.9056 75.8225 31.3649 76.0127C31.8242 76.2029 32.3296 76.2527 32.8172 76.1558C33.3048 76.0589 33.7527 75.8197 34.1044 75.4683V75.3845Z" fill="#2D2FEE"/>
<path d="M51.962 58.3963C52.4249 60.7076 53.4629 62.8649 54.9801 64.6686C56.4263 66.5413 58.4184 67.9185 60.681 68.6098C66.2813 70.0018 69.685 63.9475 70.2551 59.2852C70.5865 57.046 70.253 54.7589 69.2962 52.7076C68.3393 50.6563 66.8012 48.9314 64.8728 47.7468C61.2175 45.684 56.0197 45.7343 53.0519 49.0549C50.084 52.3755 49.6984 58.1615 53.2531 61.2809C53.7329 61.7362 54.369 61.9901 55.0304 61.9901C55.6918 61.9901 56.328 61.7362 56.8077 61.2809C57.2747 60.8071 57.5364 60.1685 57.5364 59.5032C57.5364 58.8379 57.2747 58.1993 56.8077 57.7255C56.6904 57.6081 56.0532 56.8869 56.4053 57.3733C56.2376 57.1553 56.1371 56.8366 55.9526 56.6354C55.7682 56.4341 56.1035 57.1553 55.9526 56.6354L55.8352 56.2664C55.8115 56.1079 55.7779 55.9511 55.7346 55.7968C55.7346 55.6123 55.7346 55.6626 55.7346 55.9813C55.7264 55.8528 55.7264 55.724 55.7346 55.5956C55.7179 55.3331 55.7179 55.0698 55.7346 54.8073C55.7346 54.2036 55.6005 55.126 55.7346 54.8073C55.8688 54.4887 55.7346 54.4719 55.8352 54.321C55.8666 54.1902 55.9058 54.0613 55.9526 53.9352C55.9526 53.9352 56.1706 53.2979 55.9526 53.6669C55.7346 54.0359 56.07 53.4489 56.07 53.4321C56.07 53.4153 56.2544 53.0799 56.3718 52.9122C56.4387 52.8022 56.5114 52.6958 56.5898 52.5936C56.2376 53.0799 56.5898 52.5936 56.7071 52.4929C56.8245 52.3923 57.3611 51.9227 56.9251 52.2414C57.2188 52.035 57.527 51.85 57.8473 51.6879C57.4449 51.906 57.7299 51.6879 57.8473 51.6879L58.4677 51.5035C58.4677 51.5035 59.2725 51.3525 58.6522 51.5035H59.0881C59.457 51.5035 59.8259 51.5035 60.1947 51.5035C60.3121 51.5035 60.6475 51.6041 60.1947 51.5035H60.6307C61.0652 51.6045 61.4913 51.7391 61.905 51.906C61.4523 51.7047 62.1565 52.0569 62.3074 52.124L62.8775 52.4762C62.8775 52.4762 63.2631 52.7613 62.8775 52.4762C63.1657 52.7055 63.4349 52.9579 63.6823 53.2309C63.7916 53.3346 63.8925 53.4467 63.9841 53.5663C63.6488 53.1638 64.1183 53.7675 64.1518 53.8178C64.9023 54.9558 65.2883 56.2955 65.2585 57.6584C65.2585 58.0441 65.2585 58.4131 65.2585 58.7988C65.2585 59.587 65.2585 58.5472 65.2585 59.0001C65.2585 59.4529 65.2584 59.4193 65.1243 59.6206C64.9756 60.3217 64.7449 61.0028 64.4369 61.6499C64.194 62.2213 63.8342 62.7354 63.3805 63.1592C63.3805 63.1592 62.8272 63.6456 63.0787 63.4444C63.3302 63.2431 62.6931 63.6791 62.7434 63.6456C62.7937 63.6121 62.3074 63.8133 62.7434 63.6456C62.6428 63.6456 62.0056 63.7798 62.4751 63.7462C62.4751 63.7462 61.7709 63.7462 62.0056 63.7462C62.2404 63.7462 61.3181 63.4779 61.5697 63.5785C61.1751 63.3806 60.7942 63.1565 60.4295 62.9077C60.0271 62.6393 60.245 62.7735 60.4295 62.9077C60.1963 62.7358 59.9776 62.545 59.7756 62.3375C59.4361 62.0285 59.1168 61.698 58.8198 61.348C58.8198 61.348 58.5348 60.979 58.8198 61.348C58.6689 61.1467 58.5348 60.9287 58.4006 60.7275C58.1342 60.3064 57.8934 59.8695 57.6797 59.4193C57.6797 59.4193 57.4952 58.9833 57.6797 59.4193L57.4281 58.715C57.2773 58.243 57.1597 57.761 57.076 57.2727C56.8748 56.6471 56.4398 56.1234 55.8618 55.811C55.2839 55.4985 54.6075 55.4213 53.9741 55.5956C53.3547 55.8003 52.8366 56.2334 52.5252 56.8066C52.2137 57.3798 52.1322 58.0502 52.2973 58.6814L51.962 58.3963Z" fill="#2D2FEE"/>
<path d="M71.1104 43.3018L81.1708 35.4195C81.6418 34.9478 81.9063 34.3084 81.9063 33.6417C81.9063 32.9751 81.6418 32.3357 81.1708 31.864C80.9398 31.6273 80.6631 31.4399 80.3577 31.3131C80.0522 31.1862 79.7242 31.1226 79.3935 31.1261C78.7352 31.1665 78.1095 31.4263 77.6161 31.864L67.6564 39.7631C67.4197 39.9942 67.2323 40.2709 67.1055 40.5764C66.9787 40.882 66.9151 41.21 66.9186 41.5408C66.9186 42.208 67.1836 42.8479 67.6553 43.3197C68.1269 43.7914 68.7666 44.0565 69.4337 44.0565C70.0587 43.9899 70.6461 43.7255 71.1104 43.3018Z" fill="#2D2FEE"/>
<path d="M71.9988 40.267L81.9585 53.5664C82.3065 54.1289 82.8571 54.5364 83.4966 54.7049C84.1361 54.8734 84.8159 54.79 85.3958 54.472C85.9459 54.1338 86.346 53.5982 86.5143 52.9747C86.6826 52.3512 86.6064 51.687 86.3013 51.1178L76.3415 37.8185C75.9935 37.256 75.443 36.8484 74.8034 36.6799C74.1639 36.5114 73.4841 36.5948 72.9042 36.9128C72.3572 37.2538 71.9597 37.7894 71.7917 38.4118C71.6237 39.0341 71.6977 39.697 71.9988 40.267Z" fill="#2D2FEE"/>
<path d="M88.6824 26.8664C90.1689 33.7815 92.1697 40.5759 94.6682 47.1928C94.8461 47.8377 95.2729 48.3856 95.8546 48.7158C96.4363 49.0461 97.1254 49.1317 97.7702 48.9537C98.415 48.7758 98.9627 48.349 99.2929 47.7671C99.6231 47.1853 99.7087 46.4961 99.5308 45.8511C97.0193 39.2443 95.0181 32.4545 93.5449 25.5415C93.3692 24.8966 92.9446 24.3479 92.3644 24.016C91.7843 23.6842 91.0961 23.5965 90.4513 23.7722C89.8065 23.9479 89.2579 24.3726 88.9261 24.9529C88.5944 25.5332 88.5067 26.2215 88.6824 26.8664Z" fill="#2D2FEE"/>
<path d="M89.2353 28.6617C96.0956 31.0181 102.257 35.0539 107.16 40.4013C107.636 40.8457 108.267 41.0876 108.919 41.0761C109.57 41.0646 110.192 40.8006 110.653 40.3397C111.113 39.8788 111.377 39.257 111.389 38.6052C111.4 37.9535 111.158 37.3228 110.714 36.8459C105.203 30.8787 98.286 26.3871 90.5935 23.7813C89.9581 23.6256 89.2871 23.7235 88.7228 24.0543C88.1584 24.3852 87.7452 24.9229 87.5707 25.5535C87.3961 26.1841 87.4741 26.8578 87.788 27.4319C88.1019 28.0059 88.6271 28.435 89.2521 28.6281L89.2353 28.6617Z" fill="#2D2FEE"/>
<path d="M98.4409 41.8095L104.695 34.7658C105.158 34.2885 105.422 33.6528 105.433 32.988C105.432 32.4908 105.285 32.0049 105.008 31.5916C104.732 31.1783 104.339 30.8562 103.88 30.666C103.421 30.4758 102.915 30.4259 102.428 30.5228C101.94 30.6197 101.492 30.859 101.14 31.2103L94.8862 38.2709C94.4303 38.7527 94.1677 39.3855 94.1484 40.0486C94.1562 40.7141 94.4205 41.351 94.8862 41.8263C95.362 42.2894 95.9997 42.5485 96.6635 42.5485C97.3274 42.5485 97.9651 42.2894 98.4409 41.8263V41.8095Z" fill="#2D2FEE"/>
<path d="M126.979 13.9531C129.547 20.3269 131.742 26.8451 133.551 33.4744C133.773 34.0676 134.208 34.5564 134.772 34.8444C135.335 35.1324 135.987 35.1987 136.597 35.0303C137.207 34.862 137.732 34.4711 138.068 33.9348C138.405 33.3984 138.528 32.7555 138.414 32.1328C136.588 25.5062 134.388 18.9886 131.824 12.6114C131.613 11.993 131.176 11.477 130.601 11.1662C130.026 10.8554 129.356 10.7726 128.722 10.9343C128.094 11.132 127.568 11.5665 127.255 12.1457C126.942 12.7249 126.867 13.4033 127.046 14.037L126.979 13.9531Z" fill="#2D2FEE"/>
<path d="M132.797 11.9407C132.462 12.3935 133.048 11.7395 133.132 11.6556C133.216 11.5718 133.333 11.4711 133.132 11.6556L133.484 11.4376C133.602 11.4376 134.39 11.0351 133.837 11.2363C134.1 11.1373 134.369 11.0533 134.641 10.9848H135.077C134.759 10.9848 134.742 10.9848 135.077 10.9848C135.368 10.9679 135.659 10.9679 135.949 10.9848H136.385C136.067 10.9848 136.067 10.9848 136.385 10.9848C136.674 11.0417 136.959 11.1144 137.24 11.2028L137.659 11.337C137.391 11.2196 137.391 11.2196 137.659 11.337L138.397 11.773C138.934 12.0749 138.162 11.4711 138.582 11.9072C139.001 12.3432 139.034 12.3264 139.236 12.5612C138.951 12.2426 139.487 12.947 139.554 13.0476C139.719 13.3221 139.865 13.6079 139.99 13.9029C139.822 13.4669 140.124 14.3557 140.141 14.4396C140.238 14.7523 140.31 15.0719 140.359 15.3955C140.275 14.9092 140.359 15.8483 140.359 15.949C140.376 16.2786 140.376 16.6088 140.359 16.9384C140.359 17.1062 140.359 17.2739 140.359 17.4416C140.359 17.1732 140.359 17.2068 140.359 17.4416C140.359 17.6764 140.225 18.0789 140.141 18.3975C140.047 18.7166 139.935 19.0301 139.806 19.3367C139.973 18.951 139.688 19.5715 139.655 19.6386C139.621 19.7056 139.303 20.2423 139.118 20.5442L138.816 20.9802L138.733 21.0809C138.285 21.6149 137.797 22.1139 137.274 22.5735L136.871 22.9089C137.039 22.7915 136.989 22.9089 136.754 23.0095L135.865 23.5965C134.791 24.3224 133.616 24.8874 132.378 25.2736C132.051 25.3537 131.743 25.4987 131.474 25.6999C131.204 25.9011 130.977 26.1544 130.807 26.4448C130.637 26.7352 130.526 27.0568 130.483 27.3906C130.439 27.7244 130.463 28.0636 130.553 28.388C130.642 28.7124 130.796 29.0155 131.005 29.2794C131.215 29.5432 131.474 29.7624 131.77 29.9239C132.065 30.0855 132.39 30.1861 132.724 30.2198C133.059 30.2536 133.398 30.2198 133.719 30.1204C139.152 28.4433 144.417 24.3176 145.289 18.3807C145.794 15.5172 145.195 12.5685 143.612 10.1295C142.814 8.94162 141.763 7.94613 140.533 7.21515C139.304 6.48417 137.927 6.03601 136.503 5.90318C134.982 5.74245 133.446 5.98125 132.047 6.59597C130.647 7.21069 129.432 8.18006 128.521 9.40831C128.216 9.97746 128.14 10.6417 128.308 11.2652C128.477 11.8887 128.877 12.4243 129.427 12.7625C130.006 13.0847 130.687 13.1704 131.328 13.0016C131.968 12.8328 132.519 12.4226 132.864 11.8569L132.797 11.9407Z" fill="#2D2FEE"/>
<path d="M153.387 4.61134L150.403 27.772C150.403 28.4392 150.668 29.079 151.139 29.5508C151.611 30.0226 152.251 30.2876 152.918 30.2876C153.58 30.2706 154.21 30.0001 154.678 29.532C155.146 29.0639 155.416 28.4338 155.433 27.772L158.418 4.61134C158.602 3.26967 157.143 2.0957 155.903 2.0957C155.241 2.11268 154.611 2.38317 154.143 2.85131C153.675 3.31945 153.404 3.9495 153.387 4.61134Z" fill="#2D2FEE"/>
<path d="M155.919 5.5011C160.583 11.4324 163.706 18.4276 165.007 25.861C165.187 26.5008 165.611 27.044 166.189 27.3734C166.766 27.7029 167.449 27.7921 168.092 27.6219C168.727 27.4342 169.264 27.0082 169.592 26.4331C169.921 25.858 170.014 25.1783 169.852 24.5361C168.307 16.2528 164.716 8.48723 159.406 1.94566C158.935 1.47456 158.296 1.20996 157.629 1.20996C156.963 1.20996 156.323 1.47456 155.852 1.94566C155.4 2.42744 155.149 3.06304 155.149 3.72338C155.149 4.38372 155.4 5.01931 155.852 5.5011H155.919Z" fill="#2D2FEE"/>
<path d="M157.378 21.785L163.196 20.4266C163.823 20.2325 164.349 19.8013 164.662 19.2248C164.975 18.6483 165.051 17.9722 164.873 17.3407C164.668 16.7213 164.235 16.2031 163.662 15.8915C163.089 15.58 162.419 15.4985 161.788 15.6637L155.986 17.0221C155.346 17.2024 154.803 17.6271 154.474 18.2044C154.145 18.7817 154.055 19.4654 154.226 20.1079C154.43 20.7274 154.863 21.2456 155.436 21.5572C156.009 21.8687 156.68 21.9502 157.311 21.785H157.378Z" fill="#2D2FEE"/>
<path d="M175.235 3.90758C175.934 10.1897 176.297 16.5044 176.325 22.8252C176.333 23.4279 176.557 24.0078 176.956 24.4593C177.356 24.9107 177.904 25.2038 178.501 25.285C179.098 25.3663 179.705 25.2304 180.21 24.902C180.715 24.5737 181.086 24.0747 181.255 23.496C181.493 22.858 181.894 22.2934 182.417 21.858C182.941 21.4226 183.569 21.1316 184.239 21.0139C184.745 20.9597 185.256 21.0468 185.715 21.2655C185.329 20.9804 186.151 21.7518 186.033 21.5674C185.916 21.3829 186.184 21.8525 186.201 21.9028C186.034 21.6009 186.201 21.9028 186.201 22.0537L186.302 22.5065C186.302 22.7581 186.302 22.1879 186.302 22.6407C186.293 22.7915 186.293 22.9427 186.302 23.0935C186.302 22.5568 186.302 23.0935 186.302 23.1941C186.302 23.2948 186.52 22.909 186.302 23.2948C186.084 23.6805 186.168 23.5295 186.302 23.2948C186.05 23.6973 186.402 23.2948 186.201 23.4121C186 23.5295 185.748 23.6134 185.933 23.5463C184.256 24.1333 182.361 22.1879 181.288 21.1145C179.025 18.8169 175.453 22.3724 177.734 24.67C180.433 27.4036 184.34 29.8354 188.213 28.0241C189.497 27.3535 190.502 26.2489 191.049 24.9069C191.595 23.5649 191.648 22.0725 191.198 20.6953C190.765 19.1993 189.817 17.9045 188.523 17.0392C187.228 16.1739 185.67 15.7937 184.122 15.9659C182.393 16.142 180.752 16.8178 179.401 17.9108C178.049 19.0037 177.044 20.4665 176.51 22.1208L181.456 22.7916C181.428 16.4709 181.064 10.1561 180.366 3.87404C180.345 3.2135 180.073 2.58576 179.606 2.11846C179.139 1.65116 178.511 1.37938 177.851 1.3584C177.184 1.3584 176.544 1.62344 176.073 2.09521C175.601 2.56698 175.336 3.20685 175.336 3.87404L175.235 3.90758Z" fill="#2D2FEE"/>
<path d="M179.175 5.6851L180.986 5.33291H181.372L182.16 5.23229C184.434 4.98669 186.727 4.98669 189.001 5.23229H189.387L190.175 5.34969C190.778 5.45031 191.365 5.58447 191.969 5.71864C192.602 5.88444 193.275 5.80348 193.85 5.49214C194.426 5.18079 194.862 4.6623 195.071 4.04155C195.236 3.39917 195.145 2.7175 194.816 2.14131C194.488 1.56512 193.947 1.1398 193.31 0.955704C188.215 -0.192266 182.929 -0.192266 177.834 0.955704C177.208 1.15699 176.685 1.59208 176.373 2.17017C176.06 2.74827 175.983 3.4247 176.157 4.05832C176.365 4.67907 176.802 5.19757 177.377 5.50891C177.953 5.82026 178.626 5.90121 179.259 5.73541L179.175 5.6851Z" fill="#2D2FEE"/>
<path d="M199.631 7.84855C197.255 12.6181 196.592 18.0602 197.753 23.261C198.164 25.6358 199.414 27.7841 201.275 29.3153C202.295 30.0275 203.465 30.4962 204.694 30.6852C205.924 30.8742 207.18 30.7784 208.367 30.4054C213.515 28.8793 215.762 23.1604 216.365 18.2968C216.919 13.7184 216.047 8.36845 212.022 5.55093C208.602 3.05207 200.906 3.75644 200.889 9.2573C200.889 9.92449 201.154 10.5644 201.626 11.0361C202.097 11.5079 202.737 11.7729 203.404 11.7729C204.071 11.7729 204.711 11.5079 205.183 11.0361C205.654 10.5644 205.919 9.92449 205.919 9.2573C205.919 8.65355 205.684 9.97845 205.919 9.44178C205.835 9.64304 205.684 9.54241 205.819 9.57596C205.601 9.72689 205.567 9.76044 205.718 9.57596C205.869 9.39148 206.405 9.24053 206.003 9.3747L206.456 9.24054C206.456 9.24054 207.126 9.12315 206.858 9.24054H207.529H208.032C207.881 9.24054 207.713 9.13992 208.116 9.24054L208.602 9.39147C208.906 9.53767 209.193 9.71769 209.457 9.92814C210.335 10.7138 210.925 11.7704 211.134 12.9301C211.499 14.5247 211.578 16.1714 211.369 17.7937C211.083 20.4267 209.96 24.5021 207.311 25.5083C206.791 25.7389 206.222 25.8337 205.656 25.7839C205.09 25.734 204.546 25.5411 204.075 25.2232C203.667 24.8606 203.351 24.4066 203.153 23.8983C203.153 24.0493 202.951 23.3449 202.918 23.2107C202.786 22.804 202.68 22.3895 202.599 21.9697C201.731 18.0807 202.21 14.0122 203.957 10.4313C204.271 9.85037 204.352 9.17175 204.184 8.53322C204.016 7.89469 203.611 7.3441 203.052 6.99323C202.475 6.66233 201.791 6.57183 201.148 6.7413C200.505 6.91076 199.954 7.32657 199.615 7.89886L199.631 7.84855Z" fill="#2D2FEE"/>
<path d="M224.38 12.528L236.586 17.5592C237.218 17.7418 237.896 17.6682 238.473 17.3542C239.051 17.0403 239.481 16.5114 239.672 15.8821C239.829 15.249 239.745 14.5798 239.434 14.0058C239.124 13.4317 238.611 12.9944 237.995 12.7795L225.788 7.74825C225.155 7.56516 224.474 7.63834 223.894 7.95203C223.314 8.26572 222.88 8.79482 222.686 9.42534C222.529 10.0695 222.623 10.7496 222.951 11.3264C223.278 11.9032 223.813 12.333 224.447 12.528H224.38Z" fill="#2D2FEE"/>
<path d="M228.102 15.6642C227.544 21.9097 226.058 28.0371 223.692 33.8439C223.518 34.4775 223.595 35.1539 223.908 35.732C224.22 36.3101 224.744 36.7452 225.369 36.9465C226.002 37.1123 226.675 37.0313 227.251 36.72C227.827 36.4086 228.263 35.8902 228.471 35.2694C230.978 29.0296 232.538 22.4496 233.099 15.7481C233.094 15.0822 232.828 14.4449 232.357 13.9741C231.887 13.5033 231.249 13.2368 230.584 13.2324C229.921 13.2453 229.288 13.5145 228.819 13.9835C228.351 14.4525 228.081 15.0849 228.069 15.7481L228.102 15.6642Z" fill="#2D2FEE"/>
<path d="M254.812 22.0369L241.499 35.8058C241.055 36.2827 240.813 36.9134 240.825 37.5652C240.836 38.2169 241.1 38.8387 241.561 39.2996C242.022 39.7605 242.643 40.0245 243.295 40.036C243.947 40.0475 244.577 39.8056 245.054 39.3612L258.367 25.5923C258.834 25.1185 259.096 24.4799 259.096 23.8146C259.096 23.1493 258.834 22.5107 258.367 22.0369C257.889 21.5777 257.252 21.3213 256.59 21.3213C255.927 21.3213 255.29 21.5777 254.812 22.0369Z" fill="#2D2FEE"/>
<path d="M256.288 25.391C257.664 32.2092 258.082 39.1862 257.529 46.1199C257.533 46.7857 257.8 47.423 258.27 47.8938C258.741 48.3646 259.378 48.6311 260.044 48.6355C260.706 48.6185 261.336 48.348 261.804 47.8799C262.272 47.4117 262.542 46.7817 262.559 46.1199C263.118 38.7326 262.638 31.3034 261.134 24.0493C260.941 23.4242 260.512 22.8989 259.938 22.585C259.364 22.271 258.69 22.193 258.06 22.3675C257.429 22.5421 256.892 22.9555 256.561 23.5199C256.23 24.0844 256.132 24.7556 256.288 25.391Z" fill="#2D2FEE"/>
<path d="M249.397 36.8619C252.269 39.0114 255.637 40.4015 259.189 40.9037C259.846 41.0571 260.537 40.9678 261.134 40.6521C261.7 40.3171 262.114 39.7763 262.291 39.1427C262.38 38.8208 262.404 38.4842 262.36 38.1529C262.317 37.8217 262.208 37.5024 262.039 37.2141C261.881 36.9279 261.665 36.6774 261.405 36.4783C261.146 36.2792 260.848 36.1357 260.53 36.0569C258.894 35.816 257.291 35.3884 255.752 34.7823L256.003 34.8829L255.701 34.7488L255.131 34.4804C254.762 34.2959 254.393 34.1115 254.025 33.8935C253.3 33.4763 252.6 33.0171 251.929 32.5182C251.639 32.3462 251.317 32.2339 250.983 32.1878C250.649 32.1417 250.309 32.1628 249.984 32.2499C249.36 32.4378 248.829 32.8501 248.491 33.4071C248.319 33.6969 248.207 34.0191 248.164 34.3537C248.121 34.6883 248.147 35.0283 248.24 35.3525C248.449 35.9695 248.855 36.5002 249.397 36.8619Z" fill="#2D2FEE"/>
<path d="M275.202 36.4094C272.687 41.1891 270.171 45.952 267.64 50.7485C267.24 51.3495 267.002 52.0435 266.949 52.7633C266.896 53.4831 267.03 54.2044 267.338 54.8574C268.212 55.9258 269.377 56.718 270.691 57.1382L278.002 60.6601C278.584 60.9791 279.267 61.063 279.909 60.8946C280.551 60.7262 281.105 60.3182 281.456 59.7545C281.757 59.1845 281.831 58.5216 281.663 57.8992C281.495 57.2769 281.097 56.7413 280.55 56.4003L275.671 53.935L273.29 52.7946L272.2 52.2579L271.462 51.9057C271.183 51.7939 271.133 51.7604 271.312 51.8051L271.966 52.912C272.083 53.2474 271.697 53.8679 272.1 53.1132L272.485 52.3753L273.542 50.3796L275.537 46.5726L279.561 38.9418C279.883 38.3627 279.969 37.6814 279.8 37.0405C279.631 36.3996 279.221 35.849 278.656 35.5038C278.087 35.1986 277.423 35.1223 276.799 35.2907C276.176 35.459 275.64 35.8592 275.302 36.4094H275.202Z" fill="#2D2FEE"/>
<path d="M272.754 48.3339L283.854 53.4826C284.433 53.8048 285.114 53.8905 285.754 53.7217C286.395 53.5529 286.946 53.1427 287.291 52.577C287.598 52.0098 287.676 51.347 287.511 50.7237C287.346 50.1004 286.949 49.5636 286.402 49.2228L275.285 44.0741C274.715 43.777 274.053 43.7051 273.432 43.8729C272.811 44.0406 272.276 44.4357 271.932 44.9797C271.606 45.5579 271.518 46.2406 271.687 46.8827C271.856 47.5248 272.269 48.0755 272.837 48.4178L272.754 48.3339Z" fill="#2D2FEE"/>
<path d="M277.784 40.4007C278.767 40.5505 279.736 40.7747 280.685 41.0715C281.171 41.2225 281.657 41.3902 282.127 41.5747C282.236 41.6265 282.348 41.6714 282.462 41.7088C282.328 41.7088 282.06 41.5243 282.362 41.7088L283.099 42.0442C283.99 42.4848 284.847 42.9892 285.665 43.5536L286.252 43.9897C286.57 44.2077 286.252 43.9897 286.168 43.9897C286.084 43.9897 286.419 44.1741 286.453 44.2245C286.872 44.5599 287.274 44.9288 287.66 45.2978C288.147 45.7715 288.802 46.0323 289.481 46.0229C290.16 46.0134 290.808 45.7345 291.282 45.2475C291.755 44.7604 292.016 44.1051 292.007 43.4258C291.997 42.7464 291.718 42.0987 291.231 41.625C287.912 38.4069 283.688 36.2824 279.125 35.5371C278.468 35.3822 277.777 35.4716 277.18 35.7887C276.754 36.0388 276.411 36.4092 276.193 36.8534C275.976 37.2977 275.895 37.7961 275.959 38.2865C276.023 38.7768 276.231 39.2373 276.555 39.6103C276.88 39.9834 277.307 40.2525 277.784 40.3839V40.4007Z" fill="#2D2FEE"/>
<path d="M297.603 58.1608L290.309 71.5775C290.142 71.8628 290.032 72.1781 289.987 72.5057C289.941 72.8332 289.961 73.1665 290.044 73.4866C290.127 73.8066 290.273 74.1071 290.472 74.3709C290.672 74.6347 290.921 74.8566 291.206 75.024C291.491 75.1913 291.807 75.3009 292.134 75.3464C292.462 75.3919 292.795 75.3724 293.115 75.2891C293.435 75.2058 293.735 75.0603 293.999 74.8608C294.263 74.6614 294.485 74.4119 294.652 74.1267L301.946 60.71C302.253 60.1357 302.326 59.4646 302.149 58.8377C301.971 58.2109 301.558 57.6773 300.995 57.3492C300.433 57.0211 299.765 56.9241 299.132 57.0786C298.499 57.2331 297.951 57.6271 297.603 58.1776V58.1608Z" fill="#2D2FEE"/>
<path d="M296.043 58.0104C296.53 58.1614 296.999 58.3459 297.469 58.5303C297.938 58.7148 297.1 58.3626 297.469 58.5303L297.854 58.6981L298.525 59.0335C299.461 59.5227 300.358 60.0834 301.208 60.7106C301.426 60.8447 301.627 60.9957 301.828 61.1466C302.029 61.2975 302.197 61.4317 301.912 61.1466C301.627 60.8615 301.996 61.1466 302.046 61.264C302.449 61.5771 302.834 61.9125 303.203 62.2703C303.985 62.9996 304.714 63.7843 305.383 64.6182C305.857 65.0852 306.495 65.347 307.16 65.347C307.825 65.347 308.464 65.0852 308.938 64.6182C309.394 64.1355 309.648 63.4964 309.648 62.8321C309.648 62.1678 309.394 61.5287 308.938 61.046C305.933 57.3907 301.94 54.6776 297.435 53.2307C296.802 53.0521 296.123 53.1273 295.544 53.4404C294.965 53.7535 294.531 54.2798 294.333 54.9078C294.163 55.5413 294.242 56.2159 294.554 56.7929C294.866 57.37 295.387 57.8056 296.01 58.0104H296.043Z" fill="#2D2FEE"/>
<path d="M327.952 74.0932C325.616 72.631 322.926 71.8361 320.171 71.7947C317.416 71.7533 314.702 72.467 312.324 73.8584C309.914 75.3296 307.991 77.48 306.798 80.04C305.605 82.5999 305.194 85.4553 305.617 88.2478C306.012 91.4097 307.431 94.3551 309.658 96.6333C310.135 97.0777 310.766 97.3196 311.417 97.3081C312.069 97.2966 312.691 97.0326 313.151 96.5717C313.612 96.1107 313.876 95.4889 313.888 94.8372C313.899 94.1855 313.657 93.5547 313.213 93.0778C313.029 92.8934 312.861 92.7089 312.693 92.5076C312.526 92.3064 312.257 91.9542 312.459 92.2393C312.131 91.7939 311.839 91.3228 311.587 90.8306C311.469 90.6125 311.352 90.3777 311.251 90.1597C311.151 89.9417 311.251 90.1597 311.251 90.1597C311.199 90.0452 311.155 89.9276 311.117 89.8075C310.919 89.2609 310.762 88.7003 310.648 88.1304C310.648 88.0131 310.53 87.4428 310.547 87.577C310.564 87.7112 310.547 87.1577 310.547 87.0236C310.512 86.4651 310.512 85.905 310.547 85.3465C310.547 85.0949 310.547 84.8266 310.547 84.575C310.547 84.9775 310.547 84.357 310.631 84.2564C310.728 83.6859 310.874 83.1248 311.067 82.5793C311.104 82.4592 311.149 82.3416 311.201 82.2271C311.201 82.2271 311.067 82.5122 311.201 82.2271C311.335 81.942 311.419 81.7575 311.536 81.5395C311.785 81.0505 312.077 80.5846 312.408 80.1475C312.19 80.4326 312.677 79.8456 312.744 79.7785C312.811 79.7114 313.096 79.4096 313.28 79.2419C313.465 79.0741 313.649 78.9064 313.834 78.7555C314.018 78.6046 313.834 78.7555 313.834 78.7555L314.236 78.4704C314.661 78.2021 315.097 77.9505 315.544 77.7157L315.846 77.5648C316.114 77.4494 316.388 77.3487 316.667 77.2629C317.145 77.1032 317.632 76.9743 318.126 76.8772L318.663 76.7765H318.83H319.333C321.498 76.5825 323.66 77.1782 325.42 78.4536C325.705 78.621 326.02 78.7306 326.348 78.7761C326.675 78.8216 327.008 78.8021 327.328 78.7188C327.648 78.6355 327.949 78.4899 328.212 78.2905C328.476 78.091 328.698 77.8416 328.865 77.5564C329.033 77.2712 329.142 76.9558 329.188 76.6282C329.233 76.3007 329.214 75.9674 329.131 75.6473C329.047 75.3273 328.902 75.0268 328.702 74.763C328.503 74.4993 328.254 74.2773 327.968 74.11L327.952 74.0932Z" fill="#2D2FEE"/>
<path d="M336.168 95.8618C331.31 100.363 325.993 104.343 320.306 107.736C319.755 108.084 319.361 108.632 319.207 109.265C319.053 109.898 319.15 110.566 319.478 111.129C319.806 111.691 320.339 112.105 320.966 112.282C321.592 112.46 322.263 112.387 322.838 112.079C328.888 108.459 334.546 104.222 339.722 99.434C339.957 99.2006 340.143 98.9232 340.27 98.6178C340.398 98.3123 340.464 97.9848 340.464 97.6539C340.465 97.3229 340.401 96.9951 340.275 96.6891C340.149 96.383 339.964 96.1048 339.731 95.8702C339.497 95.6357 339.22 95.4494 338.915 95.322C338.609 95.1947 338.282 95.1287 337.951 95.1279C337.62 95.1272 337.292 95.1916 336.986 95.3175C336.68 95.4434 336.402 95.6284 336.168 95.8618Z" fill="#2D2FEE"/>
<path d="M336.402 93.9838C331.372 91.3675 325.906 94.4702 323.827 99.2834C323.353 100.436 322.994 101.633 322.754 102.856C322.754 102.973 322.636 103.375 322.62 103.459C322.62 103.241 322.435 103.761 322.62 103.459H322.486C322.301 103.459 322.318 103.459 322.486 103.459H322.234C321.966 103.476 321.697 103.476 321.429 103.459C321.848 103.459 321.06 103.359 321.06 103.359C320.524 103.208 320.004 103.007 319.467 102.822C317.958 102.262 316.332 102.089 314.739 102.319C314.111 102.517 313.585 102.951 313.272 103.53C312.959 104.11 312.884 104.788 313.062 105.422C313.267 106.041 313.7 106.559 314.273 106.871C314.846 107.182 315.516 107.264 316.147 107.099C317.153 107.169 318.134 107.443 319.031 107.904C320.08 108.28 321.187 108.467 322.301 108.457C323.575 108.466 324.812 108.025 325.793 107.212C326.774 106.399 327.438 105.267 327.667 104.013C327.886 102.146 328.669 100.39 329.913 98.9815C330.477 98.418 331.195 98.033 331.976 97.8746C332.635 97.7128 333.33 97.79 333.938 98.0927C334.223 98.2734 334.542 98.3947 334.876 98.4493C335.209 98.5039 335.55 98.4907 335.879 98.4106C336.207 98.3304 336.516 98.1849 336.787 97.9827C337.057 97.7805 337.285 97.5258 337.455 97.2337C337.625 96.9417 337.735 96.6184 337.777 96.283C337.82 95.9477 337.794 95.6072 337.702 95.282C337.61 94.9567 337.454 94.6533 337.242 94.3899C337.03 94.1266 336.767 93.9086 336.469 93.749L336.402 93.9838Z" fill="#2D2FEE"/>
<path d="M95.8253 243.984H251.191C251.742 243.983 252.277 243.802 252.716 243.469C253.155 243.136 253.473 242.669 253.622 242.139C254.427 236.286 253.824 230.03 253.756 224.127C253.678 217.553 253.561 210.979 253.404 204.404C253.136 191.457 252.767 178.493 252.516 165.546C252.398 159.14 252.298 152.75 252.231 146.343C252.231 140.926 253.371 134.302 248.357 130.663C246.534 129.4 244.353 128.759 242.137 128.835C238.616 128.835 235.111 128.835 231.59 128.835H110.228C106.976 128.835 103.672 128.684 100.436 128.835C98.0899 128.884 95.8398 129.777 94.0982 131.35C92.4213 132.968 91.4003 135.148 91.2311 137.472C90.9628 140.926 91.2311 144.499 91.2311 147.97C91.2311 178.594 91.2311 209.212 91.2311 239.825C91.2311 240.492 91.496 241.132 91.9677 241.603C92.4394 242.075 93.0791 242.34 93.7461 242.34C94.4132 242.34 95.0529 242.075 95.5246 241.603C95.9963 241.132 96.2612 240.492 96.2612 239.825C96.2612 213.897 96.2612 187.963 96.2612 162.024C96.2612 155.417 96.2612 148.792 96.2612 142.184C96.2612 139.971 95.6911 137.153 97.3008 135.291C98.9105 133.43 101.543 133.866 103.773 133.866H237.207C239.521 133.866 242.791 133.229 244.937 134.352C247.368 135.627 247.167 138.176 247.184 140.541C247.184 146.757 247.251 152.968 247.385 159.173C247.62 172.942 248.005 186.694 248.307 200.463C248.458 207.272 248.609 214.064 248.693 220.873C248.693 224.362 248.732 227.85 248.81 231.338C249.028 234.476 249.028 237.626 248.81 240.764L251.241 238.902H95.8253C95.1582 238.902 94.5185 239.167 94.0469 239.639C93.5752 240.111 93.3102 240.751 93.3102 241.418C93.3102 242.085 93.5752 242.725 94.0469 243.197C94.5185 243.668 95.1582 243.933 95.8253 243.933V243.984Z" fill="#2D2FEE"/>
<path d="M96.3618 231.758H249.598C250.265 231.758 250.905 231.493 251.377 231.021C251.848 230.549 252.113 229.909 252.113 229.242C252.113 228.575 251.848 227.935 251.377 227.463C250.905 226.992 250.265 226.727 249.598 226.727H96.3618C95.6947 226.727 95.055 226.992 94.5833 227.463C94.1116 227.935 93.8467 228.575 93.8467 229.242C93.8467 229.909 94.1116 230.549 94.5833 231.021C95.055 231.493 95.6947 231.758 96.3618 231.758Z" fill="#2D2FEE"/>
<path d="M188.934 186.93C190.343 188.439 188.33 191.324 187.341 192.43C185.972 194.165 184.26 195.598 182.311 196.64C180.534 197.378 179.142 195.567 177.482 195.08C175.135 194.393 172.955 195.281 170.775 196.019C166.365 197.512 162.073 195.047 159.038 191.827C156.003 188.607 155.4 184.179 156.12 179.802C156.724 176.146 158.166 172.221 161.318 170.041C165.225 167.358 170.021 168.029 174.43 168.565C176.218 168.75 178.015 168.834 179.813 168.817C180.802 168.817 181.791 168.817 182.764 168.817C183.829 168.989 184.904 169.095 185.983 169.136L186.469 169.253C186.34 169.131 186.243 168.979 186.187 168.811C186.13 168.643 186.114 168.464 186.143 168.289C186.171 168.114 186.241 167.948 186.348 167.806C186.454 167.664 186.594 167.551 186.754 167.475C186.376 167.527 186.004 167.622 185.648 167.76C184.608 168.074 183.619 168.537 182.713 169.136C180.852 170.308 179.395 172.023 178.538 174.049C176.862 178.158 177.566 184.481 181.892 186.695C184.407 187.969 187.878 187.533 190.644 187.584C191.311 187.584 191.951 187.319 192.423 186.847C192.894 186.375 193.159 185.735 193.159 185.068C193.159 184.401 192.894 183.761 192.423 183.289C191.951 182.817 191.311 182.552 190.644 182.552H187.123C185.212 182.552 183.77 182.636 182.998 180.557C182.589 179.436 182.518 178.22 182.796 177.06C183.073 175.899 183.686 174.847 184.558 174.033C186.385 172.356 189.32 172.708 190.628 170.461C191.14 169.516 191.259 168.408 190.961 167.375C190.663 166.343 189.971 165.469 189.035 164.943C186.75 164.041 184.293 163.657 181.842 163.819C179.511 163.735 177.163 163.819 174.85 163.584C172.218 163.152 169.55 162.978 166.885 163.065C164.411 163.196 161.999 163.893 159.837 165.102C157.674 166.312 155.818 168.001 154.41 170.041C151.741 174.334 150.469 179.35 150.772 184.397C150.915 186.962 151.617 189.464 152.827 191.729C154.038 193.994 155.728 195.968 157.78 197.512C162.274 201.067 167.438 202.543 172.871 200.531C173.438 200.193 174.076 199.993 174.734 199.947C175.392 199.9 176.052 200.008 176.66 200.262C177.868 201.111 179.248 201.684 180.701 201.939C183.636 202.141 186.084 200.346 188.18 198.585C192.204 195.063 197.049 188.523 192.371 183.491C190.292 180.993 186.805 184.548 188.934 186.93Z" fill="#2D2FEE"/>
<path d="M178.89 159.424C178.89 159.609 178.79 159.995 178.89 159.592C178.882 159.497 178.882 159.402 178.89 159.307C178.937 159.198 178.976 159.086 179.008 158.972C179.008 159.055 178.756 159.475 178.924 159.173C179.02 158.977 179.126 158.787 179.242 158.603L179.41 158.368C179.561 158.116 179.024 158.787 179.326 158.468C179.468 158.298 179.62 158.136 179.779 157.982C179.965 157.859 180.134 157.713 180.282 157.546C180.282 157.546 179.846 157.848 180.131 157.663L180.433 157.462L181.02 157.127L181.288 157.009C181.573 156.858 181.288 157.009 181.154 157.009C181.417 156.949 181.671 156.853 181.908 156.724C182.425 156.568 182.952 156.444 183.485 156.355C183.753 156.355 184.021 156.355 184.289 156.221C184.004 156.221 183.887 156.221 184.289 156.221H184.641L186.318 156.087C186.985 156.087 187.625 155.822 188.097 155.35C188.568 154.878 188.833 154.238 188.833 153.571C188.833 152.904 188.568 152.264 188.097 151.792C187.625 151.321 186.985 151.056 186.318 151.056C183.508 151.06 180.734 151.696 178.203 152.917C177.1 153.537 176.136 154.376 175.369 155.383C174.441 156.538 173.859 157.934 173.692 159.408C173.69 159.738 173.754 160.066 173.881 160.371C174.007 160.677 174.194 160.954 174.43 161.185C174.901 161.657 175.541 161.923 176.208 161.923C176.874 161.919 177.512 161.654 177.985 161.185C178.421 160.691 178.681 160.066 178.723 159.408L178.89 159.424Z" fill="#2D2FEE"/>
<path d="M175.755 161.806C176.976 162.474 178.353 162.804 179.744 162.763C181.135 162.722 182.49 162.31 183.669 161.571C185.595 160.006 187.138 158.021 188.18 155.768C188.518 155.192 188.613 154.506 188.445 153.859C188.277 153.213 187.858 152.66 187.283 152.322C186.707 151.984 186.02 151.889 185.374 152.057C184.728 152.225 184.175 152.643 183.837 153.219C183.468 153.806 183.149 154.427 182.797 155.014C182.613 155.332 182.428 155.651 182.227 155.97C182.159 156.088 182.08 156.2 181.993 156.305L181.842 156.54C181.691 156.741 181.724 156.674 181.976 156.355C181.758 156.557 181.573 156.825 181.339 157.043L181.154 157.211C180.953 157.378 181.003 157.328 181.339 157.077C181.188 157.077 181.054 157.278 180.903 157.362L180.567 157.529C180.316 157.647 180.4 157.529 180.802 157.445L180.551 157.529C180.213 157.647 179.865 157.731 179.511 157.781L180.182 157.68C179.697 157.739 179.207 157.739 178.723 157.68H179.394C179.108 157.653 178.826 157.591 178.555 157.496C178.052 157.345 178.907 157.68 178.689 157.496L178.287 157.295C178.001 157.114 177.682 156.993 177.349 156.938C177.015 156.883 176.674 156.896 176.346 156.977C176.018 157.057 175.709 157.202 175.438 157.405C175.167 157.607 174.94 157.861 174.77 158.153C174.599 158.446 174.49 158.769 174.447 159.104C174.405 159.44 174.43 159.78 174.522 160.105C174.614 160.431 174.771 160.734 174.983 160.997C175.194 161.261 175.457 161.479 175.755 161.638V161.806Z" fill="#2D2FEE"/>
</g>
<defs>
<clipPath id="clip0">
<rect width="361" height="244" fill="white"/>
</clipPath>
</defs>
</svg>
